%TF.GenerationSoftware,KiCad,Pcbnew,7.0.8*%
%TF.CreationDate,2023-11-27T18:53:24+00:00*%
%TF.ProjectId,CAN_PCB,43414e5f-5043-4422-9e6b-696361645f70,rev?*%
%TF.SameCoordinates,Original*%
%TF.FileFunction,Soldermask,Top*%
%TF.FilePolarity,Negative*%
%FSLAX46Y46*%
G04 Gerber Fmt 4.6, Leading zero omitted, Abs format (unit mm)*
G04 Created by KiCad (PCBNEW 7.0.8) date 2023-11-27 18:53:24*
%MOMM*%
%LPD*%
G01*
G04 APERTURE LIST*
%ADD10C,5.600000*%
%ADD11C,1.600000*%
%ADD12O,1.600000X1.600000*%
%ADD13C,3.300000*%
%ADD14C,3.000000*%
%ADD15R,1.700000X1.700000*%
%ADD16O,1.700000X1.700000*%
%ADD17R,1.600000X1.600000*%
%ADD18R,1.500000X1.000000*%
%ADD19R,1.905000X2.000000*%
%ADD20C,4.000000*%
%ADD21O,1.905000X2.000000*%
%ADD22C,2.000000*%
%ADD23R,1.800000X1.800000*%
%ADD24C,1.800000*%
G04 APERTURE END LIST*
G36*
X170815000Y-77089000D02*
G01*
X180721000Y-77089000D01*
X180721000Y-83439000D01*
X170815000Y-83439000D01*
X170815000Y-77089000D01*
G37*
D10*
%TO.C,*%
X97790000Y-48768000D03*
%TD*%
D11*
%TO.C,R10*%
X187960000Y-68834000D03*
D12*
X195580000Y-68834000D03*
%TD*%
D13*
%TO.C,J5*%
X193850000Y-63876000D03*
X174450000Y-63876000D03*
D14*
X188450000Y-63876000D03*
X184150000Y-63876000D03*
X179850000Y-63876000D03*
%TD*%
D15*
%TO.C,J2*%
X99192000Y-87005000D03*
D16*
X99192000Y-89545000D03*
X99192000Y-92085000D03*
X99192000Y-94625000D03*
X99192000Y-97165000D03*
%TD*%
D13*
%TO.C,J1*%
X202012000Y-113111000D03*
X202012000Y-95931000D03*
D14*
X202012000Y-107221000D03*
X202012000Y-101821000D03*
%TD*%
D17*
%TO.C,U2*%
X139446000Y-95123000D03*
D12*
X141986000Y-95123000D03*
X144526000Y-95123000D03*
X147066000Y-95123000D03*
X147066000Y-87503000D03*
X144526000Y-87503000D03*
X141986000Y-87503000D03*
X139446000Y-87503000D03*
%TD*%
D11*
%TO.C,C1*%
X124759000Y-84211000D03*
X129759000Y-84211000D03*
%TD*%
D18*
%TO.C,JP8*%
X184023000Y-71471000D03*
X184023000Y-72771000D03*
X184023000Y-74071000D03*
%TD*%
D13*
%TO.C,J15*%
X174450000Y-111384000D03*
X193850000Y-111384000D03*
D14*
X179850000Y-111384000D03*
X184150000Y-111384000D03*
X188450000Y-111384000D03*
%TD*%
D19*
%TO.C,U4*%
X173288000Y-96379000D03*
D20*
X175828000Y-79719000D03*
D21*
X175828000Y-96379000D03*
X178368000Y-96379000D03*
%TD*%
D18*
%TO.C,JP5*%
X130683000Y-71471000D03*
X130683000Y-72771000D03*
X130683000Y-74071000D03*
%TD*%
D10*
%TO.C,*%
X97790000Y-126492000D03*
%TD*%
D11*
%TO.C,R7*%
X132842000Y-68834000D03*
D12*
X140462000Y-68834000D03*
%TD*%
D22*
%TO.C,Y1*%
X125889000Y-79512000D03*
X121009000Y-79512000D03*
%TD*%
D13*
%TO.C,J4*%
X202012000Y-79329000D03*
X202012000Y-62149000D03*
D14*
X202012000Y-73439000D03*
X202012000Y-68039000D03*
%TD*%
D18*
%TO.C,JP4*%
X184912000Y-105440000D03*
X184912000Y-104140000D03*
X184912000Y-102840000D03*
%TD*%
D11*
%TO.C,R1*%
X139446000Y-81534000D03*
D12*
X147066000Y-81534000D03*
%TD*%
D13*
%TO.C,J12*%
X121110000Y-111384000D03*
X140510000Y-111384000D03*
D14*
X126510000Y-111384000D03*
X130810000Y-111384000D03*
X135110000Y-111384000D03*
%TD*%
D10*
%TO.C,*%
X217170000Y-48768000D03*
%TD*%
D23*
%TO.C,D1*%
X166248000Y-98171000D03*
D24*
X163708000Y-98171000D03*
%TD*%
D11*
%TO.C,R3*%
X130810000Y-107061000D03*
D12*
X130810000Y-99441000D03*
%TD*%
D11*
%TO.C,R6*%
X157734000Y-110236000D03*
D12*
X165354000Y-110236000D03*
%TD*%
D11*
%TO.C,R2*%
X151638000Y-98171000D03*
D12*
X159258000Y-98171000D03*
%TD*%
D11*
%TO.C,C2*%
X122139000Y-84211000D03*
X117139000Y-84211000D03*
%TD*%
D10*
%TO.C,*%
X217170000Y-126492000D03*
%TD*%
D13*
%TO.C,J16*%
X140510000Y-63876000D03*
X121110000Y-63876000D03*
D14*
X135110000Y-63876000D03*
X130810000Y-63876000D03*
X126510000Y-63876000D03*
%TD*%
D18*
%TO.C,JP1*%
X137033000Y-105440000D03*
X137033000Y-104140000D03*
X137033000Y-102840000D03*
%TD*%
D17*
%TO.C,U1*%
X109474000Y-95885000D03*
D12*
X112014000Y-95885000D03*
X114554000Y-95885000D03*
X117094000Y-95885000D03*
X119634000Y-95885000D03*
X122174000Y-95885000D03*
X124714000Y-95885000D03*
X124714000Y-88265000D03*
X122174000Y-88265000D03*
X119634000Y-88265000D03*
X117094000Y-88265000D03*
X114554000Y-88265000D03*
X112014000Y-88265000D03*
X109474000Y-88265000D03*
%TD*%
M02*
