M48
; DRILL file {KiCad 7.0.8} date Mon Nov 27 18:38:17 2023
; FORMAT={-:-/ absolute / inch / decimal}
; #@! TF.CreationDate,2023-11-27T18:38:17+00:00
; #@! TF.GenerationSoftware,Kicad,Pcbnew,7.0.8
; #@! TF.FileFunction,Plated,1,2,PTH
FMAT,2
INCH
; #@! TA.AperFunction,Plated,PTH,ComponentDrill
T1C0.0315
; #@! TA.AperFunction,Plated,PTH,ViaDrill
T2C0.0354
; #@! TA.AperFunction,Plated,PTH,ComponentDrill
T3C0.0354
; #@! TA.AperFunction,Plated,PTH,ComponentDrill
T4C0.0394
; #@! TA.AperFunction,Plated,PTH,ComponentDrill
T5C0.0433
; #@! TA.AperFunction,Plated,PTH,ComponentDrill
T6C0.0669
; #@! TA.AperFunction,Plated,PTH,ComponentDrill
T7C0.0709
; #@! TA.AperFunction,Plated,PTH,ComponentDrill
T8C0.1260
; #@! TA.AperFunction,Plated,PTH,ComponentDrill
T9C0.1378
%
G90
G05
T1
X4.31Y-3.475
X4.31Y-3.775
X4.41Y-3.475
X4.41Y-3.775
X4.51Y-3.475
X4.51Y-3.775
X4.61Y-3.475
X4.61Y-3.775
X4.6118Y-3.3154
X4.71Y-3.475
X4.71Y-3.775
X4.7641Y-3.1304
X4.8086Y-3.3154
X4.81Y-3.475
X4.81Y-3.775
X4.91Y-3.475
X4.91Y-3.775
X4.9118Y-3.3154
X4.9563Y-3.1304
X5.1086Y-3.3154
X5.15Y-3.915
X5.15Y-4.215
X5.23Y-2.71
X5.49Y-3.21
X5.49Y-3.445
X5.49Y-3.745
X5.53Y-2.71
X5.59Y-3.445
X5.59Y-3.745
X5.69Y-3.445
X5.69Y-3.745
X5.79Y-3.21
X5.79Y-3.445
X5.79Y-3.745
X5.97Y-3.865
X6.21Y-4.34
X6.27Y-3.865
X6.51Y-4.34
X7.4Y-2.71
X7.7Y-2.71
T2
X3.805Y-3.67
X4.105Y-3.425
X4.105Y-4.12
X4.13Y-2.825
X4.14Y-4.775
X4.205Y-3.84
X4.34Y-4.01
X4.38Y-3.595
X5.515Y-3.655
X5.69Y-4.145
X6.005Y-2.055
X6.045Y-2.81
X6.16Y-4.605
X6.28Y-3.275
X6.555Y-2.83
X6.82Y-4.045
X7.02Y-4.1512
X7.055Y-2.81
X7.48Y-2.915
X7.525Y-3.815
X8.025Y-4.86
X8.13Y-2.155
T3
X6.4452Y-3.865
X6.5452Y-3.865
T4
X3.9052Y-3.4254
X3.9052Y-3.5254
X3.9052Y-3.6254
X3.9052Y-3.7254
X3.9052Y-3.8254
T5
X6.8224Y-3.7944
X6.9224Y-3.7944
X7.0224Y-3.7944
T6
X7.9532Y-2.6787
X7.9532Y-2.8913
X7.9532Y-4.0087
X7.9532Y-4.2213
T7
X4.9807Y-2.5148
X4.9807Y-4.3852
X5.15Y-2.5148
X5.15Y-4.3852
X5.3193Y-2.5148
X5.3193Y-4.3852
X7.0807Y-2.5148
X7.0807Y-4.3852
X7.25Y-2.5148
X7.25Y-4.3852
X7.4193Y-2.5148
X7.4193Y-4.3852
T8
X3.85Y-1.92
X3.85Y-4.98
X8.55Y-1.92
X8.55Y-4.98
T9
X6.9224Y-3.1385
T0
M30
