%TF.GenerationSoftware,KiCad,Pcbnew,7.0.8*%
%TF.CreationDate,2023-11-27T18:37:53+00:00*%
%TF.ProjectId,CAN_PCB,43414e5f-5043-4422-9e6b-696361645f70,rev?*%
%TF.SameCoordinates,Original*%
%TF.FileFunction,Copper,L2,Bot*%
%TF.FilePolarity,Positive*%
%FSLAX46Y46*%
G04 Gerber Fmt 4.6, Leading zero omitted, Abs format (unit mm)*
G04 Created by KiCad (PCBNEW 7.0.8) date 2023-11-27 18:37:53*
%MOMM*%
%LPD*%
G01*
G04 APERTURE LIST*
%TA.AperFunction,ComponentPad*%
%ADD10C,5.600000*%
%TD*%
%TA.AperFunction,ComponentPad*%
%ADD11C,1.600000*%
%TD*%
%TA.AperFunction,ComponentPad*%
%ADD12O,1.600000X1.600000*%
%TD*%
%TA.AperFunction,ComponentPad*%
%ADD13C,3.000000*%
%TD*%
%TA.AperFunction,ComponentPad*%
%ADD14R,1.700000X1.700000*%
%TD*%
%TA.AperFunction,ComponentPad*%
%ADD15O,1.700000X1.700000*%
%TD*%
%TA.AperFunction,ComponentPad*%
%ADD16R,1.600000X1.600000*%
%TD*%
%TA.AperFunction,ComponentPad*%
%ADD17R,1.905000X2.000000*%
%TD*%
%TA.AperFunction,ComponentPad*%
%ADD18C,4.000000*%
%TD*%
%TA.AperFunction,ComponentPad*%
%ADD19O,1.905000X2.000000*%
%TD*%
%TA.AperFunction,ComponentPad*%
%ADD20C,2.000000*%
%TD*%
%TA.AperFunction,ComponentPad*%
%ADD21R,1.800000X1.800000*%
%TD*%
%TA.AperFunction,ComponentPad*%
%ADD22C,1.800000*%
%TD*%
%TA.AperFunction,ViaPad*%
%ADD23C,1.600000*%
%TD*%
%TA.AperFunction,Conductor*%
%ADD24C,1.000000*%
%TD*%
G04 APERTURE END LIST*
D10*
%TO.P,,1*%
%TO.N,N/C*%
X97790000Y-48768000D03*
%TD*%
D11*
%TO.P,R10,1*%
%TO.N,/AN3*%
X187960000Y-68834000D03*
D12*
%TO.P,R10,2*%
%TO.N,+5V*%
X195580000Y-68834000D03*
%TD*%
D13*
%TO.P,J5,1,Pin_1*%
%TO.N,GND*%
X188450000Y-63876000D03*
%TO.P,J5,2,Pin_2*%
%TO.N,/AN3*%
X184150000Y-63876000D03*
%TO.P,J5,3,Pin_3*%
%TO.N,Net-(J5-Pin_3)*%
X179850000Y-63876000D03*
%TD*%
D14*
%TO.P,J2,1,Pin_1*%
%TO.N,+5V*%
X99192000Y-87005000D03*
D15*
%TO.P,J2,2,Pin_2*%
%TO.N,GND*%
X99192000Y-89545000D03*
%TO.P,J2,3,Pin_3*%
%TO.N,/DATA*%
X99192000Y-92085000D03*
%TO.P,J2,4,Pin_4*%
%TO.N,/CLK*%
X99192000Y-94625000D03*
%TO.P,J2,5,Pin_5*%
%TO.N,/VPP*%
X99192000Y-97165000D03*
%TD*%
D13*
%TO.P,J1,1,Pin_1*%
%TO.N,GND*%
X202012000Y-107221000D03*
%TO.P,J1,2,Pin_2*%
%TO.N,+12V*%
X202012000Y-101821000D03*
%TD*%
D16*
%TO.P,U2,1,TXD*%
%TO.N,/TXCAN*%
X139446000Y-95123000D03*
D12*
%TO.P,U2,2,VSS*%
%TO.N,GND*%
X141986000Y-95123000D03*
%TO.P,U2,3,VDD*%
%TO.N,+5V*%
X144526000Y-95123000D03*
%TO.P,U2,4,RXD*%
%TO.N,/RXCAN*%
X147066000Y-95123000D03*
%TO.P,U2,5,Vref*%
%TO.N,unconnected-(U2-Vref-Pad5)*%
X147066000Y-87503000D03*
%TO.P,U2,6,CANL*%
%TO.N,Net-(J4-Pin_2)*%
X144526000Y-87503000D03*
%TO.P,U2,7,CANH*%
%TO.N,Net-(J4-Pin_1)*%
X141986000Y-87503000D03*
%TO.P,U2,8,Rs*%
%TO.N,Net-(U2-Rs)*%
X139446000Y-87503000D03*
%TD*%
D11*
%TO.P,C1,1*%
%TO.N,Net-(U1-OSC1)*%
X124759000Y-84211000D03*
%TO.P,C1,2*%
%TO.N,GND*%
X129759000Y-84211000D03*
%TD*%
D13*
%TO.P,J15,1,Pin_1*%
%TO.N,GND*%
X179850000Y-111384000D03*
%TO.P,J15,2,Pin_2*%
%TO.N,/AN1*%
X184150000Y-111384000D03*
%TO.P,J15,3,Pin_3*%
%TO.N,Net-(J15-Pin_3)*%
X188450000Y-111384000D03*
%TD*%
D17*
%TO.P,U4,1,VI*%
%TO.N,+12V*%
X173288000Y-96379000D03*
D18*
%TO.P,U4,2,GND*%
%TO.N,GND*%
X175828000Y-79719000D03*
D19*
X175828000Y-96379000D03*
%TO.P,U4,3,VO*%
%TO.N,+5V*%
X178368000Y-96379000D03*
%TD*%
D10*
%TO.P,,1*%
%TO.N,N/C*%
X97790000Y-126492000D03*
%TD*%
D11*
%TO.P,R7,1*%
%TO.N,/AN2*%
X132842000Y-68834000D03*
D12*
%TO.P,R7,2*%
%TO.N,+5V*%
X140462000Y-68834000D03*
%TD*%
D20*
%TO.P,Y1,1,1*%
%TO.N,Net-(U1-OSC1)*%
X125889000Y-79512000D03*
%TO.P,Y1,2,2*%
%TO.N,Net-(U1-OSC2)*%
X121009000Y-79512000D03*
%TD*%
D13*
%TO.P,J4,1,Pin_1*%
%TO.N,Net-(J4-Pin_1)*%
X202012000Y-73439000D03*
%TO.P,J4,2,Pin_2*%
%TO.N,Net-(J4-Pin_2)*%
X202012000Y-68039000D03*
%TD*%
D11*
%TO.P,R1,1*%
%TO.N,Net-(U2-Rs)*%
X139446000Y-81534000D03*
D12*
%TO.P,R1,2*%
%TO.N,GND*%
X147066000Y-81534000D03*
%TD*%
D13*
%TO.P,J12,1,Pin_1*%
%TO.N,GND*%
X126510000Y-111384000D03*
%TO.P,J12,2,Pin_2*%
%TO.N,/AN0*%
X130810000Y-111384000D03*
%TO.P,J12,3,Pin_3*%
%TO.N,Net-(J12-Pin_3)*%
X135110000Y-111384000D03*
%TD*%
D10*
%TO.P,,1*%
%TO.N,N/C*%
X217170000Y-48768000D03*
%TD*%
D21*
%TO.P,D1,1,K*%
%TO.N,GND*%
X166248000Y-98171000D03*
D22*
%TO.P,D1,2,A*%
%TO.N,/PWR LED*%
X163708000Y-98171000D03*
%TD*%
D11*
%TO.P,R3,1*%
%TO.N,/AN0*%
X130810000Y-107061000D03*
D12*
%TO.P,R3,2*%
%TO.N,+5V*%
X130810000Y-99441000D03*
%TD*%
D11*
%TO.P,R6,1*%
%TO.N,/AN1*%
X157734000Y-110236000D03*
D12*
%TO.P,R6,2*%
%TO.N,+5V*%
X165354000Y-110236000D03*
%TD*%
D11*
%TO.P,R2,1*%
%TO.N,+5V*%
X151638000Y-98171000D03*
D12*
%TO.P,R2,2*%
%TO.N,/PWR LED*%
X159258000Y-98171000D03*
%TD*%
D11*
%TO.P,C2,1*%
%TO.N,Net-(U1-OSC2)*%
X122139000Y-84211000D03*
%TO.P,C2,2*%
%TO.N,GND*%
X117139000Y-84211000D03*
%TD*%
D10*
%TO.P,,1*%
%TO.N,N/C*%
X217170000Y-126492000D03*
%TD*%
D13*
%TO.P,J16,1,Pin_1*%
%TO.N,GND*%
X135110000Y-63876000D03*
%TO.P,J16,2,Pin_2*%
%TO.N,/AN2*%
X130810000Y-63876000D03*
%TO.P,J16,3,Pin_3*%
%TO.N,Net-(J16-Pin_3)*%
X126510000Y-63876000D03*
%TD*%
D16*
%TO.P,U1,1,GP0*%
%TO.N,/AN0*%
X109474000Y-95885000D03*
D12*
%TO.P,U1,2,GP1*%
%TO.N,/AN1*%
X112014000Y-95885000D03*
%TO.P,U1,3,GP2*%
%TO.N,/AN2*%
X114554000Y-95885000D03*
%TO.P,U1,4,GP3*%
%TO.N,/AN3*%
X117094000Y-95885000D03*
%TO.P,U1,5,GP4*%
%TO.N,/DATA*%
X119634000Y-95885000D03*
%TO.P,U1,6,GP5*%
%TO.N,/CLK*%
X122174000Y-95885000D03*
%TO.P,U1,7,VSS*%
%TO.N,GND*%
X124714000Y-95885000D03*
%TO.P,U1,8,OSC1*%
%TO.N,Net-(U1-OSC1)*%
X124714000Y-88265000D03*
%TO.P,U1,9,OSC2*%
%TO.N,Net-(U1-OSC2)*%
X122174000Y-88265000D03*
%TO.P,U1,10,GP6*%
%TO.N,unconnected-(U1-GP6-Pad10)*%
X119634000Y-88265000D03*
%TO.P,U1,11,GP7*%
%TO.N,/VPP*%
X117094000Y-88265000D03*
%TO.P,U1,12,RXCAN*%
%TO.N,/RXCAN*%
X114554000Y-88265000D03*
%TO.P,U1,13,TXCAN*%
%TO.N,/TXCAN*%
X112014000Y-88265000D03*
%TO.P,U1,14,VDD*%
%TO.N,+5V*%
X109474000Y-88265000D03*
%TD*%
D23*
%TO.N,Net-(J5-Pin_3)*%
X179197000Y-71374000D03*
%TO.N,GND*%
X110236000Y-101854000D03*
X203835000Y-123444000D03*
X96647000Y-93218000D03*
X106807000Y-97536000D03*
X156464000Y-116967000D03*
X152527000Y-52197000D03*
X111252000Y-91313000D03*
X159512000Y-83185000D03*
X206502000Y-54737000D03*
X191135000Y-96901000D03*
X166497000Y-71882000D03*
X140081000Y-92837000D03*
X153543000Y-71374000D03*
X104902000Y-71755000D03*
X105156000Y-121285000D03*
%TO.N,+5V*%
X144526000Y-105283000D03*
X104267000Y-104648000D03*
X104267000Y-86995000D03*
X178308000Y-105440000D03*
%TO.N,+12V*%
X173228000Y-102743000D03*
X189992000Y-74041000D03*
%TD*%
D24*
%TO.N,Net-(J5-Pin_3)*%
X179850000Y-70721000D02*
X179850000Y-63495000D01*
X179197000Y-71374000D02*
X179850000Y-70721000D01*
%TO.N,/AN3*%
X183261000Y-75819000D02*
X187960000Y-71120000D01*
X117094000Y-95885000D02*
X119380000Y-93599000D01*
X128016000Y-93599000D02*
X135509000Y-86106000D01*
X187960000Y-71120000D02*
X187960000Y-68834000D01*
X119380000Y-93599000D02*
X128016000Y-93599000D01*
X135509000Y-86106000D02*
X135509000Y-81280000D01*
X135509000Y-81280000D02*
X140970000Y-75819000D01*
X140970000Y-75819000D02*
X183261000Y-75819000D01*
%TO.N,/AN2*%
X119253000Y-91186000D02*
X126746000Y-91186000D01*
X126746000Y-91186000D02*
X132842000Y-85090000D01*
X132842000Y-85090000D02*
X132842000Y-65908000D01*
X114554000Y-95885000D02*
X119253000Y-91186000D01*
X132842000Y-65908000D02*
X130810000Y-63876000D01*
%TO.N,/AN1*%
X157734000Y-110236000D02*
X157734000Y-107696000D01*
X157734000Y-107696000D02*
X157861000Y-107569000D01*
X112014000Y-95885000D02*
X119380000Y-103251000D01*
X179954000Y-107569000D02*
X184150000Y-111765000D01*
X130937000Y-103251000D02*
X135255000Y-107569000D01*
X119380000Y-103251000D02*
X130937000Y-103251000D01*
X135255000Y-107569000D02*
X157861000Y-107569000D01*
X157861000Y-107569000D02*
X179954000Y-107569000D01*
%TO.N,/AN0*%
X130810000Y-107061000D02*
X130810000Y-111765000D01*
X109474000Y-95885000D02*
X120650000Y-107061000D01*
X120650000Y-107061000D02*
X130810000Y-107061000D01*
%TO.N,+5V*%
X178308000Y-91186000D02*
X195580000Y-73914000D01*
X104267000Y-104648000D02*
X104267000Y-86995000D01*
X144526000Y-105283000D02*
X144526000Y-95123000D01*
X178308000Y-105440000D02*
X178308000Y-91186000D01*
X195580000Y-73914000D02*
X195580000Y-68834000D01*
%TO.N,+12V*%
X173228000Y-102743000D02*
X173228000Y-96479000D01*
X173228000Y-96225000D02*
X173228000Y-90805000D01*
X173228000Y-90805000D02*
X189992000Y-74041000D01*
%TD*%
%TA.AperFunction,Conductor*%
%TO.N,GND*%
G36*
X219960884Y-43690010D02*
G01*
X219982142Y-43693359D01*
X220057976Y-43705308D01*
X220218415Y-43731345D01*
X220222151Y-43732070D01*
X220229825Y-43733804D01*
X220272420Y-43743430D01*
X220275163Y-43744118D01*
X220365717Y-43769124D01*
X220380609Y-43773237D01*
X220484866Y-43803619D01*
X220519806Y-43813801D01*
X220523375Y-43814961D01*
X220551162Y-43824942D01*
X220669343Y-43872500D01*
X220808157Y-43932201D01*
X220813154Y-43934620D01*
X220941593Y-44004079D01*
X221070647Y-44079480D01*
X221074807Y-44082139D01*
X221195604Y-44166371D01*
X221229807Y-44192446D01*
X221313976Y-44256611D01*
X221317367Y-44259391D01*
X221398343Y-44330711D01*
X221427210Y-44356135D01*
X221429567Y-44358322D01*
X221534794Y-44461165D01*
X221537429Y-44463904D01*
X221635754Y-44572552D01*
X221638217Y-44575447D01*
X221730080Y-44690390D01*
X221732022Y-44692953D01*
X221817365Y-44811894D01*
X221819794Y-44815545D01*
X221897800Y-44942300D01*
X221969579Y-45070856D01*
X221971827Y-45075289D01*
X222034012Y-45211212D01*
X222090335Y-45345904D01*
X222092247Y-45351120D01*
X222137853Y-45495235D01*
X222173917Y-45619293D01*
X222180342Y-45644968D01*
X222181152Y-45648683D01*
X222207887Y-45792427D01*
X222226649Y-45901896D01*
X222227074Y-45904785D01*
X222232992Y-45952800D01*
X222233342Y-45956588D01*
X222243140Y-46116235D01*
X222249401Y-46226773D01*
X222249500Y-46230263D01*
X222249500Y-129030256D01*
X222249402Y-129033734D01*
X222243013Y-129147497D01*
X222233910Y-129297992D01*
X222233571Y-129301724D01*
X222227628Y-129350656D01*
X222227204Y-129353568D01*
X222208732Y-129462289D01*
X222183447Y-129600264D01*
X222182661Y-129603926D01*
X222175570Y-129632699D01*
X222140630Y-129753982D01*
X222096743Y-129894821D01*
X222094960Y-129899743D01*
X222094756Y-129900280D01*
X222039615Y-130033405D01*
X221979662Y-130166614D01*
X221977387Y-130171160D01*
X221907054Y-130298420D01*
X221831776Y-130422943D01*
X221829282Y-130426746D01*
X221745579Y-130544715D01*
X221743819Y-130547075D01*
X221655081Y-130660340D01*
X221652505Y-130663417D01*
X221555989Y-130771420D01*
X221553599Y-130773947D01*
X221451947Y-130875599D01*
X221449420Y-130877989D01*
X221341417Y-130974505D01*
X221338340Y-130977081D01*
X221225075Y-131065819D01*
X221222715Y-131067579D01*
X221104746Y-131151282D01*
X221100943Y-131153776D01*
X220976420Y-131229054D01*
X220849160Y-131299387D01*
X220844614Y-131301662D01*
X220711405Y-131361615D01*
X220578280Y-131416756D01*
X220577743Y-131416960D01*
X220572821Y-131418743D01*
X220431982Y-131462630D01*
X220310699Y-131497570D01*
X220281926Y-131504661D01*
X220278264Y-131505447D01*
X220140289Y-131530732D01*
X220031568Y-131549204D01*
X220028656Y-131549628D01*
X219987970Y-131554569D01*
X219979717Y-131555571D01*
X219975992Y-131555910D01*
X219825497Y-131565013D01*
X219711735Y-131571402D01*
X219708257Y-131571500D01*
X95251742Y-131571500D01*
X95248264Y-131571402D01*
X95134496Y-131565013D01*
X94984017Y-131555911D01*
X94980285Y-131555572D01*
X94931328Y-131549626D01*
X94928416Y-131549202D01*
X94819696Y-131530730D01*
X94681725Y-131505446D01*
X94678061Y-131504660D01*
X94649304Y-131497571D01*
X94528005Y-131462625D01*
X94387185Y-131418745D01*
X94382219Y-131416945D01*
X94381748Y-131416767D01*
X94248582Y-131361609D01*
X94115390Y-131301664D01*
X94110843Y-131299389D01*
X93983568Y-131229047D01*
X93859062Y-131153780D01*
X93855258Y-131151286D01*
X93737272Y-131067570D01*
X93734913Y-131065811D01*
X93671111Y-131015826D01*
X93621646Y-130977073D01*
X93618608Y-130974530D01*
X93510559Y-130877972D01*
X93508051Y-130875600D01*
X93406408Y-130773957D01*
X93404018Y-130771430D01*
X93307485Y-130663409D01*
X93304909Y-130660331D01*
X93297072Y-130650328D01*
X93216176Y-130547072D01*
X93214429Y-130544729D01*
X93130709Y-130426736D01*
X93128215Y-130422932D01*
X93052956Y-130298439D01*
X93052945Y-130298420D01*
X92982605Y-130171148D01*
X92980331Y-130166603D01*
X92920396Y-130033432D01*
X92908925Y-130005739D01*
X92865247Y-129900293D01*
X92865003Y-129899649D01*
X92863255Y-129894819D01*
X92819388Y-129754048D01*
X92784419Y-129632666D01*
X92777336Y-129603926D01*
X92776552Y-129600269D01*
X92751287Y-129462412D01*
X92732792Y-129353554D01*
X92732369Y-129350649D01*
X92726420Y-129301655D01*
X92726088Y-129297992D01*
X92716997Y-129147706D01*
X92712561Y-129068705D01*
X92710598Y-129033736D01*
X92710500Y-129030259D01*
X92710500Y-126492002D01*
X94484652Y-126492002D01*
X94504028Y-126849368D01*
X94504029Y-126849385D01*
X94561926Y-127202539D01*
X94561932Y-127202565D01*
X94657672Y-127547392D01*
X94657674Y-127547399D01*
X94790142Y-127879870D01*
X94790151Y-127879888D01*
X94957784Y-128196077D01*
X94957790Y-128196086D01*
X95158634Y-128492309D01*
X95158641Y-128492319D01*
X95390331Y-128765085D01*
X95390332Y-128765086D01*
X95650163Y-129011211D01*
X95935081Y-129227800D01*
X96241747Y-129412315D01*
X96241749Y-129412316D01*
X96241751Y-129412317D01*
X96241755Y-129412319D01*
X96566552Y-129562585D01*
X96566565Y-129562591D01*
X96905726Y-129676868D01*
X97255254Y-129753805D01*
X97611052Y-129792500D01*
X97611058Y-129792500D01*
X97968942Y-129792500D01*
X97968948Y-129792500D01*
X98324746Y-129753805D01*
X98674274Y-129676868D01*
X99013435Y-129562591D01*
X99338253Y-129412315D01*
X99644919Y-129227800D01*
X99929837Y-129011211D01*
X100189668Y-128765086D01*
X100421365Y-128492311D01*
X100622211Y-128196085D01*
X100789853Y-127879880D01*
X100922324Y-127547403D01*
X101018071Y-127202552D01*
X101075972Y-126849371D01*
X101095348Y-126492002D01*
X213864652Y-126492002D01*
X213884028Y-126849368D01*
X213884029Y-126849385D01*
X213941926Y-127202539D01*
X213941932Y-127202565D01*
X214037672Y-127547392D01*
X214037674Y-127547399D01*
X214170142Y-127879870D01*
X214170151Y-127879888D01*
X214337784Y-128196077D01*
X214337790Y-128196086D01*
X214538634Y-128492309D01*
X214538641Y-128492319D01*
X214770331Y-128765085D01*
X214770332Y-128765086D01*
X215030163Y-129011211D01*
X215315081Y-129227800D01*
X215621747Y-129412315D01*
X215621749Y-129412316D01*
X215621751Y-129412317D01*
X215621755Y-129412319D01*
X215946552Y-129562585D01*
X215946565Y-129562591D01*
X216285726Y-129676868D01*
X216635254Y-129753805D01*
X216991052Y-129792500D01*
X216991058Y-129792500D01*
X217348942Y-129792500D01*
X217348948Y-129792500D01*
X217704746Y-129753805D01*
X218054274Y-129676868D01*
X218393435Y-129562591D01*
X218718253Y-129412315D01*
X219024919Y-129227800D01*
X219309837Y-129011211D01*
X219569668Y-128765086D01*
X219801365Y-128492311D01*
X220002211Y-128196085D01*
X220169853Y-127879880D01*
X220302324Y-127547403D01*
X220398071Y-127202552D01*
X220455972Y-126849371D01*
X220475348Y-126492000D01*
X220455972Y-126134629D01*
X220398071Y-125781448D01*
X220302324Y-125436597D01*
X220169853Y-125104120D01*
X220002211Y-124787915D01*
X219801365Y-124491689D01*
X219801361Y-124491684D01*
X219801358Y-124491680D01*
X219569668Y-124218914D01*
X219309837Y-123972789D01*
X219309830Y-123972783D01*
X219309827Y-123972781D01*
X219242245Y-123921407D01*
X219024919Y-123756200D01*
X218718253Y-123571685D01*
X218718252Y-123571684D01*
X218718248Y-123571682D01*
X218718244Y-123571680D01*
X218393447Y-123421414D01*
X218393441Y-123421411D01*
X218393435Y-123421409D01*
X218223854Y-123364270D01*
X218054273Y-123307131D01*
X217704744Y-123230194D01*
X217348949Y-123191500D01*
X217348948Y-123191500D01*
X216991052Y-123191500D01*
X216991050Y-123191500D01*
X216635255Y-123230194D01*
X216285726Y-123307131D01*
X216029970Y-123393306D01*
X215946565Y-123421409D01*
X215946563Y-123421410D01*
X215946552Y-123421414D01*
X215621755Y-123571680D01*
X215621751Y-123571682D01*
X215393367Y-123709096D01*
X215315081Y-123756200D01*
X215226768Y-123823333D01*
X215030172Y-123972781D01*
X215030163Y-123972789D01*
X214770331Y-124218914D01*
X214538641Y-124491680D01*
X214538634Y-124491690D01*
X214337790Y-124787913D01*
X214337784Y-124787922D01*
X214170151Y-125104111D01*
X214170142Y-125104129D01*
X214037674Y-125436600D01*
X214037672Y-125436607D01*
X213941932Y-125781434D01*
X213941926Y-125781460D01*
X213884029Y-126134614D01*
X213884028Y-126134631D01*
X213864652Y-126491997D01*
X213864652Y-126492002D01*
X101095348Y-126492002D01*
X101095348Y-126492000D01*
X101075972Y-126134629D01*
X101018071Y-125781448D01*
X100922324Y-125436597D01*
X100789853Y-125104120D01*
X100622211Y-124787915D01*
X100421365Y-124491689D01*
X100421361Y-124491684D01*
X100421358Y-124491680D01*
X100189668Y-124218914D01*
X99929837Y-123972789D01*
X99929830Y-123972783D01*
X99929827Y-123972781D01*
X99862245Y-123921407D01*
X99644919Y-123756200D01*
X99338253Y-123571685D01*
X99338252Y-123571684D01*
X99338248Y-123571682D01*
X99338244Y-123571680D01*
X99013447Y-123421414D01*
X99013441Y-123421411D01*
X99013435Y-123421409D01*
X98843854Y-123364270D01*
X98674273Y-123307131D01*
X98324744Y-123230194D01*
X97968949Y-123191500D01*
X97968948Y-123191500D01*
X97611052Y-123191500D01*
X97611050Y-123191500D01*
X97255255Y-123230194D01*
X96905726Y-123307131D01*
X96649970Y-123393306D01*
X96566565Y-123421409D01*
X96566563Y-123421410D01*
X96566552Y-123421414D01*
X96241755Y-123571680D01*
X96241751Y-123571682D01*
X96013367Y-123709096D01*
X95935081Y-123756200D01*
X95846768Y-123823333D01*
X95650172Y-123972781D01*
X95650163Y-123972789D01*
X95390331Y-124218914D01*
X95158641Y-124491680D01*
X95158634Y-124491690D01*
X94957790Y-124787913D01*
X94957784Y-124787922D01*
X94790151Y-125104111D01*
X94790142Y-125104129D01*
X94657674Y-125436600D01*
X94657672Y-125436607D01*
X94561932Y-125781434D01*
X94561926Y-125781460D01*
X94504029Y-126134614D01*
X94504028Y-126134631D01*
X94484652Y-126491997D01*
X94484652Y-126492002D01*
X92710500Y-126492002D01*
X92710500Y-111453594D01*
X119205686Y-111453594D01*
X119236114Y-111730125D01*
X119306478Y-111999272D01*
X119408642Y-112239686D01*
X119415284Y-112255314D01*
X119545113Y-112468047D01*
X119560205Y-112492776D01*
X119560212Y-112492786D01*
X119738161Y-112706616D01*
X119738167Y-112706621D01*
X119903918Y-112855133D01*
X119945357Y-112892263D01*
X120177373Y-113045763D01*
X120429267Y-113163846D01*
X120429274Y-113163848D01*
X120429276Y-113163849D01*
X120695657Y-113243992D01*
X120695664Y-113243993D01*
X120695669Y-113243995D01*
X120970901Y-113284500D01*
X120970906Y-113284500D01*
X121179469Y-113284500D01*
X121239862Y-113280079D01*
X121387455Y-113269277D01*
X121658997Y-113208788D01*
X121918838Y-113109408D01*
X122161440Y-112973253D01*
X122381632Y-112803226D01*
X122574722Y-112602951D01*
X122736593Y-112376696D01*
X122821928Y-112210719D01*
X122863790Y-112129298D01*
X122863794Y-112129288D01*
X122863797Y-112129283D01*
X122953621Y-111865986D01*
X123004152Y-111592416D01*
X123011769Y-111384001D01*
X124504891Y-111384001D01*
X124525300Y-111669362D01*
X124586109Y-111948895D01*
X124686091Y-112216958D01*
X124823191Y-112468038D01*
X124823196Y-112468046D01*
X124929882Y-112610561D01*
X124929883Y-112610562D01*
X125719409Y-111821036D01*
X125726284Y-111836478D01*
X125837486Y-111989534D01*
X125978080Y-112116126D01*
X126075297Y-112172254D01*
X125283436Y-112964115D01*
X125425960Y-113070807D01*
X125425961Y-113070808D01*
X125677042Y-113207908D01*
X125677041Y-113207908D01*
X125945104Y-113307890D01*
X126224637Y-113368699D01*
X126509999Y-113389109D01*
X126510001Y-113389109D01*
X126795362Y-113368699D01*
X127074895Y-113307890D01*
X127342958Y-113207908D01*
X127594047Y-113070803D01*
X127736561Y-112964116D01*
X127736562Y-112964115D01*
X126944702Y-112172254D01*
X127041920Y-112116126D01*
X127182514Y-111989534D01*
X127293716Y-111836479D01*
X127300590Y-111821037D01*
X128090115Y-112610562D01*
X128090116Y-112610561D01*
X128196803Y-112468047D01*
X128333908Y-112216958D01*
X128433890Y-111948895D01*
X128494699Y-111669362D01*
X128515109Y-111384001D01*
X128515109Y-111383998D01*
X128494699Y-111098637D01*
X128433890Y-110819104D01*
X128333908Y-110551041D01*
X128196808Y-110299961D01*
X128196807Y-110299960D01*
X128090115Y-110157436D01*
X127300590Y-110946961D01*
X127293716Y-110931522D01*
X127182514Y-110778466D01*
X127041920Y-110651874D01*
X126944701Y-110595745D01*
X127736562Y-109803883D01*
X127736561Y-109803882D01*
X127594046Y-109697196D01*
X127594038Y-109697191D01*
X127342957Y-109560091D01*
X127342958Y-109560091D01*
X127074895Y-109460109D01*
X126795362Y-109399300D01*
X126510001Y-109378891D01*
X126509999Y-109378891D01*
X126224637Y-109399300D01*
X125945104Y-109460109D01*
X125677041Y-109560091D01*
X125425961Y-109697191D01*
X125425953Y-109697196D01*
X125283437Y-109803882D01*
X125283436Y-109803883D01*
X126075298Y-110595745D01*
X125978080Y-110651874D01*
X125837486Y-110778466D01*
X125726284Y-110931521D01*
X125719409Y-110946962D01*
X124929883Y-110157436D01*
X124929882Y-110157437D01*
X124823196Y-110299953D01*
X124823191Y-110299961D01*
X124686091Y-110551041D01*
X124586109Y-110819104D01*
X124525300Y-111098637D01*
X124504891Y-111383998D01*
X124504891Y-111384001D01*
X123011769Y-111384001D01*
X123014313Y-111314404D01*
X122983886Y-111037876D01*
X122913520Y-110768724D01*
X122804716Y-110512686D01*
X122659792Y-110275219D01*
X122568112Y-110165053D01*
X122481838Y-110061383D01*
X122481832Y-110061378D01*
X122274643Y-109875737D01*
X122042629Y-109722238D01*
X122042627Y-109722237D01*
X121790733Y-109604154D01*
X121790728Y-109604152D01*
X121790723Y-109604150D01*
X121524342Y-109524007D01*
X121524328Y-109524004D01*
X121405565Y-109506526D01*
X121249099Y-109483500D01*
X121040537Y-109483500D01*
X121040531Y-109483500D01*
X120832545Y-109498723D01*
X120832535Y-109498724D01*
X120561007Y-109559210D01*
X120560997Y-109559213D01*
X120301161Y-109658592D01*
X120058561Y-109794746D01*
X120058556Y-109794749D01*
X119838369Y-109964772D01*
X119838359Y-109964781D01*
X119645281Y-110165045D01*
X119645274Y-110165053D01*
X119483412Y-110391295D01*
X119483405Y-110391307D01*
X119356209Y-110638701D01*
X119356205Y-110638711D01*
X119266379Y-110902012D01*
X119266378Y-110902018D01*
X119215848Y-111175584D01*
X119215847Y-111175591D01*
X119205686Y-111453594D01*
X92710500Y-111453594D01*
X92710500Y-104648001D01*
X102961532Y-104648001D01*
X102981364Y-104874686D01*
X102981366Y-104874697D01*
X103040258Y-105094488D01*
X103040261Y-105094497D01*
X103136431Y-105300732D01*
X103136432Y-105300734D01*
X103266954Y-105487141D01*
X103427858Y-105648045D01*
X103427861Y-105648047D01*
X103614266Y-105778568D01*
X103820504Y-105874739D01*
X104040308Y-105933635D01*
X104202230Y-105947801D01*
X104266998Y-105953468D01*
X104267000Y-105953468D01*
X104267002Y-105953468D01*
X104323673Y-105948509D01*
X104493692Y-105933635D01*
X104713496Y-105874739D01*
X104919734Y-105778568D01*
X105106139Y-105648047D01*
X105267047Y-105487139D01*
X105397568Y-105300734D01*
X105493739Y-105094496D01*
X105552635Y-104874692D01*
X105572468Y-104648000D01*
X105570916Y-104630266D01*
X105556298Y-104463181D01*
X105552635Y-104421308D01*
X105493739Y-104201504D01*
X105397568Y-103995266D01*
X105289924Y-103841532D01*
X105267597Y-103775326D01*
X105267500Y-103770410D01*
X105267500Y-96732870D01*
X108173500Y-96732870D01*
X108173501Y-96732876D01*
X108179908Y-96792483D01*
X108230202Y-96927328D01*
X108230206Y-96927335D01*
X108316452Y-97042544D01*
X108316455Y-97042547D01*
X108431664Y-97128793D01*
X108431671Y-97128797D01*
X108453882Y-97137081D01*
X108566517Y-97179091D01*
X108626127Y-97185500D01*
X109308216Y-97185499D01*
X109375255Y-97205183D01*
X109395897Y-97221818D01*
X119933566Y-107759487D01*
X119994938Y-107824050D01*
X119994941Y-107824053D01*
X120045281Y-107859092D01*
X120049043Y-107861928D01*
X120096587Y-107900694D01*
X120096590Y-107900695D01*
X120096593Y-107900698D01*
X120127045Y-107916604D01*
X120133758Y-107920672D01*
X120161951Y-107940295D01*
X120218329Y-107964489D01*
X120222578Y-107966507D01*
X120276951Y-107994909D01*
X120304489Y-108002788D01*
X120309974Y-108004358D01*
X120317368Y-108006990D01*
X120348942Y-108020540D01*
X120348945Y-108020540D01*
X120348946Y-108020541D01*
X120409022Y-108032887D01*
X120413600Y-108034010D01*
X120427501Y-108037987D01*
X120472582Y-108050887D01*
X120506839Y-108053495D01*
X120514614Y-108054586D01*
X120548255Y-108061500D01*
X120548259Y-108061500D01*
X120609599Y-108061500D01*
X120614305Y-108061678D01*
X120649063Y-108064325D01*
X120675476Y-108066337D01*
X120675476Y-108066336D01*
X120675477Y-108066337D01*
X120709560Y-108061996D01*
X120717390Y-108061500D01*
X129685500Y-108061500D01*
X129752539Y-108081185D01*
X129798294Y-108133989D01*
X129809500Y-108185500D01*
X129809500Y-109577434D01*
X129789815Y-109644473D01*
X129744929Y-109686265D01*
X129725690Y-109696770D01*
X129725682Y-109696775D01*
X129496612Y-109868254D01*
X129496594Y-109868270D01*
X129294270Y-110070594D01*
X129294254Y-110070612D01*
X129122775Y-110299682D01*
X129122770Y-110299690D01*
X128985635Y-110550833D01*
X128885628Y-110818962D01*
X128824804Y-111098566D01*
X128804390Y-111383998D01*
X128804390Y-111384001D01*
X128824804Y-111669433D01*
X128885628Y-111949037D01*
X128885630Y-111949043D01*
X128885631Y-111949046D01*
X128905464Y-112002219D01*
X128985635Y-112217166D01*
X129122770Y-112468309D01*
X129122775Y-112468317D01*
X129294254Y-112697387D01*
X129294270Y-112697405D01*
X129496594Y-112899729D01*
X129496612Y-112899745D01*
X129725682Y-113071224D01*
X129725690Y-113071229D01*
X129976833Y-113208364D01*
X129976832Y-113208364D01*
X129976836Y-113208365D01*
X129976839Y-113208367D01*
X130244954Y-113308369D01*
X130244960Y-113308370D01*
X130244962Y-113308371D01*
X130524566Y-113369195D01*
X130524568Y-113369195D01*
X130524572Y-113369196D01*
X130778220Y-113387337D01*
X130809999Y-113389610D01*
X130810000Y-113389610D01*
X130810001Y-113389610D01*
X130838595Y-113387564D01*
X131095428Y-113369196D01*
X131324301Y-113319408D01*
X131375037Y-113308371D01*
X131375037Y-113308370D01*
X131375046Y-113308369D01*
X131643161Y-113208367D01*
X131894315Y-113071226D01*
X132123395Y-112899739D01*
X132325739Y-112697395D01*
X132497226Y-112468315D01*
X132634367Y-112217161D01*
X132734369Y-111949046D01*
X132781992Y-111730125D01*
X132795195Y-111669433D01*
X132795195Y-111669432D01*
X132795196Y-111669428D01*
X132815610Y-111384001D01*
X133104390Y-111384001D01*
X133124804Y-111669433D01*
X133185628Y-111949037D01*
X133185630Y-111949043D01*
X133185631Y-111949046D01*
X133205464Y-112002219D01*
X133285635Y-112217166D01*
X133422770Y-112468309D01*
X133422775Y-112468317D01*
X133594254Y-112697387D01*
X133594270Y-112697405D01*
X133796594Y-112899729D01*
X133796612Y-112899745D01*
X134025682Y-113071224D01*
X134025690Y-113071229D01*
X134276833Y-113208364D01*
X134276832Y-113208364D01*
X134276836Y-113208365D01*
X134276839Y-113208367D01*
X134544954Y-113308369D01*
X134544960Y-113308370D01*
X134544962Y-113308371D01*
X134824566Y-113369195D01*
X134824568Y-113369195D01*
X134824572Y-113369196D01*
X135078220Y-113387337D01*
X135109999Y-113389610D01*
X135110000Y-113389610D01*
X135110001Y-113389610D01*
X135138595Y-113387564D01*
X135395428Y-113369196D01*
X135624301Y-113319408D01*
X135675037Y-113308371D01*
X135675037Y-113308370D01*
X135675046Y-113308369D01*
X135943161Y-113208367D01*
X136194315Y-113071226D01*
X136423395Y-112899739D01*
X136625739Y-112697395D01*
X136797226Y-112468315D01*
X136934367Y-112217161D01*
X137034369Y-111949046D01*
X137081992Y-111730125D01*
X137095195Y-111669433D01*
X137095195Y-111669432D01*
X137095196Y-111669428D01*
X137110633Y-111453594D01*
X138605686Y-111453594D01*
X138636114Y-111730125D01*
X138706478Y-111999272D01*
X138808642Y-112239686D01*
X138815284Y-112255314D01*
X138945113Y-112468047D01*
X138960205Y-112492776D01*
X138960212Y-112492786D01*
X139138161Y-112706616D01*
X139138167Y-112706621D01*
X139303918Y-112855133D01*
X139345357Y-112892263D01*
X139577373Y-113045763D01*
X139829267Y-113163846D01*
X139829274Y-113163848D01*
X139829276Y-113163849D01*
X140095657Y-113243992D01*
X140095664Y-113243993D01*
X140095669Y-113243995D01*
X140370901Y-113284500D01*
X140370906Y-113284500D01*
X140579469Y-113284500D01*
X140639862Y-113280079D01*
X140787455Y-113269277D01*
X141058997Y-113208788D01*
X141318838Y-113109408D01*
X141561440Y-112973253D01*
X141781632Y-112803226D01*
X141974722Y-112602951D01*
X142136593Y-112376696D01*
X142221928Y-112210719D01*
X142263790Y-112129298D01*
X142263794Y-112129288D01*
X142263797Y-112129283D01*
X142353621Y-111865986D01*
X142404152Y-111592416D01*
X142414313Y-111314404D01*
X142383886Y-111037876D01*
X142313520Y-110768724D01*
X142204716Y-110512686D01*
X142059792Y-110275219D01*
X141968112Y-110165053D01*
X141881838Y-110061383D01*
X141881832Y-110061378D01*
X141674643Y-109875737D01*
X141442629Y-109722238D01*
X141442627Y-109722237D01*
X141190733Y-109604154D01*
X141190728Y-109604152D01*
X141190723Y-109604150D01*
X140924342Y-109524007D01*
X140924328Y-109524004D01*
X140805565Y-109506526D01*
X140649099Y-109483500D01*
X140440537Y-109483500D01*
X140440531Y-109483500D01*
X140232545Y-109498723D01*
X140232535Y-109498724D01*
X139961007Y-109559210D01*
X139960997Y-109559213D01*
X139701161Y-109658592D01*
X139458561Y-109794746D01*
X139458556Y-109794749D01*
X139238369Y-109964772D01*
X139238359Y-109964781D01*
X139045281Y-110165045D01*
X139045274Y-110165053D01*
X138883412Y-110391295D01*
X138883405Y-110391307D01*
X138756209Y-110638701D01*
X138756205Y-110638711D01*
X138666379Y-110902012D01*
X138666378Y-110902018D01*
X138615848Y-111175584D01*
X138615847Y-111175591D01*
X138605686Y-111453594D01*
X137110633Y-111453594D01*
X137115610Y-111384000D01*
X137095196Y-111098572D01*
X137091520Y-111081675D01*
X137034371Y-110818962D01*
X137034370Y-110818960D01*
X137034369Y-110818954D01*
X136934367Y-110550839D01*
X136905961Y-110498818D01*
X136797229Y-110299690D01*
X136797224Y-110299682D01*
X136625745Y-110070612D01*
X136625729Y-110070594D01*
X136423405Y-109868270D01*
X136423387Y-109868254D01*
X136194317Y-109696775D01*
X136194309Y-109696770D01*
X135943166Y-109559635D01*
X135943167Y-109559635D01*
X135779855Y-109498723D01*
X135675046Y-109459631D01*
X135675043Y-109459630D01*
X135675037Y-109459628D01*
X135395433Y-109398804D01*
X135110001Y-109378390D01*
X135109999Y-109378390D01*
X134824566Y-109398804D01*
X134544962Y-109459628D01*
X134276833Y-109559635D01*
X134025690Y-109696770D01*
X134025682Y-109696775D01*
X133796612Y-109868254D01*
X133796594Y-109868270D01*
X133594270Y-110070594D01*
X133594254Y-110070612D01*
X133422775Y-110299682D01*
X133422770Y-110299690D01*
X133285635Y-110550833D01*
X133185628Y-110818962D01*
X133124804Y-111098566D01*
X133104390Y-111383998D01*
X133104390Y-111384001D01*
X132815610Y-111384001D01*
X132815610Y-111384000D01*
X132795196Y-111098572D01*
X132791520Y-111081675D01*
X132734371Y-110818962D01*
X132734370Y-110818960D01*
X132734369Y-110818954D01*
X132634367Y-110550839D01*
X132605961Y-110498818D01*
X132497229Y-110299690D01*
X132497224Y-110299682D01*
X132325745Y-110070612D01*
X132325729Y-110070594D01*
X132123405Y-109868270D01*
X132123387Y-109868254D01*
X131894317Y-109696775D01*
X131894309Y-109696770D01*
X131875071Y-109686265D01*
X131825667Y-109636859D01*
X131810500Y-109577434D01*
X131810500Y-107938588D01*
X131830185Y-107871549D01*
X131832925Y-107867465D01*
X131836802Y-107861928D01*
X131940568Y-107713734D01*
X132036739Y-107507496D01*
X132095635Y-107287692D01*
X132115468Y-107061000D01*
X132095635Y-106834308D01*
X132050158Y-106664583D01*
X132036741Y-106614511D01*
X132036738Y-106614502D01*
X132030099Y-106600265D01*
X131940568Y-106408266D01*
X131810047Y-106221861D01*
X131810045Y-106221858D01*
X131649141Y-106060954D01*
X131462734Y-105930432D01*
X131462732Y-105930431D01*
X131256497Y-105834261D01*
X131256488Y-105834258D01*
X131036697Y-105775366D01*
X131036693Y-105775365D01*
X131036692Y-105775365D01*
X131036691Y-105775364D01*
X131036686Y-105775364D01*
X130810002Y-105755532D01*
X130809998Y-105755532D01*
X130583313Y-105775364D01*
X130583302Y-105775366D01*
X130363511Y-105834258D01*
X130363502Y-105834261D01*
X130157267Y-105930431D01*
X130157265Y-105930432D01*
X130054595Y-106002322D01*
X130023378Y-106024181D01*
X130003535Y-106038075D01*
X129937329Y-106060402D01*
X129932412Y-106060500D01*
X121115782Y-106060500D01*
X121048743Y-106040815D01*
X121028101Y-106024181D01*
X119467101Y-104463181D01*
X119433616Y-104401858D01*
X119438600Y-104332166D01*
X119480472Y-104276233D01*
X119545936Y-104251816D01*
X119554782Y-104251500D01*
X130471217Y-104251500D01*
X130538256Y-104271185D01*
X130558898Y-104287819D01*
X134538547Y-108267467D01*
X134599941Y-108332053D01*
X134599944Y-108332055D01*
X134599947Y-108332058D01*
X134634053Y-108355795D01*
X134650303Y-108367106D01*
X134654044Y-108369926D01*
X134701593Y-108408698D01*
X134732045Y-108424604D01*
X134738756Y-108428671D01*
X134766951Y-108448295D01*
X134823332Y-108472490D01*
X134827567Y-108474501D01*
X134881951Y-108502909D01*
X134914973Y-108512356D01*
X134922365Y-108514989D01*
X134953940Y-108528539D01*
X134953941Y-108528540D01*
X134967054Y-108531234D01*
X135014055Y-108540892D01*
X135018595Y-108542006D01*
X135077582Y-108558886D01*
X135111841Y-108561494D01*
X135119609Y-108562585D01*
X135153255Y-108569500D01*
X135153259Y-108569500D01*
X135214601Y-108569500D01*
X135219308Y-108569678D01*
X135255651Y-108572446D01*
X135280475Y-108574337D01*
X135280475Y-108574336D01*
X135280476Y-108574337D01*
X135314559Y-108569996D01*
X135322389Y-108569500D01*
X156609500Y-108569500D01*
X156676539Y-108589185D01*
X156722294Y-108641989D01*
X156733500Y-108693500D01*
X156733500Y-109358410D01*
X156713815Y-109425449D01*
X156711076Y-109429532D01*
X156603431Y-109583267D01*
X156507261Y-109789502D01*
X156507258Y-109789511D01*
X156448366Y-110009302D01*
X156448364Y-110009313D01*
X156428532Y-110235998D01*
X156428532Y-110236001D01*
X156448364Y-110462686D01*
X156448366Y-110462697D01*
X156507258Y-110682488D01*
X156507261Y-110682497D01*
X156603431Y-110888732D01*
X156603432Y-110888734D01*
X156733954Y-111075141D01*
X156894858Y-111236045D01*
X156894861Y-111236047D01*
X157081266Y-111366568D01*
X157287504Y-111462739D01*
X157507308Y-111521635D01*
X157669230Y-111535801D01*
X157733998Y-111541468D01*
X157734000Y-111541468D01*
X157734002Y-111541468D01*
X157790673Y-111536509D01*
X157960692Y-111521635D01*
X158180496Y-111462739D01*
X158386734Y-111366568D01*
X158573139Y-111236047D01*
X158734047Y-111075139D01*
X158864568Y-110888734D01*
X158960739Y-110682496D01*
X159019635Y-110462692D01*
X159039468Y-110236001D01*
X164048532Y-110236001D01*
X164068364Y-110462686D01*
X164068366Y-110462697D01*
X164127258Y-110682488D01*
X164127261Y-110682497D01*
X164223431Y-110888732D01*
X164223432Y-110888734D01*
X164353954Y-111075141D01*
X164514858Y-111236045D01*
X164514861Y-111236047D01*
X164701266Y-111366568D01*
X164907504Y-111462739D01*
X165127308Y-111521635D01*
X165289230Y-111535801D01*
X165353998Y-111541468D01*
X165354000Y-111541468D01*
X165354002Y-111541468D01*
X165410673Y-111536509D01*
X165580692Y-111521635D01*
X165800496Y-111462739D01*
X165820107Y-111453594D01*
X172545686Y-111453594D01*
X172576114Y-111730125D01*
X172646478Y-111999272D01*
X172748642Y-112239686D01*
X172755284Y-112255314D01*
X172885113Y-112468047D01*
X172900205Y-112492776D01*
X172900212Y-112492786D01*
X173078161Y-112706616D01*
X173078167Y-112706621D01*
X173243918Y-112855133D01*
X173285357Y-112892263D01*
X173517373Y-113045763D01*
X173769267Y-113163846D01*
X173769274Y-113163848D01*
X173769276Y-113163849D01*
X174035657Y-113243992D01*
X174035664Y-113243993D01*
X174035669Y-113243995D01*
X174310901Y-113284500D01*
X174310906Y-113284500D01*
X174519469Y-113284500D01*
X174579862Y-113280079D01*
X174727455Y-113269277D01*
X174998997Y-113208788D01*
X175258838Y-113109408D01*
X175501440Y-112973253D01*
X175721632Y-112803226D01*
X175914722Y-112602951D01*
X176076593Y-112376696D01*
X176161928Y-112210719D01*
X176203790Y-112129298D01*
X176203794Y-112129288D01*
X176203797Y-112129283D01*
X176293621Y-111865986D01*
X176344152Y-111592416D01*
X176354313Y-111314404D01*
X176323886Y-111037876D01*
X176253520Y-110768724D01*
X176144716Y-110512686D01*
X175999792Y-110275219D01*
X175908112Y-110165053D01*
X175821838Y-110061383D01*
X175821832Y-110061378D01*
X175614643Y-109875737D01*
X175382629Y-109722238D01*
X175382627Y-109722237D01*
X175130733Y-109604154D01*
X175130728Y-109604152D01*
X175130723Y-109604150D01*
X174864342Y-109524007D01*
X174864328Y-109524004D01*
X174745565Y-109506526D01*
X174589099Y-109483500D01*
X174380537Y-109483500D01*
X174380531Y-109483500D01*
X174172545Y-109498723D01*
X174172535Y-109498724D01*
X173901007Y-109559210D01*
X173900997Y-109559213D01*
X173641161Y-109658592D01*
X173398561Y-109794746D01*
X173398556Y-109794749D01*
X173178369Y-109964772D01*
X173178359Y-109964781D01*
X172985281Y-110165045D01*
X172985274Y-110165053D01*
X172823412Y-110391295D01*
X172823405Y-110391307D01*
X172696209Y-110638701D01*
X172696205Y-110638711D01*
X172606379Y-110902012D01*
X172606378Y-110902018D01*
X172555848Y-111175584D01*
X172555847Y-111175591D01*
X172545686Y-111453594D01*
X165820107Y-111453594D01*
X166006734Y-111366568D01*
X166193139Y-111236047D01*
X166354047Y-111075139D01*
X166484568Y-110888734D01*
X166580739Y-110682496D01*
X166639635Y-110462692D01*
X166659468Y-110236000D01*
X166639635Y-110009308D01*
X166580739Y-109789504D01*
X166484568Y-109583266D01*
X166355755Y-109399300D01*
X166354045Y-109396858D01*
X166193141Y-109235954D01*
X166006734Y-109105432D01*
X166006732Y-109105431D01*
X165800497Y-109009261D01*
X165800488Y-109009258D01*
X165580697Y-108950366D01*
X165580693Y-108950365D01*
X165580692Y-108950365D01*
X165580691Y-108950364D01*
X165580686Y-108950364D01*
X165354002Y-108930532D01*
X165353998Y-108930532D01*
X165127313Y-108950364D01*
X165127302Y-108950366D01*
X164907511Y-109009258D01*
X164907502Y-109009261D01*
X164701267Y-109105431D01*
X164701265Y-109105432D01*
X164514858Y-109235954D01*
X164353954Y-109396858D01*
X164223432Y-109583265D01*
X164223431Y-109583267D01*
X164127261Y-109789502D01*
X164127258Y-109789511D01*
X164068366Y-110009302D01*
X164068364Y-110009313D01*
X164048532Y-110235998D01*
X164048532Y-110236001D01*
X159039468Y-110236001D01*
X159039468Y-110236000D01*
X159019635Y-110009308D01*
X158960739Y-109789504D01*
X158864568Y-109583266D01*
X158756924Y-109429532D01*
X158734597Y-109363326D01*
X158734500Y-109358410D01*
X158734500Y-108693500D01*
X158754185Y-108626461D01*
X158806989Y-108580706D01*
X158858500Y-108569500D01*
X179488217Y-108569500D01*
X179555256Y-108589185D01*
X179575898Y-108605819D01*
X180152324Y-109182245D01*
X180185809Y-109243567D01*
X180180825Y-109313258D01*
X180138954Y-109369192D01*
X180073489Y-109393609D01*
X180055797Y-109393609D01*
X179850001Y-109378891D01*
X179849999Y-109378891D01*
X179564637Y-109399300D01*
X179285104Y-109460109D01*
X179017041Y-109560091D01*
X178765961Y-109697191D01*
X178765953Y-109697196D01*
X178623436Y-109803882D01*
X179415298Y-110595745D01*
X179318080Y-110651874D01*
X179177486Y-110778466D01*
X179066284Y-110931521D01*
X179059409Y-110946962D01*
X178269883Y-110157436D01*
X178269882Y-110157437D01*
X178163196Y-110299953D01*
X178163191Y-110299961D01*
X178026091Y-110551041D01*
X177926109Y-110819104D01*
X177865300Y-111098637D01*
X177844891Y-111383998D01*
X177844891Y-111384001D01*
X177865300Y-111669362D01*
X177926109Y-111948895D01*
X178026091Y-112216958D01*
X178163191Y-112468038D01*
X178163196Y-112468046D01*
X178269882Y-112610561D01*
X178269883Y-112610562D01*
X179059409Y-111821036D01*
X179066284Y-111836478D01*
X179177486Y-111989534D01*
X179318080Y-112116126D01*
X179415297Y-112172254D01*
X178623436Y-112964115D01*
X178765960Y-113070807D01*
X178765961Y-113070808D01*
X179017042Y-113207908D01*
X179017041Y-113207908D01*
X179285104Y-113307890D01*
X179564637Y-113368699D01*
X179849999Y-113389109D01*
X179850001Y-113389109D01*
X180135362Y-113368699D01*
X180414895Y-113307890D01*
X180682958Y-113207908D01*
X180934047Y-113070803D01*
X181076561Y-112964116D01*
X181076562Y-112964115D01*
X180284702Y-112172254D01*
X180381920Y-112116126D01*
X180522514Y-111989534D01*
X180633716Y-111836479D01*
X180640590Y-111821037D01*
X181430115Y-112610562D01*
X181430116Y-112610561D01*
X181536803Y-112468047D01*
X181673908Y-112216958D01*
X181773890Y-111948895D01*
X181834699Y-111669362D01*
X181855109Y-111384001D01*
X181855109Y-111383998D01*
X181840390Y-111178202D01*
X181855242Y-111109929D01*
X181904647Y-111060524D01*
X181972920Y-111045672D01*
X182038384Y-111070089D01*
X182051755Y-111081675D01*
X182118343Y-111148263D01*
X182151828Y-111209586D01*
X182154346Y-111244790D01*
X182144390Y-111383998D01*
X182144390Y-111384001D01*
X182164804Y-111669433D01*
X182225628Y-111949037D01*
X182225630Y-111949043D01*
X182225631Y-111949046D01*
X182245464Y-112002219D01*
X182325635Y-112217166D01*
X182462770Y-112468309D01*
X182462775Y-112468317D01*
X182634254Y-112697387D01*
X182634270Y-112697405D01*
X182836594Y-112899729D01*
X182836612Y-112899745D01*
X183065682Y-113071224D01*
X183065690Y-113071229D01*
X183316833Y-113208364D01*
X183316832Y-113208364D01*
X183316836Y-113208365D01*
X183316839Y-113208367D01*
X183584954Y-113308369D01*
X183584960Y-113308370D01*
X183584962Y-113308371D01*
X183864566Y-113369195D01*
X183864568Y-113369195D01*
X183864572Y-113369196D01*
X184118220Y-113387337D01*
X184149999Y-113389610D01*
X184150000Y-113389610D01*
X184150001Y-113389610D01*
X184178595Y-113387564D01*
X184435428Y-113369196D01*
X184664301Y-113319408D01*
X184715037Y-113308371D01*
X184715037Y-113308370D01*
X184715046Y-113308369D01*
X184983161Y-113208367D01*
X185234315Y-113071226D01*
X185463395Y-112899739D01*
X185665739Y-112697395D01*
X185837226Y-112468315D01*
X185974367Y-112217161D01*
X186074369Y-111949046D01*
X186121992Y-111730125D01*
X186135195Y-111669433D01*
X186135195Y-111669432D01*
X186135196Y-111669428D01*
X186155610Y-111384001D01*
X186444390Y-111384001D01*
X186464804Y-111669433D01*
X186525628Y-111949037D01*
X186525630Y-111949043D01*
X186525631Y-111949046D01*
X186545464Y-112002219D01*
X186625635Y-112217166D01*
X186762770Y-112468309D01*
X186762775Y-112468317D01*
X186934254Y-112697387D01*
X186934270Y-112697405D01*
X187136594Y-112899729D01*
X187136612Y-112899745D01*
X187365682Y-113071224D01*
X187365690Y-113071229D01*
X187616833Y-113208364D01*
X187616832Y-113208364D01*
X187616836Y-113208365D01*
X187616839Y-113208367D01*
X187884954Y-113308369D01*
X187884960Y-113308370D01*
X187884962Y-113308371D01*
X188164566Y-113369195D01*
X188164568Y-113369195D01*
X188164572Y-113369196D01*
X188418220Y-113387337D01*
X188449999Y-113389610D01*
X188450000Y-113389610D01*
X188450001Y-113389610D01*
X188478595Y-113387564D01*
X188735428Y-113369196D01*
X188964301Y-113319408D01*
X189015037Y-113308371D01*
X189015037Y-113308370D01*
X189015046Y-113308369D01*
X189283161Y-113208367D01*
X189534315Y-113071226D01*
X189763395Y-112899739D01*
X189965739Y-112697395D01*
X190137226Y-112468315D01*
X190274367Y-112217161D01*
X190374369Y-111949046D01*
X190421992Y-111730125D01*
X190435195Y-111669433D01*
X190435195Y-111669432D01*
X190435196Y-111669428D01*
X190450633Y-111453594D01*
X191945686Y-111453594D01*
X191976114Y-111730125D01*
X192046478Y-111999272D01*
X192148642Y-112239686D01*
X192155284Y-112255314D01*
X192285113Y-112468047D01*
X192300205Y-112492776D01*
X192300212Y-112492786D01*
X192478161Y-112706616D01*
X192478167Y-112706621D01*
X192643918Y-112855133D01*
X192685357Y-112892263D01*
X192917373Y-113045763D01*
X193169267Y-113163846D01*
X193169274Y-113163848D01*
X193169276Y-113163849D01*
X193435657Y-113243992D01*
X193435664Y-113243993D01*
X193435669Y-113243995D01*
X193710901Y-113284500D01*
X193710906Y-113284500D01*
X193919469Y-113284500D01*
X193979862Y-113280079D01*
X194127455Y-113269277D01*
X194398997Y-113208788D01*
X194472714Y-113180594D01*
X200107686Y-113180594D01*
X200138114Y-113457125D01*
X200208478Y-113726272D01*
X200263726Y-113856283D01*
X200317284Y-113982314D01*
X200462205Y-114219776D01*
X200462212Y-114219786D01*
X200640161Y-114433616D01*
X200640167Y-114433621D01*
X200805918Y-114582133D01*
X200847357Y-114619263D01*
X201079373Y-114772763D01*
X201331267Y-114890846D01*
X201331274Y-114890848D01*
X201331276Y-114890849D01*
X201597657Y-114970992D01*
X201597664Y-114970993D01*
X201597669Y-114970995D01*
X201872901Y-115011500D01*
X201872906Y-115011500D01*
X202081469Y-115011500D01*
X202141862Y-115007079D01*
X202289455Y-114996277D01*
X202560997Y-114935788D01*
X202820838Y-114836408D01*
X203063440Y-114700253D01*
X203283632Y-114530226D01*
X203476722Y-114329951D01*
X203638593Y-114103696D01*
X203714580Y-113955900D01*
X203765790Y-113856298D01*
X203765794Y-113856288D01*
X203765797Y-113856283D01*
X203855621Y-113592986D01*
X203906152Y-113319416D01*
X203916313Y-113041404D01*
X203885886Y-112764876D01*
X203815520Y-112495724D01*
X203706716Y-112239686D01*
X203561792Y-112002219D01*
X203559343Y-111999276D01*
X203383838Y-111788383D01*
X203383832Y-111788378D01*
X203176643Y-111602737D01*
X202944629Y-111449238D01*
X202944627Y-111449237D01*
X202692733Y-111331154D01*
X202692728Y-111331152D01*
X202692723Y-111331150D01*
X202426342Y-111251007D01*
X202426328Y-111251004D01*
X202307565Y-111233526D01*
X202151099Y-111210500D01*
X201942537Y-111210500D01*
X201942531Y-111210500D01*
X201734545Y-111225723D01*
X201734535Y-111225724D01*
X201463007Y-111286210D01*
X201462997Y-111286213D01*
X201203161Y-111385592D01*
X200960561Y-111521746D01*
X200960556Y-111521749D01*
X200740369Y-111691772D01*
X200740359Y-111691781D01*
X200547281Y-111892045D01*
X200547274Y-111892053D01*
X200385412Y-112118295D01*
X200385405Y-112118307D01*
X200258209Y-112365701D01*
X200258205Y-112365711D01*
X200168379Y-112629012D01*
X200168378Y-112629018D01*
X200117848Y-112902584D01*
X200117847Y-112902591D01*
X200107686Y-113180594D01*
X194472714Y-113180594D01*
X194658838Y-113109408D01*
X194901440Y-112973253D01*
X195121632Y-112803226D01*
X195314722Y-112602951D01*
X195476593Y-112376696D01*
X195561928Y-112210719D01*
X195603790Y-112129298D01*
X195603794Y-112129288D01*
X195603797Y-112129283D01*
X195693621Y-111865986D01*
X195744152Y-111592416D01*
X195754313Y-111314404D01*
X195723886Y-111037876D01*
X195653520Y-110768724D01*
X195544716Y-110512686D01*
X195399792Y-110275219D01*
X195308112Y-110165053D01*
X195221838Y-110061383D01*
X195221832Y-110061378D01*
X195014643Y-109875737D01*
X194782629Y-109722238D01*
X194782627Y-109722237D01*
X194530733Y-109604154D01*
X194530728Y-109604152D01*
X194530723Y-109604150D01*
X194264342Y-109524007D01*
X194264328Y-109524004D01*
X194145565Y-109506526D01*
X193989099Y-109483500D01*
X193780537Y-109483500D01*
X193780531Y-109483500D01*
X193572545Y-109498723D01*
X193572535Y-109498724D01*
X193301007Y-109559210D01*
X193300997Y-109559213D01*
X193041161Y-109658592D01*
X192798561Y-109794746D01*
X192798556Y-109794749D01*
X192578369Y-109964772D01*
X192578359Y-109964781D01*
X192385281Y-110165045D01*
X192385274Y-110165053D01*
X192223412Y-110391295D01*
X192223405Y-110391307D01*
X192096209Y-110638701D01*
X192096205Y-110638711D01*
X192006379Y-110902012D01*
X192006378Y-110902018D01*
X191955848Y-111175584D01*
X191955847Y-111175591D01*
X191945686Y-111453594D01*
X190450633Y-111453594D01*
X190455610Y-111384000D01*
X190435196Y-111098572D01*
X190431520Y-111081675D01*
X190374371Y-110818962D01*
X190374370Y-110818960D01*
X190374369Y-110818954D01*
X190274367Y-110550839D01*
X190245961Y-110498818D01*
X190137229Y-110299690D01*
X190137224Y-110299682D01*
X189965745Y-110070612D01*
X189965729Y-110070594D01*
X189763405Y-109868270D01*
X189763387Y-109868254D01*
X189534317Y-109696775D01*
X189534309Y-109696770D01*
X189283166Y-109559635D01*
X189283167Y-109559635D01*
X189119855Y-109498723D01*
X189015046Y-109459631D01*
X189015043Y-109459630D01*
X189015037Y-109459628D01*
X188735433Y-109398804D01*
X188450001Y-109378390D01*
X188449999Y-109378390D01*
X188164566Y-109398804D01*
X187884962Y-109459628D01*
X187616833Y-109559635D01*
X187365690Y-109696770D01*
X187365682Y-109696775D01*
X187136612Y-109868254D01*
X187136594Y-109868270D01*
X186934270Y-110070594D01*
X186934254Y-110070612D01*
X186762775Y-110299682D01*
X186762770Y-110299690D01*
X186625635Y-110550833D01*
X186525628Y-110818962D01*
X186464804Y-111098566D01*
X186444390Y-111383998D01*
X186444390Y-111384001D01*
X186155610Y-111384001D01*
X186155610Y-111384000D01*
X186135196Y-111098572D01*
X186131520Y-111081675D01*
X186074371Y-110818962D01*
X186074370Y-110818960D01*
X186074369Y-110818954D01*
X185974367Y-110550839D01*
X185945961Y-110498818D01*
X185837229Y-110299690D01*
X185837224Y-110299682D01*
X185665745Y-110070612D01*
X185665729Y-110070594D01*
X185463405Y-109868270D01*
X185463387Y-109868254D01*
X185234317Y-109696775D01*
X185234309Y-109696770D01*
X184983166Y-109559635D01*
X184983167Y-109559635D01*
X184819855Y-109498723D01*
X184715046Y-109459631D01*
X184715043Y-109459630D01*
X184715037Y-109459628D01*
X184435433Y-109398804D01*
X184150001Y-109378390D01*
X184149999Y-109378390D01*
X183864566Y-109398804D01*
X183584958Y-109459629D01*
X183422613Y-109520180D01*
X183352921Y-109525164D01*
X183291599Y-109491679D01*
X181020921Y-107221001D01*
X200006891Y-107221001D01*
X200027300Y-107506362D01*
X200088109Y-107785895D01*
X200188091Y-108053958D01*
X200325191Y-108305038D01*
X200325196Y-108305046D01*
X200431882Y-108447561D01*
X200431883Y-108447562D01*
X201260766Y-107618679D01*
X201304316Y-107700822D01*
X201424009Y-107841735D01*
X201571195Y-107953623D01*
X201613402Y-107973150D01*
X200785436Y-108801115D01*
X200927960Y-108907807D01*
X200927961Y-108907808D01*
X201179042Y-109044908D01*
X201179041Y-109044908D01*
X201447104Y-109144890D01*
X201726637Y-109205699D01*
X202011999Y-109226109D01*
X202012001Y-109226109D01*
X202297362Y-109205699D01*
X202576895Y-109144890D01*
X202844958Y-109044908D01*
X203096047Y-108907803D01*
X203238561Y-108801116D01*
X203238562Y-108801115D01*
X202410609Y-107973161D01*
X202529431Y-107901669D01*
X202663658Y-107774523D01*
X202766861Y-107622308D01*
X203592115Y-108447562D01*
X203592116Y-108447561D01*
X203698803Y-108305047D01*
X203835908Y-108053958D01*
X203935890Y-107785895D01*
X203996699Y-107506362D01*
X204017109Y-107221001D01*
X204017109Y-107220998D01*
X203996699Y-106935637D01*
X203935890Y-106656104D01*
X203835908Y-106388041D01*
X203698808Y-106136961D01*
X203698807Y-106136960D01*
X203592115Y-105994436D01*
X202763232Y-106823319D01*
X202719684Y-106741178D01*
X202599991Y-106600265D01*
X202452805Y-106488377D01*
X202410596Y-106468849D01*
X203238562Y-105640883D01*
X203238561Y-105640882D01*
X203096046Y-105534196D01*
X203096038Y-105534191D01*
X202844957Y-105397091D01*
X202844958Y-105397091D01*
X202576895Y-105297109D01*
X202297362Y-105236300D01*
X202012001Y-105215891D01*
X202011999Y-105215891D01*
X201726637Y-105236300D01*
X201447104Y-105297109D01*
X201179041Y-105397091D01*
X200927961Y-105534191D01*
X200927953Y-105534196D01*
X200785437Y-105640882D01*
X200785436Y-105640883D01*
X201613391Y-106468837D01*
X201494569Y-106540331D01*
X201360342Y-106667477D01*
X201257138Y-106819691D01*
X200431883Y-105994436D01*
X200431882Y-105994437D01*
X200325196Y-106136953D01*
X200325191Y-106136961D01*
X200188091Y-106388041D01*
X200088109Y-106656104D01*
X200027300Y-106935637D01*
X200006891Y-107220998D01*
X200006891Y-107221001D01*
X181020921Y-107221001D01*
X180670452Y-106870532D01*
X180609061Y-106805949D01*
X180609060Y-106805948D01*
X180609059Y-106805947D01*
X180581204Y-106786559D01*
X180558709Y-106770902D01*
X180554946Y-106768064D01*
X180507413Y-106729305D01*
X180507406Y-106729300D01*
X180476959Y-106713397D01*
X180470251Y-106709334D01*
X180442049Y-106689705D01*
X180442046Y-106689703D01*
X180442045Y-106689703D01*
X180442041Y-106689701D01*
X180385680Y-106665514D01*
X180381424Y-106663493D01*
X180327057Y-106635094D01*
X180327050Y-106635091D01*
X180327049Y-106635091D01*
X180321008Y-106633362D01*
X180294030Y-106625642D01*
X180286630Y-106623008D01*
X180255057Y-106609459D01*
X180255058Y-106609459D01*
X180194966Y-106597109D01*
X180190391Y-106595986D01*
X180131420Y-106579113D01*
X180131425Y-106579113D01*
X180097158Y-106576503D01*
X180089380Y-106575412D01*
X180055742Y-106568500D01*
X180055741Y-106568500D01*
X179994402Y-106568500D01*
X179989695Y-106568321D01*
X179984121Y-106567896D01*
X179928524Y-106563662D01*
X179908589Y-106566201D01*
X179894440Y-106568003D01*
X179886611Y-106568500D01*
X179318049Y-106568500D01*
X179251010Y-106548815D01*
X179205255Y-106496011D01*
X179195311Y-106426853D01*
X179224336Y-106363297D01*
X179230368Y-106356819D01*
X179308045Y-106279141D01*
X179308047Y-106279139D01*
X179438568Y-106092734D01*
X179534739Y-105886496D01*
X179593635Y-105666692D01*
X179613468Y-105440000D01*
X179593635Y-105213308D01*
X179534739Y-104993504D01*
X179438568Y-104787266D01*
X179330924Y-104633532D01*
X179308597Y-104567326D01*
X179308500Y-104562410D01*
X179308500Y-101821001D01*
X200006390Y-101821001D01*
X200026804Y-102106433D01*
X200087628Y-102386037D01*
X200087630Y-102386043D01*
X200087631Y-102386046D01*
X200136218Y-102516313D01*
X200187635Y-102654166D01*
X200324770Y-102905309D01*
X200324775Y-102905317D01*
X200496254Y-103134387D01*
X200496270Y-103134405D01*
X200698594Y-103336729D01*
X200698612Y-103336745D01*
X200927682Y-103508224D01*
X200927690Y-103508229D01*
X201178833Y-103645364D01*
X201178832Y-103645364D01*
X201178836Y-103645365D01*
X201178839Y-103645367D01*
X201446954Y-103745369D01*
X201446960Y-103745370D01*
X201446962Y-103745371D01*
X201726566Y-103806195D01*
X201726568Y-103806195D01*
X201726572Y-103806196D01*
X201980220Y-103824337D01*
X202011999Y-103826610D01*
X202012000Y-103826610D01*
X202012001Y-103826610D01*
X202040595Y-103824564D01*
X202297428Y-103806196D01*
X202577046Y-103745369D01*
X202845161Y-103645367D01*
X203096315Y-103508226D01*
X203325395Y-103336739D01*
X203527739Y-103134395D01*
X203699226Y-102905315D01*
X203836367Y-102654161D01*
X203936369Y-102386046D01*
X203997196Y-102106428D01*
X204017610Y-101821000D01*
X203997196Y-101535572D01*
X203936369Y-101255954D01*
X203836367Y-100987839D01*
X203699226Y-100736685D01*
X203691701Y-100726633D01*
X203527745Y-100507612D01*
X203527729Y-100507594D01*
X203325405Y-100305270D01*
X203325387Y-100305254D01*
X203096317Y-100133775D01*
X203096309Y-100133770D01*
X202845166Y-99996635D01*
X202845167Y-99996635D01*
X202737915Y-99956632D01*
X202577046Y-99896631D01*
X202577043Y-99896630D01*
X202577037Y-99896628D01*
X202297433Y-99835804D01*
X202012001Y-99815390D01*
X202011999Y-99815390D01*
X201726566Y-99835804D01*
X201446962Y-99896628D01*
X201178833Y-99996635D01*
X200927690Y-100133770D01*
X200927682Y-100133775D01*
X200698612Y-100305254D01*
X200698594Y-100305270D01*
X200496270Y-100507594D01*
X200496254Y-100507612D01*
X200324775Y-100736682D01*
X200324770Y-100736690D01*
X200187635Y-100987833D01*
X200087628Y-101255962D01*
X200026804Y-101535566D01*
X200006390Y-101820998D01*
X200006390Y-101821001D01*
X179308500Y-101821001D01*
X179308500Y-97596343D01*
X179328185Y-97529304D01*
X179352115Y-97503114D01*
X179351686Y-97502648D01*
X179355451Y-97499180D01*
X179355463Y-97499171D01*
X179518551Y-97322010D01*
X179650255Y-97120422D01*
X179746983Y-96899905D01*
X179806095Y-96666476D01*
X179821000Y-96486600D01*
X179821000Y-96271400D01*
X179806095Y-96091524D01*
X179783068Y-96000594D01*
X200107686Y-96000594D01*
X200138114Y-96277125D01*
X200208478Y-96546272D01*
X200303764Y-96770500D01*
X200317284Y-96802314D01*
X200447431Y-97015568D01*
X200462205Y-97039776D01*
X200462212Y-97039786D01*
X200640161Y-97253616D01*
X200640167Y-97253621D01*
X200803992Y-97400408D01*
X200847357Y-97439263D01*
X201079373Y-97592763D01*
X201331267Y-97710846D01*
X201331274Y-97710848D01*
X201331276Y-97710849D01*
X201597657Y-97790992D01*
X201597664Y-97790993D01*
X201597669Y-97790995D01*
X201872901Y-97831500D01*
X201872906Y-97831500D01*
X202081469Y-97831500D01*
X202141862Y-97827079D01*
X202289455Y-97816277D01*
X202560997Y-97755788D01*
X202820838Y-97656408D01*
X203063440Y-97520253D01*
X203283632Y-97350226D01*
X203476722Y-97149951D01*
X203638593Y-96923696D01*
X203723817Y-96757934D01*
X203765790Y-96676298D01*
X203765794Y-96676288D01*
X203765797Y-96676283D01*
X203855621Y-96412986D01*
X203906152Y-96139416D01*
X203916313Y-95861404D01*
X203885886Y-95584876D01*
X203827369Y-95361045D01*
X203815521Y-95315727D01*
X203810040Y-95302830D01*
X203706716Y-95059686D01*
X203561792Y-94822219D01*
X203539439Y-94795359D01*
X203383838Y-94608383D01*
X203383832Y-94608378D01*
X203176643Y-94422737D01*
X202944629Y-94269238D01*
X202934955Y-94264703D01*
X202692733Y-94151154D01*
X202692728Y-94151152D01*
X202692723Y-94151150D01*
X202426342Y-94071007D01*
X202426328Y-94071004D01*
X202307565Y-94053526D01*
X202151099Y-94030500D01*
X201942537Y-94030500D01*
X201942531Y-94030500D01*
X201734545Y-94045723D01*
X201734535Y-94045724D01*
X201463007Y-94106210D01*
X201462997Y-94106213D01*
X201203161Y-94205592D01*
X200960561Y-94341746D01*
X200960556Y-94341749D01*
X200740369Y-94511772D01*
X200740359Y-94511781D01*
X200547281Y-94712045D01*
X200547274Y-94712053D01*
X200385412Y-94938295D01*
X200385408Y-94938303D01*
X200258209Y-95185701D01*
X200258205Y-95185711D01*
X200168379Y-95449012D01*
X200168378Y-95449018D01*
X200117848Y-95722584D01*
X200117847Y-95722591D01*
X200107686Y-96000594D01*
X179783068Y-96000594D01*
X179746983Y-95858095D01*
X179650255Y-95637578D01*
X179518551Y-95435990D01*
X179355463Y-95258829D01*
X179355458Y-95258825D01*
X179351687Y-95255353D01*
X179352617Y-95254342D01*
X179315522Y-95202791D01*
X179308500Y-95161656D01*
X179308500Y-91651782D01*
X179328185Y-91584743D01*
X179344814Y-91564106D01*
X191510326Y-79398594D01*
X200107686Y-79398594D01*
X200138114Y-79675125D01*
X200208478Y-79944272D01*
X200263726Y-80074283D01*
X200317284Y-80200314D01*
X200461598Y-80436782D01*
X200462205Y-80437776D01*
X200462212Y-80437786D01*
X200640161Y-80651616D01*
X200640167Y-80651621D01*
X200775048Y-80772474D01*
X200847357Y-80837263D01*
X201079373Y-80990763D01*
X201331267Y-81108846D01*
X201331274Y-81108848D01*
X201331276Y-81108849D01*
X201597657Y-81188992D01*
X201597664Y-81188993D01*
X201597669Y-81188995D01*
X201872901Y-81229500D01*
X201872906Y-81229500D01*
X202081469Y-81229500D01*
X202141862Y-81225079D01*
X202289455Y-81214277D01*
X202560997Y-81153788D01*
X202820838Y-81054408D01*
X203063440Y-80918253D01*
X203283632Y-80748226D01*
X203476722Y-80547951D01*
X203638593Y-80321696D01*
X203714580Y-80173900D01*
X203765790Y-80074298D01*
X203765794Y-80074288D01*
X203765797Y-80074283D01*
X203855621Y-79810986D01*
X203906152Y-79537416D01*
X203916313Y-79259404D01*
X203885886Y-78982876D01*
X203815520Y-78713724D01*
X203706716Y-78457686D01*
X203561792Y-78220219D01*
X203560588Y-78218772D01*
X203383838Y-78006383D01*
X203383832Y-78006378D01*
X203176643Y-77820737D01*
X202944629Y-77667238D01*
X202944627Y-77667237D01*
X202692733Y-77549154D01*
X202692728Y-77549152D01*
X202692723Y-77549150D01*
X202426342Y-77469007D01*
X202426328Y-77469004D01*
X202307565Y-77451526D01*
X202151099Y-77428500D01*
X201942537Y-77428500D01*
X201942531Y-77428500D01*
X201734545Y-77443723D01*
X201734535Y-77443724D01*
X201463007Y-77504210D01*
X201462997Y-77504213D01*
X201203161Y-77603592D01*
X200960561Y-77739746D01*
X200960556Y-77739749D01*
X200740369Y-77909772D01*
X200740359Y-77909781D01*
X200547281Y-78110045D01*
X200547274Y-78110053D01*
X200385412Y-78336295D01*
X200385405Y-78336307D01*
X200258209Y-78583701D01*
X200258205Y-78583711D01*
X200168379Y-78847012D01*
X200168378Y-78847018D01*
X200117848Y-79120584D01*
X200117847Y-79120591D01*
X200107686Y-79398594D01*
X191510326Y-79398594D01*
X196278487Y-74630433D01*
X196343053Y-74569059D01*
X196378112Y-74518686D01*
X196380925Y-74514957D01*
X196419698Y-74467407D01*
X196435607Y-74436948D01*
X196439667Y-74430248D01*
X196459295Y-74402049D01*
X196483492Y-74345660D01*
X196485498Y-74341435D01*
X196513909Y-74287049D01*
X196523360Y-74254015D01*
X196525991Y-74246628D01*
X196539540Y-74215058D01*
X196551893Y-74154940D01*
X196553006Y-74150412D01*
X196569887Y-74091418D01*
X196572495Y-74057155D01*
X196573587Y-74049376D01*
X196575309Y-74041001D01*
X196580500Y-74015741D01*
X196580500Y-73954401D01*
X196580679Y-73949692D01*
X196585337Y-73888525D01*
X196580997Y-73854441D01*
X196580500Y-73846602D01*
X196580500Y-73439001D01*
X200006390Y-73439001D01*
X200026804Y-73724433D01*
X200087628Y-74004037D01*
X200087630Y-74004043D01*
X200087631Y-74004046D01*
X200143923Y-74154969D01*
X200187635Y-74272166D01*
X200324770Y-74523309D01*
X200324775Y-74523317D01*
X200496254Y-74752387D01*
X200496270Y-74752405D01*
X200698594Y-74954729D01*
X200698612Y-74954745D01*
X200927682Y-75126224D01*
X200927690Y-75126229D01*
X201178833Y-75263364D01*
X201178832Y-75263364D01*
X201178836Y-75263365D01*
X201178839Y-75263367D01*
X201446954Y-75363369D01*
X201446960Y-75363370D01*
X201446962Y-75363371D01*
X201726566Y-75424195D01*
X201726568Y-75424195D01*
X201726572Y-75424196D01*
X201980220Y-75442337D01*
X202011999Y-75444610D01*
X202012000Y-75444610D01*
X202012001Y-75444610D01*
X202040595Y-75442564D01*
X202297428Y-75424196D01*
X202577046Y-75363369D01*
X202845161Y-75263367D01*
X203096315Y-75126226D01*
X203325395Y-74954739D01*
X203527739Y-74752395D01*
X203699226Y-74523315D01*
X203836367Y-74272161D01*
X203936369Y-74004046D01*
X203964203Y-73876094D01*
X203997195Y-73724433D01*
X203997195Y-73724432D01*
X203997196Y-73724428D01*
X204017610Y-73439000D01*
X203997196Y-73153572D01*
X203972697Y-73040953D01*
X203936371Y-72873962D01*
X203936370Y-72873960D01*
X203936369Y-72873954D01*
X203836367Y-72605839D01*
X203833583Y-72600741D01*
X203699229Y-72354690D01*
X203699224Y-72354682D01*
X203527745Y-72125612D01*
X203527729Y-72125594D01*
X203325405Y-71923270D01*
X203325387Y-71923254D01*
X203096317Y-71751775D01*
X203096309Y-71751770D01*
X202845166Y-71614635D01*
X202845167Y-71614635D01*
X202737915Y-71574632D01*
X202577046Y-71514631D01*
X202577043Y-71514630D01*
X202577037Y-71514628D01*
X202297433Y-71453804D01*
X202012001Y-71433390D01*
X202011999Y-71433390D01*
X201726566Y-71453804D01*
X201446962Y-71514628D01*
X201178833Y-71614635D01*
X200927690Y-71751770D01*
X200927682Y-71751775D01*
X200698612Y-71923254D01*
X200698594Y-71923270D01*
X200496270Y-72125594D01*
X200496254Y-72125612D01*
X200324775Y-72354682D01*
X200324770Y-72354690D01*
X200187635Y-72605833D01*
X200087628Y-72873962D01*
X200026804Y-73153566D01*
X200006390Y-73438998D01*
X200006390Y-73439001D01*
X196580500Y-73439001D01*
X196580500Y-69711588D01*
X196600185Y-69644549D01*
X196602925Y-69640465D01*
X196710568Y-69486734D01*
X196806739Y-69280496D01*
X196865635Y-69060692D01*
X196885468Y-68834000D01*
X196865635Y-68607308D01*
X196806739Y-68387504D01*
X196710568Y-68181266D01*
X196610954Y-68039001D01*
X200006390Y-68039001D01*
X200026804Y-68324433D01*
X200087628Y-68604037D01*
X200087630Y-68604043D01*
X200087631Y-68604046D01*
X200088848Y-68607308D01*
X200187635Y-68872166D01*
X200324770Y-69123309D01*
X200324775Y-69123317D01*
X200496254Y-69352387D01*
X200496270Y-69352405D01*
X200698594Y-69554729D01*
X200698612Y-69554745D01*
X200927682Y-69726224D01*
X200927690Y-69726229D01*
X201178833Y-69863364D01*
X201178832Y-69863364D01*
X201178836Y-69863365D01*
X201178839Y-69863367D01*
X201446954Y-69963369D01*
X201446960Y-69963370D01*
X201446962Y-69963371D01*
X201726566Y-70024195D01*
X201726568Y-70024195D01*
X201726572Y-70024196D01*
X201980220Y-70042337D01*
X202011999Y-70044610D01*
X202012000Y-70044610D01*
X202012001Y-70044610D01*
X202040595Y-70042564D01*
X202297428Y-70024196D01*
X202577046Y-69963369D01*
X202845161Y-69863367D01*
X203096315Y-69726226D01*
X203325395Y-69554739D01*
X203527739Y-69352395D01*
X203699226Y-69123315D01*
X203836367Y-68872161D01*
X203936369Y-68604046D01*
X203997196Y-68324428D01*
X204017610Y-68039000D01*
X203997196Y-67753572D01*
X203965367Y-67607258D01*
X203936371Y-67473962D01*
X203936370Y-67473960D01*
X203936369Y-67473954D01*
X203836367Y-67205839D01*
X203699226Y-66954685D01*
X203699224Y-66954682D01*
X203527745Y-66725612D01*
X203527729Y-66725594D01*
X203325405Y-66523270D01*
X203325387Y-66523254D01*
X203096317Y-66351775D01*
X203096309Y-66351770D01*
X202845166Y-66214635D01*
X202845167Y-66214635D01*
X202737915Y-66174632D01*
X202577046Y-66114631D01*
X202577043Y-66114630D01*
X202577037Y-66114628D01*
X202297433Y-66053804D01*
X202012001Y-66033390D01*
X202011999Y-66033390D01*
X201726566Y-66053804D01*
X201446962Y-66114628D01*
X201178833Y-66214635D01*
X200927690Y-66351770D01*
X200927682Y-66351775D01*
X200698612Y-66523254D01*
X200698594Y-66523270D01*
X200496270Y-66725594D01*
X200496254Y-66725612D01*
X200324775Y-66954682D01*
X200324770Y-66954690D01*
X200187635Y-67205833D01*
X200087628Y-67473962D01*
X200026804Y-67753566D01*
X200006390Y-68038998D01*
X200006390Y-68039001D01*
X196610954Y-68039001D01*
X196580047Y-67994861D01*
X196580045Y-67994858D01*
X196419141Y-67833954D01*
X196232734Y-67703432D01*
X196232732Y-67703431D01*
X196026497Y-67607261D01*
X196026488Y-67607258D01*
X195806697Y-67548366D01*
X195806693Y-67548365D01*
X195806692Y-67548365D01*
X195806691Y-67548364D01*
X195806686Y-67548364D01*
X195580002Y-67528532D01*
X195579998Y-67528532D01*
X195353313Y-67548364D01*
X195353302Y-67548366D01*
X195133511Y-67607258D01*
X195133502Y-67607261D01*
X194927267Y-67703431D01*
X194927265Y-67703432D01*
X194740858Y-67833954D01*
X194579954Y-67994858D01*
X194449432Y-68181265D01*
X194449431Y-68181267D01*
X194353261Y-68387502D01*
X194353258Y-68387511D01*
X194294366Y-68607302D01*
X194294364Y-68607313D01*
X194274532Y-68833998D01*
X194274532Y-68834001D01*
X194294364Y-69060686D01*
X194294366Y-69060697D01*
X194353258Y-69280488D01*
X194353261Y-69280497D01*
X194386788Y-69352395D01*
X194449432Y-69486734D01*
X194497053Y-69554745D01*
X194557075Y-69640465D01*
X194579402Y-69706671D01*
X194579500Y-69711588D01*
X194579500Y-73448217D01*
X194559815Y-73515256D01*
X194543181Y-73535898D01*
X177609532Y-90469546D01*
X177544946Y-90530942D01*
X177509899Y-90581294D01*
X177507062Y-90585056D01*
X177468302Y-90632592D01*
X177468299Y-90632597D01*
X177452392Y-90663047D01*
X177448324Y-90669761D01*
X177428702Y-90697954D01*
X177404509Y-90754330D01*
X177402488Y-90758584D01*
X177374091Y-90812951D01*
X177374090Y-90812952D01*
X177364640Y-90845975D01*
X177362007Y-90853371D01*
X177348459Y-90884943D01*
X177336113Y-90945019D01*
X177334990Y-90949595D01*
X177318113Y-91008577D01*
X177318113Y-91008579D01*
X177315503Y-91042841D01*
X177314414Y-91050608D01*
X177308980Y-91077052D01*
X177307500Y-91084258D01*
X177307500Y-91145597D01*
X177307321Y-91150306D01*
X177302662Y-91211474D01*
X177304707Y-91227527D01*
X177307003Y-91245560D01*
X177307500Y-91253388D01*
X177307500Y-95289783D01*
X177287815Y-95356822D01*
X177274731Y-95373765D01*
X177217445Y-95435994D01*
X177201507Y-95460389D01*
X177148359Y-95505744D01*
X177079127Y-95515165D01*
X177015793Y-95485661D01*
X176993892Y-95460385D01*
X176978154Y-95436296D01*
X176815126Y-95259202D01*
X176815116Y-95259193D01*
X176625168Y-95111350D01*
X176625159Y-95111344D01*
X176413468Y-94996784D01*
X176413454Y-94996778D01*
X176185791Y-94918619D01*
X176078000Y-94900633D01*
X176078000Y-95887316D01*
X176049181Y-95869791D01*
X175903596Y-95829000D01*
X175790378Y-95829000D01*
X175678217Y-95844416D01*
X175578000Y-95887946D01*
X175578000Y-94900633D01*
X175577999Y-94900633D01*
X175470208Y-94918619D01*
X175242545Y-94996778D01*
X175242531Y-94996784D01*
X175030840Y-95111344D01*
X175030838Y-95111345D01*
X174888252Y-95222325D01*
X174823258Y-95247967D01*
X174754718Y-95234400D01*
X174704393Y-95185932D01*
X174695907Y-95167801D01*
X174693615Y-95161656D01*
X174684296Y-95136669D01*
X174684295Y-95136668D01*
X174684293Y-95136664D01*
X174598047Y-95021455D01*
X174598044Y-95021452D01*
X174482835Y-94935206D01*
X174482828Y-94935202D01*
X174347982Y-94884908D01*
X174347984Y-94884908D01*
X174339243Y-94883969D01*
X174274692Y-94857230D01*
X174234845Y-94799837D01*
X174228500Y-94760680D01*
X174228500Y-91270781D01*
X174248185Y-91203742D01*
X174264814Y-91183105D01*
X190080033Y-75367885D01*
X190141354Y-75334402D01*
X190156898Y-75332041D01*
X190218692Y-75326635D01*
X190438496Y-75267739D01*
X190644734Y-75171568D01*
X190831139Y-75041047D01*
X190992047Y-74880139D01*
X191122568Y-74693734D01*
X191218739Y-74487496D01*
X191277635Y-74267692D01*
X191297468Y-74041000D01*
X191277635Y-73814308D01*
X191218739Y-73594504D01*
X191122568Y-73388266D01*
X190992047Y-73201861D01*
X190992045Y-73201858D01*
X190831141Y-73040954D01*
X190644734Y-72910432D01*
X190644732Y-72910431D01*
X190438497Y-72814261D01*
X190438488Y-72814258D01*
X190218697Y-72755366D01*
X190218693Y-72755365D01*
X190218692Y-72755365D01*
X190218691Y-72755364D01*
X190218686Y-72755364D01*
X189992002Y-72735532D01*
X189991998Y-72735532D01*
X189765313Y-72755364D01*
X189765302Y-72755366D01*
X189545511Y-72814258D01*
X189545502Y-72814261D01*
X189339267Y-72910431D01*
X189339265Y-72910432D01*
X189152858Y-73040954D01*
X188991954Y-73201858D01*
X188861432Y-73388265D01*
X188861431Y-73388267D01*
X188765261Y-73594502D01*
X188765258Y-73594511D01*
X188706366Y-73814302D01*
X188706364Y-73814311D01*
X188700959Y-73876094D01*
X188675506Y-73941162D01*
X188665112Y-73952966D01*
X172529532Y-90088546D01*
X172464946Y-90149942D01*
X172429899Y-90200294D01*
X172427062Y-90204056D01*
X172388302Y-90251592D01*
X172388299Y-90251597D01*
X172372392Y-90282047D01*
X172368324Y-90288761D01*
X172348702Y-90316954D01*
X172324509Y-90373330D01*
X172322488Y-90377584D01*
X172294091Y-90431951D01*
X172294090Y-90431952D01*
X172284640Y-90464975D01*
X172282007Y-90472371D01*
X172268459Y-90503943D01*
X172256113Y-90564019D01*
X172254990Y-90568595D01*
X172238113Y-90627577D01*
X172238113Y-90627579D01*
X172235503Y-90661841D01*
X172234414Y-90669608D01*
X172228980Y-90696052D01*
X172227500Y-90703258D01*
X172227500Y-90764597D01*
X172227321Y-90769306D01*
X172222662Y-90830474D01*
X172224637Y-90845975D01*
X172227003Y-90864560D01*
X172227500Y-90872388D01*
X172227500Y-94799006D01*
X172207815Y-94866045D01*
X172155011Y-94911800D01*
X172146835Y-94915187D01*
X172093167Y-94935204D01*
X172093165Y-94935205D01*
X171977955Y-95021452D01*
X171977952Y-95021455D01*
X171891706Y-95136664D01*
X171891702Y-95136671D01*
X171841408Y-95271517D01*
X171835001Y-95331116D01*
X171835000Y-95331135D01*
X171835000Y-97426870D01*
X171835001Y-97426876D01*
X171841408Y-97486483D01*
X171891702Y-97621328D01*
X171891706Y-97621335D01*
X171977952Y-97736544D01*
X171977955Y-97736547D01*
X172093164Y-97822793D01*
X172093173Y-97822798D01*
X172146832Y-97842811D01*
X172202766Y-97884681D01*
X172227184Y-97950145D01*
X172227500Y-97958993D01*
X172227500Y-101865410D01*
X172207815Y-101932449D01*
X172205076Y-101936532D01*
X172097431Y-102090267D01*
X172001261Y-102296502D01*
X172001258Y-102296511D01*
X171942366Y-102516302D01*
X171942364Y-102516313D01*
X171922532Y-102742998D01*
X171922532Y-102743001D01*
X171942364Y-102969686D01*
X171942366Y-102969697D01*
X172001258Y-103189488D01*
X172001261Y-103189497D01*
X172097431Y-103395732D01*
X172097432Y-103395734D01*
X172227954Y-103582141D01*
X172388858Y-103743045D01*
X172388861Y-103743047D01*
X172575266Y-103873568D01*
X172781504Y-103969739D01*
X173001308Y-104028635D01*
X173163230Y-104042801D01*
X173227998Y-104048468D01*
X173228000Y-104048468D01*
X173228002Y-104048468D01*
X173284673Y-104043509D01*
X173454692Y-104028635D01*
X173674496Y-103969739D01*
X173880734Y-103873568D01*
X174067139Y-103743047D01*
X174228047Y-103582139D01*
X174358568Y-103395734D01*
X174454739Y-103189496D01*
X174513635Y-102969692D01*
X174533468Y-102743000D01*
X174513635Y-102516308D01*
X174468158Y-102346583D01*
X174454741Y-102296511D01*
X174454738Y-102296502D01*
X174452386Y-102291459D01*
X174358568Y-102090266D01*
X174250924Y-101936532D01*
X174228597Y-101870326D01*
X174228500Y-101865410D01*
X174228500Y-97997320D01*
X174248185Y-97930281D01*
X174300989Y-97884526D01*
X174339248Y-97874030D01*
X174347983Y-97873091D01*
X174429168Y-97842811D01*
X174482831Y-97822796D01*
X174598046Y-97736546D01*
X174684296Y-97621331D01*
X174684297Y-97621328D01*
X174684298Y-97621327D01*
X174695907Y-97590199D01*
X174737776Y-97534264D01*
X174803240Y-97509844D01*
X174871513Y-97524694D01*
X174888252Y-97535675D01*
X175030831Y-97646649D01*
X175030840Y-97646655D01*
X175242531Y-97761215D01*
X175242545Y-97761221D01*
X175470207Y-97839379D01*
X175578000Y-97857366D01*
X175578000Y-96870683D01*
X175606819Y-96888209D01*
X175752404Y-96929000D01*
X175865622Y-96929000D01*
X175977783Y-96913584D01*
X176078000Y-96870053D01*
X176078000Y-97857365D01*
X176185792Y-97839379D01*
X176413454Y-97761221D01*
X176413468Y-97761215D01*
X176625159Y-97646655D01*
X176625168Y-97646649D01*
X176815116Y-97498806D01*
X176815126Y-97498797D01*
X176978154Y-97321702D01*
X176978155Y-97321701D01*
X176993891Y-97297616D01*
X177047036Y-97252258D01*
X177116267Y-97242833D01*
X177179604Y-97272333D01*
X177201508Y-97297611D01*
X177217448Y-97322009D01*
X177217455Y-97322018D01*
X177274729Y-97384233D01*
X177305652Y-97446887D01*
X177307500Y-97468216D01*
X177307500Y-104562410D01*
X177287815Y-104629449D01*
X177285076Y-104633532D01*
X177177431Y-104787267D01*
X177081261Y-104993502D01*
X177081258Y-104993511D01*
X177022366Y-105213302D01*
X177022364Y-105213313D01*
X177002532Y-105439998D01*
X177002532Y-105440001D01*
X177022364Y-105666686D01*
X177022366Y-105666697D01*
X177081258Y-105886488D01*
X177081261Y-105886497D01*
X177177431Y-106092732D01*
X177177432Y-106092734D01*
X177307954Y-106279141D01*
X177385632Y-106356819D01*
X177419117Y-106418142D01*
X177414133Y-106487834D01*
X177372261Y-106543767D01*
X177306797Y-106568184D01*
X177297951Y-106568500D01*
X157873699Y-106568500D01*
X157784639Y-106566242D01*
X157784638Y-106566242D01*
X157782895Y-106566555D01*
X157761021Y-106568500D01*
X145350747Y-106568500D01*
X145283708Y-106548815D01*
X145237953Y-106496011D01*
X145228009Y-106426853D01*
X145257034Y-106363297D01*
X145279624Y-106342925D01*
X145307921Y-106323110D01*
X145365139Y-106283047D01*
X145526047Y-106122139D01*
X145656568Y-105935734D01*
X145752739Y-105729496D01*
X145811635Y-105509692D01*
X145828634Y-105315384D01*
X145831468Y-105283001D01*
X145831468Y-105282998D01*
X145811635Y-105056313D01*
X145811635Y-105056308D01*
X145752739Y-104836504D01*
X145656568Y-104630266D01*
X145548924Y-104476532D01*
X145526597Y-104410326D01*
X145526500Y-104405410D01*
X145526500Y-98171001D01*
X150332532Y-98171001D01*
X150352364Y-98397686D01*
X150352366Y-98397697D01*
X150411258Y-98617488D01*
X150411261Y-98617497D01*
X150507431Y-98823732D01*
X150507432Y-98823734D01*
X150637954Y-99010141D01*
X150798858Y-99171045D01*
X150798861Y-99171047D01*
X150985266Y-99301568D01*
X151191504Y-99397739D01*
X151411308Y-99456635D01*
X151573230Y-99470801D01*
X151637998Y-99476468D01*
X151638000Y-99476468D01*
X151638002Y-99476468D01*
X151694673Y-99471509D01*
X151864692Y-99456635D01*
X152084496Y-99397739D01*
X152290734Y-99301568D01*
X152477139Y-99171047D01*
X152638047Y-99010139D01*
X152768568Y-98823734D01*
X152864739Y-98617496D01*
X152923635Y-98397692D01*
X152940634Y-98203384D01*
X152943468Y-98171001D01*
X157952532Y-98171001D01*
X157972364Y-98397686D01*
X157972366Y-98397697D01*
X158031258Y-98617488D01*
X158031261Y-98617497D01*
X158127431Y-98823732D01*
X158127432Y-98823734D01*
X158257954Y-99010141D01*
X158418858Y-99171045D01*
X158418861Y-99171047D01*
X158605266Y-99301568D01*
X158811504Y-99397739D01*
X159031308Y-99456635D01*
X159193230Y-99470801D01*
X159257998Y-99476468D01*
X159258000Y-99476468D01*
X159258002Y-99476468D01*
X159314673Y-99471509D01*
X159484692Y-99456635D01*
X159704496Y-99397739D01*
X159910734Y-99301568D01*
X160097139Y-99171047D01*
X160258047Y-99010139D01*
X160388568Y-98823734D01*
X160484739Y-98617496D01*
X160543635Y-98397692D01*
X160560634Y-98203384D01*
X160563468Y-98171006D01*
X162302700Y-98171006D01*
X162321864Y-98402297D01*
X162321866Y-98402308D01*
X162378842Y-98627300D01*
X162472075Y-98839848D01*
X162599016Y-99034147D01*
X162599019Y-99034151D01*
X162599021Y-99034153D01*
X162756216Y-99204913D01*
X162756219Y-99204915D01*
X162756222Y-99204918D01*
X162939365Y-99347464D01*
X162939371Y-99347468D01*
X162939374Y-99347470D01*
X163143497Y-99457936D01*
X163197479Y-99476468D01*
X163363015Y-99533297D01*
X163363017Y-99533297D01*
X163363019Y-99533298D01*
X163591951Y-99571500D01*
X163591952Y-99571500D01*
X163824048Y-99571500D01*
X163824049Y-99571500D01*
X164052981Y-99533298D01*
X164272503Y-99457936D01*
X164476626Y-99347470D01*
X164659784Y-99204913D01*
X164668511Y-99195432D01*
X164728394Y-99159441D01*
X164798232Y-99161538D01*
X164855850Y-99201060D01*
X164875924Y-99236080D01*
X164904645Y-99313086D01*
X164904649Y-99313093D01*
X164990809Y-99428187D01*
X164990812Y-99428190D01*
X165105906Y-99514350D01*
X165105913Y-99514354D01*
X165240620Y-99564596D01*
X165240627Y-99564598D01*
X165300155Y-99570999D01*
X165300172Y-99571000D01*
X165998000Y-99571000D01*
X165998000Y-98545189D01*
X166050547Y-98581016D01*
X166180173Y-98621000D01*
X166281724Y-98621000D01*
X166382138Y-98605865D01*
X166498000Y-98550068D01*
X166498000Y-99571000D01*
X167195828Y-99571000D01*
X167195844Y-99570999D01*
X167255372Y-99564598D01*
X167255379Y-99564596D01*
X167390086Y-99514354D01*
X167390093Y-99514350D01*
X167505187Y-99428190D01*
X167505190Y-99428187D01*
X167591350Y-99313093D01*
X167591354Y-99313086D01*
X167641596Y-99178379D01*
X167641598Y-99178372D01*
X167647999Y-99118844D01*
X167648000Y-99118827D01*
X167648000Y-98421000D01*
X166623278Y-98421000D01*
X166671625Y-98337260D01*
X166701810Y-98205008D01*
X166691673Y-98069735D01*
X166642113Y-97943459D01*
X166624203Y-97921000D01*
X167648000Y-97921000D01*
X167648000Y-97223172D01*
X167647999Y-97223155D01*
X167641598Y-97163627D01*
X167641596Y-97163620D01*
X167591354Y-97028913D01*
X167591350Y-97028906D01*
X167505190Y-96913812D01*
X167505187Y-96913809D01*
X167390093Y-96827649D01*
X167390086Y-96827645D01*
X167255379Y-96777403D01*
X167255372Y-96777401D01*
X167195844Y-96771000D01*
X166498000Y-96771000D01*
X166498000Y-97796810D01*
X166445453Y-97760984D01*
X166315827Y-97721000D01*
X166214276Y-97721000D01*
X166113862Y-97736135D01*
X165998000Y-97791931D01*
X165998000Y-96771000D01*
X165300155Y-96771000D01*
X165240627Y-96777401D01*
X165240620Y-96777403D01*
X165105913Y-96827645D01*
X165105906Y-96827649D01*
X164990812Y-96913809D01*
X164990809Y-96913812D01*
X164904649Y-97028906D01*
X164904646Y-97028911D01*
X164875924Y-97105920D01*
X164834052Y-97161853D01*
X164768588Y-97186270D01*
X164700315Y-97171418D01*
X164668514Y-97146571D01*
X164659784Y-97137087D01*
X164659779Y-97137083D01*
X164659777Y-97137081D01*
X164476634Y-96994535D01*
X164476628Y-96994531D01*
X164272504Y-96884064D01*
X164272495Y-96884061D01*
X164052984Y-96808702D01*
X163865404Y-96777401D01*
X163824049Y-96770500D01*
X163591951Y-96770500D01*
X163550596Y-96777401D01*
X163363015Y-96808702D01*
X163143504Y-96884061D01*
X163143495Y-96884064D01*
X162939371Y-96994531D01*
X162939365Y-96994535D01*
X162756222Y-97137081D01*
X162756219Y-97137084D01*
X162756216Y-97137086D01*
X162756216Y-97137087D01*
X162725335Y-97170633D01*
X162599016Y-97307852D01*
X162472075Y-97502151D01*
X162378842Y-97714699D01*
X162321866Y-97939691D01*
X162321864Y-97939702D01*
X162302700Y-98170993D01*
X162302700Y-98171006D01*
X160563468Y-98171006D01*
X160563468Y-98171001D01*
X160563468Y-98170998D01*
X160551692Y-98036401D01*
X160543635Y-97944308D01*
X160493122Y-97755789D01*
X160484741Y-97724511D01*
X160484738Y-97724502D01*
X160480167Y-97714699D01*
X160388568Y-97518266D01*
X160258047Y-97331861D01*
X160258045Y-97331858D01*
X160097141Y-97170954D01*
X159910734Y-97040432D01*
X159910732Y-97040431D01*
X159704497Y-96944261D01*
X159704488Y-96944258D01*
X159484697Y-96885366D01*
X159484693Y-96885365D01*
X159484692Y-96885365D01*
X159484691Y-96885364D01*
X159484686Y-96885364D01*
X159258002Y-96865532D01*
X159257998Y-96865532D01*
X159031313Y-96885364D01*
X159031302Y-96885366D01*
X158811511Y-96944258D01*
X158811502Y-96944261D01*
X158605267Y-97040431D01*
X158605265Y-97040432D01*
X158418858Y-97170954D01*
X158257954Y-97331858D01*
X158127432Y-97518265D01*
X158127431Y-97518267D01*
X158031261Y-97724502D01*
X158031258Y-97724511D01*
X157972366Y-97944302D01*
X157972364Y-97944313D01*
X157952532Y-98170998D01*
X157952532Y-98171001D01*
X152943468Y-98171001D01*
X152943468Y-98170998D01*
X152931692Y-98036401D01*
X152923635Y-97944308D01*
X152873122Y-97755789D01*
X152864741Y-97724511D01*
X152864738Y-97724502D01*
X152860167Y-97714699D01*
X152768568Y-97518266D01*
X152638047Y-97331861D01*
X152638045Y-97331858D01*
X152477141Y-97170954D01*
X152290734Y-97040432D01*
X152290732Y-97040431D01*
X152084497Y-96944261D01*
X152084488Y-96944258D01*
X151864697Y-96885366D01*
X151864693Y-96885365D01*
X151864692Y-96885365D01*
X151864691Y-96885364D01*
X151864686Y-96885364D01*
X151638002Y-96865532D01*
X151637998Y-96865532D01*
X151411313Y-96885364D01*
X151411302Y-96885366D01*
X151191511Y-96944258D01*
X151191502Y-96944261D01*
X150985267Y-97040431D01*
X150985265Y-97040432D01*
X150798858Y-97170954D01*
X150637954Y-97331858D01*
X150507432Y-97518265D01*
X150507431Y-97518267D01*
X150411261Y-97724502D01*
X150411258Y-97724511D01*
X150352366Y-97944302D01*
X150352364Y-97944313D01*
X150332532Y-98170998D01*
X150332532Y-98171001D01*
X145526500Y-98171001D01*
X145526500Y-96000588D01*
X145546185Y-95933549D01*
X145548925Y-95929465D01*
X145566300Y-95904651D01*
X145656568Y-95775734D01*
X145683618Y-95717724D01*
X145729790Y-95665285D01*
X145796983Y-95646133D01*
X145863865Y-95666348D01*
X145908382Y-95717725D01*
X145935429Y-95775728D01*
X145935432Y-95775734D01*
X146065954Y-95962141D01*
X146226858Y-96123045D01*
X146273693Y-96155839D01*
X146413266Y-96253568D01*
X146619504Y-96349739D01*
X146839308Y-96408635D01*
X147001230Y-96422801D01*
X147065998Y-96428468D01*
X147066000Y-96428468D01*
X147066002Y-96428468D01*
X147122807Y-96423498D01*
X147292692Y-96408635D01*
X147512496Y-96349739D01*
X147718734Y-96253568D01*
X147905139Y-96123047D01*
X148066047Y-95962139D01*
X148196568Y-95775734D01*
X148292739Y-95569496D01*
X148351635Y-95349692D01*
X148371468Y-95123000D01*
X148351635Y-94896308D01*
X148292739Y-94676504D01*
X148196568Y-94470266D01*
X148066047Y-94283861D01*
X148066045Y-94283858D01*
X147905141Y-94122954D01*
X147718734Y-93992432D01*
X147718732Y-93992431D01*
X147512497Y-93896261D01*
X147512488Y-93896258D01*
X147292697Y-93837366D01*
X147292693Y-93837365D01*
X147292692Y-93837365D01*
X147292691Y-93837364D01*
X147292686Y-93837364D01*
X147066002Y-93817532D01*
X147065998Y-93817532D01*
X146839313Y-93837364D01*
X146839302Y-93837366D01*
X146619511Y-93896258D01*
X146619502Y-93896261D01*
X146413267Y-93992431D01*
X146413265Y-93992432D01*
X146226858Y-94122954D01*
X146065954Y-94283858D01*
X145935432Y-94470265D01*
X145935431Y-94470267D01*
X145920114Y-94503115D01*
X145910768Y-94523159D01*
X145908382Y-94528275D01*
X145862209Y-94580714D01*
X145795016Y-94599866D01*
X145728135Y-94579650D01*
X145683618Y-94528275D01*
X145656568Y-94470266D01*
X145526047Y-94283861D01*
X145526045Y-94283858D01*
X145365141Y-94122954D01*
X145178734Y-93992432D01*
X145178732Y-93992431D01*
X144972497Y-93896261D01*
X144972488Y-93896258D01*
X144752697Y-93837366D01*
X144752693Y-93837365D01*
X144752692Y-93837365D01*
X144752691Y-93837364D01*
X144752686Y-93837364D01*
X144526002Y-93817532D01*
X144525998Y-93817532D01*
X144299313Y-93837364D01*
X144299302Y-93837366D01*
X144079511Y-93896258D01*
X144079502Y-93896261D01*
X143873267Y-93992431D01*
X143873265Y-93992432D01*
X143686858Y-94122954D01*
X143525954Y-94283858D01*
X143395433Y-94470264D01*
X143395432Y-94470266D01*
X143370768Y-94523159D01*
X143368106Y-94528867D01*
X143321933Y-94581306D01*
X143254739Y-94600457D01*
X143187858Y-94580241D01*
X143143342Y-94528865D01*
X143116135Y-94470520D01*
X143116134Y-94470518D01*
X142985657Y-94284179D01*
X142824820Y-94123342D01*
X142638482Y-93992865D01*
X142432328Y-93896734D01*
X142236000Y-93844127D01*
X142236000Y-94807314D01*
X142224045Y-94795359D01*
X142111148Y-94737835D01*
X142017481Y-94723000D01*
X141954519Y-94723000D01*
X141860852Y-94737835D01*
X141747955Y-94795359D01*
X141736000Y-94807314D01*
X141736000Y-93844127D01*
X141539671Y-93896734D01*
X141333517Y-93992865D01*
X141147179Y-94123342D01*
X140986339Y-94284182D01*
X140968806Y-94309222D01*
X140914229Y-94352845D01*
X140844730Y-94360037D01*
X140782376Y-94328513D01*
X140746963Y-94268283D01*
X140743943Y-94251349D01*
X140740091Y-94215516D01*
X140689797Y-94080671D01*
X140689793Y-94080664D01*
X140603547Y-93965455D01*
X140603544Y-93965452D01*
X140488335Y-93879206D01*
X140488328Y-93879202D01*
X140353482Y-93828908D01*
X140353483Y-93828908D01*
X140293883Y-93822501D01*
X140293881Y-93822500D01*
X140293873Y-93822500D01*
X140293864Y-93822500D01*
X138598129Y-93822500D01*
X138598123Y-93822501D01*
X138538516Y-93828908D01*
X138403671Y-93879202D01*
X138403664Y-93879206D01*
X138288455Y-93965452D01*
X138288452Y-93965455D01*
X138202206Y-94080664D01*
X138202202Y-94080671D01*
X138151908Y-94215517D01*
X138145501Y-94275116D01*
X138145500Y-94275135D01*
X138145500Y-95970870D01*
X138145501Y-95970876D01*
X138151908Y-96030483D01*
X138202202Y-96165328D01*
X138202206Y-96165335D01*
X138288452Y-96280544D01*
X138288455Y-96280547D01*
X138403664Y-96366793D01*
X138403671Y-96366797D01*
X138538517Y-96417091D01*
X138538516Y-96417091D01*
X138545444Y-96417835D01*
X138598127Y-96423500D01*
X140293872Y-96423499D01*
X140353483Y-96417091D01*
X140488331Y-96366796D01*
X140603546Y-96280546D01*
X140689796Y-96165331D01*
X140740091Y-96030483D01*
X140743944Y-95994644D01*
X140770679Y-95930098D01*
X140828070Y-95890248D01*
X140897895Y-95887753D01*
X140957985Y-95923404D01*
X140968806Y-95936777D01*
X140986341Y-95961819D01*
X141147179Y-96122657D01*
X141333517Y-96253134D01*
X141539673Y-96349265D01*
X141539682Y-96349269D01*
X141735999Y-96401872D01*
X141736000Y-96401871D01*
X141736000Y-95438686D01*
X141747955Y-95450641D01*
X141860852Y-95508165D01*
X141954519Y-95523000D01*
X142017481Y-95523000D01*
X142111148Y-95508165D01*
X142224045Y-95450641D01*
X142236000Y-95438686D01*
X142236000Y-96401872D01*
X142432317Y-96349269D01*
X142432326Y-96349265D01*
X142638482Y-96253134D01*
X142824820Y-96122657D01*
X142985657Y-95961820D01*
X143116132Y-95775484D01*
X143143341Y-95717134D01*
X143189513Y-95664695D01*
X143256707Y-95645542D01*
X143323588Y-95665757D01*
X143368106Y-95717133D01*
X143395431Y-95775732D01*
X143395432Y-95775734D01*
X143503075Y-95929465D01*
X143525402Y-95995671D01*
X143525500Y-96000588D01*
X143525500Y-104405410D01*
X143505815Y-104472449D01*
X143503076Y-104476532D01*
X143395431Y-104630267D01*
X143299261Y-104836502D01*
X143299258Y-104836511D01*
X143240366Y-105056302D01*
X143240364Y-105056313D01*
X143220532Y-105282998D01*
X143220532Y-105283001D01*
X143240364Y-105509686D01*
X143240366Y-105509697D01*
X143299258Y-105729488D01*
X143299261Y-105729497D01*
X143395431Y-105935732D01*
X143395432Y-105935734D01*
X143525954Y-106122141D01*
X143686858Y-106283045D01*
X143772376Y-106342925D01*
X143816001Y-106397501D01*
X143823195Y-106467000D01*
X143791672Y-106529355D01*
X143731443Y-106564769D01*
X143701253Y-106568500D01*
X135720783Y-106568500D01*
X135653744Y-106548815D01*
X135633102Y-106532181D01*
X131653452Y-102552532D01*
X131592061Y-102487949D01*
X131592060Y-102487948D01*
X131592059Y-102487947D01*
X131564204Y-102468559D01*
X131541709Y-102452902D01*
X131537946Y-102450064D01*
X131490413Y-102411305D01*
X131490406Y-102411300D01*
X131459959Y-102395397D01*
X131453251Y-102391334D01*
X131425049Y-102371705D01*
X131425046Y-102371703D01*
X131425045Y-102371703D01*
X131425041Y-102371701D01*
X131368680Y-102347514D01*
X131364424Y-102345493D01*
X131310057Y-102317094D01*
X131310050Y-102317091D01*
X131310049Y-102317091D01*
X131304008Y-102315362D01*
X131277030Y-102307642D01*
X131269630Y-102305008D01*
X131238057Y-102291459D01*
X131238058Y-102291459D01*
X131177966Y-102279109D01*
X131173391Y-102277986D01*
X131114420Y-102261113D01*
X131114425Y-102261113D01*
X131080158Y-102258503D01*
X131072380Y-102257412D01*
X131038742Y-102250500D01*
X131038741Y-102250500D01*
X130977402Y-102250500D01*
X130972695Y-102250321D01*
X130967121Y-102249896D01*
X130911524Y-102245662D01*
X130891589Y-102248201D01*
X130877440Y-102250003D01*
X130869611Y-102250500D01*
X119845783Y-102250500D01*
X119778744Y-102230815D01*
X119758102Y-102214181D01*
X116984922Y-99441001D01*
X129504532Y-99441001D01*
X129524364Y-99667686D01*
X129524366Y-99667697D01*
X129583258Y-99887488D01*
X129583261Y-99887497D01*
X129679431Y-100093732D01*
X129679432Y-100093734D01*
X129809954Y-100280141D01*
X129970858Y-100441045D01*
X129970861Y-100441047D01*
X130157266Y-100571568D01*
X130363504Y-100667739D01*
X130583308Y-100726635D01*
X130745230Y-100740801D01*
X130809998Y-100746468D01*
X130810000Y-100746468D01*
X130810002Y-100746468D01*
X130866673Y-100741509D01*
X131036692Y-100726635D01*
X131256496Y-100667739D01*
X131462734Y-100571568D01*
X131649139Y-100441047D01*
X131810047Y-100280139D01*
X131940568Y-100093734D01*
X132036739Y-99887496D01*
X132095635Y-99667692D01*
X132115468Y-99441000D01*
X132095635Y-99214308D01*
X132036739Y-98994504D01*
X131940568Y-98788266D01*
X131810047Y-98601861D01*
X131810045Y-98601858D01*
X131649141Y-98440954D01*
X131462734Y-98310432D01*
X131462732Y-98310431D01*
X131256497Y-98214261D01*
X131256488Y-98214258D01*
X131036697Y-98155366D01*
X131036693Y-98155365D01*
X131036692Y-98155365D01*
X131036691Y-98155364D01*
X131036686Y-98155364D01*
X130810002Y-98135532D01*
X130809998Y-98135532D01*
X130583313Y-98155364D01*
X130583302Y-98155366D01*
X130363511Y-98214258D01*
X130363502Y-98214261D01*
X130157267Y-98310431D01*
X130157265Y-98310432D01*
X129970858Y-98440954D01*
X129809954Y-98601858D01*
X129679432Y-98788265D01*
X129679431Y-98788267D01*
X129583261Y-98994502D01*
X129583258Y-98994511D01*
X129524366Y-99214302D01*
X129524364Y-99214313D01*
X129504532Y-99440998D01*
X129504532Y-99441001D01*
X116984922Y-99441001D01*
X114880400Y-97336479D01*
X114846915Y-97275156D01*
X114851899Y-97205464D01*
X114893771Y-97149531D01*
X114935986Y-97129024D01*
X114975572Y-97118417D01*
X115000486Y-97111742D01*
X115000489Y-97111740D01*
X115000496Y-97111739D01*
X115206734Y-97015568D01*
X115393139Y-96885047D01*
X115554047Y-96724139D01*
X115684568Y-96537734D01*
X115711618Y-96479724D01*
X115757790Y-96427285D01*
X115824983Y-96408133D01*
X115891865Y-96428348D01*
X115936382Y-96479725D01*
X115963429Y-96537728D01*
X115963432Y-96537734D01*
X116093954Y-96724141D01*
X116254858Y-96885045D01*
X116259377Y-96888209D01*
X116441266Y-97015568D01*
X116647504Y-97111739D01*
X116647509Y-97111740D01*
X116647511Y-97111741D01*
X116700415Y-97125916D01*
X116867308Y-97170635D01*
X117029230Y-97184801D01*
X117093998Y-97190468D01*
X117094000Y-97190468D01*
X117094002Y-97190468D01*
X117150796Y-97185499D01*
X117320692Y-97170635D01*
X117540496Y-97111739D01*
X117746734Y-97015568D01*
X117933139Y-96885047D01*
X118094047Y-96724139D01*
X118224568Y-96537734D01*
X118251618Y-96479724D01*
X118297790Y-96427285D01*
X118364983Y-96408133D01*
X118431865Y-96428348D01*
X118476382Y-96479725D01*
X118503429Y-96537728D01*
X118503432Y-96537734D01*
X118633954Y-96724141D01*
X118794858Y-96885045D01*
X118799377Y-96888209D01*
X118981266Y-97015568D01*
X119187504Y-97111739D01*
X119187509Y-97111740D01*
X119187511Y-97111741D01*
X119240415Y-97125916D01*
X119407308Y-97170635D01*
X119569230Y-97184801D01*
X119633998Y-97190468D01*
X119634000Y-97190468D01*
X119634002Y-97190468D01*
X119690796Y-97185499D01*
X119860692Y-97170635D01*
X120080496Y-97111739D01*
X120286734Y-97015568D01*
X120473139Y-96885047D01*
X120634047Y-96724139D01*
X120764568Y-96537734D01*
X120791618Y-96479724D01*
X120837790Y-96427285D01*
X120904983Y-96408133D01*
X120971865Y-96428348D01*
X121016382Y-96479725D01*
X121043429Y-96537728D01*
X121043432Y-96537734D01*
X121173954Y-96724141D01*
X121334858Y-96885045D01*
X121339377Y-96888209D01*
X121521266Y-97015568D01*
X121727504Y-97111739D01*
X121727509Y-97111740D01*
X121727511Y-97111741D01*
X121780415Y-97125916D01*
X121947308Y-97170635D01*
X122109230Y-97184801D01*
X122173998Y-97190468D01*
X122174000Y-97190468D01*
X122174002Y-97190468D01*
X122230796Y-97185499D01*
X122400692Y-97170635D01*
X122620496Y-97111739D01*
X122826734Y-97015568D01*
X123013139Y-96885047D01*
X123174047Y-96724139D01*
X123304568Y-96537734D01*
X123331895Y-96479129D01*
X123378064Y-96426695D01*
X123445257Y-96407542D01*
X123512139Y-96427757D01*
X123556657Y-96479133D01*
X123583865Y-96537482D01*
X123714342Y-96723820D01*
X123875179Y-96884657D01*
X124061517Y-97015134D01*
X124267673Y-97111265D01*
X124267682Y-97111269D01*
X124463999Y-97163872D01*
X124464000Y-97163871D01*
X124464000Y-96200686D01*
X124475955Y-96212641D01*
X124588852Y-96270165D01*
X124682519Y-96285000D01*
X124745481Y-96285000D01*
X124839148Y-96270165D01*
X124952045Y-96212641D01*
X124964000Y-96200686D01*
X124964000Y-97163872D01*
X125160317Y-97111269D01*
X125160326Y-97111265D01*
X125366482Y-97015134D01*
X125552820Y-96884657D01*
X125713657Y-96723820D01*
X125844134Y-96537482D01*
X125940265Y-96331326D01*
X125940269Y-96331317D01*
X125992872Y-96135000D01*
X125029686Y-96135000D01*
X125041641Y-96123045D01*
X125099165Y-96010148D01*
X125118986Y-95885000D01*
X125099165Y-95759852D01*
X125041641Y-95646955D01*
X125029686Y-95635000D01*
X125992872Y-95635000D01*
X125992872Y-95634999D01*
X125940269Y-95438682D01*
X125940265Y-95438673D01*
X125844134Y-95232517D01*
X125713657Y-95046179D01*
X125552820Y-94885342D01*
X125466750Y-94825075D01*
X125423126Y-94770498D01*
X125415933Y-94700999D01*
X125447455Y-94638645D01*
X125507685Y-94603231D01*
X125537874Y-94599500D01*
X128003284Y-94599500D01*
X128092358Y-94601757D01*
X128092358Y-94601756D01*
X128092363Y-94601757D01*
X128152753Y-94590932D01*
X128157412Y-94590280D01*
X128199607Y-94585988D01*
X128218438Y-94584074D01*
X128251227Y-94573786D01*
X128258840Y-94571918D01*
X128292653Y-94565858D01*
X128349621Y-94543101D01*
X128354053Y-94541524D01*
X128412588Y-94523159D01*
X128442627Y-94506484D01*
X128449708Y-94503122D01*
X128481617Y-94490377D01*
X128532854Y-94456608D01*
X128536851Y-94454187D01*
X128590502Y-94424409D01*
X128616568Y-94402030D01*
X128622843Y-94397300D01*
X128634548Y-94389586D01*
X128651519Y-94378402D01*
X128694892Y-94335027D01*
X128698350Y-94331823D01*
X128724677Y-94309222D01*
X128744895Y-94291866D01*
X128765928Y-94264691D01*
X128771098Y-94258821D01*
X135526918Y-87503001D01*
X138140532Y-87503001D01*
X138160364Y-87729686D01*
X138160366Y-87729697D01*
X138219258Y-87949488D01*
X138219261Y-87949497D01*
X138315431Y-88155732D01*
X138315432Y-88155734D01*
X138445954Y-88342141D01*
X138606858Y-88503045D01*
X138606861Y-88503047D01*
X138793266Y-88633568D01*
X138999504Y-88729739D01*
X139219308Y-88788635D01*
X139381230Y-88802801D01*
X139445998Y-88808468D01*
X139446000Y-88808468D01*
X139446002Y-88808468D01*
X139502673Y-88803509D01*
X139672692Y-88788635D01*
X139892496Y-88729739D01*
X140098734Y-88633568D01*
X140285139Y-88503047D01*
X140446047Y-88342139D01*
X140576568Y-88155734D01*
X140603618Y-88097724D01*
X140649790Y-88045285D01*
X140716983Y-88026133D01*
X140783865Y-88046348D01*
X140828382Y-88097725D01*
X140855429Y-88155728D01*
X140855432Y-88155734D01*
X140985954Y-88342141D01*
X141146858Y-88503045D01*
X141146861Y-88503047D01*
X141333266Y-88633568D01*
X141539504Y-88729739D01*
X141759308Y-88788635D01*
X141921230Y-88802801D01*
X141985998Y-88808468D01*
X141986000Y-88808468D01*
X141986002Y-88808468D01*
X142042673Y-88803509D01*
X142212692Y-88788635D01*
X142432496Y-88729739D01*
X142638734Y-88633568D01*
X142825139Y-88503047D01*
X142986047Y-88342139D01*
X143116568Y-88155734D01*
X143143618Y-88097724D01*
X143189790Y-88045285D01*
X143256983Y-88026133D01*
X143323865Y-88046348D01*
X143368382Y-88097725D01*
X143395429Y-88155728D01*
X143395432Y-88155734D01*
X143525954Y-88342141D01*
X143686858Y-88503045D01*
X143686861Y-88503047D01*
X143873266Y-88633568D01*
X144079504Y-88729739D01*
X144299308Y-88788635D01*
X144461230Y-88802801D01*
X144525998Y-88808468D01*
X144526000Y-88808468D01*
X144526002Y-88808468D01*
X144582673Y-88803509D01*
X144752692Y-88788635D01*
X144972496Y-88729739D01*
X145178734Y-88633568D01*
X145365139Y-88503047D01*
X145526047Y-88342139D01*
X145656568Y-88155734D01*
X145683618Y-88097724D01*
X145729790Y-88045285D01*
X145796983Y-88026133D01*
X145863865Y-88046348D01*
X145908382Y-88097725D01*
X145935429Y-88155728D01*
X145935432Y-88155734D01*
X146065954Y-88342141D01*
X146226858Y-88503045D01*
X146226861Y-88503047D01*
X146413266Y-88633568D01*
X146619504Y-88729739D01*
X146839308Y-88788635D01*
X147001230Y-88802801D01*
X147065998Y-88808468D01*
X147066000Y-88808468D01*
X147066002Y-88808468D01*
X147122673Y-88803509D01*
X147292692Y-88788635D01*
X147512496Y-88729739D01*
X147718734Y-88633568D01*
X147905139Y-88503047D01*
X148066047Y-88342139D01*
X148196568Y-88155734D01*
X148292739Y-87949496D01*
X148351635Y-87729692D01*
X148371468Y-87503000D01*
X148351635Y-87276308D01*
X148292739Y-87056504D01*
X148196568Y-86850266D01*
X148066047Y-86663861D01*
X148066045Y-86663858D01*
X147905141Y-86502954D01*
X147718734Y-86372432D01*
X147718732Y-86372431D01*
X147512497Y-86276261D01*
X147512488Y-86276258D01*
X147292697Y-86217366D01*
X147292693Y-86217365D01*
X147292692Y-86217365D01*
X147292691Y-86217364D01*
X147292686Y-86217364D01*
X147066002Y-86197532D01*
X147065998Y-86197532D01*
X146839313Y-86217364D01*
X146839302Y-86217366D01*
X146619511Y-86276258D01*
X146619502Y-86276261D01*
X146413267Y-86372431D01*
X146413265Y-86372432D01*
X146226858Y-86502954D01*
X146065954Y-86663858D01*
X145935432Y-86850265D01*
X145935431Y-86850267D01*
X145908382Y-86908275D01*
X145862209Y-86960714D01*
X145795016Y-86979866D01*
X145728135Y-86959650D01*
X145683618Y-86908275D01*
X145656568Y-86850267D01*
X145656567Y-86850265D01*
X145637092Y-86822452D01*
X145526047Y-86663861D01*
X145526045Y-86663858D01*
X145365141Y-86502954D01*
X145178734Y-86372432D01*
X145178732Y-86372431D01*
X144972497Y-86276261D01*
X144972488Y-86276258D01*
X144752697Y-86217366D01*
X144752693Y-86217365D01*
X144752692Y-86217365D01*
X144752691Y-86217364D01*
X144752686Y-86217364D01*
X144526002Y-86197532D01*
X144525998Y-86197532D01*
X144299313Y-86217364D01*
X144299302Y-86217366D01*
X144079511Y-86276258D01*
X144079502Y-86276261D01*
X143873267Y-86372431D01*
X143873265Y-86372432D01*
X143686858Y-86502954D01*
X143525954Y-86663858D01*
X143395432Y-86850265D01*
X143395431Y-86850267D01*
X143368382Y-86908275D01*
X143322209Y-86960714D01*
X143255016Y-86979866D01*
X143188135Y-86959650D01*
X143143618Y-86908275D01*
X143116568Y-86850267D01*
X143116567Y-86850265D01*
X143097092Y-86822452D01*
X142986047Y-86663861D01*
X142986045Y-86663858D01*
X142825141Y-86502954D01*
X142638734Y-86372432D01*
X142638732Y-86372431D01*
X142432497Y-86276261D01*
X142432488Y-86276258D01*
X142212697Y-86217366D01*
X142212693Y-86217365D01*
X142212692Y-86217365D01*
X142212691Y-86217364D01*
X142212686Y-86217364D01*
X141986002Y-86197532D01*
X141985998Y-86197532D01*
X141759313Y-86217364D01*
X141759302Y-86217366D01*
X141539511Y-86276258D01*
X141539502Y-86276261D01*
X141333267Y-86372431D01*
X141333265Y-86372432D01*
X141146858Y-86502954D01*
X140985954Y-86663858D01*
X140855432Y-86850265D01*
X140855431Y-86850267D01*
X140828382Y-86908275D01*
X140782209Y-86960714D01*
X140715016Y-86979866D01*
X140648135Y-86959650D01*
X140603618Y-86908275D01*
X140576568Y-86850267D01*
X140576567Y-86850265D01*
X140557092Y-86822452D01*
X140446047Y-86663861D01*
X140446045Y-86663858D01*
X140285141Y-86502954D01*
X140098734Y-86372432D01*
X140098732Y-86372431D01*
X139892497Y-86276261D01*
X139892488Y-86276258D01*
X139672697Y-86217366D01*
X139672693Y-86217365D01*
X139672692Y-86217365D01*
X139672691Y-86217364D01*
X139672686Y-86217364D01*
X139446002Y-86197532D01*
X139445998Y-86197532D01*
X139219313Y-86217364D01*
X139219302Y-86217366D01*
X138999511Y-86276258D01*
X138999502Y-86276261D01*
X138793267Y-86372431D01*
X138793265Y-86372432D01*
X138606858Y-86502954D01*
X138445954Y-86663858D01*
X138315432Y-86850265D01*
X138315431Y-86850267D01*
X138219261Y-87056502D01*
X138219258Y-87056511D01*
X138160366Y-87276302D01*
X138160364Y-87276313D01*
X138140532Y-87502998D01*
X138140532Y-87503001D01*
X135526918Y-87503001D01*
X136207467Y-86822452D01*
X136272053Y-86761059D01*
X136307099Y-86710706D01*
X136309938Y-86706941D01*
X136313612Y-86702435D01*
X136348698Y-86659407D01*
X136364601Y-86628960D01*
X136368674Y-86622239D01*
X136373489Y-86615320D01*
X136388295Y-86594049D01*
X136412492Y-86537660D01*
X136414498Y-86533435D01*
X136442909Y-86479049D01*
X136452357Y-86446022D01*
X136454988Y-86438633D01*
X136468540Y-86407058D01*
X136480895Y-86346930D01*
X136481999Y-86342429D01*
X136498886Y-86283418D01*
X136501494Y-86249157D01*
X136502585Y-86241389D01*
X136509500Y-86207743D01*
X136509500Y-86146398D01*
X136509679Y-86141688D01*
X136512310Y-86107135D01*
X136514337Y-86080524D01*
X136511473Y-86058038D01*
X136509997Y-86046442D01*
X136509500Y-86038603D01*
X136509500Y-81745783D01*
X136529185Y-81678744D01*
X136545819Y-81658102D01*
X136669920Y-81534001D01*
X138140532Y-81534001D01*
X138160364Y-81760686D01*
X138160366Y-81760697D01*
X138219258Y-81980488D01*
X138219261Y-81980497D01*
X138315431Y-82186732D01*
X138315432Y-82186734D01*
X138445954Y-82373141D01*
X138606858Y-82534045D01*
X138606861Y-82534047D01*
X138793266Y-82664568D01*
X138999504Y-82760739D01*
X139219308Y-82819635D01*
X139381230Y-82833801D01*
X139445998Y-82839468D01*
X139446000Y-82839468D01*
X139446002Y-82839468D01*
X139502673Y-82834509D01*
X139672692Y-82819635D01*
X139892496Y-82760739D01*
X140098734Y-82664568D01*
X140285139Y-82534047D01*
X140446047Y-82373139D01*
X140576568Y-82186734D01*
X140672739Y-81980496D01*
X140731635Y-81760692D01*
X140751468Y-81534000D01*
X140731635Y-81307308D01*
X140725389Y-81283999D01*
X145787127Y-81283999D01*
X145787128Y-81284000D01*
X146750314Y-81284000D01*
X146738359Y-81295955D01*
X146680835Y-81408852D01*
X146661014Y-81534000D01*
X146680835Y-81659148D01*
X146738359Y-81772045D01*
X146750314Y-81784000D01*
X145787128Y-81784000D01*
X145839730Y-81980317D01*
X145839734Y-81980326D01*
X145935865Y-82186482D01*
X146066342Y-82372820D01*
X146227179Y-82533657D01*
X146413517Y-82664134D01*
X146619673Y-82760265D01*
X146619682Y-82760269D01*
X146815999Y-82812872D01*
X146816000Y-82812871D01*
X146816000Y-81849686D01*
X146827955Y-81861641D01*
X146940852Y-81919165D01*
X147034519Y-81934000D01*
X147097481Y-81934000D01*
X147191148Y-81919165D01*
X147304045Y-81861641D01*
X147316000Y-81849686D01*
X147316000Y-82812872D01*
X147512317Y-82760269D01*
X147512326Y-82760265D01*
X147718482Y-82664134D01*
X147904820Y-82533657D01*
X148065657Y-82372820D01*
X148196134Y-82186482D01*
X148292265Y-81980326D01*
X148292269Y-81980317D01*
X148344872Y-81784000D01*
X147381686Y-81784000D01*
X147393641Y-81772045D01*
X147451165Y-81659148D01*
X147470986Y-81534000D01*
X147451165Y-81408852D01*
X147393641Y-81295955D01*
X147381686Y-81284000D01*
X148344872Y-81284000D01*
X148344872Y-81283999D01*
X148292269Y-81087682D01*
X148292265Y-81087673D01*
X148196134Y-80881517D01*
X148065657Y-80695179D01*
X147904820Y-80534342D01*
X147718482Y-80403865D01*
X147512328Y-80307734D01*
X147316000Y-80255127D01*
X147316000Y-81218314D01*
X147304045Y-81206359D01*
X147191148Y-81148835D01*
X147097481Y-81134000D01*
X147034519Y-81134000D01*
X146940852Y-81148835D01*
X146827955Y-81206359D01*
X146816000Y-81218314D01*
X146816000Y-80255127D01*
X146619671Y-80307734D01*
X146413517Y-80403865D01*
X146227179Y-80534342D01*
X146066342Y-80695179D01*
X145935865Y-80881517D01*
X145839734Y-81087673D01*
X145839730Y-81087682D01*
X145787127Y-81283999D01*
X140725389Y-81283999D01*
X140672739Y-81087504D01*
X140576568Y-80881266D01*
X140446047Y-80694861D01*
X140446045Y-80694858D01*
X140285141Y-80533954D01*
X140098734Y-80403432D01*
X140098732Y-80403431D01*
X139892497Y-80307261D01*
X139892488Y-80307258D01*
X139672697Y-80248366D01*
X139672693Y-80248365D01*
X139672692Y-80248365D01*
X139672691Y-80248364D01*
X139672686Y-80248364D01*
X139446002Y-80228532D01*
X139445998Y-80228532D01*
X139219313Y-80248364D01*
X139219302Y-80248366D01*
X138999511Y-80307258D01*
X138999502Y-80307261D01*
X138793267Y-80403431D01*
X138793265Y-80403432D01*
X138606858Y-80533954D01*
X138445954Y-80694858D01*
X138315432Y-80881265D01*
X138315431Y-80881267D01*
X138219261Y-81087502D01*
X138219258Y-81087511D01*
X138160366Y-81307302D01*
X138160364Y-81307313D01*
X138140532Y-81533998D01*
X138140532Y-81534001D01*
X136669920Y-81534001D01*
X141348102Y-76855819D01*
X141409425Y-76822334D01*
X141435783Y-76819500D01*
X183248284Y-76819500D01*
X183337358Y-76821757D01*
X183337358Y-76821756D01*
X183337363Y-76821757D01*
X183397753Y-76810932D01*
X183402412Y-76810280D01*
X183444607Y-76805988D01*
X183463438Y-76804074D01*
X183496227Y-76793786D01*
X183503840Y-76791918D01*
X183537653Y-76785858D01*
X183594621Y-76763101D01*
X183599053Y-76761524D01*
X183657588Y-76743159D01*
X183687627Y-76726484D01*
X183694708Y-76723122D01*
X183726617Y-76710377D01*
X183777854Y-76676608D01*
X183781851Y-76674187D01*
X183835502Y-76644409D01*
X183861568Y-76622030D01*
X183867843Y-76617300D01*
X183896519Y-76598402D01*
X183939917Y-76555002D01*
X183943336Y-76551834D01*
X183989895Y-76511866D01*
X184010931Y-76484688D01*
X184016101Y-76478818D01*
X188658487Y-71836433D01*
X188723053Y-71775059D01*
X188758112Y-71724686D01*
X188760925Y-71720957D01*
X188799698Y-71673407D01*
X188815607Y-71642948D01*
X188819667Y-71636248D01*
X188839295Y-71608049D01*
X188863492Y-71551660D01*
X188865498Y-71547435D01*
X188893909Y-71493049D01*
X188903360Y-71460015D01*
X188905991Y-71452628D01*
X188919540Y-71421058D01*
X188931893Y-71360940D01*
X188933006Y-71356412D01*
X188949887Y-71297418D01*
X188952495Y-71263155D01*
X188953587Y-71255376D01*
X188955933Y-71243965D01*
X188960500Y-71221741D01*
X188960500Y-71160401D01*
X188960679Y-71155692D01*
X188961318Y-71147308D01*
X188965337Y-71094523D01*
X188963768Y-71082206D01*
X188960997Y-71060441D01*
X188960500Y-71052602D01*
X188960500Y-69711588D01*
X188980185Y-69644549D01*
X188982925Y-69640465D01*
X189090568Y-69486734D01*
X189186739Y-69280496D01*
X189245635Y-69060692D01*
X189265468Y-68834000D01*
X189245635Y-68607308D01*
X189186739Y-68387504D01*
X189090568Y-68181266D01*
X188960047Y-67994861D01*
X188960045Y-67994858D01*
X188799141Y-67833954D01*
X188612734Y-67703432D01*
X188612732Y-67703431D01*
X188406497Y-67607261D01*
X188406488Y-67607258D01*
X188186697Y-67548366D01*
X188186693Y-67548365D01*
X188186692Y-67548365D01*
X188186691Y-67548364D01*
X188186686Y-67548364D01*
X187960002Y-67528532D01*
X187959998Y-67528532D01*
X187733313Y-67548364D01*
X187733302Y-67548366D01*
X187513511Y-67607258D01*
X187513502Y-67607261D01*
X187307267Y-67703431D01*
X187307265Y-67703432D01*
X187120858Y-67833954D01*
X186959954Y-67994858D01*
X186829432Y-68181265D01*
X186829431Y-68181267D01*
X186733261Y-68387502D01*
X186733258Y-68387511D01*
X186674366Y-68607302D01*
X186674364Y-68607313D01*
X186654532Y-68833998D01*
X186654532Y-68834001D01*
X186674364Y-69060686D01*
X186674366Y-69060697D01*
X186733258Y-69280488D01*
X186733261Y-69280497D01*
X186766788Y-69352395D01*
X186829432Y-69486734D01*
X186877053Y-69554745D01*
X186937075Y-69640465D01*
X186959402Y-69706671D01*
X186959500Y-69711588D01*
X186959500Y-70654218D01*
X186939815Y-70721257D01*
X186923181Y-70741899D01*
X182882899Y-74782181D01*
X182821576Y-74815666D01*
X182795218Y-74818500D01*
X140982677Y-74818500D01*
X140893637Y-74816244D01*
X140893626Y-74816245D01*
X140833271Y-74827062D01*
X140828607Y-74827716D01*
X140767563Y-74833925D01*
X140767555Y-74833927D01*
X140734781Y-74844210D01*
X140727153Y-74846082D01*
X140693349Y-74852141D01*
X140636381Y-74874895D01*
X140631945Y-74876474D01*
X140573414Y-74894840D01*
X140573410Y-74894842D01*
X140543378Y-74911510D01*
X140536284Y-74914879D01*
X140504382Y-74927623D01*
X140504377Y-74927625D01*
X140453156Y-74961381D01*
X140449128Y-74963822D01*
X140395501Y-74993588D01*
X140369434Y-75015965D01*
X140363165Y-75020692D01*
X140334484Y-75039595D01*
X140334478Y-75039600D01*
X140291109Y-75082968D01*
X140287655Y-75086169D01*
X140241102Y-75126136D01*
X140220076Y-75153298D01*
X140214885Y-75159192D01*
X134810532Y-80563546D01*
X134745946Y-80624942D01*
X134710899Y-80675294D01*
X134708062Y-80679056D01*
X134669302Y-80726592D01*
X134669299Y-80726597D01*
X134653392Y-80757047D01*
X134649324Y-80763761D01*
X134629702Y-80791954D01*
X134605509Y-80848330D01*
X134603488Y-80852584D01*
X134575091Y-80906951D01*
X134575090Y-80906952D01*
X134565640Y-80939975D01*
X134563007Y-80947371D01*
X134549459Y-80978943D01*
X134537113Y-81039019D01*
X134535990Y-81043595D01*
X134519113Y-81102577D01*
X134519113Y-81102579D01*
X134516503Y-81136841D01*
X134515414Y-81144608D01*
X134509980Y-81171052D01*
X134508500Y-81178258D01*
X134508500Y-81239597D01*
X134508321Y-81244306D01*
X134503662Y-81305474D01*
X134505707Y-81321527D01*
X134508003Y-81339560D01*
X134508500Y-81347388D01*
X134508500Y-85640217D01*
X134488815Y-85707256D01*
X134472181Y-85727898D01*
X127637899Y-92562181D01*
X127576576Y-92595666D01*
X127550218Y-92598500D01*
X119554783Y-92598500D01*
X119487744Y-92578815D01*
X119441989Y-92526011D01*
X119432045Y-92456853D01*
X119461070Y-92393297D01*
X119467102Y-92386819D01*
X119631102Y-92222819D01*
X119692425Y-92189334D01*
X119718783Y-92186500D01*
X126733284Y-92186500D01*
X126822358Y-92188757D01*
X126822358Y-92188756D01*
X126822363Y-92188757D01*
X126882753Y-92177932D01*
X126887412Y-92177280D01*
X126929607Y-92172988D01*
X126948438Y-92171074D01*
X126981227Y-92160786D01*
X126988840Y-92158918D01*
X127022653Y-92152858D01*
X127079621Y-92130101D01*
X127084053Y-92128524D01*
X127142588Y-92110159D01*
X127172627Y-92093484D01*
X127179708Y-92090122D01*
X127211617Y-92077377D01*
X127262854Y-92043608D01*
X127266851Y-92041187D01*
X127320502Y-92011409D01*
X127346568Y-91989030D01*
X127352843Y-91984300D01*
X127381519Y-91965402D01*
X127424892Y-91922027D01*
X127428350Y-91918823D01*
X127431613Y-91916020D01*
X127474895Y-91878866D01*
X127495928Y-91851691D01*
X127501098Y-91845821D01*
X133540467Y-85806452D01*
X133605053Y-85745059D01*
X133640099Y-85694706D01*
X133642938Y-85690941D01*
X133646612Y-85686435D01*
X133681698Y-85643407D01*
X133697601Y-85612960D01*
X133701674Y-85606239D01*
X133706489Y-85599320D01*
X133721295Y-85578049D01*
X133745492Y-85521660D01*
X133747498Y-85517435D01*
X133775909Y-85463049D01*
X133785360Y-85430015D01*
X133787991Y-85422628D01*
X133801540Y-85391058D01*
X133813893Y-85330940D01*
X133815006Y-85326412D01*
X133831887Y-85267418D01*
X133834495Y-85233155D01*
X133835587Y-85225376D01*
X133838533Y-85211045D01*
X133842500Y-85191741D01*
X133842500Y-85130401D01*
X133842679Y-85125692D01*
X133847337Y-85064526D01*
X133842997Y-85030442D01*
X133842500Y-85022603D01*
X133842500Y-69711588D01*
X133862185Y-69644549D01*
X133864925Y-69640465D01*
X133972568Y-69486734D01*
X134068739Y-69280496D01*
X134127635Y-69060692D01*
X134147468Y-68834001D01*
X139156532Y-68834001D01*
X139176364Y-69060686D01*
X139176366Y-69060697D01*
X139235258Y-69280488D01*
X139235261Y-69280497D01*
X139331431Y-69486732D01*
X139331432Y-69486734D01*
X139461954Y-69673141D01*
X139622858Y-69834045D01*
X139622861Y-69834047D01*
X139809266Y-69964568D01*
X140015504Y-70060739D01*
X140235308Y-70119635D01*
X140397230Y-70133801D01*
X140461998Y-70139468D01*
X140462000Y-70139468D01*
X140462002Y-70139468D01*
X140518673Y-70134509D01*
X140688692Y-70119635D01*
X140908496Y-70060739D01*
X141114734Y-69964568D01*
X141301139Y-69834047D01*
X141462047Y-69673139D01*
X141592568Y-69486734D01*
X141688739Y-69280496D01*
X141747635Y-69060692D01*
X141767468Y-68834000D01*
X141747635Y-68607308D01*
X141688739Y-68387504D01*
X141592568Y-68181266D01*
X141462047Y-67994861D01*
X141462045Y-67994858D01*
X141301141Y-67833954D01*
X141114734Y-67703432D01*
X141114732Y-67703431D01*
X140908497Y-67607261D01*
X140908488Y-67607258D01*
X140688697Y-67548366D01*
X140688693Y-67548365D01*
X140688692Y-67548365D01*
X140688691Y-67548364D01*
X140688686Y-67548364D01*
X140462002Y-67528532D01*
X140461998Y-67528532D01*
X140235313Y-67548364D01*
X140235302Y-67548366D01*
X140015511Y-67607258D01*
X140015502Y-67607261D01*
X139809267Y-67703431D01*
X139809265Y-67703432D01*
X139622858Y-67833954D01*
X139461954Y-67994858D01*
X139331432Y-68181265D01*
X139331431Y-68181267D01*
X139235261Y-68387502D01*
X139235258Y-68387511D01*
X139176366Y-68607302D01*
X139176364Y-68607313D01*
X139156532Y-68833998D01*
X139156532Y-68834001D01*
X134147468Y-68834001D01*
X134147468Y-68834000D01*
X134127635Y-68607308D01*
X134068739Y-68387504D01*
X133972568Y-68181266D01*
X133886239Y-68057974D01*
X133864924Y-68027532D01*
X133842597Y-67961326D01*
X133842500Y-67956410D01*
X133842500Y-65920715D01*
X133844757Y-65831641D01*
X133844756Y-65831640D01*
X133844757Y-65831637D01*
X133833933Y-65771249D01*
X133833280Y-65766587D01*
X133827074Y-65705564D01*
X133827074Y-65705562D01*
X133822540Y-65691114D01*
X133821253Y-65621258D01*
X133857937Y-65561794D01*
X133920946Y-65531601D01*
X133990276Y-65540268D01*
X134015166Y-65554727D01*
X134025959Y-65562806D01*
X134025961Y-65562808D01*
X134277042Y-65699908D01*
X134277041Y-65699908D01*
X134545104Y-65799890D01*
X134824637Y-65860699D01*
X135109999Y-65881109D01*
X135110001Y-65881109D01*
X135395362Y-65860699D01*
X135674895Y-65799890D01*
X135942958Y-65699908D01*
X136194047Y-65562803D01*
X136336561Y-65456116D01*
X136336562Y-65456115D01*
X135544701Y-64664254D01*
X135641920Y-64608126D01*
X135782514Y-64481534D01*
X135893716Y-64328479D01*
X135900590Y-64313037D01*
X136690115Y-65102562D01*
X136690116Y-65102561D01*
X136796803Y-64960047D01*
X136933908Y-64708958D01*
X137033890Y-64440895D01*
X137094699Y-64161362D01*
X137110131Y-63945594D01*
X138605686Y-63945594D01*
X138636114Y-64222125D01*
X138706478Y-64491272D01*
X138799072Y-64709166D01*
X138815284Y-64747314D01*
X138945113Y-64960047D01*
X138960205Y-64984776D01*
X138960212Y-64984786D01*
X139138161Y-65198616D01*
X139138167Y-65198621D01*
X139256277Y-65304447D01*
X139345357Y-65384263D01*
X139577373Y-65537763D01*
X139829267Y-65655846D01*
X139829274Y-65655848D01*
X139829276Y-65655849D01*
X140095657Y-65735992D01*
X140095664Y-65735993D01*
X140095669Y-65735995D01*
X140370901Y-65776500D01*
X140370906Y-65776500D01*
X140579469Y-65776500D01*
X140639862Y-65772079D01*
X140787455Y-65761277D01*
X141058997Y-65700788D01*
X141318838Y-65601408D01*
X141561440Y-65465253D01*
X141781632Y-65295226D01*
X141974722Y-65094951D01*
X142136593Y-64868696D01*
X142221928Y-64702719D01*
X142263790Y-64621298D01*
X142263794Y-64621288D01*
X142263797Y-64621283D01*
X142353621Y-64357986D01*
X142404152Y-64084416D01*
X142409226Y-63945594D01*
X172545686Y-63945594D01*
X172576114Y-64222125D01*
X172646478Y-64491272D01*
X172739072Y-64709166D01*
X172755284Y-64747314D01*
X172885113Y-64960047D01*
X172900205Y-64984776D01*
X172900212Y-64984786D01*
X173078161Y-65198616D01*
X173078167Y-65198621D01*
X173196277Y-65304447D01*
X173285357Y-65384263D01*
X173517373Y-65537763D01*
X173769267Y-65655846D01*
X173769274Y-65655848D01*
X173769276Y-65655849D01*
X174035657Y-65735992D01*
X174035664Y-65735993D01*
X174035669Y-65735995D01*
X174310901Y-65776500D01*
X174310906Y-65776500D01*
X174519469Y-65776500D01*
X174579862Y-65772079D01*
X174727455Y-65761277D01*
X174998997Y-65700788D01*
X175258838Y-65601408D01*
X175501440Y-65465253D01*
X175721632Y-65295226D01*
X175914722Y-65094951D01*
X176076593Y-64868696D01*
X176161928Y-64702719D01*
X176203790Y-64621298D01*
X176203794Y-64621288D01*
X176203797Y-64621283D01*
X176293621Y-64357986D01*
X176344152Y-64084416D01*
X176351769Y-63876001D01*
X177844390Y-63876001D01*
X177864804Y-64161433D01*
X177925628Y-64441037D01*
X177925630Y-64441043D01*
X177925631Y-64441046D01*
X177992856Y-64621283D01*
X178025635Y-64709166D01*
X178162770Y-64960309D01*
X178162775Y-64960317D01*
X178334254Y-65189387D01*
X178334270Y-65189405D01*
X178536594Y-65391729D01*
X178536612Y-65391745D01*
X178765680Y-65563223D01*
X178765682Y-65563224D01*
X178765685Y-65563226D01*
X178784926Y-65573732D01*
X178834331Y-65623134D01*
X178849500Y-65682564D01*
X178849500Y-70025586D01*
X178829815Y-70092625D01*
X178777011Y-70138380D01*
X178757595Y-70145360D01*
X178750517Y-70147256D01*
X178750502Y-70147261D01*
X178544267Y-70243431D01*
X178544265Y-70243432D01*
X178357858Y-70373954D01*
X178196954Y-70534858D01*
X178066432Y-70721265D01*
X178066431Y-70721267D01*
X177970261Y-70927502D01*
X177970258Y-70927511D01*
X177911366Y-71147302D01*
X177911364Y-71147313D01*
X177891532Y-71373998D01*
X177891532Y-71374001D01*
X177911364Y-71600686D01*
X177911366Y-71600697D01*
X177970258Y-71820488D01*
X177970261Y-71820497D01*
X178066431Y-72026732D01*
X178066432Y-72026734D01*
X178196954Y-72213141D01*
X178357858Y-72374045D01*
X178357861Y-72374047D01*
X178544266Y-72504568D01*
X178750504Y-72600739D01*
X178750509Y-72600740D01*
X178750511Y-72600741D01*
X178803415Y-72614916D01*
X178970308Y-72659635D01*
X179132230Y-72673801D01*
X179196998Y-72679468D01*
X179197000Y-72679468D01*
X179197002Y-72679468D01*
X179253673Y-72674509D01*
X179423692Y-72659635D01*
X179643496Y-72600739D01*
X179849734Y-72504568D01*
X180036139Y-72374047D01*
X180197047Y-72213139D01*
X180327568Y-72026734D01*
X180423739Y-71820496D01*
X180482635Y-71600692D01*
X180488039Y-71538906D01*
X180513490Y-71473840D01*
X180523880Y-71462039D01*
X180548487Y-71437433D01*
X180613053Y-71376059D01*
X180648119Y-71325675D01*
X180650912Y-71321972D01*
X180689697Y-71274408D01*
X180705604Y-71243952D01*
X180709666Y-71237248D01*
X180729295Y-71209049D01*
X180753497Y-71152650D01*
X180755500Y-71148431D01*
X180783909Y-71094049D01*
X180793357Y-71061022D01*
X180795988Y-71053633D01*
X180809540Y-71022058D01*
X180821895Y-70961930D01*
X180822999Y-70957429D01*
X180839886Y-70898418D01*
X180842494Y-70864157D01*
X180843585Y-70856389D01*
X180850500Y-70822743D01*
X180850500Y-70761398D01*
X180850679Y-70756688D01*
X180851805Y-70741899D01*
X180855337Y-70695524D01*
X180850997Y-70661442D01*
X180850500Y-70653603D01*
X180850500Y-65682564D01*
X180870185Y-65615525D01*
X180915072Y-65573732D01*
X180934315Y-65563226D01*
X181163395Y-65391739D01*
X181365739Y-65189395D01*
X181537226Y-64960315D01*
X181674367Y-64709161D01*
X181774369Y-64441046D01*
X181821992Y-64222125D01*
X181835195Y-64161433D01*
X181835195Y-64161431D01*
X181835196Y-64161428D01*
X181855610Y-63876001D01*
X182144390Y-63876001D01*
X182164804Y-64161433D01*
X182225628Y-64441037D01*
X182225630Y-64441043D01*
X182225631Y-64441046D01*
X182292856Y-64621283D01*
X182325635Y-64709166D01*
X182462770Y-64960309D01*
X182462775Y-64960317D01*
X182634254Y-65189387D01*
X182634270Y-65189405D01*
X182836594Y-65391729D01*
X182836612Y-65391745D01*
X183065682Y-65563224D01*
X183065690Y-65563229D01*
X183316833Y-65700364D01*
X183316832Y-65700364D01*
X183316836Y-65700365D01*
X183316839Y-65700367D01*
X183584954Y-65800369D01*
X183584960Y-65800370D01*
X183584962Y-65800371D01*
X183864566Y-65861195D01*
X183864568Y-65861195D01*
X183864572Y-65861196D01*
X184118220Y-65879337D01*
X184149999Y-65881610D01*
X184150000Y-65881610D01*
X184150001Y-65881610D01*
X184178595Y-65879564D01*
X184435428Y-65861196D01*
X184580315Y-65829678D01*
X184715037Y-65800371D01*
X184715037Y-65800370D01*
X184715046Y-65800369D01*
X184983161Y-65700367D01*
X185234315Y-65563226D01*
X185463395Y-65391739D01*
X185665739Y-65189395D01*
X185837226Y-64960315D01*
X185974367Y-64709161D01*
X186074369Y-64441046D01*
X186121992Y-64222125D01*
X186135195Y-64161433D01*
X186135195Y-64161431D01*
X186135196Y-64161428D01*
X186155610Y-63876001D01*
X186444891Y-63876001D01*
X186465300Y-64161362D01*
X186526109Y-64440895D01*
X186626091Y-64708958D01*
X186763191Y-64960038D01*
X186763196Y-64960046D01*
X186869882Y-65102561D01*
X186869883Y-65102562D01*
X187659409Y-64313036D01*
X187666284Y-64328478D01*
X187777486Y-64481534D01*
X187918080Y-64608126D01*
X188015297Y-64664254D01*
X187223436Y-65456115D01*
X187365960Y-65562807D01*
X187365961Y-65562808D01*
X187617042Y-65699908D01*
X187617041Y-65699908D01*
X187885104Y-65799890D01*
X188164637Y-65860699D01*
X188449999Y-65881109D01*
X188450001Y-65881109D01*
X188735362Y-65860699D01*
X189014895Y-65799890D01*
X189282958Y-65699908D01*
X189534047Y-65562803D01*
X189676561Y-65456116D01*
X189676562Y-65456115D01*
X188884702Y-64664254D01*
X188981920Y-64608126D01*
X189122514Y-64481534D01*
X189233716Y-64328479D01*
X189240590Y-64313037D01*
X190030115Y-65102562D01*
X190030116Y-65102561D01*
X190136803Y-64960047D01*
X190273908Y-64708958D01*
X190373890Y-64440895D01*
X190434699Y-64161362D01*
X190450131Y-63945594D01*
X191945686Y-63945594D01*
X191976114Y-64222125D01*
X192046478Y-64491272D01*
X192139072Y-64709166D01*
X192155284Y-64747314D01*
X192285113Y-64960047D01*
X192300205Y-64984776D01*
X192300212Y-64984786D01*
X192478161Y-65198616D01*
X192478167Y-65198621D01*
X192596277Y-65304447D01*
X192685357Y-65384263D01*
X192917373Y-65537763D01*
X193169267Y-65655846D01*
X193169274Y-65655848D01*
X193169276Y-65655849D01*
X193435657Y-65735992D01*
X193435664Y-65735993D01*
X193435669Y-65735995D01*
X193710901Y-65776500D01*
X193710906Y-65776500D01*
X193919469Y-65776500D01*
X193979862Y-65772079D01*
X194127455Y-65761277D01*
X194398997Y-65700788D01*
X194658838Y-65601408D01*
X194901440Y-65465253D01*
X195121632Y-65295226D01*
X195314722Y-65094951D01*
X195476593Y-64868696D01*
X195561928Y-64702719D01*
X195603790Y-64621298D01*
X195603794Y-64621288D01*
X195603797Y-64621283D01*
X195693621Y-64357986D01*
X195744152Y-64084416D01*
X195754313Y-63806404D01*
X195723886Y-63529876D01*
X195653520Y-63260724D01*
X195544716Y-63004686D01*
X195399792Y-62767219D01*
X195397343Y-62764276D01*
X195221838Y-62553383D01*
X195221832Y-62553378D01*
X195014643Y-62367737D01*
X194789213Y-62218594D01*
X200107686Y-62218594D01*
X200138114Y-62495125D01*
X200208478Y-62764272D01*
X200310642Y-63004686D01*
X200317284Y-63020314D01*
X200392692Y-63143874D01*
X200462205Y-63257776D01*
X200462212Y-63257786D01*
X200640161Y-63471616D01*
X200640167Y-63471621D01*
X200772918Y-63590566D01*
X200847357Y-63657263D01*
X201079373Y-63810763D01*
X201331267Y-63928846D01*
X201331274Y-63928848D01*
X201331276Y-63928849D01*
X201597657Y-64008992D01*
X201597664Y-64008993D01*
X201597669Y-64008995D01*
X201872901Y-64049500D01*
X201872906Y-64049500D01*
X202081469Y-64049500D01*
X202141862Y-64045079D01*
X202289455Y-64034277D01*
X202560997Y-63973788D01*
X202820838Y-63874408D01*
X203063440Y-63738253D01*
X203283632Y-63568226D01*
X203476722Y-63367951D01*
X203638593Y-63141696D01*
X203723783Y-62976000D01*
X203765790Y-62894298D01*
X203765794Y-62894288D01*
X203765797Y-62894283D01*
X203855621Y-62630986D01*
X203906152Y-62357416D01*
X203916313Y-62079404D01*
X203885886Y-61802876D01*
X203815520Y-61533724D01*
X203706716Y-61277686D01*
X203561792Y-61040219D01*
X203470112Y-60930053D01*
X203383838Y-60826383D01*
X203383832Y-60826378D01*
X203176643Y-60640737D01*
X202944629Y-60487238D01*
X202944627Y-60487237D01*
X202692733Y-60369154D01*
X202692728Y-60369152D01*
X202692723Y-60369150D01*
X202426342Y-60289007D01*
X202426328Y-60289004D01*
X202307565Y-60271526D01*
X202151099Y-60248500D01*
X201942537Y-60248500D01*
X201942531Y-60248500D01*
X201734545Y-60263723D01*
X201734535Y-60263724D01*
X201463007Y-60324210D01*
X201462997Y-60324213D01*
X201203161Y-60423592D01*
X200960561Y-60559746D01*
X200960556Y-60559749D01*
X200740369Y-60729772D01*
X200740359Y-60729781D01*
X200547281Y-60930045D01*
X200547274Y-60930053D01*
X200385412Y-61156295D01*
X200385405Y-61156307D01*
X200258209Y-61403701D01*
X200258205Y-61403711D01*
X200168379Y-61667012D01*
X200168378Y-61667018D01*
X200117848Y-61940584D01*
X200117847Y-61940591D01*
X200107686Y-62218594D01*
X194789213Y-62218594D01*
X194782629Y-62214238D01*
X194782627Y-62214237D01*
X194530733Y-62096154D01*
X194530728Y-62096152D01*
X194530723Y-62096150D01*
X194264342Y-62016007D01*
X194264328Y-62016004D01*
X194145565Y-61998526D01*
X193989099Y-61975500D01*
X193780537Y-61975500D01*
X193780531Y-61975500D01*
X193572545Y-61990723D01*
X193572535Y-61990724D01*
X193301007Y-62051210D01*
X193300997Y-62051213D01*
X193041161Y-62150592D01*
X192798561Y-62286746D01*
X192798556Y-62286749D01*
X192578369Y-62456772D01*
X192578359Y-62456781D01*
X192385281Y-62657045D01*
X192385274Y-62657053D01*
X192223412Y-62883295D01*
X192223405Y-62883307D01*
X192096209Y-63130701D01*
X192096205Y-63130711D01*
X192006379Y-63394012D01*
X192006378Y-63394018D01*
X191955848Y-63667584D01*
X191955847Y-63667591D01*
X191945686Y-63945594D01*
X190450131Y-63945594D01*
X190455109Y-63876001D01*
X190455109Y-63875998D01*
X190434699Y-63590637D01*
X190373890Y-63311104D01*
X190273908Y-63043041D01*
X190136808Y-62791961D01*
X190136807Y-62791960D01*
X190030115Y-62649436D01*
X189240590Y-63438961D01*
X189233716Y-63423522D01*
X189122514Y-63270466D01*
X188981920Y-63143874D01*
X188884701Y-63087745D01*
X189676562Y-62295883D01*
X189676561Y-62295882D01*
X189534046Y-62189196D01*
X189534038Y-62189191D01*
X189282957Y-62052091D01*
X189282958Y-62052091D01*
X189014895Y-61952109D01*
X188735362Y-61891300D01*
X188450001Y-61870891D01*
X188449999Y-61870891D01*
X188164637Y-61891300D01*
X187885104Y-61952109D01*
X187617041Y-62052091D01*
X187365961Y-62189191D01*
X187365953Y-62189196D01*
X187223437Y-62295882D01*
X187223436Y-62295883D01*
X188015298Y-63087745D01*
X187918080Y-63143874D01*
X187777486Y-63270466D01*
X187666284Y-63423521D01*
X187659409Y-63438962D01*
X186869883Y-62649436D01*
X186869882Y-62649437D01*
X186763196Y-62791953D01*
X186763191Y-62791961D01*
X186626091Y-63043041D01*
X186526109Y-63311104D01*
X186465300Y-63590637D01*
X186444891Y-63875998D01*
X186444891Y-63876001D01*
X186155610Y-63876001D01*
X186155610Y-63876000D01*
X186135196Y-63590572D01*
X186130333Y-63568218D01*
X186074371Y-63310962D01*
X186074370Y-63310960D01*
X186074369Y-63310954D01*
X185974367Y-63042839D01*
X185962067Y-63020314D01*
X185837229Y-62791690D01*
X185837224Y-62791682D01*
X185665745Y-62562612D01*
X185665729Y-62562594D01*
X185463405Y-62360270D01*
X185463387Y-62360254D01*
X185234317Y-62188775D01*
X185234309Y-62188770D01*
X184983166Y-62051635D01*
X184983167Y-62051635D01*
X184779041Y-61975500D01*
X184715046Y-61951631D01*
X184715043Y-61951630D01*
X184715037Y-61951628D01*
X184435433Y-61890804D01*
X184150001Y-61870390D01*
X184149999Y-61870390D01*
X183864566Y-61890804D01*
X183584962Y-61951628D01*
X183316833Y-62051635D01*
X183065690Y-62188770D01*
X183065682Y-62188775D01*
X182836612Y-62360254D01*
X182836594Y-62360270D01*
X182634270Y-62562594D01*
X182634254Y-62562612D01*
X182462775Y-62791682D01*
X182462770Y-62791690D01*
X182325635Y-63042833D01*
X182225628Y-63310962D01*
X182164804Y-63590566D01*
X182144390Y-63875998D01*
X182144390Y-63876001D01*
X181855610Y-63876001D01*
X181855610Y-63876000D01*
X181835196Y-63590572D01*
X181830333Y-63568218D01*
X181774371Y-63310962D01*
X181774370Y-63310960D01*
X181774369Y-63310954D01*
X181674367Y-63042839D01*
X181662067Y-63020314D01*
X181537229Y-62791690D01*
X181537224Y-62791682D01*
X181365745Y-62562612D01*
X181365729Y-62562594D01*
X181163405Y-62360270D01*
X181163387Y-62360254D01*
X180934317Y-62188775D01*
X180934309Y-62188770D01*
X180683166Y-62051635D01*
X180683167Y-62051635D01*
X180479041Y-61975500D01*
X180415046Y-61951631D01*
X180415043Y-61951630D01*
X180415037Y-61951628D01*
X180135433Y-61890804D01*
X179850001Y-61870390D01*
X179849999Y-61870390D01*
X179564566Y-61890804D01*
X179284962Y-61951628D01*
X179016833Y-62051635D01*
X178765690Y-62188770D01*
X178765682Y-62188775D01*
X178536612Y-62360254D01*
X178536594Y-62360270D01*
X178334270Y-62562594D01*
X178334254Y-62562612D01*
X178162775Y-62791682D01*
X178162770Y-62791690D01*
X178025635Y-63042833D01*
X177925628Y-63310962D01*
X177864804Y-63590566D01*
X177844390Y-63875998D01*
X177844390Y-63876001D01*
X176351769Y-63876001D01*
X176354313Y-63806404D01*
X176323886Y-63529876D01*
X176253520Y-63260724D01*
X176144716Y-63004686D01*
X175999792Y-62767219D01*
X175997343Y-62764276D01*
X175821838Y-62553383D01*
X175821832Y-62553378D01*
X175614643Y-62367737D01*
X175382629Y-62214238D01*
X175382627Y-62214237D01*
X175130733Y-62096154D01*
X175130728Y-62096152D01*
X175130723Y-62096150D01*
X174864342Y-62016007D01*
X174864328Y-62016004D01*
X174745565Y-61998526D01*
X174589099Y-61975500D01*
X174380537Y-61975500D01*
X174380531Y-61975500D01*
X174172545Y-61990723D01*
X174172535Y-61990724D01*
X173901007Y-62051210D01*
X173900997Y-62051213D01*
X173641161Y-62150592D01*
X173398561Y-62286746D01*
X173398556Y-62286749D01*
X173178369Y-62456772D01*
X173178359Y-62456781D01*
X172985281Y-62657045D01*
X172985274Y-62657053D01*
X172823412Y-62883295D01*
X172823405Y-62883307D01*
X172696209Y-63130701D01*
X172696205Y-63130711D01*
X172606379Y-63394012D01*
X172606378Y-63394018D01*
X172555848Y-63667584D01*
X172555847Y-63667591D01*
X172545686Y-63945594D01*
X142409226Y-63945594D01*
X142414313Y-63806404D01*
X142383886Y-63529876D01*
X142313520Y-63260724D01*
X142204716Y-63004686D01*
X142059792Y-62767219D01*
X142057343Y-62764276D01*
X141881838Y-62553383D01*
X141881832Y-62553378D01*
X141674643Y-62367737D01*
X141442629Y-62214238D01*
X141442627Y-62214237D01*
X141190733Y-62096154D01*
X141190728Y-62096152D01*
X141190723Y-62096150D01*
X140924342Y-62016007D01*
X140924328Y-62016004D01*
X140805565Y-61998526D01*
X140649099Y-61975500D01*
X140440537Y-61975500D01*
X140440531Y-61975500D01*
X140232545Y-61990723D01*
X140232535Y-61990724D01*
X139961007Y-62051210D01*
X139960997Y-62051213D01*
X139701161Y-62150592D01*
X139458561Y-62286746D01*
X139458556Y-62286749D01*
X139238369Y-62456772D01*
X139238359Y-62456781D01*
X139045281Y-62657045D01*
X139045274Y-62657053D01*
X138883412Y-62883295D01*
X138883405Y-62883307D01*
X138756209Y-63130701D01*
X138756205Y-63130711D01*
X138666379Y-63394012D01*
X138666378Y-63394018D01*
X138615848Y-63667584D01*
X138615847Y-63667591D01*
X138605686Y-63945594D01*
X137110131Y-63945594D01*
X137115109Y-63876001D01*
X137115109Y-63875998D01*
X137094699Y-63590637D01*
X137033890Y-63311104D01*
X136933908Y-63043041D01*
X136796808Y-62791961D01*
X136796807Y-62791960D01*
X136690115Y-62649436D01*
X135900590Y-63438961D01*
X135893716Y-63423522D01*
X135782514Y-63270466D01*
X135641920Y-63143874D01*
X135544701Y-63087745D01*
X136336562Y-62295883D01*
X136336561Y-62295882D01*
X136194046Y-62189196D01*
X136194038Y-62189191D01*
X135942957Y-62052091D01*
X135942958Y-62052091D01*
X135674895Y-61952109D01*
X135395362Y-61891300D01*
X135110001Y-61870891D01*
X135109999Y-61870891D01*
X134824637Y-61891300D01*
X134545104Y-61952109D01*
X134277041Y-62052091D01*
X134025961Y-62189191D01*
X134025953Y-62189196D01*
X133883437Y-62295882D01*
X133883436Y-62295883D01*
X134675298Y-63087745D01*
X134578080Y-63143874D01*
X134437486Y-63270466D01*
X134326284Y-63423521D01*
X134319409Y-63438962D01*
X133529882Y-62649436D01*
X133423196Y-62791953D01*
X133423191Y-62791961D01*
X133286091Y-63043041D01*
X133186109Y-63311104D01*
X133125300Y-63590637D01*
X133104891Y-63875998D01*
X133104891Y-63876001D01*
X133125300Y-64161362D01*
X133186110Y-64440897D01*
X133222642Y-64538844D01*
X133227626Y-64608535D01*
X133194141Y-64669858D01*
X133132818Y-64703343D01*
X133063126Y-64698359D01*
X133018779Y-64669858D01*
X132792179Y-64443258D01*
X132758694Y-64381935D01*
X132758694Y-64329222D01*
X132795196Y-64161428D01*
X132815610Y-63876000D01*
X132795196Y-63590572D01*
X132790333Y-63568218D01*
X132734371Y-63310962D01*
X132734370Y-63310960D01*
X132734369Y-63310954D01*
X132634367Y-63042839D01*
X132622067Y-63020314D01*
X132497229Y-62791690D01*
X132497224Y-62791682D01*
X132325745Y-62562612D01*
X132325729Y-62562594D01*
X132123405Y-62360270D01*
X132123387Y-62360254D01*
X131894317Y-62188775D01*
X131894309Y-62188770D01*
X131643166Y-62051635D01*
X131643167Y-62051635D01*
X131439041Y-61975500D01*
X131375046Y-61951631D01*
X131375043Y-61951630D01*
X131375037Y-61951628D01*
X131095433Y-61890804D01*
X130810001Y-61870390D01*
X130809999Y-61870390D01*
X130524566Y-61890804D01*
X130244962Y-61951628D01*
X129976833Y-62051635D01*
X129725690Y-62188770D01*
X129725682Y-62188775D01*
X129496612Y-62360254D01*
X129496594Y-62360270D01*
X129294270Y-62562594D01*
X129294254Y-62562612D01*
X129122775Y-62791682D01*
X129122770Y-62791690D01*
X128985635Y-63042833D01*
X128885628Y-63310962D01*
X128824804Y-63590566D01*
X128804390Y-63875998D01*
X128804390Y-63876001D01*
X128824804Y-64161433D01*
X128885628Y-64441037D01*
X128885630Y-64441043D01*
X128885631Y-64441046D01*
X128952856Y-64621283D01*
X128985635Y-64709166D01*
X129122770Y-64960309D01*
X129122775Y-64960317D01*
X129294254Y-65189387D01*
X129294270Y-65189405D01*
X129496594Y-65391729D01*
X129496612Y-65391745D01*
X129725682Y-65563224D01*
X129725690Y-65563229D01*
X129976833Y-65700364D01*
X129976832Y-65700364D01*
X129976836Y-65700365D01*
X129976839Y-65700367D01*
X130244954Y-65800369D01*
X130244960Y-65800370D01*
X130244962Y-65800371D01*
X130524566Y-65861195D01*
X130524568Y-65861195D01*
X130524572Y-65861196D01*
X130778220Y-65879337D01*
X130809999Y-65881610D01*
X130810000Y-65881610D01*
X130810001Y-65881610D01*
X130833822Y-65879906D01*
X131095428Y-65861196D01*
X131263222Y-65824694D01*
X131332910Y-65829678D01*
X131377259Y-65858179D01*
X131805181Y-66286101D01*
X131838666Y-66347424D01*
X131841500Y-66373782D01*
X131841500Y-67956410D01*
X131821815Y-68023449D01*
X131819076Y-68027532D01*
X131711431Y-68181267D01*
X131615261Y-68387502D01*
X131615258Y-68387511D01*
X131556366Y-68607302D01*
X131556364Y-68607313D01*
X131536532Y-68833998D01*
X131536532Y-68834001D01*
X131556364Y-69060686D01*
X131556366Y-69060697D01*
X131615258Y-69280488D01*
X131615261Y-69280497D01*
X131648788Y-69352395D01*
X131711432Y-69486734D01*
X131759053Y-69554745D01*
X131819075Y-69640465D01*
X131841402Y-69706671D01*
X131841500Y-69711588D01*
X131841500Y-84624218D01*
X131821815Y-84691257D01*
X131805181Y-84711899D01*
X126367899Y-90149181D01*
X126306576Y-90182666D01*
X126280218Y-90185500D01*
X119265717Y-90185500D01*
X119221176Y-90184371D01*
X119176637Y-90183243D01*
X119176636Y-90183243D01*
X119176627Y-90183243D01*
X119116253Y-90194065D01*
X119111587Y-90194719D01*
X119050563Y-90200925D01*
X119050562Y-90200925D01*
X119017786Y-90211208D01*
X119010159Y-90213080D01*
X118976350Y-90219140D01*
X118976347Y-90219141D01*
X118919368Y-90241899D01*
X118914931Y-90243478D01*
X118856417Y-90261838D01*
X118856406Y-90261843D01*
X118826382Y-90278507D01*
X118819290Y-90281875D01*
X118793262Y-90292273D01*
X118787383Y-90294622D01*
X118787382Y-90294622D01*
X118787381Y-90294623D01*
X118787373Y-90294627D01*
X118736155Y-90328383D01*
X118732126Y-90330824D01*
X118678502Y-90360588D01*
X118678499Y-90360590D01*
X118652427Y-90382970D01*
X118646160Y-90387695D01*
X118617482Y-90406598D01*
X118617475Y-90406603D01*
X118574116Y-90449962D01*
X118570661Y-90453164D01*
X118524106Y-90493132D01*
X118524105Y-90493133D01*
X118503076Y-90520300D01*
X118497884Y-90526194D01*
X114465967Y-94558111D01*
X114404644Y-94591596D01*
X114389096Y-94593958D01*
X114327311Y-94599364D01*
X114327302Y-94599366D01*
X114107511Y-94658258D01*
X114107502Y-94658261D01*
X113901267Y-94754431D01*
X113901265Y-94754432D01*
X113714858Y-94884954D01*
X113553954Y-95045858D01*
X113423432Y-95232265D01*
X113423431Y-95232267D01*
X113396382Y-95290275D01*
X113350209Y-95342714D01*
X113283016Y-95361866D01*
X113216135Y-95341650D01*
X113171618Y-95290275D01*
X113162871Y-95271517D01*
X113144568Y-95232266D01*
X113014047Y-95045861D01*
X113014045Y-95045858D01*
X112853141Y-94884954D01*
X112666734Y-94754432D01*
X112666732Y-94754431D01*
X112460497Y-94658261D01*
X112460488Y-94658258D01*
X112240697Y-94599366D01*
X112240693Y-94599365D01*
X112240692Y-94599365D01*
X112240691Y-94599364D01*
X112240686Y-94599364D01*
X112014002Y-94579532D01*
X112013998Y-94579532D01*
X111787313Y-94599364D01*
X111787302Y-94599366D01*
X111567511Y-94658258D01*
X111567502Y-94658261D01*
X111361267Y-94754431D01*
X111361265Y-94754432D01*
X111174858Y-94884954D01*
X111013954Y-95045858D01*
X110996725Y-95070464D01*
X110942147Y-95114088D01*
X110872648Y-95121280D01*
X110810294Y-95089757D01*
X110774882Y-95029526D01*
X110771861Y-95012591D01*
X110768091Y-94977516D01*
X110717797Y-94842671D01*
X110717793Y-94842664D01*
X110631547Y-94727455D01*
X110631544Y-94727452D01*
X110516335Y-94641206D01*
X110516328Y-94641202D01*
X110381482Y-94590908D01*
X110381483Y-94590908D01*
X110321883Y-94584501D01*
X110321881Y-94584500D01*
X110321873Y-94584500D01*
X110321864Y-94584500D01*
X108626129Y-94584500D01*
X108626123Y-94584501D01*
X108566516Y-94590908D01*
X108431671Y-94641202D01*
X108431664Y-94641206D01*
X108316455Y-94727452D01*
X108316452Y-94727455D01*
X108230206Y-94842664D01*
X108230202Y-94842671D01*
X108179908Y-94977517D01*
X108173501Y-95037116D01*
X108173500Y-95037135D01*
X108173500Y-96732870D01*
X105267500Y-96732870D01*
X105267500Y-88265001D01*
X108168532Y-88265001D01*
X108188364Y-88491686D01*
X108188366Y-88491697D01*
X108247258Y-88711488D01*
X108247261Y-88711497D01*
X108343431Y-88917732D01*
X108343432Y-88917734D01*
X108473954Y-89104141D01*
X108634858Y-89265045D01*
X108634861Y-89265047D01*
X108821266Y-89395568D01*
X109027504Y-89491739D01*
X109247308Y-89550635D01*
X109409230Y-89564801D01*
X109473998Y-89570468D01*
X109474000Y-89570468D01*
X109474002Y-89570468D01*
X109530673Y-89565509D01*
X109700692Y-89550635D01*
X109920496Y-89491739D01*
X110126734Y-89395568D01*
X110313139Y-89265047D01*
X110474047Y-89104139D01*
X110604568Y-88917734D01*
X110631618Y-88859724D01*
X110677790Y-88807285D01*
X110744983Y-88788133D01*
X110811865Y-88808348D01*
X110856382Y-88859725D01*
X110883429Y-88917728D01*
X110883432Y-88917734D01*
X111013954Y-89104141D01*
X111174858Y-89265045D01*
X111174861Y-89265047D01*
X111361266Y-89395568D01*
X111567504Y-89491739D01*
X111787308Y-89550635D01*
X111949230Y-89564801D01*
X112013998Y-89570468D01*
X112014000Y-89570468D01*
X112014002Y-89570468D01*
X112070673Y-89565509D01*
X112240692Y-89550635D01*
X112460496Y-89491739D01*
X112666734Y-89395568D01*
X112853139Y-89265047D01*
X113014047Y-89104139D01*
X113144568Y-88917734D01*
X113171618Y-88859724D01*
X113217790Y-88807285D01*
X113284983Y-88788133D01*
X113351865Y-88808348D01*
X113396382Y-88859725D01*
X113423429Y-88917728D01*
X113423432Y-88917734D01*
X113553954Y-89104141D01*
X113714858Y-89265045D01*
X113714861Y-89265047D01*
X113901266Y-89395568D01*
X114107504Y-89491739D01*
X114327308Y-89550635D01*
X114489230Y-89564801D01*
X114553998Y-89570468D01*
X114554000Y-89570468D01*
X114554002Y-89570468D01*
X114610673Y-89565509D01*
X114780692Y-89550635D01*
X115000496Y-89491739D01*
X115206734Y-89395568D01*
X115393139Y-89265047D01*
X115554047Y-89104139D01*
X115684568Y-88917734D01*
X115711618Y-88859724D01*
X115757790Y-88807285D01*
X115824983Y-88788133D01*
X115891865Y-88808348D01*
X115936382Y-88859725D01*
X115963429Y-88917728D01*
X115963432Y-88917734D01*
X116093954Y-89104141D01*
X116254858Y-89265045D01*
X116254861Y-89265047D01*
X116441266Y-89395568D01*
X116647504Y-89491739D01*
X116867308Y-89550635D01*
X117029230Y-89564801D01*
X117093998Y-89570468D01*
X117094000Y-89570468D01*
X117094002Y-89570468D01*
X117150673Y-89565509D01*
X117320692Y-89550635D01*
X117540496Y-89491739D01*
X117746734Y-89395568D01*
X117933139Y-89265047D01*
X118094047Y-89104139D01*
X118224568Y-88917734D01*
X118251618Y-88859724D01*
X118297790Y-88807285D01*
X118364983Y-88788133D01*
X118431865Y-88808348D01*
X118476382Y-88859725D01*
X118503429Y-88917728D01*
X118503432Y-88917734D01*
X118633954Y-89104141D01*
X118794858Y-89265045D01*
X118794861Y-89265047D01*
X118981266Y-89395568D01*
X119187504Y-89491739D01*
X119407308Y-89550635D01*
X119569230Y-89564801D01*
X119633998Y-89570468D01*
X119634000Y-89570468D01*
X119634002Y-89570468D01*
X119690673Y-89565509D01*
X119860692Y-89550635D01*
X120080496Y-89491739D01*
X120286734Y-89395568D01*
X120473139Y-89265047D01*
X120634047Y-89104139D01*
X120764568Y-88917734D01*
X120791618Y-88859724D01*
X120837790Y-88807285D01*
X120904983Y-88788133D01*
X120971865Y-88808348D01*
X121016382Y-88859725D01*
X121043429Y-88917728D01*
X121043432Y-88917734D01*
X121173954Y-89104141D01*
X121334858Y-89265045D01*
X121334861Y-89265047D01*
X121521266Y-89395568D01*
X121727504Y-89491739D01*
X121947308Y-89550635D01*
X122109230Y-89564801D01*
X122173998Y-89570468D01*
X122174000Y-89570468D01*
X122174002Y-89570468D01*
X122230673Y-89565509D01*
X122400692Y-89550635D01*
X122620496Y-89491739D01*
X122826734Y-89395568D01*
X123013139Y-89265047D01*
X123174047Y-89104139D01*
X123304568Y-88917734D01*
X123331618Y-88859724D01*
X123377790Y-88807285D01*
X123444983Y-88788133D01*
X123511865Y-88808348D01*
X123556382Y-88859725D01*
X123583429Y-88917728D01*
X123583432Y-88917734D01*
X123713954Y-89104141D01*
X123874858Y-89265045D01*
X123874861Y-89265047D01*
X124061266Y-89395568D01*
X124267504Y-89491739D01*
X124487308Y-89550635D01*
X124649230Y-89564801D01*
X124713998Y-89570468D01*
X124714000Y-89570468D01*
X124714002Y-89570468D01*
X124770673Y-89565509D01*
X124940692Y-89550635D01*
X125160496Y-89491739D01*
X125366734Y-89395568D01*
X125553139Y-89265047D01*
X125714047Y-89104139D01*
X125844568Y-88917734D01*
X125940739Y-88711496D01*
X125999635Y-88491692D01*
X126019468Y-88265000D01*
X125999635Y-88038308D01*
X125940739Y-87818504D01*
X125844568Y-87612266D01*
X125714047Y-87425861D01*
X125714045Y-87425858D01*
X125553141Y-87264954D01*
X125366734Y-87134432D01*
X125366732Y-87134431D01*
X125160497Y-87038261D01*
X125160488Y-87038258D01*
X124940697Y-86979366D01*
X124940693Y-86979365D01*
X124940692Y-86979365D01*
X124940691Y-86979364D01*
X124940686Y-86979364D01*
X124714002Y-86959532D01*
X124713998Y-86959532D01*
X124487313Y-86979364D01*
X124487302Y-86979366D01*
X124267511Y-87038258D01*
X124267502Y-87038261D01*
X124061267Y-87134431D01*
X124061265Y-87134432D01*
X123874858Y-87264954D01*
X123713954Y-87425858D01*
X123583432Y-87612265D01*
X123583431Y-87612267D01*
X123556382Y-87670275D01*
X123510209Y-87722714D01*
X123443016Y-87741866D01*
X123376135Y-87721650D01*
X123331618Y-87670275D01*
X123304568Y-87612267D01*
X123304567Y-87612265D01*
X123228060Y-87503001D01*
X123174047Y-87425861D01*
X123174045Y-87425858D01*
X123013141Y-87264954D01*
X122826734Y-87134432D01*
X122826732Y-87134431D01*
X122620497Y-87038261D01*
X122620488Y-87038258D01*
X122400697Y-86979366D01*
X122400693Y-86979365D01*
X122400692Y-86979365D01*
X122400691Y-86979364D01*
X122400686Y-86979364D01*
X122174002Y-86959532D01*
X122173998Y-86959532D01*
X121947313Y-86979364D01*
X121947302Y-86979366D01*
X121727511Y-87038258D01*
X121727502Y-87038261D01*
X121521267Y-87134431D01*
X121521265Y-87134432D01*
X121334858Y-87264954D01*
X121173954Y-87425858D01*
X121043432Y-87612265D01*
X121043431Y-87612267D01*
X121016382Y-87670275D01*
X120970209Y-87722714D01*
X120903016Y-87741866D01*
X120836135Y-87721650D01*
X120791618Y-87670275D01*
X120764568Y-87612267D01*
X120764567Y-87612265D01*
X120688060Y-87503001D01*
X120634047Y-87425861D01*
X120634045Y-87425858D01*
X120473141Y-87264954D01*
X120286734Y-87134432D01*
X120286732Y-87134431D01*
X120080497Y-87038261D01*
X120080488Y-87038258D01*
X119860697Y-86979366D01*
X119860693Y-86979365D01*
X119860692Y-86979365D01*
X119860691Y-86979364D01*
X119860686Y-86979364D01*
X119634002Y-86959532D01*
X119633998Y-86959532D01*
X119407313Y-86979364D01*
X119407302Y-86979366D01*
X119187511Y-87038258D01*
X119187502Y-87038261D01*
X118981267Y-87134431D01*
X118981265Y-87134432D01*
X118794858Y-87264954D01*
X118633954Y-87425858D01*
X118503432Y-87612265D01*
X118503431Y-87612267D01*
X118476382Y-87670275D01*
X118430209Y-87722714D01*
X118363016Y-87741866D01*
X118296135Y-87721650D01*
X118251618Y-87670275D01*
X118224568Y-87612267D01*
X118224567Y-87612265D01*
X118148060Y-87503001D01*
X118094047Y-87425861D01*
X118094045Y-87425858D01*
X117933141Y-87264954D01*
X117746734Y-87134432D01*
X117746732Y-87134431D01*
X117540497Y-87038261D01*
X117540488Y-87038258D01*
X117320697Y-86979366D01*
X117320693Y-86979365D01*
X117320692Y-86979365D01*
X117320691Y-86979364D01*
X117320686Y-86979364D01*
X117094002Y-86959532D01*
X117093998Y-86959532D01*
X116867313Y-86979364D01*
X116867302Y-86979366D01*
X116647511Y-87038258D01*
X116647502Y-87038261D01*
X116441267Y-87134431D01*
X116441265Y-87134432D01*
X116254858Y-87264954D01*
X116093954Y-87425858D01*
X115963432Y-87612265D01*
X115963431Y-87612267D01*
X115936382Y-87670275D01*
X115890209Y-87722714D01*
X115823016Y-87741866D01*
X115756135Y-87721650D01*
X115711618Y-87670275D01*
X115684568Y-87612267D01*
X115684567Y-87612265D01*
X115608060Y-87503001D01*
X115554047Y-87425861D01*
X115554045Y-87425858D01*
X115393141Y-87264954D01*
X115206734Y-87134432D01*
X115206732Y-87134431D01*
X115000497Y-87038261D01*
X115000488Y-87038258D01*
X114780697Y-86979366D01*
X114780693Y-86979365D01*
X114780692Y-86979365D01*
X114780691Y-86979364D01*
X114780686Y-86979364D01*
X114554002Y-86959532D01*
X114553998Y-86959532D01*
X114327313Y-86979364D01*
X114327302Y-86979366D01*
X114107511Y-87038258D01*
X114107502Y-87038261D01*
X113901267Y-87134431D01*
X113901265Y-87134432D01*
X113714858Y-87264954D01*
X113553954Y-87425858D01*
X113423432Y-87612265D01*
X113423431Y-87612267D01*
X113396382Y-87670275D01*
X113350209Y-87722714D01*
X113283016Y-87741866D01*
X113216135Y-87721650D01*
X113171618Y-87670275D01*
X113144568Y-87612267D01*
X113144567Y-87612265D01*
X113068060Y-87503001D01*
X113014047Y-87425861D01*
X113014045Y-87425858D01*
X112853141Y-87264954D01*
X112666734Y-87134432D01*
X112666732Y-87134431D01*
X112460497Y-87038261D01*
X112460488Y-87038258D01*
X112240697Y-86979366D01*
X112240693Y-86979365D01*
X112240692Y-86979365D01*
X112240691Y-86979364D01*
X112240686Y-86979364D01*
X112014002Y-86959532D01*
X112013998Y-86959532D01*
X111787313Y-86979364D01*
X111787302Y-86979366D01*
X111567511Y-87038258D01*
X111567502Y-87038261D01*
X111361267Y-87134431D01*
X111361265Y-87134432D01*
X111174858Y-87264954D01*
X111013954Y-87425858D01*
X110883432Y-87612265D01*
X110883431Y-87612267D01*
X110856382Y-87670275D01*
X110810209Y-87722714D01*
X110743016Y-87741866D01*
X110676135Y-87721650D01*
X110631618Y-87670275D01*
X110604568Y-87612267D01*
X110604567Y-87612265D01*
X110528060Y-87503001D01*
X110474047Y-87425861D01*
X110474045Y-87425858D01*
X110313141Y-87264954D01*
X110126734Y-87134432D01*
X110126732Y-87134431D01*
X109920497Y-87038261D01*
X109920488Y-87038258D01*
X109700697Y-86979366D01*
X109700693Y-86979365D01*
X109700692Y-86979365D01*
X109700691Y-86979364D01*
X109700686Y-86979364D01*
X109474002Y-86959532D01*
X109473998Y-86959532D01*
X109247313Y-86979364D01*
X109247302Y-86979366D01*
X109027511Y-87038258D01*
X109027502Y-87038261D01*
X108821267Y-87134431D01*
X108821265Y-87134432D01*
X108634858Y-87264954D01*
X108473954Y-87425858D01*
X108343432Y-87612265D01*
X108343431Y-87612267D01*
X108247261Y-87818502D01*
X108247258Y-87818511D01*
X108188366Y-88038302D01*
X108188364Y-88038313D01*
X108168532Y-88264998D01*
X108168532Y-88265001D01*
X105267500Y-88265001D01*
X105267500Y-87872588D01*
X105287185Y-87805549D01*
X105289925Y-87801465D01*
X105299324Y-87788042D01*
X105397568Y-87647734D01*
X105493739Y-87441496D01*
X105552635Y-87221692D01*
X105572468Y-86995000D01*
X105552635Y-86768308D01*
X105493739Y-86548504D01*
X105397568Y-86342266D01*
X105267047Y-86155861D01*
X105267045Y-86155858D01*
X105106141Y-85994954D01*
X104919734Y-85864432D01*
X104919732Y-85864431D01*
X104713497Y-85768261D01*
X104713488Y-85768258D01*
X104493697Y-85709366D01*
X104493693Y-85709365D01*
X104493692Y-85709365D01*
X104493691Y-85709364D01*
X104493686Y-85709364D01*
X104267002Y-85689532D01*
X104266998Y-85689532D01*
X104040313Y-85709364D01*
X104040302Y-85709366D01*
X103820511Y-85768258D01*
X103820502Y-85768261D01*
X103614267Y-85864431D01*
X103614265Y-85864432D01*
X103427858Y-85994954D01*
X103266954Y-86155858D01*
X103136432Y-86342265D01*
X103136431Y-86342267D01*
X103040261Y-86548502D01*
X103040258Y-86548511D01*
X102981366Y-86768302D01*
X102981364Y-86768313D01*
X102961532Y-86994998D01*
X102961532Y-86995001D01*
X102981364Y-87221686D01*
X102981366Y-87221697D01*
X103040258Y-87441488D01*
X103040261Y-87441496D01*
X103136432Y-87647734D01*
X103202343Y-87741866D01*
X103244075Y-87801465D01*
X103266402Y-87867671D01*
X103266500Y-87872588D01*
X103266500Y-103770410D01*
X103246815Y-103837449D01*
X103244076Y-103841532D01*
X103136431Y-103995267D01*
X103040261Y-104201502D01*
X103040258Y-104201511D01*
X102981366Y-104421302D01*
X102981364Y-104421313D01*
X102961532Y-104647998D01*
X102961532Y-104648001D01*
X92710500Y-104648001D01*
X92710500Y-97165000D01*
X97836341Y-97165000D01*
X97856936Y-97400403D01*
X97856938Y-97400413D01*
X97918094Y-97628655D01*
X97918096Y-97628659D01*
X97918097Y-97628663D01*
X97993794Y-97790995D01*
X98017965Y-97842830D01*
X98017967Y-97842834D01*
X98089024Y-97944313D01*
X98153505Y-98036401D01*
X98320599Y-98203495D01*
X98417384Y-98271265D01*
X98514165Y-98339032D01*
X98514167Y-98339033D01*
X98514170Y-98339035D01*
X98728337Y-98438903D01*
X98728343Y-98438904D01*
X98728344Y-98438905D01*
X98783285Y-98453626D01*
X98956592Y-98500063D01*
X99144918Y-98516539D01*
X99191999Y-98520659D01*
X99192000Y-98520659D01*
X99192001Y-98520659D01*
X99231234Y-98517226D01*
X99427408Y-98500063D01*
X99655663Y-98438903D01*
X99869830Y-98339035D01*
X100063401Y-98203495D01*
X100230495Y-98036401D01*
X100366035Y-97842830D01*
X100465903Y-97628663D01*
X100527063Y-97400408D01*
X100547659Y-97165000D01*
X100546046Y-97146569D01*
X100542490Y-97105920D01*
X100527063Y-96929592D01*
X100465903Y-96701337D01*
X100366035Y-96487171D01*
X100365636Y-96486600D01*
X100230494Y-96293597D01*
X100063402Y-96126506D01*
X100063396Y-96126501D01*
X99877842Y-95996575D01*
X99834217Y-95941998D01*
X99827023Y-95872500D01*
X99858546Y-95810145D01*
X99877842Y-95793425D01*
X99979013Y-95722584D01*
X100063401Y-95663495D01*
X100230495Y-95496401D01*
X100366035Y-95302830D01*
X100465903Y-95088663D01*
X100527063Y-94860408D01*
X100547659Y-94625000D01*
X100527063Y-94389592D01*
X100465903Y-94161337D01*
X100366035Y-93947171D01*
X100330386Y-93896258D01*
X100230494Y-93753597D01*
X100063402Y-93586506D01*
X100063396Y-93586501D01*
X99877842Y-93456575D01*
X99834217Y-93401998D01*
X99827023Y-93332500D01*
X99858546Y-93270145D01*
X99877842Y-93253425D01*
X99900026Y-93237891D01*
X100063401Y-93123495D01*
X100230495Y-92956401D01*
X100366035Y-92762830D01*
X100465903Y-92548663D01*
X100527063Y-92320408D01*
X100547659Y-92085000D01*
X100527063Y-91849592D01*
X100465903Y-91621337D01*
X100366035Y-91407171D01*
X100258356Y-91253388D01*
X100230494Y-91213597D01*
X100063402Y-91046506D01*
X100063401Y-91046505D01*
X99877405Y-90916269D01*
X99833781Y-90861692D01*
X99826588Y-90792193D01*
X99858110Y-90729839D01*
X99877405Y-90713119D01*
X100063082Y-90583105D01*
X100230105Y-90416082D01*
X100365600Y-90222578D01*
X100465429Y-90008492D01*
X100465432Y-90008486D01*
X100522636Y-89795000D01*
X99625686Y-89795000D01*
X99651493Y-89754844D01*
X99692000Y-89616889D01*
X99692000Y-89473111D01*
X99651493Y-89335156D01*
X99625686Y-89295000D01*
X100522636Y-89295000D01*
X100522635Y-89294999D01*
X100465432Y-89081513D01*
X100465429Y-89081507D01*
X100365600Y-88867422D01*
X100365599Y-88867420D01*
X100230113Y-88673926D01*
X100230108Y-88673920D01*
X100108053Y-88551865D01*
X100074568Y-88490542D01*
X100079552Y-88420850D01*
X100121424Y-88364917D01*
X100152400Y-88348002D01*
X100284331Y-88298796D01*
X100399546Y-88212546D01*
X100485796Y-88097331D01*
X100536091Y-87962483D01*
X100542500Y-87902873D01*
X100542499Y-86107128D01*
X100536091Y-86047517D01*
X100532766Y-86038603D01*
X100485797Y-85912671D01*
X100485793Y-85912664D01*
X100399547Y-85797455D01*
X100399544Y-85797452D01*
X100284335Y-85711206D01*
X100284328Y-85711202D01*
X100149482Y-85660908D01*
X100149483Y-85660908D01*
X100089883Y-85654501D01*
X100089881Y-85654500D01*
X100089873Y-85654500D01*
X100089864Y-85654500D01*
X98294129Y-85654500D01*
X98294123Y-85654501D01*
X98234516Y-85660908D01*
X98099671Y-85711202D01*
X98099664Y-85711206D01*
X97984455Y-85797452D01*
X97984452Y-85797455D01*
X97898206Y-85912664D01*
X97898202Y-85912671D01*
X97847908Y-86047517D01*
X97844360Y-86080523D01*
X97841501Y-86107123D01*
X97841500Y-86107135D01*
X97841500Y-87902870D01*
X97841501Y-87902876D01*
X97847908Y-87962483D01*
X97898202Y-88097328D01*
X97898206Y-88097335D01*
X97984452Y-88212544D01*
X97984455Y-88212547D01*
X98099664Y-88298793D01*
X98099671Y-88298797D01*
X98099674Y-88298798D01*
X98231598Y-88348002D01*
X98287531Y-88389873D01*
X98311949Y-88455337D01*
X98297098Y-88523610D01*
X98275947Y-88551865D01*
X98153886Y-88673926D01*
X98018400Y-88867420D01*
X98018399Y-88867422D01*
X97918570Y-89081507D01*
X97918567Y-89081513D01*
X97861364Y-89294999D01*
X97861364Y-89295000D01*
X98758314Y-89295000D01*
X98732507Y-89335156D01*
X98692000Y-89473111D01*
X98692000Y-89616889D01*
X98732507Y-89754844D01*
X98758314Y-89795000D01*
X97861364Y-89795000D01*
X97918567Y-90008486D01*
X97918570Y-90008492D01*
X98018399Y-90222578D01*
X98153894Y-90416082D01*
X98320917Y-90583105D01*
X98506595Y-90713119D01*
X98550219Y-90767696D01*
X98557412Y-90837195D01*
X98525890Y-90899549D01*
X98506595Y-90916269D01*
X98320594Y-91046508D01*
X98153505Y-91213597D01*
X98017965Y-91407169D01*
X98017964Y-91407171D01*
X97918098Y-91621335D01*
X97918094Y-91621344D01*
X97856938Y-91849586D01*
X97856936Y-91849596D01*
X97836341Y-92084999D01*
X97836341Y-92085000D01*
X97856936Y-92320403D01*
X97856938Y-92320413D01*
X97918094Y-92548655D01*
X97918096Y-92548659D01*
X97918097Y-92548663D01*
X98017965Y-92762830D01*
X98017967Y-92762834D01*
X98153501Y-92956395D01*
X98153506Y-92956402D01*
X98320597Y-93123493D01*
X98320603Y-93123498D01*
X98506158Y-93253425D01*
X98549783Y-93308002D01*
X98556977Y-93377500D01*
X98525454Y-93439855D01*
X98506158Y-93456575D01*
X98320597Y-93586505D01*
X98153505Y-93753597D01*
X98017965Y-93947169D01*
X98017964Y-93947171D01*
X97918098Y-94161335D01*
X97918094Y-94161344D01*
X97856938Y-94389586D01*
X97856936Y-94389596D01*
X97836341Y-94624999D01*
X97836341Y-94625000D01*
X97856936Y-94860403D01*
X97856938Y-94860413D01*
X97918094Y-95088655D01*
X97918096Y-95088659D01*
X97918097Y-95088663D01*
X98012386Y-95290865D01*
X98017965Y-95302830D01*
X98017967Y-95302834D01*
X98153501Y-95496395D01*
X98153506Y-95496402D01*
X98320597Y-95663493D01*
X98320603Y-95663498D01*
X98506158Y-95793425D01*
X98549783Y-95848002D01*
X98556977Y-95917500D01*
X98525454Y-95979855D01*
X98506158Y-95996575D01*
X98320597Y-96126505D01*
X98153505Y-96293597D01*
X98017965Y-96487169D01*
X98017964Y-96487171D01*
X97918098Y-96701335D01*
X97918094Y-96701344D01*
X97856938Y-96929586D01*
X97856936Y-96929596D01*
X97836341Y-97164999D01*
X97836341Y-97165000D01*
X92710500Y-97165000D01*
X92710500Y-84211002D01*
X115834034Y-84211002D01*
X115853858Y-84437599D01*
X115853860Y-84437610D01*
X115912730Y-84657317D01*
X115912734Y-84657326D01*
X116008865Y-84863481D01*
X116008866Y-84863483D01*
X116059973Y-84936471D01*
X116059974Y-84936472D01*
X116741046Y-84255399D01*
X116753835Y-84336148D01*
X116811359Y-84449045D01*
X116900955Y-84538641D01*
X117013852Y-84596165D01*
X117094599Y-84608953D01*
X116413526Y-85290025D01*
X116413526Y-85290026D01*
X116486512Y-85341131D01*
X116486516Y-85341133D01*
X116692673Y-85437265D01*
X116692682Y-85437269D01*
X116912389Y-85496139D01*
X116912400Y-85496141D01*
X117138998Y-85515966D01*
X117139002Y-85515966D01*
X117365599Y-85496141D01*
X117365610Y-85496139D01*
X117585317Y-85437269D01*
X117585331Y-85437264D01*
X117791478Y-85341136D01*
X117864472Y-85290025D01*
X117183401Y-84608953D01*
X117264148Y-84596165D01*
X117377045Y-84538641D01*
X117466641Y-84449045D01*
X117524165Y-84336148D01*
X117536953Y-84255400D01*
X118218025Y-84936472D01*
X118269136Y-84863478D01*
X118365264Y-84657331D01*
X118365269Y-84657317D01*
X118424139Y-84437610D01*
X118424141Y-84437599D01*
X118443966Y-84211002D01*
X118443966Y-84211001D01*
X120833532Y-84211001D01*
X120853364Y-84437686D01*
X120853366Y-84437697D01*
X120912258Y-84657488D01*
X120912261Y-84657497D01*
X121008431Y-84863732D01*
X121008432Y-84863734D01*
X121138954Y-85050141D01*
X121299858Y-85211045D01*
X121299861Y-85211047D01*
X121486266Y-85341568D01*
X121692504Y-85437739D01*
X121912308Y-85496635D01*
X122074230Y-85510801D01*
X122138998Y-85516468D01*
X122139000Y-85516468D01*
X122139002Y-85516468D01*
X122195673Y-85511509D01*
X122365692Y-85496635D01*
X122585496Y-85437739D01*
X122791734Y-85341568D01*
X122978139Y-85211047D01*
X123139047Y-85050139D01*
X123269568Y-84863734D01*
X123336618Y-84719944D01*
X123382790Y-84667506D01*
X123449984Y-84648354D01*
X123516865Y-84668570D01*
X123561382Y-84719945D01*
X123628431Y-84863732D01*
X123628432Y-84863734D01*
X123758954Y-85050141D01*
X123919858Y-85211045D01*
X123919861Y-85211047D01*
X124106266Y-85341568D01*
X124312504Y-85437739D01*
X124532308Y-85496635D01*
X124694230Y-85510801D01*
X124758998Y-85516468D01*
X124759000Y-85516468D01*
X124759002Y-85516468D01*
X124815673Y-85511509D01*
X124985692Y-85496635D01*
X125205496Y-85437739D01*
X125411734Y-85341568D01*
X125598139Y-85211047D01*
X125759047Y-85050139D01*
X125889568Y-84863734D01*
X125985739Y-84657496D01*
X126044635Y-84437692D01*
X126064468Y-84211002D01*
X128454034Y-84211002D01*
X128473858Y-84437599D01*
X128473860Y-84437610D01*
X128532730Y-84657317D01*
X128532734Y-84657326D01*
X128628865Y-84863481D01*
X128628866Y-84863483D01*
X128679973Y-84936471D01*
X128679974Y-84936472D01*
X129361046Y-84255399D01*
X129373835Y-84336148D01*
X129431359Y-84449045D01*
X129520955Y-84538641D01*
X129633852Y-84596165D01*
X129714599Y-84608953D01*
X129033526Y-85290025D01*
X129033526Y-85290026D01*
X129106512Y-85341131D01*
X129106516Y-85341133D01*
X129312673Y-85437265D01*
X129312682Y-85437269D01*
X129532389Y-85496139D01*
X129532400Y-85496141D01*
X129758998Y-85515966D01*
X129759002Y-85515966D01*
X129985599Y-85496141D01*
X129985610Y-85496139D01*
X130205317Y-85437269D01*
X130205331Y-85437264D01*
X130411478Y-85341136D01*
X130484472Y-85290025D01*
X129803401Y-84608953D01*
X129884148Y-84596165D01*
X129997045Y-84538641D01*
X130086641Y-84449045D01*
X130144165Y-84336148D01*
X130156953Y-84255400D01*
X130838025Y-84936472D01*
X130889136Y-84863478D01*
X130985264Y-84657331D01*
X130985269Y-84657317D01*
X131044139Y-84437610D01*
X131044141Y-84437599D01*
X131063966Y-84211002D01*
X131063966Y-84210997D01*
X131044141Y-83984400D01*
X131044139Y-83984389D01*
X130985269Y-83764682D01*
X130985265Y-83764673D01*
X130889133Y-83558516D01*
X130889131Y-83558512D01*
X130838026Y-83485526D01*
X130838025Y-83485526D01*
X130156953Y-84166598D01*
X130144165Y-84085852D01*
X130086641Y-83972955D01*
X129997045Y-83883359D01*
X129884148Y-83825835D01*
X129803400Y-83813046D01*
X130484472Y-83131974D01*
X130484471Y-83131973D01*
X130411483Y-83080866D01*
X130411481Y-83080865D01*
X130205326Y-82984734D01*
X130205317Y-82984730D01*
X129985610Y-82925860D01*
X129985599Y-82925858D01*
X129759002Y-82906034D01*
X129758998Y-82906034D01*
X129532400Y-82925858D01*
X129532389Y-82925860D01*
X129312682Y-82984730D01*
X129312673Y-82984734D01*
X129106513Y-83080868D01*
X129033527Y-83131972D01*
X129033526Y-83131973D01*
X129714600Y-83813046D01*
X129633852Y-83825835D01*
X129520955Y-83883359D01*
X129431359Y-83972955D01*
X129373835Y-84085852D01*
X129361046Y-84166599D01*
X128679973Y-83485526D01*
X128679972Y-83485527D01*
X128628868Y-83558513D01*
X128532734Y-83764673D01*
X128532730Y-83764682D01*
X128473860Y-83984389D01*
X128473858Y-83984400D01*
X128454034Y-84210997D01*
X128454034Y-84211002D01*
X126064468Y-84211002D01*
X126064468Y-84211000D01*
X126044635Y-83984308D01*
X125985739Y-83764504D01*
X125889568Y-83558266D01*
X125759047Y-83371861D01*
X125759045Y-83371858D01*
X125598141Y-83210954D01*
X125411734Y-83080432D01*
X125411732Y-83080431D01*
X125205497Y-82984261D01*
X125205488Y-82984258D01*
X124985697Y-82925366D01*
X124985693Y-82925365D01*
X124985692Y-82925365D01*
X124985691Y-82925364D01*
X124985686Y-82925364D01*
X124759002Y-82905532D01*
X124758998Y-82905532D01*
X124532313Y-82925364D01*
X124532302Y-82925366D01*
X124312511Y-82984258D01*
X124312502Y-82984261D01*
X124106267Y-83080431D01*
X124106265Y-83080432D01*
X123919858Y-83210954D01*
X123758954Y-83371858D01*
X123628432Y-83558265D01*
X123628431Y-83558267D01*
X123561382Y-83702054D01*
X123515209Y-83754493D01*
X123448016Y-83773645D01*
X123381135Y-83753429D01*
X123336618Y-83702054D01*
X123324065Y-83675134D01*
X123269568Y-83558266D01*
X123139047Y-83371861D01*
X123139045Y-83371858D01*
X122978141Y-83210954D01*
X122791734Y-83080432D01*
X122791732Y-83080431D01*
X122585497Y-82984261D01*
X122585488Y-82984258D01*
X122365697Y-82925366D01*
X122365693Y-82925365D01*
X122365692Y-82925365D01*
X122365691Y-82925364D01*
X122365686Y-82925364D01*
X122139002Y-82905532D01*
X122138998Y-82905532D01*
X121912313Y-82925364D01*
X121912302Y-82925366D01*
X121692511Y-82984258D01*
X121692502Y-82984261D01*
X121486267Y-83080431D01*
X121486265Y-83080432D01*
X121299858Y-83210954D01*
X121138954Y-83371858D01*
X121008432Y-83558265D01*
X121008431Y-83558267D01*
X120912261Y-83764502D01*
X120912258Y-83764511D01*
X120853366Y-83984302D01*
X120853364Y-83984313D01*
X120833532Y-84210998D01*
X120833532Y-84211001D01*
X118443966Y-84211001D01*
X118443966Y-84210997D01*
X118424141Y-83984400D01*
X118424139Y-83984389D01*
X118365269Y-83764682D01*
X118365265Y-83764673D01*
X118269133Y-83558516D01*
X118269131Y-83558512D01*
X118218026Y-83485526D01*
X118218025Y-83485526D01*
X117536953Y-84166598D01*
X117524165Y-84085852D01*
X117466641Y-83972955D01*
X117377045Y-83883359D01*
X117264148Y-83825835D01*
X117183400Y-83813046D01*
X117864472Y-83131974D01*
X117864471Y-83131973D01*
X117791483Y-83080866D01*
X117791481Y-83080865D01*
X117585326Y-82984734D01*
X117585317Y-82984730D01*
X117365610Y-82925860D01*
X117365599Y-82925858D01*
X117139002Y-82906034D01*
X117138998Y-82906034D01*
X116912400Y-82925858D01*
X116912389Y-82925860D01*
X116692682Y-82984730D01*
X116692673Y-82984734D01*
X116486513Y-83080868D01*
X116413527Y-83131972D01*
X116413526Y-83131973D01*
X117094600Y-83813046D01*
X117013852Y-83825835D01*
X116900955Y-83883359D01*
X116811359Y-83972955D01*
X116753835Y-84085852D01*
X116741046Y-84166599D01*
X116059973Y-83485526D01*
X116059972Y-83485527D01*
X116008868Y-83558513D01*
X115912734Y-83764673D01*
X115912730Y-83764682D01*
X115853860Y-83984389D01*
X115853858Y-83984400D01*
X115834034Y-84210997D01*
X115834034Y-84211002D01*
X92710500Y-84211002D01*
X92710500Y-79512005D01*
X119503357Y-79512005D01*
X119523890Y-79759812D01*
X119523892Y-79759824D01*
X119584936Y-80000881D01*
X119684826Y-80228606D01*
X119820833Y-80436782D01*
X119820836Y-80436785D01*
X119989256Y-80619738D01*
X120185491Y-80772474D01*
X120404190Y-80890828D01*
X120639386Y-80971571D01*
X120884665Y-81012500D01*
X121133335Y-81012500D01*
X121378614Y-80971571D01*
X121613810Y-80890828D01*
X121832509Y-80772474D01*
X122028744Y-80619738D01*
X122197164Y-80436785D01*
X122333173Y-80228607D01*
X122433063Y-80000881D01*
X122494108Y-79759821D01*
X122514643Y-79512005D01*
X124383357Y-79512005D01*
X124403890Y-79759812D01*
X124403892Y-79759824D01*
X124464936Y-80000881D01*
X124564826Y-80228606D01*
X124700833Y-80436782D01*
X124700836Y-80436785D01*
X124869256Y-80619738D01*
X125065491Y-80772474D01*
X125284190Y-80890828D01*
X125519386Y-80971571D01*
X125764665Y-81012500D01*
X126013335Y-81012500D01*
X126258614Y-80971571D01*
X126493810Y-80890828D01*
X126712509Y-80772474D01*
X126908744Y-80619738D01*
X127077164Y-80436785D01*
X127213173Y-80228607D01*
X127313063Y-80000881D01*
X127374108Y-79759821D01*
X127394643Y-79512000D01*
X127385246Y-79398596D01*
X127374109Y-79264187D01*
X127374107Y-79264175D01*
X127313063Y-79023118D01*
X127213173Y-78795393D01*
X127077166Y-78587217D01*
X127055557Y-78563744D01*
X126908744Y-78404262D01*
X126712509Y-78251526D01*
X126712507Y-78251525D01*
X126712506Y-78251524D01*
X126493811Y-78133172D01*
X126493802Y-78133169D01*
X126258616Y-78052429D01*
X126013335Y-78011500D01*
X125764665Y-78011500D01*
X125519383Y-78052429D01*
X125284197Y-78133169D01*
X125284188Y-78133172D01*
X125065493Y-78251524D01*
X124869257Y-78404261D01*
X124700833Y-78587217D01*
X124564826Y-78795393D01*
X124464936Y-79023118D01*
X124403892Y-79264175D01*
X124403890Y-79264187D01*
X124383357Y-79511994D01*
X124383357Y-79512005D01*
X122514643Y-79512005D01*
X122514643Y-79512000D01*
X122505246Y-79398596D01*
X122494109Y-79264187D01*
X122494107Y-79264175D01*
X122433063Y-79023118D01*
X122333173Y-78795393D01*
X122197166Y-78587217D01*
X122175557Y-78563744D01*
X122028744Y-78404262D01*
X121832509Y-78251526D01*
X121832507Y-78251525D01*
X121832506Y-78251524D01*
X121613811Y-78133172D01*
X121613802Y-78133169D01*
X121378616Y-78052429D01*
X121133335Y-78011500D01*
X120884665Y-78011500D01*
X120639383Y-78052429D01*
X120404197Y-78133169D01*
X120404188Y-78133172D01*
X120185493Y-78251524D01*
X119989257Y-78404261D01*
X119820833Y-78587217D01*
X119684826Y-78795393D01*
X119584936Y-79023118D01*
X119523892Y-79264175D01*
X119523890Y-79264187D01*
X119503357Y-79511994D01*
X119503357Y-79512005D01*
X92710500Y-79512005D01*
X92710500Y-63945594D01*
X119205686Y-63945594D01*
X119236114Y-64222125D01*
X119306478Y-64491272D01*
X119399072Y-64709166D01*
X119415284Y-64747314D01*
X119545113Y-64960047D01*
X119560205Y-64984776D01*
X119560212Y-64984786D01*
X119738161Y-65198616D01*
X119738167Y-65198621D01*
X119856277Y-65304447D01*
X119945357Y-65384263D01*
X120177373Y-65537763D01*
X120429267Y-65655846D01*
X120429274Y-65655848D01*
X120429276Y-65655849D01*
X120695657Y-65735992D01*
X120695664Y-65735993D01*
X120695669Y-65735995D01*
X120970901Y-65776500D01*
X120970906Y-65776500D01*
X121179469Y-65776500D01*
X121239862Y-65772079D01*
X121387455Y-65761277D01*
X121658997Y-65700788D01*
X121918838Y-65601408D01*
X122161440Y-65465253D01*
X122381632Y-65295226D01*
X122574722Y-65094951D01*
X122736593Y-64868696D01*
X122821928Y-64702719D01*
X122863790Y-64621298D01*
X122863794Y-64621288D01*
X122863797Y-64621283D01*
X122953621Y-64357986D01*
X123004152Y-64084416D01*
X123011769Y-63876001D01*
X124504390Y-63876001D01*
X124524804Y-64161433D01*
X124585628Y-64441037D01*
X124585630Y-64441043D01*
X124585631Y-64441046D01*
X124652856Y-64621283D01*
X124685635Y-64709166D01*
X124822770Y-64960309D01*
X124822775Y-64960317D01*
X124994254Y-65189387D01*
X124994270Y-65189405D01*
X125196594Y-65391729D01*
X125196612Y-65391745D01*
X125425682Y-65563224D01*
X125425690Y-65563229D01*
X125676833Y-65700364D01*
X125676832Y-65700364D01*
X125676836Y-65700365D01*
X125676839Y-65700367D01*
X125944954Y-65800369D01*
X125944960Y-65800370D01*
X125944962Y-65800371D01*
X126224566Y-65861195D01*
X126224568Y-65861195D01*
X126224572Y-65861196D01*
X126478220Y-65879337D01*
X126509999Y-65881610D01*
X126510000Y-65881610D01*
X126510001Y-65881610D01*
X126538595Y-65879564D01*
X126795428Y-65861196D01*
X126940315Y-65829678D01*
X127075037Y-65800371D01*
X127075037Y-65800370D01*
X127075046Y-65800369D01*
X127343161Y-65700367D01*
X127594315Y-65563226D01*
X127823395Y-65391739D01*
X128025739Y-65189395D01*
X128197226Y-64960315D01*
X128334367Y-64709161D01*
X128434369Y-64441046D01*
X128481992Y-64222125D01*
X128495195Y-64161433D01*
X128495195Y-64161431D01*
X128495196Y-64161428D01*
X128515610Y-63876000D01*
X128495196Y-63590572D01*
X128490333Y-63568218D01*
X128434371Y-63310962D01*
X128434370Y-63310960D01*
X128434369Y-63310954D01*
X128334367Y-63042839D01*
X128322067Y-63020314D01*
X128197229Y-62791690D01*
X128197224Y-62791682D01*
X128025745Y-62562612D01*
X128025729Y-62562594D01*
X127823405Y-62360270D01*
X127823387Y-62360254D01*
X127594317Y-62188775D01*
X127594309Y-62188770D01*
X127343166Y-62051635D01*
X127343167Y-62051635D01*
X127139041Y-61975500D01*
X127075046Y-61951631D01*
X127075043Y-61951630D01*
X127075037Y-61951628D01*
X126795433Y-61890804D01*
X126510001Y-61870390D01*
X126509999Y-61870390D01*
X126224566Y-61890804D01*
X125944962Y-61951628D01*
X125676833Y-62051635D01*
X125425690Y-62188770D01*
X125425682Y-62188775D01*
X125196612Y-62360254D01*
X125196594Y-62360270D01*
X124994270Y-62562594D01*
X124994254Y-62562612D01*
X124822775Y-62791682D01*
X124822770Y-62791690D01*
X124685635Y-63042833D01*
X124585628Y-63310962D01*
X124524804Y-63590566D01*
X124504390Y-63875998D01*
X124504390Y-63876001D01*
X123011769Y-63876001D01*
X123014313Y-63806404D01*
X122983886Y-63529876D01*
X122913520Y-63260724D01*
X122804716Y-63004686D01*
X122659792Y-62767219D01*
X122657343Y-62764276D01*
X122481838Y-62553383D01*
X122481832Y-62553378D01*
X122274643Y-62367737D01*
X122042629Y-62214238D01*
X122042627Y-62214237D01*
X121790733Y-62096154D01*
X121790728Y-62096152D01*
X121790723Y-62096150D01*
X121524342Y-62016007D01*
X121524328Y-62016004D01*
X121405565Y-61998526D01*
X121249099Y-61975500D01*
X121040537Y-61975500D01*
X121040531Y-61975500D01*
X120832545Y-61990723D01*
X120832535Y-61990724D01*
X120561007Y-62051210D01*
X120560997Y-62051213D01*
X120301161Y-62150592D01*
X120058561Y-62286746D01*
X120058556Y-62286749D01*
X119838369Y-62456772D01*
X119838359Y-62456781D01*
X119645281Y-62657045D01*
X119645274Y-62657053D01*
X119483412Y-62883295D01*
X119483405Y-62883307D01*
X119356209Y-63130701D01*
X119356205Y-63130711D01*
X119266379Y-63394012D01*
X119266378Y-63394018D01*
X119215848Y-63667584D01*
X119215847Y-63667591D01*
X119205686Y-63945594D01*
X92710500Y-63945594D01*
X92710500Y-48768002D01*
X94484652Y-48768002D01*
X94504028Y-49125368D01*
X94504029Y-49125385D01*
X94561926Y-49478539D01*
X94561932Y-49478565D01*
X94657672Y-49823392D01*
X94657674Y-49823399D01*
X94790142Y-50155870D01*
X94790151Y-50155888D01*
X94957784Y-50472077D01*
X94957790Y-50472086D01*
X95158634Y-50768309D01*
X95158641Y-50768319D01*
X95390331Y-51041085D01*
X95390332Y-51041086D01*
X95650163Y-51287211D01*
X95935081Y-51503800D01*
X96241747Y-51688315D01*
X96241749Y-51688316D01*
X96241751Y-51688317D01*
X96241755Y-51688319D01*
X96566552Y-51838585D01*
X96566565Y-51838591D01*
X96905726Y-51952868D01*
X97255254Y-52029805D01*
X97611052Y-52068500D01*
X97611058Y-52068500D01*
X97968942Y-52068500D01*
X97968948Y-52068500D01*
X98324746Y-52029805D01*
X98674274Y-51952868D01*
X99013435Y-51838591D01*
X99338253Y-51688315D01*
X99644919Y-51503800D01*
X99929837Y-51287211D01*
X100189668Y-51041086D01*
X100421365Y-50768311D01*
X100622211Y-50472085D01*
X100789853Y-50155880D01*
X100922324Y-49823403D01*
X101018071Y-49478552D01*
X101075972Y-49125371D01*
X101095348Y-48768002D01*
X213864652Y-48768002D01*
X213884028Y-49125368D01*
X213884029Y-49125385D01*
X213941926Y-49478539D01*
X213941932Y-49478565D01*
X214037672Y-49823392D01*
X214037674Y-49823399D01*
X214170142Y-50155870D01*
X214170151Y-50155888D01*
X214337784Y-50472077D01*
X214337790Y-50472086D01*
X214538634Y-50768309D01*
X214538641Y-50768319D01*
X214770331Y-51041085D01*
X214770332Y-51041086D01*
X215030163Y-51287211D01*
X215315081Y-51503800D01*
X215621747Y-51688315D01*
X215621749Y-51688316D01*
X215621751Y-51688317D01*
X215621755Y-51688319D01*
X215946552Y-51838585D01*
X215946565Y-51838591D01*
X216285726Y-51952868D01*
X216635254Y-52029805D01*
X216991052Y-52068500D01*
X216991058Y-52068500D01*
X217348942Y-52068500D01*
X217348948Y-52068500D01*
X217704746Y-52029805D01*
X218054274Y-51952868D01*
X218393435Y-51838591D01*
X218718253Y-51688315D01*
X219024919Y-51503800D01*
X219309837Y-51287211D01*
X219569668Y-51041086D01*
X219801365Y-50768311D01*
X220002211Y-50472085D01*
X220169853Y-50155880D01*
X220302324Y-49823403D01*
X220398071Y-49478552D01*
X220455972Y-49125371D01*
X220475348Y-48768000D01*
X220455972Y-48410629D01*
X220398071Y-48057448D01*
X220302324Y-47712597D01*
X220169853Y-47380120D01*
X220002211Y-47063915D01*
X219801365Y-46767689D01*
X219801361Y-46767684D01*
X219801358Y-46767680D01*
X219569668Y-46494914D01*
X219309837Y-46248789D01*
X219309830Y-46248783D01*
X219309827Y-46248781D01*
X219242245Y-46197407D01*
X219024919Y-46032200D01*
X218718253Y-45847685D01*
X218718252Y-45847684D01*
X218718248Y-45847682D01*
X218718244Y-45847680D01*
X218393447Y-45697414D01*
X218393441Y-45697411D01*
X218393435Y-45697409D01*
X218161596Y-45619293D01*
X218054273Y-45583131D01*
X217704744Y-45506194D01*
X217348949Y-45467500D01*
X217348948Y-45467500D01*
X216991052Y-45467500D01*
X216991050Y-45467500D01*
X216635255Y-45506194D01*
X216285726Y-45583131D01*
X216048960Y-45662908D01*
X215946565Y-45697409D01*
X215946563Y-45697410D01*
X215946552Y-45697414D01*
X215621755Y-45847680D01*
X215621751Y-45847682D01*
X215440749Y-45956588D01*
X215315081Y-46032200D01*
X215247744Y-46083388D01*
X215030172Y-46248781D01*
X215030163Y-46248789D01*
X214770331Y-46494914D01*
X214538641Y-46767680D01*
X214538634Y-46767690D01*
X214337790Y-47063913D01*
X214337784Y-47063922D01*
X214170151Y-47380111D01*
X214170142Y-47380129D01*
X214037674Y-47712600D01*
X214037672Y-47712607D01*
X213941932Y-48057434D01*
X213941926Y-48057460D01*
X213884029Y-48410614D01*
X213884028Y-48410631D01*
X213864652Y-48767997D01*
X213864652Y-48768002D01*
X101095348Y-48768002D01*
X101095348Y-48768000D01*
X101075972Y-48410629D01*
X101018071Y-48057448D01*
X100922324Y-47712597D01*
X100789853Y-47380120D01*
X100622211Y-47063915D01*
X100421365Y-46767689D01*
X100421361Y-46767684D01*
X100421358Y-46767680D01*
X100189668Y-46494914D01*
X99929837Y-46248789D01*
X99929830Y-46248783D01*
X99929827Y-46248781D01*
X99862245Y-46197407D01*
X99644919Y-46032200D01*
X99338253Y-45847685D01*
X99338252Y-45847684D01*
X99338248Y-45847682D01*
X99338244Y-45847680D01*
X99013447Y-45697414D01*
X99013441Y-45697411D01*
X99013435Y-45697409D01*
X98781596Y-45619293D01*
X98674273Y-45583131D01*
X98324744Y-45506194D01*
X97968949Y-45467500D01*
X97968948Y-45467500D01*
X97611052Y-45467500D01*
X97611050Y-45467500D01*
X97255255Y-45506194D01*
X96905726Y-45583131D01*
X96668960Y-45662908D01*
X96566565Y-45697409D01*
X96566563Y-45697410D01*
X96566552Y-45697414D01*
X96241755Y-45847680D01*
X96241751Y-45847682D01*
X96060749Y-45956588D01*
X95935081Y-46032200D01*
X95867744Y-46083388D01*
X95650172Y-46248781D01*
X95650163Y-46248789D01*
X95390331Y-46494914D01*
X95158641Y-46767680D01*
X95158634Y-46767690D01*
X94957790Y-47063913D01*
X94957784Y-47063922D01*
X94790151Y-47380111D01*
X94790142Y-47380129D01*
X94657674Y-47712600D01*
X94657672Y-47712607D01*
X94561932Y-48057434D01*
X94561926Y-48057460D01*
X94504029Y-48410614D01*
X94504028Y-48410631D01*
X94484652Y-48767997D01*
X94484652Y-48768002D01*
X92710500Y-48768002D01*
X92710500Y-46229741D01*
X92710598Y-46226264D01*
X92715289Y-46142722D01*
X92716994Y-46112354D01*
X92726089Y-45961990D01*
X92726420Y-45958341D01*
X92732369Y-45909344D01*
X92732793Y-45906438D01*
X92751283Y-45797621D01*
X92776553Y-45659722D01*
X92777330Y-45656097D01*
X92784422Y-45627326D01*
X92786736Y-45619293D01*
X92819403Y-45505900D01*
X92863252Y-45365188D01*
X92865010Y-45360329D01*
X92865228Y-45359753D01*
X92920411Y-45226530D01*
X92927306Y-45211212D01*
X92980334Y-45093388D01*
X92982594Y-45088870D01*
X93052980Y-44961517D01*
X93128221Y-44837054D01*
X93130683Y-44833300D01*
X93214483Y-44715194D01*
X93216167Y-44712935D01*
X93304930Y-44599639D01*
X93307428Y-44596654D01*
X93404061Y-44488521D01*
X93406398Y-44486050D01*
X93508050Y-44384398D01*
X93510521Y-44382061D01*
X93618654Y-44285428D01*
X93621639Y-44282930D01*
X93734935Y-44194167D01*
X93737194Y-44192483D01*
X93855300Y-44108683D01*
X93859054Y-44106221D01*
X93983517Y-44030980D01*
X94110870Y-43960594D01*
X94115388Y-43958334D01*
X94248509Y-43898420D01*
X94381753Y-43843228D01*
X94382329Y-43843010D01*
X94387188Y-43841252D01*
X94439525Y-43824943D01*
X94527900Y-43797403D01*
X94649326Y-43762422D01*
X94649358Y-43762414D01*
X94678097Y-43755330D01*
X94681722Y-43754553D01*
X94819621Y-43729283D01*
X94896643Y-43716195D01*
X94928451Y-43710790D01*
X94931344Y-43710369D01*
X94980341Y-43704420D01*
X94983990Y-43704089D01*
X95134171Y-43695004D01*
X95208769Y-43690815D01*
X95248265Y-43688598D01*
X95251742Y-43688500D01*
X219941589Y-43688500D01*
X219960884Y-43690010D01*
G37*
%TD.AperFunction*%
%TD*%
M02*
