M48
; DRILL file {KiCad 7.0.8} date Sun Nov 26 15:43:59 2023
; FORMAT={-:-/ absolute / inch / decimal}
; #@! TF.CreationDate,2023-11-26T15:43:59+00:00
; #@! TF.GenerationSoftware,Kicad,Pcbnew,7.0.8
; #@! TF.FileFunction,Plated,1,2,PTH
FMAT,2
INCH
; #@! TA.AperFunction,Plated,PTH,ComponentDrill
T1C0.0300
; #@! TA.AperFunction,Plated,PTH,ComponentDrill
T2C0.0315
; #@! TA.AperFunction,Plated,PTH,ComponentDrill
T3C0.0354
; #@! TA.AperFunction,Plated,PTH,ComponentDrill
T4C0.0591
; #@! TA.AperFunction,Plated,PTH,ComponentDrill
T5C0.0689
; #@! TA.AperFunction,Plated,PTH,ComponentDrill
T6C0.1260
%
G90
G05
T1
X2.9902Y-3.626
X2.9902Y-3.7047
X2.9902Y-3.7835
X3.0886Y-3.626
X3.0886Y-3.7047
X3.0886Y-3.7835
X3.4626Y-3.626
X3.4626Y-3.7047
X3.4626Y-3.7835
X3.561Y-3.626
X3.561Y-3.7047
X3.561Y-3.7835
X3.935Y-3.626
X3.935Y-3.7047
X3.935Y-3.7835
X4.0335Y-3.626
X4.0335Y-3.7047
X4.0335Y-3.7835
X4.4075Y-3.626
X4.4075Y-3.7047
X4.4075Y-3.7835
X4.5059Y-3.626
X4.5059Y-3.7047
X4.5059Y-3.7835
X4.8799Y-3.626
X4.8799Y-3.7047
X4.8799Y-3.7835
X4.9783Y-3.626
X4.9783Y-3.7047
X4.9783Y-3.7835
X5.3524Y-3.626
X5.3524Y-3.7047
X5.3524Y-3.7835
X5.4508Y-3.626
X5.4508Y-3.7047
X5.4508Y-3.7835
X5.8248Y-3.626
X5.8248Y-3.7047
X5.8248Y-3.7835
X5.9232Y-3.626
X5.9232Y-3.7047
X5.9232Y-3.7835
T2
X3.0394Y-2.1654
X3.0394Y-2.5654
X3.0394Y-3.9803
X3.0394Y-4.3803
X3.5118Y-2.1654
X3.5118Y-2.5654
X3.5118Y-3.9803
X3.5118Y-4.3803
X3.9843Y-2.1654
X3.9843Y-2.5654
X3.9843Y-3.9803
X3.9843Y-4.3803
X4.4567Y-2.1654
X4.4567Y-2.5654
X4.4567Y-3.9866
X4.4567Y-4.3866
X4.9291Y-2.1654
X4.9291Y-2.5654
X4.9291Y-3.9803
X4.9291Y-4.3803
X5.4016Y-2.1654
X5.4016Y-2.5654
X5.4016Y-3.9866
X5.4016Y-4.3866
X5.874Y-2.1654
X5.874Y-2.5654
X5.874Y-3.9866
X5.874Y-4.3866
T3
X3.0394Y-2.7559
X3.0394Y-2.8559
X3.0394Y-4.5654
X3.0394Y-4.6654
X3.5118Y-2.7559
X3.5118Y-2.8559
X3.5118Y-4.5654
X3.5118Y-4.6654
X3.9843Y-2.7559
X3.9843Y-2.8559
X3.9843Y-4.5654
X3.9843Y-4.6654
X4.4567Y-2.7559
X4.4567Y-2.8559
X4.4567Y-4.5654
X4.4567Y-4.6654
X4.9291Y-2.7559
X4.9291Y-2.8559
X4.9291Y-4.5654
X4.9291Y-4.6654
X5.4016Y-2.7559
X5.4016Y-2.8559
X5.4016Y-4.5654
X5.4016Y-4.6654
X5.874Y-2.7559
X5.874Y-2.8559
X5.874Y-4.5654
X5.874Y-4.6654
T4
X3.0394Y-1.9748
X3.0394Y-3.3819
X3.5118Y-1.9748
X3.5118Y-3.3819
X3.9843Y-1.9748
X3.9843Y-3.3819
X4.4567Y-1.9748
X4.4567Y-3.3819
X4.9291Y-1.9748
X4.9291Y-3.3819
X5.4016Y-1.9748
X5.4016Y-3.3819
X5.874Y-1.9748
X5.874Y-3.0866
X5.874Y-3.3819
T5
X1.7598Y-2.1654
X1.7598Y-2.4803
X1.7598Y-3.9488
X1.7598Y-4.2638
X1.8386Y-2.3228
X1.8386Y-4.1063
X1.9173Y-2.1654
X1.9173Y-2.4803
X1.9173Y-3.9488
X1.9173Y-4.2638
X1.9961Y-2.3228
X1.9961Y-4.1063
X2.0748Y-2.1654
X2.0748Y-2.4803
X2.0748Y-3.9488
X2.0748Y-4.2638
T6
X1.2283Y-1.4291
X1.2283Y-5.0
X6.0354Y-1.4291
X6.0354Y-5.0
T0
M30
