%TF.GenerationSoftware,KiCad,Pcbnew,7.0.8*%
%TF.CreationDate,2023-11-26T15:41:55+00:00*%
%TF.ProjectId,relaybox_indicator_leds,72656c61-7962-46f7-985f-696e64696361,rev?*%
%TF.SameCoordinates,Original*%
%TF.FileFunction,Legend,Top*%
%TF.FilePolarity,Positive*%
%FSLAX46Y46*%
G04 Gerber Fmt 4.6, Leading zero omitted, Abs format (unit mm)*
G04 Created by KiCad (PCBNEW 7.0.8) date 2023-11-26 15:41:55*
%MOMM*%
%LPD*%
G01*
G04 APERTURE LIST*
%ADD10C,0.160000*%
%ADD11C,0.254000*%
%ADD12C,0.120000*%
%ADD13C,0.100000*%
%ADD14C,0.200000*%
G04 APERTURE END LIST*
D10*
X133694299Y-118444285D02*
X132694299Y-118444285D01*
X132694299Y-118444285D02*
X132694299Y-118206190D01*
X132694299Y-118206190D02*
X132741918Y-118063333D01*
X132741918Y-118063333D02*
X132837156Y-117968095D01*
X132837156Y-117968095D02*
X132932394Y-117920476D01*
X132932394Y-117920476D02*
X133122870Y-117872857D01*
X133122870Y-117872857D02*
X133265727Y-117872857D01*
X133265727Y-117872857D02*
X133456203Y-117920476D01*
X133456203Y-117920476D02*
X133551441Y-117968095D01*
X133551441Y-117968095D02*
X133646680Y-118063333D01*
X133646680Y-118063333D02*
X133694299Y-118206190D01*
X133694299Y-118206190D02*
X133694299Y-118444285D01*
X133694299Y-116920476D02*
X133694299Y-117491904D01*
X133694299Y-117206190D02*
X132694299Y-117206190D01*
X132694299Y-117206190D02*
X132837156Y-117301428D01*
X132837156Y-117301428D02*
X132932394Y-117396666D01*
X132932394Y-117396666D02*
X132980013Y-117491904D01*
X132694299Y-116587142D02*
X132694299Y-115968095D01*
X132694299Y-115968095D02*
X133075251Y-116301428D01*
X133075251Y-116301428D02*
X133075251Y-116158571D01*
X133075251Y-116158571D02*
X133122870Y-116063333D01*
X133122870Y-116063333D02*
X133170489Y-116015714D01*
X133170489Y-116015714D02*
X133265727Y-115968095D01*
X133265727Y-115968095D02*
X133503822Y-115968095D01*
X133503822Y-115968095D02*
X133599060Y-116015714D01*
X133599060Y-116015714D02*
X133646680Y-116063333D01*
X133646680Y-116063333D02*
X133694299Y-116158571D01*
X133694299Y-116158571D02*
X133694299Y-116444285D01*
X133694299Y-116444285D02*
X133646680Y-116539523D01*
X133646680Y-116539523D02*
X133599060Y-116587142D01*
X123461905Y-82956299D02*
X124033333Y-82956299D01*
X123747619Y-83956299D02*
X123747619Y-82956299D01*
X124366667Y-83956299D02*
X124366667Y-82956299D01*
X124366667Y-82956299D02*
X124747619Y-82956299D01*
X124747619Y-82956299D02*
X124842857Y-83003918D01*
X124842857Y-83003918D02*
X124890476Y-83051537D01*
X124890476Y-83051537D02*
X124938095Y-83146775D01*
X124938095Y-83146775D02*
X124938095Y-83289632D01*
X124938095Y-83289632D02*
X124890476Y-83384870D01*
X124890476Y-83384870D02*
X124842857Y-83432489D01*
X124842857Y-83432489D02*
X124747619Y-83480108D01*
X124747619Y-83480108D02*
X124366667Y-83480108D01*
X125890476Y-83956299D02*
X125319048Y-83956299D01*
X125604762Y-83956299D02*
X125604762Y-82956299D01*
X125604762Y-82956299D02*
X125509524Y-83099156D01*
X125509524Y-83099156D02*
X125414286Y-83194394D01*
X125414286Y-83194394D02*
X125319048Y-83242013D01*
X126271429Y-83051537D02*
X126319048Y-83003918D01*
X126319048Y-83003918D02*
X126414286Y-82956299D01*
X126414286Y-82956299D02*
X126652381Y-82956299D01*
X126652381Y-82956299D02*
X126747619Y-83003918D01*
X126747619Y-83003918D02*
X126795238Y-83051537D01*
X126795238Y-83051537D02*
X126842857Y-83146775D01*
X126842857Y-83146775D02*
X126842857Y-83242013D01*
X126842857Y-83242013D02*
X126795238Y-83384870D01*
X126795238Y-83384870D02*
X126223810Y-83956299D01*
X126223810Y-83956299D02*
X126842857Y-83956299D01*
X116024299Y-106982857D02*
X115548108Y-107316190D01*
X116024299Y-107554285D02*
X115024299Y-107554285D01*
X115024299Y-107554285D02*
X115024299Y-107173333D01*
X115024299Y-107173333D02*
X115071918Y-107078095D01*
X115071918Y-107078095D02*
X115119537Y-107030476D01*
X115119537Y-107030476D02*
X115214775Y-106982857D01*
X115214775Y-106982857D02*
X115357632Y-106982857D01*
X115357632Y-106982857D02*
X115452870Y-107030476D01*
X115452870Y-107030476D02*
X115500489Y-107078095D01*
X115500489Y-107078095D02*
X115548108Y-107173333D01*
X115548108Y-107173333D02*
X115548108Y-107554285D01*
X116024299Y-106030476D02*
X116024299Y-106601904D01*
X116024299Y-106316190D02*
X115024299Y-106316190D01*
X115024299Y-106316190D02*
X115167156Y-106411428D01*
X115167156Y-106411428D02*
X115262394Y-106506666D01*
X115262394Y-106506666D02*
X115310013Y-106601904D01*
X116024299Y-105078095D02*
X116024299Y-105649523D01*
X116024299Y-105363809D02*
X115024299Y-105363809D01*
X115024299Y-105363809D02*
X115167156Y-105459047D01*
X115167156Y-105459047D02*
X115262394Y-105554285D01*
X115262394Y-105554285D02*
X115310013Y-105649523D01*
X135461905Y-82956299D02*
X136033333Y-82956299D01*
X135747619Y-83956299D02*
X135747619Y-82956299D01*
X136366667Y-83956299D02*
X136366667Y-82956299D01*
X136366667Y-82956299D02*
X136747619Y-82956299D01*
X136747619Y-82956299D02*
X136842857Y-83003918D01*
X136842857Y-83003918D02*
X136890476Y-83051537D01*
X136890476Y-83051537D02*
X136938095Y-83146775D01*
X136938095Y-83146775D02*
X136938095Y-83289632D01*
X136938095Y-83289632D02*
X136890476Y-83384870D01*
X136890476Y-83384870D02*
X136842857Y-83432489D01*
X136842857Y-83432489D02*
X136747619Y-83480108D01*
X136747619Y-83480108D02*
X136366667Y-83480108D01*
X137890476Y-83956299D02*
X137319048Y-83956299D01*
X137604762Y-83956299D02*
X137604762Y-82956299D01*
X137604762Y-82956299D02*
X137509524Y-83099156D01*
X137509524Y-83099156D02*
X137414286Y-83194394D01*
X137414286Y-83194394D02*
X137319048Y-83242013D01*
X138223810Y-82956299D02*
X138842857Y-82956299D01*
X138842857Y-82956299D02*
X138509524Y-83337251D01*
X138509524Y-83337251D02*
X138652381Y-83337251D01*
X138652381Y-83337251D02*
X138747619Y-83384870D01*
X138747619Y-83384870D02*
X138795238Y-83432489D01*
X138795238Y-83432489D02*
X138842857Y-83527727D01*
X138842857Y-83527727D02*
X138842857Y-83765822D01*
X138842857Y-83765822D02*
X138795238Y-83861060D01*
X138795238Y-83861060D02*
X138747619Y-83908680D01*
X138747619Y-83908680D02*
X138652381Y-83956299D01*
X138652381Y-83956299D02*
X138366667Y-83956299D01*
X138366667Y-83956299D02*
X138271429Y-83908680D01*
X138271429Y-83908680D02*
X138223810Y-83861060D01*
X133694299Y-72008094D02*
X132694299Y-72008094D01*
X132694299Y-72008094D02*
X132694299Y-71769999D01*
X132694299Y-71769999D02*
X132741918Y-71627142D01*
X132741918Y-71627142D02*
X132837156Y-71531904D01*
X132837156Y-71531904D02*
X132932394Y-71484285D01*
X132932394Y-71484285D02*
X133122870Y-71436666D01*
X133122870Y-71436666D02*
X133265727Y-71436666D01*
X133265727Y-71436666D02*
X133456203Y-71484285D01*
X133456203Y-71484285D02*
X133551441Y-71531904D01*
X133551441Y-71531904D02*
X133646680Y-71627142D01*
X133646680Y-71627142D02*
X133694299Y-71769999D01*
X133694299Y-71769999D02*
X133694299Y-72008094D01*
X132694299Y-70579523D02*
X132694299Y-70769999D01*
X132694299Y-70769999D02*
X132741918Y-70865237D01*
X132741918Y-70865237D02*
X132789537Y-70912856D01*
X132789537Y-70912856D02*
X132932394Y-71008094D01*
X132932394Y-71008094D02*
X133122870Y-71055713D01*
X133122870Y-71055713D02*
X133503822Y-71055713D01*
X133503822Y-71055713D02*
X133599060Y-71008094D01*
X133599060Y-71008094D02*
X133646680Y-70960475D01*
X133646680Y-70960475D02*
X133694299Y-70865237D01*
X133694299Y-70865237D02*
X133694299Y-70674761D01*
X133694299Y-70674761D02*
X133646680Y-70579523D01*
X133646680Y-70579523D02*
X133599060Y-70531904D01*
X133599060Y-70531904D02*
X133503822Y-70484285D01*
X133503822Y-70484285D02*
X133265727Y-70484285D01*
X133265727Y-70484285D02*
X133170489Y-70531904D01*
X133170489Y-70531904D02*
X133122870Y-70579523D01*
X133122870Y-70579523D02*
X133075251Y-70674761D01*
X133075251Y-70674761D02*
X133075251Y-70865237D01*
X133075251Y-70865237D02*
X133122870Y-70960475D01*
X133122870Y-70960475D02*
X133170489Y-71008094D01*
X133170489Y-71008094D02*
X133265727Y-71055713D01*
D11*
X48076667Y-77104318D02*
X48076667Y-78011461D01*
X48076667Y-78011461D02*
X48016190Y-78192889D01*
X48016190Y-78192889D02*
X47895238Y-78313842D01*
X47895238Y-78313842D02*
X47713809Y-78374318D01*
X47713809Y-78374318D02*
X47592857Y-78374318D01*
X49346667Y-78374318D02*
X48620952Y-78374318D01*
X48983809Y-78374318D02*
X48983809Y-77104318D01*
X48983809Y-77104318D02*
X48862857Y-77285746D01*
X48862857Y-77285746D02*
X48741905Y-77406699D01*
X48741905Y-77406699D02*
X48620952Y-77467175D01*
D10*
X87938095Y-47216299D02*
X88509523Y-47216299D01*
X88223809Y-48216299D02*
X88223809Y-47216299D01*
X88842857Y-48216299D02*
X88842857Y-47216299D01*
X88842857Y-47216299D02*
X89223809Y-47216299D01*
X89223809Y-47216299D02*
X89319047Y-47263918D01*
X89319047Y-47263918D02*
X89366666Y-47311537D01*
X89366666Y-47311537D02*
X89414285Y-47406775D01*
X89414285Y-47406775D02*
X89414285Y-47549632D01*
X89414285Y-47549632D02*
X89366666Y-47644870D01*
X89366666Y-47644870D02*
X89319047Y-47692489D01*
X89319047Y-47692489D02*
X89223809Y-47740108D01*
X89223809Y-47740108D02*
X88842857Y-47740108D01*
X89795238Y-47311537D02*
X89842857Y-47263918D01*
X89842857Y-47263918D02*
X89938095Y-47216299D01*
X89938095Y-47216299D02*
X90176190Y-47216299D01*
X90176190Y-47216299D02*
X90271428Y-47263918D01*
X90271428Y-47263918D02*
X90319047Y-47311537D01*
X90319047Y-47311537D02*
X90366666Y-47406775D01*
X90366666Y-47406775D02*
X90366666Y-47502013D01*
X90366666Y-47502013D02*
X90319047Y-47644870D01*
X90319047Y-47644870D02*
X89747619Y-48216299D01*
X89747619Y-48216299D02*
X90366666Y-48216299D01*
X99461905Y-82956299D02*
X100033333Y-82956299D01*
X99747619Y-83956299D02*
X99747619Y-82956299D01*
X100366667Y-83956299D02*
X100366667Y-82956299D01*
X100366667Y-82956299D02*
X100747619Y-82956299D01*
X100747619Y-82956299D02*
X100842857Y-83003918D01*
X100842857Y-83003918D02*
X100890476Y-83051537D01*
X100890476Y-83051537D02*
X100938095Y-83146775D01*
X100938095Y-83146775D02*
X100938095Y-83289632D01*
X100938095Y-83289632D02*
X100890476Y-83384870D01*
X100890476Y-83384870D02*
X100842857Y-83432489D01*
X100842857Y-83432489D02*
X100747619Y-83480108D01*
X100747619Y-83480108D02*
X100366667Y-83480108D01*
X101890476Y-83956299D02*
X101319048Y-83956299D01*
X101604762Y-83956299D02*
X101604762Y-82956299D01*
X101604762Y-82956299D02*
X101509524Y-83099156D01*
X101509524Y-83099156D02*
X101414286Y-83194394D01*
X101414286Y-83194394D02*
X101319048Y-83242013D01*
X102509524Y-82956299D02*
X102604762Y-82956299D01*
X102604762Y-82956299D02*
X102700000Y-83003918D01*
X102700000Y-83003918D02*
X102747619Y-83051537D01*
X102747619Y-83051537D02*
X102795238Y-83146775D01*
X102795238Y-83146775D02*
X102842857Y-83337251D01*
X102842857Y-83337251D02*
X102842857Y-83575346D01*
X102842857Y-83575346D02*
X102795238Y-83765822D01*
X102795238Y-83765822D02*
X102747619Y-83861060D01*
X102747619Y-83861060D02*
X102700000Y-83908680D01*
X102700000Y-83908680D02*
X102604762Y-83956299D01*
X102604762Y-83956299D02*
X102509524Y-83956299D01*
X102509524Y-83956299D02*
X102414286Y-83908680D01*
X102414286Y-83908680D02*
X102366667Y-83861060D01*
X102366667Y-83861060D02*
X102319048Y-83765822D01*
X102319048Y-83765822D02*
X102271429Y-83575346D01*
X102271429Y-83575346D02*
X102271429Y-83337251D01*
X102271429Y-83337251D02*
X102319048Y-83146775D01*
X102319048Y-83146775D02*
X102366667Y-83051537D01*
X102366667Y-83051537D02*
X102414286Y-83003918D01*
X102414286Y-83003918D02*
X102509524Y-82956299D01*
X135938095Y-47216299D02*
X136509523Y-47216299D01*
X136223809Y-48216299D02*
X136223809Y-47216299D01*
X136842857Y-48216299D02*
X136842857Y-47216299D01*
X136842857Y-47216299D02*
X137223809Y-47216299D01*
X137223809Y-47216299D02*
X137319047Y-47263918D01*
X137319047Y-47263918D02*
X137366666Y-47311537D01*
X137366666Y-47311537D02*
X137414285Y-47406775D01*
X137414285Y-47406775D02*
X137414285Y-47549632D01*
X137414285Y-47549632D02*
X137366666Y-47644870D01*
X137366666Y-47644870D02*
X137319047Y-47692489D01*
X137319047Y-47692489D02*
X137223809Y-47740108D01*
X137223809Y-47740108D02*
X136842857Y-47740108D01*
X138271428Y-47216299D02*
X138080952Y-47216299D01*
X138080952Y-47216299D02*
X137985714Y-47263918D01*
X137985714Y-47263918D02*
X137938095Y-47311537D01*
X137938095Y-47311537D02*
X137842857Y-47454394D01*
X137842857Y-47454394D02*
X137795238Y-47644870D01*
X137795238Y-47644870D02*
X137795238Y-48025822D01*
X137795238Y-48025822D02*
X137842857Y-48121060D01*
X137842857Y-48121060D02*
X137890476Y-48168680D01*
X137890476Y-48168680D02*
X137985714Y-48216299D01*
X137985714Y-48216299D02*
X138176190Y-48216299D01*
X138176190Y-48216299D02*
X138271428Y-48168680D01*
X138271428Y-48168680D02*
X138319047Y-48121060D01*
X138319047Y-48121060D02*
X138366666Y-48025822D01*
X138366666Y-48025822D02*
X138366666Y-47787727D01*
X138366666Y-47787727D02*
X138319047Y-47692489D01*
X138319047Y-47692489D02*
X138271428Y-47644870D01*
X138271428Y-47644870D02*
X138176190Y-47597251D01*
X138176190Y-47597251D02*
X137985714Y-47597251D01*
X137985714Y-47597251D02*
X137890476Y-47644870D01*
X137890476Y-47644870D02*
X137842857Y-47692489D01*
X137842857Y-47692489D02*
X137795238Y-47787727D01*
X92024299Y-106346666D02*
X91548108Y-106679999D01*
X92024299Y-106918094D02*
X91024299Y-106918094D01*
X91024299Y-106918094D02*
X91024299Y-106537142D01*
X91024299Y-106537142D02*
X91071918Y-106441904D01*
X91071918Y-106441904D02*
X91119537Y-106394285D01*
X91119537Y-106394285D02*
X91214775Y-106346666D01*
X91214775Y-106346666D02*
X91357632Y-106346666D01*
X91357632Y-106346666D02*
X91452870Y-106394285D01*
X91452870Y-106394285D02*
X91500489Y-106441904D01*
X91500489Y-106441904D02*
X91548108Y-106537142D01*
X91548108Y-106537142D02*
X91548108Y-106918094D01*
X92024299Y-105870475D02*
X92024299Y-105679999D01*
X92024299Y-105679999D02*
X91976680Y-105584761D01*
X91976680Y-105584761D02*
X91929060Y-105537142D01*
X91929060Y-105537142D02*
X91786203Y-105441904D01*
X91786203Y-105441904D02*
X91595727Y-105394285D01*
X91595727Y-105394285D02*
X91214775Y-105394285D01*
X91214775Y-105394285D02*
X91119537Y-105441904D01*
X91119537Y-105441904D02*
X91071918Y-105489523D01*
X91071918Y-105489523D02*
X91024299Y-105584761D01*
X91024299Y-105584761D02*
X91024299Y-105775237D01*
X91024299Y-105775237D02*
X91071918Y-105870475D01*
X91071918Y-105870475D02*
X91119537Y-105918094D01*
X91119537Y-105918094D02*
X91214775Y-105965713D01*
X91214775Y-105965713D02*
X91452870Y-105965713D01*
X91452870Y-105965713D02*
X91548108Y-105918094D01*
X91548108Y-105918094D02*
X91595727Y-105870475D01*
X91595727Y-105870475D02*
X91643346Y-105775237D01*
X91643346Y-105775237D02*
X91643346Y-105584761D01*
X91643346Y-105584761D02*
X91595727Y-105489523D01*
X91595727Y-105489523D02*
X91548108Y-105441904D01*
X91548108Y-105441904D02*
X91452870Y-105394285D01*
X85694299Y-117968094D02*
X84694299Y-117968094D01*
X84694299Y-117968094D02*
X84694299Y-117729999D01*
X84694299Y-117729999D02*
X84741918Y-117587142D01*
X84741918Y-117587142D02*
X84837156Y-117491904D01*
X84837156Y-117491904D02*
X84932394Y-117444285D01*
X84932394Y-117444285D02*
X85122870Y-117396666D01*
X85122870Y-117396666D02*
X85265727Y-117396666D01*
X85265727Y-117396666D02*
X85456203Y-117444285D01*
X85456203Y-117444285D02*
X85551441Y-117491904D01*
X85551441Y-117491904D02*
X85646680Y-117587142D01*
X85646680Y-117587142D02*
X85694299Y-117729999D01*
X85694299Y-117729999D02*
X85694299Y-117968094D01*
X85694299Y-116920475D02*
X85694299Y-116729999D01*
X85694299Y-116729999D02*
X85646680Y-116634761D01*
X85646680Y-116634761D02*
X85599060Y-116587142D01*
X85599060Y-116587142D02*
X85456203Y-116491904D01*
X85456203Y-116491904D02*
X85265727Y-116444285D01*
X85265727Y-116444285D02*
X84884775Y-116444285D01*
X84884775Y-116444285D02*
X84789537Y-116491904D01*
X84789537Y-116491904D02*
X84741918Y-116539523D01*
X84741918Y-116539523D02*
X84694299Y-116634761D01*
X84694299Y-116634761D02*
X84694299Y-116825237D01*
X84694299Y-116825237D02*
X84741918Y-116920475D01*
X84741918Y-116920475D02*
X84789537Y-116968094D01*
X84789537Y-116968094D02*
X84884775Y-117015713D01*
X84884775Y-117015713D02*
X85122870Y-117015713D01*
X85122870Y-117015713D02*
X85218108Y-116968094D01*
X85218108Y-116968094D02*
X85265727Y-116920475D01*
X85265727Y-116920475D02*
X85313346Y-116825237D01*
X85313346Y-116825237D02*
X85313346Y-116634761D01*
X85313346Y-116634761D02*
X85265727Y-116539523D01*
X85265727Y-116539523D02*
X85218108Y-116491904D01*
X85218108Y-116491904D02*
X85122870Y-116444285D01*
X97694299Y-72008094D02*
X96694299Y-72008094D01*
X96694299Y-72008094D02*
X96694299Y-71769999D01*
X96694299Y-71769999D02*
X96741918Y-71627142D01*
X96741918Y-71627142D02*
X96837156Y-71531904D01*
X96837156Y-71531904D02*
X96932394Y-71484285D01*
X96932394Y-71484285D02*
X97122870Y-71436666D01*
X97122870Y-71436666D02*
X97265727Y-71436666D01*
X97265727Y-71436666D02*
X97456203Y-71484285D01*
X97456203Y-71484285D02*
X97551441Y-71531904D01*
X97551441Y-71531904D02*
X97646680Y-71627142D01*
X97646680Y-71627142D02*
X97694299Y-71769999D01*
X97694299Y-71769999D02*
X97694299Y-72008094D01*
X96694299Y-71103332D02*
X96694299Y-70484285D01*
X96694299Y-70484285D02*
X97075251Y-70817618D01*
X97075251Y-70817618D02*
X97075251Y-70674761D01*
X97075251Y-70674761D02*
X97122870Y-70579523D01*
X97122870Y-70579523D02*
X97170489Y-70531904D01*
X97170489Y-70531904D02*
X97265727Y-70484285D01*
X97265727Y-70484285D02*
X97503822Y-70484285D01*
X97503822Y-70484285D02*
X97599060Y-70531904D01*
X97599060Y-70531904D02*
X97646680Y-70579523D01*
X97646680Y-70579523D02*
X97694299Y-70674761D01*
X97694299Y-70674761D02*
X97694299Y-70960475D01*
X97694299Y-70960475D02*
X97646680Y-71055713D01*
X97646680Y-71055713D02*
X97599060Y-71103332D01*
X109694299Y-72008094D02*
X108694299Y-72008094D01*
X108694299Y-72008094D02*
X108694299Y-71769999D01*
X108694299Y-71769999D02*
X108741918Y-71627142D01*
X108741918Y-71627142D02*
X108837156Y-71531904D01*
X108837156Y-71531904D02*
X108932394Y-71484285D01*
X108932394Y-71484285D02*
X109122870Y-71436666D01*
X109122870Y-71436666D02*
X109265727Y-71436666D01*
X109265727Y-71436666D02*
X109456203Y-71484285D01*
X109456203Y-71484285D02*
X109551441Y-71531904D01*
X109551441Y-71531904D02*
X109646680Y-71627142D01*
X109646680Y-71627142D02*
X109694299Y-71769999D01*
X109694299Y-71769999D02*
X109694299Y-72008094D01*
X109027632Y-70579523D02*
X109694299Y-70579523D01*
X108646680Y-70817618D02*
X109360965Y-71055713D01*
X109360965Y-71055713D02*
X109360965Y-70436666D01*
X151954299Y-60166666D02*
X151478108Y-60499999D01*
X151954299Y-60738094D02*
X150954299Y-60738094D01*
X150954299Y-60738094D02*
X150954299Y-60357142D01*
X150954299Y-60357142D02*
X151001918Y-60261904D01*
X151001918Y-60261904D02*
X151049537Y-60214285D01*
X151049537Y-60214285D02*
X151144775Y-60166666D01*
X151144775Y-60166666D02*
X151287632Y-60166666D01*
X151287632Y-60166666D02*
X151382870Y-60214285D01*
X151382870Y-60214285D02*
X151430489Y-60261904D01*
X151430489Y-60261904D02*
X151478108Y-60357142D01*
X151478108Y-60357142D02*
X151478108Y-60738094D01*
X150954299Y-59833332D02*
X150954299Y-59166666D01*
X150954299Y-59166666D02*
X151954299Y-59595237D01*
X152024299Y-106982857D02*
X151548108Y-107316190D01*
X152024299Y-107554285D02*
X151024299Y-107554285D01*
X151024299Y-107554285D02*
X151024299Y-107173333D01*
X151024299Y-107173333D02*
X151071918Y-107078095D01*
X151071918Y-107078095D02*
X151119537Y-107030476D01*
X151119537Y-107030476D02*
X151214775Y-106982857D01*
X151214775Y-106982857D02*
X151357632Y-106982857D01*
X151357632Y-106982857D02*
X151452870Y-107030476D01*
X151452870Y-107030476D02*
X151500489Y-107078095D01*
X151500489Y-107078095D02*
X151548108Y-107173333D01*
X151548108Y-107173333D02*
X151548108Y-107554285D01*
X152024299Y-106030476D02*
X152024299Y-106601904D01*
X152024299Y-106316190D02*
X151024299Y-106316190D01*
X151024299Y-106316190D02*
X151167156Y-106411428D01*
X151167156Y-106411428D02*
X151262394Y-106506666D01*
X151262394Y-106506666D02*
X151310013Y-106601904D01*
X151357632Y-105173333D02*
X152024299Y-105173333D01*
X150976680Y-105411428D02*
X151690965Y-105649523D01*
X151690965Y-105649523D02*
X151690965Y-105030476D01*
X147938095Y-47216299D02*
X148509523Y-47216299D01*
X148223809Y-48216299D02*
X148223809Y-47216299D01*
X148842857Y-48216299D02*
X148842857Y-47216299D01*
X148842857Y-47216299D02*
X149223809Y-47216299D01*
X149223809Y-47216299D02*
X149319047Y-47263918D01*
X149319047Y-47263918D02*
X149366666Y-47311537D01*
X149366666Y-47311537D02*
X149414285Y-47406775D01*
X149414285Y-47406775D02*
X149414285Y-47549632D01*
X149414285Y-47549632D02*
X149366666Y-47644870D01*
X149366666Y-47644870D02*
X149319047Y-47692489D01*
X149319047Y-47692489D02*
X149223809Y-47740108D01*
X149223809Y-47740108D02*
X148842857Y-47740108D01*
X149747619Y-47216299D02*
X150414285Y-47216299D01*
X150414285Y-47216299D02*
X149985714Y-48216299D01*
D11*
X48076667Y-122404318D02*
X48076667Y-123311461D01*
X48076667Y-123311461D02*
X48016190Y-123492889D01*
X48016190Y-123492889D02*
X47895238Y-123613842D01*
X47895238Y-123613842D02*
X47713809Y-123674318D01*
X47713809Y-123674318D02*
X47592857Y-123674318D01*
X48620952Y-122525270D02*
X48681428Y-122464794D01*
X48681428Y-122464794D02*
X48802381Y-122404318D01*
X48802381Y-122404318D02*
X49104762Y-122404318D01*
X49104762Y-122404318D02*
X49225714Y-122464794D01*
X49225714Y-122464794D02*
X49286190Y-122525270D01*
X49286190Y-122525270D02*
X49346667Y-122646222D01*
X49346667Y-122646222D02*
X49346667Y-122767175D01*
X49346667Y-122767175D02*
X49286190Y-122948603D01*
X49286190Y-122948603D02*
X48560476Y-123674318D01*
X48560476Y-123674318D02*
X49346667Y-123674318D01*
D10*
X121694299Y-118444285D02*
X120694299Y-118444285D01*
X120694299Y-118444285D02*
X120694299Y-118206190D01*
X120694299Y-118206190D02*
X120741918Y-118063333D01*
X120741918Y-118063333D02*
X120837156Y-117968095D01*
X120837156Y-117968095D02*
X120932394Y-117920476D01*
X120932394Y-117920476D02*
X121122870Y-117872857D01*
X121122870Y-117872857D02*
X121265727Y-117872857D01*
X121265727Y-117872857D02*
X121456203Y-117920476D01*
X121456203Y-117920476D02*
X121551441Y-117968095D01*
X121551441Y-117968095D02*
X121646680Y-118063333D01*
X121646680Y-118063333D02*
X121694299Y-118206190D01*
X121694299Y-118206190D02*
X121694299Y-118444285D01*
X121694299Y-116920476D02*
X121694299Y-117491904D01*
X121694299Y-117206190D02*
X120694299Y-117206190D01*
X120694299Y-117206190D02*
X120837156Y-117301428D01*
X120837156Y-117301428D02*
X120932394Y-117396666D01*
X120932394Y-117396666D02*
X120980013Y-117491904D01*
X120789537Y-116539523D02*
X120741918Y-116491904D01*
X120741918Y-116491904D02*
X120694299Y-116396666D01*
X120694299Y-116396666D02*
X120694299Y-116158571D01*
X120694299Y-116158571D02*
X120741918Y-116063333D01*
X120741918Y-116063333D02*
X120789537Y-116015714D01*
X120789537Y-116015714D02*
X120884775Y-115968095D01*
X120884775Y-115968095D02*
X120980013Y-115968095D01*
X120980013Y-115968095D02*
X121122870Y-116015714D01*
X121122870Y-116015714D02*
X121694299Y-116587142D01*
X121694299Y-116587142D02*
X121694299Y-115968095D01*
X104024299Y-106822857D02*
X103548108Y-107156190D01*
X104024299Y-107394285D02*
X103024299Y-107394285D01*
X103024299Y-107394285D02*
X103024299Y-107013333D01*
X103024299Y-107013333D02*
X103071918Y-106918095D01*
X103071918Y-106918095D02*
X103119537Y-106870476D01*
X103119537Y-106870476D02*
X103214775Y-106822857D01*
X103214775Y-106822857D02*
X103357632Y-106822857D01*
X103357632Y-106822857D02*
X103452870Y-106870476D01*
X103452870Y-106870476D02*
X103500489Y-106918095D01*
X103500489Y-106918095D02*
X103548108Y-107013333D01*
X103548108Y-107013333D02*
X103548108Y-107394285D01*
X104024299Y-105870476D02*
X104024299Y-106441904D01*
X104024299Y-106156190D02*
X103024299Y-106156190D01*
X103024299Y-106156190D02*
X103167156Y-106251428D01*
X103167156Y-106251428D02*
X103262394Y-106346666D01*
X103262394Y-106346666D02*
X103310013Y-106441904D01*
X103024299Y-105251428D02*
X103024299Y-105156190D01*
X103024299Y-105156190D02*
X103071918Y-105060952D01*
X103071918Y-105060952D02*
X103119537Y-105013333D01*
X103119537Y-105013333D02*
X103214775Y-104965714D01*
X103214775Y-104965714D02*
X103405251Y-104918095D01*
X103405251Y-104918095D02*
X103643346Y-104918095D01*
X103643346Y-104918095D02*
X103833822Y-104965714D01*
X103833822Y-104965714D02*
X103929060Y-105013333D01*
X103929060Y-105013333D02*
X103976680Y-105060952D01*
X103976680Y-105060952D02*
X104024299Y-105156190D01*
X104024299Y-105156190D02*
X104024299Y-105251428D01*
X104024299Y-105251428D02*
X103976680Y-105346666D01*
X103976680Y-105346666D02*
X103929060Y-105394285D01*
X103929060Y-105394285D02*
X103833822Y-105441904D01*
X103833822Y-105441904D02*
X103643346Y-105489523D01*
X103643346Y-105489523D02*
X103405251Y-105489523D01*
X103405251Y-105489523D02*
X103214775Y-105441904D01*
X103214775Y-105441904D02*
X103119537Y-105394285D01*
X103119537Y-105394285D02*
X103071918Y-105346666D01*
X103071918Y-105346666D02*
X103024299Y-105251428D01*
X128024299Y-60246666D02*
X127548108Y-60579999D01*
X128024299Y-60818094D02*
X127024299Y-60818094D01*
X127024299Y-60818094D02*
X127024299Y-60437142D01*
X127024299Y-60437142D02*
X127071918Y-60341904D01*
X127071918Y-60341904D02*
X127119537Y-60294285D01*
X127119537Y-60294285D02*
X127214775Y-60246666D01*
X127214775Y-60246666D02*
X127357632Y-60246666D01*
X127357632Y-60246666D02*
X127452870Y-60294285D01*
X127452870Y-60294285D02*
X127500489Y-60341904D01*
X127500489Y-60341904D02*
X127548108Y-60437142D01*
X127548108Y-60437142D02*
X127548108Y-60818094D01*
X127024299Y-59341904D02*
X127024299Y-59818094D01*
X127024299Y-59818094D02*
X127500489Y-59865713D01*
X127500489Y-59865713D02*
X127452870Y-59818094D01*
X127452870Y-59818094D02*
X127405251Y-59722856D01*
X127405251Y-59722856D02*
X127405251Y-59484761D01*
X127405251Y-59484761D02*
X127452870Y-59389523D01*
X127452870Y-59389523D02*
X127500489Y-59341904D01*
X127500489Y-59341904D02*
X127595727Y-59294285D01*
X127595727Y-59294285D02*
X127833822Y-59294285D01*
X127833822Y-59294285D02*
X127929060Y-59341904D01*
X127929060Y-59341904D02*
X127976680Y-59389523D01*
X127976680Y-59389523D02*
X128024299Y-59484761D01*
X128024299Y-59484761D02*
X128024299Y-59722856D01*
X128024299Y-59722856D02*
X127976680Y-59818094D01*
X127976680Y-59818094D02*
X127929060Y-59865713D01*
X99938095Y-47216299D02*
X100509523Y-47216299D01*
X100223809Y-48216299D02*
X100223809Y-47216299D01*
X100842857Y-48216299D02*
X100842857Y-47216299D01*
X100842857Y-47216299D02*
X101223809Y-47216299D01*
X101223809Y-47216299D02*
X101319047Y-47263918D01*
X101319047Y-47263918D02*
X101366666Y-47311537D01*
X101366666Y-47311537D02*
X101414285Y-47406775D01*
X101414285Y-47406775D02*
X101414285Y-47549632D01*
X101414285Y-47549632D02*
X101366666Y-47644870D01*
X101366666Y-47644870D02*
X101319047Y-47692489D01*
X101319047Y-47692489D02*
X101223809Y-47740108D01*
X101223809Y-47740108D02*
X100842857Y-47740108D01*
X101747619Y-47216299D02*
X102366666Y-47216299D01*
X102366666Y-47216299D02*
X102033333Y-47597251D01*
X102033333Y-47597251D02*
X102176190Y-47597251D01*
X102176190Y-47597251D02*
X102271428Y-47644870D01*
X102271428Y-47644870D02*
X102319047Y-47692489D01*
X102319047Y-47692489D02*
X102366666Y-47787727D01*
X102366666Y-47787727D02*
X102366666Y-48025822D01*
X102366666Y-48025822D02*
X102319047Y-48121060D01*
X102319047Y-48121060D02*
X102271428Y-48168680D01*
X102271428Y-48168680D02*
X102176190Y-48216299D01*
X102176190Y-48216299D02*
X101890476Y-48216299D01*
X101890476Y-48216299D02*
X101795238Y-48168680D01*
X101795238Y-48168680D02*
X101747619Y-48121060D01*
X140024299Y-106982857D02*
X139548108Y-107316190D01*
X140024299Y-107554285D02*
X139024299Y-107554285D01*
X139024299Y-107554285D02*
X139024299Y-107173333D01*
X139024299Y-107173333D02*
X139071918Y-107078095D01*
X139071918Y-107078095D02*
X139119537Y-107030476D01*
X139119537Y-107030476D02*
X139214775Y-106982857D01*
X139214775Y-106982857D02*
X139357632Y-106982857D01*
X139357632Y-106982857D02*
X139452870Y-107030476D01*
X139452870Y-107030476D02*
X139500489Y-107078095D01*
X139500489Y-107078095D02*
X139548108Y-107173333D01*
X139548108Y-107173333D02*
X139548108Y-107554285D01*
X140024299Y-106030476D02*
X140024299Y-106601904D01*
X140024299Y-106316190D02*
X139024299Y-106316190D01*
X139024299Y-106316190D02*
X139167156Y-106411428D01*
X139167156Y-106411428D02*
X139262394Y-106506666D01*
X139262394Y-106506666D02*
X139310013Y-106601904D01*
X139024299Y-105697142D02*
X139024299Y-105078095D01*
X139024299Y-105078095D02*
X139405251Y-105411428D01*
X139405251Y-105411428D02*
X139405251Y-105268571D01*
X139405251Y-105268571D02*
X139452870Y-105173333D01*
X139452870Y-105173333D02*
X139500489Y-105125714D01*
X139500489Y-105125714D02*
X139595727Y-105078095D01*
X139595727Y-105078095D02*
X139833822Y-105078095D01*
X139833822Y-105078095D02*
X139929060Y-105125714D01*
X139929060Y-105125714D02*
X139976680Y-105173333D01*
X139976680Y-105173333D02*
X140024299Y-105268571D01*
X140024299Y-105268571D02*
X140024299Y-105554285D01*
X140024299Y-105554285D02*
X139976680Y-105649523D01*
X139976680Y-105649523D02*
X139929060Y-105697142D01*
X85694299Y-72008094D02*
X84694299Y-72008094D01*
X84694299Y-72008094D02*
X84694299Y-71769999D01*
X84694299Y-71769999D02*
X84741918Y-71627142D01*
X84741918Y-71627142D02*
X84837156Y-71531904D01*
X84837156Y-71531904D02*
X84932394Y-71484285D01*
X84932394Y-71484285D02*
X85122870Y-71436666D01*
X85122870Y-71436666D02*
X85265727Y-71436666D01*
X85265727Y-71436666D02*
X85456203Y-71484285D01*
X85456203Y-71484285D02*
X85551441Y-71531904D01*
X85551441Y-71531904D02*
X85646680Y-71627142D01*
X85646680Y-71627142D02*
X85694299Y-71769999D01*
X85694299Y-71769999D02*
X85694299Y-72008094D01*
X84789537Y-71055713D02*
X84741918Y-71008094D01*
X84741918Y-71008094D02*
X84694299Y-70912856D01*
X84694299Y-70912856D02*
X84694299Y-70674761D01*
X84694299Y-70674761D02*
X84741918Y-70579523D01*
X84741918Y-70579523D02*
X84789537Y-70531904D01*
X84789537Y-70531904D02*
X84884775Y-70484285D01*
X84884775Y-70484285D02*
X84980013Y-70484285D01*
X84980013Y-70484285D02*
X85122870Y-70531904D01*
X85122870Y-70531904D02*
X85694299Y-71103332D01*
X85694299Y-71103332D02*
X85694299Y-70484285D01*
X123938095Y-47216299D02*
X124509523Y-47216299D01*
X124223809Y-48216299D02*
X124223809Y-47216299D01*
X124842857Y-48216299D02*
X124842857Y-47216299D01*
X124842857Y-47216299D02*
X125223809Y-47216299D01*
X125223809Y-47216299D02*
X125319047Y-47263918D01*
X125319047Y-47263918D02*
X125366666Y-47311537D01*
X125366666Y-47311537D02*
X125414285Y-47406775D01*
X125414285Y-47406775D02*
X125414285Y-47549632D01*
X125414285Y-47549632D02*
X125366666Y-47644870D01*
X125366666Y-47644870D02*
X125319047Y-47692489D01*
X125319047Y-47692489D02*
X125223809Y-47740108D01*
X125223809Y-47740108D02*
X124842857Y-47740108D01*
X126319047Y-47216299D02*
X125842857Y-47216299D01*
X125842857Y-47216299D02*
X125795238Y-47692489D01*
X125795238Y-47692489D02*
X125842857Y-47644870D01*
X125842857Y-47644870D02*
X125938095Y-47597251D01*
X125938095Y-47597251D02*
X126176190Y-47597251D01*
X126176190Y-47597251D02*
X126271428Y-47644870D01*
X126271428Y-47644870D02*
X126319047Y-47692489D01*
X126319047Y-47692489D02*
X126366666Y-47787727D01*
X126366666Y-47787727D02*
X126366666Y-48025822D01*
X126366666Y-48025822D02*
X126319047Y-48121060D01*
X126319047Y-48121060D02*
X126271428Y-48168680D01*
X126271428Y-48168680D02*
X126176190Y-48216299D01*
X126176190Y-48216299D02*
X125938095Y-48216299D01*
X125938095Y-48216299D02*
X125842857Y-48168680D01*
X125842857Y-48168680D02*
X125795238Y-48121060D01*
X128024299Y-106822857D02*
X127548108Y-107156190D01*
X128024299Y-107394285D02*
X127024299Y-107394285D01*
X127024299Y-107394285D02*
X127024299Y-107013333D01*
X127024299Y-107013333D02*
X127071918Y-106918095D01*
X127071918Y-106918095D02*
X127119537Y-106870476D01*
X127119537Y-106870476D02*
X127214775Y-106822857D01*
X127214775Y-106822857D02*
X127357632Y-106822857D01*
X127357632Y-106822857D02*
X127452870Y-106870476D01*
X127452870Y-106870476D02*
X127500489Y-106918095D01*
X127500489Y-106918095D02*
X127548108Y-107013333D01*
X127548108Y-107013333D02*
X127548108Y-107394285D01*
X128024299Y-105870476D02*
X128024299Y-106441904D01*
X128024299Y-106156190D02*
X127024299Y-106156190D01*
X127024299Y-106156190D02*
X127167156Y-106251428D01*
X127167156Y-106251428D02*
X127262394Y-106346666D01*
X127262394Y-106346666D02*
X127310013Y-106441904D01*
X127119537Y-105489523D02*
X127071918Y-105441904D01*
X127071918Y-105441904D02*
X127024299Y-105346666D01*
X127024299Y-105346666D02*
X127024299Y-105108571D01*
X127024299Y-105108571D02*
X127071918Y-105013333D01*
X127071918Y-105013333D02*
X127119537Y-104965714D01*
X127119537Y-104965714D02*
X127214775Y-104918095D01*
X127214775Y-104918095D02*
X127310013Y-104918095D01*
X127310013Y-104918095D02*
X127452870Y-104965714D01*
X127452870Y-104965714D02*
X128024299Y-105537142D01*
X128024299Y-105537142D02*
X128024299Y-104918095D01*
X145106680Y-95533332D02*
X145154299Y-95390475D01*
X145154299Y-95390475D02*
X145154299Y-95152380D01*
X145154299Y-95152380D02*
X145106680Y-95057142D01*
X145106680Y-95057142D02*
X145059060Y-95009523D01*
X145059060Y-95009523D02*
X144963822Y-94961904D01*
X144963822Y-94961904D02*
X144868584Y-94961904D01*
X144868584Y-94961904D02*
X144773346Y-95009523D01*
X144773346Y-95009523D02*
X144725727Y-95057142D01*
X144725727Y-95057142D02*
X144678108Y-95152380D01*
X144678108Y-95152380D02*
X144630489Y-95342856D01*
X144630489Y-95342856D02*
X144582870Y-95438094D01*
X144582870Y-95438094D02*
X144535251Y-95485713D01*
X144535251Y-95485713D02*
X144440013Y-95533332D01*
X144440013Y-95533332D02*
X144344775Y-95533332D01*
X144344775Y-95533332D02*
X144249537Y-95485713D01*
X144249537Y-95485713D02*
X144201918Y-95438094D01*
X144201918Y-95438094D02*
X144154299Y-95342856D01*
X144154299Y-95342856D02*
X144154299Y-95104761D01*
X144154299Y-95104761D02*
X144201918Y-94961904D01*
X144154299Y-94628570D02*
X145154299Y-94390475D01*
X145154299Y-94390475D02*
X144440013Y-94199999D01*
X144440013Y-94199999D02*
X145154299Y-94009523D01*
X145154299Y-94009523D02*
X144154299Y-93771428D01*
X144154299Y-93485713D02*
X144154299Y-92819047D01*
X144154299Y-92819047D02*
X145154299Y-93247618D01*
X140024299Y-60246666D02*
X139548108Y-60579999D01*
X140024299Y-60818094D02*
X139024299Y-60818094D01*
X139024299Y-60818094D02*
X139024299Y-60437142D01*
X139024299Y-60437142D02*
X139071918Y-60341904D01*
X139071918Y-60341904D02*
X139119537Y-60294285D01*
X139119537Y-60294285D02*
X139214775Y-60246666D01*
X139214775Y-60246666D02*
X139357632Y-60246666D01*
X139357632Y-60246666D02*
X139452870Y-60294285D01*
X139452870Y-60294285D02*
X139500489Y-60341904D01*
X139500489Y-60341904D02*
X139548108Y-60437142D01*
X139548108Y-60437142D02*
X139548108Y-60818094D01*
X139024299Y-59389523D02*
X139024299Y-59579999D01*
X139024299Y-59579999D02*
X139071918Y-59675237D01*
X139071918Y-59675237D02*
X139119537Y-59722856D01*
X139119537Y-59722856D02*
X139262394Y-59818094D01*
X139262394Y-59818094D02*
X139452870Y-59865713D01*
X139452870Y-59865713D02*
X139833822Y-59865713D01*
X139833822Y-59865713D02*
X139929060Y-59818094D01*
X139929060Y-59818094D02*
X139976680Y-59770475D01*
X139976680Y-59770475D02*
X140024299Y-59675237D01*
X140024299Y-59675237D02*
X140024299Y-59484761D01*
X140024299Y-59484761D02*
X139976680Y-59389523D01*
X139976680Y-59389523D02*
X139929060Y-59341904D01*
X139929060Y-59341904D02*
X139833822Y-59294285D01*
X139833822Y-59294285D02*
X139595727Y-59294285D01*
X139595727Y-59294285D02*
X139500489Y-59341904D01*
X139500489Y-59341904D02*
X139452870Y-59389523D01*
X139452870Y-59389523D02*
X139405251Y-59484761D01*
X139405251Y-59484761D02*
X139405251Y-59675237D01*
X139405251Y-59675237D02*
X139452870Y-59770475D01*
X139452870Y-59770475D02*
X139500489Y-59818094D01*
X139500489Y-59818094D02*
X139595727Y-59865713D01*
X116024299Y-60246666D02*
X115548108Y-60579999D01*
X116024299Y-60818094D02*
X115024299Y-60818094D01*
X115024299Y-60818094D02*
X115024299Y-60437142D01*
X115024299Y-60437142D02*
X115071918Y-60341904D01*
X115071918Y-60341904D02*
X115119537Y-60294285D01*
X115119537Y-60294285D02*
X115214775Y-60246666D01*
X115214775Y-60246666D02*
X115357632Y-60246666D01*
X115357632Y-60246666D02*
X115452870Y-60294285D01*
X115452870Y-60294285D02*
X115500489Y-60341904D01*
X115500489Y-60341904D02*
X115548108Y-60437142D01*
X115548108Y-60437142D02*
X115548108Y-60818094D01*
X115357632Y-59389523D02*
X116024299Y-59389523D01*
X114976680Y-59627618D02*
X115690965Y-59865713D01*
X115690965Y-59865713D02*
X115690965Y-59246666D01*
X92024299Y-60246666D02*
X91548108Y-60579999D01*
X92024299Y-60818094D02*
X91024299Y-60818094D01*
X91024299Y-60818094D02*
X91024299Y-60437142D01*
X91024299Y-60437142D02*
X91071918Y-60341904D01*
X91071918Y-60341904D02*
X91119537Y-60294285D01*
X91119537Y-60294285D02*
X91214775Y-60246666D01*
X91214775Y-60246666D02*
X91357632Y-60246666D01*
X91357632Y-60246666D02*
X91452870Y-60294285D01*
X91452870Y-60294285D02*
X91500489Y-60341904D01*
X91500489Y-60341904D02*
X91548108Y-60437142D01*
X91548108Y-60437142D02*
X91548108Y-60818094D01*
X91119537Y-59865713D02*
X91071918Y-59818094D01*
X91071918Y-59818094D02*
X91024299Y-59722856D01*
X91024299Y-59722856D02*
X91024299Y-59484761D01*
X91024299Y-59484761D02*
X91071918Y-59389523D01*
X91071918Y-59389523D02*
X91119537Y-59341904D01*
X91119537Y-59341904D02*
X91214775Y-59294285D01*
X91214775Y-59294285D02*
X91310013Y-59294285D01*
X91310013Y-59294285D02*
X91452870Y-59341904D01*
X91452870Y-59341904D02*
X92024299Y-59913332D01*
X92024299Y-59913332D02*
X92024299Y-59294285D01*
X87938095Y-82956299D02*
X88509523Y-82956299D01*
X88223809Y-83956299D02*
X88223809Y-82956299D01*
X88842857Y-83956299D02*
X88842857Y-82956299D01*
X88842857Y-82956299D02*
X89223809Y-82956299D01*
X89223809Y-82956299D02*
X89319047Y-83003918D01*
X89319047Y-83003918D02*
X89366666Y-83051537D01*
X89366666Y-83051537D02*
X89414285Y-83146775D01*
X89414285Y-83146775D02*
X89414285Y-83289632D01*
X89414285Y-83289632D02*
X89366666Y-83384870D01*
X89366666Y-83384870D02*
X89319047Y-83432489D01*
X89319047Y-83432489D02*
X89223809Y-83480108D01*
X89223809Y-83480108D02*
X88842857Y-83480108D01*
X89890476Y-83956299D02*
X90080952Y-83956299D01*
X90080952Y-83956299D02*
X90176190Y-83908680D01*
X90176190Y-83908680D02*
X90223809Y-83861060D01*
X90223809Y-83861060D02*
X90319047Y-83718203D01*
X90319047Y-83718203D02*
X90366666Y-83527727D01*
X90366666Y-83527727D02*
X90366666Y-83146775D01*
X90366666Y-83146775D02*
X90319047Y-83051537D01*
X90319047Y-83051537D02*
X90271428Y-83003918D01*
X90271428Y-83003918D02*
X90176190Y-82956299D01*
X90176190Y-82956299D02*
X89985714Y-82956299D01*
X89985714Y-82956299D02*
X89890476Y-83003918D01*
X89890476Y-83003918D02*
X89842857Y-83051537D01*
X89842857Y-83051537D02*
X89795238Y-83146775D01*
X89795238Y-83146775D02*
X89795238Y-83384870D01*
X89795238Y-83384870D02*
X89842857Y-83480108D01*
X89842857Y-83480108D02*
X89890476Y-83527727D01*
X89890476Y-83527727D02*
X89985714Y-83575346D01*
X89985714Y-83575346D02*
X90176190Y-83575346D01*
X90176190Y-83575346D02*
X90271428Y-83527727D01*
X90271428Y-83527727D02*
X90319047Y-83480108D01*
X90319047Y-83480108D02*
X90366666Y-83384870D01*
X80024299Y-60246666D02*
X79548108Y-60579999D01*
X80024299Y-60818094D02*
X79024299Y-60818094D01*
X79024299Y-60818094D02*
X79024299Y-60437142D01*
X79024299Y-60437142D02*
X79071918Y-60341904D01*
X79071918Y-60341904D02*
X79119537Y-60294285D01*
X79119537Y-60294285D02*
X79214775Y-60246666D01*
X79214775Y-60246666D02*
X79357632Y-60246666D01*
X79357632Y-60246666D02*
X79452870Y-60294285D01*
X79452870Y-60294285D02*
X79500489Y-60341904D01*
X79500489Y-60341904D02*
X79548108Y-60437142D01*
X79548108Y-60437142D02*
X79548108Y-60818094D01*
X80024299Y-59294285D02*
X80024299Y-59865713D01*
X80024299Y-59579999D02*
X79024299Y-59579999D01*
X79024299Y-59579999D02*
X79167156Y-59675237D01*
X79167156Y-59675237D02*
X79262394Y-59770475D01*
X79262394Y-59770475D02*
X79310013Y-59865713D01*
X85106680Y-95633332D02*
X85154299Y-95490475D01*
X85154299Y-95490475D02*
X85154299Y-95252380D01*
X85154299Y-95252380D02*
X85106680Y-95157142D01*
X85106680Y-95157142D02*
X85059060Y-95109523D01*
X85059060Y-95109523D02*
X84963822Y-95061904D01*
X84963822Y-95061904D02*
X84868584Y-95061904D01*
X84868584Y-95061904D02*
X84773346Y-95109523D01*
X84773346Y-95109523D02*
X84725727Y-95157142D01*
X84725727Y-95157142D02*
X84678108Y-95252380D01*
X84678108Y-95252380D02*
X84630489Y-95442856D01*
X84630489Y-95442856D02*
X84582870Y-95538094D01*
X84582870Y-95538094D02*
X84535251Y-95585713D01*
X84535251Y-95585713D02*
X84440013Y-95633332D01*
X84440013Y-95633332D02*
X84344775Y-95633332D01*
X84344775Y-95633332D02*
X84249537Y-95585713D01*
X84249537Y-95585713D02*
X84201918Y-95538094D01*
X84201918Y-95538094D02*
X84154299Y-95442856D01*
X84154299Y-95442856D02*
X84154299Y-95204761D01*
X84154299Y-95204761D02*
X84201918Y-95061904D01*
X84154299Y-94728570D02*
X85154299Y-94490475D01*
X85154299Y-94490475D02*
X84440013Y-94299999D01*
X84440013Y-94299999D02*
X85154299Y-94109523D01*
X85154299Y-94109523D02*
X84154299Y-93871428D01*
X84249537Y-93538094D02*
X84201918Y-93490475D01*
X84201918Y-93490475D02*
X84154299Y-93395237D01*
X84154299Y-93395237D02*
X84154299Y-93157142D01*
X84154299Y-93157142D02*
X84201918Y-93061904D01*
X84201918Y-93061904D02*
X84249537Y-93014285D01*
X84249537Y-93014285D02*
X84344775Y-92966666D01*
X84344775Y-92966666D02*
X84440013Y-92966666D01*
X84440013Y-92966666D02*
X84582870Y-93014285D01*
X84582870Y-93014285D02*
X85154299Y-93585713D01*
X85154299Y-93585713D02*
X85154299Y-92966666D01*
X97106680Y-95533332D02*
X97154299Y-95390475D01*
X97154299Y-95390475D02*
X97154299Y-95152380D01*
X97154299Y-95152380D02*
X97106680Y-95057142D01*
X97106680Y-95057142D02*
X97059060Y-95009523D01*
X97059060Y-95009523D02*
X96963822Y-94961904D01*
X96963822Y-94961904D02*
X96868584Y-94961904D01*
X96868584Y-94961904D02*
X96773346Y-95009523D01*
X96773346Y-95009523D02*
X96725727Y-95057142D01*
X96725727Y-95057142D02*
X96678108Y-95152380D01*
X96678108Y-95152380D02*
X96630489Y-95342856D01*
X96630489Y-95342856D02*
X96582870Y-95438094D01*
X96582870Y-95438094D02*
X96535251Y-95485713D01*
X96535251Y-95485713D02*
X96440013Y-95533332D01*
X96440013Y-95533332D02*
X96344775Y-95533332D01*
X96344775Y-95533332D02*
X96249537Y-95485713D01*
X96249537Y-95485713D02*
X96201918Y-95438094D01*
X96201918Y-95438094D02*
X96154299Y-95342856D01*
X96154299Y-95342856D02*
X96154299Y-95104761D01*
X96154299Y-95104761D02*
X96201918Y-94961904D01*
X96154299Y-94628570D02*
X97154299Y-94390475D01*
X97154299Y-94390475D02*
X96440013Y-94199999D01*
X96440013Y-94199999D02*
X97154299Y-94009523D01*
X97154299Y-94009523D02*
X96154299Y-93771428D01*
X96154299Y-93485713D02*
X96154299Y-92866666D01*
X96154299Y-92866666D02*
X96535251Y-93199999D01*
X96535251Y-93199999D02*
X96535251Y-93057142D01*
X96535251Y-93057142D02*
X96582870Y-92961904D01*
X96582870Y-92961904D02*
X96630489Y-92914285D01*
X96630489Y-92914285D02*
X96725727Y-92866666D01*
X96725727Y-92866666D02*
X96963822Y-92866666D01*
X96963822Y-92866666D02*
X97059060Y-92914285D01*
X97059060Y-92914285D02*
X97106680Y-92961904D01*
X97106680Y-92961904D02*
X97154299Y-93057142D01*
X97154299Y-93057142D02*
X97154299Y-93342856D01*
X97154299Y-93342856D02*
X97106680Y-93438094D01*
X97106680Y-93438094D02*
X97059060Y-93485713D01*
X133106680Y-95533332D02*
X133154299Y-95390475D01*
X133154299Y-95390475D02*
X133154299Y-95152380D01*
X133154299Y-95152380D02*
X133106680Y-95057142D01*
X133106680Y-95057142D02*
X133059060Y-95009523D01*
X133059060Y-95009523D02*
X132963822Y-94961904D01*
X132963822Y-94961904D02*
X132868584Y-94961904D01*
X132868584Y-94961904D02*
X132773346Y-95009523D01*
X132773346Y-95009523D02*
X132725727Y-95057142D01*
X132725727Y-95057142D02*
X132678108Y-95152380D01*
X132678108Y-95152380D02*
X132630489Y-95342856D01*
X132630489Y-95342856D02*
X132582870Y-95438094D01*
X132582870Y-95438094D02*
X132535251Y-95485713D01*
X132535251Y-95485713D02*
X132440013Y-95533332D01*
X132440013Y-95533332D02*
X132344775Y-95533332D01*
X132344775Y-95533332D02*
X132249537Y-95485713D01*
X132249537Y-95485713D02*
X132201918Y-95438094D01*
X132201918Y-95438094D02*
X132154299Y-95342856D01*
X132154299Y-95342856D02*
X132154299Y-95104761D01*
X132154299Y-95104761D02*
X132201918Y-94961904D01*
X132154299Y-94628570D02*
X133154299Y-94390475D01*
X133154299Y-94390475D02*
X132440013Y-94199999D01*
X132440013Y-94199999D02*
X133154299Y-94009523D01*
X133154299Y-94009523D02*
X132154299Y-93771428D01*
X132154299Y-92961904D02*
X132154299Y-93152380D01*
X132154299Y-93152380D02*
X132201918Y-93247618D01*
X132201918Y-93247618D02*
X132249537Y-93295237D01*
X132249537Y-93295237D02*
X132392394Y-93390475D01*
X132392394Y-93390475D02*
X132582870Y-93438094D01*
X132582870Y-93438094D02*
X132963822Y-93438094D01*
X132963822Y-93438094D02*
X133059060Y-93390475D01*
X133059060Y-93390475D02*
X133106680Y-93342856D01*
X133106680Y-93342856D02*
X133154299Y-93247618D01*
X133154299Y-93247618D02*
X133154299Y-93057142D01*
X133154299Y-93057142D02*
X133106680Y-92961904D01*
X133106680Y-92961904D02*
X133059060Y-92914285D01*
X133059060Y-92914285D02*
X132963822Y-92866666D01*
X132963822Y-92866666D02*
X132725727Y-92866666D01*
X132725727Y-92866666D02*
X132630489Y-92914285D01*
X132630489Y-92914285D02*
X132582870Y-92961904D01*
X132582870Y-92961904D02*
X132535251Y-93057142D01*
X132535251Y-93057142D02*
X132535251Y-93247618D01*
X132535251Y-93247618D02*
X132582870Y-93342856D01*
X132582870Y-93342856D02*
X132630489Y-93390475D01*
X132630489Y-93390475D02*
X132725727Y-93438094D01*
X80024299Y-106346666D02*
X79548108Y-106679999D01*
X80024299Y-106918094D02*
X79024299Y-106918094D01*
X79024299Y-106918094D02*
X79024299Y-106537142D01*
X79024299Y-106537142D02*
X79071918Y-106441904D01*
X79071918Y-106441904D02*
X79119537Y-106394285D01*
X79119537Y-106394285D02*
X79214775Y-106346666D01*
X79214775Y-106346666D02*
X79357632Y-106346666D01*
X79357632Y-106346666D02*
X79452870Y-106394285D01*
X79452870Y-106394285D02*
X79500489Y-106441904D01*
X79500489Y-106441904D02*
X79548108Y-106537142D01*
X79548108Y-106537142D02*
X79548108Y-106918094D01*
X79452870Y-105775237D02*
X79405251Y-105870475D01*
X79405251Y-105870475D02*
X79357632Y-105918094D01*
X79357632Y-105918094D02*
X79262394Y-105965713D01*
X79262394Y-105965713D02*
X79214775Y-105965713D01*
X79214775Y-105965713D02*
X79119537Y-105918094D01*
X79119537Y-105918094D02*
X79071918Y-105870475D01*
X79071918Y-105870475D02*
X79024299Y-105775237D01*
X79024299Y-105775237D02*
X79024299Y-105584761D01*
X79024299Y-105584761D02*
X79071918Y-105489523D01*
X79071918Y-105489523D02*
X79119537Y-105441904D01*
X79119537Y-105441904D02*
X79214775Y-105394285D01*
X79214775Y-105394285D02*
X79262394Y-105394285D01*
X79262394Y-105394285D02*
X79357632Y-105441904D01*
X79357632Y-105441904D02*
X79405251Y-105489523D01*
X79405251Y-105489523D02*
X79452870Y-105584761D01*
X79452870Y-105584761D02*
X79452870Y-105775237D01*
X79452870Y-105775237D02*
X79500489Y-105870475D01*
X79500489Y-105870475D02*
X79548108Y-105918094D01*
X79548108Y-105918094D02*
X79643346Y-105965713D01*
X79643346Y-105965713D02*
X79833822Y-105965713D01*
X79833822Y-105965713D02*
X79929060Y-105918094D01*
X79929060Y-105918094D02*
X79976680Y-105870475D01*
X79976680Y-105870475D02*
X80024299Y-105775237D01*
X80024299Y-105775237D02*
X80024299Y-105584761D01*
X80024299Y-105584761D02*
X79976680Y-105489523D01*
X79976680Y-105489523D02*
X79929060Y-105441904D01*
X79929060Y-105441904D02*
X79833822Y-105394285D01*
X79833822Y-105394285D02*
X79643346Y-105394285D01*
X79643346Y-105394285D02*
X79548108Y-105441904D01*
X79548108Y-105441904D02*
X79500489Y-105489523D01*
X79500489Y-105489523D02*
X79452870Y-105584761D01*
X109106680Y-95533332D02*
X109154299Y-95390475D01*
X109154299Y-95390475D02*
X109154299Y-95152380D01*
X109154299Y-95152380D02*
X109106680Y-95057142D01*
X109106680Y-95057142D02*
X109059060Y-95009523D01*
X109059060Y-95009523D02*
X108963822Y-94961904D01*
X108963822Y-94961904D02*
X108868584Y-94961904D01*
X108868584Y-94961904D02*
X108773346Y-95009523D01*
X108773346Y-95009523D02*
X108725727Y-95057142D01*
X108725727Y-95057142D02*
X108678108Y-95152380D01*
X108678108Y-95152380D02*
X108630489Y-95342856D01*
X108630489Y-95342856D02*
X108582870Y-95438094D01*
X108582870Y-95438094D02*
X108535251Y-95485713D01*
X108535251Y-95485713D02*
X108440013Y-95533332D01*
X108440013Y-95533332D02*
X108344775Y-95533332D01*
X108344775Y-95533332D02*
X108249537Y-95485713D01*
X108249537Y-95485713D02*
X108201918Y-95438094D01*
X108201918Y-95438094D02*
X108154299Y-95342856D01*
X108154299Y-95342856D02*
X108154299Y-95104761D01*
X108154299Y-95104761D02*
X108201918Y-94961904D01*
X108154299Y-94628570D02*
X109154299Y-94390475D01*
X109154299Y-94390475D02*
X108440013Y-94199999D01*
X108440013Y-94199999D02*
X109154299Y-94009523D01*
X109154299Y-94009523D02*
X108154299Y-93771428D01*
X108487632Y-92961904D02*
X109154299Y-92961904D01*
X108106680Y-93199999D02*
X108820965Y-93438094D01*
X108820965Y-93438094D02*
X108820965Y-92819047D01*
X75938095Y-82956299D02*
X76509523Y-82956299D01*
X76223809Y-83956299D02*
X76223809Y-82956299D01*
X76842857Y-83956299D02*
X76842857Y-82956299D01*
X76842857Y-82956299D02*
X77223809Y-82956299D01*
X77223809Y-82956299D02*
X77319047Y-83003918D01*
X77319047Y-83003918D02*
X77366666Y-83051537D01*
X77366666Y-83051537D02*
X77414285Y-83146775D01*
X77414285Y-83146775D02*
X77414285Y-83289632D01*
X77414285Y-83289632D02*
X77366666Y-83384870D01*
X77366666Y-83384870D02*
X77319047Y-83432489D01*
X77319047Y-83432489D02*
X77223809Y-83480108D01*
X77223809Y-83480108D02*
X76842857Y-83480108D01*
X77985714Y-83384870D02*
X77890476Y-83337251D01*
X77890476Y-83337251D02*
X77842857Y-83289632D01*
X77842857Y-83289632D02*
X77795238Y-83194394D01*
X77795238Y-83194394D02*
X77795238Y-83146775D01*
X77795238Y-83146775D02*
X77842857Y-83051537D01*
X77842857Y-83051537D02*
X77890476Y-83003918D01*
X77890476Y-83003918D02*
X77985714Y-82956299D01*
X77985714Y-82956299D02*
X78176190Y-82956299D01*
X78176190Y-82956299D02*
X78271428Y-83003918D01*
X78271428Y-83003918D02*
X78319047Y-83051537D01*
X78319047Y-83051537D02*
X78366666Y-83146775D01*
X78366666Y-83146775D02*
X78366666Y-83194394D01*
X78366666Y-83194394D02*
X78319047Y-83289632D01*
X78319047Y-83289632D02*
X78271428Y-83337251D01*
X78271428Y-83337251D02*
X78176190Y-83384870D01*
X78176190Y-83384870D02*
X77985714Y-83384870D01*
X77985714Y-83384870D02*
X77890476Y-83432489D01*
X77890476Y-83432489D02*
X77842857Y-83480108D01*
X77842857Y-83480108D02*
X77795238Y-83575346D01*
X77795238Y-83575346D02*
X77795238Y-83765822D01*
X77795238Y-83765822D02*
X77842857Y-83861060D01*
X77842857Y-83861060D02*
X77890476Y-83908680D01*
X77890476Y-83908680D02*
X77985714Y-83956299D01*
X77985714Y-83956299D02*
X78176190Y-83956299D01*
X78176190Y-83956299D02*
X78271428Y-83908680D01*
X78271428Y-83908680D02*
X78319047Y-83861060D01*
X78319047Y-83861060D02*
X78366666Y-83765822D01*
X78366666Y-83765822D02*
X78366666Y-83575346D01*
X78366666Y-83575346D02*
X78319047Y-83480108D01*
X78319047Y-83480108D02*
X78271428Y-83432489D01*
X78271428Y-83432489D02*
X78176190Y-83384870D01*
X111461905Y-82956299D02*
X112033333Y-82956299D01*
X111747619Y-83956299D02*
X111747619Y-82956299D01*
X112366667Y-83956299D02*
X112366667Y-82956299D01*
X112366667Y-82956299D02*
X112747619Y-82956299D01*
X112747619Y-82956299D02*
X112842857Y-83003918D01*
X112842857Y-83003918D02*
X112890476Y-83051537D01*
X112890476Y-83051537D02*
X112938095Y-83146775D01*
X112938095Y-83146775D02*
X112938095Y-83289632D01*
X112938095Y-83289632D02*
X112890476Y-83384870D01*
X112890476Y-83384870D02*
X112842857Y-83432489D01*
X112842857Y-83432489D02*
X112747619Y-83480108D01*
X112747619Y-83480108D02*
X112366667Y-83480108D01*
X113890476Y-83956299D02*
X113319048Y-83956299D01*
X113604762Y-83956299D02*
X113604762Y-82956299D01*
X113604762Y-82956299D02*
X113509524Y-83099156D01*
X113509524Y-83099156D02*
X113414286Y-83194394D01*
X113414286Y-83194394D02*
X113319048Y-83242013D01*
X114842857Y-83956299D02*
X114271429Y-83956299D01*
X114557143Y-83956299D02*
X114557143Y-82956299D01*
X114557143Y-82956299D02*
X114461905Y-83099156D01*
X114461905Y-83099156D02*
X114366667Y-83194394D01*
X114366667Y-83194394D02*
X114271429Y-83242013D01*
X145694299Y-72008094D02*
X144694299Y-72008094D01*
X144694299Y-72008094D02*
X144694299Y-71769999D01*
X144694299Y-71769999D02*
X144741918Y-71627142D01*
X144741918Y-71627142D02*
X144837156Y-71531904D01*
X144837156Y-71531904D02*
X144932394Y-71484285D01*
X144932394Y-71484285D02*
X145122870Y-71436666D01*
X145122870Y-71436666D02*
X145265727Y-71436666D01*
X145265727Y-71436666D02*
X145456203Y-71484285D01*
X145456203Y-71484285D02*
X145551441Y-71531904D01*
X145551441Y-71531904D02*
X145646680Y-71627142D01*
X145646680Y-71627142D02*
X145694299Y-71769999D01*
X145694299Y-71769999D02*
X145694299Y-72008094D01*
X144694299Y-71103332D02*
X144694299Y-70436666D01*
X144694299Y-70436666D02*
X145694299Y-70865237D01*
X73694299Y-72008094D02*
X72694299Y-72008094D01*
X72694299Y-72008094D02*
X72694299Y-71769999D01*
X72694299Y-71769999D02*
X72741918Y-71627142D01*
X72741918Y-71627142D02*
X72837156Y-71531904D01*
X72837156Y-71531904D02*
X72932394Y-71484285D01*
X72932394Y-71484285D02*
X73122870Y-71436666D01*
X73122870Y-71436666D02*
X73265727Y-71436666D01*
X73265727Y-71436666D02*
X73456203Y-71484285D01*
X73456203Y-71484285D02*
X73551441Y-71531904D01*
X73551441Y-71531904D02*
X73646680Y-71627142D01*
X73646680Y-71627142D02*
X73694299Y-71769999D01*
X73694299Y-71769999D02*
X73694299Y-72008094D01*
X73694299Y-70484285D02*
X73694299Y-71055713D01*
X73694299Y-70769999D02*
X72694299Y-70769999D01*
X72694299Y-70769999D02*
X72837156Y-70865237D01*
X72837156Y-70865237D02*
X72932394Y-70960475D01*
X72932394Y-70960475D02*
X72980013Y-71055713D01*
X73006680Y-95533332D02*
X73054299Y-95390475D01*
X73054299Y-95390475D02*
X73054299Y-95152380D01*
X73054299Y-95152380D02*
X73006680Y-95057142D01*
X73006680Y-95057142D02*
X72959060Y-95009523D01*
X72959060Y-95009523D02*
X72863822Y-94961904D01*
X72863822Y-94961904D02*
X72768584Y-94961904D01*
X72768584Y-94961904D02*
X72673346Y-95009523D01*
X72673346Y-95009523D02*
X72625727Y-95057142D01*
X72625727Y-95057142D02*
X72578108Y-95152380D01*
X72578108Y-95152380D02*
X72530489Y-95342856D01*
X72530489Y-95342856D02*
X72482870Y-95438094D01*
X72482870Y-95438094D02*
X72435251Y-95485713D01*
X72435251Y-95485713D02*
X72340013Y-95533332D01*
X72340013Y-95533332D02*
X72244775Y-95533332D01*
X72244775Y-95533332D02*
X72149537Y-95485713D01*
X72149537Y-95485713D02*
X72101918Y-95438094D01*
X72101918Y-95438094D02*
X72054299Y-95342856D01*
X72054299Y-95342856D02*
X72054299Y-95104761D01*
X72054299Y-95104761D02*
X72101918Y-94961904D01*
X72054299Y-94628570D02*
X73054299Y-94390475D01*
X73054299Y-94390475D02*
X72340013Y-94199999D01*
X72340013Y-94199999D02*
X73054299Y-94009523D01*
X73054299Y-94009523D02*
X72054299Y-93771428D01*
X73054299Y-92866666D02*
X73054299Y-93438094D01*
X73054299Y-93152380D02*
X72054299Y-93152380D01*
X72054299Y-93152380D02*
X72197156Y-93247618D01*
X72197156Y-93247618D02*
X72292394Y-93342856D01*
X72292394Y-93342856D02*
X72340013Y-93438094D01*
X109694299Y-118444285D02*
X108694299Y-118444285D01*
X108694299Y-118444285D02*
X108694299Y-118206190D01*
X108694299Y-118206190D02*
X108741918Y-118063333D01*
X108741918Y-118063333D02*
X108837156Y-117968095D01*
X108837156Y-117968095D02*
X108932394Y-117920476D01*
X108932394Y-117920476D02*
X109122870Y-117872857D01*
X109122870Y-117872857D02*
X109265727Y-117872857D01*
X109265727Y-117872857D02*
X109456203Y-117920476D01*
X109456203Y-117920476D02*
X109551441Y-117968095D01*
X109551441Y-117968095D02*
X109646680Y-118063333D01*
X109646680Y-118063333D02*
X109694299Y-118206190D01*
X109694299Y-118206190D02*
X109694299Y-118444285D01*
X109694299Y-116920476D02*
X109694299Y-117491904D01*
X109694299Y-117206190D02*
X108694299Y-117206190D01*
X108694299Y-117206190D02*
X108837156Y-117301428D01*
X108837156Y-117301428D02*
X108932394Y-117396666D01*
X108932394Y-117396666D02*
X108980013Y-117491904D01*
X109694299Y-115968095D02*
X109694299Y-116539523D01*
X109694299Y-116253809D02*
X108694299Y-116253809D01*
X108694299Y-116253809D02*
X108837156Y-116349047D01*
X108837156Y-116349047D02*
X108932394Y-116444285D01*
X108932394Y-116444285D02*
X108980013Y-116539523D01*
X111938095Y-47216299D02*
X112509523Y-47216299D01*
X112223809Y-48216299D02*
X112223809Y-47216299D01*
X112842857Y-48216299D02*
X112842857Y-47216299D01*
X112842857Y-47216299D02*
X113223809Y-47216299D01*
X113223809Y-47216299D02*
X113319047Y-47263918D01*
X113319047Y-47263918D02*
X113366666Y-47311537D01*
X113366666Y-47311537D02*
X113414285Y-47406775D01*
X113414285Y-47406775D02*
X113414285Y-47549632D01*
X113414285Y-47549632D02*
X113366666Y-47644870D01*
X113366666Y-47644870D02*
X113319047Y-47692489D01*
X113319047Y-47692489D02*
X113223809Y-47740108D01*
X113223809Y-47740108D02*
X112842857Y-47740108D01*
X114271428Y-47549632D02*
X114271428Y-48216299D01*
X114033333Y-47168680D02*
X113795238Y-47882965D01*
X113795238Y-47882965D02*
X114414285Y-47882965D01*
X147461905Y-82956299D02*
X148033333Y-82956299D01*
X147747619Y-83956299D02*
X147747619Y-82956299D01*
X148366667Y-83956299D02*
X148366667Y-82956299D01*
X148366667Y-82956299D02*
X148747619Y-82956299D01*
X148747619Y-82956299D02*
X148842857Y-83003918D01*
X148842857Y-83003918D02*
X148890476Y-83051537D01*
X148890476Y-83051537D02*
X148938095Y-83146775D01*
X148938095Y-83146775D02*
X148938095Y-83289632D01*
X148938095Y-83289632D02*
X148890476Y-83384870D01*
X148890476Y-83384870D02*
X148842857Y-83432489D01*
X148842857Y-83432489D02*
X148747619Y-83480108D01*
X148747619Y-83480108D02*
X148366667Y-83480108D01*
X149890476Y-83956299D02*
X149319048Y-83956299D01*
X149604762Y-83956299D02*
X149604762Y-82956299D01*
X149604762Y-82956299D02*
X149509524Y-83099156D01*
X149509524Y-83099156D02*
X149414286Y-83194394D01*
X149414286Y-83194394D02*
X149319048Y-83242013D01*
X150747619Y-83289632D02*
X150747619Y-83956299D01*
X150509524Y-82908680D02*
X150271429Y-83622965D01*
X150271429Y-83622965D02*
X150890476Y-83622965D01*
X104024299Y-60246666D02*
X103548108Y-60579999D01*
X104024299Y-60818094D02*
X103024299Y-60818094D01*
X103024299Y-60818094D02*
X103024299Y-60437142D01*
X103024299Y-60437142D02*
X103071918Y-60341904D01*
X103071918Y-60341904D02*
X103119537Y-60294285D01*
X103119537Y-60294285D02*
X103214775Y-60246666D01*
X103214775Y-60246666D02*
X103357632Y-60246666D01*
X103357632Y-60246666D02*
X103452870Y-60294285D01*
X103452870Y-60294285D02*
X103500489Y-60341904D01*
X103500489Y-60341904D02*
X103548108Y-60437142D01*
X103548108Y-60437142D02*
X103548108Y-60818094D01*
X103024299Y-59913332D02*
X103024299Y-59294285D01*
X103024299Y-59294285D02*
X103405251Y-59627618D01*
X103405251Y-59627618D02*
X103405251Y-59484761D01*
X103405251Y-59484761D02*
X103452870Y-59389523D01*
X103452870Y-59389523D02*
X103500489Y-59341904D01*
X103500489Y-59341904D02*
X103595727Y-59294285D01*
X103595727Y-59294285D02*
X103833822Y-59294285D01*
X103833822Y-59294285D02*
X103929060Y-59341904D01*
X103929060Y-59341904D02*
X103976680Y-59389523D01*
X103976680Y-59389523D02*
X104024299Y-59484761D01*
X104024299Y-59484761D02*
X104024299Y-59770475D01*
X104024299Y-59770475D02*
X103976680Y-59865713D01*
X103976680Y-59865713D02*
X103929060Y-59913332D01*
X145694299Y-118444285D02*
X144694299Y-118444285D01*
X144694299Y-118444285D02*
X144694299Y-118206190D01*
X144694299Y-118206190D02*
X144741918Y-118063333D01*
X144741918Y-118063333D02*
X144837156Y-117968095D01*
X144837156Y-117968095D02*
X144932394Y-117920476D01*
X144932394Y-117920476D02*
X145122870Y-117872857D01*
X145122870Y-117872857D02*
X145265727Y-117872857D01*
X145265727Y-117872857D02*
X145456203Y-117920476D01*
X145456203Y-117920476D02*
X145551441Y-117968095D01*
X145551441Y-117968095D02*
X145646680Y-118063333D01*
X145646680Y-118063333D02*
X145694299Y-118206190D01*
X145694299Y-118206190D02*
X145694299Y-118444285D01*
X145694299Y-116920476D02*
X145694299Y-117491904D01*
X145694299Y-117206190D02*
X144694299Y-117206190D01*
X144694299Y-117206190D02*
X144837156Y-117301428D01*
X144837156Y-117301428D02*
X144932394Y-117396666D01*
X144932394Y-117396666D02*
X144980013Y-117491904D01*
X145027632Y-116063333D02*
X145694299Y-116063333D01*
X144646680Y-116301428D02*
X145360965Y-116539523D01*
X145360965Y-116539523D02*
X145360965Y-115920476D01*
X121694299Y-72008094D02*
X120694299Y-72008094D01*
X120694299Y-72008094D02*
X120694299Y-71769999D01*
X120694299Y-71769999D02*
X120741918Y-71627142D01*
X120741918Y-71627142D02*
X120837156Y-71531904D01*
X120837156Y-71531904D02*
X120932394Y-71484285D01*
X120932394Y-71484285D02*
X121122870Y-71436666D01*
X121122870Y-71436666D02*
X121265727Y-71436666D01*
X121265727Y-71436666D02*
X121456203Y-71484285D01*
X121456203Y-71484285D02*
X121551441Y-71531904D01*
X121551441Y-71531904D02*
X121646680Y-71627142D01*
X121646680Y-71627142D02*
X121694299Y-71769999D01*
X121694299Y-71769999D02*
X121694299Y-72008094D01*
X120694299Y-70531904D02*
X120694299Y-71008094D01*
X120694299Y-71008094D02*
X121170489Y-71055713D01*
X121170489Y-71055713D02*
X121122870Y-71008094D01*
X121122870Y-71008094D02*
X121075251Y-70912856D01*
X121075251Y-70912856D02*
X121075251Y-70674761D01*
X121075251Y-70674761D02*
X121122870Y-70579523D01*
X121122870Y-70579523D02*
X121170489Y-70531904D01*
X121170489Y-70531904D02*
X121265727Y-70484285D01*
X121265727Y-70484285D02*
X121503822Y-70484285D01*
X121503822Y-70484285D02*
X121599060Y-70531904D01*
X121599060Y-70531904D02*
X121646680Y-70579523D01*
X121646680Y-70579523D02*
X121694299Y-70674761D01*
X121694299Y-70674761D02*
X121694299Y-70912856D01*
X121694299Y-70912856D02*
X121646680Y-71008094D01*
X121646680Y-71008094D02*
X121599060Y-71055713D01*
X121106680Y-95533332D02*
X121154299Y-95390475D01*
X121154299Y-95390475D02*
X121154299Y-95152380D01*
X121154299Y-95152380D02*
X121106680Y-95057142D01*
X121106680Y-95057142D02*
X121059060Y-95009523D01*
X121059060Y-95009523D02*
X120963822Y-94961904D01*
X120963822Y-94961904D02*
X120868584Y-94961904D01*
X120868584Y-94961904D02*
X120773346Y-95009523D01*
X120773346Y-95009523D02*
X120725727Y-95057142D01*
X120725727Y-95057142D02*
X120678108Y-95152380D01*
X120678108Y-95152380D02*
X120630489Y-95342856D01*
X120630489Y-95342856D02*
X120582870Y-95438094D01*
X120582870Y-95438094D02*
X120535251Y-95485713D01*
X120535251Y-95485713D02*
X120440013Y-95533332D01*
X120440013Y-95533332D02*
X120344775Y-95533332D01*
X120344775Y-95533332D02*
X120249537Y-95485713D01*
X120249537Y-95485713D02*
X120201918Y-95438094D01*
X120201918Y-95438094D02*
X120154299Y-95342856D01*
X120154299Y-95342856D02*
X120154299Y-95104761D01*
X120154299Y-95104761D02*
X120201918Y-94961904D01*
X120154299Y-94628570D02*
X121154299Y-94390475D01*
X121154299Y-94390475D02*
X120440013Y-94199999D01*
X120440013Y-94199999D02*
X121154299Y-94009523D01*
X121154299Y-94009523D02*
X120154299Y-93771428D01*
X120154299Y-92914285D02*
X120154299Y-93390475D01*
X120154299Y-93390475D02*
X120630489Y-93438094D01*
X120630489Y-93438094D02*
X120582870Y-93390475D01*
X120582870Y-93390475D02*
X120535251Y-93295237D01*
X120535251Y-93295237D02*
X120535251Y-93057142D01*
X120535251Y-93057142D02*
X120582870Y-92961904D01*
X120582870Y-92961904D02*
X120630489Y-92914285D01*
X120630489Y-92914285D02*
X120725727Y-92866666D01*
X120725727Y-92866666D02*
X120963822Y-92866666D01*
X120963822Y-92866666D02*
X121059060Y-92914285D01*
X121059060Y-92914285D02*
X121106680Y-92961904D01*
X121106680Y-92961904D02*
X121154299Y-93057142D01*
X121154299Y-93057142D02*
X121154299Y-93295237D01*
X121154299Y-93295237D02*
X121106680Y-93390475D01*
X121106680Y-93390475D02*
X121059060Y-93438094D01*
X97694299Y-118444285D02*
X96694299Y-118444285D01*
X96694299Y-118444285D02*
X96694299Y-118206190D01*
X96694299Y-118206190D02*
X96741918Y-118063333D01*
X96741918Y-118063333D02*
X96837156Y-117968095D01*
X96837156Y-117968095D02*
X96932394Y-117920476D01*
X96932394Y-117920476D02*
X97122870Y-117872857D01*
X97122870Y-117872857D02*
X97265727Y-117872857D01*
X97265727Y-117872857D02*
X97456203Y-117920476D01*
X97456203Y-117920476D02*
X97551441Y-117968095D01*
X97551441Y-117968095D02*
X97646680Y-118063333D01*
X97646680Y-118063333D02*
X97694299Y-118206190D01*
X97694299Y-118206190D02*
X97694299Y-118444285D01*
X97694299Y-116920476D02*
X97694299Y-117491904D01*
X97694299Y-117206190D02*
X96694299Y-117206190D01*
X96694299Y-117206190D02*
X96837156Y-117301428D01*
X96837156Y-117301428D02*
X96932394Y-117396666D01*
X96932394Y-117396666D02*
X96980013Y-117491904D01*
X96694299Y-116301428D02*
X96694299Y-116206190D01*
X96694299Y-116206190D02*
X96741918Y-116110952D01*
X96741918Y-116110952D02*
X96789537Y-116063333D01*
X96789537Y-116063333D02*
X96884775Y-116015714D01*
X96884775Y-116015714D02*
X97075251Y-115968095D01*
X97075251Y-115968095D02*
X97313346Y-115968095D01*
X97313346Y-115968095D02*
X97503822Y-116015714D01*
X97503822Y-116015714D02*
X97599060Y-116063333D01*
X97599060Y-116063333D02*
X97646680Y-116110952D01*
X97646680Y-116110952D02*
X97694299Y-116206190D01*
X97694299Y-116206190D02*
X97694299Y-116301428D01*
X97694299Y-116301428D02*
X97646680Y-116396666D01*
X97646680Y-116396666D02*
X97599060Y-116444285D01*
X97599060Y-116444285D02*
X97503822Y-116491904D01*
X97503822Y-116491904D02*
X97313346Y-116539523D01*
X97313346Y-116539523D02*
X97075251Y-116539523D01*
X97075251Y-116539523D02*
X96884775Y-116491904D01*
X96884775Y-116491904D02*
X96789537Y-116444285D01*
X96789537Y-116444285D02*
X96741918Y-116396666D01*
X96741918Y-116396666D02*
X96694299Y-116301428D01*
X75938095Y-47216299D02*
X76509523Y-47216299D01*
X76223809Y-48216299D02*
X76223809Y-47216299D01*
X76842857Y-48216299D02*
X76842857Y-47216299D01*
X76842857Y-47216299D02*
X77223809Y-47216299D01*
X77223809Y-47216299D02*
X77319047Y-47263918D01*
X77319047Y-47263918D02*
X77366666Y-47311537D01*
X77366666Y-47311537D02*
X77414285Y-47406775D01*
X77414285Y-47406775D02*
X77414285Y-47549632D01*
X77414285Y-47549632D02*
X77366666Y-47644870D01*
X77366666Y-47644870D02*
X77319047Y-47692489D01*
X77319047Y-47692489D02*
X77223809Y-47740108D01*
X77223809Y-47740108D02*
X76842857Y-47740108D01*
X78366666Y-48216299D02*
X77795238Y-48216299D01*
X78080952Y-48216299D02*
X78080952Y-47216299D01*
X78080952Y-47216299D02*
X77985714Y-47359156D01*
X77985714Y-47359156D02*
X77890476Y-47454394D01*
X77890476Y-47454394D02*
X77795238Y-47502013D01*
X147461905Y-75456299D02*
X148033333Y-75456299D01*
X147747619Y-76456299D02*
X147747619Y-75456299D01*
X148366667Y-76456299D02*
X148366667Y-75456299D01*
X148366667Y-75456299D02*
X148747619Y-75456299D01*
X148747619Y-75456299D02*
X148842857Y-75503918D01*
X148842857Y-75503918D02*
X148890476Y-75551537D01*
X148890476Y-75551537D02*
X148938095Y-75646775D01*
X148938095Y-75646775D02*
X148938095Y-75789632D01*
X148938095Y-75789632D02*
X148890476Y-75884870D01*
X148890476Y-75884870D02*
X148842857Y-75932489D01*
X148842857Y-75932489D02*
X148747619Y-75980108D01*
X148747619Y-75980108D02*
X148366667Y-75980108D01*
X149890476Y-76456299D02*
X149319048Y-76456299D01*
X149604762Y-76456299D02*
X149604762Y-75456299D01*
X149604762Y-75456299D02*
X149509524Y-75599156D01*
X149509524Y-75599156D02*
X149414286Y-75694394D01*
X149414286Y-75694394D02*
X149319048Y-75742013D01*
X150795238Y-75456299D02*
X150319048Y-75456299D01*
X150319048Y-75456299D02*
X150271429Y-75932489D01*
X150271429Y-75932489D02*
X150319048Y-75884870D01*
X150319048Y-75884870D02*
X150414286Y-75837251D01*
X150414286Y-75837251D02*
X150652381Y-75837251D01*
X150652381Y-75837251D02*
X150747619Y-75884870D01*
X150747619Y-75884870D02*
X150795238Y-75932489D01*
X150795238Y-75932489D02*
X150842857Y-76027727D01*
X150842857Y-76027727D02*
X150842857Y-76265822D01*
X150842857Y-76265822D02*
X150795238Y-76361060D01*
X150795238Y-76361060D02*
X150747619Y-76408680D01*
X150747619Y-76408680D02*
X150652381Y-76456299D01*
X150652381Y-76456299D02*
X150414286Y-76456299D01*
X150414286Y-76456299D02*
X150319048Y-76408680D01*
X150319048Y-76408680D02*
X150271429Y-76361060D01*
X73694299Y-117968094D02*
X72694299Y-117968094D01*
X72694299Y-117968094D02*
X72694299Y-117729999D01*
X72694299Y-117729999D02*
X72741918Y-117587142D01*
X72741918Y-117587142D02*
X72837156Y-117491904D01*
X72837156Y-117491904D02*
X72932394Y-117444285D01*
X72932394Y-117444285D02*
X73122870Y-117396666D01*
X73122870Y-117396666D02*
X73265727Y-117396666D01*
X73265727Y-117396666D02*
X73456203Y-117444285D01*
X73456203Y-117444285D02*
X73551441Y-117491904D01*
X73551441Y-117491904D02*
X73646680Y-117587142D01*
X73646680Y-117587142D02*
X73694299Y-117729999D01*
X73694299Y-117729999D02*
X73694299Y-117968094D01*
X73122870Y-116825237D02*
X73075251Y-116920475D01*
X73075251Y-116920475D02*
X73027632Y-116968094D01*
X73027632Y-116968094D02*
X72932394Y-117015713D01*
X72932394Y-117015713D02*
X72884775Y-117015713D01*
X72884775Y-117015713D02*
X72789537Y-116968094D01*
X72789537Y-116968094D02*
X72741918Y-116920475D01*
X72741918Y-116920475D02*
X72694299Y-116825237D01*
X72694299Y-116825237D02*
X72694299Y-116634761D01*
X72694299Y-116634761D02*
X72741918Y-116539523D01*
X72741918Y-116539523D02*
X72789537Y-116491904D01*
X72789537Y-116491904D02*
X72884775Y-116444285D01*
X72884775Y-116444285D02*
X72932394Y-116444285D01*
X72932394Y-116444285D02*
X73027632Y-116491904D01*
X73027632Y-116491904D02*
X73075251Y-116539523D01*
X73075251Y-116539523D02*
X73122870Y-116634761D01*
X73122870Y-116634761D02*
X73122870Y-116825237D01*
X73122870Y-116825237D02*
X73170489Y-116920475D01*
X73170489Y-116920475D02*
X73218108Y-116968094D01*
X73218108Y-116968094D02*
X73313346Y-117015713D01*
X73313346Y-117015713D02*
X73503822Y-117015713D01*
X73503822Y-117015713D02*
X73599060Y-116968094D01*
X73599060Y-116968094D02*
X73646680Y-116920475D01*
X73646680Y-116920475D02*
X73694299Y-116825237D01*
X73694299Y-116825237D02*
X73694299Y-116634761D01*
X73694299Y-116634761D02*
X73646680Y-116539523D01*
X73646680Y-116539523D02*
X73599060Y-116491904D01*
X73599060Y-116491904D02*
X73503822Y-116444285D01*
X73503822Y-116444285D02*
X73313346Y-116444285D01*
X73313346Y-116444285D02*
X73218108Y-116491904D01*
X73218108Y-116491904D02*
X73170489Y-116539523D01*
X73170489Y-116539523D02*
X73122870Y-116634761D01*
D12*
%TO.C,D13*%
X135655000Y-119790000D02*
X138745000Y-119790000D01*
X137200462Y-114240001D02*
G75*
G03*
X135655170Y-119789999I-462J-2989999D01*
G01*
X138744830Y-119790000D02*
G75*
G03*
X137199538Y-114240000I-1544830J2560000D01*
G01*
X139700000Y-117230000D02*
G75*
G03*
X139700000Y-117230000I-2500000J0D01*
G01*
%TO.C,TP12*%
X126950000Y-85900000D02*
G75*
G03*
X126950000Y-85900000I-1750000J0D01*
G01*
%TO.C,R11*%
X113200000Y-102300000D02*
X113200000Y-103070000D01*
X114570000Y-103070000D02*
X111830000Y-103070000D01*
X111830000Y-103070000D02*
X111830000Y-109610000D01*
X114570000Y-109610000D02*
X114570000Y-103070000D01*
X111830000Y-109610000D02*
X114570000Y-109610000D01*
X113200000Y-110380000D02*
X113200000Y-109610000D01*
%TO.C,TP13*%
X138950000Y-85900000D02*
G75*
G03*
X138950000Y-85900000I-1750000J0D01*
G01*
%TO.C,D6*%
X135655000Y-73830000D02*
X138745000Y-73830000D01*
X137200462Y-68280001D02*
G75*
G03*
X135655170Y-73829999I-462J-2989999D01*
G01*
X138744830Y-73830000D02*
G75*
G03*
X137199538Y-68280000I-1544830J2560000D01*
G01*
X139700000Y-71270000D02*
G75*
G03*
X139700000Y-71270000I-2500000J0D01*
G01*
D13*
%TO.C,J1*%
X69700000Y-63000000D02*
X69700000Y-63000000D01*
X69600000Y-63000000D02*
X69600000Y-63000000D01*
D14*
X69100000Y-75050000D02*
X28300000Y-75050000D01*
X69100000Y-42950000D02*
X69100000Y-75050000D01*
X28300000Y-75050000D02*
X28300000Y-42950000D01*
X28300000Y-42950000D02*
X69100000Y-42950000D01*
D13*
X69600000Y-63000000D02*
G75*
G03*
X69700000Y-63000000I50000J0D01*
G01*
X69700000Y-63000000D02*
G75*
G03*
X69600000Y-63000000I-50000J0D01*
G01*
D12*
%TO.C,TP2*%
X90950000Y-50160000D02*
G75*
G03*
X90950000Y-50160000I-1750000J0D01*
G01*
%TO.C,TP10*%
X102950000Y-85900000D02*
G75*
G03*
X102950000Y-85900000I-1750000J0D01*
G01*
%TO.C,TP6*%
X138950000Y-50160000D02*
G75*
G03*
X138950000Y-50160000I-1750000J0D01*
G01*
%TO.C,R9*%
X89200000Y-102140000D02*
X89200000Y-102910000D01*
X90570000Y-102910000D02*
X87830000Y-102910000D01*
X87830000Y-102910000D02*
X87830000Y-109450000D01*
X90570000Y-109450000D02*
X90570000Y-102910000D01*
X87830000Y-109450000D02*
X90570000Y-109450000D01*
X89200000Y-110220000D02*
X89200000Y-109450000D01*
%TO.C,D9*%
X87655000Y-119790000D02*
X90745000Y-119790000D01*
X89200462Y-114240001D02*
G75*
G03*
X87655170Y-119789999I-462J-2989999D01*
G01*
X90744830Y-119790000D02*
G75*
G03*
X89199538Y-114240000I-1544830J2560000D01*
G01*
X91700000Y-117230000D02*
G75*
G03*
X91700000Y-117230000I-2500000J0D01*
G01*
%TO.C,D3*%
X99655000Y-73830000D02*
X102745000Y-73830000D01*
X101200462Y-68280001D02*
G75*
G03*
X99655170Y-73829999I-462J-2989999D01*
G01*
X102744830Y-73830000D02*
G75*
G03*
X101199538Y-68280000I-1544830J2560000D01*
G01*
X103700000Y-71270000D02*
G75*
G03*
X103700000Y-71270000I-2500000J0D01*
G01*
%TO.C,D4*%
X111655000Y-73830000D02*
X114745000Y-73830000D01*
X113200462Y-68280001D02*
G75*
G03*
X111655170Y-73829999I-462J-2989999D01*
G01*
X114744830Y-73830000D02*
G75*
G03*
X113199538Y-68280000I-1544830J2560000D01*
G01*
X115700000Y-71270000D02*
G75*
G03*
X115700000Y-71270000I-2500000J0D01*
G01*
%TO.C,R7*%
X149200000Y-56040000D02*
X149200000Y-56810000D01*
X150570000Y-56810000D02*
X147830000Y-56810000D01*
X147830000Y-56810000D02*
X147830000Y-63350000D01*
X150570000Y-63350000D02*
X150570000Y-56810000D01*
X147830000Y-63350000D02*
X150570000Y-63350000D01*
X149200000Y-64120000D02*
X149200000Y-63350000D01*
%TO.C,R14*%
X149200000Y-102300000D02*
X149200000Y-103070000D01*
X150570000Y-103070000D02*
X147830000Y-103070000D01*
X147830000Y-103070000D02*
X147830000Y-109610000D01*
X150570000Y-109610000D02*
X150570000Y-103070000D01*
X147830000Y-109610000D02*
X150570000Y-109610000D01*
X149200000Y-110380000D02*
X149200000Y-109610000D01*
%TO.C,TP7*%
X150950000Y-50160000D02*
G75*
G03*
X150950000Y-50160000I-1750000J0D01*
G01*
%TO.C,G\u002A\u002A\u002A*%
G36*
X40966635Y-81297030D02*
G01*
X40983947Y-81304312D01*
X40985581Y-81320141D01*
X40972502Y-81346073D01*
X40967790Y-81353222D01*
X40949790Y-81377008D01*
X40934781Y-81386193D01*
X40916974Y-81382386D01*
X40898935Y-81372357D01*
X40876427Y-81355320D01*
X40860620Y-81337591D01*
X40859649Y-81335916D01*
X40856171Y-81319838D01*
X40866698Y-81308440D01*
X40892680Y-81300942D01*
X40932677Y-81296742D01*
X40966635Y-81297030D01*
G37*
G36*
X30688221Y-84278868D02*
G01*
X30719808Y-84292176D01*
X30740898Y-84315787D01*
X30747838Y-84345274D01*
X30747352Y-84350523D01*
X30736747Y-84367119D01*
X30712356Y-84374162D01*
X30676248Y-84371499D01*
X30630793Y-84359084D01*
X30601869Y-84347861D01*
X30579696Y-84337263D01*
X30571738Y-84331907D01*
X30567237Y-84318148D01*
X30577312Y-84304086D01*
X30598219Y-84291426D01*
X30626212Y-84281874D01*
X30657547Y-84277136D01*
X30688221Y-84278868D01*
G37*
G36*
X41311240Y-82477883D02*
G01*
X41326344Y-82498010D01*
X41344260Y-82534102D01*
X41347985Y-82542365D01*
X41366812Y-82588486D01*
X41374806Y-82619971D01*
X41371264Y-82637586D01*
X41355480Y-82642097D01*
X41326751Y-82634268D01*
X41284372Y-82614864D01*
X41282251Y-82613791D01*
X41244349Y-82591797D01*
X41223768Y-82571592D01*
X41219910Y-82550664D01*
X41232172Y-82526498D01*
X41255323Y-82501043D01*
X41278476Y-82480624D01*
X41296200Y-82472496D01*
X41311240Y-82477883D01*
G37*
G36*
X30551296Y-84067081D02*
G01*
X30553317Y-84096300D01*
X30550042Y-84125679D01*
X30542717Y-84149108D01*
X30532589Y-84160476D01*
X30532226Y-84160574D01*
X30518778Y-84159774D01*
X30493898Y-84155370D01*
X30473842Y-84150888D01*
X30432339Y-84137287D01*
X30399103Y-84119465D01*
X30378035Y-84099830D01*
X30372935Y-84088596D01*
X30379173Y-84076270D01*
X30399827Y-84063349D01*
X30431011Y-84051420D01*
X30468838Y-84042067D01*
X30497156Y-84037907D01*
X30544894Y-84032954D01*
X30551296Y-84067081D01*
G37*
G36*
X41251951Y-82059297D02*
G01*
X41283920Y-82062371D01*
X41314100Y-82066669D01*
X41336380Y-82071507D01*
X41344103Y-82074945D01*
X41344737Y-82087012D01*
X41333625Y-82105145D01*
X41314659Y-82125651D01*
X41291732Y-82144835D01*
X41268734Y-82159004D01*
X41249789Y-82164464D01*
X41239036Y-82157400D01*
X41223438Y-82139432D01*
X41215228Y-82127831D01*
X41196960Y-82095964D01*
X41192045Y-82074760D01*
X41200267Y-82062407D01*
X41207091Y-82059567D01*
X41224304Y-82058134D01*
X41251951Y-82059297D01*
G37*
G36*
X31642020Y-84658256D02*
G01*
X31645680Y-84661176D01*
X31651506Y-84675259D01*
X31655089Y-84699604D01*
X31656333Y-84728093D01*
X31655141Y-84754611D01*
X31651416Y-84773039D01*
X31647530Y-84777798D01*
X31634625Y-84777012D01*
X31608904Y-84772872D01*
X31575501Y-84766227D01*
X31569192Y-84764857D01*
X31529137Y-84754477D01*
X31506917Y-84743856D01*
X31501990Y-84731350D01*
X31513813Y-84715315D01*
X31541841Y-84694108D01*
X31545095Y-84691919D01*
X31588399Y-84666395D01*
X31620593Y-84655208D01*
X31642020Y-84658256D01*
G37*
G36*
X41017968Y-81566106D02*
G01*
X41035703Y-81577905D01*
X41058109Y-81596247D01*
X41080621Y-81616895D01*
X41098672Y-81635614D01*
X41107696Y-81648168D01*
X41108017Y-81649638D01*
X41099780Y-81656667D01*
X41078946Y-81663615D01*
X41051327Y-81669482D01*
X41022734Y-81673273D01*
X40998979Y-81673989D01*
X40985875Y-81670634D01*
X40985843Y-81670603D01*
X40981365Y-81657219D01*
X40979296Y-81633021D01*
X40979504Y-81604757D01*
X40981855Y-81579177D01*
X40986215Y-81563027D01*
X40988015Y-81560952D01*
X41002261Y-81560494D01*
X41017968Y-81566106D01*
G37*
G36*
X31564376Y-84412190D02*
G01*
X31575196Y-84432863D01*
X31585319Y-84460440D01*
X31592814Y-84489293D01*
X31595750Y-84513795D01*
X31595127Y-84521601D01*
X31584136Y-84533688D01*
X31559257Y-84539302D01*
X31523994Y-84538088D01*
X31491447Y-84532151D01*
X31462239Y-84521596D01*
X31433198Y-84505512D01*
X31409322Y-84487361D01*
X31395610Y-84470607D01*
X31394083Y-84464707D01*
X31402153Y-84457243D01*
X31423222Y-84446439D01*
X31452585Y-84434071D01*
X31485533Y-84421915D01*
X31517359Y-84411748D01*
X31543356Y-84405348D01*
X31554789Y-84404049D01*
X31564376Y-84412190D01*
G37*
G36*
X40946412Y-82748333D02*
G01*
X40956943Y-82760446D01*
X40968550Y-82786748D01*
X40979861Y-82823158D01*
X40989502Y-82865595D01*
X40993226Y-82887513D01*
X40996235Y-82913198D01*
X40994209Y-82925551D01*
X40985828Y-82929296D01*
X40981508Y-82929448D01*
X40964257Y-82925465D01*
X40936947Y-82915067D01*
X40908150Y-82901789D01*
X40864034Y-82877392D01*
X40837102Y-82856625D01*
X40826630Y-82838751D01*
X40831478Y-82823523D01*
X40850019Y-82805342D01*
X40875339Y-82785541D01*
X40902604Y-82767281D01*
X40926980Y-82753724D01*
X40943636Y-82748031D01*
X40946412Y-82748333D01*
G37*
G36*
X30426860Y-83708375D02*
G01*
X30439690Y-83720319D01*
X30452855Y-83744740D01*
X30464097Y-83775866D01*
X30471162Y-83807926D01*
X30472458Y-83825067D01*
X30469824Y-83841254D01*
X30459965Y-83849260D01*
X30439944Y-83849540D01*
X30406824Y-83842545D01*
X30389512Y-83837885D01*
X30344836Y-83822386D01*
X30305124Y-83802974D01*
X30273152Y-83781681D01*
X30251692Y-83760541D01*
X30243520Y-83741587D01*
X30245839Y-83732589D01*
X30257293Y-83727849D01*
X30281310Y-83724637D01*
X30304235Y-83723762D01*
X30338872Y-83721885D01*
X30370082Y-83717215D01*
X30383817Y-83713389D01*
X30408191Y-83707603D01*
X30426860Y-83708375D01*
G37*
G36*
X50992767Y-82996991D02*
G01*
X51024548Y-83003881D01*
X51043687Y-83017292D01*
X51052104Y-83039027D01*
X51051718Y-83070886D01*
X51044448Y-83114671D01*
X51038890Y-83141323D01*
X51028378Y-83180331D01*
X51015041Y-83207173D01*
X50997596Y-83226573D01*
X50985667Y-83236711D01*
X50974159Y-83243720D01*
X50959544Y-83248176D01*
X50938298Y-83250659D01*
X50906896Y-83251744D01*
X50861812Y-83252010D01*
X50842288Y-83252017D01*
X50788435Y-83251608D01*
X50749794Y-83250164D01*
X50723161Y-83247357D01*
X50705328Y-83242859D01*
X50693800Y-83236849D01*
X50681527Y-83226310D01*
X50675940Y-83213305D01*
X50675611Y-83191937D01*
X50677618Y-83170031D01*
X50686232Y-83118107D01*
X50699758Y-83071427D01*
X50716558Y-83034699D01*
X50731274Y-83015630D01*
X50741185Y-83008741D01*
X50755391Y-83003776D01*
X50777042Y-83000319D01*
X50809290Y-82997956D01*
X50855284Y-82996272D01*
X50883606Y-82995573D01*
X50946426Y-82994822D01*
X50992767Y-82996991D01*
G37*
G36*
X50781843Y-83491637D02*
G01*
X50785230Y-83491640D01*
X50837097Y-83491866D01*
X50873806Y-83492817D01*
X50898627Y-83494903D01*
X50914833Y-83498533D01*
X50925695Y-83504115D01*
X50932545Y-83510072D01*
X50946336Y-83529903D01*
X50950977Y-83546359D01*
X50949177Y-83558943D01*
X50944050Y-83587525D01*
X50936011Y-83630052D01*
X50925474Y-83684472D01*
X50912852Y-83748735D01*
X50898560Y-83820787D01*
X50883010Y-83898577D01*
X50866617Y-83980053D01*
X50849794Y-84063163D01*
X50832955Y-84145855D01*
X50816515Y-84226078D01*
X50800885Y-84301780D01*
X50786481Y-84370908D01*
X50773716Y-84431411D01*
X50763004Y-84481237D01*
X50756847Y-84509116D01*
X50745684Y-84555012D01*
X50734270Y-84595436D01*
X50723847Y-84626386D01*
X50715655Y-84643861D01*
X50714711Y-84645055D01*
X50707217Y-84651474D01*
X50696255Y-84656061D01*
X50678923Y-84659117D01*
X50652319Y-84660943D01*
X50613540Y-84661837D01*
X50559684Y-84662100D01*
X50549770Y-84662104D01*
X50492457Y-84661849D01*
X50450836Y-84660916D01*
X50422172Y-84659055D01*
X50403730Y-84656018D01*
X50392774Y-84651554D01*
X50387997Y-84647330D01*
X50384911Y-84640698D01*
X50383733Y-84629054D01*
X50384739Y-84610504D01*
X50388205Y-84583151D01*
X50394407Y-84545100D01*
X50403621Y-84494455D01*
X50416123Y-84429321D01*
X50429903Y-84359322D01*
X50447495Y-84271406D01*
X50467673Y-84171934D01*
X50489122Y-84067302D01*
X50510526Y-83963907D01*
X50530570Y-83868147D01*
X50541994Y-83814209D01*
X50559886Y-83729619D01*
X50574686Y-83661221D01*
X50587686Y-83607301D01*
X50600177Y-83566146D01*
X50613450Y-83536045D01*
X50628797Y-83515284D01*
X50647509Y-83502150D01*
X50670878Y-83494931D01*
X50700196Y-83491915D01*
X50736754Y-83491388D01*
X50781843Y-83491637D01*
G37*
G36*
X41196439Y-83187836D02*
G01*
X41243949Y-83188915D01*
X41276717Y-83190863D01*
X41296581Y-83193802D01*
X41305381Y-83197853D01*
X41306058Y-83199024D01*
X41304881Y-83209785D01*
X41300191Y-83237074D01*
X41292288Y-83279382D01*
X41281471Y-83335203D01*
X41268041Y-83403029D01*
X41252296Y-83481353D01*
X41234538Y-83568668D01*
X41215065Y-83663467D01*
X41194177Y-83764243D01*
X41182791Y-83818817D01*
X41055603Y-84427090D01*
X41134804Y-84431698D01*
X41173044Y-84434200D01*
X41196595Y-84437102D01*
X41209178Y-84441667D01*
X41214514Y-84449159D01*
X41216188Y-84459346D01*
X41215048Y-84478155D01*
X41210181Y-84509536D01*
X41202476Y-84548216D01*
X41197530Y-84569942D01*
X41176688Y-84657496D01*
X41011021Y-84659501D01*
X40943715Y-84659862D01*
X40892227Y-84659010D01*
X40853972Y-84656803D01*
X40826367Y-84653098D01*
X40808488Y-84648365D01*
X40766445Y-84624637D01*
X40730311Y-84587978D01*
X40705163Y-84543874D01*
X40701260Y-84532567D01*
X40696126Y-84510794D01*
X40694529Y-84487825D01*
X40696619Y-84458561D01*
X40702542Y-84417901D01*
X40705023Y-84403105D01*
X40708942Y-84382360D01*
X40716301Y-84345590D01*
X40726678Y-84294791D01*
X40739651Y-84231962D01*
X40754797Y-84159101D01*
X40771695Y-84078204D01*
X40789922Y-83991270D01*
X40809058Y-83900296D01*
X40828679Y-83807280D01*
X40848365Y-83714220D01*
X40867692Y-83623113D01*
X40886239Y-83535957D01*
X40903584Y-83454749D01*
X40919305Y-83381488D01*
X40932980Y-83318171D01*
X40944187Y-83266796D01*
X40952505Y-83229360D01*
X40957416Y-83208240D01*
X40959713Y-83200946D01*
X40964159Y-83195601D01*
X40973310Y-83191902D01*
X40989720Y-83189546D01*
X41015944Y-83188230D01*
X41054539Y-83187651D01*
X41108058Y-83187507D01*
X41132346Y-83187503D01*
X41196439Y-83187836D01*
G37*
G36*
X41841577Y-83187836D02*
G01*
X41889087Y-83188915D01*
X41921855Y-83190863D01*
X41941719Y-83193802D01*
X41950519Y-83197853D01*
X41951196Y-83199024D01*
X41950019Y-83209785D01*
X41945329Y-83237074D01*
X41937425Y-83279382D01*
X41926609Y-83335203D01*
X41913179Y-83403029D01*
X41897434Y-83481353D01*
X41879676Y-83568668D01*
X41860203Y-83663467D01*
X41839315Y-83764243D01*
X41827929Y-83818817D01*
X41700741Y-84427090D01*
X41779941Y-84431698D01*
X41818182Y-84434200D01*
X41841733Y-84437102D01*
X41854315Y-84441667D01*
X41859652Y-84449159D01*
X41861326Y-84459346D01*
X41860186Y-84478155D01*
X41855319Y-84509536D01*
X41847614Y-84548216D01*
X41842668Y-84569942D01*
X41821826Y-84657496D01*
X41656158Y-84659501D01*
X41588853Y-84659862D01*
X41537365Y-84659010D01*
X41499110Y-84656803D01*
X41471505Y-84653098D01*
X41453626Y-84648365D01*
X41411583Y-84624637D01*
X41375449Y-84587978D01*
X41350301Y-84543874D01*
X41346398Y-84532567D01*
X41341264Y-84510794D01*
X41339667Y-84487825D01*
X41341757Y-84458561D01*
X41347680Y-84417901D01*
X41350161Y-84403105D01*
X41354080Y-84382360D01*
X41361439Y-84345590D01*
X41371816Y-84294791D01*
X41384788Y-84231962D01*
X41399935Y-84159101D01*
X41416833Y-84078204D01*
X41435060Y-83991270D01*
X41454196Y-83900296D01*
X41473817Y-83807280D01*
X41493503Y-83714220D01*
X41512830Y-83623113D01*
X41531377Y-83535957D01*
X41548722Y-83454749D01*
X41564443Y-83381488D01*
X41578118Y-83318171D01*
X41589325Y-83266796D01*
X41597642Y-83229360D01*
X41602554Y-83208240D01*
X41604851Y-83200946D01*
X41609297Y-83195601D01*
X41618447Y-83191902D01*
X41634858Y-83189546D01*
X41661082Y-83188230D01*
X41699677Y-83187651D01*
X41753196Y-83187507D01*
X41777484Y-83187503D01*
X41841577Y-83187836D01*
G37*
G36*
X44247019Y-83187836D02*
G01*
X44294530Y-83188915D01*
X44327298Y-83190863D01*
X44347162Y-83193802D01*
X44355962Y-83197853D01*
X44356638Y-83199024D01*
X44355461Y-83209785D01*
X44350771Y-83237074D01*
X44342868Y-83279382D01*
X44332052Y-83335203D01*
X44318621Y-83403029D01*
X44302877Y-83481353D01*
X44285118Y-83568668D01*
X44265645Y-83663467D01*
X44244758Y-83764243D01*
X44233372Y-83818817D01*
X44106184Y-84427090D01*
X44185384Y-84431698D01*
X44223625Y-84434200D01*
X44247175Y-84437102D01*
X44259758Y-84441667D01*
X44265095Y-84449159D01*
X44266768Y-84459346D01*
X44265629Y-84478155D01*
X44260762Y-84509536D01*
X44253057Y-84548216D01*
X44248111Y-84569942D01*
X44227268Y-84657496D01*
X44061601Y-84659501D01*
X43994296Y-84659862D01*
X43942808Y-84659010D01*
X43904553Y-84656803D01*
X43876948Y-84653098D01*
X43859069Y-84648365D01*
X43817026Y-84624637D01*
X43780892Y-84587978D01*
X43755744Y-84543874D01*
X43751840Y-84532567D01*
X43746706Y-84510794D01*
X43745110Y-84487825D01*
X43747199Y-84458561D01*
X43753123Y-84417901D01*
X43755603Y-84403105D01*
X43759523Y-84382360D01*
X43766882Y-84345590D01*
X43777259Y-84294791D01*
X43790231Y-84231962D01*
X43805377Y-84159101D01*
X43822275Y-84078204D01*
X43840503Y-83991270D01*
X43859639Y-83900296D01*
X43879260Y-83807280D01*
X43898945Y-83714220D01*
X43918272Y-83623113D01*
X43936820Y-83535957D01*
X43954165Y-83454749D01*
X43969886Y-83381488D01*
X43983561Y-83318171D01*
X43994768Y-83266796D01*
X44003085Y-83229360D01*
X44007996Y-83208240D01*
X44010293Y-83200946D01*
X44014740Y-83195601D01*
X44023890Y-83191902D01*
X44040300Y-83189546D01*
X44066525Y-83188230D01*
X44105119Y-83187651D01*
X44158639Y-83187507D01*
X44182926Y-83187503D01*
X44247019Y-83187836D01*
G37*
G36*
X39434612Y-81094013D02*
G01*
X39452627Y-81103765D01*
X39471265Y-81114658D01*
X39492396Y-81127982D01*
X39517890Y-81145030D01*
X39549616Y-81167094D01*
X39589444Y-81195465D01*
X39639245Y-81231436D01*
X39700887Y-81276298D01*
X39744011Y-81307784D01*
X39829823Y-81366652D01*
X39907076Y-81411143D01*
X39977739Y-81442009D01*
X40043780Y-81460004D01*
X40107168Y-81465880D01*
X40150361Y-81463266D01*
X40193174Y-81455725D01*
X40236201Y-81442708D01*
X40283076Y-81422683D01*
X40337434Y-81394115D01*
X40396475Y-81359396D01*
X40452846Y-81325412D01*
X40496257Y-81300293D01*
X40529292Y-81282998D01*
X40554534Y-81272488D01*
X40574568Y-81267722D01*
X40591978Y-81267661D01*
X40609349Y-81271265D01*
X40612909Y-81272293D01*
X40645283Y-81285906D01*
X40687242Y-81309344D01*
X40734822Y-81339936D01*
X40784060Y-81375011D01*
X40830992Y-81411896D01*
X40867263Y-81443755D01*
X40926039Y-81498925D01*
X40919261Y-81580283D01*
X40915553Y-81625139D01*
X40911246Y-81657310D01*
X40903551Y-81679504D01*
X40889676Y-81694432D01*
X40866831Y-81704802D01*
X40832225Y-81713325D01*
X40783068Y-81722709D01*
X40770043Y-81725155D01*
X40712579Y-81735656D01*
X40650917Y-81746343D01*
X40592538Y-81755950D01*
X40545825Y-81763082D01*
X40498107Y-81768662D01*
X40440259Y-81773511D01*
X40377197Y-81777408D01*
X40313841Y-81780132D01*
X40255108Y-81781461D01*
X40205917Y-81781174D01*
X40177175Y-81779672D01*
X40099879Y-81769142D01*
X40018699Y-81750727D01*
X39932038Y-81723793D01*
X39838301Y-81687705D01*
X39735892Y-81641828D01*
X39623214Y-81585529D01*
X39498672Y-81518173D01*
X39449091Y-81490223D01*
X39391882Y-81457792D01*
X39334026Y-81425232D01*
X39279615Y-81394829D01*
X39232739Y-81368868D01*
X39197489Y-81349634D01*
X39195644Y-81348642D01*
X39137550Y-81316222D01*
X39082568Y-81283250D01*
X39034454Y-81252115D01*
X38996964Y-81225209D01*
X38981366Y-81212300D01*
X38963436Y-81192276D01*
X38962089Y-81178847D01*
X38977751Y-81171345D01*
X39009014Y-81169102D01*
X39047923Y-81164988D01*
X39099260Y-81152416D01*
X39163387Y-81131454D01*
X39210957Y-81114987D01*
X39258239Y-81099328D01*
X39299210Y-81086433D01*
X39324017Y-81079256D01*
X39378660Y-81064665D01*
X39434612Y-81094013D01*
G37*
G36*
X50468851Y-83512376D02*
G01*
X50465078Y-83531393D01*
X50459643Y-83562352D01*
X50453644Y-83598973D01*
X50452912Y-83603615D01*
X50441853Y-83674117D01*
X50293204Y-83677644D01*
X50233983Y-83679402D01*
X50190016Y-83681694D01*
X50158127Y-83684879D01*
X50135140Y-83689314D01*
X50117875Y-83695360D01*
X50112298Y-83698079D01*
X50064916Y-83729542D01*
X50030666Y-83768924D01*
X50018283Y-83790370D01*
X50011537Y-83809115D01*
X50002344Y-83842685D01*
X49991251Y-83888336D01*
X49978804Y-83943323D01*
X49965549Y-84004900D01*
X49952034Y-84070323D01*
X49938804Y-84136847D01*
X49926405Y-84201726D01*
X49915386Y-84262216D01*
X49906291Y-84315572D01*
X49899667Y-84359047D01*
X49896061Y-84389899D01*
X49895926Y-84405006D01*
X49908609Y-84430951D01*
X49932837Y-84458365D01*
X49963216Y-84481451D01*
X49971144Y-84485869D01*
X49989049Y-84490105D01*
X50022895Y-84493347D01*
X50070213Y-84495435D01*
X50128531Y-84496210D01*
X50131312Y-84496211D01*
X50271349Y-84496211D01*
X50265105Y-84544597D01*
X50259521Y-84580589D01*
X50252652Y-84615436D01*
X50249738Y-84627543D01*
X50240615Y-84662104D01*
X49966787Y-84662070D01*
X49887736Y-84661977D01*
X49824969Y-84661642D01*
X49776335Y-84660943D01*
X49739685Y-84659758D01*
X49712870Y-84657968D01*
X49693741Y-84655451D01*
X49680148Y-84652087D01*
X49669942Y-84647754D01*
X49665310Y-84645108D01*
X49642816Y-84628149D01*
X49616553Y-84603959D01*
X49603621Y-84590395D01*
X49581846Y-84565016D01*
X49564095Y-84540528D01*
X49550400Y-84515221D01*
X49540790Y-84487387D01*
X49535296Y-84455316D01*
X49533947Y-84417297D01*
X49536774Y-84371623D01*
X49543806Y-84316582D01*
X49555074Y-84250466D01*
X49570608Y-84171566D01*
X49590437Y-84078170D01*
X49614546Y-83968778D01*
X49632313Y-83891301D01*
X49648108Y-83829032D01*
X49663144Y-83779025D01*
X49678637Y-83738332D01*
X49695799Y-83704008D01*
X49715846Y-83673106D01*
X49739991Y-83642679D01*
X49756752Y-83623644D01*
X49787903Y-83593537D01*
X49824507Y-83564226D01*
X49846319Y-83549631D01*
X49875713Y-83533131D01*
X49904357Y-83520042D01*
X49934853Y-83509982D01*
X49969802Y-83502566D01*
X50011804Y-83497412D01*
X50063462Y-83494136D01*
X50127375Y-83492354D01*
X50206147Y-83491683D01*
X50239653Y-83491640D01*
X50473730Y-83491640D01*
X50468851Y-83512376D01*
G37*
G36*
X40762591Y-83512181D02*
G01*
X40759701Y-83525730D01*
X40753591Y-83555212D01*
X40744697Y-83598496D01*
X40733456Y-83653448D01*
X40720303Y-83717936D01*
X40705674Y-83789826D01*
X40690007Y-83866987D01*
X40688561Y-83874114D01*
X40661320Y-84008127D01*
X40637353Y-84125232D01*
X40616383Y-84226606D01*
X40598129Y-84313429D01*
X40582312Y-84386880D01*
X40568654Y-84448135D01*
X40556875Y-84498374D01*
X40546696Y-84538775D01*
X40537838Y-84570517D01*
X40530021Y-84594777D01*
X40522967Y-84612735D01*
X40516397Y-84625568D01*
X40510031Y-84634455D01*
X40507891Y-84636759D01*
X40482729Y-84662104D01*
X40120282Y-84661700D01*
X40020987Y-84661428D01*
X39938678Y-84660826D01*
X39871910Y-84659848D01*
X39819241Y-84658448D01*
X39779224Y-84656582D01*
X39750417Y-84654204D01*
X39731375Y-84651268D01*
X39724216Y-84649285D01*
X39670660Y-84620834D01*
X39624981Y-84578391D01*
X39589658Y-84525586D01*
X39567171Y-84466053D01*
X39559951Y-84408657D01*
X39561959Y-84383080D01*
X39567980Y-84340241D01*
X39577880Y-84280836D01*
X39591526Y-84205565D01*
X39608787Y-84115125D01*
X39629528Y-84010213D01*
X39653617Y-83891527D01*
X39680921Y-83759766D01*
X39707793Y-83632188D01*
X39737599Y-83491640D01*
X39920522Y-83491640D01*
X39983080Y-83491752D01*
X40029557Y-83492228D01*
X40062307Y-83493275D01*
X40083681Y-83495102D01*
X40096030Y-83497915D01*
X40101707Y-83501923D01*
X40103064Y-83507333D01*
X40103058Y-83507768D01*
X40101155Y-83519655D01*
X40095829Y-83547852D01*
X40087431Y-83590627D01*
X40076309Y-83646248D01*
X40062813Y-83712983D01*
X40047292Y-83789099D01*
X40030096Y-83872864D01*
X40011573Y-83962546D01*
X40003154Y-84003142D01*
X39903636Y-84482387D01*
X39985141Y-84485037D01*
X40049259Y-84484508D01*
X40099065Y-84477659D01*
X40137842Y-84463662D01*
X40168874Y-84441687D01*
X40173174Y-84437541D01*
X40179586Y-84431371D01*
X40185097Y-84425894D01*
X40190074Y-84419708D01*
X40194885Y-84411413D01*
X40199897Y-84399607D01*
X40205479Y-84382887D01*
X40211996Y-84359853D01*
X40219817Y-84329101D01*
X40229309Y-84289232D01*
X40240839Y-84238842D01*
X40254775Y-84176531D01*
X40271485Y-84100897D01*
X40291336Y-84010537D01*
X40314695Y-83904051D01*
X40323287Y-83864898D01*
X40404212Y-83496248D01*
X40585838Y-83493748D01*
X40767465Y-83491248D01*
X40762591Y-83512181D01*
G37*
G36*
X45610341Y-83512181D02*
G01*
X45607451Y-83525730D01*
X45601341Y-83555212D01*
X45592447Y-83598496D01*
X45581206Y-83653448D01*
X45568053Y-83717936D01*
X45553425Y-83789826D01*
X45537757Y-83866987D01*
X45536312Y-83874114D01*
X45509070Y-84008127D01*
X45485104Y-84125232D01*
X45464133Y-84226606D01*
X45445879Y-84313429D01*
X45430062Y-84386880D01*
X45416404Y-84448135D01*
X45404625Y-84498374D01*
X45394446Y-84538775D01*
X45385588Y-84570517D01*
X45377772Y-84594777D01*
X45370718Y-84612735D01*
X45364147Y-84625568D01*
X45357781Y-84634455D01*
X45355641Y-84636759D01*
X45330479Y-84662104D01*
X44968033Y-84661700D01*
X44868737Y-84661428D01*
X44786428Y-84660826D01*
X44719661Y-84659848D01*
X44666991Y-84658448D01*
X44626975Y-84656582D01*
X44598168Y-84654204D01*
X44579126Y-84651268D01*
X44571967Y-84649285D01*
X44518411Y-84620834D01*
X44472732Y-84578391D01*
X44437409Y-84525586D01*
X44414922Y-84466053D01*
X44407701Y-84408657D01*
X44409709Y-84383080D01*
X44415730Y-84340241D01*
X44425630Y-84280836D01*
X44439277Y-84205565D01*
X44456537Y-84115125D01*
X44477278Y-84010213D01*
X44501367Y-83891527D01*
X44528672Y-83759766D01*
X44555543Y-83632188D01*
X44585350Y-83491640D01*
X44768272Y-83491640D01*
X44830830Y-83491752D01*
X44877308Y-83492228D01*
X44910058Y-83493275D01*
X44931431Y-83495102D01*
X44943780Y-83497915D01*
X44949458Y-83501923D01*
X44950814Y-83507333D01*
X44950808Y-83507768D01*
X44948905Y-83519655D01*
X44943580Y-83547852D01*
X44935181Y-83590627D01*
X44924059Y-83646248D01*
X44910563Y-83712983D01*
X44895043Y-83789099D01*
X44877846Y-83872864D01*
X44859324Y-83962546D01*
X44850904Y-84003142D01*
X44751387Y-84482387D01*
X44832892Y-84485037D01*
X44897010Y-84484508D01*
X44946815Y-84477659D01*
X44985592Y-84463662D01*
X45016625Y-84441687D01*
X45020925Y-84437541D01*
X45027337Y-84431371D01*
X45032847Y-84425894D01*
X45037824Y-84419708D01*
X45042635Y-84411413D01*
X45047648Y-84399607D01*
X45053229Y-84382887D01*
X45059746Y-84359853D01*
X45067567Y-84329101D01*
X45077059Y-84289232D01*
X45088589Y-84238842D01*
X45102526Y-84176531D01*
X45119236Y-84100897D01*
X45139086Y-84010537D01*
X45162445Y-83904051D01*
X45171038Y-83864898D01*
X45251962Y-83496248D01*
X45433589Y-83493748D01*
X45615215Y-83491248D01*
X45610341Y-83512181D01*
G37*
G36*
X39372095Y-83169144D02*
G01*
X39447819Y-83169406D01*
X39508546Y-83169925D01*
X39555992Y-83170766D01*
X39591877Y-83171995D01*
X39617916Y-83173678D01*
X39635828Y-83175881D01*
X39647330Y-83178672D01*
X39654138Y-83182115D01*
X39655798Y-83183553D01*
X39667237Y-83195836D01*
X39670281Y-83200208D01*
X39668362Y-83216533D01*
X39663279Y-83245478D01*
X39656038Y-83282311D01*
X39647646Y-83322296D01*
X39639112Y-83360699D01*
X39631444Y-83392787D01*
X39625647Y-83413824D01*
X39623786Y-83418683D01*
X39614646Y-83432082D01*
X39601810Y-83442600D01*
X39583145Y-83450573D01*
X39556521Y-83456336D01*
X39519806Y-83460223D01*
X39470870Y-83462571D01*
X39407582Y-83463715D01*
X39335682Y-83463991D01*
X39120302Y-83463991D01*
X39086419Y-83627579D01*
X39075561Y-83680648D01*
X39066160Y-83727828D01*
X39058813Y-83766012D01*
X39054122Y-83792093D01*
X39052664Y-83802688D01*
X39057210Y-83807040D01*
X39072005Y-83810232D01*
X39098955Y-83812398D01*
X39139962Y-83813670D01*
X39196930Y-83814183D01*
X39216923Y-83814209D01*
X39283228Y-83814165D01*
X39333147Y-83814974D01*
X39368719Y-83818042D01*
X39391983Y-83824776D01*
X39404977Y-83836584D01*
X39409738Y-83854874D01*
X39408307Y-83881052D01*
X39402721Y-83916527D01*
X39398746Y-83939742D01*
X39388949Y-83994810D01*
X39378793Y-84037210D01*
X39365863Y-84068598D01*
X39347747Y-84090631D01*
X39322030Y-84104962D01*
X39286300Y-84113249D01*
X39238143Y-84117147D01*
X39175145Y-84118312D01*
X39138338Y-84118387D01*
X38983670Y-84118429D01*
X38934640Y-84369530D01*
X38917756Y-84454149D01*
X38903418Y-84521810D01*
X38891321Y-84573768D01*
X38881158Y-84611274D01*
X38872622Y-84635582D01*
X38867054Y-84645976D01*
X38848497Y-84671320D01*
X38720562Y-84671320D01*
X38669308Y-84671122D01*
X38633426Y-84670261D01*
X38609857Y-84668342D01*
X38595544Y-84664968D01*
X38587427Y-84659742D01*
X38583087Y-84653494D01*
X38575098Y-84630682D01*
X38573546Y-84618335D01*
X38575436Y-84604425D01*
X38580853Y-84574290D01*
X38589424Y-84529720D01*
X38600773Y-84472506D01*
X38614524Y-84404438D01*
X38630302Y-84327304D01*
X38647733Y-84242897D01*
X38666439Y-84153005D01*
X38686047Y-84059418D01*
X38706181Y-83963927D01*
X38726466Y-83868321D01*
X38746526Y-83774391D01*
X38765987Y-83683925D01*
X38784472Y-83598715D01*
X38801606Y-83520551D01*
X38817015Y-83451222D01*
X38830322Y-83392518D01*
X38832968Y-83381045D01*
X38847517Y-83319809D01*
X38859424Y-83273958D01*
X38869579Y-83240783D01*
X38878868Y-83217576D01*
X38888179Y-83201629D01*
X38894150Y-83194415D01*
X38917996Y-83169071D01*
X39279656Y-83169071D01*
X39372095Y-83169144D01*
G37*
G36*
X33677769Y-83374476D02*
G01*
X33680082Y-83376879D01*
X33685457Y-83393439D01*
X33675450Y-83412786D01*
X33649323Y-83435767D01*
X33606341Y-83463229D01*
X33603525Y-83464856D01*
X33484247Y-83534794D01*
X33381113Y-83598096D01*
X33293301Y-83655325D01*
X33219986Y-83707044D01*
X33160345Y-83753817D01*
X33113554Y-83796208D01*
X33102308Y-83807722D01*
X33075784Y-83838107D01*
X33042487Y-83879816D01*
X33005601Y-83928662D01*
X32968311Y-83980457D01*
X32943070Y-84017120D01*
X32909506Y-84066577D01*
X32876462Y-84114598D01*
X32846483Y-84157533D01*
X32822115Y-84191730D01*
X32808246Y-84210508D01*
X32787535Y-84239260D01*
X32775235Y-84262882D01*
X32768519Y-84288996D01*
X32764563Y-84325227D01*
X32764245Y-84329260D01*
X32749264Y-84406648D01*
X32717588Y-84481909D01*
X32670947Y-84553324D01*
X32611074Y-84619176D01*
X32539701Y-84677745D01*
X32458559Y-84727314D01*
X32369381Y-84766163D01*
X32304086Y-84785817D01*
X32246013Y-84797208D01*
X32185232Y-84804003D01*
X32127161Y-84805965D01*
X32077219Y-84802854D01*
X32048438Y-84797073D01*
X32020253Y-84787899D01*
X31981915Y-84774524D01*
X31940451Y-84759418D01*
X31928626Y-84754983D01*
X31889262Y-84740717D01*
X31852509Y-84728453D01*
X31824558Y-84720225D01*
X31818031Y-84718681D01*
X31799353Y-84713692D01*
X31788958Y-84705242D01*
X31783354Y-84688163D01*
X31779607Y-84661854D01*
X31772950Y-84627221D01*
X31761195Y-84603403D01*
X31746185Y-84587373D01*
X31726123Y-84570835D01*
X31710733Y-84560522D01*
X31708498Y-84559543D01*
X31704079Y-84549623D01*
X31699356Y-84525331D01*
X31694667Y-84490717D01*
X31690352Y-84449830D01*
X31686750Y-84406720D01*
X31684200Y-84365437D01*
X31683041Y-84330029D01*
X31683613Y-84304548D01*
X31686187Y-84293100D01*
X31695330Y-84288477D01*
X31717171Y-84280149D01*
X31752580Y-84267826D01*
X31802425Y-84251217D01*
X31867575Y-84230031D01*
X31948899Y-84203977D01*
X32014355Y-84183180D01*
X32106130Y-84151165D01*
X32183171Y-84117271D01*
X32249171Y-84079303D01*
X32307826Y-84035068D01*
X32362830Y-83982371D01*
X32375352Y-83968824D01*
X32406971Y-83932491D01*
X32435530Y-83896048D01*
X32462798Y-83856635D01*
X32490540Y-83811390D01*
X32520524Y-83757452D01*
X32554516Y-83691960D01*
X32588914Y-83622971D01*
X32617913Y-83564341D01*
X32640209Y-83520249D01*
X32657115Y-83488635D01*
X32669944Y-83467440D01*
X32680009Y-83454603D01*
X32688623Y-83448064D01*
X32697100Y-83445763D01*
X32702008Y-83445558D01*
X32725377Y-83445029D01*
X32763993Y-83443550D01*
X32814702Y-83441286D01*
X32874351Y-83438402D01*
X32939788Y-83435062D01*
X33007859Y-83431431D01*
X33075412Y-83427673D01*
X33139295Y-83423952D01*
X33196353Y-83420433D01*
X33241943Y-83417387D01*
X33312098Y-83411901D01*
X33383954Y-83405337D01*
X33453936Y-83398101D01*
X33518471Y-83390600D01*
X33573985Y-83383239D01*
X33616902Y-83376425D01*
X33635665Y-83372642D01*
X33662404Y-83369062D01*
X33677769Y-83374476D01*
G37*
G36*
X51377529Y-83492788D02*
G01*
X51468106Y-83493299D01*
X51499943Y-83493532D01*
X51858779Y-83496248D01*
X51907842Y-83523426D01*
X51964437Y-83564435D01*
X52006375Y-83616611D01*
X52033606Y-83679880D01*
X52043513Y-83727790D01*
X52044723Y-83741383D01*
X52044784Y-83757536D01*
X52043435Y-83777685D01*
X52040417Y-83803266D01*
X52035467Y-83835717D01*
X52028326Y-83876473D01*
X52018733Y-83926972D01*
X52006427Y-83988649D01*
X51991146Y-84062942D01*
X51972631Y-84151287D01*
X51950621Y-84255121D01*
X51931637Y-84344143D01*
X51913569Y-84429395D01*
X51898638Y-84498450D01*
X51885563Y-84553006D01*
X51873067Y-84594763D01*
X51859870Y-84625417D01*
X51844694Y-84646669D01*
X51826259Y-84660217D01*
X51803286Y-84667759D01*
X51774497Y-84670994D01*
X51738612Y-84671620D01*
X51694353Y-84671337D01*
X51685286Y-84671320D01*
X51625661Y-84670716D01*
X51582062Y-84668452D01*
X51552110Y-84663855D01*
X51533425Y-84656249D01*
X51523628Y-84644959D01*
X51520338Y-84629311D01*
X51520255Y-84624520D01*
X51522034Y-84611058D01*
X51527056Y-84581454D01*
X51534959Y-84537642D01*
X51545381Y-84481557D01*
X51557958Y-84415133D01*
X51572330Y-84340304D01*
X51588133Y-84259005D01*
X51600879Y-84194071D01*
X51681330Y-83785943D01*
X51665463Y-83744395D01*
X51652757Y-83716509D01*
X51637204Y-83696701D01*
X51615491Y-83683450D01*
X51584306Y-83675234D01*
X51540337Y-83670533D01*
X51500284Y-83668522D01*
X51397347Y-83664582D01*
X51380906Y-83750915D01*
X51371989Y-83796790D01*
X51360553Y-83854158D01*
X51347083Y-83920706D01*
X51332064Y-83994120D01*
X51315980Y-84072086D01*
X51299317Y-84152292D01*
X51282560Y-84232424D01*
X51266193Y-84310169D01*
X51250702Y-84383214D01*
X51236572Y-84449244D01*
X51224288Y-84505947D01*
X51214334Y-84551009D01*
X51207196Y-84582118D01*
X51203907Y-84595164D01*
X51194916Y-84621883D01*
X51183545Y-84641543D01*
X51167041Y-84655211D01*
X51142650Y-84663954D01*
X51107619Y-84668840D01*
X51059192Y-84670936D01*
X51007391Y-84671320D01*
X50953768Y-84670952D01*
X50915612Y-84669650D01*
X50889968Y-84667114D01*
X50873881Y-84663046D01*
X50864397Y-84657148D01*
X50864081Y-84656838D01*
X50853110Y-84636919D01*
X50849599Y-84616720D01*
X50851423Y-84602538D01*
X50856623Y-84572368D01*
X50864783Y-84528256D01*
X50875492Y-84472254D01*
X50888336Y-84406410D01*
X50902902Y-84332774D01*
X50918777Y-84253396D01*
X50935549Y-84170324D01*
X50952804Y-84085609D01*
X50970129Y-84001299D01*
X50987111Y-83919444D01*
X51003338Y-83842094D01*
X51018396Y-83771297D01*
X51031872Y-83709104D01*
X51038981Y-83676974D01*
X51050446Y-83627584D01*
X51061329Y-83584162D01*
X51070719Y-83550091D01*
X51077708Y-83528751D01*
X51080256Y-83523594D01*
X51088123Y-83515528D01*
X51098222Y-83508914D01*
X51112292Y-83503627D01*
X51132073Y-83499542D01*
X51159305Y-83496535D01*
X51195727Y-83494480D01*
X51243079Y-83493254D01*
X51303099Y-83492731D01*
X51377529Y-83492788D01*
G37*
G36*
X49028557Y-83493955D02*
G01*
X49120442Y-83495419D01*
X49199599Y-83497338D01*
X49264855Y-83499663D01*
X49315040Y-83502343D01*
X49348982Y-83505331D01*
X49364354Y-83508131D01*
X49411829Y-83532863D01*
X49455443Y-83571665D01*
X49491823Y-83620178D01*
X49517593Y-83674045D01*
X49528555Y-83720109D01*
X49529583Y-83736030D01*
X49529085Y-83755958D01*
X49526802Y-83781323D01*
X49522474Y-83813559D01*
X49515843Y-83854098D01*
X49506650Y-83904371D01*
X49494634Y-83965811D01*
X49479538Y-84039850D01*
X49461101Y-84127920D01*
X49439065Y-84231454D01*
X49419807Y-84321103D01*
X49401881Y-84403811D01*
X49387149Y-84470364D01*
X49375091Y-84522663D01*
X49365189Y-84562607D01*
X49356924Y-84592096D01*
X49349777Y-84613030D01*
X49343230Y-84627310D01*
X49336763Y-84636835D01*
X49332367Y-84641368D01*
X49309456Y-84662104D01*
X48939016Y-84661163D01*
X48828774Y-84660610D01*
X48735552Y-84659557D01*
X48659622Y-84658012D01*
X48601258Y-84655983D01*
X48560731Y-84653478D01*
X48538314Y-84650503D01*
X48536413Y-84649980D01*
X48503227Y-84632435D01*
X48467705Y-84602286D01*
X48434271Y-84564078D01*
X48407346Y-84522356D01*
X48402192Y-84512002D01*
X48385023Y-84455866D01*
X48380059Y-84391583D01*
X48383751Y-84355006D01*
X48796069Y-84355006D01*
X48801177Y-84400773D01*
X48815294Y-84432639D01*
X48838158Y-84460092D01*
X48866054Y-84478825D01*
X48902579Y-84490159D01*
X48951327Y-84495413D01*
X48988385Y-84496197D01*
X49076409Y-84496211D01*
X49110737Y-84314190D01*
X49121183Y-84258359D01*
X49130324Y-84208644D01*
X49137647Y-84167910D01*
X49142638Y-84139023D01*
X49144784Y-84124848D01*
X49144828Y-84124070D01*
X49136276Y-84120133D01*
X49113687Y-84118939D01*
X49081189Y-84120093D01*
X49042910Y-84123198D01*
X49002977Y-84127857D01*
X48965516Y-84133673D01*
X48934655Y-84140251D01*
X48917127Y-84145952D01*
X48878195Y-84171537D01*
X48845176Y-84209312D01*
X48819516Y-84255199D01*
X48802665Y-84305123D01*
X48796069Y-84355006D01*
X48383751Y-84355006D01*
X48386841Y-84324398D01*
X48404909Y-84259557D01*
X48428612Y-84210508D01*
X48474345Y-84149699D01*
X48535419Y-84091086D01*
X48608748Y-84037214D01*
X48691246Y-83990628D01*
X48700947Y-83985964D01*
X48721918Y-83976244D01*
X48740090Y-83968926D01*
X48758578Y-83963595D01*
X48780496Y-83959832D01*
X48808960Y-83957220D01*
X48847084Y-83955342D01*
X48897983Y-83953780D01*
X48951050Y-83952452D01*
X49139983Y-83947844D01*
X49152997Y-83863231D01*
X49159616Y-83806713D01*
X49158929Y-83764310D01*
X49149949Y-83732820D01*
X49131686Y-83709045D01*
X49103152Y-83689781D01*
X49098723Y-83687485D01*
X49083571Y-83680363D01*
X49068295Y-83675085D01*
X49049926Y-83671376D01*
X49025496Y-83668963D01*
X48992035Y-83667571D01*
X48946577Y-83666925D01*
X48886151Y-83666751D01*
X48874368Y-83666749D01*
X48690997Y-83666749D01*
X48696168Y-83646012D01*
X48700203Y-83626795D01*
X48705924Y-83595872D01*
X48712130Y-83559744D01*
X48712465Y-83557715D01*
X48723590Y-83490154D01*
X49028557Y-83493955D01*
G37*
G36*
X46315389Y-83492436D02*
G01*
X46367290Y-83494570D01*
X46408201Y-83498429D01*
X46423874Y-83501213D01*
X46498167Y-83527374D01*
X46562661Y-83568915D01*
X46616273Y-83624976D01*
X46652219Y-83682880D01*
X46664710Y-83709450D01*
X46672537Y-83732671D01*
X46676742Y-83758296D01*
X46678367Y-83792074D01*
X46678513Y-83828033D01*
X46674990Y-83890204D01*
X46665479Y-83963819D01*
X46650934Y-84043249D01*
X46632307Y-84122860D01*
X46622770Y-84157514D01*
X46620488Y-84161734D01*
X46615154Y-84165149D01*
X46604994Y-84167845D01*
X46588232Y-84169905D01*
X46563092Y-84171414D01*
X46527800Y-84172456D01*
X46480581Y-84173115D01*
X46419658Y-84173476D01*
X46343257Y-84173622D01*
X46283087Y-84173643D01*
X45948078Y-84173643D01*
X45938853Y-84217420D01*
X45925242Y-84284672D01*
X45916384Y-84336749D01*
X45912370Y-84376309D01*
X45913288Y-84406009D01*
X45919229Y-84428507D01*
X45930282Y-84446461D01*
X45946538Y-84462528D01*
X45947150Y-84463045D01*
X45962919Y-84474971D01*
X45980237Y-84484448D01*
X46001337Y-84491749D01*
X46028455Y-84497153D01*
X46063824Y-84500934D01*
X46109680Y-84503368D01*
X46168256Y-84504732D01*
X46241787Y-84505302D01*
X46289856Y-84505376D01*
X46355077Y-84505637D01*
X46413793Y-84506346D01*
X46463624Y-84507437D01*
X46502191Y-84508840D01*
X46527111Y-84510491D01*
X46536004Y-84512320D01*
X46536004Y-84512340D01*
X46533794Y-84524046D01*
X46528295Y-84548748D01*
X46520608Y-84581540D01*
X46518968Y-84588374D01*
X46502318Y-84657496D01*
X46106927Y-84659574D01*
X45997521Y-84659953D01*
X45905913Y-84659833D01*
X45831475Y-84659204D01*
X45773581Y-84658053D01*
X45731601Y-84656368D01*
X45704909Y-84654135D01*
X45693104Y-84651478D01*
X45660999Y-84628185D01*
X45626501Y-84594465D01*
X45595243Y-84556485D01*
X45572858Y-84520412D01*
X45572301Y-84519252D01*
X45562677Y-84497295D01*
X45555539Y-84475649D01*
X45551070Y-84452347D01*
X45549453Y-84425420D01*
X45550872Y-84392902D01*
X45555509Y-84352825D01*
X45563549Y-84303220D01*
X45575174Y-84242121D01*
X45590568Y-84167560D01*
X45609915Y-84077568D01*
X45616090Y-84049223D01*
X45627437Y-83998967D01*
X45983790Y-83998967D01*
X46142214Y-83996446D01*
X46300638Y-83993926D01*
X46312126Y-83938628D01*
X46318503Y-83903587D01*
X46322848Y-83871490D01*
X46324015Y-83855187D01*
X46317897Y-83820798D01*
X46301135Y-83781456D01*
X46277384Y-83743834D01*
X46250305Y-83714606D01*
X46244507Y-83710136D01*
X46210959Y-83686267D01*
X46173222Y-83705486D01*
X46111120Y-83744847D01*
X46062285Y-83793756D01*
X46025358Y-83854164D01*
X45998978Y-83928023D01*
X45989668Y-83968798D01*
X45983790Y-83998967D01*
X45627437Y-83998967D01*
X45635216Y-83964510D01*
X45651863Y-83897146D01*
X45666272Y-83846248D01*
X45678687Y-83810936D01*
X45685886Y-83795776D01*
X45744235Y-83709808D01*
X45814122Y-83635963D01*
X45893585Y-83575766D01*
X45980661Y-83530746D01*
X46058881Y-83505626D01*
X46093799Y-83500000D01*
X46141704Y-83495811D01*
X46197801Y-83493115D01*
X46257294Y-83491971D01*
X46315389Y-83492436D01*
G37*
G36*
X35210556Y-83169109D02*
G01*
X35314185Y-83169294D01*
X35401997Y-83169727D01*
X35475299Y-83170512D01*
X35535398Y-83171752D01*
X35583602Y-83173549D01*
X35621219Y-83176008D01*
X35649556Y-83179231D01*
X35669920Y-83183320D01*
X35683619Y-83188379D01*
X35691960Y-83194512D01*
X35696252Y-83201820D01*
X35697800Y-83210407D01*
X35697954Y-83216986D01*
X35694887Y-83237160D01*
X35686766Y-83269521D01*
X35674991Y-83309836D01*
X35660964Y-83353872D01*
X35646086Y-83397396D01*
X35631758Y-83436174D01*
X35619383Y-83465974D01*
X35610360Y-83482562D01*
X35609832Y-83483183D01*
X35602980Y-83489328D01*
X35593382Y-83493864D01*
X35578398Y-83497032D01*
X35555385Y-83499075D01*
X35521701Y-83500232D01*
X35474705Y-83500745D01*
X35416204Y-83500856D01*
X35238569Y-83500856D01*
X35228867Y-83549241D01*
X35225015Y-83568706D01*
X35218069Y-83604055D01*
X35208463Y-83653082D01*
X35196627Y-83713579D01*
X35182994Y-83783339D01*
X35167995Y-83860155D01*
X35152062Y-83941818D01*
X35145496Y-83975493D01*
X35121278Y-84099644D01*
X35100290Y-84206978D01*
X35082249Y-84298775D01*
X35066871Y-84376313D01*
X35053873Y-84440870D01*
X35042971Y-84493725D01*
X35033882Y-84536157D01*
X35026322Y-84569443D01*
X35020009Y-84594863D01*
X35014659Y-84613695D01*
X35009987Y-84627217D01*
X35005712Y-84636708D01*
X35001550Y-84643447D01*
X34997216Y-84648711D01*
X34995962Y-84650065D01*
X34987627Y-84658062D01*
X34978022Y-84663753D01*
X34964091Y-84667530D01*
X34942775Y-84669783D01*
X34911019Y-84670904D01*
X34865767Y-84671285D01*
X34829943Y-84671320D01*
X34683891Y-84671320D01*
X34673138Y-84647718D01*
X34671289Y-84640432D01*
X34670813Y-84628492D01*
X34671929Y-84610564D01*
X34674858Y-84585315D01*
X34679819Y-84551410D01*
X34687032Y-84507517D01*
X34696717Y-84452301D01*
X34709093Y-84384429D01*
X34724380Y-84302568D01*
X34742798Y-84205384D01*
X34764567Y-84091543D01*
X34766163Y-84083223D01*
X34784928Y-83985548D01*
X34802752Y-83893011D01*
X34819318Y-83807242D01*
X34834309Y-83729872D01*
X34847409Y-83662531D01*
X34858299Y-83606850D01*
X34866663Y-83564461D01*
X34872183Y-83536993D01*
X34874506Y-83526201D01*
X34874887Y-83520862D01*
X34871117Y-83516847D01*
X34860971Y-83513966D01*
X34842228Y-83512032D01*
X34812661Y-83510859D01*
X34770049Y-83510258D01*
X34712168Y-83510042D01*
X34682604Y-83510021D01*
X34620834Y-83509550D01*
X34563810Y-83508262D01*
X34514788Y-83506296D01*
X34477024Y-83503787D01*
X34453776Y-83500874D01*
X34451124Y-83500247D01*
X34428042Y-83492007D01*
X34412982Y-83480559D01*
X34405520Y-83463120D01*
X34405232Y-83436907D01*
X34411693Y-83399137D01*
X34424479Y-83347026D01*
X34426560Y-83339144D01*
X34439096Y-83295028D01*
X34451640Y-83256281D01*
X34462740Y-83227079D01*
X34470942Y-83211598D01*
X34470962Y-83211576D01*
X34478800Y-83202963D01*
X34487094Y-83195600D01*
X34497272Y-83189389D01*
X34510758Y-83184232D01*
X34528980Y-83180031D01*
X34553363Y-83176687D01*
X34585333Y-83174104D01*
X34626316Y-83172182D01*
X34677738Y-83170825D01*
X34741026Y-83169934D01*
X34817605Y-83169410D01*
X34908902Y-83169158D01*
X35016341Y-83169077D01*
X35089802Y-83169071D01*
X35210556Y-83169109D01*
G37*
G36*
X36565346Y-83169109D02*
G01*
X36668975Y-83169294D01*
X36756787Y-83169727D01*
X36830089Y-83170512D01*
X36890188Y-83171752D01*
X36938392Y-83173549D01*
X36976009Y-83176008D01*
X37004345Y-83179231D01*
X37024709Y-83183320D01*
X37038408Y-83188379D01*
X37046750Y-83194512D01*
X37051041Y-83201820D01*
X37052590Y-83210407D01*
X37052744Y-83216986D01*
X37049677Y-83237160D01*
X37041555Y-83269521D01*
X37029781Y-83309836D01*
X37015753Y-83353872D01*
X37000875Y-83397396D01*
X36986548Y-83436174D01*
X36974172Y-83465974D01*
X36965150Y-83482562D01*
X36964622Y-83483183D01*
X36957769Y-83489328D01*
X36948172Y-83493864D01*
X36933187Y-83497032D01*
X36910174Y-83499075D01*
X36876491Y-83500232D01*
X36829494Y-83500745D01*
X36770993Y-83500856D01*
X36593358Y-83500856D01*
X36583657Y-83549241D01*
X36579804Y-83568706D01*
X36572859Y-83604055D01*
X36563252Y-83653082D01*
X36551416Y-83713579D01*
X36537783Y-83783339D01*
X36522784Y-83860155D01*
X36506852Y-83941818D01*
X36500285Y-83975493D01*
X36476067Y-84099644D01*
X36455080Y-84206978D01*
X36437038Y-84298775D01*
X36421660Y-84376313D01*
X36408662Y-84440870D01*
X36397760Y-84493725D01*
X36388671Y-84536157D01*
X36381112Y-84569443D01*
X36374799Y-84594863D01*
X36369448Y-84613695D01*
X36364777Y-84627217D01*
X36360502Y-84636708D01*
X36356339Y-84643447D01*
X36352006Y-84648711D01*
X36350752Y-84650065D01*
X36342417Y-84658062D01*
X36332812Y-84663753D01*
X36318880Y-84667530D01*
X36297565Y-84669783D01*
X36265809Y-84670904D01*
X36220556Y-84671285D01*
X36184732Y-84671320D01*
X36038681Y-84671320D01*
X36027927Y-84647718D01*
X36026078Y-84640432D01*
X36025602Y-84628492D01*
X36026719Y-84610564D01*
X36029648Y-84585315D01*
X36034609Y-84551410D01*
X36041822Y-84507517D01*
X36051506Y-84452301D01*
X36063882Y-84384429D01*
X36079169Y-84302568D01*
X36097588Y-84205384D01*
X36119356Y-84091543D01*
X36120953Y-84083223D01*
X36139717Y-83985548D01*
X36157541Y-83893011D01*
X36174107Y-83807242D01*
X36189099Y-83729872D01*
X36202198Y-83662531D01*
X36213089Y-83606850D01*
X36221453Y-83564461D01*
X36226973Y-83536993D01*
X36229296Y-83526201D01*
X36229677Y-83520862D01*
X36225906Y-83516847D01*
X36215761Y-83513966D01*
X36197017Y-83512032D01*
X36167451Y-83510859D01*
X36124839Y-83510258D01*
X36066957Y-83510042D01*
X36037393Y-83510021D01*
X35975623Y-83509550D01*
X35918599Y-83508262D01*
X35869577Y-83506296D01*
X35831814Y-83503787D01*
X35808565Y-83500874D01*
X35805914Y-83500247D01*
X35782831Y-83492007D01*
X35767771Y-83480559D01*
X35760309Y-83463120D01*
X35760021Y-83436907D01*
X35766483Y-83399137D01*
X35779269Y-83347026D01*
X35781350Y-83339144D01*
X35793885Y-83295028D01*
X35806430Y-83256281D01*
X35817530Y-83227079D01*
X35825732Y-83211598D01*
X35825751Y-83211576D01*
X35833589Y-83202963D01*
X35841884Y-83195600D01*
X35852061Y-83189389D01*
X35865548Y-83184232D01*
X35883770Y-83180031D01*
X35908152Y-83176687D01*
X35940122Y-83174104D01*
X35981106Y-83172182D01*
X36032528Y-83170825D01*
X36095816Y-83169934D01*
X36172395Y-83169410D01*
X36263691Y-83169158D01*
X36371131Y-83169077D01*
X36444591Y-83169071D01*
X36565346Y-83169109D01*
G37*
G36*
X37581492Y-83170959D02*
G01*
X37670142Y-83171700D01*
X37742302Y-83172449D01*
X37799913Y-83173324D01*
X37844919Y-83174438D01*
X37879259Y-83175909D01*
X37904877Y-83177852D01*
X37923715Y-83180382D01*
X37937714Y-83183616D01*
X37948816Y-83187670D01*
X37958964Y-83192659D01*
X37960665Y-83193571D01*
X38012879Y-83231865D01*
X38053600Y-83282824D01*
X38080825Y-83343310D01*
X38091763Y-83398810D01*
X38092461Y-83421575D01*
X38090732Y-83450597D01*
X38086293Y-83487429D01*
X38078862Y-83533628D01*
X38068157Y-83590748D01*
X38053896Y-83660344D01*
X38035797Y-83743973D01*
X38013578Y-83843188D01*
X38001747Y-83895138D01*
X37983566Y-83972381D01*
X37967453Y-84034418D01*
X37952180Y-84084177D01*
X37936515Y-84124590D01*
X37919230Y-84158583D01*
X37899093Y-84189086D01*
X37874876Y-84219029D01*
X37857715Y-84238117D01*
X37818256Y-84277186D01*
X37778437Y-84307847D01*
X37735387Y-84331014D01*
X37686234Y-84347599D01*
X37628109Y-84358514D01*
X37558139Y-84364674D01*
X37473456Y-84366990D01*
X37452126Y-84367075D01*
X37388236Y-84367307D01*
X37340302Y-84368421D01*
X37305848Y-84371185D01*
X37282397Y-84376368D01*
X37267474Y-84384738D01*
X37258602Y-84397062D01*
X37253305Y-84414111D01*
X37250324Y-84429690D01*
X37245930Y-84453258D01*
X37238929Y-84489229D01*
X37230431Y-84531950D01*
X37224617Y-84560725D01*
X37204932Y-84657496D01*
X37036946Y-84660007D01*
X36975458Y-84660673D01*
X36930377Y-84660493D01*
X36899689Y-84659352D01*
X36881381Y-84657139D01*
X36873443Y-84653740D01*
X36872906Y-84650791D01*
X36875467Y-84640148D01*
X36881682Y-84612885D01*
X36891246Y-84570386D01*
X36903850Y-84514034D01*
X36919186Y-84445209D01*
X36936947Y-84365296D01*
X36956827Y-84275676D01*
X36974772Y-84194639D01*
X37309925Y-84194639D01*
X37395672Y-84190007D01*
X37442546Y-84185860D01*
X37484411Y-84179213D01*
X37515012Y-84171097D01*
X37518159Y-84169853D01*
X37566084Y-84142221D01*
X37601783Y-84103421D01*
X37616798Y-84077886D01*
X37623398Y-84059886D01*
X37632975Y-84026960D01*
X37644797Y-83982234D01*
X37658133Y-83928836D01*
X37672251Y-83869895D01*
X37686420Y-83808538D01*
X37699908Y-83747894D01*
X37711984Y-83691090D01*
X37721914Y-83641255D01*
X37728969Y-83601517D01*
X37730371Y-83592340D01*
X37731116Y-83542888D01*
X37717299Y-83503860D01*
X37688618Y-83475009D01*
X37644773Y-83456083D01*
X37585461Y-83446834D01*
X37553022Y-83445761D01*
X37515578Y-83446010D01*
X37492615Y-83447671D01*
X37480184Y-83451748D01*
X37474336Y-83459244D01*
X37472226Y-83466295D01*
X37469154Y-83479819D01*
X37462581Y-83509188D01*
X37452987Y-83552249D01*
X37440850Y-83606850D01*
X37426649Y-83670837D01*
X37410862Y-83742058D01*
X37393967Y-83818359D01*
X37393866Y-83818817D01*
X37376950Y-83895208D01*
X37361125Y-83966588D01*
X37346870Y-84030795D01*
X37334668Y-84085663D01*
X37324999Y-84129030D01*
X37318345Y-84158732D01*
X37315187Y-84172606D01*
X37315183Y-84172620D01*
X37309925Y-84194639D01*
X36974772Y-84194639D01*
X36978516Y-84177732D01*
X37001708Y-84072846D01*
X37026095Y-83962401D01*
X37034389Y-83924804D01*
X37063282Y-83793934D01*
X37088544Y-83679883D01*
X37110467Y-83581460D01*
X37129346Y-83497475D01*
X37145473Y-83426736D01*
X37159142Y-83368054D01*
X37170646Y-83320236D01*
X37180279Y-83282093D01*
X37188333Y-83252433D01*
X37195103Y-83230067D01*
X37200881Y-83213802D01*
X37205961Y-83202448D01*
X37210637Y-83194815D01*
X37215201Y-83189712D01*
X37215554Y-83189392D01*
X37239184Y-83168239D01*
X37581492Y-83170959D01*
G37*
G36*
X43213931Y-83171218D02*
G01*
X43314178Y-83171990D01*
X43397873Y-83172885D01*
X43466898Y-83174134D01*
X43523134Y-83175967D01*
X43568460Y-83178614D01*
X43604759Y-83182305D01*
X43633911Y-83187271D01*
X43657797Y-83193741D01*
X43678298Y-83201946D01*
X43697295Y-83212115D01*
X43716668Y-83224480D01*
X43731434Y-83234546D01*
X43769158Y-83268248D01*
X43794341Y-83310066D01*
X43808068Y-83362617D01*
X43811453Y-83427126D01*
X43808693Y-83473936D01*
X43802591Y-83528607D01*
X43794324Y-83581130D01*
X43791884Y-83593590D01*
X43767447Y-83684985D01*
X43735237Y-83759802D01*
X43695136Y-83818228D01*
X43647025Y-83860453D01*
X43614058Y-83878179D01*
X43566394Y-83898684D01*
X43592920Y-83914858D01*
X43616755Y-83931462D01*
X43632860Y-83949759D01*
X43645152Y-83975536D01*
X43655371Y-84007119D01*
X43665224Y-84049416D01*
X43669036Y-84092255D01*
X43666598Y-84139802D01*
X43657703Y-84196224D01*
X43642605Y-84263805D01*
X43623662Y-84334609D01*
X43604170Y-84391295D01*
X43582060Y-84438114D01*
X43555265Y-84479318D01*
X43521714Y-84519158D01*
X43514692Y-84526622D01*
X43462817Y-84575175D01*
X43410641Y-84610537D01*
X43351607Y-84636857D01*
X43327983Y-84644741D01*
X43312105Y-84649250D01*
X43295011Y-84652911D01*
X43274676Y-84655811D01*
X43249075Y-84658037D01*
X43216182Y-84659674D01*
X43173974Y-84660812D01*
X43120425Y-84661535D01*
X43053510Y-84661932D01*
X42971204Y-84662088D01*
X42923467Y-84662104D01*
X42574739Y-84662104D01*
X42555295Y-84637386D01*
X42543001Y-84617983D01*
X42539010Y-84603710D01*
X42539220Y-84602825D01*
X42541513Y-84592440D01*
X42547126Y-84565367D01*
X42555778Y-84522992D01*
X42566346Y-84470867D01*
X42924078Y-84470867D01*
X42925983Y-84478834D01*
X42934600Y-84483675D01*
X42953449Y-84486134D01*
X42986048Y-84486956D01*
X43000284Y-84486995D01*
X43043366Y-84485270D01*
X43085958Y-84480718D01*
X43119616Y-84474278D01*
X43122715Y-84473404D01*
X43173289Y-84449293D01*
X43216749Y-84410791D01*
X43245749Y-84367672D01*
X43256317Y-84340020D01*
X43267483Y-84299889D01*
X43278286Y-84252322D01*
X43287767Y-84202367D01*
X43294968Y-84155068D01*
X43298928Y-84115471D01*
X43298736Y-84088971D01*
X43287117Y-84050583D01*
X43263211Y-84022154D01*
X43225920Y-84003133D01*
X43174145Y-83992973D01*
X43106788Y-83991124D01*
X43103285Y-83991230D01*
X43020390Y-83993926D01*
X42972463Y-84224332D01*
X42959383Y-84287743D01*
X42947627Y-84345748D01*
X42937709Y-84395732D01*
X42930141Y-84435077D01*
X42925438Y-84461166D01*
X42924078Y-84470867D01*
X42566346Y-84470867D01*
X42567190Y-84466705D01*
X42581082Y-84397895D01*
X42597175Y-84317948D01*
X42615189Y-84228255D01*
X42634844Y-84130203D01*
X42655860Y-84025181D01*
X42677958Y-83914578D01*
X42684719Y-83880705D01*
X42694533Y-83831521D01*
X43062215Y-83831521D01*
X43065355Y-83837137D01*
X43077030Y-83840432D01*
X43100054Y-83841646D01*
X43137238Y-83841023D01*
X43161885Y-83840104D01*
X43208494Y-83837683D01*
X43241611Y-83834279D01*
X43266179Y-83828886D01*
X43287137Y-83820495D01*
X43304492Y-83811026D01*
X43344125Y-83779560D01*
X43375848Y-83735416D01*
X43400840Y-83676649D01*
X43413704Y-83631061D01*
X43428472Y-83560328D01*
X43436492Y-83499371D01*
X43437647Y-83450260D01*
X43431822Y-83415063D01*
X43426446Y-83403618D01*
X43398411Y-83375255D01*
X43357215Y-83356546D01*
X43301760Y-83347143D01*
X43244738Y-83346135D01*
X43159968Y-83348788D01*
X43111268Y-83583802D01*
X43098127Y-83647625D01*
X43086302Y-83705838D01*
X43076297Y-83755901D01*
X43068614Y-83795275D01*
X43063756Y-83821419D01*
X43062215Y-83831521D01*
X42694533Y-83831521D01*
X42826848Y-83168427D01*
X43213931Y-83171218D01*
G37*
G36*
X52959261Y-83491672D02*
G01*
X53032021Y-83491832D01*
X53089998Y-83492211D01*
X53135019Y-83492902D01*
X53168908Y-83493996D01*
X53193492Y-83495588D01*
X53210595Y-83497768D01*
X53222042Y-83500630D01*
X53229659Y-83504266D01*
X53235272Y-83508768D01*
X53236749Y-83510213D01*
X53250620Y-83534031D01*
X53250604Y-83549382D01*
X53247924Y-83562068D01*
X53241923Y-83591106D01*
X53232949Y-83634785D01*
X53221355Y-83691394D01*
X53207488Y-83759221D01*
X53191699Y-83836555D01*
X53174339Y-83921684D01*
X53155757Y-84012899D01*
X53143672Y-84072264D01*
X53112608Y-84224386D01*
X53084797Y-84359383D01*
X53060020Y-84478234D01*
X53038055Y-84581916D01*
X53018681Y-84671406D01*
X53001677Y-84747681D01*
X52986823Y-84811721D01*
X52973897Y-84864501D01*
X52962678Y-84907000D01*
X52952946Y-84940195D01*
X52944479Y-84965064D01*
X52938678Y-84979165D01*
X52901176Y-85039581D01*
X52849732Y-85088605D01*
X52785529Y-85125379D01*
X52709752Y-85149044D01*
X52702438Y-85150495D01*
X52683476Y-85152441D01*
X52649724Y-85154172D01*
X52603446Y-85155682D01*
X52546905Y-85156965D01*
X52482365Y-85158014D01*
X52412090Y-85158821D01*
X52338344Y-85159382D01*
X52263390Y-85159688D01*
X52189491Y-85159734D01*
X52118913Y-85159512D01*
X52053918Y-85159016D01*
X51996770Y-85158240D01*
X51949732Y-85157177D01*
X51915069Y-85155819D01*
X51895045Y-85154162D01*
X51890944Y-85152870D01*
X51892716Y-85141481D01*
X51897571Y-85116187D01*
X51904702Y-85081099D01*
X51910791Y-85052074D01*
X51930728Y-84958191D01*
X52217322Y-84955304D01*
X52297795Y-84954444D01*
X52362013Y-84953560D01*
X52412151Y-84952496D01*
X52450387Y-84951094D01*
X52478896Y-84949198D01*
X52499856Y-84946650D01*
X52515443Y-84943295D01*
X52527833Y-84938975D01*
X52539203Y-84933533D01*
X52542309Y-84931888D01*
X52574360Y-84910724D01*
X52598470Y-84884037D01*
X52616961Y-84848017D01*
X52632157Y-84798853D01*
X52637654Y-84775461D01*
X52646674Y-84736731D01*
X52652833Y-84707909D01*
X52654075Y-84687548D01*
X52648345Y-84674200D01*
X52633588Y-84666417D01*
X52607749Y-84662752D01*
X52568772Y-84661756D01*
X52514603Y-84661983D01*
X52476721Y-84662104D01*
X52417525Y-84661586D01*
X52361436Y-84660147D01*
X52312312Y-84657956D01*
X52274007Y-84655185D01*
X52250773Y-84652092D01*
X52189340Y-84630053D01*
X52137716Y-84593514D01*
X52097589Y-84544521D01*
X52070650Y-84485121D01*
X52058699Y-84419265D01*
X52059580Y-84390496D01*
X52063246Y-84357472D01*
X52418673Y-84357472D01*
X52425547Y-84387631D01*
X52434147Y-84407320D01*
X52450910Y-84435633D01*
X52471468Y-84455405D01*
X52499227Y-84468032D01*
X52537591Y-84474913D01*
X52589964Y-84477443D01*
X52605295Y-84477559D01*
X52697458Y-84477759D01*
X52780904Y-84079166D01*
X52864350Y-83680573D01*
X52794728Y-83677585D01*
X52725087Y-83678213D01*
X52668997Y-83687318D01*
X52623229Y-83705759D01*
X52586128Y-83732923D01*
X52560847Y-83760750D01*
X52539813Y-83791704D01*
X52531935Y-83808024D01*
X52526356Y-83826918D01*
X52517850Y-83860785D01*
X52507088Y-83906519D01*
X52494741Y-83961014D01*
X52481478Y-84021164D01*
X52467969Y-84083865D01*
X52454886Y-84146010D01*
X52442899Y-84204493D01*
X52432677Y-84256210D01*
X52424892Y-84298053D01*
X52420762Y-84323053D01*
X52418673Y-84357472D01*
X52063246Y-84357472D01*
X52064521Y-84345985D01*
X52073131Y-84287876D01*
X52085021Y-84218315D01*
X52099799Y-84139447D01*
X52117075Y-84053415D01*
X52136458Y-83962366D01*
X52157557Y-83868444D01*
X52164313Y-83839390D01*
X52191808Y-83750719D01*
X52230016Y-83676044D01*
X52280232Y-83613514D01*
X52343755Y-83561278D01*
X52371436Y-83543870D01*
X52394034Y-83531280D01*
X52416197Y-83520881D01*
X52439906Y-83512466D01*
X52467140Y-83505827D01*
X52499879Y-83500757D01*
X52540103Y-83497048D01*
X52589793Y-83494493D01*
X52650927Y-83492884D01*
X52725486Y-83492013D01*
X52815451Y-83491675D01*
X52869895Y-83491640D01*
X52959261Y-83491672D01*
G37*
G36*
X33403850Y-81176726D02*
G01*
X33409046Y-81182950D01*
X33409852Y-81184900D01*
X33408183Y-81199547D01*
X33392405Y-81217595D01*
X33361558Y-81239803D01*
X33314682Y-81266927D01*
X33288024Y-81280978D01*
X33255813Y-81298073D01*
X33225207Y-81315598D01*
X33194983Y-81334618D01*
X33163919Y-81356192D01*
X33130793Y-81381382D01*
X33094383Y-81411251D01*
X33053467Y-81446859D01*
X33006822Y-81489269D01*
X32953226Y-81539542D01*
X32891458Y-81598739D01*
X32820294Y-81667923D01*
X32738513Y-81748155D01*
X32652102Y-81833375D01*
X32579699Y-81904830D01*
X32518798Y-81964743D01*
X32467845Y-82014580D01*
X32425284Y-82055809D01*
X32389561Y-82089896D01*
X32359120Y-82118308D01*
X32332407Y-82142513D01*
X32307865Y-82163977D01*
X32283940Y-82184167D01*
X32259076Y-82204550D01*
X32255803Y-82207202D01*
X32158313Y-82280100D01*
X32052976Y-82348096D01*
X31944554Y-82408502D01*
X31837812Y-82458630D01*
X31753517Y-82490634D01*
X31656690Y-82517791D01*
X31555488Y-82537072D01*
X31454805Y-82547960D01*
X31359530Y-82549938D01*
X31274557Y-82542490D01*
X31269664Y-82541694D01*
X31193685Y-82522337D01*
X31122167Y-82489765D01*
X31052245Y-82442368D01*
X30983611Y-82381081D01*
X30959238Y-82356019D01*
X30936070Y-82329876D01*
X30912650Y-82300556D01*
X30887524Y-82265963D01*
X30859234Y-82224001D01*
X30826324Y-82172575D01*
X30787339Y-82109588D01*
X30740822Y-82032944D01*
X30734846Y-82023031D01*
X30687511Y-81945879D01*
X30646567Y-81882739D01*
X30610042Y-81831203D01*
X30575961Y-81788858D01*
X30542350Y-81753293D01*
X30507237Y-81722097D01*
X30468648Y-81692858D01*
X30459140Y-81686204D01*
X30368102Y-81629580D01*
X30283191Y-81589950D01*
X30203848Y-81567132D01*
X30129511Y-81560944D01*
X30086912Y-81565166D01*
X30043561Y-81574521D01*
X30002176Y-81588085D01*
X29959009Y-81607621D01*
X29910315Y-81634894D01*
X29852345Y-81671665D01*
X29832304Y-81685001D01*
X29773681Y-81723501D01*
X29726508Y-81752139D01*
X29687609Y-81772271D01*
X29653807Y-81785254D01*
X29621928Y-81792443D01*
X29588794Y-81795195D01*
X29573873Y-81795354D01*
X29518166Y-81791913D01*
X29471081Y-81780835D01*
X29429119Y-81760092D01*
X29388783Y-81727654D01*
X29346572Y-81681494D01*
X29320475Y-81648452D01*
X29291477Y-81611906D01*
X29267522Y-81586506D01*
X29243664Y-81567906D01*
X29214959Y-81551759D01*
X29204940Y-81546875D01*
X29176384Y-81532018D01*
X29156596Y-81519333D01*
X29149381Y-81511301D01*
X29149556Y-81510742D01*
X29163875Y-81499106D01*
X29192055Y-81484762D01*
X29230029Y-81469275D01*
X29273729Y-81454211D01*
X29319086Y-81441136D01*
X29348075Y-81434332D01*
X29399512Y-81425840D01*
X29457308Y-81420849D01*
X29523191Y-81419440D01*
X29598885Y-81421688D01*
X29686117Y-81427673D01*
X29786612Y-81437473D01*
X29902095Y-81451167D01*
X29997821Y-81463798D01*
X30105573Y-81478872D01*
X30197084Y-81492655D01*
X30274445Y-81505734D01*
X30339752Y-81518696D01*
X30395099Y-81532128D01*
X30442579Y-81546617D01*
X30484286Y-81562750D01*
X30522315Y-81581116D01*
X30558759Y-81602300D01*
X30595712Y-81626889D01*
X30606403Y-81634442D01*
X30656513Y-81675102D01*
X30713341Y-81729771D01*
X30774952Y-81796182D01*
X30839411Y-81872067D01*
X30904784Y-81955160D01*
X30969135Y-82043194D01*
X31023430Y-82123026D01*
X31060066Y-82178325D01*
X31089105Y-82220302D01*
X31112703Y-82251279D01*
X31133013Y-82273576D01*
X31152189Y-82289516D01*
X31172386Y-82301419D01*
X31195758Y-82311606D01*
X31199937Y-82313233D01*
X31266156Y-82330901D01*
X31344627Y-82338561D01*
X31432286Y-82336469D01*
X31526073Y-82324878D01*
X31622927Y-82304044D01*
X31719785Y-82274221D01*
X31734686Y-82268779D01*
X31792504Y-82246041D01*
X31847534Y-82221696D01*
X31901363Y-82194623D01*
X31955579Y-82163705D01*
X32011769Y-82127824D01*
X32071521Y-82085861D01*
X32136421Y-82036700D01*
X32208057Y-81979220D01*
X32288017Y-81912305D01*
X32377888Y-81834836D01*
X32479257Y-81745695D01*
X32486834Y-81738981D01*
X32596111Y-81643216D01*
X32694348Y-81559730D01*
X32783211Y-81487447D01*
X32864364Y-81425290D01*
X32939473Y-81372184D01*
X33010203Y-81327053D01*
X33078219Y-81288820D01*
X33145186Y-81256411D01*
X33212769Y-81228748D01*
X33282634Y-81204756D01*
X33339650Y-81187936D01*
X33373234Y-81179042D01*
X33393273Y-81175365D01*
X33403850Y-81176726D01*
G37*
G36*
X47935575Y-83170953D02*
G01*
X48023596Y-83171698D01*
X48095146Y-83172450D01*
X48152185Y-83173328D01*
X48196674Y-83174453D01*
X48230575Y-83175943D01*
X48255848Y-83177919D01*
X48274454Y-83180499D01*
X48288354Y-83183804D01*
X48299508Y-83187953D01*
X48309879Y-83193066D01*
X48311393Y-83193872D01*
X48362649Y-83231610D01*
X48402911Y-83283658D01*
X48424779Y-83329946D01*
X48435487Y-83363549D01*
X48441511Y-83397169D01*
X48442801Y-83434535D01*
X48439310Y-83479380D01*
X48430989Y-83535432D01*
X48421442Y-83587634D01*
X48402805Y-83682865D01*
X48386529Y-83761816D01*
X48372125Y-83826416D01*
X48359106Y-83878597D01*
X48346983Y-83920288D01*
X48335269Y-83953421D01*
X48323475Y-83979925D01*
X48321137Y-83984461D01*
X48291290Y-84031397D01*
X48252599Y-84078508D01*
X48209762Y-84120880D01*
X48167478Y-84153601D01*
X48149213Y-84164208D01*
X48124903Y-84176678D01*
X48108522Y-84185461D01*
X48104778Y-84187744D01*
X48106204Y-84196992D01*
X48111803Y-84221568D01*
X48120964Y-84258997D01*
X48133071Y-84306808D01*
X48147512Y-84362528D01*
X48158400Y-84403852D01*
X48176169Y-84471196D01*
X48189528Y-84523075D01*
X48198891Y-84561817D01*
X48204671Y-84589747D01*
X48207283Y-84609191D01*
X48207140Y-84622477D01*
X48204655Y-84631929D01*
X48200341Y-84639723D01*
X48192353Y-84650125D01*
X48182225Y-84656683D01*
X48165905Y-84660278D01*
X48139342Y-84661791D01*
X48098485Y-84662104D01*
X48097452Y-84662104D01*
X48051980Y-84661073D01*
X48015466Y-84656687D01*
X47986351Y-84647010D01*
X47963077Y-84630105D01*
X47944082Y-84604034D01*
X47927808Y-84566860D01*
X47912696Y-84516646D01*
X47897186Y-84451455D01*
X47886007Y-84399441D01*
X47874925Y-84347081D01*
X47864884Y-84300234D01*
X47856604Y-84262209D01*
X47850803Y-84236316D01*
X47848452Y-84226636D01*
X47843756Y-84218791D01*
X47832703Y-84213947D01*
X47811666Y-84211427D01*
X47777020Y-84210551D01*
X47762190Y-84210508D01*
X47718551Y-84211424D01*
X47689738Y-84214529D01*
X47672220Y-84220355D01*
X47666041Y-84224990D01*
X47654544Y-84238087D01*
X47651558Y-84243537D01*
X47649672Y-84254262D01*
X47644490Y-84279700D01*
X47636725Y-84316577D01*
X47627090Y-84361614D01*
X47616299Y-84411536D01*
X47605064Y-84463064D01*
X47594098Y-84512924D01*
X47584115Y-84557837D01*
X47575828Y-84594526D01*
X47569950Y-84619716D01*
X47567985Y-84627543D01*
X47558685Y-84662104D01*
X47392073Y-84662104D01*
X47332869Y-84661986D01*
X47289693Y-84661472D01*
X47260138Y-84660324D01*
X47241802Y-84658302D01*
X47232279Y-84655169D01*
X47229163Y-84650685D01*
X47229666Y-84645976D01*
X47232263Y-84634612D01*
X47238493Y-84606646D01*
X47248049Y-84563483D01*
X47260620Y-84506525D01*
X47275899Y-84437176D01*
X47293575Y-84356842D01*
X47313340Y-84266924D01*
X47334886Y-84168828D01*
X47357901Y-84063957D01*
X47363564Y-84038136D01*
X47705817Y-84038136D01*
X47796999Y-84033112D01*
X47851645Y-84028570D01*
X47891849Y-84021426D01*
X47921503Y-84010960D01*
X47924242Y-84009599D01*
X47952780Y-83992840D01*
X47976528Y-83973123D01*
X47996548Y-83948169D01*
X48013900Y-83915700D01*
X48029645Y-83873438D01*
X48044843Y-83819103D01*
X48060556Y-83750416D01*
X48072877Y-83690332D01*
X48084734Y-83630054D01*
X48093149Y-83584847D01*
X48098415Y-83551732D01*
X48100823Y-83527732D01*
X48100666Y-83509866D01*
X48098237Y-83495157D01*
X48093828Y-83480625D01*
X48093552Y-83479824D01*
X48074608Y-83445461D01*
X48044127Y-83421169D01*
X48000520Y-83406204D01*
X47942197Y-83399827D01*
X47921485Y-83399477D01*
X47886568Y-83399734D01*
X47860034Y-83400417D01*
X47846167Y-83401397D01*
X47845099Y-83401781D01*
X47843217Y-83410973D01*
X47837940Y-83435637D01*
X47829821Y-83473241D01*
X47819411Y-83521254D01*
X47807264Y-83577142D01*
X47793932Y-83638374D01*
X47779968Y-83702417D01*
X47765923Y-83766740D01*
X47752351Y-83828809D01*
X47739804Y-83886092D01*
X47728834Y-83936058D01*
X47719993Y-83976175D01*
X47713836Y-84003908D01*
X47711082Y-84016031D01*
X47705817Y-84038136D01*
X47363564Y-84038136D01*
X47382079Y-83953716D01*
X47388417Y-83924804D01*
X47416795Y-83795416D01*
X47441549Y-83682819D01*
X47462982Y-83585796D01*
X47481397Y-83503128D01*
X47497097Y-83433597D01*
X47510385Y-83375985D01*
X47521564Y-83329074D01*
X47530937Y-83291646D01*
X47538807Y-83262484D01*
X47545477Y-83240369D01*
X47551250Y-83224082D01*
X47556429Y-83212407D01*
X47561318Y-83204124D01*
X47566219Y-83198017D01*
X47570229Y-83193994D01*
X47597495Y-83168227D01*
X47935575Y-83170953D01*
G37*
G36*
X37123407Y-80534411D02*
G01*
X37166438Y-80535703D01*
X37227113Y-80538261D01*
X37275872Y-80541936D01*
X37319230Y-80547647D01*
X37363702Y-80556315D01*
X37415802Y-80568858D01*
X37433315Y-80573363D01*
X37483356Y-80586908D01*
X37530784Y-80600734D01*
X37570837Y-80613388D01*
X37598755Y-80623417D01*
X37602652Y-80625063D01*
X37627255Y-80637047D01*
X37637303Y-80645958D01*
X37635640Y-80654799D01*
X37633500Y-80657627D01*
X37617808Y-80669347D01*
X37609319Y-80671465D01*
X37597794Y-80676612D01*
X37596623Y-80680311D01*
X37605316Y-80688793D01*
X37629630Y-80699097D01*
X37666921Y-80710581D01*
X37714542Y-80722601D01*
X37769849Y-80734515D01*
X37830197Y-80745680D01*
X37892940Y-80755454D01*
X37921496Y-80759258D01*
X37949014Y-80764969D01*
X37963822Y-80772875D01*
X37965274Y-80776320D01*
X37956822Y-80789645D01*
X37933832Y-80804816D01*
X37899852Y-80820115D01*
X37858427Y-80833830D01*
X37833134Y-80840215D01*
X37801077Y-80847944D01*
X37776659Y-80854852D01*
X37764973Y-80859490D01*
X37764836Y-80859614D01*
X37765625Y-80870121D01*
X37779697Y-80885785D01*
X37803786Y-80903647D01*
X37829672Y-80918336D01*
X37899917Y-80944989D01*
X37984408Y-80962354D01*
X38081345Y-80970213D01*
X38188929Y-80968350D01*
X38223329Y-80965836D01*
X38261872Y-80963291D01*
X38293370Y-80962610D01*
X38313410Y-80963815D01*
X38317979Y-80965319D01*
X38318187Y-80977300D01*
X38307658Y-80997838D01*
X38289300Y-81023098D01*
X38266023Y-81049246D01*
X38240734Y-81072449D01*
X38231177Y-81079715D01*
X38205124Y-81096217D01*
X38167958Y-81117219D01*
X38125347Y-81139600D01*
X38095872Y-81154152D01*
X38058520Y-81172656D01*
X38028234Y-81188812D01*
X38008359Y-81200758D01*
X38002139Y-81206336D01*
X38010936Y-81214776D01*
X38035943Y-81220904D01*
X38075079Y-81224701D01*
X38126263Y-81226152D01*
X38187415Y-81225237D01*
X38256456Y-81221940D01*
X38331306Y-81216243D01*
X38396794Y-81209630D01*
X38459383Y-81203825D01*
X38524889Y-81199829D01*
X38585824Y-81198008D01*
X38627201Y-81198396D01*
X38664073Y-81200199D01*
X38696188Y-81203396D01*
X38725957Y-81209055D01*
X38755792Y-81218248D01*
X38788105Y-81232046D01*
X38825306Y-81251520D01*
X38869809Y-81277739D01*
X38924024Y-81311776D01*
X38990362Y-81354700D01*
X39013998Y-81370130D01*
X39117753Y-81437714D01*
X39208494Y-81496130D01*
X39288471Y-81546544D01*
X39359936Y-81590117D01*
X39425141Y-81628012D01*
X39486336Y-81661392D01*
X39545774Y-81691421D01*
X39605706Y-81719260D01*
X39668383Y-81746074D01*
X39736057Y-81773025D01*
X39810979Y-81801276D01*
X39895401Y-81831990D01*
X39937037Y-81846905D01*
X39993551Y-81866844D01*
X40047752Y-81885524D01*
X40095863Y-81901677D01*
X40134103Y-81914033D01*
X40158227Y-81921198D01*
X40200879Y-81929555D01*
X40260712Y-81936713D01*
X40336509Y-81942599D01*
X40427054Y-81947141D01*
X40531128Y-81950265D01*
X40647517Y-81951898D01*
X40672559Y-81952041D01*
X40758911Y-81953048D01*
X40836903Y-81955200D01*
X40904680Y-81958377D01*
X40960388Y-81962460D01*
X41002173Y-81967329D01*
X41028179Y-81972864D01*
X41034025Y-81975404D01*
X41046009Y-81987473D01*
X41065148Y-82011960D01*
X41089150Y-82045453D01*
X41115726Y-82084543D01*
X41142583Y-82125819D01*
X41167432Y-82165869D01*
X41187980Y-82201284D01*
X41196433Y-82217183D01*
X41222579Y-82275498D01*
X41238987Y-82330417D01*
X41245753Y-82367587D01*
X41251086Y-82407630D01*
X41251425Y-82435057D01*
X41244314Y-82454657D01*
X41227295Y-82471223D01*
X41197911Y-82489542D01*
X41177221Y-82501188D01*
X41136590Y-82522871D01*
X41101906Y-82538217D01*
X41064530Y-82550658D01*
X41027499Y-82560669D01*
X41006971Y-82567589D01*
X40989231Y-82578728D01*
X40970441Y-82597459D01*
X40946761Y-82627156D01*
X40937044Y-82640175D01*
X40904028Y-82681545D01*
X40875659Y-82709271D01*
X40848776Y-82726411D01*
X40847061Y-82727206D01*
X40791663Y-82742489D01*
X40730668Y-82741523D01*
X40667042Y-82724384D01*
X40662747Y-82722654D01*
X40633056Y-82708834D01*
X40593282Y-82688108D01*
X40548917Y-82663425D01*
X40510679Y-82640923D01*
X40432016Y-82594553D01*
X40365265Y-82558480D01*
X40307741Y-82531745D01*
X40256754Y-82513395D01*
X40209617Y-82502472D01*
X40163644Y-82498022D01*
X40116147Y-82499087D01*
X40112661Y-82499346D01*
X40075762Y-82502805D01*
X40043667Y-82506880D01*
X40022933Y-82510729D01*
X40022042Y-82510978D01*
X40007746Y-82513502D01*
X40002694Y-82506470D01*
X40003610Y-82486037D01*
X40004478Y-82466195D01*
X39998669Y-82456758D01*
X39981392Y-82453061D01*
X39968675Y-82452034D01*
X39939278Y-82452736D01*
X39901219Y-82457363D01*
X39869029Y-82463554D01*
X39821778Y-82473695D01*
X39788654Y-82478050D01*
X39769368Y-82475379D01*
X39763632Y-82464439D01*
X39771158Y-82443989D01*
X39791655Y-82412787D01*
X39824838Y-82369590D01*
X39842176Y-82347957D01*
X39882653Y-82292560D01*
X39908203Y-82245397D01*
X39918685Y-82206938D01*
X39913958Y-82177650D01*
X39898383Y-82160641D01*
X39872077Y-82148275D01*
X39831675Y-82135112D01*
X39781421Y-82122208D01*
X39725559Y-82110620D01*
X39668332Y-82101404D01*
X39651848Y-82099297D01*
X39625945Y-82097533D01*
X39583371Y-82096285D01*
X39525878Y-82095527D01*
X39455222Y-82095238D01*
X39373154Y-82095393D01*
X39281429Y-82095970D01*
X39181800Y-82096945D01*
X39076020Y-82098296D01*
X38965843Y-82099998D01*
X38853022Y-82102029D01*
X38739311Y-82104366D01*
X38626463Y-82106985D01*
X38516231Y-82109863D01*
X38410369Y-82112976D01*
X38310630Y-82116303D01*
X38277753Y-82117503D01*
X38203931Y-82120566D01*
X38145681Y-82124276D01*
X38100146Y-82129679D01*
X38064472Y-82137821D01*
X38035801Y-82149749D01*
X38011277Y-82166510D01*
X37988045Y-82189151D01*
X37963247Y-82218717D01*
X37947845Y-82238390D01*
X37922502Y-82269416D01*
X37899979Y-82293977D01*
X37883320Y-82308912D01*
X37877041Y-82311959D01*
X37864839Y-82305581D01*
X37844155Y-82288564D01*
X37818711Y-82264085D01*
X37808517Y-82253434D01*
X37746539Y-82198330D01*
X37675458Y-82156779D01*
X37592388Y-82127175D01*
X37572987Y-82122287D01*
X37524476Y-82114826D01*
X37460080Y-82111200D01*
X37381925Y-82111314D01*
X37292134Y-82115075D01*
X37192833Y-82122386D01*
X37086146Y-82133154D01*
X36974197Y-82147282D01*
X36956094Y-82149827D01*
X36883188Y-82159786D01*
X36823379Y-82167058D01*
X36777919Y-82171519D01*
X36748061Y-82173047D01*
X36735055Y-82171521D01*
X36734903Y-82171395D01*
X36736771Y-82161033D01*
X36753254Y-82141018D01*
X36783735Y-82112075D01*
X36790201Y-82106375D01*
X36869652Y-82034125D01*
X36937400Y-81966639D01*
X36992185Y-81905270D01*
X37032747Y-81851370D01*
X37043296Y-81834613D01*
X37082895Y-81759533D01*
X37110307Y-81689347D01*
X37124625Y-81626637D01*
X37126594Y-81597601D01*
X37124860Y-81564959D01*
X37117652Y-81541882D01*
X37101960Y-81519666D01*
X37098104Y-81515202D01*
X37075576Y-81493663D01*
X37049942Y-81478520D01*
X37018854Y-81469637D01*
X36979962Y-81466878D01*
X36930916Y-81470110D01*
X36869367Y-81479195D01*
X36792964Y-81493999D01*
X36779392Y-81496850D01*
X36723683Y-81507676D01*
X36675508Y-81515158D01*
X36637387Y-81519047D01*
X36611840Y-81519096D01*
X36601388Y-81515059D01*
X36601268Y-81514314D01*
X36607303Y-81505766D01*
X36623159Y-81488102D01*
X36645460Y-81465076D01*
X36646442Y-81464092D01*
X36691066Y-81409913D01*
X36724170Y-81349790D01*
X36743064Y-81288884D01*
X36745203Y-81274572D01*
X36746857Y-81242791D01*
X36741492Y-81219338D01*
X36728758Y-81197205D01*
X36706250Y-81172854D01*
X36676748Y-81151227D01*
X36667996Y-81146525D01*
X36644921Y-81133586D01*
X36630890Y-81122213D01*
X36628916Y-81118330D01*
X36634371Y-81107219D01*
X36648855Y-81086039D01*
X36669546Y-81058840D01*
X36675765Y-81051072D01*
X36697578Y-81023179D01*
X36713747Y-80998877D01*
X36725623Y-80974217D01*
X36734558Y-80945253D01*
X36741903Y-80908036D01*
X36749009Y-80858619D01*
X36753346Y-80824487D01*
X36761040Y-80769893D01*
X36769106Y-80729530D01*
X36778580Y-80699206D01*
X36790372Y-80674950D01*
X36827952Y-80627751D01*
X36879838Y-80587656D01*
X36942470Y-80557234D01*
X36963000Y-80550324D01*
X36990150Y-80542730D01*
X37015500Y-80537649D01*
X37043316Y-80534773D01*
X37077863Y-80533796D01*
X37123407Y-80534411D01*
G37*
G36*
X38432772Y-78640289D02*
G01*
X38483966Y-78640768D01*
X38524383Y-78641841D01*
X38556572Y-78643645D01*
X38583084Y-78646321D01*
X38606472Y-78650006D01*
X38629285Y-78654839D01*
X38651512Y-78660304D01*
X38750671Y-78691929D01*
X38834582Y-78732291D01*
X38902907Y-78781087D01*
X38955309Y-78838015D01*
X38991449Y-78902775D01*
X39010990Y-78975064D01*
X39011940Y-78982067D01*
X39018050Y-79030972D01*
X39074590Y-79031042D01*
X39181604Y-79039729D01*
X39282864Y-79065700D01*
X39322619Y-79081230D01*
X39360886Y-79099027D01*
X39408434Y-79123143D01*
X39461932Y-79151680D01*
X39518053Y-79182744D01*
X39573466Y-79214438D01*
X39624843Y-79244867D01*
X39668853Y-79272135D01*
X39702168Y-79294346D01*
X39717765Y-79306229D01*
X39736650Y-79325857D01*
X39762022Y-79357058D01*
X39790707Y-79395710D01*
X39819529Y-79437691D01*
X39822477Y-79442190D01*
X39856385Y-79492369D01*
X39886220Y-79530565D01*
X39915907Y-79559673D01*
X39949371Y-79582589D01*
X39990538Y-79602209D01*
X40043334Y-79621426D01*
X40082691Y-79634115D01*
X40127977Y-79648525D01*
X40169856Y-79662165D01*
X40203494Y-79673442D01*
X40223256Y-79680454D01*
X40255513Y-79692748D01*
X40254267Y-79797328D01*
X40251420Y-79876242D01*
X40244442Y-79941395D01*
X40232560Y-79997152D01*
X40214997Y-80047875D01*
X40206307Y-80067521D01*
X40166951Y-80132482D01*
X40114875Y-80184835D01*
X40083586Y-80206945D01*
X40053050Y-80224117D01*
X40033949Y-80228432D01*
X40023913Y-80219244D01*
X40020572Y-80195909D01*
X40020498Y-80189772D01*
X40011961Y-80139955D01*
X39988078Y-80095873D01*
X39955989Y-80065497D01*
X39921183Y-80050724D01*
X39877202Y-80044592D01*
X39831353Y-80047483D01*
X39796708Y-80057176D01*
X39768435Y-80074947D01*
X39736846Y-80103873D01*
X39706996Y-80138687D01*
X39683935Y-80174118D01*
X39683191Y-80175541D01*
X39662026Y-80228963D01*
X39648903Y-80288988D01*
X39643736Y-80351452D01*
X39646444Y-80412194D01*
X39656942Y-80467050D01*
X39675147Y-80511858D01*
X39690356Y-80532862D01*
X39715926Y-80547549D01*
X39753696Y-80552291D01*
X39800705Y-80547626D01*
X39853994Y-80534095D01*
X39910602Y-80512237D01*
X39967568Y-80482592D01*
X39968166Y-80482236D01*
X39995900Y-80466140D01*
X40017044Y-80454658D01*
X40027022Y-80450275D01*
X40027023Y-80450275D01*
X40028999Y-80458666D01*
X40029394Y-80480722D01*
X40028486Y-80511772D01*
X40026548Y-80547141D01*
X40023856Y-80582157D01*
X40020686Y-80612146D01*
X40017313Y-80632436D01*
X40016042Y-80636616D01*
X40002406Y-80653462D01*
X39975758Y-80674282D01*
X39940269Y-80696383D01*
X39900113Y-80717072D01*
X39874009Y-80728281D01*
X39837149Y-80740047D01*
X39796910Y-80746627D01*
X39746287Y-80749109D01*
X39739403Y-80749181D01*
X39711392Y-80748947D01*
X39685573Y-80747235D01*
X39660652Y-80743193D01*
X39635339Y-80735972D01*
X39608343Y-80724720D01*
X39578373Y-80708587D01*
X39544137Y-80686722D01*
X39504345Y-80658275D01*
X39457705Y-80622395D01*
X39402926Y-80578231D01*
X39338718Y-80524933D01*
X39263788Y-80461650D01*
X39176847Y-80387531D01*
X39131130Y-80348421D01*
X39053390Y-80281578D01*
X38988514Y-80225071D01*
X38935095Y-80177568D01*
X38891727Y-80137737D01*
X38857002Y-80104249D01*
X38829515Y-80075771D01*
X38807858Y-80050973D01*
X38790626Y-80028523D01*
X38785885Y-80021719D01*
X38754070Y-79961106D01*
X38739850Y-79898131D01*
X38743259Y-79832129D01*
X38764332Y-79762432D01*
X38803104Y-79688376D01*
X38803248Y-79688145D01*
X38816691Y-79663790D01*
X38823005Y-79646422D01*
X38821820Y-79640715D01*
X38807802Y-79643634D01*
X38784786Y-79655804D01*
X38757377Y-79674038D01*
X38730181Y-79695150D01*
X38707803Y-79715951D01*
X38700039Y-79725002D01*
X38670751Y-79767861D01*
X38653301Y-79806331D01*
X38645145Y-79847554D01*
X38643597Y-79883476D01*
X38645809Y-79928906D01*
X38653995Y-79966192D01*
X38667074Y-79998679D01*
X38683283Y-80030290D01*
X38702623Y-80061082D01*
X38726606Y-80092574D01*
X38756745Y-80126283D01*
X38794551Y-80163728D01*
X38841536Y-80206427D01*
X38899213Y-80255897D01*
X38969095Y-80313658D01*
X39029751Y-80362791D01*
X39087924Y-80410351D01*
X39150908Y-80463119D01*
X39216686Y-80519297D01*
X39283240Y-80577085D01*
X39348554Y-80634684D01*
X39410610Y-80690295D01*
X39467390Y-80742118D01*
X39516878Y-80788354D01*
X39557056Y-80827205D01*
X39585906Y-80856870D01*
X39594247Y-80866260D01*
X39610273Y-80889571D01*
X39612548Y-80909159D01*
X39600236Y-80929522D01*
X39578684Y-80949939D01*
X39549337Y-80969496D01*
X39509019Y-80988925D01*
X39462071Y-81006930D01*
X39412830Y-81022210D01*
X39365636Y-81033467D01*
X39324826Y-81039403D01*
X39294740Y-81038719D01*
X39288123Y-81036904D01*
X39279125Y-81031568D01*
X39279227Y-81022382D01*
X39289004Y-81004204D01*
X39292414Y-80998643D01*
X39302973Y-80980700D01*
X39305631Y-80970856D01*
X39298014Y-80968491D01*
X39277750Y-80972987D01*
X39242467Y-80983726D01*
X39239173Y-80984759D01*
X39084909Y-81028170D01*
X38922895Y-81064655D01*
X38759464Y-81093041D01*
X38600945Y-81112155D01*
X38518249Y-81118285D01*
X38472283Y-81121058D01*
X38428077Y-81124094D01*
X38392103Y-81126933D01*
X38377701Y-81128292D01*
X38350303Y-81129418D01*
X38335476Y-81126226D01*
X38333924Y-81123688D01*
X38338189Y-81112808D01*
X38349953Y-81088871D01*
X38367666Y-81054881D01*
X38389778Y-81013841D01*
X38403046Y-80989727D01*
X38426903Y-80946066D01*
X38447197Y-80907770D01*
X38462376Y-80877858D01*
X38470889Y-80859350D01*
X38472168Y-80855161D01*
X38465064Y-80849461D01*
X38455027Y-80850772D01*
X38398437Y-80865236D01*
X38329259Y-80877329D01*
X38253279Y-80886157D01*
X38202819Y-80889730D01*
X38156253Y-80891884D01*
X38124854Y-80892417D01*
X38105408Y-80891048D01*
X38094697Y-80887495D01*
X38089507Y-80881475D01*
X38088764Y-80879734D01*
X38088449Y-80868483D01*
X38097006Y-80856004D01*
X38116047Y-80841268D01*
X38147187Y-80823249D01*
X38192039Y-80800920D01*
X38252216Y-80773251D01*
X38264802Y-80767624D01*
X38293752Y-80754370D01*
X38307795Y-80746254D01*
X38308969Y-80741167D01*
X38299315Y-80736999D01*
X38295508Y-80735870D01*
X38279065Y-80733211D01*
X38247397Y-80729900D01*
X38203687Y-80726202D01*
X38151121Y-80722383D01*
X38092882Y-80718705D01*
X38079427Y-80717930D01*
X37993602Y-80712692D01*
X37925055Y-80707567D01*
X37872634Y-80702344D01*
X37835187Y-80696812D01*
X37811562Y-80690761D01*
X37800608Y-80683979D01*
X37801173Y-80676256D01*
X37810065Y-80668655D01*
X37814223Y-80663076D01*
X37807365Y-80657141D01*
X37787239Y-80649797D01*
X37751597Y-80639989D01*
X37745551Y-80638438D01*
X37710732Y-80628582D01*
X37663152Y-80613737D01*
X37607310Y-80595379D01*
X37547708Y-80574984D01*
X37495244Y-80556351D01*
X37414098Y-80527366D01*
X37347236Y-80504565D01*
X37291844Y-80487252D01*
X37245104Y-80474731D01*
X37204202Y-80466308D01*
X37166322Y-80461286D01*
X37128648Y-80458971D01*
X37099362Y-80458591D01*
X37016251Y-80464524D01*
X36944344Y-80482577D01*
X36880120Y-80513778D01*
X36856538Y-80529629D01*
X36825938Y-80554745D01*
X36799455Y-80583755D01*
X36775618Y-80619315D01*
X36752959Y-80664082D01*
X36730006Y-80720715D01*
X36705290Y-80791869D01*
X36696517Y-80818926D01*
X36667938Y-80904923D01*
X36641835Y-80975141D01*
X36616809Y-81031821D01*
X36591465Y-81077204D01*
X36564404Y-81113533D01*
X36534229Y-81143048D01*
X36499544Y-81167991D01*
X36467632Y-81186149D01*
X36430767Y-81205422D01*
X36546786Y-81203411D01*
X36601732Y-81202918D01*
X36640918Y-81204546D01*
X36666999Y-81209640D01*
X36682631Y-81219547D01*
X36690469Y-81235613D01*
X36693171Y-81259185D01*
X36693430Y-81277753D01*
X36684803Y-81333824D01*
X36659776Y-81383615D01*
X36619631Y-81426053D01*
X36565648Y-81460068D01*
X36499110Y-81484587D01*
X36430637Y-81497524D01*
X36402953Y-81501959D01*
X36384588Y-81507163D01*
X36380078Y-81510651D01*
X36387913Y-81517764D01*
X36407956Y-81528100D01*
X36423855Y-81534727D01*
X36458740Y-81543291D01*
X36508439Y-81548639D01*
X36569614Y-81550773D01*
X36638930Y-81549697D01*
X36713050Y-81545413D01*
X36788638Y-81537924D01*
X36816018Y-81534382D01*
X36883157Y-81525819D01*
X36934303Y-81521065D01*
X36971494Y-81520105D01*
X36996769Y-81522926D01*
X37012165Y-81529516D01*
X37015925Y-81533096D01*
X37022645Y-81549171D01*
X37028618Y-81577107D01*
X37032008Y-81605187D01*
X37029036Y-81681433D01*
X37008528Y-81758585D01*
X36971235Y-81835237D01*
X36917908Y-81909982D01*
X36849298Y-81981413D01*
X36815715Y-82010407D01*
X36780703Y-82038340D01*
X36751266Y-82058924D01*
X36723538Y-82073279D01*
X36693654Y-82082521D01*
X36657747Y-82087770D01*
X36611952Y-82090143D01*
X36552402Y-82090758D01*
X36537861Y-82090769D01*
X36459234Y-82091817D01*
X36393009Y-82095632D01*
X36333785Y-82103221D01*
X36276161Y-82115589D01*
X36214736Y-82133743D01*
X36144109Y-82158688D01*
X36115669Y-82169419D01*
X36052785Y-82193351D01*
X36004891Y-82211311D01*
X35969786Y-82223978D01*
X35945270Y-82232030D01*
X35929141Y-82236147D01*
X35919199Y-82237007D01*
X35913243Y-82235290D01*
X35910162Y-82232813D01*
X35909732Y-82219968D01*
X35920561Y-82195944D01*
X35930505Y-82179597D01*
X35947430Y-82150066D01*
X35951982Y-82128506D01*
X35942772Y-82111003D01*
X35918409Y-82093648D01*
X35895696Y-82081553D01*
X35875826Y-82072168D01*
X35857226Y-82065785D01*
X35835793Y-82061872D01*
X35807424Y-82059898D01*
X35768017Y-82059332D01*
X35725723Y-82059536D01*
X35597120Y-82066525D01*
X35459504Y-82084702D01*
X35317549Y-82112907D01*
X35175930Y-82149983D01*
X35039319Y-82194770D01*
X34912392Y-82246110D01*
X34847151Y-82277359D01*
X34808741Y-82297542D01*
X34774711Y-82317052D01*
X34742585Y-82337814D01*
X34709886Y-82361751D01*
X34674138Y-82390786D01*
X34632864Y-82426845D01*
X34583588Y-82471850D01*
X34523832Y-82527725D01*
X34519055Y-82532222D01*
X34476101Y-82572009D01*
X34438240Y-82605788D01*
X34407360Y-82631975D01*
X34385345Y-82648989D01*
X34374082Y-82655246D01*
X34373063Y-82654741D01*
X34372676Y-82645873D01*
X34375462Y-82629265D01*
X34381850Y-82603447D01*
X34392271Y-82566947D01*
X34407156Y-82518295D01*
X34426936Y-82456019D01*
X34452041Y-82378649D01*
X34469374Y-82325783D01*
X34522569Y-82169895D01*
X34578296Y-82017629D01*
X34635264Y-81872230D01*
X34692181Y-81736938D01*
X34747755Y-81614996D01*
X34773489Y-81562330D01*
X34790558Y-81526840D01*
X34803476Y-81497213D01*
X34810570Y-81477442D01*
X34811309Y-81471871D01*
X34804692Y-81472353D01*
X34790540Y-81487054D01*
X34770110Y-81513993D01*
X34744661Y-81551189D01*
X34715452Y-81596661D01*
X34683740Y-81648429D01*
X34650784Y-81704512D01*
X34617843Y-81762929D01*
X34586174Y-81821700D01*
X34573286Y-81846538D01*
X34534186Y-81925218D01*
X34495979Y-82007188D01*
X34457845Y-82094503D01*
X34418965Y-82189222D01*
X34378518Y-82293400D01*
X34335687Y-82409095D01*
X34289651Y-82538364D01*
X34239591Y-82683264D01*
X34237353Y-82689825D01*
X34206972Y-82777736D01*
X34180919Y-82850043D01*
X34158245Y-82908803D01*
X34138000Y-82956073D01*
X34119234Y-82993910D01*
X34100997Y-83024371D01*
X34082340Y-83049512D01*
X34062312Y-83071391D01*
X34060186Y-83073490D01*
X34020337Y-83104814D01*
X33964735Y-83137188D01*
X33895943Y-83169611D01*
X33816525Y-83201083D01*
X33729045Y-83230602D01*
X33636069Y-83257168D01*
X33540159Y-83279780D01*
X33522208Y-83283468D01*
X33490761Y-83289492D01*
X33459686Y-83294712D01*
X33427316Y-83299211D01*
X33391981Y-83303073D01*
X33352012Y-83306384D01*
X33305741Y-83309228D01*
X33251499Y-83311690D01*
X33187617Y-83313854D01*
X33112427Y-83315804D01*
X33024260Y-83317626D01*
X32921446Y-83319403D01*
X32802318Y-83321221D01*
X32767305Y-83321728D01*
X32680552Y-83323111D01*
X32594853Y-83324738D01*
X32513041Y-83326536D01*
X32437949Y-83328433D01*
X32372411Y-83330356D01*
X32319260Y-83332233D01*
X32281329Y-83333992D01*
X32277570Y-83334214D01*
X32228558Y-83337463D01*
X32192554Y-83341063D01*
X32164159Y-83346335D01*
X32137972Y-83354596D01*
X32108595Y-83367165D01*
X32073208Y-83384103D01*
X31985324Y-83426856D01*
X31939194Y-83503025D01*
X31867740Y-83610757D01*
X31782458Y-83721837D01*
X31686535Y-83832525D01*
X31583161Y-83939083D01*
X31505964Y-84011097D01*
X31446421Y-84063825D01*
X31397452Y-84105736D01*
X31356134Y-84138568D01*
X31319545Y-84164057D01*
X31284764Y-84183942D01*
X31248869Y-84199960D01*
X31208936Y-84213849D01*
X31162045Y-84227346D01*
X31126559Y-84236704D01*
X31078134Y-84250129D01*
X31030188Y-84264931D01*
X30989039Y-84279084D01*
X30966081Y-84288210D01*
X30911842Y-84312197D01*
X30841914Y-84239343D01*
X30809003Y-84205929D01*
X30784517Y-84183813D01*
X30764814Y-84170359D01*
X30746253Y-84162929D01*
X30732244Y-84159942D01*
X30708057Y-84153724D01*
X30691731Y-84142376D01*
X30681798Y-84122725D01*
X30676790Y-84091598D01*
X30675241Y-84045820D01*
X30675215Y-84036607D01*
X30674819Y-84000247D01*
X30672430Y-83976710D01*
X30666251Y-83960387D01*
X30654484Y-83945669D01*
X30642172Y-83933524D01*
X30611520Y-83899819D01*
X30593015Y-83866660D01*
X30583888Y-83827418D01*
X30581498Y-83788268D01*
X30581922Y-83753180D01*
X30586032Y-83725677D01*
X30595788Y-83698117D01*
X30613152Y-83662858D01*
X30614185Y-83660889D01*
X30637747Y-83621824D01*
X30666392Y-83582412D01*
X30692659Y-83552520D01*
X30737282Y-83508567D01*
X30828364Y-83500432D01*
X30879759Y-83496619D01*
X30935865Y-83493675D01*
X30986620Y-83492098D01*
X30998881Y-83491968D01*
X31073999Y-83488473D01*
X31148263Y-83479180D01*
X31218030Y-83464960D01*
X31279660Y-83446680D01*
X31329510Y-83425210D01*
X31358665Y-83406148D01*
X31374009Y-83389927D01*
X31395908Y-83362480D01*
X31421027Y-83328134D01*
X31438469Y-83302706D01*
X31464303Y-83266964D01*
X31499416Y-83222582D01*
X31540114Y-83174015D01*
X31582705Y-83125720D01*
X31606482Y-83099949D01*
X31655780Y-83047211D01*
X31693549Y-83005669D01*
X31721117Y-82973311D01*
X31739809Y-82948123D01*
X31750951Y-82928090D01*
X31755872Y-82911200D01*
X31755896Y-82895438D01*
X31752350Y-82878792D01*
X31752297Y-82878599D01*
X31746000Y-82829628D01*
X31750376Y-82775285D01*
X31764449Y-82724485D01*
X31770704Y-82710701D01*
X31794948Y-82675448D01*
X31833362Y-82635187D01*
X31883296Y-82592450D01*
X31931784Y-82556779D01*
X31959781Y-82538148D01*
X31978249Y-82528806D01*
X31992561Y-82527190D01*
X32008088Y-82531737D01*
X32012156Y-82533391D01*
X32029643Y-82544159D01*
X32056753Y-82565023D01*
X32089992Y-82593130D01*
X32125868Y-82625624D01*
X32131411Y-82630843D01*
X32164381Y-82662063D01*
X32190472Y-82685416D01*
X32213201Y-82702156D01*
X32236083Y-82713538D01*
X32262633Y-82720813D01*
X32296367Y-82725236D01*
X32340799Y-82728061D01*
X32399445Y-82730540D01*
X32412480Y-82731076D01*
X32473303Y-82733833D01*
X32543818Y-82737394D01*
X32615325Y-82741300D01*
X32679128Y-82745095D01*
X32679751Y-82745134D01*
X32798885Y-82751255D01*
X32902649Y-82753435D01*
X32993715Y-82751524D01*
X33074750Y-82745367D01*
X33148426Y-82734813D01*
X33217412Y-82719709D01*
X33241943Y-82713034D01*
X33269854Y-82705081D01*
X33290223Y-82697722D01*
X33303348Y-82688431D01*
X33309532Y-82674683D01*
X33309073Y-82653952D01*
X33302273Y-82623713D01*
X33289431Y-82581442D01*
X33270850Y-82524613D01*
X33266088Y-82510108D01*
X33214832Y-82345889D01*
X33173586Y-82196260D01*
X33142205Y-82060428D01*
X33120543Y-81937602D01*
X33108457Y-81826988D01*
X33105800Y-81727793D01*
X33110206Y-81657605D01*
X33118779Y-81600877D01*
X33132501Y-81551395D01*
X33153137Y-81506879D01*
X33182453Y-81465045D01*
X33222211Y-81423610D01*
X33274178Y-81380293D01*
X33340118Y-81332811D01*
X33384083Y-81303368D01*
X33532098Y-81208164D01*
X33672640Y-81121920D01*
X33804480Y-81045328D01*
X33926390Y-80979080D01*
X34037143Y-80923865D01*
X34135509Y-80880377D01*
X34135919Y-80880210D01*
X34203196Y-80854508D01*
X34286176Y-80825596D01*
X34382537Y-80794117D01*
X34489956Y-80760715D01*
X34606113Y-80726034D01*
X34728684Y-80690718D01*
X34855349Y-80655412D01*
X34983784Y-80620758D01*
X35111667Y-80587400D01*
X35236678Y-80555984D01*
X35356493Y-80527152D01*
X35468792Y-80501549D01*
X35571250Y-80479818D01*
X35601304Y-80473841D01*
X35731792Y-80449545D01*
X35854948Y-80429278D01*
X35974566Y-80412657D01*
X36094441Y-80399300D01*
X36218369Y-80388824D01*
X36350143Y-80380846D01*
X36493559Y-80374985D01*
X36615092Y-80371655D01*
X36683481Y-80369803D01*
X36749116Y-80367462D01*
X36808704Y-80364793D01*
X36858948Y-80361955D01*
X36896555Y-80359111D01*
X36914620Y-80357049D01*
X36964077Y-80347153D01*
X37014259Y-80333102D01*
X37061939Y-80316272D01*
X37103889Y-80298037D01*
X37136881Y-80279772D01*
X37157689Y-80262853D01*
X37163396Y-80251066D01*
X37155710Y-80240997D01*
X37135388Y-80225834D01*
X37106665Y-80207915D01*
X37073771Y-80189580D01*
X37040938Y-80173168D01*
X37012400Y-80161020D01*
X36992388Y-80155474D01*
X36990255Y-80155355D01*
X36970669Y-80156350D01*
X36944608Y-80159586D01*
X36910149Y-80165442D01*
X36865369Y-80174298D01*
X36808344Y-80186531D01*
X36737153Y-80202522D01*
X36656565Y-80221092D01*
X36532695Y-80249298D01*
X36424953Y-80272461D01*
X36331779Y-80290725D01*
X36251613Y-80304232D01*
X36182895Y-80313127D01*
X36124065Y-80317550D01*
X36073563Y-80317646D01*
X36029829Y-80313558D01*
X35991303Y-80305428D01*
X35956425Y-80293400D01*
X35941266Y-80286639D01*
X35918929Y-80272652D01*
X35914710Y-80261220D01*
X35928380Y-80253116D01*
X35952234Y-80249536D01*
X35995773Y-80244386D01*
X36049820Y-80235050D01*
X36107335Y-80222970D01*
X36161275Y-80209589D01*
X36193598Y-80200072D01*
X36260146Y-80171840D01*
X36321032Y-80133248D01*
X36371282Y-80087775D01*
X36392796Y-80060785D01*
X36415049Y-80025988D01*
X36424891Y-80003833D01*
X36422482Y-79993482D01*
X36407985Y-79994096D01*
X36405422Y-79994873D01*
X36359421Y-80008278D01*
X36327993Y-80013866D01*
X36311076Y-80010995D01*
X36308607Y-79999024D01*
X36320522Y-79977314D01*
X36346759Y-79945221D01*
X36387254Y-79902107D01*
X36395469Y-79893720D01*
X36438331Y-79852008D01*
X36476400Y-79818567D01*
X36507053Y-79795601D01*
X36522192Y-79787149D01*
X36559078Y-79773883D01*
X36609743Y-79759759D01*
X36675547Y-79744443D01*
X36757850Y-79727603D01*
X36790201Y-79721401D01*
X36858120Y-79706967D01*
X36911117Y-79691629D01*
X36952692Y-79673935D01*
X36986348Y-79652432D01*
X37011947Y-79629459D01*
X37028186Y-79611893D01*
X37035592Y-79600252D01*
X37032548Y-79594320D01*
X37017435Y-79593880D01*
X36988637Y-79598715D01*
X36944535Y-79608608D01*
X36912903Y-79616192D01*
X36811533Y-79633931D01*
X36704190Y-79639011D01*
X36587669Y-79631512D01*
X36541362Y-79625534D01*
X36472932Y-79617621D01*
X36404275Y-79613280D01*
X36339660Y-79612525D01*
X36283351Y-79615372D01*
X36239616Y-79621838D01*
X36229949Y-79624376D01*
X36203895Y-79635636D01*
X36169204Y-79655251D01*
X36131502Y-79679899D01*
X36112294Y-79693814D01*
X36060635Y-79731382D01*
X36019334Y-79757905D01*
X35985294Y-79774931D01*
X35955416Y-79784010D01*
X35926601Y-79786691D01*
X35926544Y-79786691D01*
X35896419Y-79783162D01*
X35865149Y-79774142D01*
X35838638Y-79761951D01*
X35822789Y-79748906D01*
X35821012Y-79745232D01*
X35827584Y-79737437D01*
X35847343Y-79724489D01*
X35876614Y-79708677D01*
X35890650Y-79701833D01*
X35917085Y-79688729D01*
X35940824Y-79675151D01*
X35964056Y-79659207D01*
X35988971Y-79639010D01*
X36017760Y-79612668D01*
X36052611Y-79578294D01*
X36095716Y-79533996D01*
X36145063Y-79482307D01*
X36148475Y-79478917D01*
X39135679Y-79478917D01*
X39137646Y-79488636D01*
X39153233Y-79505063D01*
X39179701Y-79526405D01*
X39214314Y-79550873D01*
X39254335Y-79576675D01*
X39297027Y-79602020D01*
X39339652Y-79625116D01*
X39379473Y-79644172D01*
X39402505Y-79653526D01*
X39435698Y-79663711D01*
X39457509Y-79663897D01*
X39472570Y-79653213D01*
X39481668Y-79638625D01*
X39490322Y-79613076D01*
X39496418Y-79578749D01*
X39498033Y-79557983D01*
X39499780Y-79505609D01*
X39451703Y-79489657D01*
X39412516Y-79478475D01*
X39370150Y-79469007D01*
X39354933Y-79466382D01*
X39321677Y-79463330D01*
X39281348Y-79462473D01*
X39238552Y-79463548D01*
X39197898Y-79466292D01*
X39163996Y-79470441D01*
X39141454Y-79475731D01*
X39135679Y-79478917D01*
X36148475Y-79478917D01*
X36197805Y-79429905D01*
X36243410Y-79391532D01*
X36284090Y-79365330D01*
X36284597Y-79365061D01*
X36312312Y-79351094D01*
X36335291Y-79342318D01*
X36359389Y-79337552D01*
X36390462Y-79335617D01*
X36432057Y-79335324D01*
X36515001Y-79339867D01*
X36607724Y-79352664D01*
X36638133Y-79358329D01*
X36720265Y-79372553D01*
X36788514Y-79379600D01*
X36845961Y-79379509D01*
X36895684Y-79372315D01*
X36930979Y-79361838D01*
X36990419Y-79340138D01*
X37035937Y-79323999D01*
X37070889Y-79312566D01*
X37098634Y-79304984D01*
X37122530Y-79300400D01*
X37145934Y-79297959D01*
X37172204Y-79296807D01*
X37188030Y-79296436D01*
X37230406Y-79296390D01*
X37283999Y-79297557D01*
X37341646Y-79299727D01*
X37391453Y-79302387D01*
X37443647Y-79305308D01*
X37481572Y-79306315D01*
X37509313Y-79305206D01*
X37530953Y-79301781D01*
X37550576Y-79295837D01*
X37554612Y-79294331D01*
X37582925Y-79279401D01*
X37611194Y-79257945D01*
X37634880Y-79234235D01*
X37649443Y-79212545D01*
X37651921Y-79202759D01*
X37643252Y-79182410D01*
X37619060Y-79161006D01*
X37582064Y-79140124D01*
X37534983Y-79121341D01*
X37488697Y-79108116D01*
X37449181Y-79101461D01*
X37396114Y-79096428D01*
X37334318Y-79093136D01*
X37268614Y-79091707D01*
X37203822Y-79092262D01*
X37144764Y-79094921D01*
X37105858Y-79098523D01*
X37072736Y-79102093D01*
X37053922Y-79102263D01*
X37045524Y-79098549D01*
X37043648Y-79090814D01*
X37050561Y-79073966D01*
X37068990Y-79049710D01*
X37095470Y-79021375D01*
X37126538Y-78992291D01*
X37158729Y-78965790D01*
X37188578Y-78945202D01*
X37203261Y-78937368D01*
X37224233Y-78928631D01*
X37244425Y-78922656D01*
X37267918Y-78918968D01*
X37298795Y-78917088D01*
X37341140Y-78916539D01*
X37380041Y-78916693D01*
X37450169Y-78918896D01*
X37529594Y-78924167D01*
X37609564Y-78931846D01*
X37654863Y-78937430D01*
X37709845Y-78944408D01*
X37763262Y-78950309D01*
X37810274Y-78954659D01*
X37846038Y-78956983D01*
X37857016Y-78957242D01*
X37927743Y-78951344D01*
X37989829Y-78934325D01*
X38040184Y-78907199D01*
X38059124Y-78891040D01*
X38084175Y-78860865D01*
X38092706Y-78835538D01*
X38084229Y-78813420D01*
X38058250Y-78792871D01*
X38024842Y-78776589D01*
X37989826Y-78767382D01*
X37938695Y-78762065D01*
X37873357Y-78760664D01*
X37795721Y-78763204D01*
X37707695Y-78769711D01*
X37684178Y-78771972D01*
X37617007Y-78777695D01*
X37560681Y-78780422D01*
X37516900Y-78780182D01*
X37487366Y-78777005D01*
X37473783Y-78770920D01*
X37473088Y-78768309D01*
X37480984Y-78755375D01*
X37502696Y-78742284D01*
X37538977Y-78728833D01*
X37590583Y-78714817D01*
X37658269Y-78700033D01*
X37742791Y-78684277D01*
X37844902Y-78667345D01*
X37850070Y-78666529D01*
X37897155Y-78659325D01*
X37938679Y-78653642D01*
X37977885Y-78649290D01*
X38018013Y-78646074D01*
X38062306Y-78643803D01*
X38114005Y-78642284D01*
X38176351Y-78641326D01*
X38252586Y-78640736D01*
X38287842Y-78640559D01*
X38368247Y-78640266D01*
X38432772Y-78640289D01*
G37*
D13*
%TO.C,J2*%
X69700000Y-108300000D02*
X69700000Y-108300000D01*
X69600000Y-108300000D02*
X69600000Y-108300000D01*
D14*
X69100000Y-120350000D02*
X28300000Y-120350000D01*
X69100000Y-88250000D02*
X69100000Y-120350000D01*
X28300000Y-120350000D02*
X28300000Y-88250000D01*
X28300000Y-88250000D02*
X69100000Y-88250000D01*
D13*
X69600000Y-108300000D02*
G75*
G03*
X69700000Y-108300000I50000J0D01*
G01*
X69700000Y-108300000D02*
G75*
G03*
X69600000Y-108300000I-50000J0D01*
G01*
D12*
%TO.C,D12*%
X123655000Y-119790000D02*
X126745000Y-119790000D01*
X125200462Y-114240001D02*
G75*
G03*
X123655170Y-119789999I-462J-2989999D01*
G01*
X126744830Y-119790000D02*
G75*
G03*
X125199538Y-114240000I-1544830J2560000D01*
G01*
X127700000Y-117230000D02*
G75*
G03*
X127700000Y-117230000I-2500000J0D01*
G01*
%TO.C,R10*%
X101200000Y-102140000D02*
X101200000Y-102910000D01*
X102570000Y-102910000D02*
X99830000Y-102910000D01*
X99830000Y-102910000D02*
X99830000Y-109450000D01*
X102570000Y-109450000D02*
X102570000Y-102910000D01*
X99830000Y-109450000D02*
X102570000Y-109450000D01*
X101200000Y-110220000D02*
X101200000Y-109450000D01*
%TO.C,R5*%
X125200000Y-56040000D02*
X125200000Y-56810000D01*
X126570000Y-56810000D02*
X123830000Y-56810000D01*
X123830000Y-56810000D02*
X123830000Y-63350000D01*
X126570000Y-63350000D02*
X126570000Y-56810000D01*
X123830000Y-63350000D02*
X126570000Y-63350000D01*
X125200000Y-64120000D02*
X125200000Y-63350000D01*
%TO.C,TP3*%
X102950000Y-50160000D02*
G75*
G03*
X102950000Y-50160000I-1750000J0D01*
G01*
%TO.C,R13*%
X137200000Y-102300000D02*
X137200000Y-103070000D01*
X138570000Y-103070000D02*
X135830000Y-103070000D01*
X135830000Y-103070000D02*
X135830000Y-109610000D01*
X138570000Y-109610000D02*
X138570000Y-103070000D01*
X135830000Y-109610000D02*
X138570000Y-109610000D01*
X137200000Y-110380000D02*
X137200000Y-109610000D01*
%TO.C,D2*%
X87655000Y-73830000D02*
X90745000Y-73830000D01*
X89200462Y-68280001D02*
G75*
G03*
X87655170Y-73829999I-462J-2989999D01*
G01*
X90744830Y-73830000D02*
G75*
G03*
X89199538Y-68280000I-1544830J2560000D01*
G01*
X91700000Y-71270000D02*
G75*
G03*
X91700000Y-71270000I-2500000J0D01*
G01*
%TO.C,TP5*%
X126950000Y-50160000D02*
G75*
G03*
X126950000Y-50160000I-1750000J0D01*
G01*
%TO.C,R12*%
X125200000Y-102140000D02*
X125200000Y-102910000D01*
X126570000Y-102910000D02*
X123830000Y-102910000D01*
X123830000Y-102910000D02*
X123830000Y-109450000D01*
X126570000Y-109450000D02*
X126570000Y-102910000D01*
X123830000Y-109450000D02*
X126570000Y-109450000D01*
X125200000Y-110220000D02*
X125200000Y-109450000D01*
D13*
%TO.C,SW7*%
X152650000Y-98400000D02*
X145750000Y-98400000D01*
X152650000Y-98400000D02*
X152650000Y-89800000D01*
X145750000Y-89800000D02*
X145750000Y-98400000D01*
X145750000Y-89800000D02*
X152650000Y-89800000D01*
D12*
%TO.C,R6*%
X137200000Y-56040000D02*
X137200000Y-56810000D01*
X138570000Y-56810000D02*
X135830000Y-56810000D01*
X135830000Y-56810000D02*
X135830000Y-63350000D01*
X138570000Y-63350000D02*
X138570000Y-56810000D01*
X135830000Y-63350000D02*
X138570000Y-63350000D01*
X137200000Y-64120000D02*
X137200000Y-63350000D01*
%TO.C,R4*%
X113200000Y-56040000D02*
X113200000Y-56810000D01*
X114570000Y-56810000D02*
X111830000Y-56810000D01*
X111830000Y-56810000D02*
X111830000Y-63350000D01*
X114570000Y-63350000D02*
X114570000Y-56810000D01*
X111830000Y-63350000D02*
X114570000Y-63350000D01*
X113200000Y-64120000D02*
X113200000Y-63350000D01*
%TO.C,R2*%
X89200000Y-56040000D02*
X89200000Y-56810000D01*
X90570000Y-56810000D02*
X87830000Y-56810000D01*
X87830000Y-56810000D02*
X87830000Y-63350000D01*
X90570000Y-63350000D02*
X90570000Y-56810000D01*
X87830000Y-63350000D02*
X90570000Y-63350000D01*
X89200000Y-64120000D02*
X89200000Y-63350000D01*
%TO.C,TP9*%
X90950000Y-85900000D02*
G75*
G03*
X90950000Y-85900000I-1750000J0D01*
G01*
%TO.C,R1*%
X77200000Y-56040000D02*
X77200000Y-56810000D01*
X78570000Y-56810000D02*
X75830000Y-56810000D01*
X75830000Y-56810000D02*
X75830000Y-63350000D01*
X78570000Y-63350000D02*
X78570000Y-56810000D01*
X75830000Y-63350000D02*
X78570000Y-63350000D01*
X77200000Y-64120000D02*
X77200000Y-63350000D01*
D13*
%TO.C,SW2*%
X92650000Y-98400000D02*
X85750000Y-98400000D01*
X92650000Y-98400000D02*
X92650000Y-89800000D01*
X85750000Y-89800000D02*
X85750000Y-98400000D01*
X85750000Y-89800000D02*
X92650000Y-89800000D01*
%TO.C,SW3*%
X104650000Y-98400000D02*
X97750000Y-98400000D01*
X104650000Y-98400000D02*
X104650000Y-89800000D01*
X97750000Y-89800000D02*
X97750000Y-98400000D01*
X97750000Y-89800000D02*
X104650000Y-89800000D01*
%TO.C,SW6*%
X140650000Y-98400000D02*
X133750000Y-98400000D01*
X140650000Y-98400000D02*
X140650000Y-89800000D01*
X133750000Y-89800000D02*
X133750000Y-98400000D01*
X133750000Y-89800000D02*
X140650000Y-89800000D01*
D12*
%TO.C,R8*%
X77200000Y-102140000D02*
X77200000Y-102910000D01*
X78570000Y-102910000D02*
X75830000Y-102910000D01*
X75830000Y-102910000D02*
X75830000Y-109450000D01*
X78570000Y-109450000D02*
X78570000Y-102910000D01*
X75830000Y-109450000D02*
X78570000Y-109450000D01*
X77200000Y-110220000D02*
X77200000Y-109450000D01*
D13*
%TO.C,SW4*%
X116650000Y-98400000D02*
X109750000Y-98400000D01*
X116650000Y-98400000D02*
X116650000Y-89800000D01*
X109750000Y-89800000D02*
X109750000Y-98400000D01*
X109750000Y-89800000D02*
X116650000Y-89800000D01*
D12*
%TO.C,TP8*%
X78950000Y-85900000D02*
G75*
G03*
X78950000Y-85900000I-1750000J0D01*
G01*
%TO.C,TP11*%
X114950000Y-85900000D02*
G75*
G03*
X114950000Y-85900000I-1750000J0D01*
G01*
%TO.C,D7*%
X147655000Y-73830000D02*
X150745000Y-73830000D01*
X149200462Y-68280001D02*
G75*
G03*
X147655170Y-73829999I-462J-2989999D01*
G01*
X150744830Y-73830000D02*
G75*
G03*
X149199538Y-68280000I-1544830J2560000D01*
G01*
X151700000Y-71270000D02*
G75*
G03*
X151700000Y-71270000I-2500000J0D01*
G01*
%TO.C,D1*%
X75655000Y-73830000D02*
X78745000Y-73830000D01*
X77200462Y-68280001D02*
G75*
G03*
X75655170Y-73829999I-462J-2989999D01*
G01*
X78744830Y-73830000D02*
G75*
G03*
X77199538Y-68280000I-1544830J2560000D01*
G01*
X79700000Y-71270000D02*
G75*
G03*
X79700000Y-71270000I-2500000J0D01*
G01*
D13*
%TO.C,SW1*%
X80650000Y-98400000D02*
X73750000Y-98400000D01*
X80650000Y-98400000D02*
X80650000Y-89800000D01*
X73750000Y-89800000D02*
X73750000Y-98400000D01*
X73750000Y-89800000D02*
X80650000Y-89800000D01*
D12*
%TO.C,D11*%
X111655000Y-119790000D02*
X114745000Y-119790000D01*
X113200462Y-114240001D02*
G75*
G03*
X111655170Y-119789999I-462J-2989999D01*
G01*
X114744830Y-119790000D02*
G75*
G03*
X113199538Y-114240000I-1544830J2560000D01*
G01*
X115700000Y-117230000D02*
G75*
G03*
X115700000Y-117230000I-2500000J0D01*
G01*
%TO.C,TP4*%
X114950000Y-50160000D02*
G75*
G03*
X114950000Y-50160000I-1750000J0D01*
G01*
%TO.C,TP14*%
X150950000Y-85900000D02*
G75*
G03*
X150950000Y-85900000I-1750000J0D01*
G01*
%TO.C,R3*%
X101200000Y-56040000D02*
X101200000Y-56810000D01*
X102570000Y-56810000D02*
X99830000Y-56810000D01*
X99830000Y-56810000D02*
X99830000Y-63350000D01*
X102570000Y-63350000D02*
X102570000Y-56810000D01*
X99830000Y-63350000D02*
X102570000Y-63350000D01*
X101200000Y-64120000D02*
X101200000Y-63350000D01*
%TO.C,D14*%
X147655000Y-119790000D02*
X150745000Y-119790000D01*
X149200462Y-114240001D02*
G75*
G03*
X147655170Y-119789999I-462J-2989999D01*
G01*
X150744830Y-119790000D02*
G75*
G03*
X149199538Y-114240000I-1544830J2560000D01*
G01*
X151700000Y-117230000D02*
G75*
G03*
X151700000Y-117230000I-2500000J0D01*
G01*
%TO.C,D5*%
X123655000Y-73830000D02*
X126745000Y-73830000D01*
X125200462Y-68280001D02*
G75*
G03*
X123655170Y-73829999I-462J-2989999D01*
G01*
X126744830Y-73830000D02*
G75*
G03*
X125199538Y-68280000I-1544830J2560000D01*
G01*
X127700000Y-71270000D02*
G75*
G03*
X127700000Y-71270000I-2500000J0D01*
G01*
D13*
%TO.C,SW5*%
X128650000Y-98400000D02*
X121750000Y-98400000D01*
X128650000Y-98400000D02*
X128650000Y-89800000D01*
X121750000Y-89800000D02*
X121750000Y-98400000D01*
X121750000Y-89800000D02*
X128650000Y-89800000D01*
D12*
%TO.C,D10*%
X99655000Y-119790000D02*
X102745000Y-119790000D01*
X101200462Y-114240001D02*
G75*
G03*
X99655170Y-119789999I-462J-2989999D01*
G01*
X102744830Y-119790000D02*
G75*
G03*
X101199538Y-114240000I-1544830J2560000D01*
G01*
X103700000Y-117230000D02*
G75*
G03*
X103700000Y-117230000I-2500000J0D01*
G01*
%TO.C,TP1*%
X78950000Y-50160000D02*
G75*
G03*
X78950000Y-50160000I-1750000J0D01*
G01*
%TO.C,TP15*%
X150950000Y-78400000D02*
G75*
G03*
X150950000Y-78400000I-1750000J0D01*
G01*
%TO.C,D8*%
X75655000Y-119790000D02*
X78745000Y-119790000D01*
X77200462Y-114240001D02*
G75*
G03*
X75655170Y-119789999I-462J-2989999D01*
G01*
X78744830Y-119790000D02*
G75*
G03*
X77199538Y-114240000I-1544830J2560000D01*
G01*
X79700000Y-117230000D02*
G75*
G03*
X79700000Y-117230000I-2500000J0D01*
G01*
%TD*%
M02*
