M48
; DRILL file {KiCad 8.0.2} date 2024-05-12T16:10:17+0100
; FORMAT={-:-/ absolute / metric / decimal}
; #@! TF.CreationDate,2024-05-12T16:10:17+01:00
; #@! TF.GenerationSoftware,Kicad,Pcbnew,8.0.2
; #@! TF.FileFunction,Plated,1,2,PTH
FMAT,2
METRIC
; #@! TA.AperFunction,Plated,PTH,ViaDrill
T1C0.400
; #@! TA.AperFunction,Plated,PTH,ComponentDrill
T2C0.800
; #@! TA.AperFunction,Plated,PTH,ComponentDrill
T3C0.950
; #@! TA.AperFunction,Plated,PTH,ComponentDrill
T4C1.700
%
G90
G05
T1
X167.64Y-85.09
X173.99Y-88.9
X173.99Y-91.44
X173.99Y-93.98
X174.625Y-97.79
T2
X144.78Y-82.55
X144.78Y-90.17
X144.78Y-95.25
X147.4Y-102.87
X147.44Y-99.06
X148.59Y-82.55
X148.59Y-90.17
X151.13Y-82.55
X151.13Y-90.17
X152.4Y-95.25
X152.4Y-102.87
X152.44Y-99.06
X153.67Y-82.55
X153.67Y-90.17
X156.21Y-82.55
X156.21Y-90.17
X158.75Y-96.52
X158.75Y-101.4
X160.02Y-82.55
X160.02Y-90.17
X163.83Y-82.55
X163.83Y-85.09
X163.83Y-87.63
X163.83Y-90.17
X163.83Y-92.71
X163.83Y-95.25
X163.83Y-97.79
X163.83Y-100.33
X163.83Y-102.87
X171.45Y-82.55
X171.45Y-85.09
X171.45Y-87.63
X171.45Y-90.17
X171.45Y-92.71
X171.45Y-95.25
X171.45Y-97.79
X171.45Y-100.33
X171.45Y-102.87
T3
X177.8Y-86.46
X177.8Y-88.96
X177.8Y-91.46
X177.8Y-93.96
X177.8Y-96.46
X177.8Y-98.96
X185.42Y-86.46
X185.42Y-88.96
X185.42Y-91.46
X185.42Y-93.96
X185.42Y-96.46
X185.42Y-98.96
T4
X139.11Y-90.01
X139.11Y-95.41
M30
