%TF.GenerationSoftware,KiCad,Pcbnew,8.0.2*%
%TF.CreationDate,2024-05-12T16:10:16+01:00*%
%TF.ProjectId,TelemetryCANBoard,54656c65-6d65-4747-9279-43414e426f61,rev?*%
%TF.SameCoordinates,Original*%
%TF.FileFunction,Drillmap*%
%TF.FilePolarity,Positive*%
%FSLAX45Y45*%
G04 Gerber Fmt 4.5, Leading zero omitted, Abs format (unit mm)*
G04 Created by KiCad (PCBNEW 8.0.2) date 2024-05-12 16:10:16*
%MOMM*%
%LPD*%
G01*
G04 APERTURE LIST*
%ADD10C,0.100000*%
%ADD11C,0.200000*%
%ADD12C,0.170000*%
G04 APERTURE END LIST*
D10*
X18796000Y-7493000D02*
X12573000Y-7493000D01*
X18923000Y-10922000D02*
X18923000Y-7620000D01*
X12446000Y-7620000D02*
X12446000Y-10922000D01*
X18796000Y-11049000D02*
X12573000Y-11049000D01*
X18923000Y-10922000D02*
G75*
G02*
X18796000Y-11049000I-127000J0D01*
G01*
X12446000Y-7620000D02*
G75*
G02*
X12573000Y-7493000I127000J0D01*
G01*
X18796000Y-7493000D02*
G75*
G02*
X18923000Y-7620000I0J-127000D01*
G01*
X12573000Y-11049000D02*
G75*
G02*
X12446000Y-10922000I0J127000D01*
G01*
D11*
D10*
X16744000Y-8489000D02*
X16784000Y-8529000D01*
X16784000Y-8489000D02*
X16744000Y-8529000D01*
X17379000Y-8870000D02*
X17419000Y-8910000D01*
X17419000Y-8870000D02*
X17379000Y-8910000D01*
X17379000Y-9124000D02*
X17419000Y-9164000D01*
X17419000Y-9124000D02*
X17379000Y-9164000D01*
X17379000Y-9378000D02*
X17419000Y-9418000D01*
X17419000Y-9378000D02*
X17379000Y-9418000D01*
X17442500Y-9759000D02*
X17482500Y-9799000D01*
X17482500Y-9759000D02*
X17442500Y-9799000D01*
X14518000Y-8255000D02*
G75*
G02*
X14438000Y-8255000I-40000J0D01*
G01*
X14438000Y-8255000D02*
G75*
G02*
X14518000Y-8255000I40000J0D01*
G01*
X14518000Y-9017000D02*
G75*
G02*
X14438000Y-9017000I-40000J0D01*
G01*
X14438000Y-9017000D02*
G75*
G02*
X14518000Y-9017000I40000J0D01*
G01*
X14518000Y-9525000D02*
G75*
G02*
X14438000Y-9525000I-40000J0D01*
G01*
X14438000Y-9525000D02*
G75*
G02*
X14518000Y-9525000I40000J0D01*
G01*
X14780000Y-10287000D02*
G75*
G02*
X14700000Y-10287000I-40000J0D01*
G01*
X14700000Y-10287000D02*
G75*
G02*
X14780000Y-10287000I40000J0D01*
G01*
X14784000Y-9906000D02*
G75*
G02*
X14704000Y-9906000I-40000J0D01*
G01*
X14704000Y-9906000D02*
G75*
G02*
X14784000Y-9906000I40000J0D01*
G01*
X14899000Y-8255000D02*
G75*
G02*
X14819000Y-8255000I-40000J0D01*
G01*
X14819000Y-8255000D02*
G75*
G02*
X14899000Y-8255000I40000J0D01*
G01*
X14899000Y-9017000D02*
G75*
G02*
X14819000Y-9017000I-40000J0D01*
G01*
X14819000Y-9017000D02*
G75*
G02*
X14899000Y-9017000I40000J0D01*
G01*
X15153000Y-8255000D02*
G75*
G02*
X15073000Y-8255000I-40000J0D01*
G01*
X15073000Y-8255000D02*
G75*
G02*
X15153000Y-8255000I40000J0D01*
G01*
X15153000Y-9017000D02*
G75*
G02*
X15073000Y-9017000I-40000J0D01*
G01*
X15073000Y-9017000D02*
G75*
G02*
X15153000Y-9017000I40000J0D01*
G01*
X15280000Y-9525000D02*
G75*
G02*
X15200000Y-9525000I-40000J0D01*
G01*
X15200000Y-9525000D02*
G75*
G02*
X15280000Y-9525000I40000J0D01*
G01*
X15280000Y-10287000D02*
G75*
G02*
X15200000Y-10287000I-40000J0D01*
G01*
X15200000Y-10287000D02*
G75*
G02*
X15280000Y-10287000I40000J0D01*
G01*
X15284000Y-9906000D02*
G75*
G02*
X15204000Y-9906000I-40000J0D01*
G01*
X15204000Y-9906000D02*
G75*
G02*
X15284000Y-9906000I40000J0D01*
G01*
X15407000Y-8255000D02*
G75*
G02*
X15327000Y-8255000I-40000J0D01*
G01*
X15327000Y-8255000D02*
G75*
G02*
X15407000Y-8255000I40000J0D01*
G01*
X15407000Y-9017000D02*
G75*
G02*
X15327000Y-9017000I-40000J0D01*
G01*
X15327000Y-9017000D02*
G75*
G02*
X15407000Y-9017000I40000J0D01*
G01*
X15661000Y-8255000D02*
G75*
G02*
X15581000Y-8255000I-40000J0D01*
G01*
X15581000Y-8255000D02*
G75*
G02*
X15661000Y-8255000I40000J0D01*
G01*
X15661000Y-9017000D02*
G75*
G02*
X15581000Y-9017000I-40000J0D01*
G01*
X15581000Y-9017000D02*
G75*
G02*
X15661000Y-9017000I40000J0D01*
G01*
X15915000Y-9652000D02*
G75*
G02*
X15835000Y-9652000I-40000J0D01*
G01*
X15835000Y-9652000D02*
G75*
G02*
X15915000Y-9652000I40000J0D01*
G01*
X15915000Y-10140000D02*
G75*
G02*
X15835000Y-10140000I-40000J0D01*
G01*
X15835000Y-10140000D02*
G75*
G02*
X15915000Y-10140000I40000J0D01*
G01*
X16042000Y-8255000D02*
G75*
G02*
X15962000Y-8255000I-40000J0D01*
G01*
X15962000Y-8255000D02*
G75*
G02*
X16042000Y-8255000I40000J0D01*
G01*
X16042000Y-9017000D02*
G75*
G02*
X15962000Y-9017000I-40000J0D01*
G01*
X15962000Y-9017000D02*
G75*
G02*
X16042000Y-9017000I40000J0D01*
G01*
X16423000Y-8255000D02*
G75*
G02*
X16343000Y-8255000I-40000J0D01*
G01*
X16343000Y-8255000D02*
G75*
G02*
X16423000Y-8255000I40000J0D01*
G01*
X16423000Y-8509000D02*
G75*
G02*
X16343000Y-8509000I-40000J0D01*
G01*
X16343000Y-8509000D02*
G75*
G02*
X16423000Y-8509000I40000J0D01*
G01*
X16423000Y-8763000D02*
G75*
G02*
X16343000Y-8763000I-40000J0D01*
G01*
X16343000Y-8763000D02*
G75*
G02*
X16423000Y-8763000I40000J0D01*
G01*
X16423000Y-9017000D02*
G75*
G02*
X16343000Y-9017000I-40000J0D01*
G01*
X16343000Y-9017000D02*
G75*
G02*
X16423000Y-9017000I40000J0D01*
G01*
X16423000Y-9271000D02*
G75*
G02*
X16343000Y-9271000I-40000J0D01*
G01*
X16343000Y-9271000D02*
G75*
G02*
X16423000Y-9271000I40000J0D01*
G01*
X16423000Y-9525000D02*
G75*
G02*
X16343000Y-9525000I-40000J0D01*
G01*
X16343000Y-9525000D02*
G75*
G02*
X16423000Y-9525000I40000J0D01*
G01*
X16423000Y-9779000D02*
G75*
G02*
X16343000Y-9779000I-40000J0D01*
G01*
X16343000Y-9779000D02*
G75*
G02*
X16423000Y-9779000I40000J0D01*
G01*
X16423000Y-10033000D02*
G75*
G02*
X16343000Y-10033000I-40000J0D01*
G01*
X16343000Y-10033000D02*
G75*
G02*
X16423000Y-10033000I40000J0D01*
G01*
X16423000Y-10287000D02*
G75*
G02*
X16343000Y-10287000I-40000J0D01*
G01*
X16343000Y-10287000D02*
G75*
G02*
X16423000Y-10287000I40000J0D01*
G01*
X17185000Y-8255000D02*
G75*
G02*
X17105000Y-8255000I-40000J0D01*
G01*
X17105000Y-8255000D02*
G75*
G02*
X17185000Y-8255000I40000J0D01*
G01*
X17185000Y-8509000D02*
G75*
G02*
X17105000Y-8509000I-40000J0D01*
G01*
X17105000Y-8509000D02*
G75*
G02*
X17185000Y-8509000I40000J0D01*
G01*
X17185000Y-8763000D02*
G75*
G02*
X17105000Y-8763000I-40000J0D01*
G01*
X17105000Y-8763000D02*
G75*
G02*
X17185000Y-8763000I40000J0D01*
G01*
X17185000Y-9017000D02*
G75*
G02*
X17105000Y-9017000I-40000J0D01*
G01*
X17105000Y-9017000D02*
G75*
G02*
X17185000Y-9017000I40000J0D01*
G01*
X17185000Y-9271000D02*
G75*
G02*
X17105000Y-9271000I-40000J0D01*
G01*
X17105000Y-9271000D02*
G75*
G02*
X17185000Y-9271000I40000J0D01*
G01*
X17185000Y-9525000D02*
G75*
G02*
X17105000Y-9525000I-40000J0D01*
G01*
X17105000Y-9525000D02*
G75*
G02*
X17185000Y-9525000I40000J0D01*
G01*
X17185000Y-9779000D02*
G75*
G02*
X17105000Y-9779000I-40000J0D01*
G01*
X17105000Y-9779000D02*
G75*
G02*
X17185000Y-9779000I40000J0D01*
G01*
X17185000Y-10033000D02*
G75*
G02*
X17105000Y-10033000I-40000J0D01*
G01*
X17105000Y-10033000D02*
G75*
G02*
X17185000Y-10033000I40000J0D01*
G01*
X17185000Y-10287000D02*
G75*
G02*
X17105000Y-10287000I-40000J0D01*
G01*
X17105000Y-10287000D02*
G75*
G02*
X17185000Y-10287000I40000J0D01*
G01*
X17780000Y-8598500D02*
X17780000Y-8693500D01*
X17732500Y-8646000D02*
X17827500Y-8646000D01*
X17780000Y-8848500D02*
X17780000Y-8943500D01*
X17732500Y-8896000D02*
X17827500Y-8896000D01*
X17780000Y-9098500D02*
X17780000Y-9193500D01*
X17732500Y-9146000D02*
X17827500Y-9146000D01*
X17780000Y-9348500D02*
X17780000Y-9443500D01*
X17732500Y-9396000D02*
X17827500Y-9396000D01*
X17780000Y-9598500D02*
X17780000Y-9693500D01*
X17732500Y-9646000D02*
X17827500Y-9646000D01*
X17780000Y-9848500D02*
X17780000Y-9943500D01*
X17732500Y-9896000D02*
X17827500Y-9896000D01*
X18542000Y-8598500D02*
X18542000Y-8693500D01*
X18494500Y-8646000D02*
X18589500Y-8646000D01*
X18542000Y-8848500D02*
X18542000Y-8943500D01*
X18494500Y-8896000D02*
X18589500Y-8896000D01*
X18542000Y-9098500D02*
X18542000Y-9193500D01*
X18494500Y-9146000D02*
X18589500Y-9146000D01*
X18542000Y-9348500D02*
X18542000Y-9443500D01*
X18494500Y-9396000D02*
X18589500Y-9396000D01*
X18542000Y-9598500D02*
X18542000Y-9693500D01*
X18494500Y-9646000D02*
X18589500Y-9646000D01*
X18542000Y-9848500D02*
X18542000Y-9943500D01*
X18494500Y-9896000D02*
X18589500Y-9896000D01*
D12*
X13971105Y-9061105D02*
X13971105Y-8940895D01*
X13850895Y-8940895D01*
X13850895Y-9061105D01*
X13971105Y-9061105D01*
X13971105Y-9601105D02*
X13971105Y-9480895D01*
X13850895Y-9480895D01*
X13850895Y-9601105D01*
X13971105Y-9601105D01*
D11*
X12701777Y-11365484D02*
X12701777Y-11165484D01*
X12701777Y-11165484D02*
X12749396Y-11165484D01*
X12749396Y-11165484D02*
X12777967Y-11175008D01*
X12777967Y-11175008D02*
X12797015Y-11194055D01*
X12797015Y-11194055D02*
X12806539Y-11213103D01*
X12806539Y-11213103D02*
X12816062Y-11251198D01*
X12816062Y-11251198D02*
X12816062Y-11279769D01*
X12816062Y-11279769D02*
X12806539Y-11317865D01*
X12806539Y-11317865D02*
X12797015Y-11336912D01*
X12797015Y-11336912D02*
X12777967Y-11355960D01*
X12777967Y-11355960D02*
X12749396Y-11365484D01*
X12749396Y-11365484D02*
X12701777Y-11365484D01*
X12901777Y-11365484D02*
X12901777Y-11232150D01*
X12901777Y-11270246D02*
X12911301Y-11251198D01*
X12911301Y-11251198D02*
X12920824Y-11241674D01*
X12920824Y-11241674D02*
X12939872Y-11232150D01*
X12939872Y-11232150D02*
X12958920Y-11232150D01*
X13025586Y-11365484D02*
X13025586Y-11232150D01*
X13025586Y-11165484D02*
X13016062Y-11175008D01*
X13016062Y-11175008D02*
X13025586Y-11184531D01*
X13025586Y-11184531D02*
X13035110Y-11175008D01*
X13035110Y-11175008D02*
X13025586Y-11165484D01*
X13025586Y-11165484D02*
X13025586Y-11184531D01*
X13149396Y-11365484D02*
X13130348Y-11355960D01*
X13130348Y-11355960D02*
X13120824Y-11336912D01*
X13120824Y-11336912D02*
X13120824Y-11165484D01*
X13254158Y-11365484D02*
X13235110Y-11355960D01*
X13235110Y-11355960D02*
X13225586Y-11336912D01*
X13225586Y-11336912D02*
X13225586Y-11165484D01*
X13482729Y-11365484D02*
X13482729Y-11165484D01*
X13482729Y-11165484D02*
X13549396Y-11308341D01*
X13549396Y-11308341D02*
X13616062Y-11165484D01*
X13616062Y-11165484D02*
X13616062Y-11365484D01*
X13797015Y-11365484D02*
X13797015Y-11260722D01*
X13797015Y-11260722D02*
X13787491Y-11241674D01*
X13787491Y-11241674D02*
X13768443Y-11232150D01*
X13768443Y-11232150D02*
X13730348Y-11232150D01*
X13730348Y-11232150D02*
X13711301Y-11241674D01*
X13797015Y-11355960D02*
X13777967Y-11365484D01*
X13777967Y-11365484D02*
X13730348Y-11365484D01*
X13730348Y-11365484D02*
X13711301Y-11355960D01*
X13711301Y-11355960D02*
X13701777Y-11336912D01*
X13701777Y-11336912D02*
X13701777Y-11317865D01*
X13701777Y-11317865D02*
X13711301Y-11298817D01*
X13711301Y-11298817D02*
X13730348Y-11289293D01*
X13730348Y-11289293D02*
X13777967Y-11289293D01*
X13777967Y-11289293D02*
X13797015Y-11279769D01*
X13892253Y-11232150D02*
X13892253Y-11432150D01*
X13892253Y-11241674D02*
X13911301Y-11232150D01*
X13911301Y-11232150D02*
X13949396Y-11232150D01*
X13949396Y-11232150D02*
X13968443Y-11241674D01*
X13968443Y-11241674D02*
X13977967Y-11251198D01*
X13977967Y-11251198D02*
X13987491Y-11270246D01*
X13987491Y-11270246D02*
X13987491Y-11327388D01*
X13987491Y-11327388D02*
X13977967Y-11346436D01*
X13977967Y-11346436D02*
X13968443Y-11355960D01*
X13968443Y-11355960D02*
X13949396Y-11365484D01*
X13949396Y-11365484D02*
X13911301Y-11365484D01*
X13911301Y-11365484D02*
X13892253Y-11355960D01*
X14073205Y-11346436D02*
X14082729Y-11355960D01*
X14082729Y-11355960D02*
X14073205Y-11365484D01*
X14073205Y-11365484D02*
X14063682Y-11355960D01*
X14063682Y-11355960D02*
X14073205Y-11346436D01*
X14073205Y-11346436D02*
X14073205Y-11365484D01*
X14073205Y-11241674D02*
X14082729Y-11251198D01*
X14082729Y-11251198D02*
X14073205Y-11260722D01*
X14073205Y-11260722D02*
X14063682Y-11251198D01*
X14063682Y-11251198D02*
X14073205Y-11241674D01*
X14073205Y-11241674D02*
X14073205Y-11260722D01*
D10*
X12401000Y-11674000D02*
X12441000Y-11714000D01*
X12441000Y-11674000D02*
X12401000Y-11714000D01*
D11*
X12739872Y-11585484D02*
X12758920Y-11585484D01*
X12758920Y-11585484D02*
X12777967Y-11595008D01*
X12777967Y-11595008D02*
X12787491Y-11604531D01*
X12787491Y-11604531D02*
X12797015Y-11623579D01*
X12797015Y-11623579D02*
X12806539Y-11661674D01*
X12806539Y-11661674D02*
X12806539Y-11709293D01*
X12806539Y-11709293D02*
X12797015Y-11747388D01*
X12797015Y-11747388D02*
X12787491Y-11766436D01*
X12787491Y-11766436D02*
X12777967Y-11775960D01*
X12777967Y-11775960D02*
X12758920Y-11785484D01*
X12758920Y-11785484D02*
X12739872Y-11785484D01*
X12739872Y-11785484D02*
X12720824Y-11775960D01*
X12720824Y-11775960D02*
X12711301Y-11766436D01*
X12711301Y-11766436D02*
X12701777Y-11747388D01*
X12701777Y-11747388D02*
X12692253Y-11709293D01*
X12692253Y-11709293D02*
X12692253Y-11661674D01*
X12692253Y-11661674D02*
X12701777Y-11623579D01*
X12701777Y-11623579D02*
X12711301Y-11604531D01*
X12711301Y-11604531D02*
X12720824Y-11595008D01*
X12720824Y-11595008D02*
X12739872Y-11585484D01*
X12892253Y-11766436D02*
X12901777Y-11775960D01*
X12901777Y-11775960D02*
X12892253Y-11785484D01*
X12892253Y-11785484D02*
X12882729Y-11775960D01*
X12882729Y-11775960D02*
X12892253Y-11766436D01*
X12892253Y-11766436D02*
X12892253Y-11785484D01*
X13073205Y-11652150D02*
X13073205Y-11785484D01*
X13025586Y-11575960D02*
X12977967Y-11718817D01*
X12977967Y-11718817D02*
X13101777Y-11718817D01*
X13216062Y-11585484D02*
X13235110Y-11585484D01*
X13235110Y-11585484D02*
X13254158Y-11595008D01*
X13254158Y-11595008D02*
X13263682Y-11604531D01*
X13263682Y-11604531D02*
X13273205Y-11623579D01*
X13273205Y-11623579D02*
X13282729Y-11661674D01*
X13282729Y-11661674D02*
X13282729Y-11709293D01*
X13282729Y-11709293D02*
X13273205Y-11747388D01*
X13273205Y-11747388D02*
X13263682Y-11766436D01*
X13263682Y-11766436D02*
X13254158Y-11775960D01*
X13254158Y-11775960D02*
X13235110Y-11785484D01*
X13235110Y-11785484D02*
X13216062Y-11785484D01*
X13216062Y-11785484D02*
X13197015Y-11775960D01*
X13197015Y-11775960D02*
X13187491Y-11766436D01*
X13187491Y-11766436D02*
X13177967Y-11747388D01*
X13177967Y-11747388D02*
X13168443Y-11709293D01*
X13168443Y-11709293D02*
X13168443Y-11661674D01*
X13168443Y-11661674D02*
X13177967Y-11623579D01*
X13177967Y-11623579D02*
X13187491Y-11604531D01*
X13187491Y-11604531D02*
X13197015Y-11595008D01*
X13197015Y-11595008D02*
X13216062Y-11585484D01*
X13406539Y-11585484D02*
X13425586Y-11585484D01*
X13425586Y-11585484D02*
X13444634Y-11595008D01*
X13444634Y-11595008D02*
X13454158Y-11604531D01*
X13454158Y-11604531D02*
X13463682Y-11623579D01*
X13463682Y-11623579D02*
X13473205Y-11661674D01*
X13473205Y-11661674D02*
X13473205Y-11709293D01*
X13473205Y-11709293D02*
X13463682Y-11747388D01*
X13463682Y-11747388D02*
X13454158Y-11766436D01*
X13454158Y-11766436D02*
X13444634Y-11775960D01*
X13444634Y-11775960D02*
X13425586Y-11785484D01*
X13425586Y-11785484D02*
X13406539Y-11785484D01*
X13406539Y-11785484D02*
X13387491Y-11775960D01*
X13387491Y-11775960D02*
X13377967Y-11766436D01*
X13377967Y-11766436D02*
X13368443Y-11747388D01*
X13368443Y-11747388D02*
X13358920Y-11709293D01*
X13358920Y-11709293D02*
X13358920Y-11661674D01*
X13358920Y-11661674D02*
X13368443Y-11623579D01*
X13368443Y-11623579D02*
X13377967Y-11604531D01*
X13377967Y-11604531D02*
X13387491Y-11595008D01*
X13387491Y-11595008D02*
X13406539Y-11585484D01*
X13558920Y-11785484D02*
X13558920Y-11652150D01*
X13558920Y-11671198D02*
X13568443Y-11661674D01*
X13568443Y-11661674D02*
X13587491Y-11652150D01*
X13587491Y-11652150D02*
X13616063Y-11652150D01*
X13616063Y-11652150D02*
X13635110Y-11661674D01*
X13635110Y-11661674D02*
X13644634Y-11680722D01*
X13644634Y-11680722D02*
X13644634Y-11785484D01*
X13644634Y-11680722D02*
X13654158Y-11661674D01*
X13654158Y-11661674D02*
X13673205Y-11652150D01*
X13673205Y-11652150D02*
X13701777Y-11652150D01*
X13701777Y-11652150D02*
X13720824Y-11661674D01*
X13720824Y-11661674D02*
X13730348Y-11680722D01*
X13730348Y-11680722D02*
X13730348Y-11785484D01*
X13825586Y-11785484D02*
X13825586Y-11652150D01*
X13825586Y-11671198D02*
X13835110Y-11661674D01*
X13835110Y-11661674D02*
X13854158Y-11652150D01*
X13854158Y-11652150D02*
X13882729Y-11652150D01*
X13882729Y-11652150D02*
X13901777Y-11661674D01*
X13901777Y-11661674D02*
X13911301Y-11680722D01*
X13911301Y-11680722D02*
X13911301Y-11785484D01*
X13911301Y-11680722D02*
X13920824Y-11661674D01*
X13920824Y-11661674D02*
X13939872Y-11652150D01*
X13939872Y-11652150D02*
X13968443Y-11652150D01*
X13968443Y-11652150D02*
X13987491Y-11661674D01*
X13987491Y-11661674D02*
X13997015Y-11680722D01*
X13997015Y-11680722D02*
X13997015Y-11785484D01*
X14387491Y-11575960D02*
X14216063Y-11833103D01*
X14644634Y-11585484D02*
X14663682Y-11585484D01*
X14663682Y-11585484D02*
X14682729Y-11595008D01*
X14682729Y-11595008D02*
X14692253Y-11604531D01*
X14692253Y-11604531D02*
X14701777Y-11623579D01*
X14701777Y-11623579D02*
X14711301Y-11661674D01*
X14711301Y-11661674D02*
X14711301Y-11709293D01*
X14711301Y-11709293D02*
X14701777Y-11747388D01*
X14701777Y-11747388D02*
X14692253Y-11766436D01*
X14692253Y-11766436D02*
X14682729Y-11775960D01*
X14682729Y-11775960D02*
X14663682Y-11785484D01*
X14663682Y-11785484D02*
X14644634Y-11785484D01*
X14644634Y-11785484D02*
X14625586Y-11775960D01*
X14625586Y-11775960D02*
X14616063Y-11766436D01*
X14616063Y-11766436D02*
X14606539Y-11747388D01*
X14606539Y-11747388D02*
X14597015Y-11709293D01*
X14597015Y-11709293D02*
X14597015Y-11661674D01*
X14597015Y-11661674D02*
X14606539Y-11623579D01*
X14606539Y-11623579D02*
X14616063Y-11604531D01*
X14616063Y-11604531D02*
X14625586Y-11595008D01*
X14625586Y-11595008D02*
X14644634Y-11585484D01*
X14797015Y-11766436D02*
X14806539Y-11775960D01*
X14806539Y-11775960D02*
X14797015Y-11785484D01*
X14797015Y-11785484D02*
X14787491Y-11775960D01*
X14787491Y-11775960D02*
X14797015Y-11766436D01*
X14797015Y-11766436D02*
X14797015Y-11785484D01*
X14930348Y-11585484D02*
X14949396Y-11585484D01*
X14949396Y-11585484D02*
X14968444Y-11595008D01*
X14968444Y-11595008D02*
X14977967Y-11604531D01*
X14977967Y-11604531D02*
X14987491Y-11623579D01*
X14987491Y-11623579D02*
X14997015Y-11661674D01*
X14997015Y-11661674D02*
X14997015Y-11709293D01*
X14997015Y-11709293D02*
X14987491Y-11747388D01*
X14987491Y-11747388D02*
X14977967Y-11766436D01*
X14977967Y-11766436D02*
X14968444Y-11775960D01*
X14968444Y-11775960D02*
X14949396Y-11785484D01*
X14949396Y-11785484D02*
X14930348Y-11785484D01*
X14930348Y-11785484D02*
X14911301Y-11775960D01*
X14911301Y-11775960D02*
X14901777Y-11766436D01*
X14901777Y-11766436D02*
X14892253Y-11747388D01*
X14892253Y-11747388D02*
X14882729Y-11709293D01*
X14882729Y-11709293D02*
X14882729Y-11661674D01*
X14882729Y-11661674D02*
X14892253Y-11623579D01*
X14892253Y-11623579D02*
X14901777Y-11604531D01*
X14901777Y-11604531D02*
X14911301Y-11595008D01*
X14911301Y-11595008D02*
X14930348Y-11585484D01*
X15187491Y-11785484D02*
X15073206Y-11785484D01*
X15130348Y-11785484D02*
X15130348Y-11585484D01*
X15130348Y-11585484D02*
X15111301Y-11614055D01*
X15111301Y-11614055D02*
X15092253Y-11633103D01*
X15092253Y-11633103D02*
X15073206Y-11642627D01*
X15368444Y-11585484D02*
X15273206Y-11585484D01*
X15273206Y-11585484D02*
X15263682Y-11680722D01*
X15263682Y-11680722D02*
X15273206Y-11671198D01*
X15273206Y-11671198D02*
X15292253Y-11661674D01*
X15292253Y-11661674D02*
X15339872Y-11661674D01*
X15339872Y-11661674D02*
X15358920Y-11671198D01*
X15358920Y-11671198D02*
X15368444Y-11680722D01*
X15368444Y-11680722D02*
X15377967Y-11699769D01*
X15377967Y-11699769D02*
X15377967Y-11747388D01*
X15377967Y-11747388D02*
X15368444Y-11766436D01*
X15368444Y-11766436D02*
X15358920Y-11775960D01*
X15358920Y-11775960D02*
X15339872Y-11785484D01*
X15339872Y-11785484D02*
X15292253Y-11785484D01*
X15292253Y-11785484D02*
X15273206Y-11775960D01*
X15273206Y-11775960D02*
X15263682Y-11766436D01*
X15444634Y-11585484D02*
X15577967Y-11585484D01*
X15577967Y-11585484D02*
X15492253Y-11785484D01*
X15644634Y-11585484D02*
X15644634Y-11623579D01*
X15720825Y-11585484D02*
X15720825Y-11623579D01*
X16016063Y-11861674D02*
X16006539Y-11852150D01*
X16006539Y-11852150D02*
X15987491Y-11823579D01*
X15987491Y-11823579D02*
X15977968Y-11804531D01*
X15977968Y-11804531D02*
X15968444Y-11775960D01*
X15968444Y-11775960D02*
X15958920Y-11728341D01*
X15958920Y-11728341D02*
X15958920Y-11690246D01*
X15958920Y-11690246D02*
X15968444Y-11642627D01*
X15968444Y-11642627D02*
X15977968Y-11614055D01*
X15977968Y-11614055D02*
X15987491Y-11595008D01*
X15987491Y-11595008D02*
X16006539Y-11566436D01*
X16006539Y-11566436D02*
X16016063Y-11556912D01*
X16187491Y-11585484D02*
X16092253Y-11585484D01*
X16092253Y-11585484D02*
X16082729Y-11680722D01*
X16082729Y-11680722D02*
X16092253Y-11671198D01*
X16092253Y-11671198D02*
X16111301Y-11661674D01*
X16111301Y-11661674D02*
X16158920Y-11661674D01*
X16158920Y-11661674D02*
X16177968Y-11671198D01*
X16177968Y-11671198D02*
X16187491Y-11680722D01*
X16187491Y-11680722D02*
X16197015Y-11699769D01*
X16197015Y-11699769D02*
X16197015Y-11747388D01*
X16197015Y-11747388D02*
X16187491Y-11766436D01*
X16187491Y-11766436D02*
X16177968Y-11775960D01*
X16177968Y-11775960D02*
X16158920Y-11785484D01*
X16158920Y-11785484D02*
X16111301Y-11785484D01*
X16111301Y-11785484D02*
X16092253Y-11775960D01*
X16092253Y-11775960D02*
X16082729Y-11766436D01*
X16435110Y-11785484D02*
X16435110Y-11585484D01*
X16520825Y-11785484D02*
X16520825Y-11680722D01*
X16520825Y-11680722D02*
X16511301Y-11661674D01*
X16511301Y-11661674D02*
X16492253Y-11652150D01*
X16492253Y-11652150D02*
X16463682Y-11652150D01*
X16463682Y-11652150D02*
X16444634Y-11661674D01*
X16444634Y-11661674D02*
X16435110Y-11671198D01*
X16644634Y-11785484D02*
X16625587Y-11775960D01*
X16625587Y-11775960D02*
X16616063Y-11766436D01*
X16616063Y-11766436D02*
X16606539Y-11747388D01*
X16606539Y-11747388D02*
X16606539Y-11690246D01*
X16606539Y-11690246D02*
X16616063Y-11671198D01*
X16616063Y-11671198D02*
X16625587Y-11661674D01*
X16625587Y-11661674D02*
X16644634Y-11652150D01*
X16644634Y-11652150D02*
X16673206Y-11652150D01*
X16673206Y-11652150D02*
X16692253Y-11661674D01*
X16692253Y-11661674D02*
X16701777Y-11671198D01*
X16701777Y-11671198D02*
X16711301Y-11690246D01*
X16711301Y-11690246D02*
X16711301Y-11747388D01*
X16711301Y-11747388D02*
X16701777Y-11766436D01*
X16701777Y-11766436D02*
X16692253Y-11775960D01*
X16692253Y-11775960D02*
X16673206Y-11785484D01*
X16673206Y-11785484D02*
X16644634Y-11785484D01*
X16825587Y-11785484D02*
X16806539Y-11775960D01*
X16806539Y-11775960D02*
X16797015Y-11756912D01*
X16797015Y-11756912D02*
X16797015Y-11585484D01*
X16977968Y-11775960D02*
X16958920Y-11785484D01*
X16958920Y-11785484D02*
X16920825Y-11785484D01*
X16920825Y-11785484D02*
X16901777Y-11775960D01*
X16901777Y-11775960D02*
X16892253Y-11756912D01*
X16892253Y-11756912D02*
X16892253Y-11680722D01*
X16892253Y-11680722D02*
X16901777Y-11661674D01*
X16901777Y-11661674D02*
X16920825Y-11652150D01*
X16920825Y-11652150D02*
X16958920Y-11652150D01*
X16958920Y-11652150D02*
X16977968Y-11661674D01*
X16977968Y-11661674D02*
X16987492Y-11680722D01*
X16987492Y-11680722D02*
X16987492Y-11699769D01*
X16987492Y-11699769D02*
X16892253Y-11718817D01*
X17063682Y-11775960D02*
X17082730Y-11785484D01*
X17082730Y-11785484D02*
X17120825Y-11785484D01*
X17120825Y-11785484D02*
X17139873Y-11775960D01*
X17139873Y-11775960D02*
X17149396Y-11756912D01*
X17149396Y-11756912D02*
X17149396Y-11747388D01*
X17149396Y-11747388D02*
X17139873Y-11728341D01*
X17139873Y-11728341D02*
X17120825Y-11718817D01*
X17120825Y-11718817D02*
X17092253Y-11718817D01*
X17092253Y-11718817D02*
X17073206Y-11709293D01*
X17073206Y-11709293D02*
X17063682Y-11690246D01*
X17063682Y-11690246D02*
X17063682Y-11680722D01*
X17063682Y-11680722D02*
X17073206Y-11661674D01*
X17073206Y-11661674D02*
X17092253Y-11652150D01*
X17092253Y-11652150D02*
X17120825Y-11652150D01*
X17120825Y-11652150D02*
X17139873Y-11661674D01*
X17216063Y-11861674D02*
X17225587Y-11852150D01*
X17225587Y-11852150D02*
X17244634Y-11823579D01*
X17244634Y-11823579D02*
X17254158Y-11804531D01*
X17254158Y-11804531D02*
X17263682Y-11775960D01*
X17263682Y-11775960D02*
X17273206Y-11728341D01*
X17273206Y-11728341D02*
X17273206Y-11690246D01*
X17273206Y-11690246D02*
X17263682Y-11642627D01*
X17263682Y-11642627D02*
X17254158Y-11614055D01*
X17254158Y-11614055D02*
X17244634Y-11595008D01*
X17244634Y-11595008D02*
X17225587Y-11566436D01*
X17225587Y-11566436D02*
X17216063Y-11556912D01*
D10*
X12441000Y-11958000D02*
G75*
G02*
X12361000Y-11958000I-40000J0D01*
G01*
X12361000Y-11958000D02*
G75*
G02*
X12441000Y-11958000I40000J0D01*
G01*
D11*
X12739872Y-11849484D02*
X12758920Y-11849484D01*
X12758920Y-11849484D02*
X12777967Y-11859008D01*
X12777967Y-11859008D02*
X12787491Y-11868531D01*
X12787491Y-11868531D02*
X12797015Y-11887579D01*
X12797015Y-11887579D02*
X12806539Y-11925674D01*
X12806539Y-11925674D02*
X12806539Y-11973293D01*
X12806539Y-11973293D02*
X12797015Y-12011388D01*
X12797015Y-12011388D02*
X12787491Y-12030436D01*
X12787491Y-12030436D02*
X12777967Y-12039960D01*
X12777967Y-12039960D02*
X12758920Y-12049484D01*
X12758920Y-12049484D02*
X12739872Y-12049484D01*
X12739872Y-12049484D02*
X12720824Y-12039960D01*
X12720824Y-12039960D02*
X12711301Y-12030436D01*
X12711301Y-12030436D02*
X12701777Y-12011388D01*
X12701777Y-12011388D02*
X12692253Y-11973293D01*
X12692253Y-11973293D02*
X12692253Y-11925674D01*
X12692253Y-11925674D02*
X12701777Y-11887579D01*
X12701777Y-11887579D02*
X12711301Y-11868531D01*
X12711301Y-11868531D02*
X12720824Y-11859008D01*
X12720824Y-11859008D02*
X12739872Y-11849484D01*
X12892253Y-12030436D02*
X12901777Y-12039960D01*
X12901777Y-12039960D02*
X12892253Y-12049484D01*
X12892253Y-12049484D02*
X12882729Y-12039960D01*
X12882729Y-12039960D02*
X12892253Y-12030436D01*
X12892253Y-12030436D02*
X12892253Y-12049484D01*
X13016062Y-11935198D02*
X12997015Y-11925674D01*
X12997015Y-11925674D02*
X12987491Y-11916150D01*
X12987491Y-11916150D02*
X12977967Y-11897103D01*
X12977967Y-11897103D02*
X12977967Y-11887579D01*
X12977967Y-11887579D02*
X12987491Y-11868531D01*
X12987491Y-11868531D02*
X12997015Y-11859008D01*
X12997015Y-11859008D02*
X13016062Y-11849484D01*
X13016062Y-11849484D02*
X13054158Y-11849484D01*
X13054158Y-11849484D02*
X13073205Y-11859008D01*
X13073205Y-11859008D02*
X13082729Y-11868531D01*
X13082729Y-11868531D02*
X13092253Y-11887579D01*
X13092253Y-11887579D02*
X13092253Y-11897103D01*
X13092253Y-11897103D02*
X13082729Y-11916150D01*
X13082729Y-11916150D02*
X13073205Y-11925674D01*
X13073205Y-11925674D02*
X13054158Y-11935198D01*
X13054158Y-11935198D02*
X13016062Y-11935198D01*
X13016062Y-11935198D02*
X12997015Y-11944722D01*
X12997015Y-11944722D02*
X12987491Y-11954246D01*
X12987491Y-11954246D02*
X12977967Y-11973293D01*
X12977967Y-11973293D02*
X12977967Y-12011388D01*
X12977967Y-12011388D02*
X12987491Y-12030436D01*
X12987491Y-12030436D02*
X12997015Y-12039960D01*
X12997015Y-12039960D02*
X13016062Y-12049484D01*
X13016062Y-12049484D02*
X13054158Y-12049484D01*
X13054158Y-12049484D02*
X13073205Y-12039960D01*
X13073205Y-12039960D02*
X13082729Y-12030436D01*
X13082729Y-12030436D02*
X13092253Y-12011388D01*
X13092253Y-12011388D02*
X13092253Y-11973293D01*
X13092253Y-11973293D02*
X13082729Y-11954246D01*
X13082729Y-11954246D02*
X13073205Y-11944722D01*
X13073205Y-11944722D02*
X13054158Y-11935198D01*
X13216062Y-11849484D02*
X13235110Y-11849484D01*
X13235110Y-11849484D02*
X13254158Y-11859008D01*
X13254158Y-11859008D02*
X13263682Y-11868531D01*
X13263682Y-11868531D02*
X13273205Y-11887579D01*
X13273205Y-11887579D02*
X13282729Y-11925674D01*
X13282729Y-11925674D02*
X13282729Y-11973293D01*
X13282729Y-11973293D02*
X13273205Y-12011388D01*
X13273205Y-12011388D02*
X13263682Y-12030436D01*
X13263682Y-12030436D02*
X13254158Y-12039960D01*
X13254158Y-12039960D02*
X13235110Y-12049484D01*
X13235110Y-12049484D02*
X13216062Y-12049484D01*
X13216062Y-12049484D02*
X13197015Y-12039960D01*
X13197015Y-12039960D02*
X13187491Y-12030436D01*
X13187491Y-12030436D02*
X13177967Y-12011388D01*
X13177967Y-12011388D02*
X13168443Y-11973293D01*
X13168443Y-11973293D02*
X13168443Y-11925674D01*
X13168443Y-11925674D02*
X13177967Y-11887579D01*
X13177967Y-11887579D02*
X13187491Y-11868531D01*
X13187491Y-11868531D02*
X13197015Y-11859008D01*
X13197015Y-11859008D02*
X13216062Y-11849484D01*
X13406539Y-11849484D02*
X13425586Y-11849484D01*
X13425586Y-11849484D02*
X13444634Y-11859008D01*
X13444634Y-11859008D02*
X13454158Y-11868531D01*
X13454158Y-11868531D02*
X13463682Y-11887579D01*
X13463682Y-11887579D02*
X13473205Y-11925674D01*
X13473205Y-11925674D02*
X13473205Y-11973293D01*
X13473205Y-11973293D02*
X13463682Y-12011388D01*
X13463682Y-12011388D02*
X13454158Y-12030436D01*
X13454158Y-12030436D02*
X13444634Y-12039960D01*
X13444634Y-12039960D02*
X13425586Y-12049484D01*
X13425586Y-12049484D02*
X13406539Y-12049484D01*
X13406539Y-12049484D02*
X13387491Y-12039960D01*
X13387491Y-12039960D02*
X13377967Y-12030436D01*
X13377967Y-12030436D02*
X13368443Y-12011388D01*
X13368443Y-12011388D02*
X13358920Y-11973293D01*
X13358920Y-11973293D02*
X13358920Y-11925674D01*
X13358920Y-11925674D02*
X13368443Y-11887579D01*
X13368443Y-11887579D02*
X13377967Y-11868531D01*
X13377967Y-11868531D02*
X13387491Y-11859008D01*
X13387491Y-11859008D02*
X13406539Y-11849484D01*
X13558920Y-12049484D02*
X13558920Y-11916150D01*
X13558920Y-11935198D02*
X13568443Y-11925674D01*
X13568443Y-11925674D02*
X13587491Y-11916150D01*
X13587491Y-11916150D02*
X13616063Y-11916150D01*
X13616063Y-11916150D02*
X13635110Y-11925674D01*
X13635110Y-11925674D02*
X13644634Y-11944722D01*
X13644634Y-11944722D02*
X13644634Y-12049484D01*
X13644634Y-11944722D02*
X13654158Y-11925674D01*
X13654158Y-11925674D02*
X13673205Y-11916150D01*
X13673205Y-11916150D02*
X13701777Y-11916150D01*
X13701777Y-11916150D02*
X13720824Y-11925674D01*
X13720824Y-11925674D02*
X13730348Y-11944722D01*
X13730348Y-11944722D02*
X13730348Y-12049484D01*
X13825586Y-12049484D02*
X13825586Y-11916150D01*
X13825586Y-11935198D02*
X13835110Y-11925674D01*
X13835110Y-11925674D02*
X13854158Y-11916150D01*
X13854158Y-11916150D02*
X13882729Y-11916150D01*
X13882729Y-11916150D02*
X13901777Y-11925674D01*
X13901777Y-11925674D02*
X13911301Y-11944722D01*
X13911301Y-11944722D02*
X13911301Y-12049484D01*
X13911301Y-11944722D02*
X13920824Y-11925674D01*
X13920824Y-11925674D02*
X13939872Y-11916150D01*
X13939872Y-11916150D02*
X13968443Y-11916150D01*
X13968443Y-11916150D02*
X13987491Y-11925674D01*
X13987491Y-11925674D02*
X13997015Y-11944722D01*
X13997015Y-11944722D02*
X13997015Y-12049484D01*
X14387491Y-11839960D02*
X14216063Y-12097103D01*
X14644634Y-11849484D02*
X14663682Y-11849484D01*
X14663682Y-11849484D02*
X14682729Y-11859008D01*
X14682729Y-11859008D02*
X14692253Y-11868531D01*
X14692253Y-11868531D02*
X14701777Y-11887579D01*
X14701777Y-11887579D02*
X14711301Y-11925674D01*
X14711301Y-11925674D02*
X14711301Y-11973293D01*
X14711301Y-11973293D02*
X14701777Y-12011388D01*
X14701777Y-12011388D02*
X14692253Y-12030436D01*
X14692253Y-12030436D02*
X14682729Y-12039960D01*
X14682729Y-12039960D02*
X14663682Y-12049484D01*
X14663682Y-12049484D02*
X14644634Y-12049484D01*
X14644634Y-12049484D02*
X14625586Y-12039960D01*
X14625586Y-12039960D02*
X14616063Y-12030436D01*
X14616063Y-12030436D02*
X14606539Y-12011388D01*
X14606539Y-12011388D02*
X14597015Y-11973293D01*
X14597015Y-11973293D02*
X14597015Y-11925674D01*
X14597015Y-11925674D02*
X14606539Y-11887579D01*
X14606539Y-11887579D02*
X14616063Y-11868531D01*
X14616063Y-11868531D02*
X14625586Y-11859008D01*
X14625586Y-11859008D02*
X14644634Y-11849484D01*
X14797015Y-12030436D02*
X14806539Y-12039960D01*
X14806539Y-12039960D02*
X14797015Y-12049484D01*
X14797015Y-12049484D02*
X14787491Y-12039960D01*
X14787491Y-12039960D02*
X14797015Y-12030436D01*
X14797015Y-12030436D02*
X14797015Y-12049484D01*
X14930348Y-11849484D02*
X14949396Y-11849484D01*
X14949396Y-11849484D02*
X14968444Y-11859008D01*
X14968444Y-11859008D02*
X14977967Y-11868531D01*
X14977967Y-11868531D02*
X14987491Y-11887579D01*
X14987491Y-11887579D02*
X14997015Y-11925674D01*
X14997015Y-11925674D02*
X14997015Y-11973293D01*
X14997015Y-11973293D02*
X14987491Y-12011388D01*
X14987491Y-12011388D02*
X14977967Y-12030436D01*
X14977967Y-12030436D02*
X14968444Y-12039960D01*
X14968444Y-12039960D02*
X14949396Y-12049484D01*
X14949396Y-12049484D02*
X14930348Y-12049484D01*
X14930348Y-12049484D02*
X14911301Y-12039960D01*
X14911301Y-12039960D02*
X14901777Y-12030436D01*
X14901777Y-12030436D02*
X14892253Y-12011388D01*
X14892253Y-12011388D02*
X14882729Y-11973293D01*
X14882729Y-11973293D02*
X14882729Y-11925674D01*
X14882729Y-11925674D02*
X14892253Y-11887579D01*
X14892253Y-11887579D02*
X14901777Y-11868531D01*
X14901777Y-11868531D02*
X14911301Y-11859008D01*
X14911301Y-11859008D02*
X14930348Y-11849484D01*
X15063682Y-11849484D02*
X15187491Y-11849484D01*
X15187491Y-11849484D02*
X15120825Y-11925674D01*
X15120825Y-11925674D02*
X15149396Y-11925674D01*
X15149396Y-11925674D02*
X15168444Y-11935198D01*
X15168444Y-11935198D02*
X15177967Y-11944722D01*
X15177967Y-11944722D02*
X15187491Y-11963769D01*
X15187491Y-11963769D02*
X15187491Y-12011388D01*
X15187491Y-12011388D02*
X15177967Y-12030436D01*
X15177967Y-12030436D02*
X15168444Y-12039960D01*
X15168444Y-12039960D02*
X15149396Y-12049484D01*
X15149396Y-12049484D02*
X15092253Y-12049484D01*
X15092253Y-12049484D02*
X15073206Y-12039960D01*
X15073206Y-12039960D02*
X15063682Y-12030436D01*
X15377967Y-12049484D02*
X15263682Y-12049484D01*
X15320825Y-12049484D02*
X15320825Y-11849484D01*
X15320825Y-11849484D02*
X15301777Y-11878055D01*
X15301777Y-11878055D02*
X15282729Y-11897103D01*
X15282729Y-11897103D02*
X15263682Y-11906627D01*
X15558920Y-11849484D02*
X15463682Y-11849484D01*
X15463682Y-11849484D02*
X15454158Y-11944722D01*
X15454158Y-11944722D02*
X15463682Y-11935198D01*
X15463682Y-11935198D02*
X15482729Y-11925674D01*
X15482729Y-11925674D02*
X15530348Y-11925674D01*
X15530348Y-11925674D02*
X15549396Y-11935198D01*
X15549396Y-11935198D02*
X15558920Y-11944722D01*
X15558920Y-11944722D02*
X15568444Y-11963769D01*
X15568444Y-11963769D02*
X15568444Y-12011388D01*
X15568444Y-12011388D02*
X15558920Y-12030436D01*
X15558920Y-12030436D02*
X15549396Y-12039960D01*
X15549396Y-12039960D02*
X15530348Y-12049484D01*
X15530348Y-12049484D02*
X15482729Y-12049484D01*
X15482729Y-12049484D02*
X15463682Y-12039960D01*
X15463682Y-12039960D02*
X15454158Y-12030436D01*
X15644634Y-11849484D02*
X15644634Y-11887579D01*
X15720825Y-11849484D02*
X15720825Y-11887579D01*
X16016063Y-12125674D02*
X16006539Y-12116150D01*
X16006539Y-12116150D02*
X15987491Y-12087579D01*
X15987491Y-12087579D02*
X15977968Y-12068531D01*
X15977968Y-12068531D02*
X15968444Y-12039960D01*
X15968444Y-12039960D02*
X15958920Y-11992341D01*
X15958920Y-11992341D02*
X15958920Y-11954246D01*
X15958920Y-11954246D02*
X15968444Y-11906627D01*
X15968444Y-11906627D02*
X15977968Y-11878055D01*
X15977968Y-11878055D02*
X15987491Y-11859008D01*
X15987491Y-11859008D02*
X16006539Y-11830436D01*
X16006539Y-11830436D02*
X16016063Y-11820912D01*
X16073206Y-11849484D02*
X16197015Y-11849484D01*
X16197015Y-11849484D02*
X16130348Y-11925674D01*
X16130348Y-11925674D02*
X16158920Y-11925674D01*
X16158920Y-11925674D02*
X16177968Y-11935198D01*
X16177968Y-11935198D02*
X16187491Y-11944722D01*
X16187491Y-11944722D02*
X16197015Y-11963769D01*
X16197015Y-11963769D02*
X16197015Y-12011388D01*
X16197015Y-12011388D02*
X16187491Y-12030436D01*
X16187491Y-12030436D02*
X16177968Y-12039960D01*
X16177968Y-12039960D02*
X16158920Y-12049484D01*
X16158920Y-12049484D02*
X16101777Y-12049484D01*
X16101777Y-12049484D02*
X16082729Y-12039960D01*
X16082729Y-12039960D02*
X16073206Y-12030436D01*
X16311301Y-11935198D02*
X16292253Y-11925674D01*
X16292253Y-11925674D02*
X16282729Y-11916150D01*
X16282729Y-11916150D02*
X16273206Y-11897103D01*
X16273206Y-11897103D02*
X16273206Y-11887579D01*
X16273206Y-11887579D02*
X16282729Y-11868531D01*
X16282729Y-11868531D02*
X16292253Y-11859008D01*
X16292253Y-11859008D02*
X16311301Y-11849484D01*
X16311301Y-11849484D02*
X16349396Y-11849484D01*
X16349396Y-11849484D02*
X16368444Y-11859008D01*
X16368444Y-11859008D02*
X16377968Y-11868531D01*
X16377968Y-11868531D02*
X16387491Y-11887579D01*
X16387491Y-11887579D02*
X16387491Y-11897103D01*
X16387491Y-11897103D02*
X16377968Y-11916150D01*
X16377968Y-11916150D02*
X16368444Y-11925674D01*
X16368444Y-11925674D02*
X16349396Y-11935198D01*
X16349396Y-11935198D02*
X16311301Y-11935198D01*
X16311301Y-11935198D02*
X16292253Y-11944722D01*
X16292253Y-11944722D02*
X16282729Y-11954246D01*
X16282729Y-11954246D02*
X16273206Y-11973293D01*
X16273206Y-11973293D02*
X16273206Y-12011388D01*
X16273206Y-12011388D02*
X16282729Y-12030436D01*
X16282729Y-12030436D02*
X16292253Y-12039960D01*
X16292253Y-12039960D02*
X16311301Y-12049484D01*
X16311301Y-12049484D02*
X16349396Y-12049484D01*
X16349396Y-12049484D02*
X16368444Y-12039960D01*
X16368444Y-12039960D02*
X16377968Y-12030436D01*
X16377968Y-12030436D02*
X16387491Y-12011388D01*
X16387491Y-12011388D02*
X16387491Y-11973293D01*
X16387491Y-11973293D02*
X16377968Y-11954246D01*
X16377968Y-11954246D02*
X16368444Y-11944722D01*
X16368444Y-11944722D02*
X16349396Y-11935198D01*
X16625587Y-12049484D02*
X16625587Y-11849484D01*
X16711301Y-12049484D02*
X16711301Y-11944722D01*
X16711301Y-11944722D02*
X16701777Y-11925674D01*
X16701777Y-11925674D02*
X16682730Y-11916150D01*
X16682730Y-11916150D02*
X16654158Y-11916150D01*
X16654158Y-11916150D02*
X16635110Y-11925674D01*
X16635110Y-11925674D02*
X16625587Y-11935198D01*
X16835111Y-12049484D02*
X16816063Y-12039960D01*
X16816063Y-12039960D02*
X16806539Y-12030436D01*
X16806539Y-12030436D02*
X16797015Y-12011388D01*
X16797015Y-12011388D02*
X16797015Y-11954246D01*
X16797015Y-11954246D02*
X16806539Y-11935198D01*
X16806539Y-11935198D02*
X16816063Y-11925674D01*
X16816063Y-11925674D02*
X16835111Y-11916150D01*
X16835111Y-11916150D02*
X16863682Y-11916150D01*
X16863682Y-11916150D02*
X16882730Y-11925674D01*
X16882730Y-11925674D02*
X16892253Y-11935198D01*
X16892253Y-11935198D02*
X16901777Y-11954246D01*
X16901777Y-11954246D02*
X16901777Y-12011388D01*
X16901777Y-12011388D02*
X16892253Y-12030436D01*
X16892253Y-12030436D02*
X16882730Y-12039960D01*
X16882730Y-12039960D02*
X16863682Y-12049484D01*
X16863682Y-12049484D02*
X16835111Y-12049484D01*
X17016063Y-12049484D02*
X16997015Y-12039960D01*
X16997015Y-12039960D02*
X16987492Y-12020912D01*
X16987492Y-12020912D02*
X16987492Y-11849484D01*
X17168444Y-12039960D02*
X17149396Y-12049484D01*
X17149396Y-12049484D02*
X17111301Y-12049484D01*
X17111301Y-12049484D02*
X17092253Y-12039960D01*
X17092253Y-12039960D02*
X17082730Y-12020912D01*
X17082730Y-12020912D02*
X17082730Y-11944722D01*
X17082730Y-11944722D02*
X17092253Y-11925674D01*
X17092253Y-11925674D02*
X17111301Y-11916150D01*
X17111301Y-11916150D02*
X17149396Y-11916150D01*
X17149396Y-11916150D02*
X17168444Y-11925674D01*
X17168444Y-11925674D02*
X17177968Y-11944722D01*
X17177968Y-11944722D02*
X17177968Y-11963769D01*
X17177968Y-11963769D02*
X17082730Y-11982817D01*
X17254158Y-12039960D02*
X17273206Y-12049484D01*
X17273206Y-12049484D02*
X17311301Y-12049484D01*
X17311301Y-12049484D02*
X17330349Y-12039960D01*
X17330349Y-12039960D02*
X17339873Y-12020912D01*
X17339873Y-12020912D02*
X17339873Y-12011388D01*
X17339873Y-12011388D02*
X17330349Y-11992341D01*
X17330349Y-11992341D02*
X17311301Y-11982817D01*
X17311301Y-11982817D02*
X17282730Y-11982817D01*
X17282730Y-11982817D02*
X17263682Y-11973293D01*
X17263682Y-11973293D02*
X17254158Y-11954246D01*
X17254158Y-11954246D02*
X17254158Y-11944722D01*
X17254158Y-11944722D02*
X17263682Y-11925674D01*
X17263682Y-11925674D02*
X17282730Y-11916150D01*
X17282730Y-11916150D02*
X17311301Y-11916150D01*
X17311301Y-11916150D02*
X17330349Y-11925674D01*
X17406539Y-12125674D02*
X17416063Y-12116150D01*
X17416063Y-12116150D02*
X17435111Y-12087579D01*
X17435111Y-12087579D02*
X17444634Y-12068531D01*
X17444634Y-12068531D02*
X17454158Y-12039960D01*
X17454158Y-12039960D02*
X17463682Y-11992341D01*
X17463682Y-11992341D02*
X17463682Y-11954246D01*
X17463682Y-11954246D02*
X17454158Y-11906627D01*
X17454158Y-11906627D02*
X17444634Y-11878055D01*
X17444634Y-11878055D02*
X17435111Y-11859008D01*
X17435111Y-11859008D02*
X17416063Y-11830436D01*
X17416063Y-11830436D02*
X17406539Y-11820912D01*
D10*
X12393500Y-12174500D02*
X12393500Y-12269500D01*
X12346000Y-12222000D02*
X12441000Y-12222000D01*
D11*
X12739872Y-12113484D02*
X12758920Y-12113484D01*
X12758920Y-12113484D02*
X12777967Y-12123008D01*
X12777967Y-12123008D02*
X12787491Y-12132531D01*
X12787491Y-12132531D02*
X12797015Y-12151579D01*
X12797015Y-12151579D02*
X12806539Y-12189674D01*
X12806539Y-12189674D02*
X12806539Y-12237293D01*
X12806539Y-12237293D02*
X12797015Y-12275388D01*
X12797015Y-12275388D02*
X12787491Y-12294436D01*
X12787491Y-12294436D02*
X12777967Y-12303960D01*
X12777967Y-12303960D02*
X12758920Y-12313484D01*
X12758920Y-12313484D02*
X12739872Y-12313484D01*
X12739872Y-12313484D02*
X12720824Y-12303960D01*
X12720824Y-12303960D02*
X12711301Y-12294436D01*
X12711301Y-12294436D02*
X12701777Y-12275388D01*
X12701777Y-12275388D02*
X12692253Y-12237293D01*
X12692253Y-12237293D02*
X12692253Y-12189674D01*
X12692253Y-12189674D02*
X12701777Y-12151579D01*
X12701777Y-12151579D02*
X12711301Y-12132531D01*
X12711301Y-12132531D02*
X12720824Y-12123008D01*
X12720824Y-12123008D02*
X12739872Y-12113484D01*
X12892253Y-12294436D02*
X12901777Y-12303960D01*
X12901777Y-12303960D02*
X12892253Y-12313484D01*
X12892253Y-12313484D02*
X12882729Y-12303960D01*
X12882729Y-12303960D02*
X12892253Y-12294436D01*
X12892253Y-12294436D02*
X12892253Y-12313484D01*
X12997015Y-12313484D02*
X13035110Y-12313484D01*
X13035110Y-12313484D02*
X13054158Y-12303960D01*
X13054158Y-12303960D02*
X13063682Y-12294436D01*
X13063682Y-12294436D02*
X13082729Y-12265865D01*
X13082729Y-12265865D02*
X13092253Y-12227769D01*
X13092253Y-12227769D02*
X13092253Y-12151579D01*
X13092253Y-12151579D02*
X13082729Y-12132531D01*
X13082729Y-12132531D02*
X13073205Y-12123008D01*
X13073205Y-12123008D02*
X13054158Y-12113484D01*
X13054158Y-12113484D02*
X13016062Y-12113484D01*
X13016062Y-12113484D02*
X12997015Y-12123008D01*
X12997015Y-12123008D02*
X12987491Y-12132531D01*
X12987491Y-12132531D02*
X12977967Y-12151579D01*
X12977967Y-12151579D02*
X12977967Y-12199198D01*
X12977967Y-12199198D02*
X12987491Y-12218246D01*
X12987491Y-12218246D02*
X12997015Y-12227769D01*
X12997015Y-12227769D02*
X13016062Y-12237293D01*
X13016062Y-12237293D02*
X13054158Y-12237293D01*
X13054158Y-12237293D02*
X13073205Y-12227769D01*
X13073205Y-12227769D02*
X13082729Y-12218246D01*
X13082729Y-12218246D02*
X13092253Y-12199198D01*
X13273205Y-12113484D02*
X13177967Y-12113484D01*
X13177967Y-12113484D02*
X13168443Y-12208722D01*
X13168443Y-12208722D02*
X13177967Y-12199198D01*
X13177967Y-12199198D02*
X13197015Y-12189674D01*
X13197015Y-12189674D02*
X13244634Y-12189674D01*
X13244634Y-12189674D02*
X13263682Y-12199198D01*
X13263682Y-12199198D02*
X13273205Y-12208722D01*
X13273205Y-12208722D02*
X13282729Y-12227769D01*
X13282729Y-12227769D02*
X13282729Y-12275388D01*
X13282729Y-12275388D02*
X13273205Y-12294436D01*
X13273205Y-12294436D02*
X13263682Y-12303960D01*
X13263682Y-12303960D02*
X13244634Y-12313484D01*
X13244634Y-12313484D02*
X13197015Y-12313484D01*
X13197015Y-12313484D02*
X13177967Y-12303960D01*
X13177967Y-12303960D02*
X13168443Y-12294436D01*
X13406539Y-12113484D02*
X13425586Y-12113484D01*
X13425586Y-12113484D02*
X13444634Y-12123008D01*
X13444634Y-12123008D02*
X13454158Y-12132531D01*
X13454158Y-12132531D02*
X13463682Y-12151579D01*
X13463682Y-12151579D02*
X13473205Y-12189674D01*
X13473205Y-12189674D02*
X13473205Y-12237293D01*
X13473205Y-12237293D02*
X13463682Y-12275388D01*
X13463682Y-12275388D02*
X13454158Y-12294436D01*
X13454158Y-12294436D02*
X13444634Y-12303960D01*
X13444634Y-12303960D02*
X13425586Y-12313484D01*
X13425586Y-12313484D02*
X13406539Y-12313484D01*
X13406539Y-12313484D02*
X13387491Y-12303960D01*
X13387491Y-12303960D02*
X13377967Y-12294436D01*
X13377967Y-12294436D02*
X13368443Y-12275388D01*
X13368443Y-12275388D02*
X13358920Y-12237293D01*
X13358920Y-12237293D02*
X13358920Y-12189674D01*
X13358920Y-12189674D02*
X13368443Y-12151579D01*
X13368443Y-12151579D02*
X13377967Y-12132531D01*
X13377967Y-12132531D02*
X13387491Y-12123008D01*
X13387491Y-12123008D02*
X13406539Y-12113484D01*
X13558920Y-12313484D02*
X13558920Y-12180150D01*
X13558920Y-12199198D02*
X13568443Y-12189674D01*
X13568443Y-12189674D02*
X13587491Y-12180150D01*
X13587491Y-12180150D02*
X13616063Y-12180150D01*
X13616063Y-12180150D02*
X13635110Y-12189674D01*
X13635110Y-12189674D02*
X13644634Y-12208722D01*
X13644634Y-12208722D02*
X13644634Y-12313484D01*
X13644634Y-12208722D02*
X13654158Y-12189674D01*
X13654158Y-12189674D02*
X13673205Y-12180150D01*
X13673205Y-12180150D02*
X13701777Y-12180150D01*
X13701777Y-12180150D02*
X13720824Y-12189674D01*
X13720824Y-12189674D02*
X13730348Y-12208722D01*
X13730348Y-12208722D02*
X13730348Y-12313484D01*
X13825586Y-12313484D02*
X13825586Y-12180150D01*
X13825586Y-12199198D02*
X13835110Y-12189674D01*
X13835110Y-12189674D02*
X13854158Y-12180150D01*
X13854158Y-12180150D02*
X13882729Y-12180150D01*
X13882729Y-12180150D02*
X13901777Y-12189674D01*
X13901777Y-12189674D02*
X13911301Y-12208722D01*
X13911301Y-12208722D02*
X13911301Y-12313484D01*
X13911301Y-12208722D02*
X13920824Y-12189674D01*
X13920824Y-12189674D02*
X13939872Y-12180150D01*
X13939872Y-12180150D02*
X13968443Y-12180150D01*
X13968443Y-12180150D02*
X13987491Y-12189674D01*
X13987491Y-12189674D02*
X13997015Y-12208722D01*
X13997015Y-12208722D02*
X13997015Y-12313484D01*
X14387491Y-12103960D02*
X14216063Y-12361103D01*
X14644634Y-12113484D02*
X14663682Y-12113484D01*
X14663682Y-12113484D02*
X14682729Y-12123008D01*
X14682729Y-12123008D02*
X14692253Y-12132531D01*
X14692253Y-12132531D02*
X14701777Y-12151579D01*
X14701777Y-12151579D02*
X14711301Y-12189674D01*
X14711301Y-12189674D02*
X14711301Y-12237293D01*
X14711301Y-12237293D02*
X14701777Y-12275388D01*
X14701777Y-12275388D02*
X14692253Y-12294436D01*
X14692253Y-12294436D02*
X14682729Y-12303960D01*
X14682729Y-12303960D02*
X14663682Y-12313484D01*
X14663682Y-12313484D02*
X14644634Y-12313484D01*
X14644634Y-12313484D02*
X14625586Y-12303960D01*
X14625586Y-12303960D02*
X14616063Y-12294436D01*
X14616063Y-12294436D02*
X14606539Y-12275388D01*
X14606539Y-12275388D02*
X14597015Y-12237293D01*
X14597015Y-12237293D02*
X14597015Y-12189674D01*
X14597015Y-12189674D02*
X14606539Y-12151579D01*
X14606539Y-12151579D02*
X14616063Y-12132531D01*
X14616063Y-12132531D02*
X14625586Y-12123008D01*
X14625586Y-12123008D02*
X14644634Y-12113484D01*
X14797015Y-12294436D02*
X14806539Y-12303960D01*
X14806539Y-12303960D02*
X14797015Y-12313484D01*
X14797015Y-12313484D02*
X14787491Y-12303960D01*
X14787491Y-12303960D02*
X14797015Y-12294436D01*
X14797015Y-12294436D02*
X14797015Y-12313484D01*
X14930348Y-12113484D02*
X14949396Y-12113484D01*
X14949396Y-12113484D02*
X14968444Y-12123008D01*
X14968444Y-12123008D02*
X14977967Y-12132531D01*
X14977967Y-12132531D02*
X14987491Y-12151579D01*
X14987491Y-12151579D02*
X14997015Y-12189674D01*
X14997015Y-12189674D02*
X14997015Y-12237293D01*
X14997015Y-12237293D02*
X14987491Y-12275388D01*
X14987491Y-12275388D02*
X14977967Y-12294436D01*
X14977967Y-12294436D02*
X14968444Y-12303960D01*
X14968444Y-12303960D02*
X14949396Y-12313484D01*
X14949396Y-12313484D02*
X14930348Y-12313484D01*
X14930348Y-12313484D02*
X14911301Y-12303960D01*
X14911301Y-12303960D02*
X14901777Y-12294436D01*
X14901777Y-12294436D02*
X14892253Y-12275388D01*
X14892253Y-12275388D02*
X14882729Y-12237293D01*
X14882729Y-12237293D02*
X14882729Y-12189674D01*
X14882729Y-12189674D02*
X14892253Y-12151579D01*
X14892253Y-12151579D02*
X14901777Y-12132531D01*
X14901777Y-12132531D02*
X14911301Y-12123008D01*
X14911301Y-12123008D02*
X14930348Y-12113484D01*
X15063682Y-12113484D02*
X15187491Y-12113484D01*
X15187491Y-12113484D02*
X15120825Y-12189674D01*
X15120825Y-12189674D02*
X15149396Y-12189674D01*
X15149396Y-12189674D02*
X15168444Y-12199198D01*
X15168444Y-12199198D02*
X15177967Y-12208722D01*
X15177967Y-12208722D02*
X15187491Y-12227769D01*
X15187491Y-12227769D02*
X15187491Y-12275388D01*
X15187491Y-12275388D02*
X15177967Y-12294436D01*
X15177967Y-12294436D02*
X15168444Y-12303960D01*
X15168444Y-12303960D02*
X15149396Y-12313484D01*
X15149396Y-12313484D02*
X15092253Y-12313484D01*
X15092253Y-12313484D02*
X15073206Y-12303960D01*
X15073206Y-12303960D02*
X15063682Y-12294436D01*
X15254158Y-12113484D02*
X15387491Y-12113484D01*
X15387491Y-12113484D02*
X15301777Y-12313484D01*
X15549396Y-12180150D02*
X15549396Y-12313484D01*
X15501777Y-12103960D02*
X15454158Y-12246817D01*
X15454158Y-12246817D02*
X15577967Y-12246817D01*
X15644634Y-12113484D02*
X15644634Y-12151579D01*
X15720825Y-12113484D02*
X15720825Y-12151579D01*
X16016063Y-12389674D02*
X16006539Y-12380150D01*
X16006539Y-12380150D02*
X15987491Y-12351579D01*
X15987491Y-12351579D02*
X15977968Y-12332531D01*
X15977968Y-12332531D02*
X15968444Y-12303960D01*
X15968444Y-12303960D02*
X15958920Y-12256341D01*
X15958920Y-12256341D02*
X15958920Y-12218246D01*
X15958920Y-12218246D02*
X15968444Y-12170627D01*
X15968444Y-12170627D02*
X15977968Y-12142055D01*
X15977968Y-12142055D02*
X15987491Y-12123008D01*
X15987491Y-12123008D02*
X16006539Y-12094436D01*
X16006539Y-12094436D02*
X16016063Y-12084912D01*
X16197015Y-12313484D02*
X16082729Y-12313484D01*
X16139872Y-12313484D02*
X16139872Y-12113484D01*
X16139872Y-12113484D02*
X16120825Y-12142055D01*
X16120825Y-12142055D02*
X16101777Y-12161103D01*
X16101777Y-12161103D02*
X16082729Y-12170627D01*
X16273206Y-12132531D02*
X16282729Y-12123008D01*
X16282729Y-12123008D02*
X16301777Y-12113484D01*
X16301777Y-12113484D02*
X16349396Y-12113484D01*
X16349396Y-12113484D02*
X16368444Y-12123008D01*
X16368444Y-12123008D02*
X16377968Y-12132531D01*
X16377968Y-12132531D02*
X16387491Y-12151579D01*
X16387491Y-12151579D02*
X16387491Y-12170627D01*
X16387491Y-12170627D02*
X16377968Y-12199198D01*
X16377968Y-12199198D02*
X16263682Y-12313484D01*
X16263682Y-12313484D02*
X16387491Y-12313484D01*
X16625587Y-12313484D02*
X16625587Y-12113484D01*
X16711301Y-12313484D02*
X16711301Y-12208722D01*
X16711301Y-12208722D02*
X16701777Y-12189674D01*
X16701777Y-12189674D02*
X16682730Y-12180150D01*
X16682730Y-12180150D02*
X16654158Y-12180150D01*
X16654158Y-12180150D02*
X16635110Y-12189674D01*
X16635110Y-12189674D02*
X16625587Y-12199198D01*
X16835111Y-12313484D02*
X16816063Y-12303960D01*
X16816063Y-12303960D02*
X16806539Y-12294436D01*
X16806539Y-12294436D02*
X16797015Y-12275388D01*
X16797015Y-12275388D02*
X16797015Y-12218246D01*
X16797015Y-12218246D02*
X16806539Y-12199198D01*
X16806539Y-12199198D02*
X16816063Y-12189674D01*
X16816063Y-12189674D02*
X16835111Y-12180150D01*
X16835111Y-12180150D02*
X16863682Y-12180150D01*
X16863682Y-12180150D02*
X16882730Y-12189674D01*
X16882730Y-12189674D02*
X16892253Y-12199198D01*
X16892253Y-12199198D02*
X16901777Y-12218246D01*
X16901777Y-12218246D02*
X16901777Y-12275388D01*
X16901777Y-12275388D02*
X16892253Y-12294436D01*
X16892253Y-12294436D02*
X16882730Y-12303960D01*
X16882730Y-12303960D02*
X16863682Y-12313484D01*
X16863682Y-12313484D02*
X16835111Y-12313484D01*
X17016063Y-12313484D02*
X16997015Y-12303960D01*
X16997015Y-12303960D02*
X16987492Y-12284912D01*
X16987492Y-12284912D02*
X16987492Y-12113484D01*
X17168444Y-12303960D02*
X17149396Y-12313484D01*
X17149396Y-12313484D02*
X17111301Y-12313484D01*
X17111301Y-12313484D02*
X17092253Y-12303960D01*
X17092253Y-12303960D02*
X17082730Y-12284912D01*
X17082730Y-12284912D02*
X17082730Y-12208722D01*
X17082730Y-12208722D02*
X17092253Y-12189674D01*
X17092253Y-12189674D02*
X17111301Y-12180150D01*
X17111301Y-12180150D02*
X17149396Y-12180150D01*
X17149396Y-12180150D02*
X17168444Y-12189674D01*
X17168444Y-12189674D02*
X17177968Y-12208722D01*
X17177968Y-12208722D02*
X17177968Y-12227769D01*
X17177968Y-12227769D02*
X17082730Y-12246817D01*
X17254158Y-12303960D02*
X17273206Y-12313484D01*
X17273206Y-12313484D02*
X17311301Y-12313484D01*
X17311301Y-12313484D02*
X17330349Y-12303960D01*
X17330349Y-12303960D02*
X17339873Y-12284912D01*
X17339873Y-12284912D02*
X17339873Y-12275388D01*
X17339873Y-12275388D02*
X17330349Y-12256341D01*
X17330349Y-12256341D02*
X17311301Y-12246817D01*
X17311301Y-12246817D02*
X17282730Y-12246817D01*
X17282730Y-12246817D02*
X17263682Y-12237293D01*
X17263682Y-12237293D02*
X17254158Y-12218246D01*
X17254158Y-12218246D02*
X17254158Y-12208722D01*
X17254158Y-12208722D02*
X17263682Y-12189674D01*
X17263682Y-12189674D02*
X17282730Y-12180150D01*
X17282730Y-12180150D02*
X17311301Y-12180150D01*
X17311301Y-12180150D02*
X17330349Y-12189674D01*
X17406539Y-12389674D02*
X17416063Y-12380150D01*
X17416063Y-12380150D02*
X17435111Y-12351579D01*
X17435111Y-12351579D02*
X17444634Y-12332531D01*
X17444634Y-12332531D02*
X17454158Y-12303960D01*
X17454158Y-12303960D02*
X17463682Y-12256341D01*
X17463682Y-12256341D02*
X17463682Y-12218246D01*
X17463682Y-12218246D02*
X17454158Y-12170627D01*
X17454158Y-12170627D02*
X17444634Y-12142055D01*
X17444634Y-12142055D02*
X17435111Y-12123008D01*
X17435111Y-12123008D02*
X17416063Y-12094436D01*
X17416063Y-12094436D02*
X17406539Y-12084912D01*
D12*
X12416105Y-12546105D02*
X12416105Y-12425895D01*
X12295895Y-12425895D01*
X12295895Y-12546105D01*
X12416105Y-12546105D01*
D11*
X12806539Y-12577484D02*
X12692253Y-12577484D01*
X12749396Y-12577484D02*
X12749396Y-12377484D01*
X12749396Y-12377484D02*
X12730348Y-12406055D01*
X12730348Y-12406055D02*
X12711301Y-12425103D01*
X12711301Y-12425103D02*
X12692253Y-12434627D01*
X12892253Y-12558436D02*
X12901777Y-12567960D01*
X12901777Y-12567960D02*
X12892253Y-12577484D01*
X12892253Y-12577484D02*
X12882729Y-12567960D01*
X12882729Y-12567960D02*
X12892253Y-12558436D01*
X12892253Y-12558436D02*
X12892253Y-12577484D01*
X12968443Y-12377484D02*
X13101777Y-12377484D01*
X13101777Y-12377484D02*
X13016062Y-12577484D01*
X13216062Y-12377484D02*
X13235110Y-12377484D01*
X13235110Y-12377484D02*
X13254158Y-12387008D01*
X13254158Y-12387008D02*
X13263682Y-12396531D01*
X13263682Y-12396531D02*
X13273205Y-12415579D01*
X13273205Y-12415579D02*
X13282729Y-12453674D01*
X13282729Y-12453674D02*
X13282729Y-12501293D01*
X13282729Y-12501293D02*
X13273205Y-12539388D01*
X13273205Y-12539388D02*
X13263682Y-12558436D01*
X13263682Y-12558436D02*
X13254158Y-12567960D01*
X13254158Y-12567960D02*
X13235110Y-12577484D01*
X13235110Y-12577484D02*
X13216062Y-12577484D01*
X13216062Y-12577484D02*
X13197015Y-12567960D01*
X13197015Y-12567960D02*
X13187491Y-12558436D01*
X13187491Y-12558436D02*
X13177967Y-12539388D01*
X13177967Y-12539388D02*
X13168443Y-12501293D01*
X13168443Y-12501293D02*
X13168443Y-12453674D01*
X13168443Y-12453674D02*
X13177967Y-12415579D01*
X13177967Y-12415579D02*
X13187491Y-12396531D01*
X13187491Y-12396531D02*
X13197015Y-12387008D01*
X13197015Y-12387008D02*
X13216062Y-12377484D01*
X13406539Y-12377484D02*
X13425586Y-12377484D01*
X13425586Y-12377484D02*
X13444634Y-12387008D01*
X13444634Y-12387008D02*
X13454158Y-12396531D01*
X13454158Y-12396531D02*
X13463682Y-12415579D01*
X13463682Y-12415579D02*
X13473205Y-12453674D01*
X13473205Y-12453674D02*
X13473205Y-12501293D01*
X13473205Y-12501293D02*
X13463682Y-12539388D01*
X13463682Y-12539388D02*
X13454158Y-12558436D01*
X13454158Y-12558436D02*
X13444634Y-12567960D01*
X13444634Y-12567960D02*
X13425586Y-12577484D01*
X13425586Y-12577484D02*
X13406539Y-12577484D01*
X13406539Y-12577484D02*
X13387491Y-12567960D01*
X13387491Y-12567960D02*
X13377967Y-12558436D01*
X13377967Y-12558436D02*
X13368443Y-12539388D01*
X13368443Y-12539388D02*
X13358920Y-12501293D01*
X13358920Y-12501293D02*
X13358920Y-12453674D01*
X13358920Y-12453674D02*
X13368443Y-12415579D01*
X13368443Y-12415579D02*
X13377967Y-12396531D01*
X13377967Y-12396531D02*
X13387491Y-12387008D01*
X13387491Y-12387008D02*
X13406539Y-12377484D01*
X13558920Y-12577484D02*
X13558920Y-12444150D01*
X13558920Y-12463198D02*
X13568443Y-12453674D01*
X13568443Y-12453674D02*
X13587491Y-12444150D01*
X13587491Y-12444150D02*
X13616063Y-12444150D01*
X13616063Y-12444150D02*
X13635110Y-12453674D01*
X13635110Y-12453674D02*
X13644634Y-12472722D01*
X13644634Y-12472722D02*
X13644634Y-12577484D01*
X13644634Y-12472722D02*
X13654158Y-12453674D01*
X13654158Y-12453674D02*
X13673205Y-12444150D01*
X13673205Y-12444150D02*
X13701777Y-12444150D01*
X13701777Y-12444150D02*
X13720824Y-12453674D01*
X13720824Y-12453674D02*
X13730348Y-12472722D01*
X13730348Y-12472722D02*
X13730348Y-12577484D01*
X13825586Y-12577484D02*
X13825586Y-12444150D01*
X13825586Y-12463198D02*
X13835110Y-12453674D01*
X13835110Y-12453674D02*
X13854158Y-12444150D01*
X13854158Y-12444150D02*
X13882729Y-12444150D01*
X13882729Y-12444150D02*
X13901777Y-12453674D01*
X13901777Y-12453674D02*
X13911301Y-12472722D01*
X13911301Y-12472722D02*
X13911301Y-12577484D01*
X13911301Y-12472722D02*
X13920824Y-12453674D01*
X13920824Y-12453674D02*
X13939872Y-12444150D01*
X13939872Y-12444150D02*
X13968443Y-12444150D01*
X13968443Y-12444150D02*
X13987491Y-12453674D01*
X13987491Y-12453674D02*
X13997015Y-12472722D01*
X13997015Y-12472722D02*
X13997015Y-12577484D01*
X14387491Y-12367960D02*
X14216063Y-12625103D01*
X14644634Y-12377484D02*
X14663682Y-12377484D01*
X14663682Y-12377484D02*
X14682729Y-12387008D01*
X14682729Y-12387008D02*
X14692253Y-12396531D01*
X14692253Y-12396531D02*
X14701777Y-12415579D01*
X14701777Y-12415579D02*
X14711301Y-12453674D01*
X14711301Y-12453674D02*
X14711301Y-12501293D01*
X14711301Y-12501293D02*
X14701777Y-12539388D01*
X14701777Y-12539388D02*
X14692253Y-12558436D01*
X14692253Y-12558436D02*
X14682729Y-12567960D01*
X14682729Y-12567960D02*
X14663682Y-12577484D01*
X14663682Y-12577484D02*
X14644634Y-12577484D01*
X14644634Y-12577484D02*
X14625586Y-12567960D01*
X14625586Y-12567960D02*
X14616063Y-12558436D01*
X14616063Y-12558436D02*
X14606539Y-12539388D01*
X14606539Y-12539388D02*
X14597015Y-12501293D01*
X14597015Y-12501293D02*
X14597015Y-12453674D01*
X14597015Y-12453674D02*
X14606539Y-12415579D01*
X14606539Y-12415579D02*
X14616063Y-12396531D01*
X14616063Y-12396531D02*
X14625586Y-12387008D01*
X14625586Y-12387008D02*
X14644634Y-12377484D01*
X14797015Y-12558436D02*
X14806539Y-12567960D01*
X14806539Y-12567960D02*
X14797015Y-12577484D01*
X14797015Y-12577484D02*
X14787491Y-12567960D01*
X14787491Y-12567960D02*
X14797015Y-12558436D01*
X14797015Y-12558436D02*
X14797015Y-12577484D01*
X14930348Y-12377484D02*
X14949396Y-12377484D01*
X14949396Y-12377484D02*
X14968444Y-12387008D01*
X14968444Y-12387008D02*
X14977967Y-12396531D01*
X14977967Y-12396531D02*
X14987491Y-12415579D01*
X14987491Y-12415579D02*
X14997015Y-12453674D01*
X14997015Y-12453674D02*
X14997015Y-12501293D01*
X14997015Y-12501293D02*
X14987491Y-12539388D01*
X14987491Y-12539388D02*
X14977967Y-12558436D01*
X14977967Y-12558436D02*
X14968444Y-12567960D01*
X14968444Y-12567960D02*
X14949396Y-12577484D01*
X14949396Y-12577484D02*
X14930348Y-12577484D01*
X14930348Y-12577484D02*
X14911301Y-12567960D01*
X14911301Y-12567960D02*
X14901777Y-12558436D01*
X14901777Y-12558436D02*
X14892253Y-12539388D01*
X14892253Y-12539388D02*
X14882729Y-12501293D01*
X14882729Y-12501293D02*
X14882729Y-12453674D01*
X14882729Y-12453674D02*
X14892253Y-12415579D01*
X14892253Y-12415579D02*
X14901777Y-12396531D01*
X14901777Y-12396531D02*
X14911301Y-12387008D01*
X14911301Y-12387008D02*
X14930348Y-12377484D01*
X15168444Y-12377484D02*
X15130348Y-12377484D01*
X15130348Y-12377484D02*
X15111301Y-12387008D01*
X15111301Y-12387008D02*
X15101777Y-12396531D01*
X15101777Y-12396531D02*
X15082729Y-12425103D01*
X15082729Y-12425103D02*
X15073206Y-12463198D01*
X15073206Y-12463198D02*
X15073206Y-12539388D01*
X15073206Y-12539388D02*
X15082729Y-12558436D01*
X15082729Y-12558436D02*
X15092253Y-12567960D01*
X15092253Y-12567960D02*
X15111301Y-12577484D01*
X15111301Y-12577484D02*
X15149396Y-12577484D01*
X15149396Y-12577484D02*
X15168444Y-12567960D01*
X15168444Y-12567960D02*
X15177967Y-12558436D01*
X15177967Y-12558436D02*
X15187491Y-12539388D01*
X15187491Y-12539388D02*
X15187491Y-12491769D01*
X15187491Y-12491769D02*
X15177967Y-12472722D01*
X15177967Y-12472722D02*
X15168444Y-12463198D01*
X15168444Y-12463198D02*
X15149396Y-12453674D01*
X15149396Y-12453674D02*
X15111301Y-12453674D01*
X15111301Y-12453674D02*
X15092253Y-12463198D01*
X15092253Y-12463198D02*
X15082729Y-12472722D01*
X15082729Y-12472722D02*
X15073206Y-12491769D01*
X15358920Y-12377484D02*
X15320825Y-12377484D01*
X15320825Y-12377484D02*
X15301777Y-12387008D01*
X15301777Y-12387008D02*
X15292253Y-12396531D01*
X15292253Y-12396531D02*
X15273206Y-12425103D01*
X15273206Y-12425103D02*
X15263682Y-12463198D01*
X15263682Y-12463198D02*
X15263682Y-12539388D01*
X15263682Y-12539388D02*
X15273206Y-12558436D01*
X15273206Y-12558436D02*
X15282729Y-12567960D01*
X15282729Y-12567960D02*
X15301777Y-12577484D01*
X15301777Y-12577484D02*
X15339872Y-12577484D01*
X15339872Y-12577484D02*
X15358920Y-12567960D01*
X15358920Y-12567960D02*
X15368444Y-12558436D01*
X15368444Y-12558436D02*
X15377967Y-12539388D01*
X15377967Y-12539388D02*
X15377967Y-12491769D01*
X15377967Y-12491769D02*
X15368444Y-12472722D01*
X15368444Y-12472722D02*
X15358920Y-12463198D01*
X15358920Y-12463198D02*
X15339872Y-12453674D01*
X15339872Y-12453674D02*
X15301777Y-12453674D01*
X15301777Y-12453674D02*
X15282729Y-12463198D01*
X15282729Y-12463198D02*
X15273206Y-12472722D01*
X15273206Y-12472722D02*
X15263682Y-12491769D01*
X15473206Y-12577484D02*
X15511301Y-12577484D01*
X15511301Y-12577484D02*
X15530348Y-12567960D01*
X15530348Y-12567960D02*
X15539872Y-12558436D01*
X15539872Y-12558436D02*
X15558920Y-12529865D01*
X15558920Y-12529865D02*
X15568444Y-12491769D01*
X15568444Y-12491769D02*
X15568444Y-12415579D01*
X15568444Y-12415579D02*
X15558920Y-12396531D01*
X15558920Y-12396531D02*
X15549396Y-12387008D01*
X15549396Y-12387008D02*
X15530348Y-12377484D01*
X15530348Y-12377484D02*
X15492253Y-12377484D01*
X15492253Y-12377484D02*
X15473206Y-12387008D01*
X15473206Y-12387008D02*
X15463682Y-12396531D01*
X15463682Y-12396531D02*
X15454158Y-12415579D01*
X15454158Y-12415579D02*
X15454158Y-12463198D01*
X15454158Y-12463198D02*
X15463682Y-12482246D01*
X15463682Y-12482246D02*
X15473206Y-12491769D01*
X15473206Y-12491769D02*
X15492253Y-12501293D01*
X15492253Y-12501293D02*
X15530348Y-12501293D01*
X15530348Y-12501293D02*
X15549396Y-12491769D01*
X15549396Y-12491769D02*
X15558920Y-12482246D01*
X15558920Y-12482246D02*
X15568444Y-12463198D01*
X15644634Y-12377484D02*
X15644634Y-12415579D01*
X15720825Y-12377484D02*
X15720825Y-12415579D01*
X16016063Y-12653674D02*
X16006539Y-12644150D01*
X16006539Y-12644150D02*
X15987491Y-12615579D01*
X15987491Y-12615579D02*
X15977968Y-12596531D01*
X15977968Y-12596531D02*
X15968444Y-12567960D01*
X15968444Y-12567960D02*
X15958920Y-12520341D01*
X15958920Y-12520341D02*
X15958920Y-12482246D01*
X15958920Y-12482246D02*
X15968444Y-12434627D01*
X15968444Y-12434627D02*
X15977968Y-12406055D01*
X15977968Y-12406055D02*
X15987491Y-12387008D01*
X15987491Y-12387008D02*
X16006539Y-12358436D01*
X16006539Y-12358436D02*
X16016063Y-12348912D01*
X16082729Y-12396531D02*
X16092253Y-12387008D01*
X16092253Y-12387008D02*
X16111301Y-12377484D01*
X16111301Y-12377484D02*
X16158920Y-12377484D01*
X16158920Y-12377484D02*
X16177968Y-12387008D01*
X16177968Y-12387008D02*
X16187491Y-12396531D01*
X16187491Y-12396531D02*
X16197015Y-12415579D01*
X16197015Y-12415579D02*
X16197015Y-12434627D01*
X16197015Y-12434627D02*
X16187491Y-12463198D01*
X16187491Y-12463198D02*
X16073206Y-12577484D01*
X16073206Y-12577484D02*
X16197015Y-12577484D01*
X16435110Y-12577484D02*
X16435110Y-12377484D01*
X16520825Y-12577484D02*
X16520825Y-12472722D01*
X16520825Y-12472722D02*
X16511301Y-12453674D01*
X16511301Y-12453674D02*
X16492253Y-12444150D01*
X16492253Y-12444150D02*
X16463682Y-12444150D01*
X16463682Y-12444150D02*
X16444634Y-12453674D01*
X16444634Y-12453674D02*
X16435110Y-12463198D01*
X16644634Y-12577484D02*
X16625587Y-12567960D01*
X16625587Y-12567960D02*
X16616063Y-12558436D01*
X16616063Y-12558436D02*
X16606539Y-12539388D01*
X16606539Y-12539388D02*
X16606539Y-12482246D01*
X16606539Y-12482246D02*
X16616063Y-12463198D01*
X16616063Y-12463198D02*
X16625587Y-12453674D01*
X16625587Y-12453674D02*
X16644634Y-12444150D01*
X16644634Y-12444150D02*
X16673206Y-12444150D01*
X16673206Y-12444150D02*
X16692253Y-12453674D01*
X16692253Y-12453674D02*
X16701777Y-12463198D01*
X16701777Y-12463198D02*
X16711301Y-12482246D01*
X16711301Y-12482246D02*
X16711301Y-12539388D01*
X16711301Y-12539388D02*
X16701777Y-12558436D01*
X16701777Y-12558436D02*
X16692253Y-12567960D01*
X16692253Y-12567960D02*
X16673206Y-12577484D01*
X16673206Y-12577484D02*
X16644634Y-12577484D01*
X16825587Y-12577484D02*
X16806539Y-12567960D01*
X16806539Y-12567960D02*
X16797015Y-12548912D01*
X16797015Y-12548912D02*
X16797015Y-12377484D01*
X16977968Y-12567960D02*
X16958920Y-12577484D01*
X16958920Y-12577484D02*
X16920825Y-12577484D01*
X16920825Y-12577484D02*
X16901777Y-12567960D01*
X16901777Y-12567960D02*
X16892253Y-12548912D01*
X16892253Y-12548912D02*
X16892253Y-12472722D01*
X16892253Y-12472722D02*
X16901777Y-12453674D01*
X16901777Y-12453674D02*
X16920825Y-12444150D01*
X16920825Y-12444150D02*
X16958920Y-12444150D01*
X16958920Y-12444150D02*
X16977968Y-12453674D01*
X16977968Y-12453674D02*
X16987492Y-12472722D01*
X16987492Y-12472722D02*
X16987492Y-12491769D01*
X16987492Y-12491769D02*
X16892253Y-12510817D01*
X17063682Y-12567960D02*
X17082730Y-12577484D01*
X17082730Y-12577484D02*
X17120825Y-12577484D01*
X17120825Y-12577484D02*
X17139873Y-12567960D01*
X17139873Y-12567960D02*
X17149396Y-12548912D01*
X17149396Y-12548912D02*
X17149396Y-12539388D01*
X17149396Y-12539388D02*
X17139873Y-12520341D01*
X17139873Y-12520341D02*
X17120825Y-12510817D01*
X17120825Y-12510817D02*
X17092253Y-12510817D01*
X17092253Y-12510817D02*
X17073206Y-12501293D01*
X17073206Y-12501293D02*
X17063682Y-12482246D01*
X17063682Y-12482246D02*
X17063682Y-12472722D01*
X17063682Y-12472722D02*
X17073206Y-12453674D01*
X17073206Y-12453674D02*
X17092253Y-12444150D01*
X17092253Y-12444150D02*
X17120825Y-12444150D01*
X17120825Y-12444150D02*
X17139873Y-12453674D01*
X17216063Y-12653674D02*
X17225587Y-12644150D01*
X17225587Y-12644150D02*
X17244634Y-12615579D01*
X17244634Y-12615579D02*
X17254158Y-12596531D01*
X17254158Y-12596531D02*
X17263682Y-12567960D01*
X17263682Y-12567960D02*
X17273206Y-12520341D01*
X17273206Y-12520341D02*
X17273206Y-12482246D01*
X17273206Y-12482246D02*
X17263682Y-12434627D01*
X17263682Y-12434627D02*
X17254158Y-12406055D01*
X17254158Y-12406055D02*
X17244634Y-12387008D01*
X17244634Y-12387008D02*
X17225587Y-12358436D01*
X17225587Y-12358436D02*
X17216063Y-12348912D01*
M02*
