%TF.GenerationSoftware,KiCad,Pcbnew,8.0.2*%
%TF.CreationDate,2024-05-12T16:10:16+01:00*%
%TF.ProjectId,TelemetryCANBoard,54656c65-6d65-4747-9279-43414e426f61,rev?*%
%TF.SameCoordinates,Original*%
%TF.FileFunction,Drillmap*%
%TF.FilePolarity,Positive*%
%FSLAX45Y45*%
G04 Gerber Fmt 4.5, Leading zero omitted, Abs format (unit mm)*
G04 Created by KiCad (PCBNEW 8.0.2) date 2024-05-12 16:10:16*
%MOMM*%
%LPD*%
G01*
G04 APERTURE LIST*
%ADD10C,0.100000*%
%ADD11C,0.200000*%
%ADD12C,0.320000*%
%ADD13C,0.330000*%
G04 APERTURE END LIST*
D10*
X18796000Y-7493000D02*
X12573000Y-7493000D01*
X18923000Y-10922000D02*
X18923000Y-7620000D01*
X12446000Y-7620000D02*
X12446000Y-10922000D01*
X18796000Y-11049000D02*
X12573000Y-11049000D01*
X18923000Y-10922000D02*
G75*
G02*
X18796000Y-11049000I-127000J0D01*
G01*
X12446000Y-7620000D02*
G75*
G02*
X12573000Y-7493000I127000J0D01*
G01*
X18796000Y-7493000D02*
G75*
G02*
X18923000Y-7620000I0J-127000D01*
G01*
X12573000Y-11049000D02*
G75*
G02*
X12446000Y-10922000I0J127000D01*
G01*
D11*
D12*
X12667000Y-7714000D02*
X12987000Y-8034000D01*
X12987000Y-7714000D02*
X12667000Y-8034000D01*
X12667000Y-10508000D02*
X12987000Y-10828000D01*
X12987000Y-10508000D02*
X12667000Y-10828000D01*
X18382000Y-7714000D02*
X18702000Y-8034000D01*
X18702000Y-7714000D02*
X18382000Y-8034000D01*
X18382000Y-10508000D02*
X18702000Y-10828000D01*
X18702000Y-10508000D02*
X18382000Y-10828000D01*
D13*
X14076000Y-8412000D02*
G75*
G02*
X13746000Y-8412000I-165000J0D01*
G01*
X13746000Y-8412000D02*
G75*
G02*
X14076000Y-8412000I165000J0D01*
G01*
X14076000Y-10130000D02*
G75*
G02*
X13746000Y-10130000I-165000J0D01*
G01*
X13746000Y-10130000D02*
G75*
G02*
X14076000Y-10130000I165000J0D01*
G01*
D11*
X12701777Y-11365484D02*
X12701777Y-11165484D01*
X12701777Y-11165484D02*
X12749396Y-11165484D01*
X12749396Y-11165484D02*
X12777967Y-11175008D01*
X12777967Y-11175008D02*
X12797015Y-11194055D01*
X12797015Y-11194055D02*
X12806539Y-11213103D01*
X12806539Y-11213103D02*
X12816062Y-11251198D01*
X12816062Y-11251198D02*
X12816062Y-11279769D01*
X12816062Y-11279769D02*
X12806539Y-11317865D01*
X12806539Y-11317865D02*
X12797015Y-11336912D01*
X12797015Y-11336912D02*
X12777967Y-11355960D01*
X12777967Y-11355960D02*
X12749396Y-11365484D01*
X12749396Y-11365484D02*
X12701777Y-11365484D01*
X12901777Y-11365484D02*
X12901777Y-11232150D01*
X12901777Y-11270246D02*
X12911301Y-11251198D01*
X12911301Y-11251198D02*
X12920824Y-11241674D01*
X12920824Y-11241674D02*
X12939872Y-11232150D01*
X12939872Y-11232150D02*
X12958920Y-11232150D01*
X13025586Y-11365484D02*
X13025586Y-11232150D01*
X13025586Y-11165484D02*
X13016062Y-11175008D01*
X13016062Y-11175008D02*
X13025586Y-11184531D01*
X13025586Y-11184531D02*
X13035110Y-11175008D01*
X13035110Y-11175008D02*
X13025586Y-11165484D01*
X13025586Y-11165484D02*
X13025586Y-11184531D01*
X13149396Y-11365484D02*
X13130348Y-11355960D01*
X13130348Y-11355960D02*
X13120824Y-11336912D01*
X13120824Y-11336912D02*
X13120824Y-11165484D01*
X13254158Y-11365484D02*
X13235110Y-11355960D01*
X13235110Y-11355960D02*
X13225586Y-11336912D01*
X13225586Y-11336912D02*
X13225586Y-11165484D01*
X13482729Y-11365484D02*
X13482729Y-11165484D01*
X13482729Y-11165484D02*
X13549396Y-11308341D01*
X13549396Y-11308341D02*
X13616062Y-11165484D01*
X13616062Y-11165484D02*
X13616062Y-11365484D01*
X13797015Y-11365484D02*
X13797015Y-11260722D01*
X13797015Y-11260722D02*
X13787491Y-11241674D01*
X13787491Y-11241674D02*
X13768443Y-11232150D01*
X13768443Y-11232150D02*
X13730348Y-11232150D01*
X13730348Y-11232150D02*
X13711301Y-11241674D01*
X13797015Y-11355960D02*
X13777967Y-11365484D01*
X13777967Y-11365484D02*
X13730348Y-11365484D01*
X13730348Y-11365484D02*
X13711301Y-11355960D01*
X13711301Y-11355960D02*
X13701777Y-11336912D01*
X13701777Y-11336912D02*
X13701777Y-11317865D01*
X13701777Y-11317865D02*
X13711301Y-11298817D01*
X13711301Y-11298817D02*
X13730348Y-11289293D01*
X13730348Y-11289293D02*
X13777967Y-11289293D01*
X13777967Y-11289293D02*
X13797015Y-11279769D01*
X13892253Y-11232150D02*
X13892253Y-11432150D01*
X13892253Y-11241674D02*
X13911301Y-11232150D01*
X13911301Y-11232150D02*
X13949396Y-11232150D01*
X13949396Y-11232150D02*
X13968443Y-11241674D01*
X13968443Y-11241674D02*
X13977967Y-11251198D01*
X13977967Y-11251198D02*
X13987491Y-11270246D01*
X13987491Y-11270246D02*
X13987491Y-11327388D01*
X13987491Y-11327388D02*
X13977967Y-11346436D01*
X13977967Y-11346436D02*
X13968443Y-11355960D01*
X13968443Y-11355960D02*
X13949396Y-11365484D01*
X13949396Y-11365484D02*
X13911301Y-11365484D01*
X13911301Y-11365484D02*
X13892253Y-11355960D01*
X14073205Y-11346436D02*
X14082729Y-11355960D01*
X14082729Y-11355960D02*
X14073205Y-11365484D01*
X14073205Y-11365484D02*
X14063682Y-11355960D01*
X14063682Y-11355960D02*
X14073205Y-11346436D01*
X14073205Y-11346436D02*
X14073205Y-11365484D01*
X14073205Y-11241674D02*
X14082729Y-11251198D01*
X14082729Y-11251198D02*
X14073205Y-11260722D01*
X14073205Y-11260722D02*
X14063682Y-11251198D01*
X14063682Y-11251198D02*
X14073205Y-11241674D01*
X14073205Y-11241674D02*
X14073205Y-11260722D01*
X12241000Y-11594000D02*
X12441000Y-11794000D01*
X12441000Y-11594000D02*
X12241000Y-11794000D01*
X12682729Y-11585484D02*
X12806539Y-11585484D01*
X12806539Y-11585484D02*
X12739872Y-11661674D01*
X12739872Y-11661674D02*
X12768443Y-11661674D01*
X12768443Y-11661674D02*
X12787491Y-11671198D01*
X12787491Y-11671198D02*
X12797015Y-11680722D01*
X12797015Y-11680722D02*
X12806539Y-11699769D01*
X12806539Y-11699769D02*
X12806539Y-11747388D01*
X12806539Y-11747388D02*
X12797015Y-11766436D01*
X12797015Y-11766436D02*
X12787491Y-11775960D01*
X12787491Y-11775960D02*
X12768443Y-11785484D01*
X12768443Y-11785484D02*
X12711301Y-11785484D01*
X12711301Y-11785484D02*
X12692253Y-11775960D01*
X12692253Y-11775960D02*
X12682729Y-11766436D01*
X12892253Y-11766436D02*
X12901777Y-11775960D01*
X12901777Y-11775960D02*
X12892253Y-11785484D01*
X12892253Y-11785484D02*
X12882729Y-11775960D01*
X12882729Y-11775960D02*
X12892253Y-11766436D01*
X12892253Y-11766436D02*
X12892253Y-11785484D01*
X12977967Y-11604531D02*
X12987491Y-11595008D01*
X12987491Y-11595008D02*
X13006539Y-11585484D01*
X13006539Y-11585484D02*
X13054158Y-11585484D01*
X13054158Y-11585484D02*
X13073205Y-11595008D01*
X13073205Y-11595008D02*
X13082729Y-11604531D01*
X13082729Y-11604531D02*
X13092253Y-11623579D01*
X13092253Y-11623579D02*
X13092253Y-11642627D01*
X13092253Y-11642627D02*
X13082729Y-11671198D01*
X13082729Y-11671198D02*
X12968443Y-11785484D01*
X12968443Y-11785484D02*
X13092253Y-11785484D01*
X13216062Y-11585484D02*
X13235110Y-11585484D01*
X13235110Y-11585484D02*
X13254158Y-11595008D01*
X13254158Y-11595008D02*
X13263682Y-11604531D01*
X13263682Y-11604531D02*
X13273205Y-11623579D01*
X13273205Y-11623579D02*
X13282729Y-11661674D01*
X13282729Y-11661674D02*
X13282729Y-11709293D01*
X13282729Y-11709293D02*
X13273205Y-11747388D01*
X13273205Y-11747388D02*
X13263682Y-11766436D01*
X13263682Y-11766436D02*
X13254158Y-11775960D01*
X13254158Y-11775960D02*
X13235110Y-11785484D01*
X13235110Y-11785484D02*
X13216062Y-11785484D01*
X13216062Y-11785484D02*
X13197015Y-11775960D01*
X13197015Y-11775960D02*
X13187491Y-11766436D01*
X13187491Y-11766436D02*
X13177967Y-11747388D01*
X13177967Y-11747388D02*
X13168443Y-11709293D01*
X13168443Y-11709293D02*
X13168443Y-11661674D01*
X13168443Y-11661674D02*
X13177967Y-11623579D01*
X13177967Y-11623579D02*
X13187491Y-11604531D01*
X13187491Y-11604531D02*
X13197015Y-11595008D01*
X13197015Y-11595008D02*
X13216062Y-11585484D01*
X13406539Y-11585484D02*
X13425586Y-11585484D01*
X13425586Y-11585484D02*
X13444634Y-11595008D01*
X13444634Y-11595008D02*
X13454158Y-11604531D01*
X13454158Y-11604531D02*
X13463682Y-11623579D01*
X13463682Y-11623579D02*
X13473205Y-11661674D01*
X13473205Y-11661674D02*
X13473205Y-11709293D01*
X13473205Y-11709293D02*
X13463682Y-11747388D01*
X13463682Y-11747388D02*
X13454158Y-11766436D01*
X13454158Y-11766436D02*
X13444634Y-11775960D01*
X13444634Y-11775960D02*
X13425586Y-11785484D01*
X13425586Y-11785484D02*
X13406539Y-11785484D01*
X13406539Y-11785484D02*
X13387491Y-11775960D01*
X13387491Y-11775960D02*
X13377967Y-11766436D01*
X13377967Y-11766436D02*
X13368443Y-11747388D01*
X13368443Y-11747388D02*
X13358920Y-11709293D01*
X13358920Y-11709293D02*
X13358920Y-11661674D01*
X13358920Y-11661674D02*
X13368443Y-11623579D01*
X13368443Y-11623579D02*
X13377967Y-11604531D01*
X13377967Y-11604531D02*
X13387491Y-11595008D01*
X13387491Y-11595008D02*
X13406539Y-11585484D01*
X13558920Y-11785484D02*
X13558920Y-11652150D01*
X13558920Y-11671198D02*
X13568443Y-11661674D01*
X13568443Y-11661674D02*
X13587491Y-11652150D01*
X13587491Y-11652150D02*
X13616063Y-11652150D01*
X13616063Y-11652150D02*
X13635110Y-11661674D01*
X13635110Y-11661674D02*
X13644634Y-11680722D01*
X13644634Y-11680722D02*
X13644634Y-11785484D01*
X13644634Y-11680722D02*
X13654158Y-11661674D01*
X13654158Y-11661674D02*
X13673205Y-11652150D01*
X13673205Y-11652150D02*
X13701777Y-11652150D01*
X13701777Y-11652150D02*
X13720824Y-11661674D01*
X13720824Y-11661674D02*
X13730348Y-11680722D01*
X13730348Y-11680722D02*
X13730348Y-11785484D01*
X13825586Y-11785484D02*
X13825586Y-11652150D01*
X13825586Y-11671198D02*
X13835110Y-11661674D01*
X13835110Y-11661674D02*
X13854158Y-11652150D01*
X13854158Y-11652150D02*
X13882729Y-11652150D01*
X13882729Y-11652150D02*
X13901777Y-11661674D01*
X13901777Y-11661674D02*
X13911301Y-11680722D01*
X13911301Y-11680722D02*
X13911301Y-11785484D01*
X13911301Y-11680722D02*
X13920824Y-11661674D01*
X13920824Y-11661674D02*
X13939872Y-11652150D01*
X13939872Y-11652150D02*
X13968443Y-11652150D01*
X13968443Y-11652150D02*
X13987491Y-11661674D01*
X13987491Y-11661674D02*
X13997015Y-11680722D01*
X13997015Y-11680722D02*
X13997015Y-11785484D01*
X14387491Y-11575960D02*
X14216063Y-11833103D01*
X14644634Y-11585484D02*
X14663682Y-11585484D01*
X14663682Y-11585484D02*
X14682729Y-11595008D01*
X14682729Y-11595008D02*
X14692253Y-11604531D01*
X14692253Y-11604531D02*
X14701777Y-11623579D01*
X14701777Y-11623579D02*
X14711301Y-11661674D01*
X14711301Y-11661674D02*
X14711301Y-11709293D01*
X14711301Y-11709293D02*
X14701777Y-11747388D01*
X14701777Y-11747388D02*
X14692253Y-11766436D01*
X14692253Y-11766436D02*
X14682729Y-11775960D01*
X14682729Y-11775960D02*
X14663682Y-11785484D01*
X14663682Y-11785484D02*
X14644634Y-11785484D01*
X14644634Y-11785484D02*
X14625586Y-11775960D01*
X14625586Y-11775960D02*
X14616063Y-11766436D01*
X14616063Y-11766436D02*
X14606539Y-11747388D01*
X14606539Y-11747388D02*
X14597015Y-11709293D01*
X14597015Y-11709293D02*
X14597015Y-11661674D01*
X14597015Y-11661674D02*
X14606539Y-11623579D01*
X14606539Y-11623579D02*
X14616063Y-11604531D01*
X14616063Y-11604531D02*
X14625586Y-11595008D01*
X14625586Y-11595008D02*
X14644634Y-11585484D01*
X14797015Y-11766436D02*
X14806539Y-11775960D01*
X14806539Y-11775960D02*
X14797015Y-11785484D01*
X14797015Y-11785484D02*
X14787491Y-11775960D01*
X14787491Y-11775960D02*
X14797015Y-11766436D01*
X14797015Y-11766436D02*
X14797015Y-11785484D01*
X14997015Y-11785484D02*
X14882729Y-11785484D01*
X14939872Y-11785484D02*
X14939872Y-11585484D01*
X14939872Y-11585484D02*
X14920825Y-11614055D01*
X14920825Y-11614055D02*
X14901777Y-11633103D01*
X14901777Y-11633103D02*
X14882729Y-11642627D01*
X15073206Y-11604531D02*
X15082729Y-11595008D01*
X15082729Y-11595008D02*
X15101777Y-11585484D01*
X15101777Y-11585484D02*
X15149396Y-11585484D01*
X15149396Y-11585484D02*
X15168444Y-11595008D01*
X15168444Y-11595008D02*
X15177967Y-11604531D01*
X15177967Y-11604531D02*
X15187491Y-11623579D01*
X15187491Y-11623579D02*
X15187491Y-11642627D01*
X15187491Y-11642627D02*
X15177967Y-11671198D01*
X15177967Y-11671198D02*
X15063682Y-11785484D01*
X15063682Y-11785484D02*
X15187491Y-11785484D01*
X15358920Y-11585484D02*
X15320825Y-11585484D01*
X15320825Y-11585484D02*
X15301777Y-11595008D01*
X15301777Y-11595008D02*
X15292253Y-11604531D01*
X15292253Y-11604531D02*
X15273206Y-11633103D01*
X15273206Y-11633103D02*
X15263682Y-11671198D01*
X15263682Y-11671198D02*
X15263682Y-11747388D01*
X15263682Y-11747388D02*
X15273206Y-11766436D01*
X15273206Y-11766436D02*
X15282729Y-11775960D01*
X15282729Y-11775960D02*
X15301777Y-11785484D01*
X15301777Y-11785484D02*
X15339872Y-11785484D01*
X15339872Y-11785484D02*
X15358920Y-11775960D01*
X15358920Y-11775960D02*
X15368444Y-11766436D01*
X15368444Y-11766436D02*
X15377967Y-11747388D01*
X15377967Y-11747388D02*
X15377967Y-11699769D01*
X15377967Y-11699769D02*
X15368444Y-11680722D01*
X15368444Y-11680722D02*
X15358920Y-11671198D01*
X15358920Y-11671198D02*
X15339872Y-11661674D01*
X15339872Y-11661674D02*
X15301777Y-11661674D01*
X15301777Y-11661674D02*
X15282729Y-11671198D01*
X15282729Y-11671198D02*
X15273206Y-11680722D01*
X15273206Y-11680722D02*
X15263682Y-11699769D01*
X15501777Y-11585484D02*
X15520825Y-11585484D01*
X15520825Y-11585484D02*
X15539872Y-11595008D01*
X15539872Y-11595008D02*
X15549396Y-11604531D01*
X15549396Y-11604531D02*
X15558920Y-11623579D01*
X15558920Y-11623579D02*
X15568444Y-11661674D01*
X15568444Y-11661674D02*
X15568444Y-11709293D01*
X15568444Y-11709293D02*
X15558920Y-11747388D01*
X15558920Y-11747388D02*
X15549396Y-11766436D01*
X15549396Y-11766436D02*
X15539872Y-11775960D01*
X15539872Y-11775960D02*
X15520825Y-11785484D01*
X15520825Y-11785484D02*
X15501777Y-11785484D01*
X15501777Y-11785484D02*
X15482729Y-11775960D01*
X15482729Y-11775960D02*
X15473206Y-11766436D01*
X15473206Y-11766436D02*
X15463682Y-11747388D01*
X15463682Y-11747388D02*
X15454158Y-11709293D01*
X15454158Y-11709293D02*
X15454158Y-11661674D01*
X15454158Y-11661674D02*
X15463682Y-11623579D01*
X15463682Y-11623579D02*
X15473206Y-11604531D01*
X15473206Y-11604531D02*
X15482729Y-11595008D01*
X15482729Y-11595008D02*
X15501777Y-11585484D01*
X15644634Y-11585484D02*
X15644634Y-11623579D01*
X15720825Y-11585484D02*
X15720825Y-11623579D01*
X16016063Y-11861674D02*
X16006539Y-11852150D01*
X16006539Y-11852150D02*
X15987491Y-11823579D01*
X15987491Y-11823579D02*
X15977968Y-11804531D01*
X15977968Y-11804531D02*
X15968444Y-11775960D01*
X15968444Y-11775960D02*
X15958920Y-11728341D01*
X15958920Y-11728341D02*
X15958920Y-11690246D01*
X15958920Y-11690246D02*
X15968444Y-11642627D01*
X15968444Y-11642627D02*
X15977968Y-11614055D01*
X15977968Y-11614055D02*
X15987491Y-11595008D01*
X15987491Y-11595008D02*
X16006539Y-11566436D01*
X16006539Y-11566436D02*
X16016063Y-11556912D01*
X16177968Y-11652150D02*
X16177968Y-11785484D01*
X16130348Y-11575960D02*
X16082729Y-11718817D01*
X16082729Y-11718817D02*
X16206539Y-11718817D01*
X16435110Y-11785484D02*
X16435110Y-11585484D01*
X16520825Y-11785484D02*
X16520825Y-11680722D01*
X16520825Y-11680722D02*
X16511301Y-11661674D01*
X16511301Y-11661674D02*
X16492253Y-11652150D01*
X16492253Y-11652150D02*
X16463682Y-11652150D01*
X16463682Y-11652150D02*
X16444634Y-11661674D01*
X16444634Y-11661674D02*
X16435110Y-11671198D01*
X16644634Y-11785484D02*
X16625587Y-11775960D01*
X16625587Y-11775960D02*
X16616063Y-11766436D01*
X16616063Y-11766436D02*
X16606539Y-11747388D01*
X16606539Y-11747388D02*
X16606539Y-11690246D01*
X16606539Y-11690246D02*
X16616063Y-11671198D01*
X16616063Y-11671198D02*
X16625587Y-11661674D01*
X16625587Y-11661674D02*
X16644634Y-11652150D01*
X16644634Y-11652150D02*
X16673206Y-11652150D01*
X16673206Y-11652150D02*
X16692253Y-11661674D01*
X16692253Y-11661674D02*
X16701777Y-11671198D01*
X16701777Y-11671198D02*
X16711301Y-11690246D01*
X16711301Y-11690246D02*
X16711301Y-11747388D01*
X16711301Y-11747388D02*
X16701777Y-11766436D01*
X16701777Y-11766436D02*
X16692253Y-11775960D01*
X16692253Y-11775960D02*
X16673206Y-11785484D01*
X16673206Y-11785484D02*
X16644634Y-11785484D01*
X16825587Y-11785484D02*
X16806539Y-11775960D01*
X16806539Y-11775960D02*
X16797015Y-11756912D01*
X16797015Y-11756912D02*
X16797015Y-11585484D01*
X16977968Y-11775960D02*
X16958920Y-11785484D01*
X16958920Y-11785484D02*
X16920825Y-11785484D01*
X16920825Y-11785484D02*
X16901777Y-11775960D01*
X16901777Y-11775960D02*
X16892253Y-11756912D01*
X16892253Y-11756912D02*
X16892253Y-11680722D01*
X16892253Y-11680722D02*
X16901777Y-11661674D01*
X16901777Y-11661674D02*
X16920825Y-11652150D01*
X16920825Y-11652150D02*
X16958920Y-11652150D01*
X16958920Y-11652150D02*
X16977968Y-11661674D01*
X16977968Y-11661674D02*
X16987492Y-11680722D01*
X16987492Y-11680722D02*
X16987492Y-11699769D01*
X16987492Y-11699769D02*
X16892253Y-11718817D01*
X17063682Y-11775960D02*
X17082730Y-11785484D01*
X17082730Y-11785484D02*
X17120825Y-11785484D01*
X17120825Y-11785484D02*
X17139873Y-11775960D01*
X17139873Y-11775960D02*
X17149396Y-11756912D01*
X17149396Y-11756912D02*
X17149396Y-11747388D01*
X17149396Y-11747388D02*
X17139873Y-11728341D01*
X17139873Y-11728341D02*
X17120825Y-11718817D01*
X17120825Y-11718817D02*
X17092253Y-11718817D01*
X17092253Y-11718817D02*
X17073206Y-11709293D01*
X17073206Y-11709293D02*
X17063682Y-11690246D01*
X17063682Y-11690246D02*
X17063682Y-11680722D01*
X17063682Y-11680722D02*
X17073206Y-11661674D01*
X17073206Y-11661674D02*
X17092253Y-11652150D01*
X17092253Y-11652150D02*
X17120825Y-11652150D01*
X17120825Y-11652150D02*
X17139873Y-11661674D01*
X17216063Y-11861674D02*
X17225587Y-11852150D01*
X17225587Y-11852150D02*
X17244634Y-11823579D01*
X17244634Y-11823579D02*
X17254158Y-11804531D01*
X17254158Y-11804531D02*
X17263682Y-11775960D01*
X17263682Y-11775960D02*
X17273206Y-11728341D01*
X17273206Y-11728341D02*
X17273206Y-11690246D01*
X17273206Y-11690246D02*
X17263682Y-11642627D01*
X17263682Y-11642627D02*
X17254158Y-11614055D01*
X17254158Y-11614055D02*
X17244634Y-11595008D01*
X17244634Y-11595008D02*
X17225587Y-11566436D01*
X17225587Y-11566436D02*
X17216063Y-11556912D01*
X17577968Y-11861674D02*
X17568444Y-11852150D01*
X17568444Y-11852150D02*
X17549396Y-11823579D01*
X17549396Y-11823579D02*
X17539873Y-11804531D01*
X17539873Y-11804531D02*
X17530349Y-11775960D01*
X17530349Y-11775960D02*
X17520825Y-11728341D01*
X17520825Y-11728341D02*
X17520825Y-11690246D01*
X17520825Y-11690246D02*
X17530349Y-11642627D01*
X17530349Y-11642627D02*
X17539873Y-11614055D01*
X17539873Y-11614055D02*
X17549396Y-11595008D01*
X17549396Y-11595008D02*
X17568444Y-11566436D01*
X17568444Y-11566436D02*
X17577968Y-11556912D01*
X17654158Y-11652150D02*
X17654158Y-11785484D01*
X17654158Y-11671198D02*
X17663682Y-11661674D01*
X17663682Y-11661674D02*
X17682730Y-11652150D01*
X17682730Y-11652150D02*
X17711301Y-11652150D01*
X17711301Y-11652150D02*
X17730349Y-11661674D01*
X17730349Y-11661674D02*
X17739873Y-11680722D01*
X17739873Y-11680722D02*
X17739873Y-11785484D01*
X17863682Y-11785484D02*
X17844634Y-11775960D01*
X17844634Y-11775960D02*
X17835111Y-11766436D01*
X17835111Y-11766436D02*
X17825587Y-11747388D01*
X17825587Y-11747388D02*
X17825587Y-11690246D01*
X17825587Y-11690246D02*
X17835111Y-11671198D01*
X17835111Y-11671198D02*
X17844634Y-11661674D01*
X17844634Y-11661674D02*
X17863682Y-11652150D01*
X17863682Y-11652150D02*
X17892254Y-11652150D01*
X17892254Y-11652150D02*
X17911301Y-11661674D01*
X17911301Y-11661674D02*
X17920825Y-11671198D01*
X17920825Y-11671198D02*
X17930349Y-11690246D01*
X17930349Y-11690246D02*
X17930349Y-11747388D01*
X17930349Y-11747388D02*
X17920825Y-11766436D01*
X17920825Y-11766436D02*
X17911301Y-11775960D01*
X17911301Y-11775960D02*
X17892254Y-11785484D01*
X17892254Y-11785484D02*
X17863682Y-11785484D01*
X17987492Y-11652150D02*
X18063682Y-11652150D01*
X18016063Y-11585484D02*
X18016063Y-11756912D01*
X18016063Y-11756912D02*
X18025587Y-11775960D01*
X18025587Y-11775960D02*
X18044634Y-11785484D01*
X18044634Y-11785484D02*
X18063682Y-11785484D01*
X18282730Y-11652150D02*
X18282730Y-11852150D01*
X18282730Y-11661674D02*
X18301777Y-11652150D01*
X18301777Y-11652150D02*
X18339873Y-11652150D01*
X18339873Y-11652150D02*
X18358920Y-11661674D01*
X18358920Y-11661674D02*
X18368444Y-11671198D01*
X18368444Y-11671198D02*
X18377968Y-11690246D01*
X18377968Y-11690246D02*
X18377968Y-11747388D01*
X18377968Y-11747388D02*
X18368444Y-11766436D01*
X18368444Y-11766436D02*
X18358920Y-11775960D01*
X18358920Y-11775960D02*
X18339873Y-11785484D01*
X18339873Y-11785484D02*
X18301777Y-11785484D01*
X18301777Y-11785484D02*
X18282730Y-11775960D01*
X18492254Y-11785484D02*
X18473206Y-11775960D01*
X18473206Y-11775960D02*
X18463682Y-11756912D01*
X18463682Y-11756912D02*
X18463682Y-11585484D01*
X18654158Y-11785484D02*
X18654158Y-11680722D01*
X18654158Y-11680722D02*
X18644635Y-11661674D01*
X18644635Y-11661674D02*
X18625587Y-11652150D01*
X18625587Y-11652150D02*
X18587492Y-11652150D01*
X18587492Y-11652150D02*
X18568444Y-11661674D01*
X18654158Y-11775960D02*
X18635111Y-11785484D01*
X18635111Y-11785484D02*
X18587492Y-11785484D01*
X18587492Y-11785484D02*
X18568444Y-11775960D01*
X18568444Y-11775960D02*
X18558920Y-11756912D01*
X18558920Y-11756912D02*
X18558920Y-11737865D01*
X18558920Y-11737865D02*
X18568444Y-11718817D01*
X18568444Y-11718817D02*
X18587492Y-11709293D01*
X18587492Y-11709293D02*
X18635111Y-11709293D01*
X18635111Y-11709293D02*
X18654158Y-11699769D01*
X18720825Y-11652150D02*
X18797015Y-11652150D01*
X18749396Y-11585484D02*
X18749396Y-11756912D01*
X18749396Y-11756912D02*
X18758920Y-11775960D01*
X18758920Y-11775960D02*
X18777968Y-11785484D01*
X18777968Y-11785484D02*
X18797015Y-11785484D01*
X18939873Y-11775960D02*
X18920825Y-11785484D01*
X18920825Y-11785484D02*
X18882730Y-11785484D01*
X18882730Y-11785484D02*
X18863682Y-11775960D01*
X18863682Y-11775960D02*
X18854158Y-11756912D01*
X18854158Y-11756912D02*
X18854158Y-11680722D01*
X18854158Y-11680722D02*
X18863682Y-11661674D01*
X18863682Y-11661674D02*
X18882730Y-11652150D01*
X18882730Y-11652150D02*
X18920825Y-11652150D01*
X18920825Y-11652150D02*
X18939873Y-11661674D01*
X18939873Y-11661674D02*
X18949396Y-11680722D01*
X18949396Y-11680722D02*
X18949396Y-11699769D01*
X18949396Y-11699769D02*
X18854158Y-11718817D01*
X19120825Y-11785484D02*
X19120825Y-11585484D01*
X19120825Y-11775960D02*
X19101777Y-11785484D01*
X19101777Y-11785484D02*
X19063682Y-11785484D01*
X19063682Y-11785484D02*
X19044635Y-11775960D01*
X19044635Y-11775960D02*
X19035111Y-11766436D01*
X19035111Y-11766436D02*
X19025587Y-11747388D01*
X19025587Y-11747388D02*
X19025587Y-11690246D01*
X19025587Y-11690246D02*
X19035111Y-11671198D01*
X19035111Y-11671198D02*
X19044635Y-11661674D01*
X19044635Y-11661674D02*
X19063682Y-11652150D01*
X19063682Y-11652150D02*
X19101777Y-11652150D01*
X19101777Y-11652150D02*
X19120825Y-11661674D01*
X19197016Y-11861674D02*
X19206539Y-11852150D01*
X19206539Y-11852150D02*
X19225587Y-11823579D01*
X19225587Y-11823579D02*
X19235111Y-11804531D01*
X19235111Y-11804531D02*
X19244635Y-11775960D01*
X19244635Y-11775960D02*
X19254158Y-11728341D01*
X19254158Y-11728341D02*
X19254158Y-11690246D01*
X19254158Y-11690246D02*
X19244635Y-11642627D01*
X19244635Y-11642627D02*
X19235111Y-11614055D01*
X19235111Y-11614055D02*
X19225587Y-11595008D01*
X19225587Y-11595008D02*
X19206539Y-11566436D01*
X19206539Y-11566436D02*
X19197016Y-11556912D01*
X12441000Y-12014000D02*
G75*
G02*
X12241000Y-12014000I-100000J0D01*
G01*
X12241000Y-12014000D02*
G75*
G02*
X12441000Y-12014000I100000J0D01*
G01*
X12682729Y-11905484D02*
X12806539Y-11905484D01*
X12806539Y-11905484D02*
X12739872Y-11981674D01*
X12739872Y-11981674D02*
X12768443Y-11981674D01*
X12768443Y-11981674D02*
X12787491Y-11991198D01*
X12787491Y-11991198D02*
X12797015Y-12000722D01*
X12797015Y-12000722D02*
X12806539Y-12019769D01*
X12806539Y-12019769D02*
X12806539Y-12067388D01*
X12806539Y-12067388D02*
X12797015Y-12086436D01*
X12797015Y-12086436D02*
X12787491Y-12095960D01*
X12787491Y-12095960D02*
X12768443Y-12105484D01*
X12768443Y-12105484D02*
X12711301Y-12105484D01*
X12711301Y-12105484D02*
X12692253Y-12095960D01*
X12692253Y-12095960D02*
X12682729Y-12086436D01*
X12892253Y-12086436D02*
X12901777Y-12095960D01*
X12901777Y-12095960D02*
X12892253Y-12105484D01*
X12892253Y-12105484D02*
X12882729Y-12095960D01*
X12882729Y-12095960D02*
X12892253Y-12086436D01*
X12892253Y-12086436D02*
X12892253Y-12105484D01*
X12968443Y-11905484D02*
X13092253Y-11905484D01*
X13092253Y-11905484D02*
X13025586Y-11981674D01*
X13025586Y-11981674D02*
X13054158Y-11981674D01*
X13054158Y-11981674D02*
X13073205Y-11991198D01*
X13073205Y-11991198D02*
X13082729Y-12000722D01*
X13082729Y-12000722D02*
X13092253Y-12019769D01*
X13092253Y-12019769D02*
X13092253Y-12067388D01*
X13092253Y-12067388D02*
X13082729Y-12086436D01*
X13082729Y-12086436D02*
X13073205Y-12095960D01*
X13073205Y-12095960D02*
X13054158Y-12105484D01*
X13054158Y-12105484D02*
X12997015Y-12105484D01*
X12997015Y-12105484D02*
X12977967Y-12095960D01*
X12977967Y-12095960D02*
X12968443Y-12086436D01*
X13216062Y-11905484D02*
X13235110Y-11905484D01*
X13235110Y-11905484D02*
X13254158Y-11915008D01*
X13254158Y-11915008D02*
X13263682Y-11924531D01*
X13263682Y-11924531D02*
X13273205Y-11943579D01*
X13273205Y-11943579D02*
X13282729Y-11981674D01*
X13282729Y-11981674D02*
X13282729Y-12029293D01*
X13282729Y-12029293D02*
X13273205Y-12067388D01*
X13273205Y-12067388D02*
X13263682Y-12086436D01*
X13263682Y-12086436D02*
X13254158Y-12095960D01*
X13254158Y-12095960D02*
X13235110Y-12105484D01*
X13235110Y-12105484D02*
X13216062Y-12105484D01*
X13216062Y-12105484D02*
X13197015Y-12095960D01*
X13197015Y-12095960D02*
X13187491Y-12086436D01*
X13187491Y-12086436D02*
X13177967Y-12067388D01*
X13177967Y-12067388D02*
X13168443Y-12029293D01*
X13168443Y-12029293D02*
X13168443Y-11981674D01*
X13168443Y-11981674D02*
X13177967Y-11943579D01*
X13177967Y-11943579D02*
X13187491Y-11924531D01*
X13187491Y-11924531D02*
X13197015Y-11915008D01*
X13197015Y-11915008D02*
X13216062Y-11905484D01*
X13406539Y-11905484D02*
X13425586Y-11905484D01*
X13425586Y-11905484D02*
X13444634Y-11915008D01*
X13444634Y-11915008D02*
X13454158Y-11924531D01*
X13454158Y-11924531D02*
X13463682Y-11943579D01*
X13463682Y-11943579D02*
X13473205Y-11981674D01*
X13473205Y-11981674D02*
X13473205Y-12029293D01*
X13473205Y-12029293D02*
X13463682Y-12067388D01*
X13463682Y-12067388D02*
X13454158Y-12086436D01*
X13454158Y-12086436D02*
X13444634Y-12095960D01*
X13444634Y-12095960D02*
X13425586Y-12105484D01*
X13425586Y-12105484D02*
X13406539Y-12105484D01*
X13406539Y-12105484D02*
X13387491Y-12095960D01*
X13387491Y-12095960D02*
X13377967Y-12086436D01*
X13377967Y-12086436D02*
X13368443Y-12067388D01*
X13368443Y-12067388D02*
X13358920Y-12029293D01*
X13358920Y-12029293D02*
X13358920Y-11981674D01*
X13358920Y-11981674D02*
X13368443Y-11943579D01*
X13368443Y-11943579D02*
X13377967Y-11924531D01*
X13377967Y-11924531D02*
X13387491Y-11915008D01*
X13387491Y-11915008D02*
X13406539Y-11905484D01*
X13558920Y-12105484D02*
X13558920Y-11972150D01*
X13558920Y-11991198D02*
X13568443Y-11981674D01*
X13568443Y-11981674D02*
X13587491Y-11972150D01*
X13587491Y-11972150D02*
X13616063Y-11972150D01*
X13616063Y-11972150D02*
X13635110Y-11981674D01*
X13635110Y-11981674D02*
X13644634Y-12000722D01*
X13644634Y-12000722D02*
X13644634Y-12105484D01*
X13644634Y-12000722D02*
X13654158Y-11981674D01*
X13654158Y-11981674D02*
X13673205Y-11972150D01*
X13673205Y-11972150D02*
X13701777Y-11972150D01*
X13701777Y-11972150D02*
X13720824Y-11981674D01*
X13720824Y-11981674D02*
X13730348Y-12000722D01*
X13730348Y-12000722D02*
X13730348Y-12105484D01*
X13825586Y-12105484D02*
X13825586Y-11972150D01*
X13825586Y-11991198D02*
X13835110Y-11981674D01*
X13835110Y-11981674D02*
X13854158Y-11972150D01*
X13854158Y-11972150D02*
X13882729Y-11972150D01*
X13882729Y-11972150D02*
X13901777Y-11981674D01*
X13901777Y-11981674D02*
X13911301Y-12000722D01*
X13911301Y-12000722D02*
X13911301Y-12105484D01*
X13911301Y-12000722D02*
X13920824Y-11981674D01*
X13920824Y-11981674D02*
X13939872Y-11972150D01*
X13939872Y-11972150D02*
X13968443Y-11972150D01*
X13968443Y-11972150D02*
X13987491Y-11981674D01*
X13987491Y-11981674D02*
X13997015Y-12000722D01*
X13997015Y-12000722D02*
X13997015Y-12105484D01*
X14387491Y-11895960D02*
X14216063Y-12153103D01*
X14644634Y-11905484D02*
X14663682Y-11905484D01*
X14663682Y-11905484D02*
X14682729Y-11915008D01*
X14682729Y-11915008D02*
X14692253Y-11924531D01*
X14692253Y-11924531D02*
X14701777Y-11943579D01*
X14701777Y-11943579D02*
X14711301Y-11981674D01*
X14711301Y-11981674D02*
X14711301Y-12029293D01*
X14711301Y-12029293D02*
X14701777Y-12067388D01*
X14701777Y-12067388D02*
X14692253Y-12086436D01*
X14692253Y-12086436D02*
X14682729Y-12095960D01*
X14682729Y-12095960D02*
X14663682Y-12105484D01*
X14663682Y-12105484D02*
X14644634Y-12105484D01*
X14644634Y-12105484D02*
X14625586Y-12095960D01*
X14625586Y-12095960D02*
X14616063Y-12086436D01*
X14616063Y-12086436D02*
X14606539Y-12067388D01*
X14606539Y-12067388D02*
X14597015Y-12029293D01*
X14597015Y-12029293D02*
X14597015Y-11981674D01*
X14597015Y-11981674D02*
X14606539Y-11943579D01*
X14606539Y-11943579D02*
X14616063Y-11924531D01*
X14616063Y-11924531D02*
X14625586Y-11915008D01*
X14625586Y-11915008D02*
X14644634Y-11905484D01*
X14797015Y-12086436D02*
X14806539Y-12095960D01*
X14806539Y-12095960D02*
X14797015Y-12105484D01*
X14797015Y-12105484D02*
X14787491Y-12095960D01*
X14787491Y-12095960D02*
X14797015Y-12086436D01*
X14797015Y-12086436D02*
X14797015Y-12105484D01*
X14997015Y-12105484D02*
X14882729Y-12105484D01*
X14939872Y-12105484D02*
X14939872Y-11905484D01*
X14939872Y-11905484D02*
X14920825Y-11934055D01*
X14920825Y-11934055D02*
X14901777Y-11953103D01*
X14901777Y-11953103D02*
X14882729Y-11962627D01*
X15073206Y-11924531D02*
X15082729Y-11915008D01*
X15082729Y-11915008D02*
X15101777Y-11905484D01*
X15101777Y-11905484D02*
X15149396Y-11905484D01*
X15149396Y-11905484D02*
X15168444Y-11915008D01*
X15168444Y-11915008D02*
X15177967Y-11924531D01*
X15177967Y-11924531D02*
X15187491Y-11943579D01*
X15187491Y-11943579D02*
X15187491Y-11962627D01*
X15187491Y-11962627D02*
X15177967Y-11991198D01*
X15177967Y-11991198D02*
X15063682Y-12105484D01*
X15063682Y-12105484D02*
X15187491Y-12105484D01*
X15282729Y-12105484D02*
X15320825Y-12105484D01*
X15320825Y-12105484D02*
X15339872Y-12095960D01*
X15339872Y-12095960D02*
X15349396Y-12086436D01*
X15349396Y-12086436D02*
X15368444Y-12057865D01*
X15368444Y-12057865D02*
X15377967Y-12019769D01*
X15377967Y-12019769D02*
X15377967Y-11943579D01*
X15377967Y-11943579D02*
X15368444Y-11924531D01*
X15368444Y-11924531D02*
X15358920Y-11915008D01*
X15358920Y-11915008D02*
X15339872Y-11905484D01*
X15339872Y-11905484D02*
X15301777Y-11905484D01*
X15301777Y-11905484D02*
X15282729Y-11915008D01*
X15282729Y-11915008D02*
X15273206Y-11924531D01*
X15273206Y-11924531D02*
X15263682Y-11943579D01*
X15263682Y-11943579D02*
X15263682Y-11991198D01*
X15263682Y-11991198D02*
X15273206Y-12010246D01*
X15273206Y-12010246D02*
X15282729Y-12019769D01*
X15282729Y-12019769D02*
X15301777Y-12029293D01*
X15301777Y-12029293D02*
X15339872Y-12029293D01*
X15339872Y-12029293D02*
X15358920Y-12019769D01*
X15358920Y-12019769D02*
X15368444Y-12010246D01*
X15368444Y-12010246D02*
X15377967Y-11991198D01*
X15473206Y-12105484D02*
X15511301Y-12105484D01*
X15511301Y-12105484D02*
X15530348Y-12095960D01*
X15530348Y-12095960D02*
X15539872Y-12086436D01*
X15539872Y-12086436D02*
X15558920Y-12057865D01*
X15558920Y-12057865D02*
X15568444Y-12019769D01*
X15568444Y-12019769D02*
X15568444Y-11943579D01*
X15568444Y-11943579D02*
X15558920Y-11924531D01*
X15558920Y-11924531D02*
X15549396Y-11915008D01*
X15549396Y-11915008D02*
X15530348Y-11905484D01*
X15530348Y-11905484D02*
X15492253Y-11905484D01*
X15492253Y-11905484D02*
X15473206Y-11915008D01*
X15473206Y-11915008D02*
X15463682Y-11924531D01*
X15463682Y-11924531D02*
X15454158Y-11943579D01*
X15454158Y-11943579D02*
X15454158Y-11991198D01*
X15454158Y-11991198D02*
X15463682Y-12010246D01*
X15463682Y-12010246D02*
X15473206Y-12019769D01*
X15473206Y-12019769D02*
X15492253Y-12029293D01*
X15492253Y-12029293D02*
X15530348Y-12029293D01*
X15530348Y-12029293D02*
X15549396Y-12019769D01*
X15549396Y-12019769D02*
X15558920Y-12010246D01*
X15558920Y-12010246D02*
X15568444Y-11991198D01*
X15644634Y-11905484D02*
X15644634Y-11943579D01*
X15720825Y-11905484D02*
X15720825Y-11943579D01*
X16016063Y-12181674D02*
X16006539Y-12172150D01*
X16006539Y-12172150D02*
X15987491Y-12143579D01*
X15987491Y-12143579D02*
X15977968Y-12124531D01*
X15977968Y-12124531D02*
X15968444Y-12095960D01*
X15968444Y-12095960D02*
X15958920Y-12048341D01*
X15958920Y-12048341D02*
X15958920Y-12010246D01*
X15958920Y-12010246D02*
X15968444Y-11962627D01*
X15968444Y-11962627D02*
X15977968Y-11934055D01*
X15977968Y-11934055D02*
X15987491Y-11915008D01*
X15987491Y-11915008D02*
X16006539Y-11886436D01*
X16006539Y-11886436D02*
X16016063Y-11876912D01*
X16082729Y-11924531D02*
X16092253Y-11915008D01*
X16092253Y-11915008D02*
X16111301Y-11905484D01*
X16111301Y-11905484D02*
X16158920Y-11905484D01*
X16158920Y-11905484D02*
X16177968Y-11915008D01*
X16177968Y-11915008D02*
X16187491Y-11924531D01*
X16187491Y-11924531D02*
X16197015Y-11943579D01*
X16197015Y-11943579D02*
X16197015Y-11962627D01*
X16197015Y-11962627D02*
X16187491Y-11991198D01*
X16187491Y-11991198D02*
X16073206Y-12105484D01*
X16073206Y-12105484D02*
X16197015Y-12105484D01*
X16435110Y-12105484D02*
X16435110Y-11905484D01*
X16520825Y-12105484D02*
X16520825Y-12000722D01*
X16520825Y-12000722D02*
X16511301Y-11981674D01*
X16511301Y-11981674D02*
X16492253Y-11972150D01*
X16492253Y-11972150D02*
X16463682Y-11972150D01*
X16463682Y-11972150D02*
X16444634Y-11981674D01*
X16444634Y-11981674D02*
X16435110Y-11991198D01*
X16644634Y-12105484D02*
X16625587Y-12095960D01*
X16625587Y-12095960D02*
X16616063Y-12086436D01*
X16616063Y-12086436D02*
X16606539Y-12067388D01*
X16606539Y-12067388D02*
X16606539Y-12010246D01*
X16606539Y-12010246D02*
X16616063Y-11991198D01*
X16616063Y-11991198D02*
X16625587Y-11981674D01*
X16625587Y-11981674D02*
X16644634Y-11972150D01*
X16644634Y-11972150D02*
X16673206Y-11972150D01*
X16673206Y-11972150D02*
X16692253Y-11981674D01*
X16692253Y-11981674D02*
X16701777Y-11991198D01*
X16701777Y-11991198D02*
X16711301Y-12010246D01*
X16711301Y-12010246D02*
X16711301Y-12067388D01*
X16711301Y-12067388D02*
X16701777Y-12086436D01*
X16701777Y-12086436D02*
X16692253Y-12095960D01*
X16692253Y-12095960D02*
X16673206Y-12105484D01*
X16673206Y-12105484D02*
X16644634Y-12105484D01*
X16825587Y-12105484D02*
X16806539Y-12095960D01*
X16806539Y-12095960D02*
X16797015Y-12076912D01*
X16797015Y-12076912D02*
X16797015Y-11905484D01*
X16977968Y-12095960D02*
X16958920Y-12105484D01*
X16958920Y-12105484D02*
X16920825Y-12105484D01*
X16920825Y-12105484D02*
X16901777Y-12095960D01*
X16901777Y-12095960D02*
X16892253Y-12076912D01*
X16892253Y-12076912D02*
X16892253Y-12000722D01*
X16892253Y-12000722D02*
X16901777Y-11981674D01*
X16901777Y-11981674D02*
X16920825Y-11972150D01*
X16920825Y-11972150D02*
X16958920Y-11972150D01*
X16958920Y-11972150D02*
X16977968Y-11981674D01*
X16977968Y-11981674D02*
X16987492Y-12000722D01*
X16987492Y-12000722D02*
X16987492Y-12019769D01*
X16987492Y-12019769D02*
X16892253Y-12038817D01*
X17063682Y-12095960D02*
X17082730Y-12105484D01*
X17082730Y-12105484D02*
X17120825Y-12105484D01*
X17120825Y-12105484D02*
X17139873Y-12095960D01*
X17139873Y-12095960D02*
X17149396Y-12076912D01*
X17149396Y-12076912D02*
X17149396Y-12067388D01*
X17149396Y-12067388D02*
X17139873Y-12048341D01*
X17139873Y-12048341D02*
X17120825Y-12038817D01*
X17120825Y-12038817D02*
X17092253Y-12038817D01*
X17092253Y-12038817D02*
X17073206Y-12029293D01*
X17073206Y-12029293D02*
X17063682Y-12010246D01*
X17063682Y-12010246D02*
X17063682Y-12000722D01*
X17063682Y-12000722D02*
X17073206Y-11981674D01*
X17073206Y-11981674D02*
X17092253Y-11972150D01*
X17092253Y-11972150D02*
X17120825Y-11972150D01*
X17120825Y-11972150D02*
X17139873Y-11981674D01*
X17216063Y-12181674D02*
X17225587Y-12172150D01*
X17225587Y-12172150D02*
X17244634Y-12143579D01*
X17244634Y-12143579D02*
X17254158Y-12124531D01*
X17254158Y-12124531D02*
X17263682Y-12095960D01*
X17263682Y-12095960D02*
X17273206Y-12048341D01*
X17273206Y-12048341D02*
X17273206Y-12010246D01*
X17273206Y-12010246D02*
X17263682Y-11962627D01*
X17263682Y-11962627D02*
X17254158Y-11934055D01*
X17254158Y-11934055D02*
X17244634Y-11915008D01*
X17244634Y-11915008D02*
X17225587Y-11886436D01*
X17225587Y-11886436D02*
X17216063Y-11876912D01*
X17577968Y-12181674D02*
X17568444Y-12172150D01*
X17568444Y-12172150D02*
X17549396Y-12143579D01*
X17549396Y-12143579D02*
X17539873Y-12124531D01*
X17539873Y-12124531D02*
X17530349Y-12095960D01*
X17530349Y-12095960D02*
X17520825Y-12048341D01*
X17520825Y-12048341D02*
X17520825Y-12010246D01*
X17520825Y-12010246D02*
X17530349Y-11962627D01*
X17530349Y-11962627D02*
X17539873Y-11934055D01*
X17539873Y-11934055D02*
X17549396Y-11915008D01*
X17549396Y-11915008D02*
X17568444Y-11886436D01*
X17568444Y-11886436D02*
X17577968Y-11876912D01*
X17654158Y-11972150D02*
X17654158Y-12105484D01*
X17654158Y-11991198D02*
X17663682Y-11981674D01*
X17663682Y-11981674D02*
X17682730Y-11972150D01*
X17682730Y-11972150D02*
X17711301Y-11972150D01*
X17711301Y-11972150D02*
X17730349Y-11981674D01*
X17730349Y-11981674D02*
X17739873Y-12000722D01*
X17739873Y-12000722D02*
X17739873Y-12105484D01*
X17863682Y-12105484D02*
X17844634Y-12095960D01*
X17844634Y-12095960D02*
X17835111Y-12086436D01*
X17835111Y-12086436D02*
X17825587Y-12067388D01*
X17825587Y-12067388D02*
X17825587Y-12010246D01*
X17825587Y-12010246D02*
X17835111Y-11991198D01*
X17835111Y-11991198D02*
X17844634Y-11981674D01*
X17844634Y-11981674D02*
X17863682Y-11972150D01*
X17863682Y-11972150D02*
X17892254Y-11972150D01*
X17892254Y-11972150D02*
X17911301Y-11981674D01*
X17911301Y-11981674D02*
X17920825Y-11991198D01*
X17920825Y-11991198D02*
X17930349Y-12010246D01*
X17930349Y-12010246D02*
X17930349Y-12067388D01*
X17930349Y-12067388D02*
X17920825Y-12086436D01*
X17920825Y-12086436D02*
X17911301Y-12095960D01*
X17911301Y-12095960D02*
X17892254Y-12105484D01*
X17892254Y-12105484D02*
X17863682Y-12105484D01*
X17987492Y-11972150D02*
X18063682Y-11972150D01*
X18016063Y-11905484D02*
X18016063Y-12076912D01*
X18016063Y-12076912D02*
X18025587Y-12095960D01*
X18025587Y-12095960D02*
X18044634Y-12105484D01*
X18044634Y-12105484D02*
X18063682Y-12105484D01*
X18282730Y-11972150D02*
X18282730Y-12172150D01*
X18282730Y-11981674D02*
X18301777Y-11972150D01*
X18301777Y-11972150D02*
X18339873Y-11972150D01*
X18339873Y-11972150D02*
X18358920Y-11981674D01*
X18358920Y-11981674D02*
X18368444Y-11991198D01*
X18368444Y-11991198D02*
X18377968Y-12010246D01*
X18377968Y-12010246D02*
X18377968Y-12067388D01*
X18377968Y-12067388D02*
X18368444Y-12086436D01*
X18368444Y-12086436D02*
X18358920Y-12095960D01*
X18358920Y-12095960D02*
X18339873Y-12105484D01*
X18339873Y-12105484D02*
X18301777Y-12105484D01*
X18301777Y-12105484D02*
X18282730Y-12095960D01*
X18492254Y-12105484D02*
X18473206Y-12095960D01*
X18473206Y-12095960D02*
X18463682Y-12076912D01*
X18463682Y-12076912D02*
X18463682Y-11905484D01*
X18654158Y-12105484D02*
X18654158Y-12000722D01*
X18654158Y-12000722D02*
X18644635Y-11981674D01*
X18644635Y-11981674D02*
X18625587Y-11972150D01*
X18625587Y-11972150D02*
X18587492Y-11972150D01*
X18587492Y-11972150D02*
X18568444Y-11981674D01*
X18654158Y-12095960D02*
X18635111Y-12105484D01*
X18635111Y-12105484D02*
X18587492Y-12105484D01*
X18587492Y-12105484D02*
X18568444Y-12095960D01*
X18568444Y-12095960D02*
X18558920Y-12076912D01*
X18558920Y-12076912D02*
X18558920Y-12057865D01*
X18558920Y-12057865D02*
X18568444Y-12038817D01*
X18568444Y-12038817D02*
X18587492Y-12029293D01*
X18587492Y-12029293D02*
X18635111Y-12029293D01*
X18635111Y-12029293D02*
X18654158Y-12019769D01*
X18720825Y-11972150D02*
X18797015Y-11972150D01*
X18749396Y-11905484D02*
X18749396Y-12076912D01*
X18749396Y-12076912D02*
X18758920Y-12095960D01*
X18758920Y-12095960D02*
X18777968Y-12105484D01*
X18777968Y-12105484D02*
X18797015Y-12105484D01*
X18939873Y-12095960D02*
X18920825Y-12105484D01*
X18920825Y-12105484D02*
X18882730Y-12105484D01*
X18882730Y-12105484D02*
X18863682Y-12095960D01*
X18863682Y-12095960D02*
X18854158Y-12076912D01*
X18854158Y-12076912D02*
X18854158Y-12000722D01*
X18854158Y-12000722D02*
X18863682Y-11981674D01*
X18863682Y-11981674D02*
X18882730Y-11972150D01*
X18882730Y-11972150D02*
X18920825Y-11972150D01*
X18920825Y-11972150D02*
X18939873Y-11981674D01*
X18939873Y-11981674D02*
X18949396Y-12000722D01*
X18949396Y-12000722D02*
X18949396Y-12019769D01*
X18949396Y-12019769D02*
X18854158Y-12038817D01*
X19120825Y-12105484D02*
X19120825Y-11905484D01*
X19120825Y-12095960D02*
X19101777Y-12105484D01*
X19101777Y-12105484D02*
X19063682Y-12105484D01*
X19063682Y-12105484D02*
X19044635Y-12095960D01*
X19044635Y-12095960D02*
X19035111Y-12086436D01*
X19035111Y-12086436D02*
X19025587Y-12067388D01*
X19025587Y-12067388D02*
X19025587Y-12010246D01*
X19025587Y-12010246D02*
X19035111Y-11991198D01*
X19035111Y-11991198D02*
X19044635Y-11981674D01*
X19044635Y-11981674D02*
X19063682Y-11972150D01*
X19063682Y-11972150D02*
X19101777Y-11972150D01*
X19101777Y-11972150D02*
X19120825Y-11981674D01*
X19197016Y-12181674D02*
X19206539Y-12172150D01*
X19206539Y-12172150D02*
X19225587Y-12143579D01*
X19225587Y-12143579D02*
X19235111Y-12124531D01*
X19235111Y-12124531D02*
X19244635Y-12095960D01*
X19244635Y-12095960D02*
X19254158Y-12048341D01*
X19254158Y-12048341D02*
X19254158Y-12010246D01*
X19254158Y-12010246D02*
X19244635Y-11962627D01*
X19244635Y-11962627D02*
X19235111Y-11934055D01*
X19235111Y-11934055D02*
X19225587Y-11915008D01*
X19225587Y-11915008D02*
X19206539Y-11886436D01*
X19206539Y-11886436D02*
X19197016Y-11876912D01*
M02*
