%TF.GenerationSoftware,KiCad,Pcbnew,8.0.2*%
%TF.CreationDate,2024-05-12T16:09:49+01:00*%
%TF.ProjectId,TelemetryCANBoard,54656c65-6d65-4747-9279-43414e426f61,rev?*%
%TF.SameCoordinates,Original*%
%TF.FileFunction,Copper,L1,Top*%
%TF.FilePolarity,Positive*%
%FSLAX46Y46*%
G04 Gerber Fmt 4.6, Leading zero omitted, Abs format (unit mm)*
G04 Created by KiCad (PCBNEW 8.0.2) date 2024-05-12 16:09:49*
%MOMM*%
%LPD*%
G01*
G04 APERTURE LIST*
G04 Aperture macros list*
%AMRoundRect*
0 Rectangle with rounded corners*
0 $1 Rounding radius*
0 $2 $3 $4 $5 $6 $7 $8 $9 X,Y pos of 4 corners*
0 Add a 4 corners polygon primitive as box body*
4,1,4,$2,$3,$4,$5,$6,$7,$8,$9,$2,$3,0*
0 Add four circle primitives for the rounded corners*
1,1,$1+$1,$2,$3*
1,1,$1+$1,$4,$5*
1,1,$1+$1,$6,$7*
1,1,$1+$1,$8,$9*
0 Add four rect primitives between the rounded corners*
20,1,$1+$1,$2,$3,$4,$5,0*
20,1,$1+$1,$4,$5,$6,$7,0*
20,1,$1+$1,$6,$7,$8,$9,0*
20,1,$1+$1,$8,$9,$2,$3,0*%
G04 Aperture macros list end*
%TA.AperFunction,ComponentPad*%
%ADD10C,1.600000*%
%TD*%
%TA.AperFunction,ComponentPad*%
%ADD11O,1.600000X1.600000*%
%TD*%
%TA.AperFunction,ComponentPad*%
%ADD12RoundRect,0.250000X0.725000X-0.600000X0.725000X0.600000X-0.725000X0.600000X-0.725000X-0.600000X0*%
%TD*%
%TA.AperFunction,ComponentPad*%
%ADD13O,1.950000X1.700000*%
%TD*%
%TA.AperFunction,ComponentPad*%
%ADD14R,1.600000X1.600000*%
%TD*%
%TA.AperFunction,ComponentPad*%
%ADD15C,3.000000*%
%TD*%
%TA.AperFunction,ComponentPad*%
%ADD16C,1.500000*%
%TD*%
%TA.AperFunction,ViaPad*%
%ADD17C,0.800000*%
%TD*%
%TA.AperFunction,Conductor*%
%ADD18C,0.250000*%
%TD*%
G04 APERTURE END LIST*
D10*
%TO.P,R1,1*%
%TO.N,Net-(U1-Rs)*%
X160020000Y-90170000D03*
D11*
%TO.P,R1,2*%
%TO.N,GND*%
X160020000Y-82550000D03*
%TD*%
D12*
%TO.P,J1,1,Pin_1*%
%TO.N,+5V*%
X177800000Y-98960000D03*
D13*
%TO.P,J1,2,Pin_2*%
%TO.N,/SPI_SCK*%
X177800000Y-96460000D03*
%TO.P,J1,3,Pin_3*%
%TO.N,/SPI_MOSI*%
X177800000Y-93960000D03*
%TO.P,J1,4,Pin_4*%
%TO.N,/SPI_MISO*%
X177800000Y-91460000D03*
%TO.P,J1,5,Pin_5*%
%TO.N,/SPI_CS*%
X177800000Y-88960000D03*
%TO.P,J1,6,Pin_6*%
%TO.N,GND*%
X177800000Y-86460000D03*
%TD*%
D10*
%TO.P,R2,1*%
%TO.N,+5V*%
X144780000Y-82550000D03*
D11*
%TO.P,R2,2*%
%TO.N,Net-(U2-~{RESET})*%
X144780000Y-90170000D03*
%TD*%
D14*
%TO.P,U1,1,TXD*%
%TO.N,Net-(U1-TXD)*%
X156210000Y-82550000D03*
D11*
%TO.P,U1,2,VSS*%
%TO.N,GND*%
X153670000Y-82550000D03*
%TO.P,U1,3,VDD*%
%TO.N,+5V*%
X151130000Y-82550000D03*
%TO.P,U1,4,RXD*%
%TO.N,Net-(U1-RXD)*%
X148590000Y-82550000D03*
%TO.P,U1,5,Vref*%
%TO.N,unconnected-(U1-Vref-Pad5)*%
X148590000Y-90170000D03*
%TO.P,U1,6,CANL*%
%TO.N,/CANL*%
X151130000Y-90170000D03*
%TO.P,U1,7,CANH*%
%TO.N,/CANH*%
X153670000Y-90170000D03*
%TO.P,U1,8,Rs*%
%TO.N,Net-(U1-Rs)*%
X156210000Y-90170000D03*
%TD*%
D15*
%TO.P,J3,1,Pin_1*%
%TO.N,/CANH*%
X139110000Y-90010000D03*
%TO.P,J3,2,Pin_2*%
%TO.N,/CANL*%
X139110000Y-95410000D03*
%TD*%
D16*
%TO.P,Y1,1,1*%
%TO.N,Net-(U2-OSC2)*%
X158750000Y-96520000D03*
%TO.P,Y1,2,2*%
%TO.N,Net-(U2-OSC1)*%
X158750000Y-101400000D03*
%TD*%
D12*
%TO.P,J2,1,Pin_1*%
%TO.N,/INT*%
X185420000Y-98960000D03*
D13*
%TO.P,J2,2,Pin_2*%
%TO.N,unconnected-(J2-Pin_2-Pad2)*%
X185420000Y-96460000D03*
%TO.P,J2,3,Pin_3*%
%TO.N,unconnected-(J2-Pin_3-Pad3)*%
X185420000Y-93960000D03*
%TO.P,J2,4,Pin_4*%
%TO.N,unconnected-(J2-Pin_4-Pad4)*%
X185420000Y-91460000D03*
%TO.P,J2,5,Pin_5*%
%TO.N,GND*%
X185420000Y-88960000D03*
%TO.P,J2,6,Pin_6*%
X185420000Y-86460000D03*
%TD*%
D10*
%TO.P,R3,1*%
%TO.N,/CANH*%
X152400000Y-95250000D03*
D11*
%TO.P,R3,2*%
%TO.N,/CANL*%
X144780000Y-95250000D03*
%TD*%
D14*
%TO.P,U2,1,TXCAN*%
%TO.N,Net-(U1-TXD)*%
X163830000Y-82550000D03*
D11*
%TO.P,U2,2,RXCAN*%
%TO.N,Net-(U1-RXD)*%
X163830000Y-85090000D03*
%TO.P,U2,3,CLKOUT/SOF*%
%TO.N,unconnected-(U2-CLKOUT{slash}SOF-Pad3)*%
X163830000Y-87630000D03*
%TO.P,U2,4,~{TX0RTS}*%
%TO.N,unconnected-(U2-~{TX0RTS}-Pad4)*%
X163830000Y-90170000D03*
%TO.P,U2,5,~{TX1RTS}*%
%TO.N,unconnected-(U2-~{TX1RTS}-Pad5)*%
X163830000Y-92710000D03*
%TO.P,U2,6,~{TX2RTS}*%
%TO.N,unconnected-(U2-~{TX2RTS}-Pad6)*%
X163830000Y-95250000D03*
%TO.P,U2,7,OSC2*%
%TO.N,Net-(U2-OSC2)*%
X163830000Y-97790000D03*
%TO.P,U2,8,OSC1*%
%TO.N,Net-(U2-OSC1)*%
X163830000Y-100330000D03*
%TO.P,U2,9,VSS*%
%TO.N,GND*%
X163830000Y-102870000D03*
%TO.P,U2,10,~{RX1BF}*%
%TO.N,unconnected-(U2-~{RX1BF}-Pad10)*%
X171450000Y-102870000D03*
%TO.P,U2,11,~{RX0BF}*%
%TO.N,unconnected-(U2-~{RX0BF}-Pad11)*%
X171450000Y-100330000D03*
%TO.P,U2,12,~{INT}*%
%TO.N,/INT*%
X171450000Y-97790000D03*
%TO.P,U2,13,SCK*%
%TO.N,/SPI_SCK*%
X171450000Y-95250000D03*
%TO.P,U2,14,SI*%
%TO.N,/SPI_MOSI*%
X171450000Y-92710000D03*
%TO.P,U2,15,SO*%
%TO.N,/SPI_MISO*%
X171450000Y-90170000D03*
%TO.P,U2,16,~{CS}*%
%TO.N,/SPI_CS*%
X171450000Y-87630000D03*
%TO.P,U2,17,~{RESET}*%
%TO.N,Net-(U2-~{RESET})*%
X171450000Y-85090000D03*
%TO.P,U2,18,VDD*%
%TO.N,+5V*%
X171450000Y-82550000D03*
%TD*%
D10*
%TO.P,C1,1*%
%TO.N,GND*%
X147440000Y-99060000D03*
%TO.P,C1,2*%
%TO.N,Net-(U2-OSC2)*%
X152440000Y-99060000D03*
%TD*%
%TO.P,C2,1*%
%TO.N,GND*%
X147400000Y-102870000D03*
%TO.P,C2,2*%
%TO.N,Net-(U2-OSC1)*%
X152400000Y-102870000D03*
%TD*%
D17*
%TO.N,GND*%
X167640000Y-85090000D03*
X174625000Y-97790000D03*
X173990000Y-91440000D03*
X173990000Y-88900000D03*
X173990000Y-93980000D03*
%TD*%
D18*
%TO.N,Net-(U2-OSC2)*%
X158750000Y-96520000D02*
X154980000Y-96520000D01*
X154980000Y-96520000D02*
X152440000Y-99060000D01*
X158750000Y-96520000D02*
X162560000Y-96520000D01*
X162560000Y-96520000D02*
X163830000Y-97790000D01*
%TO.N,Net-(U2-OSC1)*%
X162760000Y-101400000D02*
X163830000Y-100330000D01*
X158750000Y-101400000D02*
X153870000Y-101400000D01*
X153870000Y-101400000D02*
X152400000Y-102870000D01*
X158750000Y-101400000D02*
X162760000Y-101400000D01*
%TO.N,+5V*%
X170180000Y-83820000D02*
X171450000Y-82550000D01*
X153670000Y-85090000D02*
X161925000Y-85090000D01*
X171450000Y-82550000D02*
X177800000Y-82550000D01*
X181610000Y-86360000D02*
X181610000Y-95050000D01*
X177800000Y-82550000D02*
X181610000Y-86360000D01*
X161925000Y-85090000D02*
X163195000Y-83820000D01*
X146050000Y-81280000D02*
X149860000Y-81280000D01*
X181610000Y-95050000D02*
X177800000Y-98860000D01*
X151130000Y-82550000D02*
X153670000Y-85090000D01*
X144780000Y-82550000D02*
X146050000Y-81280000D01*
X149860000Y-81280000D02*
X151130000Y-82550000D01*
X163195000Y-83820000D02*
X170180000Y-83820000D01*
%TO.N,/SPI_SCK*%
X175735000Y-96360000D02*
X174625000Y-95250000D01*
X174625000Y-95250000D02*
X171450000Y-95250000D01*
X177800000Y-96360000D02*
X175735000Y-96360000D01*
%TO.N,/SPI_MOSI*%
X174625000Y-92710000D02*
X171450000Y-92710000D01*
X177800000Y-93860000D02*
X175775000Y-93860000D01*
X175775000Y-93860000D02*
X174625000Y-92710000D01*
%TO.N,/SPI_MISO*%
X174625000Y-90170000D02*
X175815000Y-91360000D01*
X175815000Y-91360000D02*
X177800000Y-91360000D01*
X171450000Y-90170000D02*
X174625000Y-90170000D01*
%TO.N,/SPI_CS*%
X175855000Y-88860000D02*
X174625000Y-87630000D01*
X174625000Y-87630000D02*
X171450000Y-87630000D01*
X177800000Y-88860000D02*
X175855000Y-88860000D01*
%TO.N,/INT*%
X174625000Y-100965000D02*
X183315000Y-100965000D01*
X171450000Y-97790000D02*
X174625000Y-100965000D01*
X183315000Y-100965000D02*
X185420000Y-98860000D01*
%TO.N,/CANH*%
X141810000Y-92710000D02*
X139110000Y-90010000D01*
X149860000Y-92710000D02*
X151130000Y-92710000D01*
X151130000Y-92710000D02*
X153670000Y-90170000D01*
X149860000Y-92710000D02*
X141810000Y-92710000D01*
X149860000Y-92710000D02*
X152400000Y-95250000D01*
%TO.N,/CANL*%
X144780000Y-95250000D02*
X139270000Y-95250000D01*
X139555000Y-95250000D02*
X139110000Y-94805000D01*
X139270000Y-95250000D02*
X139110000Y-95410000D01*
%TO.N,Net-(U1-Rs)*%
X156210000Y-90170000D02*
X160020000Y-90170000D01*
%TO.N,Net-(U2-~{RESET})*%
X144780000Y-90170000D02*
X148590000Y-86360000D01*
X148590000Y-86360000D02*
X170180000Y-86360000D01*
X170180000Y-86360000D02*
X171450000Y-85090000D01*
%TO.N,Net-(U1-TXD)*%
X161925000Y-80645000D02*
X163830000Y-82550000D01*
X156210000Y-82550000D02*
X158115000Y-80645000D01*
X158115000Y-80645000D02*
X161925000Y-80645000D01*
%TO.N,Net-(U1-RXD)*%
X151765000Y-85725000D02*
X163195000Y-85725000D01*
X163195000Y-85725000D02*
X163830000Y-85090000D01*
X148590000Y-82550000D02*
X151765000Y-85725000D01*
%TD*%
%TA.AperFunction,Conductor*%
%TO.N,GND*%
G36*
X174381587Y-95895185D02*
G01*
X174402229Y-95911819D01*
X175246016Y-96755606D01*
X175246045Y-96755637D01*
X175336264Y-96845856D01*
X175336267Y-96845858D01*
X175387490Y-96880084D01*
X175438714Y-96914312D01*
X175516536Y-96946546D01*
X175516537Y-96946547D01*
X175516538Y-96946547D01*
X175552548Y-96961463D01*
X175612971Y-96973481D01*
X175673393Y-96985500D01*
X175673394Y-96985500D01*
X176351067Y-96985500D01*
X176418106Y-97005185D01*
X176461552Y-97053205D01*
X176518608Y-97165185D01*
X176519950Y-97167817D01*
X176519956Y-97167826D01*
X176644890Y-97339786D01*
X176783705Y-97478601D01*
X176817190Y-97539924D01*
X176812206Y-97609616D01*
X176770334Y-97665549D01*
X176761121Y-97671821D01*
X176606342Y-97767289D01*
X176482289Y-97891342D01*
X176390187Y-98040663D01*
X176390185Y-98040668D01*
X176375480Y-98085046D01*
X176335001Y-98207203D01*
X176335001Y-98207204D01*
X176335000Y-98207204D01*
X176324500Y-98309983D01*
X176324500Y-99610001D01*
X176324501Y-99610018D01*
X176335000Y-99712796D01*
X176335001Y-99712799D01*
X176390185Y-99879331D01*
X176390187Y-99879336D01*
X176482289Y-100028657D01*
X176581451Y-100127819D01*
X176614936Y-100189142D01*
X176609952Y-100258834D01*
X176568080Y-100314767D01*
X176502616Y-100339184D01*
X176493770Y-100339500D01*
X174935452Y-100339500D01*
X174868413Y-100319815D01*
X174847771Y-100303181D01*
X172749412Y-98204822D01*
X172715927Y-98143499D01*
X172717318Y-98085048D01*
X172735635Y-98016692D01*
X172755468Y-97790000D01*
X172754143Y-97774860D01*
X172740584Y-97619873D01*
X172735635Y-97563308D01*
X172676739Y-97343504D01*
X172580568Y-97137266D01*
X172450047Y-96950861D01*
X172450045Y-96950858D01*
X172289141Y-96789954D01*
X172102734Y-96659432D01*
X172102728Y-96659429D01*
X172044725Y-96632382D01*
X171992285Y-96586210D01*
X171973133Y-96519017D01*
X171993348Y-96452135D01*
X172044725Y-96407618D01*
X172102734Y-96380568D01*
X172289139Y-96250047D01*
X172450047Y-96089139D01*
X172536488Y-95965687D01*
X172562613Y-95928377D01*
X172617189Y-95884752D01*
X172664188Y-95875500D01*
X174314548Y-95875500D01*
X174381587Y-95895185D01*
G37*
%TD.AperFunction*%
%TA.AperFunction,Conductor*%
G36*
X177556587Y-83195185D02*
G01*
X177577229Y-83211819D01*
X180948181Y-86582771D01*
X180981666Y-86644094D01*
X180984500Y-86670452D01*
X180984500Y-94739547D01*
X180964815Y-94806586D01*
X180948181Y-94827228D01*
X179467572Y-96307836D01*
X179406249Y-96341321D01*
X179336557Y-96336337D01*
X179280624Y-96294465D01*
X179257418Y-96239554D01*
X179242246Y-96143757D01*
X179176557Y-95941588D01*
X179080051Y-95752184D01*
X179080049Y-95752181D01*
X179080048Y-95752179D01*
X178955109Y-95580213D01*
X178804792Y-95429896D01*
X178804784Y-95429890D01*
X178640204Y-95310316D01*
X178597540Y-95254989D01*
X178591561Y-95185376D01*
X178624166Y-95123580D01*
X178640199Y-95109686D01*
X178804792Y-94990104D01*
X178955104Y-94839792D01*
X178955106Y-94839788D01*
X178955109Y-94839786D01*
X179080048Y-94667820D01*
X179080050Y-94667817D01*
X179080051Y-94667816D01*
X179176557Y-94478412D01*
X179242246Y-94276243D01*
X179275500Y-94066287D01*
X179275500Y-93853713D01*
X179242246Y-93643757D01*
X179176557Y-93441588D01*
X179080051Y-93252184D01*
X179080049Y-93252181D01*
X179080048Y-93252179D01*
X178955109Y-93080213D01*
X178804792Y-92929896D01*
X178804784Y-92929890D01*
X178640204Y-92810316D01*
X178597540Y-92754989D01*
X178591561Y-92685376D01*
X178624166Y-92623580D01*
X178640199Y-92609686D01*
X178804792Y-92490104D01*
X178955104Y-92339792D01*
X178955106Y-92339788D01*
X178955109Y-92339786D01*
X179080048Y-92167820D01*
X179080050Y-92167817D01*
X179080051Y-92167816D01*
X179176557Y-91978412D01*
X179242246Y-91776243D01*
X179275500Y-91566287D01*
X179275500Y-91353713D01*
X179242246Y-91143757D01*
X179176557Y-90941588D01*
X179080051Y-90752184D01*
X179080049Y-90752181D01*
X179080048Y-90752179D01*
X178955109Y-90580213D01*
X178804792Y-90429896D01*
X178759082Y-90396686D01*
X178640204Y-90310316D01*
X178597540Y-90254989D01*
X178591561Y-90185376D01*
X178624166Y-90123580D01*
X178640199Y-90109686D01*
X178804792Y-89990104D01*
X178955104Y-89839792D01*
X178955106Y-89839788D01*
X178955109Y-89839786D01*
X179080048Y-89667820D01*
X179080050Y-89667817D01*
X179080051Y-89667816D01*
X179176557Y-89478412D01*
X179242246Y-89276243D01*
X179275500Y-89066287D01*
X179275500Y-88853713D01*
X179242246Y-88643757D01*
X179176557Y-88441588D01*
X179080051Y-88252184D01*
X179080049Y-88252181D01*
X179080048Y-88252179D01*
X178955109Y-88080213D01*
X178804790Y-87929894D01*
X178804785Y-87929890D01*
X178639781Y-87810008D01*
X178597115Y-87754678D01*
X178591136Y-87685065D01*
X178623741Y-87623270D01*
X178639781Y-87609371D01*
X178804466Y-87489721D01*
X178954723Y-87339464D01*
X178954727Y-87339459D01*
X179079620Y-87167557D01*
X179176095Y-86978217D01*
X179241757Y-86776129D01*
X179241757Y-86776126D01*
X179252231Y-86710000D01*
X178204146Y-86710000D01*
X178242630Y-86643343D01*
X178275000Y-86522535D01*
X178275000Y-86397465D01*
X178242630Y-86276657D01*
X178204146Y-86210000D01*
X179252231Y-86210000D01*
X179241757Y-86143873D01*
X179241757Y-86143870D01*
X179176095Y-85941782D01*
X179079620Y-85752442D01*
X178954727Y-85580540D01*
X178954723Y-85580535D01*
X178804464Y-85430276D01*
X178804459Y-85430272D01*
X178632557Y-85305379D01*
X178443217Y-85208904D01*
X178241128Y-85143242D01*
X178050000Y-85112969D01*
X178050000Y-86055854D01*
X177983343Y-86017370D01*
X177862535Y-85985000D01*
X177737465Y-85985000D01*
X177616657Y-86017370D01*
X177550000Y-86055854D01*
X177550000Y-85112969D01*
X177358872Y-85143242D01*
X177358869Y-85143242D01*
X177156782Y-85208904D01*
X176967442Y-85305379D01*
X176795540Y-85430272D01*
X176795535Y-85430276D01*
X176645276Y-85580535D01*
X176645272Y-85580540D01*
X176520379Y-85752442D01*
X176423904Y-85941782D01*
X176358242Y-86143870D01*
X176358242Y-86143873D01*
X176347769Y-86210000D01*
X177395854Y-86210000D01*
X177357370Y-86276657D01*
X177325000Y-86397465D01*
X177325000Y-86522535D01*
X177357370Y-86643343D01*
X177395854Y-86710000D01*
X176347769Y-86710000D01*
X176358242Y-86776126D01*
X176358242Y-86776129D01*
X176423904Y-86978217D01*
X176520379Y-87167557D01*
X176645272Y-87339459D01*
X176645276Y-87339464D01*
X176795535Y-87489723D01*
X176795540Y-87489727D01*
X176960218Y-87609372D01*
X177002884Y-87664701D01*
X177008863Y-87734315D01*
X176976258Y-87796110D01*
X176960218Y-87810008D01*
X176795214Y-87929890D01*
X176795209Y-87929894D01*
X176644892Y-88080211D01*
X176569935Y-88183384D01*
X176514605Y-88226051D01*
X176469616Y-88234500D01*
X176165453Y-88234500D01*
X176098414Y-88214815D01*
X176077772Y-88198181D01*
X175117928Y-87238338D01*
X175117925Y-87238334D01*
X175117925Y-87238335D01*
X175110858Y-87231268D01*
X175110858Y-87231267D01*
X175023733Y-87144142D01*
X175023732Y-87144141D01*
X175023731Y-87144140D01*
X174972509Y-87109915D01*
X174921286Y-87075688D01*
X174921283Y-87075686D01*
X174921280Y-87075685D01*
X174840792Y-87042347D01*
X174807453Y-87028537D01*
X174797427Y-87026543D01*
X174747029Y-87016518D01*
X174686610Y-87004500D01*
X174686607Y-87004500D01*
X174686606Y-87004500D01*
X172664188Y-87004500D01*
X172597149Y-86984815D01*
X172562613Y-86951623D01*
X172450045Y-86790858D01*
X172289141Y-86629954D01*
X172102734Y-86499432D01*
X172102728Y-86499429D01*
X172044725Y-86472382D01*
X171992285Y-86426210D01*
X171973133Y-86359017D01*
X171993348Y-86292135D01*
X172044725Y-86247618D01*
X172102734Y-86220568D01*
X172289139Y-86090047D01*
X172450047Y-85929139D01*
X172580568Y-85742734D01*
X172676739Y-85536496D01*
X172735635Y-85316692D01*
X172755468Y-85090000D01*
X172735635Y-84863308D01*
X172676739Y-84643504D01*
X172580568Y-84437266D01*
X172450047Y-84250861D01*
X172450045Y-84250858D01*
X172289141Y-84089954D01*
X172102734Y-83959432D01*
X172102728Y-83959429D01*
X172044725Y-83932382D01*
X171992285Y-83886210D01*
X171973133Y-83819017D01*
X171993348Y-83752135D01*
X172044725Y-83707618D01*
X172102734Y-83680568D01*
X172289139Y-83550047D01*
X172450047Y-83389139D01*
X172562613Y-83228377D01*
X172617189Y-83184752D01*
X172664188Y-83175500D01*
X177489548Y-83175500D01*
X177556587Y-83195185D01*
G37*
%TD.AperFunction*%
%TA.AperFunction,Conductor*%
G36*
X174381587Y-93355185D02*
G01*
X174402229Y-93371819D01*
X175376263Y-94345855D01*
X175376267Y-94345858D01*
X175478710Y-94414309D01*
X175478711Y-94414309D01*
X175478715Y-94414312D01*
X175545396Y-94441931D01*
X175545398Y-94441933D01*
X175592543Y-94461461D01*
X175592548Y-94461463D01*
X175612597Y-94465451D01*
X175646196Y-94472134D01*
X175713392Y-94485501D01*
X175713394Y-94485501D01*
X175842721Y-94485501D01*
X175842741Y-94485500D01*
X176351067Y-94485500D01*
X176418106Y-94505185D01*
X176461552Y-94553205D01*
X176473591Y-94576833D01*
X176511517Y-94651268D01*
X176519950Y-94667817D01*
X176519956Y-94667826D01*
X176644890Y-94839786D01*
X176795209Y-94990105D01*
X176795214Y-94990109D01*
X176959793Y-95109682D01*
X177002459Y-95165011D01*
X177008438Y-95234625D01*
X176975833Y-95296420D01*
X176959793Y-95310318D01*
X176795214Y-95429890D01*
X176795209Y-95429894D01*
X176644892Y-95580211D01*
X176569935Y-95683384D01*
X176514605Y-95726051D01*
X176469616Y-95734500D01*
X176045452Y-95734500D01*
X175978413Y-95714815D01*
X175957771Y-95698181D01*
X175115198Y-94855608D01*
X175115178Y-94855586D01*
X175023736Y-94764144D01*
X175023732Y-94764141D01*
X174954258Y-94717720D01*
X174921286Y-94695688D01*
X174921287Y-94695688D01*
X174921285Y-94695687D01*
X174874513Y-94676314D01*
X174814040Y-94651266D01*
X174814035Y-94651262D01*
X174814035Y-94651264D01*
X174807453Y-94648537D01*
X174807454Y-94648537D01*
X174787403Y-94644549D01*
X174747029Y-94636518D01*
X174686610Y-94624500D01*
X174686607Y-94624500D01*
X174686606Y-94624500D01*
X172664188Y-94624500D01*
X172597149Y-94604815D01*
X172562613Y-94571623D01*
X172450045Y-94410858D01*
X172289141Y-94249954D01*
X172102734Y-94119432D01*
X172102728Y-94119429D01*
X172075038Y-94106517D01*
X172044724Y-94092381D01*
X171992285Y-94046210D01*
X171973133Y-93979017D01*
X171993348Y-93912135D01*
X172044725Y-93867618D01*
X172102734Y-93840568D01*
X172289139Y-93710047D01*
X172450047Y-93549139D01*
X172538949Y-93422173D01*
X172562613Y-93388377D01*
X172617189Y-93344752D01*
X172664188Y-93335500D01*
X174314548Y-93335500D01*
X174381587Y-93355185D01*
G37*
%TD.AperFunction*%
%TA.AperFunction,Conductor*%
G36*
X174381587Y-90815185D02*
G01*
X174402229Y-90831819D01*
X175326016Y-91755606D01*
X175326045Y-91755637D01*
X175416264Y-91845856D01*
X175453686Y-91870861D01*
X175453687Y-91870861D01*
X175518714Y-91914312D01*
X175599207Y-91947652D01*
X175632548Y-91961463D01*
X175692971Y-91973481D01*
X175753393Y-91985500D01*
X175753394Y-91985500D01*
X176351067Y-91985500D01*
X176418106Y-92005185D01*
X176461552Y-92053205D01*
X176519950Y-92167817D01*
X176519956Y-92167826D01*
X176644890Y-92339786D01*
X176795209Y-92490105D01*
X176795214Y-92490109D01*
X176959793Y-92609682D01*
X177002459Y-92665011D01*
X177008438Y-92734625D01*
X176975833Y-92796420D01*
X176959793Y-92810318D01*
X176795214Y-92929890D01*
X176795209Y-92929894D01*
X176644892Y-93080211D01*
X176569935Y-93183384D01*
X176514605Y-93226051D01*
X176469616Y-93234500D01*
X176085453Y-93234500D01*
X176018414Y-93214815D01*
X175997772Y-93198181D01*
X175117928Y-92318338D01*
X175117925Y-92318334D01*
X175117925Y-92318335D01*
X175110858Y-92311268D01*
X175110858Y-92311267D01*
X175023733Y-92224142D01*
X175023732Y-92224141D01*
X175023731Y-92224140D01*
X174972509Y-92189915D01*
X174921287Y-92155689D01*
X174921286Y-92155688D01*
X174921283Y-92155686D01*
X174921280Y-92155685D01*
X174840792Y-92122347D01*
X174807453Y-92108537D01*
X174797427Y-92106543D01*
X174747029Y-92096518D01*
X174686610Y-92084500D01*
X174686607Y-92084500D01*
X174686606Y-92084500D01*
X172664188Y-92084500D01*
X172597149Y-92064815D01*
X172562613Y-92031623D01*
X172450045Y-91870858D01*
X172289141Y-91709954D01*
X172102734Y-91579432D01*
X172102728Y-91579429D01*
X172044725Y-91552382D01*
X171992285Y-91506210D01*
X171973133Y-91439017D01*
X171993348Y-91372135D01*
X172044725Y-91327618D01*
X172053760Y-91323405D01*
X172102734Y-91300568D01*
X172289139Y-91170047D01*
X172450047Y-91009139D01*
X172562613Y-90848377D01*
X172617189Y-90804752D01*
X172664188Y-90795500D01*
X174314548Y-90795500D01*
X174381587Y-90815185D01*
G37*
%TD.AperFunction*%
%TA.AperFunction,Conductor*%
G36*
X174381587Y-88275185D02*
G01*
X174402229Y-88291819D01*
X175456263Y-89345855D01*
X175456267Y-89345858D01*
X175558710Y-89414309D01*
X175558711Y-89414309D01*
X175558715Y-89414312D01*
X175625396Y-89441931D01*
X175625398Y-89441933D01*
X175672543Y-89461461D01*
X175672548Y-89461463D01*
X175692597Y-89465451D01*
X175726196Y-89472134D01*
X175793392Y-89485501D01*
X175793394Y-89485501D01*
X175922721Y-89485501D01*
X175922741Y-89485500D01*
X176351067Y-89485500D01*
X176418106Y-89505185D01*
X176461552Y-89553205D01*
X176519817Y-89667557D01*
X176519950Y-89667817D01*
X176519956Y-89667826D01*
X176644890Y-89839786D01*
X176795209Y-89990105D01*
X176795214Y-89990109D01*
X176959793Y-90109682D01*
X177002459Y-90165011D01*
X177008438Y-90234625D01*
X176975833Y-90296420D01*
X176959793Y-90310318D01*
X176795214Y-90429890D01*
X176795209Y-90429894D01*
X176644892Y-90580211D01*
X176569935Y-90683384D01*
X176514605Y-90726051D01*
X176469616Y-90734500D01*
X176125452Y-90734500D01*
X176058413Y-90714815D01*
X176037771Y-90698181D01*
X175115198Y-89775608D01*
X175115178Y-89775586D01*
X175023733Y-89684141D01*
X174972509Y-89649915D01*
X174967946Y-89646866D01*
X174921286Y-89615688D01*
X174921283Y-89615686D01*
X174921280Y-89615685D01*
X174839580Y-89581845D01*
X174807453Y-89568537D01*
X174797427Y-89566543D01*
X174747029Y-89556518D01*
X174686610Y-89544500D01*
X174686607Y-89544500D01*
X174686606Y-89544500D01*
X172664188Y-89544500D01*
X172597149Y-89524815D01*
X172562613Y-89491623D01*
X172450045Y-89330858D01*
X172289141Y-89169954D01*
X172102734Y-89039432D01*
X172102728Y-89039429D01*
X172075038Y-89026517D01*
X172044724Y-89012381D01*
X171992285Y-88966210D01*
X171973133Y-88899017D01*
X171993348Y-88832135D01*
X172044725Y-88787618D01*
X172102734Y-88760568D01*
X172289139Y-88630047D01*
X172450047Y-88469139D01*
X172562613Y-88308377D01*
X172617189Y-88264752D01*
X172664188Y-88255500D01*
X174314548Y-88255500D01*
X174381587Y-88275185D01*
G37*
%TD.AperFunction*%
%TA.AperFunction,Conductor*%
G36*
X185670000Y-88555854D02*
G01*
X185603343Y-88517370D01*
X185482535Y-88485000D01*
X185357465Y-88485000D01*
X185236657Y-88517370D01*
X185170000Y-88555854D01*
X185170000Y-86864145D01*
X185236657Y-86902630D01*
X185357465Y-86935000D01*
X185482535Y-86935000D01*
X185603343Y-86902630D01*
X185670000Y-86864145D01*
X185670000Y-88555854D01*
G37*
%TD.AperFunction*%
%TA.AperFunction,Conductor*%
G36*
X170187990Y-84465185D02*
G01*
X170233745Y-84517989D01*
X170243689Y-84587147D01*
X170233333Y-84621905D01*
X170223262Y-84643502D01*
X170223258Y-84643511D01*
X170164366Y-84863302D01*
X170164364Y-84863313D01*
X170144532Y-85089998D01*
X170144532Y-85090000D01*
X170146541Y-85112969D01*
X170164365Y-85316692D01*
X170164367Y-85316699D01*
X170182680Y-85385049D01*
X170181016Y-85454899D01*
X170150586Y-85504822D01*
X169957227Y-85698182D01*
X169895907Y-85731666D01*
X169869548Y-85734500D01*
X165159049Y-85734500D01*
X165092010Y-85714815D01*
X165046255Y-85662011D01*
X165036311Y-85592853D01*
X165046667Y-85558095D01*
X165056739Y-85536496D01*
X165115635Y-85316692D01*
X165135468Y-85090000D01*
X165115635Y-84863308D01*
X165056739Y-84643504D01*
X165046666Y-84621904D01*
X165036175Y-84552827D01*
X165064695Y-84489043D01*
X165123171Y-84450804D01*
X165159049Y-84445500D01*
X170120951Y-84445500D01*
X170187990Y-84465185D01*
G37*
%TD.AperFunction*%
%TA.AperFunction,Conductor*%
G36*
X159254596Y-81290185D02*
G01*
X159300351Y-81342989D01*
X159310295Y-81412147D01*
X159281270Y-81475703D01*
X159258681Y-81496075D01*
X159181179Y-81550342D01*
X159020342Y-81711179D01*
X158889865Y-81897517D01*
X158793734Y-82103673D01*
X158793730Y-82103682D01*
X158741127Y-82299999D01*
X158741128Y-82300000D01*
X159704314Y-82300000D01*
X159699920Y-82304394D01*
X159647259Y-82395606D01*
X159620000Y-82497339D01*
X159620000Y-82602661D01*
X159647259Y-82704394D01*
X159699920Y-82795606D01*
X159704314Y-82800000D01*
X158741128Y-82800000D01*
X158793730Y-82996317D01*
X158793734Y-82996326D01*
X158889865Y-83202482D01*
X159020342Y-83388820D01*
X159181179Y-83549657D01*
X159367517Y-83680134D01*
X159573673Y-83776265D01*
X159573682Y-83776269D01*
X159769999Y-83828872D01*
X159770000Y-83828871D01*
X159770000Y-82865686D01*
X159774394Y-82870080D01*
X159865606Y-82922741D01*
X159967339Y-82950000D01*
X160072661Y-82950000D01*
X160174394Y-82922741D01*
X160265606Y-82870080D01*
X160270000Y-82865686D01*
X160270000Y-83828872D01*
X160466317Y-83776269D01*
X160466326Y-83776265D01*
X160672482Y-83680134D01*
X160858820Y-83549657D01*
X161019657Y-83388820D01*
X161150134Y-83202482D01*
X161246265Y-82996326D01*
X161246269Y-82996317D01*
X161298872Y-82800000D01*
X160335686Y-82800000D01*
X160340080Y-82795606D01*
X160392741Y-82704394D01*
X160420000Y-82602661D01*
X160420000Y-82497339D01*
X160392741Y-82395606D01*
X160340080Y-82304394D01*
X160335686Y-82300000D01*
X161298872Y-82300000D01*
X161298872Y-82299999D01*
X161246269Y-82103682D01*
X161246265Y-82103673D01*
X161150134Y-81897517D01*
X161019657Y-81711179D01*
X160858820Y-81550342D01*
X160781319Y-81496075D01*
X160737694Y-81441498D01*
X160730502Y-81371999D01*
X160762024Y-81309645D01*
X160822254Y-81274231D01*
X160852443Y-81270500D01*
X161614548Y-81270500D01*
X161681587Y-81290185D01*
X161702229Y-81306819D01*
X162493181Y-82097771D01*
X162526666Y-82159094D01*
X162529500Y-82185452D01*
X162529500Y-83397870D01*
X162529501Y-83397876D01*
X162535908Y-83457481D01*
X162545282Y-83482613D01*
X162550266Y-83552305D01*
X162516781Y-83613627D01*
X161702229Y-84428181D01*
X161640906Y-84461666D01*
X161614548Y-84464500D01*
X153980453Y-84464500D01*
X153913414Y-84444815D01*
X153892772Y-84428181D01*
X153448383Y-83983792D01*
X153414898Y-83922469D01*
X153419882Y-83852777D01*
X153420000Y-83852617D01*
X153420000Y-82865686D01*
X153424394Y-82870080D01*
X153515606Y-82922741D01*
X153617339Y-82950000D01*
X153722661Y-82950000D01*
X153824394Y-82922741D01*
X153915606Y-82870080D01*
X153920000Y-82865686D01*
X153920000Y-83828872D01*
X154116317Y-83776269D01*
X154116326Y-83776265D01*
X154322482Y-83680134D01*
X154508820Y-83549657D01*
X154669658Y-83388819D01*
X154687190Y-83363781D01*
X154741766Y-83320155D01*
X154811264Y-83312961D01*
X154873619Y-83344482D01*
X154909034Y-83404712D01*
X154912055Y-83421647D01*
X154915907Y-83457480D01*
X154966202Y-83592328D01*
X154966206Y-83592335D01*
X155052452Y-83707544D01*
X155052455Y-83707547D01*
X155167664Y-83793793D01*
X155167671Y-83793797D01*
X155302517Y-83844091D01*
X155302516Y-83844091D01*
X155309444Y-83844835D01*
X155362127Y-83850500D01*
X157057872Y-83850499D01*
X157117483Y-83844091D01*
X157252331Y-83793796D01*
X157367546Y-83707546D01*
X157453796Y-83592331D01*
X157504091Y-83457483D01*
X157510500Y-83397873D01*
X157510499Y-82185451D01*
X157530184Y-82118413D01*
X157546818Y-82097771D01*
X158337771Y-81306819D01*
X158399094Y-81273334D01*
X158425452Y-81270500D01*
X159187557Y-81270500D01*
X159254596Y-81290185D01*
G37*
%TD.AperFunction*%
%TA.AperFunction,Conductor*%
G36*
X187961330Y-74930029D02*
G01*
X187967463Y-74930162D01*
X188061420Y-74932209D01*
X188080243Y-74934063D01*
X188278644Y-74969047D01*
X188299516Y-74974639D01*
X188487561Y-75043082D01*
X188507143Y-75052214D01*
X188680437Y-75152265D01*
X188698136Y-75164657D01*
X188851430Y-75293285D01*
X188866713Y-75308568D01*
X188995340Y-75461861D01*
X189007734Y-75479562D01*
X189107783Y-75652852D01*
X189116918Y-75672441D01*
X189185359Y-75860480D01*
X189190953Y-75881359D01*
X189225935Y-76079752D01*
X189227790Y-76098582D01*
X189229971Y-76198667D01*
X189230000Y-76201369D01*
X189230000Y-109218630D01*
X189229971Y-109221332D01*
X189227790Y-109321417D01*
X189225935Y-109340247D01*
X189190953Y-109538640D01*
X189185359Y-109559519D01*
X189116918Y-109747558D01*
X189107783Y-109767147D01*
X189007734Y-109940437D01*
X188995337Y-109958143D01*
X188866714Y-110111430D01*
X188851430Y-110126714D01*
X188698143Y-110255337D01*
X188680437Y-110267734D01*
X188507147Y-110367783D01*
X188487558Y-110376918D01*
X188299519Y-110445359D01*
X188278640Y-110450953D01*
X188080247Y-110485935D01*
X188061417Y-110487790D01*
X187964457Y-110489902D01*
X187961330Y-110489971D01*
X187958630Y-110490000D01*
X125731370Y-110490000D01*
X125728669Y-110489971D01*
X125628583Y-110487790D01*
X125609752Y-110485935D01*
X125411359Y-110450953D01*
X125390480Y-110445359D01*
X125202441Y-110376918D01*
X125182852Y-110367783D01*
X125009562Y-110267734D01*
X124991861Y-110255340D01*
X124838568Y-110126713D01*
X124823285Y-110111430D01*
X124694657Y-109958136D01*
X124682265Y-109940437D01*
X124582216Y-109767147D01*
X124573081Y-109747558D01*
X124504640Y-109559519D01*
X124499046Y-109538640D01*
X124464064Y-109340247D01*
X124462209Y-109321415D01*
X124460029Y-109221330D01*
X124460000Y-109218630D01*
X124460000Y-106558711D01*
X126419500Y-106558711D01*
X126419500Y-106801288D01*
X126451161Y-107041785D01*
X126513947Y-107276104D01*
X126606773Y-107500205D01*
X126606776Y-107500212D01*
X126728064Y-107710289D01*
X126728066Y-107710292D01*
X126728067Y-107710293D01*
X126875733Y-107902736D01*
X126875739Y-107902743D01*
X127047256Y-108074260D01*
X127047262Y-108074265D01*
X127239711Y-108221936D01*
X127449788Y-108343224D01*
X127673900Y-108436054D01*
X127908211Y-108498838D01*
X128088586Y-108522584D01*
X128148711Y-108530500D01*
X128148712Y-108530500D01*
X128391289Y-108530500D01*
X128439388Y-108524167D01*
X128631789Y-108498838D01*
X128866100Y-108436054D01*
X129090212Y-108343224D01*
X129300289Y-108221936D01*
X129492738Y-108074265D01*
X129664265Y-107902738D01*
X129811936Y-107710289D01*
X129933224Y-107500212D01*
X130026054Y-107276100D01*
X130088838Y-107041789D01*
X130120500Y-106801288D01*
X130120500Y-106558712D01*
X130120500Y-106558711D01*
X183569500Y-106558711D01*
X183569500Y-106801288D01*
X183601161Y-107041785D01*
X183663947Y-107276104D01*
X183756773Y-107500205D01*
X183756776Y-107500212D01*
X183878064Y-107710289D01*
X183878066Y-107710292D01*
X183878067Y-107710293D01*
X184025733Y-107902736D01*
X184025739Y-107902743D01*
X184197256Y-108074260D01*
X184197262Y-108074265D01*
X184389711Y-108221936D01*
X184599788Y-108343224D01*
X184823900Y-108436054D01*
X185058211Y-108498838D01*
X185238586Y-108522584D01*
X185298711Y-108530500D01*
X185298712Y-108530500D01*
X185541289Y-108530500D01*
X185589388Y-108524167D01*
X185781789Y-108498838D01*
X186016100Y-108436054D01*
X186240212Y-108343224D01*
X186450289Y-108221936D01*
X186642738Y-108074265D01*
X186814265Y-107902738D01*
X186961936Y-107710289D01*
X187083224Y-107500212D01*
X187176054Y-107276100D01*
X187238838Y-107041789D01*
X187270500Y-106801288D01*
X187270500Y-106558712D01*
X187238838Y-106318211D01*
X187176054Y-106083900D01*
X187083224Y-105859788D01*
X186961936Y-105649711D01*
X186814265Y-105457262D01*
X186814260Y-105457256D01*
X186642743Y-105285739D01*
X186642736Y-105285733D01*
X186450293Y-105138067D01*
X186450292Y-105138066D01*
X186450289Y-105138064D01*
X186240212Y-105016776D01*
X186240205Y-105016773D01*
X186016104Y-104923947D01*
X185781785Y-104861161D01*
X185541289Y-104829500D01*
X185541288Y-104829500D01*
X185298712Y-104829500D01*
X185298711Y-104829500D01*
X185058214Y-104861161D01*
X184823895Y-104923947D01*
X184599794Y-105016773D01*
X184599785Y-105016777D01*
X184389706Y-105138067D01*
X184197263Y-105285733D01*
X184197256Y-105285739D01*
X184025739Y-105457256D01*
X184025733Y-105457263D01*
X183878067Y-105649706D01*
X183756777Y-105859785D01*
X183756773Y-105859794D01*
X183663947Y-106083895D01*
X183601161Y-106318214D01*
X183569500Y-106558711D01*
X130120500Y-106558711D01*
X130088838Y-106318211D01*
X130026054Y-106083900D01*
X129933224Y-105859788D01*
X129811936Y-105649711D01*
X129664265Y-105457262D01*
X129664260Y-105457256D01*
X129492743Y-105285739D01*
X129492736Y-105285733D01*
X129300293Y-105138067D01*
X129300292Y-105138066D01*
X129300289Y-105138064D01*
X129090212Y-105016776D01*
X129090205Y-105016773D01*
X128866104Y-104923947D01*
X128631785Y-104861161D01*
X128391289Y-104829500D01*
X128391288Y-104829500D01*
X128148712Y-104829500D01*
X128148711Y-104829500D01*
X127908214Y-104861161D01*
X127673895Y-104923947D01*
X127449794Y-105016773D01*
X127449785Y-105016777D01*
X127239706Y-105138067D01*
X127047263Y-105285733D01*
X127047256Y-105285739D01*
X126875739Y-105457256D01*
X126875733Y-105457263D01*
X126728067Y-105649706D01*
X126606777Y-105859785D01*
X126606773Y-105859794D01*
X126513947Y-106083895D01*
X126451161Y-106318214D01*
X126419500Y-106558711D01*
X124460000Y-106558711D01*
X124460000Y-101175441D01*
X137209500Y-101175441D01*
X137209500Y-101424558D01*
X137209501Y-101424575D01*
X137242017Y-101671561D01*
X137306498Y-101912207D01*
X137401830Y-102142361D01*
X137401837Y-102142376D01*
X137526400Y-102358126D01*
X137678060Y-102555774D01*
X137678066Y-102555781D01*
X137854218Y-102731933D01*
X137854225Y-102731939D01*
X138051873Y-102883599D01*
X138267623Y-103008162D01*
X138267638Y-103008169D01*
X138366825Y-103049253D01*
X138497793Y-103103502D01*
X138738435Y-103167982D01*
X138985435Y-103200500D01*
X138985442Y-103200500D01*
X139234558Y-103200500D01*
X139234565Y-103200500D01*
X139481565Y-103167982D01*
X139722207Y-103103502D01*
X139952373Y-103008164D01*
X140168127Y-102883599D01*
X140185854Y-102869997D01*
X146095034Y-102869997D01*
X146095034Y-102870002D01*
X146114858Y-103096599D01*
X146114860Y-103096610D01*
X146173730Y-103316317D01*
X146173735Y-103316331D01*
X146269863Y-103522478D01*
X146320974Y-103595472D01*
X147000000Y-102916446D01*
X147000000Y-102922661D01*
X147027259Y-103024394D01*
X147079920Y-103115606D01*
X147154394Y-103190080D01*
X147245606Y-103242741D01*
X147347339Y-103270000D01*
X147353553Y-103270000D01*
X146674526Y-103949025D01*
X146747513Y-104000132D01*
X146747521Y-104000136D01*
X146953668Y-104096264D01*
X146953682Y-104096269D01*
X147173389Y-104155139D01*
X147173400Y-104155141D01*
X147399998Y-104174966D01*
X147400002Y-104174966D01*
X147626599Y-104155141D01*
X147626610Y-104155139D01*
X147846317Y-104096269D01*
X147846331Y-104096264D01*
X148052478Y-104000136D01*
X148125471Y-103949024D01*
X147446447Y-103270000D01*
X147452661Y-103270000D01*
X147554394Y-103242741D01*
X147645606Y-103190080D01*
X147720080Y-103115606D01*
X147772741Y-103024394D01*
X147800000Y-102922661D01*
X147800000Y-102916447D01*
X148479024Y-103595471D01*
X148530136Y-103522478D01*
X148626264Y-103316331D01*
X148626269Y-103316317D01*
X148685139Y-103096610D01*
X148685141Y-103096599D01*
X148704966Y-102870002D01*
X148704966Y-102869997D01*
X148685141Y-102643400D01*
X148685139Y-102643389D01*
X148626269Y-102423682D01*
X148626264Y-102423668D01*
X148530136Y-102217521D01*
X148530132Y-102217513D01*
X148479025Y-102144526D01*
X147800000Y-102823551D01*
X147800000Y-102817339D01*
X147772741Y-102715606D01*
X147720080Y-102624394D01*
X147645606Y-102549920D01*
X147554394Y-102497259D01*
X147452661Y-102470000D01*
X147446448Y-102470000D01*
X148125472Y-101790974D01*
X148052478Y-101739863D01*
X147846331Y-101643735D01*
X147846317Y-101643730D01*
X147626610Y-101584860D01*
X147626599Y-101584858D01*
X147400002Y-101565034D01*
X147399998Y-101565034D01*
X147173400Y-101584858D01*
X147173389Y-101584860D01*
X146953682Y-101643730D01*
X146953673Y-101643734D01*
X146747516Y-101739866D01*
X146747512Y-101739868D01*
X146674526Y-101790973D01*
X146674526Y-101790974D01*
X147353553Y-102470000D01*
X147347339Y-102470000D01*
X147245606Y-102497259D01*
X147154394Y-102549920D01*
X147079920Y-102624394D01*
X147027259Y-102715606D01*
X147000000Y-102817339D01*
X147000000Y-102823552D01*
X146320974Y-102144526D01*
X146320973Y-102144526D01*
X146269868Y-102217512D01*
X146269866Y-102217516D01*
X146173734Y-102423673D01*
X146173730Y-102423682D01*
X146114860Y-102643389D01*
X146114858Y-102643400D01*
X146095034Y-102869997D01*
X140185854Y-102869997D01*
X140365776Y-102731938D01*
X140541938Y-102555776D01*
X140693599Y-102358127D01*
X140818164Y-102142373D01*
X140913502Y-101912207D01*
X140977982Y-101671565D01*
X141010500Y-101424565D01*
X141010500Y-101175435D01*
X140977982Y-100928435D01*
X140913502Y-100687793D01*
X140818164Y-100457627D01*
X140807064Y-100438402D01*
X140693599Y-100241873D01*
X140541939Y-100044225D01*
X140541933Y-100044218D01*
X140365781Y-99868066D01*
X140365774Y-99868060D01*
X140168126Y-99716400D01*
X139952376Y-99591837D01*
X139952361Y-99591830D01*
X139722207Y-99496498D01*
X139481561Y-99432017D01*
X139234575Y-99399501D01*
X139234570Y-99399500D01*
X139234565Y-99399500D01*
X138985435Y-99399500D01*
X138985429Y-99399500D01*
X138985424Y-99399501D01*
X138738438Y-99432017D01*
X138497792Y-99496498D01*
X138267638Y-99591830D01*
X138267623Y-99591837D01*
X138051873Y-99716400D01*
X137854225Y-99868060D01*
X137854218Y-99868066D01*
X137678066Y-100044218D01*
X137678060Y-100044225D01*
X137526400Y-100241873D01*
X137401837Y-100457623D01*
X137401830Y-100457638D01*
X137306498Y-100687792D01*
X137242017Y-100928438D01*
X137209501Y-101175424D01*
X137209500Y-101175441D01*
X124460000Y-101175441D01*
X124460000Y-99059997D01*
X146135034Y-99059997D01*
X146135034Y-99060002D01*
X146154858Y-99286599D01*
X146154860Y-99286610D01*
X146213730Y-99506317D01*
X146213735Y-99506331D01*
X146309863Y-99712478D01*
X146360974Y-99785472D01*
X147040000Y-99106446D01*
X147040000Y-99112661D01*
X147067259Y-99214394D01*
X147119920Y-99305606D01*
X147194394Y-99380080D01*
X147285606Y-99432741D01*
X147387339Y-99460000D01*
X147393553Y-99460000D01*
X146714526Y-100139025D01*
X146787513Y-100190132D01*
X146787521Y-100190136D01*
X146993668Y-100286264D01*
X146993682Y-100286269D01*
X147213389Y-100345139D01*
X147213400Y-100345141D01*
X147439998Y-100364966D01*
X147440002Y-100364966D01*
X147666599Y-100345141D01*
X147666610Y-100345139D01*
X147886317Y-100286269D01*
X147886331Y-100286264D01*
X148092478Y-100190136D01*
X148165471Y-100139024D01*
X147486447Y-99460000D01*
X147492661Y-99460000D01*
X147594394Y-99432741D01*
X147685606Y-99380080D01*
X147760080Y-99305606D01*
X147812741Y-99214394D01*
X147840000Y-99112661D01*
X147840000Y-99106447D01*
X148519024Y-99785471D01*
X148570136Y-99712478D01*
X148666264Y-99506331D01*
X148666269Y-99506317D01*
X148725139Y-99286610D01*
X148725141Y-99286599D01*
X148744966Y-99060002D01*
X148744966Y-99059997D01*
X148725141Y-98833400D01*
X148725139Y-98833389D01*
X148666269Y-98613682D01*
X148666264Y-98613668D01*
X148570136Y-98407521D01*
X148570132Y-98407513D01*
X148519025Y-98334526D01*
X147840000Y-99013551D01*
X147840000Y-99007339D01*
X147812741Y-98905606D01*
X147760080Y-98814394D01*
X147685606Y-98739920D01*
X147594394Y-98687259D01*
X147492661Y-98660000D01*
X147486448Y-98660000D01*
X148165472Y-97980974D01*
X148092478Y-97929863D01*
X147886331Y-97833735D01*
X147886317Y-97833730D01*
X147666610Y-97774860D01*
X147666599Y-97774858D01*
X147440002Y-97755034D01*
X147439998Y-97755034D01*
X147213400Y-97774858D01*
X147213389Y-97774860D01*
X146993682Y-97833730D01*
X146993673Y-97833734D01*
X146787516Y-97929866D01*
X146787512Y-97929868D01*
X146714526Y-97980973D01*
X146714526Y-97980974D01*
X147393553Y-98660000D01*
X147387339Y-98660000D01*
X147285606Y-98687259D01*
X147194394Y-98739920D01*
X147119920Y-98814394D01*
X147067259Y-98905606D01*
X147040000Y-99007339D01*
X147040000Y-99013552D01*
X146360974Y-98334526D01*
X146360973Y-98334526D01*
X146309868Y-98407512D01*
X146309866Y-98407516D01*
X146213734Y-98613673D01*
X146213730Y-98613682D01*
X146154860Y-98833389D01*
X146154858Y-98833400D01*
X146135034Y-99059997D01*
X124460000Y-99059997D01*
X124460000Y-95409998D01*
X137104390Y-95409998D01*
X137104390Y-95410001D01*
X137124804Y-95695433D01*
X137185628Y-95975037D01*
X137185630Y-95975043D01*
X137185631Y-95975046D01*
X137248557Y-96143757D01*
X137285635Y-96243166D01*
X137422770Y-96494309D01*
X137422775Y-96494317D01*
X137594254Y-96723387D01*
X137594270Y-96723405D01*
X137796594Y-96925729D01*
X137796612Y-96925745D01*
X138025682Y-97097224D01*
X138025690Y-97097229D01*
X138276833Y-97234364D01*
X138276832Y-97234364D01*
X138276836Y-97234365D01*
X138276839Y-97234367D01*
X138544954Y-97334369D01*
X138544960Y-97334370D01*
X138544962Y-97334371D01*
X138824566Y-97395195D01*
X138824568Y-97395195D01*
X138824572Y-97395196D01*
X139078220Y-97413337D01*
X139109999Y-97415610D01*
X139110000Y-97415610D01*
X139110001Y-97415610D01*
X139138595Y-97413564D01*
X139395428Y-97395196D01*
X139650145Y-97339786D01*
X139675037Y-97334371D01*
X139675037Y-97334370D01*
X139675046Y-97334369D01*
X139943161Y-97234367D01*
X140194315Y-97097226D01*
X140423395Y-96925739D01*
X140625739Y-96723395D01*
X140797226Y-96494315D01*
X140934367Y-96243161D01*
X141034369Y-95975046D01*
X141034371Y-95975037D01*
X141034785Y-95973136D01*
X141035098Y-95972561D01*
X141035620Y-95970787D01*
X141036005Y-95970900D01*
X141068273Y-95911815D01*
X141129598Y-95878333D01*
X141155950Y-95875500D01*
X143565812Y-95875500D01*
X143632851Y-95895185D01*
X143667387Y-95928377D01*
X143779954Y-96089141D01*
X143940858Y-96250045D01*
X143940861Y-96250047D01*
X144127266Y-96380568D01*
X144333504Y-96476739D01*
X144553308Y-96535635D01*
X144715230Y-96549801D01*
X144779998Y-96555468D01*
X144780000Y-96555468D01*
X144780002Y-96555468D01*
X144836673Y-96550509D01*
X145006692Y-96535635D01*
X145226496Y-96476739D01*
X145432734Y-96380568D01*
X145619139Y-96250047D01*
X145780047Y-96089139D01*
X145910568Y-95902734D01*
X146006739Y-95696496D01*
X146065635Y-95476692D01*
X146085468Y-95250000D01*
X146081968Y-95210000D01*
X146073192Y-95109682D01*
X146065635Y-95023308D01*
X146006739Y-94803504D01*
X145910568Y-94597266D01*
X145780047Y-94410861D01*
X145780045Y-94410858D01*
X145619141Y-94249954D01*
X145432734Y-94119432D01*
X145432732Y-94119431D01*
X145226497Y-94023261D01*
X145226488Y-94023258D01*
X145006697Y-93964366D01*
X145006693Y-93964365D01*
X145006692Y-93964365D01*
X145006691Y-93964364D01*
X145006686Y-93964364D01*
X144780002Y-93944532D01*
X144779998Y-93944532D01*
X144553313Y-93964364D01*
X144553302Y-93964366D01*
X144333511Y-94023258D01*
X144333502Y-94023261D01*
X144127267Y-94119431D01*
X144127265Y-94119432D01*
X143940858Y-94249954D01*
X143779954Y-94410858D01*
X143667387Y-94571623D01*
X143612811Y-94615248D01*
X143565812Y-94624500D01*
X141033964Y-94624500D01*
X140966925Y-94604815D01*
X140925132Y-94559927D01*
X140880621Y-94478412D01*
X140843734Y-94410858D01*
X140797229Y-94325690D01*
X140797224Y-94325682D01*
X140625745Y-94096612D01*
X140625729Y-94096594D01*
X140423405Y-93894270D01*
X140423387Y-93894254D01*
X140194317Y-93722775D01*
X140194309Y-93722770D01*
X139943166Y-93585635D01*
X139943167Y-93585635D01*
X139835915Y-93545632D01*
X139675046Y-93485631D01*
X139675043Y-93485630D01*
X139675037Y-93485628D01*
X139395433Y-93424804D01*
X139110001Y-93404390D01*
X139109999Y-93404390D01*
X138824566Y-93424804D01*
X138544962Y-93485628D01*
X138276833Y-93585635D01*
X138025690Y-93722770D01*
X138025682Y-93722775D01*
X137796612Y-93894254D01*
X137796594Y-93894270D01*
X137594270Y-94096594D01*
X137594254Y-94096612D01*
X137422775Y-94325682D01*
X137422770Y-94325690D01*
X137285635Y-94576833D01*
X137185628Y-94844962D01*
X137124804Y-95124566D01*
X137104390Y-95409998D01*
X124460000Y-95409998D01*
X124460000Y-90009998D01*
X137104390Y-90009998D01*
X137104390Y-90010001D01*
X137124804Y-90295433D01*
X137185628Y-90575037D01*
X137185630Y-90575043D01*
X137185631Y-90575046D01*
X137278014Y-90822734D01*
X137285635Y-90843166D01*
X137422770Y-91094309D01*
X137422775Y-91094317D01*
X137594254Y-91323387D01*
X137594270Y-91323405D01*
X137796594Y-91525729D01*
X137796612Y-91525745D01*
X138025682Y-91697224D01*
X138025690Y-91697229D01*
X138276833Y-91834364D01*
X138276832Y-91834364D01*
X138276836Y-91834365D01*
X138276839Y-91834367D01*
X138544954Y-91934369D01*
X138544960Y-91934370D01*
X138544962Y-91934371D01*
X138824566Y-91995195D01*
X138824568Y-91995195D01*
X138824572Y-91995196D01*
X139078220Y-92013337D01*
X139109999Y-92015610D01*
X139110000Y-92015610D01*
X139110001Y-92015610D01*
X139138595Y-92013564D01*
X139395428Y-91995196D01*
X139550511Y-91961460D01*
X139675037Y-91934371D01*
X139675037Y-91934370D01*
X139675046Y-91934369D01*
X139943161Y-91834367D01*
X139943166Y-91834364D01*
X139946148Y-91833252D01*
X140015840Y-91828268D01*
X140077163Y-91861753D01*
X141411263Y-93195855D01*
X141411267Y-93195858D01*
X141513710Y-93264309D01*
X141513711Y-93264309D01*
X141513715Y-93264312D01*
X141580396Y-93291931D01*
X141580398Y-93291933D01*
X141627543Y-93311461D01*
X141627548Y-93311463D01*
X141647597Y-93315451D01*
X141681196Y-93322134D01*
X141748392Y-93335501D01*
X141748394Y-93335501D01*
X141877721Y-93335501D01*
X141877741Y-93335500D01*
X149549548Y-93335500D01*
X149616587Y-93355185D01*
X149637229Y-93371819D01*
X151100586Y-94835177D01*
X151134071Y-94896500D01*
X151132680Y-94954949D01*
X151114367Y-95023296D01*
X151114364Y-95023313D01*
X151094532Y-95249999D01*
X151094532Y-95250001D01*
X151114364Y-95476686D01*
X151114366Y-95476697D01*
X151173258Y-95696488D01*
X151173261Y-95696497D01*
X151269431Y-95902732D01*
X151269432Y-95902734D01*
X151399954Y-96089141D01*
X151560858Y-96250045D01*
X151560861Y-96250047D01*
X151747266Y-96380568D01*
X151953504Y-96476739D01*
X152173308Y-96535635D01*
X152335230Y-96549801D01*
X152399998Y-96555468D01*
X152400000Y-96555468D01*
X152400002Y-96555468D01*
X152456673Y-96550509D01*
X152626692Y-96535635D01*
X152846496Y-96476739D01*
X153052734Y-96380568D01*
X153239139Y-96250047D01*
X153400047Y-96089139D01*
X153530568Y-95902734D01*
X153626739Y-95696496D01*
X153685635Y-95476692D01*
X153705468Y-95250000D01*
X153701968Y-95210000D01*
X153693192Y-95109682D01*
X153685635Y-95023308D01*
X153626739Y-94803504D01*
X153530568Y-94597266D01*
X153400047Y-94410861D01*
X153400045Y-94410858D01*
X153239141Y-94249954D01*
X153052734Y-94119432D01*
X153052732Y-94119431D01*
X152846497Y-94023261D01*
X152846488Y-94023258D01*
X152626697Y-93964366D01*
X152626693Y-93964365D01*
X152626692Y-93964365D01*
X152626691Y-93964364D01*
X152626686Y-93964364D01*
X152400002Y-93944532D01*
X152399999Y-93944532D01*
X152173313Y-93964364D01*
X152173296Y-93964367D01*
X152104949Y-93982680D01*
X152035099Y-93981016D01*
X151985177Y-93950586D01*
X151456763Y-93422173D01*
X151423278Y-93360850D01*
X151428262Y-93291159D01*
X151470133Y-93235225D01*
X151475503Y-93231423D01*
X151477498Y-93230090D01*
X151477509Y-93230087D01*
X151477508Y-93230085D01*
X151500361Y-93214815D01*
X151528733Y-93195858D01*
X151615858Y-93108733D01*
X151615858Y-93108731D01*
X151626066Y-93098524D01*
X151626067Y-93098521D01*
X153255179Y-91469410D01*
X153316500Y-91435927D01*
X153374947Y-91437317D01*
X153443308Y-91455635D01*
X153600780Y-91469412D01*
X153669998Y-91475468D01*
X153670000Y-91475468D01*
X153670002Y-91475468D01*
X153739220Y-91469412D01*
X153896692Y-91455635D01*
X154116496Y-91396739D01*
X154322734Y-91300568D01*
X154509139Y-91170047D01*
X154670047Y-91009139D01*
X154800568Y-90822734D01*
X154827618Y-90764724D01*
X154873790Y-90712285D01*
X154940983Y-90693133D01*
X155007865Y-90713348D01*
X155052382Y-90764725D01*
X155079429Y-90822728D01*
X155079432Y-90822734D01*
X155209954Y-91009141D01*
X155370858Y-91170045D01*
X155370861Y-91170047D01*
X155557266Y-91300568D01*
X155763504Y-91396739D01*
X155983308Y-91455635D01*
X156140780Y-91469412D01*
X156209998Y-91475468D01*
X156210000Y-91475468D01*
X156210002Y-91475468D01*
X156279220Y-91469412D01*
X156436692Y-91455635D01*
X156656496Y-91396739D01*
X156862734Y-91300568D01*
X157049139Y-91170047D01*
X157210047Y-91009139D01*
X157322613Y-90848377D01*
X157377189Y-90804752D01*
X157424188Y-90795500D01*
X158805812Y-90795500D01*
X158872851Y-90815185D01*
X158907387Y-90848377D01*
X159019954Y-91009141D01*
X159180858Y-91170045D01*
X159180861Y-91170047D01*
X159367266Y-91300568D01*
X159573504Y-91396739D01*
X159793308Y-91455635D01*
X159950780Y-91469412D01*
X160019998Y-91475468D01*
X160020000Y-91475468D01*
X160020002Y-91475468D01*
X160089220Y-91469412D01*
X160246692Y-91455635D01*
X160466496Y-91396739D01*
X160672734Y-91300568D01*
X160859139Y-91170047D01*
X161020047Y-91009139D01*
X161150568Y-90822734D01*
X161246739Y-90616496D01*
X161305635Y-90396692D01*
X161325468Y-90170000D01*
X161325004Y-90164701D01*
X161311470Y-90010000D01*
X161305635Y-89943308D01*
X161246739Y-89723504D01*
X161150568Y-89517266D01*
X161020047Y-89330861D01*
X161020045Y-89330858D01*
X160859141Y-89169954D01*
X160672734Y-89039432D01*
X160672732Y-89039431D01*
X160466497Y-88943261D01*
X160466488Y-88943258D01*
X160246697Y-88884366D01*
X160246693Y-88884365D01*
X160246692Y-88884365D01*
X160246691Y-88884364D01*
X160246686Y-88884364D01*
X160020002Y-88864532D01*
X160019998Y-88864532D01*
X159793313Y-88884364D01*
X159793302Y-88884366D01*
X159573511Y-88943258D01*
X159573502Y-88943261D01*
X159367267Y-89039431D01*
X159367265Y-89039432D01*
X159180858Y-89169954D01*
X159019954Y-89330858D01*
X158907387Y-89491623D01*
X158852811Y-89535248D01*
X158805812Y-89544500D01*
X157424188Y-89544500D01*
X157357149Y-89524815D01*
X157322613Y-89491623D01*
X157210045Y-89330858D01*
X157049141Y-89169954D01*
X156862734Y-89039432D01*
X156862732Y-89039431D01*
X156656497Y-88943261D01*
X156656488Y-88943258D01*
X156436697Y-88884366D01*
X156436693Y-88884365D01*
X156436692Y-88884365D01*
X156436691Y-88884364D01*
X156436686Y-88884364D01*
X156210002Y-88864532D01*
X156209998Y-88864532D01*
X155983313Y-88884364D01*
X155983302Y-88884366D01*
X155763511Y-88943258D01*
X155763502Y-88943261D01*
X155557267Y-89039431D01*
X155557265Y-89039432D01*
X155370858Y-89169954D01*
X155209954Y-89330858D01*
X155079432Y-89517265D01*
X155079431Y-89517267D01*
X155052382Y-89575275D01*
X155006209Y-89627714D01*
X154939016Y-89646866D01*
X154872135Y-89626650D01*
X154827618Y-89575275D01*
X154818872Y-89556519D01*
X154800568Y-89517266D01*
X154670047Y-89330861D01*
X154670045Y-89330858D01*
X154509141Y-89169954D01*
X154322734Y-89039432D01*
X154322732Y-89039431D01*
X154116497Y-88943261D01*
X154116488Y-88943258D01*
X153896697Y-88884366D01*
X153896693Y-88884365D01*
X153896692Y-88884365D01*
X153896691Y-88884364D01*
X153896686Y-88884364D01*
X153670002Y-88864532D01*
X153669998Y-88864532D01*
X153443313Y-88884364D01*
X153443302Y-88884366D01*
X153223511Y-88943258D01*
X153223502Y-88943261D01*
X153017267Y-89039431D01*
X153017265Y-89039432D01*
X152830858Y-89169954D01*
X152669954Y-89330858D01*
X152539432Y-89517265D01*
X152539431Y-89517267D01*
X152512382Y-89575275D01*
X152466209Y-89627714D01*
X152399016Y-89646866D01*
X152332135Y-89626650D01*
X152287618Y-89575275D01*
X152278872Y-89556519D01*
X152260568Y-89517266D01*
X152130047Y-89330861D01*
X152130045Y-89330858D01*
X151969141Y-89169954D01*
X151782734Y-89039432D01*
X151782732Y-89039431D01*
X151576497Y-88943261D01*
X151576488Y-88943258D01*
X151356697Y-88884366D01*
X151356693Y-88884365D01*
X151356692Y-88884365D01*
X151356691Y-88884364D01*
X151356686Y-88884364D01*
X151130002Y-88864532D01*
X151129998Y-88864532D01*
X150903313Y-88884364D01*
X150903302Y-88884366D01*
X150683511Y-88943258D01*
X150683502Y-88943261D01*
X150477267Y-89039431D01*
X150477265Y-89039432D01*
X150290858Y-89169954D01*
X150129954Y-89330858D01*
X149999432Y-89517265D01*
X149999431Y-89517267D01*
X149972382Y-89575275D01*
X149926209Y-89627714D01*
X149859016Y-89646866D01*
X149792135Y-89626650D01*
X149747618Y-89575275D01*
X149738872Y-89556519D01*
X149720568Y-89517266D01*
X149590047Y-89330861D01*
X149590045Y-89330858D01*
X149429141Y-89169954D01*
X149242734Y-89039432D01*
X149242732Y-89039431D01*
X149036497Y-88943261D01*
X149036488Y-88943258D01*
X148816697Y-88884366D01*
X148816693Y-88884365D01*
X148816692Y-88884365D01*
X148816691Y-88884364D01*
X148816686Y-88884364D01*
X148590002Y-88864532D01*
X148589998Y-88864532D01*
X148363313Y-88884364D01*
X148363302Y-88884366D01*
X148143511Y-88943258D01*
X148143502Y-88943261D01*
X147937267Y-89039431D01*
X147937265Y-89039432D01*
X147750858Y-89169954D01*
X147589954Y-89330858D01*
X147459432Y-89517265D01*
X147459431Y-89517267D01*
X147363261Y-89723502D01*
X147363258Y-89723511D01*
X147304366Y-89943302D01*
X147304364Y-89943313D01*
X147284532Y-90169998D01*
X147284532Y-90170001D01*
X147304364Y-90396686D01*
X147304366Y-90396697D01*
X147363258Y-90616488D01*
X147363261Y-90616497D01*
X147459431Y-90822732D01*
X147459432Y-90822734D01*
X147589954Y-91009141D01*
X147750858Y-91170045D01*
X147750861Y-91170047D01*
X147937266Y-91300568D01*
X148143504Y-91396739D01*
X148363308Y-91455635D01*
X148520780Y-91469412D01*
X148589998Y-91475468D01*
X148590000Y-91475468D01*
X148590002Y-91475468D01*
X148659220Y-91469412D01*
X148816692Y-91455635D01*
X149036496Y-91396739D01*
X149242734Y-91300568D01*
X149429139Y-91170047D01*
X149590047Y-91009139D01*
X149720568Y-90822734D01*
X149747618Y-90764724D01*
X149793790Y-90712285D01*
X149860983Y-90693133D01*
X149927865Y-90713348D01*
X149972382Y-90764725D01*
X149999429Y-90822728D01*
X149999432Y-90822734D01*
X150129954Y-91009141D01*
X150290858Y-91170045D01*
X150290861Y-91170047D01*
X150477266Y-91300568D01*
X150683504Y-91396739D01*
X150903308Y-91455635D01*
X151060780Y-91469412D01*
X151129998Y-91475468D01*
X151129999Y-91475468D01*
X151129999Y-91475467D01*
X151130000Y-91475468D01*
X151174102Y-91471609D01*
X151242600Y-91485375D01*
X151292784Y-91533989D01*
X151308718Y-91602018D01*
X151285344Y-91667862D01*
X151272590Y-91682818D01*
X150907229Y-92048181D01*
X150845906Y-92081666D01*
X150819548Y-92084500D01*
X142120453Y-92084500D01*
X142053414Y-92064815D01*
X142032772Y-92048181D01*
X141510320Y-91525729D01*
X140961752Y-90977162D01*
X140928268Y-90915840D01*
X140933252Y-90846148D01*
X140934364Y-90843166D01*
X140934367Y-90843161D01*
X141034369Y-90575046D01*
X141095196Y-90295428D01*
X141115610Y-90010000D01*
X141095196Y-89724572D01*
X141094963Y-89723502D01*
X141034371Y-89444962D01*
X141034370Y-89444960D01*
X141034369Y-89444954D01*
X140934367Y-89176839D01*
X140930607Y-89169954D01*
X140797229Y-88925690D01*
X140797224Y-88925682D01*
X140625745Y-88696612D01*
X140625729Y-88696594D01*
X140423405Y-88494270D01*
X140423387Y-88494254D01*
X140194317Y-88322775D01*
X140194309Y-88322770D01*
X139943166Y-88185635D01*
X139943167Y-88185635D01*
X139835915Y-88145632D01*
X139675046Y-88085631D01*
X139675043Y-88085630D01*
X139675037Y-88085628D01*
X139395433Y-88024804D01*
X139110001Y-88004390D01*
X139109999Y-88004390D01*
X138824566Y-88024804D01*
X138544962Y-88085628D01*
X138276833Y-88185635D01*
X138025690Y-88322770D01*
X138025682Y-88322775D01*
X137796612Y-88494254D01*
X137796594Y-88494270D01*
X137594270Y-88696594D01*
X137594254Y-88696612D01*
X137422775Y-88925682D01*
X137422770Y-88925690D01*
X137285635Y-89176833D01*
X137185628Y-89444962D01*
X137124804Y-89724566D01*
X137104390Y-90009998D01*
X124460000Y-90009998D01*
X124460000Y-83995441D01*
X137209500Y-83995441D01*
X137209500Y-84244558D01*
X137209501Y-84244575D01*
X137242017Y-84491561D01*
X137306498Y-84732207D01*
X137401830Y-84962361D01*
X137401837Y-84962376D01*
X137526400Y-85178126D01*
X137678060Y-85375774D01*
X137678066Y-85375781D01*
X137854218Y-85551933D01*
X137854225Y-85551939D01*
X138051873Y-85703599D01*
X138267623Y-85828162D01*
X138267638Y-85828169D01*
X138366825Y-85869253D01*
X138497793Y-85923502D01*
X138738435Y-85987982D01*
X138985435Y-86020500D01*
X138985442Y-86020500D01*
X139234558Y-86020500D01*
X139234565Y-86020500D01*
X139481565Y-85987982D01*
X139722207Y-85923502D01*
X139952373Y-85828164D01*
X140168127Y-85703599D01*
X140365776Y-85551938D01*
X140541938Y-85375776D01*
X140693599Y-85178127D01*
X140818164Y-84962373D01*
X140913502Y-84732207D01*
X140977982Y-84491565D01*
X141010500Y-84244565D01*
X141010500Y-83995435D01*
X140977982Y-83748435D01*
X140913502Y-83507793D01*
X140818164Y-83277627D01*
X140770566Y-83195185D01*
X140693599Y-83061873D01*
X140541939Y-82864225D01*
X140541933Y-82864218D01*
X140365781Y-82688066D01*
X140365774Y-82688060D01*
X140185847Y-82549998D01*
X143474532Y-82549998D01*
X143474532Y-82550001D01*
X143494364Y-82776686D01*
X143494366Y-82776697D01*
X143553258Y-82996488D01*
X143553261Y-82996497D01*
X143649431Y-83202732D01*
X143649432Y-83202734D01*
X143779954Y-83389141D01*
X143940858Y-83550045D01*
X143940861Y-83550047D01*
X144127266Y-83680568D01*
X144333504Y-83776739D01*
X144553308Y-83835635D01*
X144710780Y-83849412D01*
X144779998Y-83855468D01*
X144780000Y-83855468D01*
X144780002Y-83855468D01*
X144836807Y-83850498D01*
X145006692Y-83835635D01*
X145226496Y-83776739D01*
X145432734Y-83680568D01*
X145619139Y-83550047D01*
X145780047Y-83389139D01*
X145910568Y-83202734D01*
X146006739Y-82996496D01*
X146065635Y-82776692D01*
X146085468Y-82550000D01*
X146065635Y-82323308D01*
X146047318Y-82254947D01*
X146048981Y-82185101D01*
X146079408Y-82135180D01*
X146272772Y-81941816D01*
X146334095Y-81908334D01*
X146360452Y-81905500D01*
X147260951Y-81905500D01*
X147327990Y-81925185D01*
X147373745Y-81977989D01*
X147383689Y-82047147D01*
X147373333Y-82081905D01*
X147363262Y-82103502D01*
X147363258Y-82103511D01*
X147304366Y-82323302D01*
X147304364Y-82323313D01*
X147284532Y-82549998D01*
X147284532Y-82550001D01*
X147304364Y-82776686D01*
X147304366Y-82776697D01*
X147363258Y-82996488D01*
X147363261Y-82996497D01*
X147459431Y-83202732D01*
X147459432Y-83202734D01*
X147589954Y-83389141D01*
X147750858Y-83550045D01*
X147750861Y-83550047D01*
X147937266Y-83680568D01*
X148143504Y-83776739D01*
X148363308Y-83835635D01*
X148520780Y-83849412D01*
X148589998Y-83855468D01*
X148590000Y-83855468D01*
X148590002Y-83855468D01*
X148646807Y-83850498D01*
X148816692Y-83835635D01*
X148885048Y-83817319D01*
X148954896Y-83818980D01*
X149004822Y-83849412D01*
X150678229Y-85522819D01*
X150711714Y-85584142D01*
X150706730Y-85653834D01*
X150664858Y-85709767D01*
X150599394Y-85734184D01*
X150590548Y-85734500D01*
X148657741Y-85734500D01*
X148657721Y-85734499D01*
X148651607Y-85734499D01*
X148528394Y-85734499D01*
X148427597Y-85754548D01*
X148427592Y-85754548D01*
X148407549Y-85758536D01*
X148407547Y-85758536D01*
X148360397Y-85778067D01*
X148293719Y-85805685D01*
X148293717Y-85805686D01*
X148191266Y-85874141D01*
X145194821Y-88870586D01*
X145133498Y-88904071D01*
X145075048Y-88902680D01*
X145006697Y-88884366D01*
X145006693Y-88884365D01*
X145006692Y-88884365D01*
X144893346Y-88874448D01*
X144780001Y-88864532D01*
X144779998Y-88864532D01*
X144553313Y-88884364D01*
X144553302Y-88884366D01*
X144333511Y-88943258D01*
X144333502Y-88943261D01*
X144127267Y-89039431D01*
X144127265Y-89039432D01*
X143940858Y-89169954D01*
X143779954Y-89330858D01*
X143649432Y-89517265D01*
X143649431Y-89517267D01*
X143553261Y-89723502D01*
X143553258Y-89723511D01*
X143494366Y-89943302D01*
X143494364Y-89943313D01*
X143474532Y-90169998D01*
X143474532Y-90170001D01*
X143494364Y-90396686D01*
X143494366Y-90396697D01*
X143553258Y-90616488D01*
X143553261Y-90616497D01*
X143649431Y-90822732D01*
X143649432Y-90822734D01*
X143779954Y-91009141D01*
X143940858Y-91170045D01*
X143940861Y-91170047D01*
X144127266Y-91300568D01*
X144333504Y-91396739D01*
X144553308Y-91455635D01*
X144710780Y-91469412D01*
X144779998Y-91475468D01*
X144780000Y-91475468D01*
X144780002Y-91475468D01*
X144849220Y-91469412D01*
X145006692Y-91455635D01*
X145226496Y-91396739D01*
X145432734Y-91300568D01*
X145619139Y-91170047D01*
X145780047Y-91009139D01*
X145910568Y-90822734D01*
X146006739Y-90616496D01*
X146065635Y-90396692D01*
X146085468Y-90170000D01*
X146085004Y-90164701D01*
X146071470Y-90010000D01*
X146065635Y-89943308D01*
X146047318Y-89874948D01*
X146048981Y-89805103D01*
X146079410Y-89755179D01*
X148812772Y-87021819D01*
X148874095Y-86988334D01*
X148900453Y-86985500D01*
X162500951Y-86985500D01*
X162567990Y-87005185D01*
X162613745Y-87057989D01*
X162623689Y-87127147D01*
X162613333Y-87161905D01*
X162603262Y-87183502D01*
X162603258Y-87183511D01*
X162544366Y-87403302D01*
X162544364Y-87403313D01*
X162524532Y-87629998D01*
X162524532Y-87630001D01*
X162544364Y-87856686D01*
X162544366Y-87856697D01*
X162603258Y-88076488D01*
X162603261Y-88076497D01*
X162699431Y-88282732D01*
X162699432Y-88282734D01*
X162829954Y-88469141D01*
X162990858Y-88630045D01*
X162990861Y-88630047D01*
X163177266Y-88760568D01*
X163211769Y-88776657D01*
X163235275Y-88787618D01*
X163287714Y-88833791D01*
X163306866Y-88900984D01*
X163286650Y-88967865D01*
X163235275Y-89012382D01*
X163177267Y-89039431D01*
X163177265Y-89039432D01*
X162990858Y-89169954D01*
X162829954Y-89330858D01*
X162699432Y-89517265D01*
X162699431Y-89517267D01*
X162603261Y-89723502D01*
X162603258Y-89723511D01*
X162544366Y-89943302D01*
X162544364Y-89943313D01*
X162524532Y-90169998D01*
X162524532Y-90170001D01*
X162544364Y-90396686D01*
X162544366Y-90396697D01*
X162603258Y-90616488D01*
X162603261Y-90616497D01*
X162699431Y-90822732D01*
X162699432Y-90822734D01*
X162829954Y-91009141D01*
X162990858Y-91170045D01*
X162990861Y-91170047D01*
X163177266Y-91300568D01*
X163226240Y-91323405D01*
X163235275Y-91327618D01*
X163287714Y-91373791D01*
X163306866Y-91440984D01*
X163286650Y-91507865D01*
X163235275Y-91552382D01*
X163177267Y-91579431D01*
X163177265Y-91579432D01*
X162990858Y-91709954D01*
X162829954Y-91870858D01*
X162699432Y-92057265D01*
X162699431Y-92057267D01*
X162603261Y-92263502D01*
X162603258Y-92263511D01*
X162544366Y-92483302D01*
X162544364Y-92483313D01*
X162524532Y-92709998D01*
X162524532Y-92710001D01*
X162544364Y-92936686D01*
X162544366Y-92936697D01*
X162603258Y-93156488D01*
X162603261Y-93156497D01*
X162699431Y-93362732D01*
X162699432Y-93362734D01*
X162829954Y-93549141D01*
X162990858Y-93710045D01*
X162990861Y-93710047D01*
X163177266Y-93840568D01*
X163235275Y-93867618D01*
X163287714Y-93913791D01*
X163306866Y-93980984D01*
X163286650Y-94047865D01*
X163235275Y-94092381D01*
X163218272Y-94100310D01*
X163177267Y-94119431D01*
X163177265Y-94119432D01*
X162990858Y-94249954D01*
X162829954Y-94410858D01*
X162699432Y-94597265D01*
X162699431Y-94597267D01*
X162603261Y-94803502D01*
X162603258Y-94803511D01*
X162544366Y-95023302D01*
X162544364Y-95023313D01*
X162524532Y-95249998D01*
X162524532Y-95250001D01*
X162544364Y-95476686D01*
X162544366Y-95476697D01*
X162603258Y-95696488D01*
X162603260Y-95696492D01*
X162603261Y-95696496D01*
X162613333Y-95718095D01*
X162623825Y-95787173D01*
X162595305Y-95850957D01*
X162536829Y-95889196D01*
X162500951Y-95894500D01*
X159903150Y-95894500D01*
X159836111Y-95874815D01*
X159801575Y-95841623D01*
X159711599Y-95713124D01*
X159681859Y-95683384D01*
X159556877Y-95558402D01*
X159377639Y-95432898D01*
X159377640Y-95432898D01*
X159377638Y-95432897D01*
X159278484Y-95386661D01*
X159179330Y-95340425D01*
X159179326Y-95340424D01*
X159179322Y-95340422D01*
X158967977Y-95283793D01*
X158750002Y-95264723D01*
X158749998Y-95264723D01*
X158604682Y-95277436D01*
X158532023Y-95283793D01*
X158532020Y-95283793D01*
X158320677Y-95340422D01*
X158320668Y-95340426D01*
X158122361Y-95432898D01*
X158122357Y-95432900D01*
X157943121Y-95558402D01*
X157788402Y-95713121D01*
X157698425Y-95841623D01*
X157643848Y-95885248D01*
X157596850Y-95894500D01*
X154918388Y-95894500D01*
X154797555Y-95918535D01*
X154797547Y-95918537D01*
X154683716Y-95965687D01*
X154615209Y-96011463D01*
X154615208Y-96011464D01*
X154581263Y-96034144D01*
X152854821Y-97760586D01*
X152793498Y-97794071D01*
X152735048Y-97792680D01*
X152666697Y-97774366D01*
X152666693Y-97774365D01*
X152666692Y-97774365D01*
X152553346Y-97764448D01*
X152440001Y-97754532D01*
X152439998Y-97754532D01*
X152213313Y-97774364D01*
X152213302Y-97774366D01*
X151993511Y-97833258D01*
X151993502Y-97833261D01*
X151787267Y-97929431D01*
X151787265Y-97929432D01*
X151600858Y-98059954D01*
X151439954Y-98220858D01*
X151309432Y-98407265D01*
X151309431Y-98407267D01*
X151213261Y-98613502D01*
X151213258Y-98613511D01*
X151154366Y-98833302D01*
X151154364Y-98833313D01*
X151134532Y-99059998D01*
X151134532Y-99060001D01*
X151154364Y-99286686D01*
X151154366Y-99286697D01*
X151213258Y-99506488D01*
X151213261Y-99506497D01*
X151309431Y-99712732D01*
X151309432Y-99712734D01*
X151439954Y-99899141D01*
X151600858Y-100060045D01*
X151600861Y-100060047D01*
X151787266Y-100190568D01*
X151993504Y-100286739D01*
X151993509Y-100286740D01*
X151993511Y-100286741D01*
X152042991Y-100299999D01*
X152213308Y-100345635D01*
X152375230Y-100359801D01*
X152439998Y-100365468D01*
X152440000Y-100365468D01*
X152440002Y-100365468D01*
X152496673Y-100360509D01*
X152666692Y-100345635D01*
X152886496Y-100286739D01*
X153092734Y-100190568D01*
X153279139Y-100060047D01*
X153440047Y-99899139D01*
X153570568Y-99712734D01*
X153666739Y-99506496D01*
X153725635Y-99286692D01*
X153745468Y-99060000D01*
X153725635Y-98833308D01*
X153707318Y-98764948D01*
X153708981Y-98695103D01*
X153739410Y-98645179D01*
X155202772Y-97181819D01*
X155264095Y-97148334D01*
X155290453Y-97145500D01*
X157596851Y-97145500D01*
X157663890Y-97165185D01*
X157698423Y-97198374D01*
X157788402Y-97326877D01*
X157943123Y-97481598D01*
X158122361Y-97607102D01*
X158320670Y-97699575D01*
X158532023Y-97756207D01*
X158714926Y-97772208D01*
X158749998Y-97775277D01*
X158750000Y-97775277D01*
X158750002Y-97775277D01*
X158778254Y-97772805D01*
X158967977Y-97756207D01*
X159179330Y-97699575D01*
X159377639Y-97607102D01*
X159556877Y-97481598D01*
X159711598Y-97326877D01*
X159801575Y-97198375D01*
X159856151Y-97154752D01*
X159903149Y-97145500D01*
X162249548Y-97145500D01*
X162316587Y-97165185D01*
X162337229Y-97181819D01*
X162530586Y-97375176D01*
X162564071Y-97436499D01*
X162562681Y-97494948D01*
X162544365Y-97563307D01*
X162544364Y-97563313D01*
X162524532Y-97789999D01*
X162524532Y-97790001D01*
X162544364Y-98016686D01*
X162544366Y-98016697D01*
X162603258Y-98236488D01*
X162603261Y-98236497D01*
X162699431Y-98442732D01*
X162699432Y-98442734D01*
X162829954Y-98629141D01*
X162990858Y-98790045D01*
X162990861Y-98790047D01*
X163177266Y-98920568D01*
X163235275Y-98947618D01*
X163287714Y-98993791D01*
X163306866Y-99060984D01*
X163286650Y-99127865D01*
X163235275Y-99172382D01*
X163177267Y-99199431D01*
X163177265Y-99199432D01*
X162990858Y-99329954D01*
X162829954Y-99490858D01*
X162699432Y-99677265D01*
X162699431Y-99677267D01*
X162603261Y-99883502D01*
X162603258Y-99883511D01*
X162544366Y-100103302D01*
X162544364Y-100103313D01*
X162527157Y-100299998D01*
X162524532Y-100330000D01*
X162544364Y-100556686D01*
X162544365Y-100556691D01*
X162544365Y-100556694D01*
X162560901Y-100618407D01*
X162559238Y-100688257D01*
X162520075Y-100746119D01*
X162455846Y-100773623D01*
X162441126Y-100774500D01*
X159903150Y-100774500D01*
X159836111Y-100754815D01*
X159801575Y-100721623D01*
X159711599Y-100593124D01*
X159675161Y-100556686D01*
X159556877Y-100438402D01*
X159402060Y-100329998D01*
X159377638Y-100312897D01*
X159225325Y-100241873D01*
X159179330Y-100220425D01*
X159179326Y-100220424D01*
X159179322Y-100220422D01*
X158967977Y-100163793D01*
X158750002Y-100144723D01*
X158749998Y-100144723D01*
X158604682Y-100157436D01*
X158532023Y-100163793D01*
X158532020Y-100163793D01*
X158320677Y-100220422D01*
X158320668Y-100220426D01*
X158122361Y-100312898D01*
X158122357Y-100312900D01*
X157943121Y-100438402D01*
X157788402Y-100593121D01*
X157698425Y-100721623D01*
X157643848Y-100765248D01*
X157596850Y-100774500D01*
X153808389Y-100774500D01*
X153747971Y-100786518D01*
X153687548Y-100798537D01*
X153687543Y-100798538D01*
X153653546Y-100812620D01*
X153640397Y-100818067D01*
X153618169Y-100827274D01*
X153573713Y-100845688D01*
X153563557Y-100852475D01*
X153563449Y-100852547D01*
X153471268Y-100914140D01*
X153427705Y-100957703D01*
X153384142Y-101001267D01*
X153384139Y-101001270D01*
X152814822Y-101570586D01*
X152753499Y-101604071D01*
X152695049Y-101602680D01*
X152626699Y-101584367D01*
X152626702Y-101584367D01*
X152626692Y-101584365D01*
X152626689Y-101584364D01*
X152626686Y-101584364D01*
X152400001Y-101564532D01*
X152399998Y-101564532D01*
X152173313Y-101584364D01*
X152173302Y-101584366D01*
X151953511Y-101643258D01*
X151953502Y-101643261D01*
X151747267Y-101739431D01*
X151747265Y-101739432D01*
X151560858Y-101869954D01*
X151399954Y-102030858D01*
X151269432Y-102217265D01*
X151269431Y-102217267D01*
X151173261Y-102423502D01*
X151173258Y-102423511D01*
X151114366Y-102643302D01*
X151114364Y-102643313D01*
X151094532Y-102869998D01*
X151094532Y-102870001D01*
X151114364Y-103096686D01*
X151114366Y-103096697D01*
X151173258Y-103316488D01*
X151173261Y-103316497D01*
X151269431Y-103522732D01*
X151269432Y-103522734D01*
X151399954Y-103709141D01*
X151560858Y-103870045D01*
X151560861Y-103870047D01*
X151747266Y-104000568D01*
X151953504Y-104096739D01*
X152173308Y-104155635D01*
X152335230Y-104169801D01*
X152399998Y-104175468D01*
X152400000Y-104175468D01*
X152400002Y-104175468D01*
X152456673Y-104170509D01*
X152626692Y-104155635D01*
X152846496Y-104096739D01*
X153052734Y-104000568D01*
X153239139Y-103870047D01*
X153400047Y-103709139D01*
X153530568Y-103522734D01*
X153626739Y-103316496D01*
X153685635Y-103096692D01*
X153705468Y-102870000D01*
X153685635Y-102643308D01*
X153667318Y-102574947D01*
X153668981Y-102505101D01*
X153699410Y-102455178D01*
X154092771Y-102061819D01*
X154154094Y-102028334D01*
X154180452Y-102025500D01*
X157596851Y-102025500D01*
X157663890Y-102045185D01*
X157698423Y-102078374D01*
X157788402Y-102206877D01*
X157943123Y-102361598D01*
X158122361Y-102487102D01*
X158320670Y-102579575D01*
X158532023Y-102636207D01*
X158714926Y-102652208D01*
X158749998Y-102655277D01*
X158750000Y-102655277D01*
X158750002Y-102655277D01*
X158778254Y-102652805D01*
X158967977Y-102636207D01*
X159179330Y-102579575D01*
X159377639Y-102487102D01*
X159556877Y-102361598D01*
X159711598Y-102206877D01*
X159801575Y-102078375D01*
X159856151Y-102034752D01*
X159903149Y-102025500D01*
X162596116Y-102025500D01*
X162663155Y-102045185D01*
X162708910Y-102097989D01*
X162718854Y-102167147D01*
X162701109Y-102211979D01*
X162702575Y-102212825D01*
X162699866Y-102217516D01*
X162603734Y-102423673D01*
X162603730Y-102423682D01*
X162551127Y-102619999D01*
X162551128Y-102620000D01*
X163514314Y-102620000D01*
X163509920Y-102624394D01*
X163457259Y-102715606D01*
X163430000Y-102817339D01*
X163430000Y-102922661D01*
X163457259Y-103024394D01*
X163509920Y-103115606D01*
X163514314Y-103120000D01*
X162551128Y-103120000D01*
X162603730Y-103316317D01*
X162603734Y-103316326D01*
X162699865Y-103522482D01*
X162830342Y-103708820D01*
X162991179Y-103869657D01*
X163177517Y-104000134D01*
X163383673Y-104096265D01*
X163383682Y-104096269D01*
X163579999Y-104148872D01*
X163580000Y-104148871D01*
X163580000Y-103185686D01*
X163584394Y-103190080D01*
X163675606Y-103242741D01*
X163777339Y-103270000D01*
X163882661Y-103270000D01*
X163984394Y-103242741D01*
X164075606Y-103190080D01*
X164080000Y-103185686D01*
X164080000Y-104148872D01*
X164276317Y-104096269D01*
X164276326Y-104096265D01*
X164482482Y-104000134D01*
X164668820Y-103869657D01*
X164829657Y-103708820D01*
X164960134Y-103522482D01*
X165056265Y-103316326D01*
X165056269Y-103316317D01*
X165108872Y-103120000D01*
X164145686Y-103120000D01*
X164150080Y-103115606D01*
X164202741Y-103024394D01*
X164230000Y-102922661D01*
X164230000Y-102817339D01*
X164202741Y-102715606D01*
X164150080Y-102624394D01*
X164145686Y-102620000D01*
X165108872Y-102620000D01*
X165108872Y-102619999D01*
X165056269Y-102423682D01*
X165056265Y-102423673D01*
X164960134Y-102217517D01*
X164829657Y-102031179D01*
X164668820Y-101870342D01*
X164482482Y-101739865D01*
X164424133Y-101712657D01*
X164371694Y-101666484D01*
X164352542Y-101599291D01*
X164372758Y-101532410D01*
X164424129Y-101487895D01*
X164482734Y-101460568D01*
X164669139Y-101330047D01*
X164830047Y-101169139D01*
X164960568Y-100982734D01*
X165056739Y-100776496D01*
X165115635Y-100556692D01*
X165135468Y-100330000D01*
X165115635Y-100103308D01*
X165056739Y-99883504D01*
X164960568Y-99677266D01*
X164830047Y-99490861D01*
X164830045Y-99490858D01*
X164669141Y-99329954D01*
X164482734Y-99199432D01*
X164482728Y-99199429D01*
X164424725Y-99172382D01*
X164372285Y-99126210D01*
X164353133Y-99059017D01*
X164373348Y-98992135D01*
X164424725Y-98947618D01*
X164482734Y-98920568D01*
X164669139Y-98790047D01*
X164830047Y-98629139D01*
X164960568Y-98442734D01*
X165056739Y-98236496D01*
X165115635Y-98016692D01*
X165135468Y-97790000D01*
X165134143Y-97774860D01*
X165120584Y-97619873D01*
X165115635Y-97563308D01*
X165056739Y-97343504D01*
X164960568Y-97137266D01*
X164830047Y-96950861D01*
X164830045Y-96950858D01*
X164669141Y-96789954D01*
X164482734Y-96659432D01*
X164482728Y-96659429D01*
X164424725Y-96632382D01*
X164372285Y-96586210D01*
X164353133Y-96519017D01*
X164373348Y-96452135D01*
X164424725Y-96407618D01*
X164482734Y-96380568D01*
X164669139Y-96250047D01*
X164830047Y-96089139D01*
X164960568Y-95902734D01*
X165056739Y-95696496D01*
X165115635Y-95476692D01*
X165135468Y-95250000D01*
X165131968Y-95210000D01*
X165123192Y-95109682D01*
X165115635Y-95023308D01*
X165056739Y-94803504D01*
X164960568Y-94597266D01*
X164830047Y-94410861D01*
X164830045Y-94410858D01*
X164669141Y-94249954D01*
X164482734Y-94119432D01*
X164482728Y-94119429D01*
X164455038Y-94106517D01*
X164424724Y-94092381D01*
X164372285Y-94046210D01*
X164353133Y-93979017D01*
X164373348Y-93912135D01*
X164424725Y-93867618D01*
X164482734Y-93840568D01*
X164669139Y-93710047D01*
X164830047Y-93549139D01*
X164960568Y-93362734D01*
X165056739Y-93156496D01*
X165115635Y-92936692D01*
X165135468Y-92710000D01*
X165115635Y-92483308D01*
X165056739Y-92263504D01*
X164960568Y-92057266D01*
X164830047Y-91870861D01*
X164830045Y-91870858D01*
X164669141Y-91709954D01*
X164482734Y-91579432D01*
X164482728Y-91579429D01*
X164424725Y-91552382D01*
X164372285Y-91506210D01*
X164353133Y-91439017D01*
X164373348Y-91372135D01*
X164424725Y-91327618D01*
X164433760Y-91323405D01*
X164482734Y-91300568D01*
X164669139Y-91170047D01*
X164830047Y-91009139D01*
X164960568Y-90822734D01*
X165056739Y-90616496D01*
X165115635Y-90396692D01*
X165135468Y-90170000D01*
X165135004Y-90164701D01*
X165121470Y-90010000D01*
X165115635Y-89943308D01*
X165056739Y-89723504D01*
X164960568Y-89517266D01*
X164830047Y-89330861D01*
X164830045Y-89330858D01*
X164669141Y-89169954D01*
X164482734Y-89039432D01*
X164482728Y-89039429D01*
X164455038Y-89026517D01*
X164424724Y-89012381D01*
X164372285Y-88966210D01*
X164353133Y-88899017D01*
X164373348Y-88832135D01*
X164424725Y-88787618D01*
X164482734Y-88760568D01*
X164669139Y-88630047D01*
X164830047Y-88469139D01*
X164960568Y-88282734D01*
X165056739Y-88076496D01*
X165115635Y-87856692D01*
X165135468Y-87630000D01*
X165133690Y-87609682D01*
X165129801Y-87565230D01*
X165115635Y-87403308D01*
X165056739Y-87183504D01*
X165046666Y-87161904D01*
X165036175Y-87092827D01*
X165064695Y-87029043D01*
X165123171Y-86990804D01*
X165159049Y-86985500D01*
X170120951Y-86985500D01*
X170187990Y-87005185D01*
X170233745Y-87057989D01*
X170243689Y-87127147D01*
X170233333Y-87161905D01*
X170223262Y-87183502D01*
X170223258Y-87183511D01*
X170164366Y-87403302D01*
X170164364Y-87403313D01*
X170144532Y-87629998D01*
X170144532Y-87630001D01*
X170164364Y-87856686D01*
X170164366Y-87856697D01*
X170223258Y-88076488D01*
X170223261Y-88076497D01*
X170319431Y-88282732D01*
X170319432Y-88282734D01*
X170449954Y-88469141D01*
X170610858Y-88630045D01*
X170610861Y-88630047D01*
X170797266Y-88760568D01*
X170831769Y-88776657D01*
X170855275Y-88787618D01*
X170907714Y-88833791D01*
X170926866Y-88900984D01*
X170906650Y-88967865D01*
X170855275Y-89012382D01*
X170797267Y-89039431D01*
X170797265Y-89039432D01*
X170610858Y-89169954D01*
X170449954Y-89330858D01*
X170319432Y-89517265D01*
X170319431Y-89517267D01*
X170223261Y-89723502D01*
X170223258Y-89723511D01*
X170164366Y-89943302D01*
X170164364Y-89943313D01*
X170144532Y-90169998D01*
X170144532Y-90170001D01*
X170164364Y-90396686D01*
X170164366Y-90396697D01*
X170223258Y-90616488D01*
X170223261Y-90616497D01*
X170319431Y-90822732D01*
X170319432Y-90822734D01*
X170449954Y-91009141D01*
X170610858Y-91170045D01*
X170610861Y-91170047D01*
X170797266Y-91300568D01*
X170846240Y-91323405D01*
X170855275Y-91327618D01*
X170907714Y-91373791D01*
X170926866Y-91440984D01*
X170906650Y-91507865D01*
X170855275Y-91552382D01*
X170797267Y-91579431D01*
X170797265Y-91579432D01*
X170610858Y-91709954D01*
X170449954Y-91870858D01*
X170319432Y-92057265D01*
X170319431Y-92057267D01*
X170223261Y-92263502D01*
X170223258Y-92263511D01*
X170164366Y-92483302D01*
X170164364Y-92483313D01*
X170144532Y-92709998D01*
X170144532Y-92710001D01*
X170164364Y-92936686D01*
X170164366Y-92936697D01*
X170223258Y-93156488D01*
X170223261Y-93156497D01*
X170319431Y-93362732D01*
X170319432Y-93362734D01*
X170449954Y-93549141D01*
X170610858Y-93710045D01*
X170610861Y-93710047D01*
X170797266Y-93840568D01*
X170855275Y-93867618D01*
X170907714Y-93913791D01*
X170926866Y-93980984D01*
X170906650Y-94047865D01*
X170855275Y-94092381D01*
X170838272Y-94100310D01*
X170797267Y-94119431D01*
X170797265Y-94119432D01*
X170610858Y-94249954D01*
X170449954Y-94410858D01*
X170319432Y-94597265D01*
X170319431Y-94597267D01*
X170223261Y-94803502D01*
X170223258Y-94803511D01*
X170164366Y-95023302D01*
X170164364Y-95023313D01*
X170144532Y-95249998D01*
X170144532Y-95250001D01*
X170164364Y-95476686D01*
X170164366Y-95476697D01*
X170223258Y-95696488D01*
X170223261Y-95696497D01*
X170319431Y-95902732D01*
X170319432Y-95902734D01*
X170449954Y-96089141D01*
X170610858Y-96250045D01*
X170610861Y-96250047D01*
X170797266Y-96380568D01*
X170855275Y-96407618D01*
X170907714Y-96453791D01*
X170926866Y-96520984D01*
X170906650Y-96587865D01*
X170855275Y-96632382D01*
X170797267Y-96659431D01*
X170797265Y-96659432D01*
X170610858Y-96789954D01*
X170449954Y-96950858D01*
X170319432Y-97137265D01*
X170319431Y-97137267D01*
X170223261Y-97343502D01*
X170223258Y-97343511D01*
X170164366Y-97563302D01*
X170164364Y-97563313D01*
X170144532Y-97789998D01*
X170144532Y-97790001D01*
X170164364Y-98016686D01*
X170164366Y-98016697D01*
X170223258Y-98236488D01*
X170223261Y-98236497D01*
X170319431Y-98442732D01*
X170319432Y-98442734D01*
X170449954Y-98629141D01*
X170610858Y-98790045D01*
X170610861Y-98790047D01*
X170797266Y-98920568D01*
X170855275Y-98947618D01*
X170907714Y-98993791D01*
X170926866Y-99060984D01*
X170906650Y-99127865D01*
X170855275Y-99172382D01*
X170797267Y-99199431D01*
X170797265Y-99199432D01*
X170610858Y-99329954D01*
X170449954Y-99490858D01*
X170319432Y-99677265D01*
X170319431Y-99677267D01*
X170223261Y-99883502D01*
X170223258Y-99883511D01*
X170164366Y-100103302D01*
X170164364Y-100103313D01*
X170144532Y-100329998D01*
X170144532Y-100330001D01*
X170164364Y-100556686D01*
X170164366Y-100556697D01*
X170223258Y-100776488D01*
X170223261Y-100776497D01*
X170319431Y-100982732D01*
X170319432Y-100982734D01*
X170449954Y-101169141D01*
X170610858Y-101330045D01*
X170610861Y-101330047D01*
X170797266Y-101460568D01*
X170849843Y-101485085D01*
X170855275Y-101487618D01*
X170907714Y-101533791D01*
X170926866Y-101600984D01*
X170906650Y-101667865D01*
X170855275Y-101712382D01*
X170797267Y-101739431D01*
X170797265Y-101739432D01*
X170610858Y-101869954D01*
X170449954Y-102030858D01*
X170319432Y-102217265D01*
X170319431Y-102217267D01*
X170223261Y-102423502D01*
X170223258Y-102423511D01*
X170164366Y-102643302D01*
X170164364Y-102643313D01*
X170144532Y-102869998D01*
X170144532Y-102870001D01*
X170164364Y-103096686D01*
X170164366Y-103096697D01*
X170223258Y-103316488D01*
X170223261Y-103316497D01*
X170319431Y-103522732D01*
X170319432Y-103522734D01*
X170449954Y-103709141D01*
X170610858Y-103870045D01*
X170610861Y-103870047D01*
X170797266Y-104000568D01*
X171003504Y-104096739D01*
X171223308Y-104155635D01*
X171385230Y-104169801D01*
X171449998Y-104175468D01*
X171450000Y-104175468D01*
X171450002Y-104175468D01*
X171506673Y-104170509D01*
X171676692Y-104155635D01*
X171896496Y-104096739D01*
X172102734Y-104000568D01*
X172289139Y-103870047D01*
X172450047Y-103709139D01*
X172580568Y-103522734D01*
X172676739Y-103316496D01*
X172735635Y-103096692D01*
X172755468Y-102870000D01*
X172735635Y-102643308D01*
X172676739Y-102423504D01*
X172580568Y-102217266D01*
X172460077Y-102045185D01*
X172450045Y-102030858D01*
X172289141Y-101869954D01*
X172102734Y-101739432D01*
X172102728Y-101739429D01*
X172044725Y-101712382D01*
X171992285Y-101666210D01*
X171973133Y-101599017D01*
X171993348Y-101532135D01*
X172044725Y-101487618D01*
X172050157Y-101485085D01*
X172102734Y-101460568D01*
X172289139Y-101330047D01*
X172450047Y-101169139D01*
X172580568Y-100982734D01*
X172676739Y-100776496D01*
X172735635Y-100556692D01*
X172755468Y-100330000D01*
X172751609Y-100285896D01*
X172765375Y-100217398D01*
X172813990Y-100167214D01*
X172882018Y-100151280D01*
X172947862Y-100174655D01*
X172962818Y-100187408D01*
X174136016Y-101360606D01*
X174136045Y-101360637D01*
X174226264Y-101450856D01*
X174226267Y-101450858D01*
X174277490Y-101485084D01*
X174328714Y-101519312D01*
X174409207Y-101552652D01*
X174442548Y-101566463D01*
X174502971Y-101578481D01*
X174563393Y-101590500D01*
X183376607Y-101590500D01*
X183437029Y-101578481D01*
X183497452Y-101566463D01*
X183497455Y-101566461D01*
X183497458Y-101566461D01*
X183530787Y-101552654D01*
X183530786Y-101552654D01*
X183530792Y-101552652D01*
X183611286Y-101519312D01*
X183662509Y-101485084D01*
X183662511Y-101485083D01*
X183675271Y-101476556D01*
X183713733Y-101450858D01*
X183800858Y-101363733D01*
X183800858Y-101363731D01*
X183811066Y-101353524D01*
X183811068Y-101353521D01*
X184817771Y-100346818D01*
X184879094Y-100313333D01*
X184905452Y-100310499D01*
X186195002Y-100310499D01*
X186195008Y-100310499D01*
X186297797Y-100299999D01*
X186464334Y-100244814D01*
X186613656Y-100152712D01*
X186737712Y-100028656D01*
X186829814Y-99879334D01*
X186884999Y-99712797D01*
X186895500Y-99610009D01*
X186895499Y-98309992D01*
X186887990Y-98236488D01*
X186884999Y-98207203D01*
X186884998Y-98207200D01*
X186884210Y-98204822D01*
X186829814Y-98040666D01*
X186737712Y-97891344D01*
X186613656Y-97767288D01*
X186464334Y-97675186D01*
X186464333Y-97675185D01*
X186458878Y-97671821D01*
X186412154Y-97619873D01*
X186400931Y-97550910D01*
X186428775Y-97486828D01*
X186436272Y-97478623D01*
X186575104Y-97339792D01*
X186700051Y-97167816D01*
X186796557Y-96978412D01*
X186862246Y-96776243D01*
X186895500Y-96566287D01*
X186895500Y-96353713D01*
X186862246Y-96143757D01*
X186796557Y-95941588D01*
X186700051Y-95752184D01*
X186700049Y-95752181D01*
X186700048Y-95752179D01*
X186575109Y-95580213D01*
X186424792Y-95429896D01*
X186424784Y-95429890D01*
X186260204Y-95310316D01*
X186217540Y-95254989D01*
X186211561Y-95185376D01*
X186244166Y-95123580D01*
X186260199Y-95109686D01*
X186424792Y-94990104D01*
X186575104Y-94839792D01*
X186575106Y-94839788D01*
X186575109Y-94839786D01*
X186700048Y-94667820D01*
X186700050Y-94667817D01*
X186700051Y-94667816D01*
X186796557Y-94478412D01*
X186862246Y-94276243D01*
X186895500Y-94066287D01*
X186895500Y-93853713D01*
X186862246Y-93643757D01*
X186796557Y-93441588D01*
X186700051Y-93252184D01*
X186700049Y-93252181D01*
X186700048Y-93252179D01*
X186575109Y-93080213D01*
X186424792Y-92929896D01*
X186424784Y-92929890D01*
X186260204Y-92810316D01*
X186217540Y-92754989D01*
X186211561Y-92685376D01*
X186244166Y-92623580D01*
X186260199Y-92609686D01*
X186424792Y-92490104D01*
X186575104Y-92339792D01*
X186575106Y-92339788D01*
X186575109Y-92339786D01*
X186700048Y-92167820D01*
X186700050Y-92167817D01*
X186700051Y-92167816D01*
X186796557Y-91978412D01*
X186862246Y-91776243D01*
X186895500Y-91566287D01*
X186895500Y-91353713D01*
X186862246Y-91143757D01*
X186796557Y-90941588D01*
X186700051Y-90752184D01*
X186700049Y-90752181D01*
X186700048Y-90752179D01*
X186575109Y-90580213D01*
X186424790Y-90429894D01*
X186424785Y-90429890D01*
X186259781Y-90310008D01*
X186217115Y-90254678D01*
X186211136Y-90185065D01*
X186243741Y-90123270D01*
X186259781Y-90109371D01*
X186424466Y-89989721D01*
X186574723Y-89839464D01*
X186574727Y-89839459D01*
X186699620Y-89667557D01*
X186796095Y-89478217D01*
X186861757Y-89276129D01*
X186861757Y-89276126D01*
X186872231Y-89210000D01*
X185824146Y-89210000D01*
X185862630Y-89143343D01*
X185895000Y-89022535D01*
X185895000Y-88897465D01*
X185862630Y-88776657D01*
X185824146Y-88710000D01*
X186872231Y-88710000D01*
X186861757Y-88643873D01*
X186861757Y-88643870D01*
X186796095Y-88441782D01*
X186699620Y-88252442D01*
X186574727Y-88080540D01*
X186574723Y-88080535D01*
X186424460Y-87930272D01*
X186259355Y-87810318D01*
X186216689Y-87754989D01*
X186210710Y-87685375D01*
X186243315Y-87623580D01*
X186259355Y-87609682D01*
X186424460Y-87489727D01*
X186574723Y-87339464D01*
X186574727Y-87339459D01*
X186699620Y-87167557D01*
X186796095Y-86978217D01*
X186861757Y-86776129D01*
X186861757Y-86776126D01*
X186872231Y-86710000D01*
X185824146Y-86710000D01*
X185862630Y-86643343D01*
X185895000Y-86522535D01*
X185895000Y-86397465D01*
X185862630Y-86276657D01*
X185824146Y-86210000D01*
X186872231Y-86210000D01*
X186861757Y-86143873D01*
X186861757Y-86143870D01*
X186796095Y-85941782D01*
X186699620Y-85752442D01*
X186574727Y-85580540D01*
X186574723Y-85580535D01*
X186424464Y-85430276D01*
X186424459Y-85430272D01*
X186252557Y-85305379D01*
X186063217Y-85208904D01*
X185861128Y-85143242D01*
X185670000Y-85112969D01*
X185670000Y-86055854D01*
X185603343Y-86017370D01*
X185482535Y-85985000D01*
X185357465Y-85985000D01*
X185236657Y-86017370D01*
X185170000Y-86055854D01*
X185170000Y-85112969D01*
X184978872Y-85143242D01*
X184978869Y-85143242D01*
X184776782Y-85208904D01*
X184587442Y-85305379D01*
X184415540Y-85430272D01*
X184415535Y-85430276D01*
X184265276Y-85580535D01*
X184265272Y-85580540D01*
X184140379Y-85752442D01*
X184043904Y-85941782D01*
X183978242Y-86143870D01*
X183978242Y-86143873D01*
X183967769Y-86210000D01*
X185015854Y-86210000D01*
X184977370Y-86276657D01*
X184945000Y-86397465D01*
X184945000Y-86522535D01*
X184977370Y-86643343D01*
X185015854Y-86710000D01*
X183967769Y-86710000D01*
X183978242Y-86776126D01*
X183978242Y-86776129D01*
X184043904Y-86978217D01*
X184140379Y-87167557D01*
X184265272Y-87339459D01*
X184265276Y-87339464D01*
X184415535Y-87489723D01*
X184415540Y-87489727D01*
X184580644Y-87609682D01*
X184623310Y-87665012D01*
X184629289Y-87734625D01*
X184596684Y-87796420D01*
X184580644Y-87810318D01*
X184415540Y-87930272D01*
X184415535Y-87930276D01*
X184265276Y-88080535D01*
X184265272Y-88080540D01*
X184140379Y-88252442D01*
X184043904Y-88441782D01*
X183978242Y-88643870D01*
X183978242Y-88643873D01*
X183967769Y-88710000D01*
X185015854Y-88710000D01*
X184977370Y-88776657D01*
X184945000Y-88897465D01*
X184945000Y-89022535D01*
X184977370Y-89143343D01*
X185015854Y-89210000D01*
X183967769Y-89210000D01*
X183978242Y-89276126D01*
X183978242Y-89276129D01*
X184043904Y-89478217D01*
X184140379Y-89667557D01*
X184265272Y-89839459D01*
X184265276Y-89839464D01*
X184415535Y-89989723D01*
X184415540Y-89989727D01*
X184580218Y-90109372D01*
X184622884Y-90164701D01*
X184628863Y-90234315D01*
X184596258Y-90296110D01*
X184580218Y-90310008D01*
X184415214Y-90429890D01*
X184415209Y-90429894D01*
X184264890Y-90580213D01*
X184139951Y-90752179D01*
X184043444Y-90941585D01*
X183977753Y-91143760D01*
X183944500Y-91353713D01*
X183944500Y-91566286D01*
X183974980Y-91758733D01*
X183977754Y-91776243D01*
X184041839Y-91973476D01*
X184043444Y-91978414D01*
X184139951Y-92167820D01*
X184264890Y-92339786D01*
X184415209Y-92490105D01*
X184415214Y-92490109D01*
X184579793Y-92609682D01*
X184622459Y-92665011D01*
X184628438Y-92734625D01*
X184595833Y-92796420D01*
X184579793Y-92810318D01*
X184415214Y-92929890D01*
X184415209Y-92929894D01*
X184264890Y-93080213D01*
X184139951Y-93252179D01*
X184043444Y-93441585D01*
X184043443Y-93441587D01*
X184043443Y-93441588D01*
X184010598Y-93542672D01*
X183977753Y-93643760D01*
X183946582Y-93840567D01*
X183944500Y-93853713D01*
X183944500Y-94066287D01*
X183977754Y-94276243D01*
X184039231Y-94465450D01*
X184043444Y-94478414D01*
X184139951Y-94667820D01*
X184264890Y-94839786D01*
X184415209Y-94990105D01*
X184415214Y-94990109D01*
X184579793Y-95109682D01*
X184622459Y-95165011D01*
X184628438Y-95234625D01*
X184595833Y-95296420D01*
X184579793Y-95310318D01*
X184415214Y-95429890D01*
X184415209Y-95429894D01*
X184264890Y-95580213D01*
X184139951Y-95752179D01*
X184043444Y-95941585D01*
X183977753Y-96143760D01*
X183944500Y-96353713D01*
X183944500Y-96566286D01*
X183974980Y-96758733D01*
X183977754Y-96776243D01*
X184041839Y-96973476D01*
X184043444Y-96978414D01*
X184139951Y-97167820D01*
X184264890Y-97339786D01*
X184403705Y-97478601D01*
X184437190Y-97539924D01*
X184432206Y-97609616D01*
X184390334Y-97665549D01*
X184381121Y-97671821D01*
X184226342Y-97767289D01*
X184102289Y-97891342D01*
X184010187Y-98040663D01*
X184010185Y-98040668D01*
X183995480Y-98085046D01*
X183955001Y-98207203D01*
X183955001Y-98207204D01*
X183955000Y-98207204D01*
X183944500Y-98309983D01*
X183944500Y-99399546D01*
X183924815Y-99466585D01*
X183908181Y-99487227D01*
X183682931Y-99712478D01*
X183292097Y-100103313D01*
X183092229Y-100303181D01*
X183030906Y-100336666D01*
X183004548Y-100339500D01*
X179106230Y-100339500D01*
X179039191Y-100319815D01*
X178993436Y-100267011D01*
X178983492Y-100197853D01*
X179012517Y-100134297D01*
X179018549Y-100127819D01*
X179043066Y-100103302D01*
X179117712Y-100028656D01*
X179209814Y-99879334D01*
X179264999Y-99712797D01*
X179275500Y-99610009D01*
X179275499Y-98320452D01*
X179295184Y-98253414D01*
X179311818Y-98232772D01*
X180698733Y-96845858D01*
X182095858Y-95448733D01*
X182164312Y-95346285D01*
X182211463Y-95232451D01*
X182235501Y-95111606D01*
X182235501Y-94988393D01*
X182235501Y-94983283D01*
X182235500Y-94983257D01*
X182235500Y-86427741D01*
X182235501Y-86427720D01*
X182235501Y-86298391D01*
X182211464Y-86177555D01*
X182211463Y-86177549D01*
X182164312Y-86063715D01*
X182095858Y-85961267D01*
X182095855Y-85961263D01*
X178292928Y-82158338D01*
X178292925Y-82158334D01*
X178292925Y-82158335D01*
X178285858Y-82151268D01*
X178285858Y-82151267D01*
X178198733Y-82064142D01*
X178198732Y-82064141D01*
X178198731Y-82064140D01*
X178147509Y-82029915D01*
X178143830Y-82027457D01*
X178096286Y-81995688D01*
X178096283Y-81995686D01*
X178096280Y-81995685D01*
X178015792Y-81962347D01*
X177982453Y-81948537D01*
X177972427Y-81946543D01*
X177922029Y-81936518D01*
X177861610Y-81924500D01*
X177861607Y-81924500D01*
X177861606Y-81924500D01*
X172664188Y-81924500D01*
X172597149Y-81904815D01*
X172562613Y-81871623D01*
X172450045Y-81710858D01*
X172289141Y-81549954D01*
X172102734Y-81419432D01*
X172102732Y-81419431D01*
X171896497Y-81323261D01*
X171896488Y-81323258D01*
X171676697Y-81264366D01*
X171676693Y-81264365D01*
X171676692Y-81264365D01*
X171676691Y-81264364D01*
X171676686Y-81264364D01*
X171450002Y-81244532D01*
X171449998Y-81244532D01*
X171223313Y-81264364D01*
X171223302Y-81264366D01*
X171003511Y-81323258D01*
X171003502Y-81323261D01*
X170797267Y-81419431D01*
X170797265Y-81419432D01*
X170610858Y-81549954D01*
X170449954Y-81710858D01*
X170319432Y-81897265D01*
X170319431Y-81897267D01*
X170223261Y-82103502D01*
X170223258Y-82103511D01*
X170164366Y-82323302D01*
X170164364Y-82323313D01*
X170144532Y-82549998D01*
X170144532Y-82550000D01*
X170158039Y-82704394D01*
X170164365Y-82776692D01*
X170164367Y-82776699D01*
X170182680Y-82845049D01*
X170181016Y-82914899D01*
X170150586Y-82964822D01*
X169957227Y-83158182D01*
X169895907Y-83191666D01*
X169869548Y-83194500D01*
X165254500Y-83194500D01*
X165187461Y-83174815D01*
X165141706Y-83122011D01*
X165130500Y-83070500D01*
X165130499Y-81702129D01*
X165130498Y-81702123D01*
X165124091Y-81642516D01*
X165073797Y-81507671D01*
X165073793Y-81507664D01*
X164987547Y-81392455D01*
X164987544Y-81392452D01*
X164872335Y-81306206D01*
X164872328Y-81306202D01*
X164737482Y-81255908D01*
X164737483Y-81255908D01*
X164677883Y-81249501D01*
X164677881Y-81249500D01*
X164677873Y-81249500D01*
X164677865Y-81249500D01*
X163465452Y-81249500D01*
X163398413Y-81229815D01*
X163377771Y-81213181D01*
X162415198Y-80250608D01*
X162415178Y-80250586D01*
X162323733Y-80159141D01*
X162272509Y-80124915D01*
X162221287Y-80090689D01*
X162221286Y-80090688D01*
X162221283Y-80090686D01*
X162221280Y-80090685D01*
X162140792Y-80057347D01*
X162107453Y-80043537D01*
X162097427Y-80041543D01*
X162047029Y-80031518D01*
X161986610Y-80019500D01*
X161986607Y-80019500D01*
X161986606Y-80019500D01*
X158176607Y-80019500D01*
X158053393Y-80019500D01*
X158053389Y-80019500D01*
X157992971Y-80031518D01*
X157932548Y-80043537D01*
X157932543Y-80043538D01*
X157899207Y-80057347D01*
X157885397Y-80063067D01*
X157863169Y-80072274D01*
X157818713Y-80090688D01*
X157808557Y-80097475D01*
X157808449Y-80097547D01*
X157716268Y-80159140D01*
X157672705Y-80202703D01*
X157629142Y-80246267D01*
X157629139Y-80246270D01*
X156662227Y-81213181D01*
X156600904Y-81246666D01*
X156574546Y-81249500D01*
X155362129Y-81249500D01*
X155362123Y-81249501D01*
X155302516Y-81255908D01*
X155167671Y-81306202D01*
X155167664Y-81306206D01*
X155052455Y-81392452D01*
X155052452Y-81392455D01*
X154966206Y-81507664D01*
X154966202Y-81507671D01*
X154915908Y-81642517D01*
X154912056Y-81678352D01*
X154885318Y-81742903D01*
X154827926Y-81782752D01*
X154758101Y-81785245D01*
X154698012Y-81749593D01*
X154687192Y-81736221D01*
X154669657Y-81711179D01*
X154508820Y-81550342D01*
X154322482Y-81419865D01*
X154116328Y-81323734D01*
X153920000Y-81271127D01*
X153920000Y-82234314D01*
X153915606Y-82229920D01*
X153824394Y-82177259D01*
X153722661Y-82150000D01*
X153617339Y-82150000D01*
X153515606Y-82177259D01*
X153424394Y-82229920D01*
X153420000Y-82234314D01*
X153420000Y-81271127D01*
X153223671Y-81323734D01*
X153017517Y-81419865D01*
X152831179Y-81550342D01*
X152670342Y-81711179D01*
X152539867Y-81897515D01*
X152512657Y-81955867D01*
X152466484Y-82008306D01*
X152399290Y-82027457D01*
X152332409Y-82007241D01*
X152287893Y-81955865D01*
X152278871Y-81936518D01*
X152260568Y-81897266D01*
X152130047Y-81710861D01*
X152130045Y-81710858D01*
X151969141Y-81549954D01*
X151782734Y-81419432D01*
X151782732Y-81419431D01*
X151576497Y-81323261D01*
X151576488Y-81323258D01*
X151356697Y-81264366D01*
X151356693Y-81264365D01*
X151356692Y-81264365D01*
X151356691Y-81264364D01*
X151356686Y-81264364D01*
X151130002Y-81244532D01*
X151129999Y-81244532D01*
X150903313Y-81264364D01*
X150903307Y-81264365D01*
X150834948Y-81282681D01*
X150765098Y-81281016D01*
X150715176Y-81250586D01*
X150350198Y-80885608D01*
X150350178Y-80885586D01*
X150258733Y-80794141D01*
X150207509Y-80759915D01*
X150156286Y-80725688D01*
X150156283Y-80725686D01*
X150156280Y-80725685D01*
X150075792Y-80692347D01*
X150042453Y-80678537D01*
X150032427Y-80676543D01*
X149982029Y-80666518D01*
X149921610Y-80654500D01*
X149921607Y-80654500D01*
X149921606Y-80654500D01*
X146111607Y-80654500D01*
X145988393Y-80654500D01*
X145988389Y-80654500D01*
X145927971Y-80666518D01*
X145884743Y-80675116D01*
X145867546Y-80678537D01*
X145753716Y-80725687D01*
X145753707Y-80725692D01*
X145651268Y-80794140D01*
X145607705Y-80837703D01*
X145564142Y-80881267D01*
X145564139Y-80881270D01*
X145194822Y-81250586D01*
X145133499Y-81284071D01*
X145075049Y-81282680D01*
X145006699Y-81264367D01*
X145006702Y-81264367D01*
X145006692Y-81264365D01*
X145006689Y-81264364D01*
X145006686Y-81264364D01*
X144780001Y-81244532D01*
X144779998Y-81244532D01*
X144553313Y-81264364D01*
X144553302Y-81264366D01*
X144333511Y-81323258D01*
X144333502Y-81323261D01*
X144127267Y-81419431D01*
X144127265Y-81419432D01*
X143940858Y-81549954D01*
X143779954Y-81710858D01*
X143649432Y-81897265D01*
X143649431Y-81897267D01*
X143553261Y-82103502D01*
X143553258Y-82103511D01*
X143494366Y-82323302D01*
X143494364Y-82323313D01*
X143474532Y-82549998D01*
X140185847Y-82549998D01*
X140168126Y-82536400D01*
X139952376Y-82411837D01*
X139952361Y-82411830D01*
X139722207Y-82316498D01*
X139481561Y-82252017D01*
X139234575Y-82219501D01*
X139234570Y-82219500D01*
X139234565Y-82219500D01*
X138985435Y-82219500D01*
X138985429Y-82219500D01*
X138985424Y-82219501D01*
X138738438Y-82252017D01*
X138497792Y-82316498D01*
X138267638Y-82411830D01*
X138267623Y-82411837D01*
X138051873Y-82536400D01*
X137854225Y-82688060D01*
X137854218Y-82688066D01*
X137678066Y-82864218D01*
X137678060Y-82864225D01*
X137526400Y-83061873D01*
X137401837Y-83277623D01*
X137401830Y-83277638D01*
X137306498Y-83507792D01*
X137242017Y-83748438D01*
X137209501Y-83995424D01*
X137209500Y-83995441D01*
X124460000Y-83995441D01*
X124460000Y-78618711D01*
X126419500Y-78618711D01*
X126419500Y-78861288D01*
X126451161Y-79101785D01*
X126513947Y-79336104D01*
X126606773Y-79560205D01*
X126606776Y-79560212D01*
X126728064Y-79770289D01*
X126728066Y-79770292D01*
X126728067Y-79770293D01*
X126875733Y-79962736D01*
X126875739Y-79962743D01*
X127047256Y-80134260D01*
X127047262Y-80134265D01*
X127239711Y-80281936D01*
X127449788Y-80403224D01*
X127673900Y-80496054D01*
X127908211Y-80558838D01*
X128088586Y-80582584D01*
X128148711Y-80590500D01*
X128148712Y-80590500D01*
X128391289Y-80590500D01*
X128439388Y-80584167D01*
X128631789Y-80558838D01*
X128866100Y-80496054D01*
X129090212Y-80403224D01*
X129300289Y-80281936D01*
X129492738Y-80134265D01*
X129664265Y-79962738D01*
X129811936Y-79770289D01*
X129933224Y-79560212D01*
X130026054Y-79336100D01*
X130088838Y-79101789D01*
X130120500Y-78861288D01*
X130120500Y-78618712D01*
X130120500Y-78618711D01*
X183569500Y-78618711D01*
X183569500Y-78861288D01*
X183601161Y-79101785D01*
X183663947Y-79336104D01*
X183756773Y-79560205D01*
X183756776Y-79560212D01*
X183878064Y-79770289D01*
X183878066Y-79770292D01*
X183878067Y-79770293D01*
X184025733Y-79962736D01*
X184025739Y-79962743D01*
X184197256Y-80134260D01*
X184197262Y-80134265D01*
X184389711Y-80281936D01*
X184599788Y-80403224D01*
X184823900Y-80496054D01*
X185058211Y-80558838D01*
X185238586Y-80582584D01*
X185298711Y-80590500D01*
X185298712Y-80590500D01*
X185541289Y-80590500D01*
X185589388Y-80584167D01*
X185781789Y-80558838D01*
X186016100Y-80496054D01*
X186240212Y-80403224D01*
X186450289Y-80281936D01*
X186642738Y-80134265D01*
X186814265Y-79962738D01*
X186961936Y-79770289D01*
X187083224Y-79560212D01*
X187176054Y-79336100D01*
X187238838Y-79101789D01*
X187270500Y-78861288D01*
X187270500Y-78618712D01*
X187238838Y-78378211D01*
X187176054Y-78143900D01*
X187083224Y-77919788D01*
X186961936Y-77709711D01*
X186814265Y-77517262D01*
X186814260Y-77517256D01*
X186642743Y-77345739D01*
X186642736Y-77345733D01*
X186450293Y-77198067D01*
X186450292Y-77198066D01*
X186450289Y-77198064D01*
X186240212Y-77076776D01*
X186240205Y-77076773D01*
X186016104Y-76983947D01*
X185781785Y-76921161D01*
X185541289Y-76889500D01*
X185541288Y-76889500D01*
X185298712Y-76889500D01*
X185298711Y-76889500D01*
X185058214Y-76921161D01*
X184823895Y-76983947D01*
X184599794Y-77076773D01*
X184599785Y-77076777D01*
X184389706Y-77198067D01*
X184197263Y-77345733D01*
X184197256Y-77345739D01*
X184025739Y-77517256D01*
X184025733Y-77517263D01*
X183878067Y-77709706D01*
X183756777Y-77919785D01*
X183756773Y-77919794D01*
X183663947Y-78143895D01*
X183601161Y-78378214D01*
X183569500Y-78618711D01*
X130120500Y-78618711D01*
X130088838Y-78378211D01*
X130026054Y-78143900D01*
X129933224Y-77919788D01*
X129811936Y-77709711D01*
X129664265Y-77517262D01*
X129664260Y-77517256D01*
X129492743Y-77345739D01*
X129492736Y-77345733D01*
X129300293Y-77198067D01*
X129300292Y-77198066D01*
X129300289Y-77198064D01*
X129090212Y-77076776D01*
X129090205Y-77076773D01*
X128866104Y-76983947D01*
X128631785Y-76921161D01*
X128391289Y-76889500D01*
X128391288Y-76889500D01*
X128148712Y-76889500D01*
X128148711Y-76889500D01*
X127908214Y-76921161D01*
X127673895Y-76983947D01*
X127449794Y-77076773D01*
X127449785Y-77076777D01*
X127239706Y-77198067D01*
X127047263Y-77345733D01*
X127047256Y-77345739D01*
X126875739Y-77517256D01*
X126875733Y-77517263D01*
X126728067Y-77709706D01*
X126606777Y-77919785D01*
X126606773Y-77919794D01*
X126513947Y-78143895D01*
X126451161Y-78378214D01*
X126419500Y-78618711D01*
X124460000Y-78618711D01*
X124460000Y-76201369D01*
X124460029Y-76198669D01*
X124462209Y-76098584D01*
X124464064Y-76079752D01*
X124499047Y-75881352D01*
X124504638Y-75860486D01*
X124573084Y-75672433D01*
X124582212Y-75652860D01*
X124682269Y-75479555D01*
X124694653Y-75461868D01*
X124823291Y-75308562D01*
X124838562Y-75293291D01*
X124991868Y-75164653D01*
X125009555Y-75152269D01*
X125182860Y-75052212D01*
X125202433Y-75043084D01*
X125390486Y-74974638D01*
X125411352Y-74969047D01*
X125609758Y-74934063D01*
X125628578Y-74932209D01*
X125722845Y-74930155D01*
X125728670Y-74930029D01*
X125731370Y-74930000D01*
X187958630Y-74930000D01*
X187961330Y-74930029D01*
G37*
%TD.AperFunction*%
%TD*%
M02*
