%TF.GenerationSoftware,KiCad,Pcbnew,8.0.2*%
%TF.CreationDate,2024-05-12T16:09:50+01:00*%
%TF.ProjectId,TelemetryCANBoard,54656c65-6d65-4747-9279-43414e426f61,rev?*%
%TF.SameCoordinates,Original*%
%TF.FileFunction,Legend,Top*%
%TF.FilePolarity,Positive*%
%FSLAX46Y46*%
G04 Gerber Fmt 4.6, Leading zero omitted, Abs format (unit mm)*
G04 Created by KiCad (PCBNEW 8.0.2) date 2024-05-12 16:09:50*
%MOMM*%
%LPD*%
G01*
G04 APERTURE LIST*
G04 Aperture macros list*
%AMRoundRect*
0 Rectangle with rounded corners*
0 $1 Rounding radius*
0 $2 $3 $4 $5 $6 $7 $8 $9 X,Y pos of 4 corners*
0 Add a 4 corners polygon primitive as box body*
4,1,4,$2,$3,$4,$5,$6,$7,$8,$9,$2,$3,0*
0 Add four circle primitives for the rounded corners*
1,1,$1+$1,$2,$3*
1,1,$1+$1,$4,$5*
1,1,$1+$1,$6,$7*
1,1,$1+$1,$8,$9*
0 Add four rect primitives between the rounded corners*
20,1,$1+$1,$2,$3,$4,$5,0*
20,1,$1+$1,$4,$5,$6,$7,0*
20,1,$1+$1,$6,$7,$8,$9,0*
20,1,$1+$1,$8,$9,$2,$3,0*%
G04 Aperture macros list end*
%ADD10C,0.150000*%
%ADD11C,0.100000*%
%ADD12C,0.120000*%
%ADD13C,3.200000*%
%ADD14C,1.600000*%
%ADD15O,1.600000X1.600000*%
%ADD16RoundRect,0.250000X0.725000X-0.600000X0.725000X0.600000X-0.725000X0.600000X-0.725000X-0.600000X0*%
%ADD17O,1.950000X1.700000*%
%ADD18R,1.600000X1.600000*%
%ADD19C,3.300000*%
%ADD20C,3.000000*%
%ADD21C,1.500000*%
G04 APERTURE END LIST*
D10*
X142084419Y-94202380D02*
X142036800Y-94154761D01*
X142036800Y-94154761D02*
X141989180Y-94011904D01*
X141989180Y-94011904D02*
X141989180Y-93916666D01*
X141989180Y-93916666D02*
X142036800Y-93773809D01*
X142036800Y-93773809D02*
X142132038Y-93678571D01*
X142132038Y-93678571D02*
X142227276Y-93630952D01*
X142227276Y-93630952D02*
X142417752Y-93583333D01*
X142417752Y-93583333D02*
X142560609Y-93583333D01*
X142560609Y-93583333D02*
X142751085Y-93630952D01*
X142751085Y-93630952D02*
X142846323Y-93678571D01*
X142846323Y-93678571D02*
X142941561Y-93773809D01*
X142941561Y-93773809D02*
X142989180Y-93916666D01*
X142989180Y-93916666D02*
X142989180Y-94011904D01*
X142989180Y-94011904D02*
X142941561Y-94154761D01*
X142941561Y-94154761D02*
X142893942Y-94202380D01*
X142274895Y-94583333D02*
X142274895Y-95059523D01*
X141989180Y-94488095D02*
X142989180Y-94821428D01*
X142989180Y-94821428D02*
X141989180Y-95154761D01*
X141989180Y-95488095D02*
X142989180Y-95488095D01*
X142989180Y-95488095D02*
X141989180Y-96059523D01*
X141989180Y-96059523D02*
X142989180Y-96059523D01*
X141989180Y-97011904D02*
X141989180Y-96535714D01*
X141989180Y-96535714D02*
X142989180Y-96535714D01*
X176776191Y-83007200D02*
X176919048Y-83054819D01*
X176919048Y-83054819D02*
X177157143Y-83054819D01*
X177157143Y-83054819D02*
X177252381Y-83007200D01*
X177252381Y-83007200D02*
X177300000Y-82959580D01*
X177300000Y-82959580D02*
X177347619Y-82864342D01*
X177347619Y-82864342D02*
X177347619Y-82769104D01*
X177347619Y-82769104D02*
X177300000Y-82673866D01*
X177300000Y-82673866D02*
X177252381Y-82626247D01*
X177252381Y-82626247D02*
X177157143Y-82578628D01*
X177157143Y-82578628D02*
X176966667Y-82531009D01*
X176966667Y-82531009D02*
X176871429Y-82483390D01*
X176871429Y-82483390D02*
X176823810Y-82435771D01*
X176823810Y-82435771D02*
X176776191Y-82340533D01*
X176776191Y-82340533D02*
X176776191Y-82245295D01*
X176776191Y-82245295D02*
X176823810Y-82150057D01*
X176823810Y-82150057D02*
X176871429Y-82102438D01*
X176871429Y-82102438D02*
X176966667Y-82054819D01*
X176966667Y-82054819D02*
X177204762Y-82054819D01*
X177204762Y-82054819D02*
X177347619Y-82102438D01*
X177776191Y-83054819D02*
X177776191Y-82054819D01*
X177776191Y-82054819D02*
X178157143Y-82054819D01*
X178157143Y-82054819D02*
X178252381Y-82102438D01*
X178252381Y-82102438D02*
X178300000Y-82150057D01*
X178300000Y-82150057D02*
X178347619Y-82245295D01*
X178347619Y-82245295D02*
X178347619Y-82388152D01*
X178347619Y-82388152D02*
X178300000Y-82483390D01*
X178300000Y-82483390D02*
X178252381Y-82531009D01*
X178252381Y-82531009D02*
X178157143Y-82578628D01*
X178157143Y-82578628D02*
X177776191Y-82578628D01*
X178776191Y-83054819D02*
X178776191Y-82054819D01*
D11*
X144197143Y-93611990D02*
X144173334Y-93635800D01*
X144173334Y-93635800D02*
X144101905Y-93659609D01*
X144101905Y-93659609D02*
X144054286Y-93659609D01*
X144054286Y-93659609D02*
X143982858Y-93635800D01*
X143982858Y-93635800D02*
X143935239Y-93588180D01*
X143935239Y-93588180D02*
X143911429Y-93540561D01*
X143911429Y-93540561D02*
X143887620Y-93445323D01*
X143887620Y-93445323D02*
X143887620Y-93373895D01*
X143887620Y-93373895D02*
X143911429Y-93278657D01*
X143911429Y-93278657D02*
X143935239Y-93231038D01*
X143935239Y-93231038D02*
X143982858Y-93183419D01*
X143982858Y-93183419D02*
X144054286Y-93159609D01*
X144054286Y-93159609D02*
X144101905Y-93159609D01*
X144101905Y-93159609D02*
X144173334Y-93183419D01*
X144173334Y-93183419D02*
X144197143Y-93207228D01*
X144387620Y-93516752D02*
X144625715Y-93516752D01*
X144340001Y-93659609D02*
X144506667Y-93159609D01*
X144506667Y-93159609D02*
X144673334Y-93659609D01*
X144840000Y-93659609D02*
X144840000Y-93159609D01*
X144840000Y-93159609D02*
X145125714Y-93659609D01*
X145125714Y-93659609D02*
X145125714Y-93159609D01*
X145673334Y-93159609D02*
X145959048Y-93159609D01*
X145816191Y-93659609D02*
X145816191Y-93159609D01*
X146316190Y-93635800D02*
X146268571Y-93659609D01*
X146268571Y-93659609D02*
X146173333Y-93659609D01*
X146173333Y-93659609D02*
X146125714Y-93635800D01*
X146125714Y-93635800D02*
X146101905Y-93588180D01*
X146101905Y-93588180D02*
X146101905Y-93397704D01*
X146101905Y-93397704D02*
X146125714Y-93350085D01*
X146125714Y-93350085D02*
X146173333Y-93326276D01*
X146173333Y-93326276D02*
X146268571Y-93326276D01*
X146268571Y-93326276D02*
X146316190Y-93350085D01*
X146316190Y-93350085D02*
X146340000Y-93397704D01*
X146340000Y-93397704D02*
X146340000Y-93445323D01*
X146340000Y-93445323D02*
X146101905Y-93492942D01*
X146554285Y-93659609D02*
X146554285Y-93326276D01*
X146554285Y-93421514D02*
X146578095Y-93373895D01*
X146578095Y-93373895D02*
X146601904Y-93350085D01*
X146601904Y-93350085D02*
X146649523Y-93326276D01*
X146649523Y-93326276D02*
X146697142Y-93326276D01*
X146863809Y-93659609D02*
X146863809Y-93326276D01*
X146863809Y-93373895D02*
X146887619Y-93350085D01*
X146887619Y-93350085D02*
X146935238Y-93326276D01*
X146935238Y-93326276D02*
X147006666Y-93326276D01*
X147006666Y-93326276D02*
X147054285Y-93350085D01*
X147054285Y-93350085D02*
X147078095Y-93397704D01*
X147078095Y-93397704D02*
X147078095Y-93659609D01*
X147078095Y-93397704D02*
X147101904Y-93350085D01*
X147101904Y-93350085D02*
X147149523Y-93326276D01*
X147149523Y-93326276D02*
X147220952Y-93326276D01*
X147220952Y-93326276D02*
X147268571Y-93350085D01*
X147268571Y-93350085D02*
X147292381Y-93397704D01*
X147292381Y-93397704D02*
X147292381Y-93659609D01*
X147530476Y-93659609D02*
X147530476Y-93326276D01*
X147530476Y-93159609D02*
X147506667Y-93183419D01*
X147506667Y-93183419D02*
X147530476Y-93207228D01*
X147530476Y-93207228D02*
X147554286Y-93183419D01*
X147554286Y-93183419D02*
X147530476Y-93159609D01*
X147530476Y-93159609D02*
X147530476Y-93207228D01*
X147768571Y-93326276D02*
X147768571Y-93659609D01*
X147768571Y-93373895D02*
X147792381Y-93350085D01*
X147792381Y-93350085D02*
X147840000Y-93326276D01*
X147840000Y-93326276D02*
X147911428Y-93326276D01*
X147911428Y-93326276D02*
X147959047Y-93350085D01*
X147959047Y-93350085D02*
X147982857Y-93397704D01*
X147982857Y-93397704D02*
X147982857Y-93659609D01*
X148435238Y-93659609D02*
X148435238Y-93397704D01*
X148435238Y-93397704D02*
X148411428Y-93350085D01*
X148411428Y-93350085D02*
X148363809Y-93326276D01*
X148363809Y-93326276D02*
X148268571Y-93326276D01*
X148268571Y-93326276D02*
X148220952Y-93350085D01*
X148435238Y-93635800D02*
X148387619Y-93659609D01*
X148387619Y-93659609D02*
X148268571Y-93659609D01*
X148268571Y-93659609D02*
X148220952Y-93635800D01*
X148220952Y-93635800D02*
X148197143Y-93588180D01*
X148197143Y-93588180D02*
X148197143Y-93540561D01*
X148197143Y-93540561D02*
X148220952Y-93492942D01*
X148220952Y-93492942D02*
X148268571Y-93469133D01*
X148268571Y-93469133D02*
X148387619Y-93469133D01*
X148387619Y-93469133D02*
X148435238Y-93445323D01*
X148601905Y-93326276D02*
X148792381Y-93326276D01*
X148673333Y-93159609D02*
X148673333Y-93588180D01*
X148673333Y-93588180D02*
X148697143Y-93635800D01*
X148697143Y-93635800D02*
X148744762Y-93659609D01*
X148744762Y-93659609D02*
X148792381Y-93659609D01*
X148959047Y-93659609D02*
X148959047Y-93326276D01*
X148959047Y-93159609D02*
X148935238Y-93183419D01*
X148935238Y-93183419D02*
X148959047Y-93207228D01*
X148959047Y-93207228D02*
X148982857Y-93183419D01*
X148982857Y-93183419D02*
X148959047Y-93159609D01*
X148959047Y-93159609D02*
X148959047Y-93207228D01*
X149268571Y-93659609D02*
X149220952Y-93635800D01*
X149220952Y-93635800D02*
X149197142Y-93611990D01*
X149197142Y-93611990D02*
X149173333Y-93564371D01*
X149173333Y-93564371D02*
X149173333Y-93421514D01*
X149173333Y-93421514D02*
X149197142Y-93373895D01*
X149197142Y-93373895D02*
X149220952Y-93350085D01*
X149220952Y-93350085D02*
X149268571Y-93326276D01*
X149268571Y-93326276D02*
X149339999Y-93326276D01*
X149339999Y-93326276D02*
X149387618Y-93350085D01*
X149387618Y-93350085D02*
X149411428Y-93373895D01*
X149411428Y-93373895D02*
X149435237Y-93421514D01*
X149435237Y-93421514D02*
X149435237Y-93564371D01*
X149435237Y-93564371D02*
X149411428Y-93611990D01*
X149411428Y-93611990D02*
X149387618Y-93635800D01*
X149387618Y-93635800D02*
X149339999Y-93659609D01*
X149339999Y-93659609D02*
X149268571Y-93659609D01*
X149649523Y-93326276D02*
X149649523Y-93659609D01*
X149649523Y-93373895D02*
X149673333Y-93350085D01*
X149673333Y-93350085D02*
X149720952Y-93326276D01*
X149720952Y-93326276D02*
X149792380Y-93326276D01*
X149792380Y-93326276D02*
X149839999Y-93350085D01*
X149839999Y-93350085D02*
X149863809Y-93397704D01*
X149863809Y-93397704D02*
X149863809Y-93659609D01*
X150768570Y-93659609D02*
X150601904Y-93421514D01*
X150482856Y-93659609D02*
X150482856Y-93159609D01*
X150482856Y-93159609D02*
X150673332Y-93159609D01*
X150673332Y-93159609D02*
X150720951Y-93183419D01*
X150720951Y-93183419D02*
X150744761Y-93207228D01*
X150744761Y-93207228D02*
X150768570Y-93254847D01*
X150768570Y-93254847D02*
X150768570Y-93326276D01*
X150768570Y-93326276D02*
X150744761Y-93373895D01*
X150744761Y-93373895D02*
X150720951Y-93397704D01*
X150720951Y-93397704D02*
X150673332Y-93421514D01*
X150673332Y-93421514D02*
X150482856Y-93421514D01*
X151173332Y-93635800D02*
X151125713Y-93659609D01*
X151125713Y-93659609D02*
X151030475Y-93659609D01*
X151030475Y-93659609D02*
X150982856Y-93635800D01*
X150982856Y-93635800D02*
X150959047Y-93588180D01*
X150959047Y-93588180D02*
X150959047Y-93397704D01*
X150959047Y-93397704D02*
X150982856Y-93350085D01*
X150982856Y-93350085D02*
X151030475Y-93326276D01*
X151030475Y-93326276D02*
X151125713Y-93326276D01*
X151125713Y-93326276D02*
X151173332Y-93350085D01*
X151173332Y-93350085D02*
X151197142Y-93397704D01*
X151197142Y-93397704D02*
X151197142Y-93445323D01*
X151197142Y-93445323D02*
X150959047Y-93492942D01*
X151387618Y-93635800D02*
X151435237Y-93659609D01*
X151435237Y-93659609D02*
X151530475Y-93659609D01*
X151530475Y-93659609D02*
X151578094Y-93635800D01*
X151578094Y-93635800D02*
X151601903Y-93588180D01*
X151601903Y-93588180D02*
X151601903Y-93564371D01*
X151601903Y-93564371D02*
X151578094Y-93516752D01*
X151578094Y-93516752D02*
X151530475Y-93492942D01*
X151530475Y-93492942D02*
X151459046Y-93492942D01*
X151459046Y-93492942D02*
X151411427Y-93469133D01*
X151411427Y-93469133D02*
X151387618Y-93421514D01*
X151387618Y-93421514D02*
X151387618Y-93397704D01*
X151387618Y-93397704D02*
X151411427Y-93350085D01*
X151411427Y-93350085D02*
X151459046Y-93326276D01*
X151459046Y-93326276D02*
X151530475Y-93326276D01*
X151530475Y-93326276D02*
X151578094Y-93350085D01*
X151816189Y-93659609D02*
X151816189Y-93326276D01*
X151816189Y-93159609D02*
X151792380Y-93183419D01*
X151792380Y-93183419D02*
X151816189Y-93207228D01*
X151816189Y-93207228D02*
X151839999Y-93183419D01*
X151839999Y-93183419D02*
X151816189Y-93159609D01*
X151816189Y-93159609D02*
X151816189Y-93207228D01*
X152030475Y-93635800D02*
X152078094Y-93659609D01*
X152078094Y-93659609D02*
X152173332Y-93659609D01*
X152173332Y-93659609D02*
X152220951Y-93635800D01*
X152220951Y-93635800D02*
X152244760Y-93588180D01*
X152244760Y-93588180D02*
X152244760Y-93564371D01*
X152244760Y-93564371D02*
X152220951Y-93516752D01*
X152220951Y-93516752D02*
X152173332Y-93492942D01*
X152173332Y-93492942D02*
X152101903Y-93492942D01*
X152101903Y-93492942D02*
X152054284Y-93469133D01*
X152054284Y-93469133D02*
X152030475Y-93421514D01*
X152030475Y-93421514D02*
X152030475Y-93397704D01*
X152030475Y-93397704D02*
X152054284Y-93350085D01*
X152054284Y-93350085D02*
X152101903Y-93326276D01*
X152101903Y-93326276D02*
X152173332Y-93326276D01*
X152173332Y-93326276D02*
X152220951Y-93350085D01*
X152387618Y-93326276D02*
X152578094Y-93326276D01*
X152459046Y-93159609D02*
X152459046Y-93588180D01*
X152459046Y-93588180D02*
X152482856Y-93635800D01*
X152482856Y-93635800D02*
X152530475Y-93659609D01*
X152530475Y-93659609D02*
X152578094Y-93659609D01*
X152816189Y-93659609D02*
X152768570Y-93635800D01*
X152768570Y-93635800D02*
X152744760Y-93611990D01*
X152744760Y-93611990D02*
X152720951Y-93564371D01*
X152720951Y-93564371D02*
X152720951Y-93421514D01*
X152720951Y-93421514D02*
X152744760Y-93373895D01*
X152744760Y-93373895D02*
X152768570Y-93350085D01*
X152768570Y-93350085D02*
X152816189Y-93326276D01*
X152816189Y-93326276D02*
X152887617Y-93326276D01*
X152887617Y-93326276D02*
X152935236Y-93350085D01*
X152935236Y-93350085D02*
X152959046Y-93373895D01*
X152959046Y-93373895D02*
X152982855Y-93421514D01*
X152982855Y-93421514D02*
X152982855Y-93564371D01*
X152982855Y-93564371D02*
X152959046Y-93611990D01*
X152959046Y-93611990D02*
X152935236Y-93635800D01*
X152935236Y-93635800D02*
X152887617Y-93659609D01*
X152887617Y-93659609D02*
X152816189Y-93659609D01*
X153197141Y-93659609D02*
X153197141Y-93326276D01*
X153197141Y-93421514D02*
X153220951Y-93373895D01*
X153220951Y-93373895D02*
X153244760Y-93350085D01*
X153244760Y-93350085D02*
X153292379Y-93326276D01*
X153292379Y-93326276D02*
X153339998Y-93326276D01*
D10*
X142084419Y-89003333D02*
X142036800Y-88955714D01*
X142036800Y-88955714D02*
X141989180Y-88812857D01*
X141989180Y-88812857D02*
X141989180Y-88717619D01*
X141989180Y-88717619D02*
X142036800Y-88574762D01*
X142036800Y-88574762D02*
X142132038Y-88479524D01*
X142132038Y-88479524D02*
X142227276Y-88431905D01*
X142227276Y-88431905D02*
X142417752Y-88384286D01*
X142417752Y-88384286D02*
X142560609Y-88384286D01*
X142560609Y-88384286D02*
X142751085Y-88431905D01*
X142751085Y-88431905D02*
X142846323Y-88479524D01*
X142846323Y-88479524D02*
X142941561Y-88574762D01*
X142941561Y-88574762D02*
X142989180Y-88717619D01*
X142989180Y-88717619D02*
X142989180Y-88812857D01*
X142989180Y-88812857D02*
X142941561Y-88955714D01*
X142941561Y-88955714D02*
X142893942Y-89003333D01*
X142274895Y-89384286D02*
X142274895Y-89860476D01*
X141989180Y-89289048D02*
X142989180Y-89622381D01*
X142989180Y-89622381D02*
X141989180Y-89955714D01*
X141989180Y-90289048D02*
X142989180Y-90289048D01*
X142989180Y-90289048D02*
X141989180Y-90860476D01*
X141989180Y-90860476D02*
X142989180Y-90860476D01*
X141989180Y-91336667D02*
X142989180Y-91336667D01*
X142512990Y-91336667D02*
X142512990Y-91908095D01*
X141989180Y-91908095D02*
X142989180Y-91908095D01*
X184420000Y-82102438D02*
X184324762Y-82054819D01*
X184324762Y-82054819D02*
X184181905Y-82054819D01*
X184181905Y-82054819D02*
X184039048Y-82102438D01*
X184039048Y-82102438D02*
X183943810Y-82197676D01*
X183943810Y-82197676D02*
X183896191Y-82292914D01*
X183896191Y-82292914D02*
X183848572Y-82483390D01*
X183848572Y-82483390D02*
X183848572Y-82626247D01*
X183848572Y-82626247D02*
X183896191Y-82816723D01*
X183896191Y-82816723D02*
X183943810Y-82911961D01*
X183943810Y-82911961D02*
X184039048Y-83007200D01*
X184039048Y-83007200D02*
X184181905Y-83054819D01*
X184181905Y-83054819D02*
X184277143Y-83054819D01*
X184277143Y-83054819D02*
X184420000Y-83007200D01*
X184420000Y-83007200D02*
X184467619Y-82959580D01*
X184467619Y-82959580D02*
X184467619Y-82626247D01*
X184467619Y-82626247D02*
X184277143Y-82626247D01*
X184896191Y-83054819D02*
X184896191Y-82054819D01*
X184896191Y-82054819D02*
X185277143Y-82054819D01*
X185277143Y-82054819D02*
X185372381Y-82102438D01*
X185372381Y-82102438D02*
X185420000Y-82150057D01*
X185420000Y-82150057D02*
X185467619Y-82245295D01*
X185467619Y-82245295D02*
X185467619Y-82388152D01*
X185467619Y-82388152D02*
X185420000Y-82483390D01*
X185420000Y-82483390D02*
X185372381Y-82531009D01*
X185372381Y-82531009D02*
X185277143Y-82578628D01*
X185277143Y-82578628D02*
X184896191Y-82578628D01*
X185896191Y-83054819D02*
X185896191Y-82054819D01*
X186562857Y-82054819D02*
X186753333Y-82054819D01*
X186753333Y-82054819D02*
X186848571Y-82102438D01*
X186848571Y-82102438D02*
X186943809Y-82197676D01*
X186943809Y-82197676D02*
X186991428Y-82388152D01*
X186991428Y-82388152D02*
X186991428Y-82721485D01*
X186991428Y-82721485D02*
X186943809Y-82911961D01*
X186943809Y-82911961D02*
X186848571Y-83007200D01*
X186848571Y-83007200D02*
X186753333Y-83054819D01*
X186753333Y-83054819D02*
X186562857Y-83054819D01*
X186562857Y-83054819D02*
X186467619Y-83007200D01*
X186467619Y-83007200D02*
X186372381Y-82911961D01*
X186372381Y-82911961D02*
X186324762Y-82721485D01*
X186324762Y-82721485D02*
X186324762Y-82388152D01*
X186324762Y-82388152D02*
X186372381Y-82197676D01*
X186372381Y-82197676D02*
X186467619Y-82102438D01*
X186467619Y-82102438D02*
X186562857Y-82054819D01*
X159853333Y-92402819D02*
X159520000Y-91926628D01*
X159281905Y-92402819D02*
X159281905Y-91402819D01*
X159281905Y-91402819D02*
X159662857Y-91402819D01*
X159662857Y-91402819D02*
X159758095Y-91450438D01*
X159758095Y-91450438D02*
X159805714Y-91498057D01*
X159805714Y-91498057D02*
X159853333Y-91593295D01*
X159853333Y-91593295D02*
X159853333Y-91736152D01*
X159853333Y-91736152D02*
X159805714Y-91831390D01*
X159805714Y-91831390D02*
X159758095Y-91879009D01*
X159758095Y-91879009D02*
X159662857Y-91926628D01*
X159662857Y-91926628D02*
X159281905Y-91926628D01*
X160805714Y-92402819D02*
X160234286Y-92402819D01*
X160520000Y-92402819D02*
X160520000Y-91402819D01*
X160520000Y-91402819D02*
X160424762Y-91545676D01*
X160424762Y-91545676D02*
X160329524Y-91640914D01*
X160329524Y-91640914D02*
X160234286Y-91688533D01*
X177466666Y-102424819D02*
X177466666Y-103139104D01*
X177466666Y-103139104D02*
X177419047Y-103281961D01*
X177419047Y-103281961D02*
X177323809Y-103377200D01*
X177323809Y-103377200D02*
X177180952Y-103424819D01*
X177180952Y-103424819D02*
X177085714Y-103424819D01*
X178466666Y-103424819D02*
X177895238Y-103424819D01*
X178180952Y-103424819D02*
X178180952Y-102424819D01*
X178180952Y-102424819D02*
X178085714Y-102567676D01*
X178085714Y-102567676D02*
X177990476Y-102662914D01*
X177990476Y-102662914D02*
X177895238Y-102710533D01*
X144613333Y-92402819D02*
X144280000Y-91926628D01*
X144041905Y-92402819D02*
X144041905Y-91402819D01*
X144041905Y-91402819D02*
X144422857Y-91402819D01*
X144422857Y-91402819D02*
X144518095Y-91450438D01*
X144518095Y-91450438D02*
X144565714Y-91498057D01*
X144565714Y-91498057D02*
X144613333Y-91593295D01*
X144613333Y-91593295D02*
X144613333Y-91736152D01*
X144613333Y-91736152D02*
X144565714Y-91831390D01*
X144565714Y-91831390D02*
X144518095Y-91879009D01*
X144518095Y-91879009D02*
X144422857Y-91926628D01*
X144422857Y-91926628D02*
X144041905Y-91926628D01*
X144994286Y-91498057D02*
X145041905Y-91450438D01*
X145041905Y-91450438D02*
X145137143Y-91402819D01*
X145137143Y-91402819D02*
X145375238Y-91402819D01*
X145375238Y-91402819D02*
X145470476Y-91450438D01*
X145470476Y-91450438D02*
X145518095Y-91498057D01*
X145518095Y-91498057D02*
X145565714Y-91593295D01*
X145565714Y-91593295D02*
X145565714Y-91688533D01*
X145565714Y-91688533D02*
X145518095Y-91831390D01*
X145518095Y-91831390D02*
X144946667Y-92402819D01*
X144946667Y-92402819D02*
X145565714Y-92402819D01*
X151638095Y-91402819D02*
X151638095Y-92212342D01*
X151638095Y-92212342D02*
X151685714Y-92307580D01*
X151685714Y-92307580D02*
X151733333Y-92355200D01*
X151733333Y-92355200D02*
X151828571Y-92402819D01*
X151828571Y-92402819D02*
X152019047Y-92402819D01*
X152019047Y-92402819D02*
X152114285Y-92355200D01*
X152114285Y-92355200D02*
X152161904Y-92307580D01*
X152161904Y-92307580D02*
X152209523Y-92212342D01*
X152209523Y-92212342D02*
X152209523Y-91402819D01*
X153209523Y-92402819D02*
X152638095Y-92402819D01*
X152923809Y-92402819D02*
X152923809Y-91402819D01*
X152923809Y-91402819D02*
X152828571Y-91545676D01*
X152828571Y-91545676D02*
X152733333Y-91640914D01*
X152733333Y-91640914D02*
X152638095Y-91688533D01*
X128698666Y-103691819D02*
X128698666Y-104406104D01*
X128698666Y-104406104D02*
X128651047Y-104548961D01*
X128651047Y-104548961D02*
X128555809Y-104644200D01*
X128555809Y-104644200D02*
X128412952Y-104691819D01*
X128412952Y-104691819D02*
X128317714Y-104691819D01*
X129079619Y-103691819D02*
X129698666Y-103691819D01*
X129698666Y-103691819D02*
X129365333Y-104072771D01*
X129365333Y-104072771D02*
X129508190Y-104072771D01*
X129508190Y-104072771D02*
X129603428Y-104120390D01*
X129603428Y-104120390D02*
X129651047Y-104168009D01*
X129651047Y-104168009D02*
X129698666Y-104263247D01*
X129698666Y-104263247D02*
X129698666Y-104501342D01*
X129698666Y-104501342D02*
X129651047Y-104596580D01*
X129651047Y-104596580D02*
X129603428Y-104644200D01*
X129603428Y-104644200D02*
X129508190Y-104691819D01*
X129508190Y-104691819D02*
X129222476Y-104691819D01*
X129222476Y-104691819D02*
X129127238Y-104644200D01*
X129127238Y-104644200D02*
X129079619Y-104596580D01*
X155479809Y-104118628D02*
X155479809Y-104594819D01*
X155146476Y-103594819D02*
X155479809Y-104118628D01*
X155479809Y-104118628D02*
X155813142Y-103594819D01*
X156670285Y-104594819D02*
X156098857Y-104594819D01*
X156384571Y-104594819D02*
X156384571Y-103594819D01*
X156384571Y-103594819D02*
X156289333Y-103737676D01*
X156289333Y-103737676D02*
X156194095Y-103832914D01*
X156194095Y-103832914D02*
X156098857Y-103880533D01*
X185086666Y-102424819D02*
X185086666Y-103139104D01*
X185086666Y-103139104D02*
X185039047Y-103281961D01*
X185039047Y-103281961D02*
X184943809Y-103377200D01*
X184943809Y-103377200D02*
X184800952Y-103424819D01*
X184800952Y-103424819D02*
X184705714Y-103424819D01*
X185515238Y-102520057D02*
X185562857Y-102472438D01*
X185562857Y-102472438D02*
X185658095Y-102424819D01*
X185658095Y-102424819D02*
X185896190Y-102424819D01*
X185896190Y-102424819D02*
X185991428Y-102472438D01*
X185991428Y-102472438D02*
X186039047Y-102520057D01*
X186039047Y-102520057D02*
X186086666Y-102615295D01*
X186086666Y-102615295D02*
X186086666Y-102710533D01*
X186086666Y-102710533D02*
X186039047Y-102853390D01*
X186039047Y-102853390D02*
X185467619Y-103424819D01*
X185467619Y-103424819D02*
X186086666Y-103424819D01*
X144613333Y-98074819D02*
X144280000Y-97598628D01*
X144041905Y-98074819D02*
X144041905Y-97074819D01*
X144041905Y-97074819D02*
X144422857Y-97074819D01*
X144422857Y-97074819D02*
X144518095Y-97122438D01*
X144518095Y-97122438D02*
X144565714Y-97170057D01*
X144565714Y-97170057D02*
X144613333Y-97265295D01*
X144613333Y-97265295D02*
X144613333Y-97408152D01*
X144613333Y-97408152D02*
X144565714Y-97503390D01*
X144565714Y-97503390D02*
X144518095Y-97551009D01*
X144518095Y-97551009D02*
X144422857Y-97598628D01*
X144422857Y-97598628D02*
X144041905Y-97598628D01*
X144946667Y-97074819D02*
X145565714Y-97074819D01*
X145565714Y-97074819D02*
X145232381Y-97455771D01*
X145232381Y-97455771D02*
X145375238Y-97455771D01*
X145375238Y-97455771D02*
X145470476Y-97503390D01*
X145470476Y-97503390D02*
X145518095Y-97551009D01*
X145518095Y-97551009D02*
X145565714Y-97646247D01*
X145565714Y-97646247D02*
X145565714Y-97884342D01*
X145565714Y-97884342D02*
X145518095Y-97979580D01*
X145518095Y-97979580D02*
X145470476Y-98027200D01*
X145470476Y-98027200D02*
X145375238Y-98074819D01*
X145375238Y-98074819D02*
X145089524Y-98074819D01*
X145089524Y-98074819D02*
X144994286Y-98027200D01*
X144994286Y-98027200D02*
X144946667Y-97979580D01*
X172593095Y-81369819D02*
X172593095Y-82179342D01*
X172593095Y-82179342D02*
X172640714Y-82274580D01*
X172640714Y-82274580D02*
X172688333Y-82322200D01*
X172688333Y-82322200D02*
X172783571Y-82369819D01*
X172783571Y-82369819D02*
X172974047Y-82369819D01*
X172974047Y-82369819D02*
X173069285Y-82322200D01*
X173069285Y-82322200D02*
X173116904Y-82274580D01*
X173116904Y-82274580D02*
X173164523Y-82179342D01*
X173164523Y-82179342D02*
X173164523Y-81369819D01*
X173593095Y-81465057D02*
X173640714Y-81417438D01*
X173640714Y-81417438D02*
X173735952Y-81369819D01*
X173735952Y-81369819D02*
X173974047Y-81369819D01*
X173974047Y-81369819D02*
X174069285Y-81417438D01*
X174069285Y-81417438D02*
X174116904Y-81465057D01*
X174116904Y-81465057D02*
X174164523Y-81560295D01*
X174164523Y-81560295D02*
X174164523Y-81655533D01*
X174164523Y-81655533D02*
X174116904Y-81798390D01*
X174116904Y-81798390D02*
X173545476Y-82369819D01*
X173545476Y-82369819D02*
X174164523Y-82369819D01*
X145121333Y-100435580D02*
X145073714Y-100483200D01*
X145073714Y-100483200D02*
X144930857Y-100530819D01*
X144930857Y-100530819D02*
X144835619Y-100530819D01*
X144835619Y-100530819D02*
X144692762Y-100483200D01*
X144692762Y-100483200D02*
X144597524Y-100387961D01*
X144597524Y-100387961D02*
X144549905Y-100292723D01*
X144549905Y-100292723D02*
X144502286Y-100102247D01*
X144502286Y-100102247D02*
X144502286Y-99959390D01*
X144502286Y-99959390D02*
X144549905Y-99768914D01*
X144549905Y-99768914D02*
X144597524Y-99673676D01*
X144597524Y-99673676D02*
X144692762Y-99578438D01*
X144692762Y-99578438D02*
X144835619Y-99530819D01*
X144835619Y-99530819D02*
X144930857Y-99530819D01*
X144930857Y-99530819D02*
X145073714Y-99578438D01*
X145073714Y-99578438D02*
X145121333Y-99626057D01*
X146073714Y-100530819D02*
X145502286Y-100530819D01*
X145788000Y-100530819D02*
X145788000Y-99530819D01*
X145788000Y-99530819D02*
X145692762Y-99673676D01*
X145692762Y-99673676D02*
X145597524Y-99768914D01*
X145597524Y-99768914D02*
X145502286Y-99816533D01*
X145081333Y-104245580D02*
X145033714Y-104293200D01*
X145033714Y-104293200D02*
X144890857Y-104340819D01*
X144890857Y-104340819D02*
X144795619Y-104340819D01*
X144795619Y-104340819D02*
X144652762Y-104293200D01*
X144652762Y-104293200D02*
X144557524Y-104197961D01*
X144557524Y-104197961D02*
X144509905Y-104102723D01*
X144509905Y-104102723D02*
X144462286Y-103912247D01*
X144462286Y-103912247D02*
X144462286Y-103769390D01*
X144462286Y-103769390D02*
X144509905Y-103578914D01*
X144509905Y-103578914D02*
X144557524Y-103483676D01*
X144557524Y-103483676D02*
X144652762Y-103388438D01*
X144652762Y-103388438D02*
X144795619Y-103340819D01*
X144795619Y-103340819D02*
X144890857Y-103340819D01*
X144890857Y-103340819D02*
X145033714Y-103388438D01*
X145033714Y-103388438D02*
X145081333Y-103436057D01*
X145462286Y-103436057D02*
X145509905Y-103388438D01*
X145509905Y-103388438D02*
X145605143Y-103340819D01*
X145605143Y-103340819D02*
X145843238Y-103340819D01*
X145843238Y-103340819D02*
X145938476Y-103388438D01*
X145938476Y-103388438D02*
X145986095Y-103436057D01*
X145986095Y-103436057D02*
X146033714Y-103531295D01*
X146033714Y-103531295D02*
X146033714Y-103626533D01*
X146033714Y-103626533D02*
X145986095Y-103769390D01*
X145986095Y-103769390D02*
X145414667Y-104340819D01*
X145414667Y-104340819D02*
X146033714Y-104340819D01*
D12*
%TO.C,R1*%
X158650000Y-89630000D02*
X158650000Y-83090000D01*
X158980000Y-89630000D02*
X158650000Y-89630000D01*
X161060000Y-89630000D02*
X161390000Y-89630000D01*
X161390000Y-89630000D02*
X161390000Y-83090000D01*
X158650000Y-83090000D02*
X158980000Y-83090000D01*
X161390000Y-83090000D02*
X161060000Y-83090000D01*
%TO.C,J1*%
X174190000Y-101870000D02*
X175440000Y-101870000D01*
X174490000Y-101570000D02*
X181110000Y-101570000D01*
X177800000Y-101570000D02*
X177800000Y-100560000D01*
X181110000Y-101570000D02*
X181110000Y-83850000D01*
X174190000Y-100620000D02*
X174190000Y-101870000D01*
X176100000Y-100560000D02*
X180400000Y-100560000D01*
X180400000Y-100560000D02*
X180400000Y-84860000D01*
X174490000Y-99270000D02*
X174490000Y-101570000D01*
X175490000Y-99270000D02*
X174490000Y-99270000D01*
X174490000Y-97510000D02*
X175490000Y-97510000D01*
X175490000Y-97510000D02*
X175490000Y-99270000D01*
X174490000Y-95410000D02*
X174490000Y-97510000D01*
X175490000Y-95410000D02*
X174490000Y-95410000D01*
X174890000Y-93510000D02*
X175490000Y-93510000D01*
X175490000Y-93510000D02*
X175490000Y-95410000D01*
X174890000Y-91910000D02*
X174890000Y-93510000D01*
X175490000Y-91910000D02*
X174890000Y-91910000D01*
X174490000Y-90010000D02*
X175490000Y-90010000D01*
X175490000Y-90010000D02*
X175490000Y-91910000D01*
X174490000Y-87910000D02*
X174490000Y-90010000D01*
X175490000Y-87910000D02*
X174490000Y-87910000D01*
X174490000Y-86150000D02*
X175490000Y-86150000D01*
X175490000Y-86150000D02*
X175490000Y-87910000D01*
X176100000Y-84860000D02*
X176100000Y-100560000D01*
X180400000Y-84860000D02*
X176100000Y-84860000D01*
X174490000Y-83850000D02*
X174490000Y-86150000D01*
X177800000Y-83850000D02*
X177800000Y-84860000D01*
X181110000Y-83850000D02*
X174490000Y-83850000D01*
%TO.C,R2*%
X146150000Y-83090000D02*
X146150000Y-89630000D01*
X145820000Y-83090000D02*
X146150000Y-83090000D01*
X143740000Y-83090000D02*
X143410000Y-83090000D01*
X143410000Y-83090000D02*
X143410000Y-89630000D01*
X146150000Y-89630000D02*
X145820000Y-89630000D01*
X143410000Y-89630000D02*
X143740000Y-89630000D01*
%TO.C,U1*%
X157540000Y-83710000D02*
X147260000Y-83710000D01*
X147260000Y-83710000D02*
X147260000Y-89010000D01*
X157540000Y-85360000D02*
X157540000Y-83710000D01*
X157540000Y-89010000D02*
X157540000Y-87360000D01*
X147260000Y-89010000D02*
X157540000Y-89010000D01*
X157540000Y-87360000D02*
G75*
G02*
X157540000Y-85360000I0J1000000D01*
G01*
%TO.C,J3*%
X119310000Y-83120000D02*
X136020000Y-83120000D01*
X136210000Y-85507500D02*
X136210000Y-99912500D01*
X141810000Y-85860000D02*
X141810000Y-99560000D01*
X136020000Y-102300000D02*
X119310000Y-102300000D01*
X119310000Y-102300000D02*
X119310000Y-83120000D01*
X142310000Y-84120000D02*
G75*
G02*
X135910000Y-84120000I-3200000J0D01*
G01*
X135910000Y-84120000D02*
G75*
G02*
X142310000Y-84120000I3200000J0D01*
G01*
X142310000Y-101300000D02*
G75*
G02*
X135910000Y-101300000I-3200000J0D01*
G01*
X135910000Y-101300000D02*
G75*
G02*
X142310000Y-101300000I3200000J0D01*
G01*
%TO.C,Y1*%
X161275000Y-95835000D02*
X161275000Y-102085000D01*
X156225000Y-95835000D02*
X156225000Y-102085000D01*
X156225000Y-95835000D02*
G75*
G02*
X161275000Y-95835000I2525000J0D01*
G01*
X161275000Y-102085000D02*
G75*
G02*
X156225000Y-102085000I-2525000J0D01*
G01*
%TO.C,J2*%
X181810000Y-101870000D02*
X183060000Y-101870000D01*
X182110000Y-101570000D02*
X188730000Y-101570000D01*
X185420000Y-101570000D02*
X185420000Y-100560000D01*
X188730000Y-101570000D02*
X188730000Y-83850000D01*
X181810000Y-100620000D02*
X181810000Y-101870000D01*
X183720000Y-100560000D02*
X188020000Y-100560000D01*
X188020000Y-100560000D02*
X188020000Y-84860000D01*
X182110000Y-99270000D02*
X182110000Y-101570000D01*
X183110000Y-99270000D02*
X182110000Y-99270000D01*
X182110000Y-97510000D02*
X183110000Y-97510000D01*
X183110000Y-97510000D02*
X183110000Y-99270000D01*
X182110000Y-95410000D02*
X182110000Y-97510000D01*
X183110000Y-95410000D02*
X182110000Y-95410000D01*
X182510000Y-93510000D02*
X183110000Y-93510000D01*
X183110000Y-93510000D02*
X183110000Y-95410000D01*
X182510000Y-91910000D02*
X182510000Y-93510000D01*
X183110000Y-91910000D02*
X182510000Y-91910000D01*
X182110000Y-90010000D02*
X183110000Y-90010000D01*
X183110000Y-90010000D02*
X183110000Y-91910000D01*
X182110000Y-87910000D02*
X182110000Y-90010000D01*
X183110000Y-87910000D02*
X182110000Y-87910000D01*
X182110000Y-86150000D02*
X183110000Y-86150000D01*
X183110000Y-86150000D02*
X183110000Y-87910000D01*
X183720000Y-84860000D02*
X183720000Y-100560000D01*
X188020000Y-84860000D02*
X183720000Y-84860000D01*
X182110000Y-83850000D02*
X182110000Y-86150000D01*
X185420000Y-83850000D02*
X185420000Y-84860000D01*
X188730000Y-83850000D02*
X182110000Y-83850000D01*
%TO.C,R3*%
X151860000Y-96620000D02*
X145320000Y-96620000D01*
X151860000Y-96290000D02*
X151860000Y-96620000D01*
X151860000Y-94210000D02*
X151860000Y-93880000D01*
X151860000Y-93880000D02*
X145320000Y-93880000D01*
X145320000Y-96620000D02*
X145320000Y-96290000D01*
X145320000Y-93880000D02*
X145320000Y-94210000D01*
%TO.C,U2*%
X164990000Y-81220000D02*
X164990000Y-104200000D01*
X164990000Y-104200000D02*
X170290000Y-104200000D01*
X166640000Y-81220000D02*
X164990000Y-81220000D01*
X170290000Y-81220000D02*
X168640000Y-81220000D01*
X170290000Y-104200000D02*
X170290000Y-81220000D01*
X168640000Y-81220000D02*
G75*
G02*
X166640000Y-81220000I-1000000J0D01*
G01*
%TO.C,C1*%
X147270000Y-97339000D02*
X147270000Y-98005000D01*
X147270000Y-97339000D02*
X152610000Y-97339000D01*
X147270000Y-100115000D02*
X147270000Y-100781000D01*
X147270000Y-100781000D02*
X152610000Y-100781000D01*
X152610000Y-97339000D02*
X152610000Y-98005000D01*
X152610000Y-100115000D02*
X152610000Y-100781000D01*
%TO.C,C2*%
X147230000Y-101149000D02*
X147230000Y-101815000D01*
X147230000Y-101149000D02*
X152570000Y-101149000D01*
X147230000Y-103925000D02*
X147230000Y-104591000D01*
X147230000Y-104591000D02*
X152570000Y-104591000D01*
X152570000Y-101149000D02*
X152570000Y-101815000D01*
X152570000Y-103925000D02*
X152570000Y-104591000D01*
%TD*%
%LPC*%
D13*
%TO.C,MNT4*%
X128270000Y-106680000D03*
%TD*%
D14*
%TO.C,R1*%
X160020000Y-90170000D03*
D15*
X160020000Y-82550000D03*
%TD*%
D16*
%TO.C,J1*%
X177800000Y-98960000D03*
D17*
X177800000Y-96460000D03*
X177800000Y-93960000D03*
X177800000Y-91460000D03*
X177800000Y-88960000D03*
X177800000Y-86460000D03*
%TD*%
D14*
%TO.C,R2*%
X144780000Y-82550000D03*
D15*
X144780000Y-90170000D03*
%TD*%
D13*
%TO.C,MNT1*%
X185420000Y-106680000D03*
%TD*%
D18*
%TO.C,U1*%
X156210000Y-82550000D03*
D15*
X153670000Y-82550000D03*
X151130000Y-82550000D03*
X148590000Y-82550000D03*
X148590000Y-90170000D03*
X151130000Y-90170000D03*
X153670000Y-90170000D03*
X156210000Y-90170000D03*
%TD*%
D19*
%TO.C,J3*%
X139110000Y-84120000D03*
X139110000Y-101300000D03*
D20*
X139110000Y-90010000D03*
X139110000Y-95410000D03*
%TD*%
D21*
%TO.C,Y1*%
X158750000Y-96520000D03*
X158750000Y-101400000D03*
%TD*%
D16*
%TO.C,J2*%
X185420000Y-98960000D03*
D17*
X185420000Y-96460000D03*
X185420000Y-93960000D03*
X185420000Y-91460000D03*
X185420000Y-88960000D03*
X185420000Y-86460000D03*
%TD*%
D13*
%TO.C,MNT3*%
X128270000Y-78740000D03*
%TD*%
D14*
%TO.C,R3*%
X152400000Y-95250000D03*
D15*
X144780000Y-95250000D03*
%TD*%
D18*
%TO.C,U2*%
X163830000Y-82550000D03*
D15*
X163830000Y-85090000D03*
X163830000Y-87630000D03*
X163830000Y-90170000D03*
X163830000Y-92710000D03*
X163830000Y-95250000D03*
X163830000Y-97790000D03*
X163830000Y-100330000D03*
X163830000Y-102870000D03*
X171450000Y-102870000D03*
X171450000Y-100330000D03*
X171450000Y-97790000D03*
X171450000Y-95250000D03*
X171450000Y-92710000D03*
X171450000Y-90170000D03*
X171450000Y-87630000D03*
X171450000Y-85090000D03*
X171450000Y-82550000D03*
%TD*%
D13*
%TO.C,MNT2*%
X185420000Y-78740000D03*
%TD*%
D14*
%TO.C,C1*%
X147440000Y-99060000D03*
X152440000Y-99060000D03*
%TD*%
%TO.C,C2*%
X147400000Y-102870000D03*
X152400000Y-102870000D03*
%TD*%
%LPD*%
M02*
