%TF.GenerationSoftware,KiCad,Pcbnew,8.0.2*%
%TF.CreationDate,2024-05-12T16:09:50+01:00*%
%TF.ProjectId,TelemetryCANBoard,54656c65-6d65-4747-9279-43414e426f61,rev?*%
%TF.SameCoordinates,Original*%
%TF.FileFunction,Soldermask,Top*%
%TF.FilePolarity,Negative*%
%FSLAX46Y46*%
G04 Gerber Fmt 4.6, Leading zero omitted, Abs format (unit mm)*
G04 Created by KiCad (PCBNEW 8.0.2) date 2024-05-12 16:09:50*
%MOMM*%
%LPD*%
G01*
G04 APERTURE LIST*
G04 Aperture macros list*
%AMRoundRect*
0 Rectangle with rounded corners*
0 $1 Rounding radius*
0 $2 $3 $4 $5 $6 $7 $8 $9 X,Y pos of 4 corners*
0 Add a 4 corners polygon primitive as box body*
4,1,4,$2,$3,$4,$5,$6,$7,$8,$9,$2,$3,0*
0 Add four circle primitives for the rounded corners*
1,1,$1+$1,$2,$3*
1,1,$1+$1,$4,$5*
1,1,$1+$1,$6,$7*
1,1,$1+$1,$8,$9*
0 Add four rect primitives between the rounded corners*
20,1,$1+$1,$2,$3,$4,$5,0*
20,1,$1+$1,$4,$5,$6,$7,0*
20,1,$1+$1,$6,$7,$8,$9,0*
20,1,$1+$1,$8,$9,$2,$3,0*%
G04 Aperture macros list end*
%ADD10C,3.200000*%
%ADD11C,1.600000*%
%ADD12O,1.600000X1.600000*%
%ADD13RoundRect,0.250000X0.725000X-0.600000X0.725000X0.600000X-0.725000X0.600000X-0.725000X-0.600000X0*%
%ADD14O,1.950000X1.700000*%
%ADD15R,1.600000X1.600000*%
%ADD16C,3.300000*%
%ADD17C,3.000000*%
%ADD18C,1.500000*%
G04 APERTURE END LIST*
D10*
%TO.C,MNT4*%
X128270000Y-106680000D03*
%TD*%
D11*
%TO.C,R1*%
X160020000Y-90170000D03*
D12*
X160020000Y-82550000D03*
%TD*%
D13*
%TO.C,J1*%
X177800000Y-98960000D03*
D14*
X177800000Y-96460000D03*
X177800000Y-93960000D03*
X177800000Y-91460000D03*
X177800000Y-88960000D03*
X177800000Y-86460000D03*
%TD*%
D11*
%TO.C,R2*%
X144780000Y-82550000D03*
D12*
X144780000Y-90170000D03*
%TD*%
D10*
%TO.C,MNT1*%
X185420000Y-106680000D03*
%TD*%
D15*
%TO.C,U1*%
X156210000Y-82550000D03*
D12*
X153670000Y-82550000D03*
X151130000Y-82550000D03*
X148590000Y-82550000D03*
X148590000Y-90170000D03*
X151130000Y-90170000D03*
X153670000Y-90170000D03*
X156210000Y-90170000D03*
%TD*%
D16*
%TO.C,J3*%
X139110000Y-84120000D03*
X139110000Y-101300000D03*
D17*
X139110000Y-90010000D03*
X139110000Y-95410000D03*
%TD*%
D18*
%TO.C,Y1*%
X158750000Y-96520000D03*
X158750000Y-101400000D03*
%TD*%
D13*
%TO.C,J2*%
X185420000Y-98960000D03*
D14*
X185420000Y-96460000D03*
X185420000Y-93960000D03*
X185420000Y-91460000D03*
X185420000Y-88960000D03*
X185420000Y-86460000D03*
%TD*%
D10*
%TO.C,MNT3*%
X128270000Y-78740000D03*
%TD*%
D11*
%TO.C,R3*%
X152400000Y-95250000D03*
D12*
X144780000Y-95250000D03*
%TD*%
D15*
%TO.C,U2*%
X163830000Y-82550000D03*
D12*
X163830000Y-85090000D03*
X163830000Y-87630000D03*
X163830000Y-90170000D03*
X163830000Y-92710000D03*
X163830000Y-95250000D03*
X163830000Y-97790000D03*
X163830000Y-100330000D03*
X163830000Y-102870000D03*
X171450000Y-102870000D03*
X171450000Y-100330000D03*
X171450000Y-97790000D03*
X171450000Y-95250000D03*
X171450000Y-92710000D03*
X171450000Y-90170000D03*
X171450000Y-87630000D03*
X171450000Y-85090000D03*
X171450000Y-82550000D03*
%TD*%
D10*
%TO.C,MNT2*%
X185420000Y-78740000D03*
%TD*%
D11*
%TO.C,C1*%
X147440000Y-99060000D03*
X152440000Y-99060000D03*
%TD*%
%TO.C,C2*%
X147400000Y-102870000D03*
X152400000Y-102870000D03*
%TD*%
M02*
