%TF.GenerationSoftware,KiCad,Pcbnew,8.0.2*%
%TF.CreationDate,2024-05-19T17:08:07+01:00*%
%TF.ProjectId,New BSPD,4e657720-4253-4504-942e-6b696361645f,rev?*%
%TF.SameCoordinates,Original*%
%TF.FileFunction,Drillmap*%
%TF.FilePolarity,Positive*%
%FSLAX45Y45*%
G04 Gerber Fmt 4.5, Leading zero omitted, Abs format (unit mm)*
G04 Created by KiCad (PCBNEW 8.0.2) date 2024-05-19 17:08:07*
%MOMM*%
%LPD*%
G01*
G04 APERTURE LIST*
%ADD10C,0.100000*%
%ADD11C,0.200000*%
%ADD12C,0.110000*%
%ADD13C,0.130000*%
%ADD14C,0.150000*%
%ADD15C,0.170000*%
%ADD16C,0.180000*%
G04 APERTURE END LIST*
D10*
X5461000Y-10668000D02*
G75*
G02*
X5207000Y-10414000I0J254000D01*
G01*
X5461000Y-2286000D02*
X19812000Y-2286000D01*
X19812000Y-2286000D02*
G75*
G02*
X20066000Y-2540000I0J-254000D01*
G01*
X5207000Y-2540000D02*
G75*
G02*
X5461000Y-2286000I254000J0D01*
G01*
X20066000Y-10414000D02*
G75*
G02*
X19812000Y-10668000I-254000J0D01*
G01*
X5207000Y-10414000D02*
X5207000Y-2540000D01*
X20066000Y-2540000D02*
X20066000Y-10414000D01*
X19812000Y-10668000D02*
X5461000Y-10668000D01*
D11*
D10*
X7727000Y-6901500D02*
X7767000Y-6941500D01*
X7767000Y-6901500D02*
X7727000Y-6941500D01*
X9759000Y-6584000D02*
X9799000Y-6624000D01*
X9799000Y-6584000D02*
X9759000Y-6624000D01*
X10521000Y-5314000D02*
X10561000Y-5354000D01*
X10561000Y-5314000D02*
X10521000Y-5354000D01*
X10521000Y-6965000D02*
X10561000Y-7005000D01*
X10561000Y-6965000D02*
X10521000Y-7005000D01*
X11664000Y-2774000D02*
X11704000Y-2814000D01*
X11704000Y-2774000D02*
X11664000Y-2814000D01*
X11664000Y-8743000D02*
X11704000Y-8783000D01*
X11704000Y-8743000D02*
X11664000Y-8783000D01*
X12426000Y-2710500D02*
X12466000Y-2750500D01*
X12466000Y-2710500D02*
X12426000Y-2750500D01*
X12807000Y-9632000D02*
X12847000Y-9672000D01*
X12847000Y-9632000D02*
X12807000Y-9672000D01*
X13061000Y-2774000D02*
X13101000Y-2814000D01*
X13101000Y-2774000D02*
X13061000Y-2814000D01*
X13696000Y-2647000D02*
X13736000Y-2687000D01*
X13736000Y-2647000D02*
X13696000Y-2687000D01*
X13759500Y-2901000D02*
X13799500Y-2941000D01*
X13799500Y-2901000D02*
X13759500Y-2941000D01*
X14077000Y-6838000D02*
X14117000Y-6878000D01*
X14117000Y-6838000D02*
X14077000Y-6878000D01*
X14331000Y-2395000D02*
X14371000Y-2435000D01*
X14371000Y-2395000D02*
X14331000Y-2435000D01*
X14458000Y-2901000D02*
X14498000Y-2941000D01*
X14498000Y-2901000D02*
X14458000Y-2941000D01*
X14712000Y-4298000D02*
X14752000Y-4338000D01*
X14752000Y-4298000D02*
X14712000Y-4338000D01*
X14839000Y-10267000D02*
X14879000Y-10307000D01*
X14879000Y-10267000D02*
X14839000Y-10307000D01*
X14966000Y-5187000D02*
X15006000Y-5227000D01*
X15006000Y-5187000D02*
X14966000Y-5227000D01*
X15093000Y-5695000D02*
X15133000Y-5735000D01*
X15133000Y-5695000D02*
X15093000Y-5735000D01*
X15601000Y-5441000D02*
X15641000Y-5481000D01*
X15641000Y-5441000D02*
X15601000Y-5481000D01*
X15601000Y-5695000D02*
X15641000Y-5735000D01*
X15641000Y-5695000D02*
X15601000Y-5735000D01*
X15855000Y-3536000D02*
X15895000Y-3576000D01*
X15895000Y-3536000D02*
X15855000Y-3576000D01*
X15855000Y-4107500D02*
X15895000Y-4147500D01*
X15895000Y-4107500D02*
X15855000Y-4147500D01*
X15855000Y-4679000D02*
X15895000Y-4719000D01*
X15895000Y-4679000D02*
X15855000Y-4719000D01*
X15918500Y-6774500D02*
X15958500Y-6814500D01*
X15958500Y-6774500D02*
X15918500Y-6814500D01*
X15982000Y-3409000D02*
X16022000Y-3449000D01*
X16022000Y-3409000D02*
X15982000Y-3449000D01*
X16426500Y-6266500D02*
X16466500Y-6306500D01*
X16466500Y-6266500D02*
X16426500Y-6306500D01*
X16490000Y-2520000D02*
X16530000Y-2560000D01*
X16530000Y-2520000D02*
X16490000Y-2560000D01*
X16490000Y-3790000D02*
X16530000Y-3830000D01*
X16530000Y-3790000D02*
X16490000Y-3830000D01*
X16490000Y-5695000D02*
X16530000Y-5735000D01*
X16530000Y-5695000D02*
X16490000Y-5735000D01*
X16617000Y-3218500D02*
X16657000Y-3258500D01*
X16657000Y-3218500D02*
X16617000Y-3258500D01*
X16680500Y-5250500D02*
X16720500Y-5290500D01*
X16720500Y-5250500D02*
X16680500Y-5290500D01*
X17506000Y-3790000D02*
X17546000Y-3830000D01*
X17546000Y-3790000D02*
X17506000Y-3830000D01*
X17506000Y-4552000D02*
X17546000Y-4592000D01*
X17546000Y-4552000D02*
X17506000Y-4592000D01*
X17633000Y-3409000D02*
X17673000Y-3449000D01*
X17673000Y-3409000D02*
X17633000Y-3449000D01*
X17760000Y-9124000D02*
X17800000Y-9164000D01*
X17800000Y-9124000D02*
X17760000Y-9164000D01*
X18141000Y-5695000D02*
X18181000Y-5735000D01*
X18181000Y-5695000D02*
X18141000Y-5735000D01*
X18395000Y-3345500D02*
X18435000Y-3385500D01*
X18435000Y-3345500D02*
X18395000Y-3385500D01*
X18522000Y-6584000D02*
X18562000Y-6624000D01*
X18562000Y-6584000D02*
X18522000Y-6624000D01*
X18776000Y-8743000D02*
X18816000Y-8783000D01*
X18816000Y-8743000D02*
X18776000Y-8783000D01*
X18903000Y-8743000D02*
X18943000Y-8783000D01*
X18943000Y-8743000D02*
X18903000Y-8783000D01*
X8485500Y-5715000D02*
G75*
G02*
X8405500Y-5715000I-40000J0D01*
G01*
X8405500Y-5715000D02*
G75*
G02*
X8485500Y-5715000I40000J0D01*
G01*
X8485500Y-6477000D02*
G75*
G02*
X8405500Y-6477000I-40000J0D01*
G01*
X8405500Y-6477000D02*
G75*
G02*
X8485500Y-6477000I40000J0D01*
G01*
X8803000Y-5715000D02*
G75*
G02*
X8723000Y-5715000I-40000J0D01*
G01*
X8723000Y-5715000D02*
G75*
G02*
X8803000Y-5715000I40000J0D01*
G01*
X8803000Y-6477000D02*
G75*
G02*
X8723000Y-6477000I-40000J0D01*
G01*
X8723000Y-6477000D02*
G75*
G02*
X8803000Y-6477000I40000J0D01*
G01*
X9310000Y-5715500D02*
G75*
G02*
X9230000Y-5715500I-40000J0D01*
G01*
X9230000Y-5715500D02*
G75*
G02*
X9310000Y-5715500I40000J0D01*
G01*
X9310000Y-6223500D02*
G75*
G02*
X9230000Y-6223500I-40000J0D01*
G01*
X9230000Y-6223500D02*
G75*
G02*
X9310000Y-6223500I40000J0D01*
G01*
X9310000Y-6731500D02*
G75*
G02*
X9230000Y-6731500I-40000J0D01*
G01*
X9230000Y-6731500D02*
G75*
G02*
X9310000Y-6731500I40000J0D01*
G01*
X9310000Y-7239500D02*
G75*
G02*
X9230000Y-7239500I-40000J0D01*
G01*
X9230000Y-7239500D02*
G75*
G02*
X9310000Y-7239500I40000J0D01*
G01*
X9564000Y-5969500D02*
G75*
G02*
X9484000Y-5969500I-40000J0D01*
G01*
X9484000Y-5969500D02*
G75*
G02*
X9564000Y-5969500I40000J0D01*
G01*
X9564000Y-6985500D02*
G75*
G02*
X9484000Y-6985500I-40000J0D01*
G01*
X9484000Y-6985500D02*
G75*
G02*
X9564000Y-6985500I40000J0D01*
G01*
X10200000Y-5715000D02*
G75*
G02*
X10120000Y-5715000I-40000J0D01*
G01*
X10120000Y-5715000D02*
G75*
G02*
X10200000Y-5715000I40000J0D01*
G01*
X10200000Y-5969000D02*
G75*
G02*
X10120000Y-5969000I-40000J0D01*
G01*
X10120000Y-5969000D02*
G75*
G02*
X10200000Y-5969000I40000J0D01*
G01*
X10200000Y-6223000D02*
G75*
G02*
X10120000Y-6223000I-40000J0D01*
G01*
X10120000Y-6223000D02*
G75*
G02*
X10200000Y-6223000I40000J0D01*
G01*
X10200000Y-6477000D02*
G75*
G02*
X10120000Y-6477000I-40000J0D01*
G01*
X10120000Y-6477000D02*
G75*
G02*
X10200000Y-6477000I40000J0D01*
G01*
X10200000Y-6731000D02*
G75*
G02*
X10120000Y-6731000I-40000J0D01*
G01*
X10120000Y-6731000D02*
G75*
G02*
X10200000Y-6731000I40000J0D01*
G01*
X10200000Y-6985000D02*
G75*
G02*
X10120000Y-6985000I-40000J0D01*
G01*
X10120000Y-6985000D02*
G75*
G02*
X10200000Y-6985000I40000J0D01*
G01*
X10200000Y-7239000D02*
G75*
G02*
X10120000Y-7239000I-40000J0D01*
G01*
X10120000Y-7239000D02*
G75*
G02*
X10200000Y-7239000I40000J0D01*
G01*
X10263500Y-7683500D02*
G75*
G02*
X10183500Y-7683500I-40000J0D01*
G01*
X10183500Y-7683500D02*
G75*
G02*
X10263500Y-7683500I40000J0D01*
G01*
X10962000Y-5715000D02*
G75*
G02*
X10882000Y-5715000I-40000J0D01*
G01*
X10882000Y-5715000D02*
G75*
G02*
X10962000Y-5715000I40000J0D01*
G01*
X10962000Y-5969000D02*
G75*
G02*
X10882000Y-5969000I-40000J0D01*
G01*
X10882000Y-5969000D02*
G75*
G02*
X10962000Y-5969000I40000J0D01*
G01*
X10962000Y-6223000D02*
G75*
G02*
X10882000Y-6223000I-40000J0D01*
G01*
X10882000Y-6223000D02*
G75*
G02*
X10962000Y-6223000I40000J0D01*
G01*
X10962000Y-6477000D02*
G75*
G02*
X10882000Y-6477000I-40000J0D01*
G01*
X10882000Y-6477000D02*
G75*
G02*
X10962000Y-6477000I40000J0D01*
G01*
X10962000Y-6731000D02*
G75*
G02*
X10882000Y-6731000I-40000J0D01*
G01*
X10882000Y-6731000D02*
G75*
G02*
X10962000Y-6731000I40000J0D01*
G01*
X10962000Y-6985000D02*
G75*
G02*
X10882000Y-6985000I-40000J0D01*
G01*
X10882000Y-6985000D02*
G75*
G02*
X10962000Y-6985000I40000J0D01*
G01*
X10962000Y-7239000D02*
G75*
G02*
X10882000Y-7239000I-40000J0D01*
G01*
X10882000Y-7239000D02*
G75*
G02*
X10962000Y-7239000I40000J0D01*
G01*
X11025500Y-7683500D02*
G75*
G02*
X10945500Y-7683500I-40000J0D01*
G01*
X10945500Y-7683500D02*
G75*
G02*
X11025500Y-7683500I40000J0D01*
G01*
X11519000Y-7747000D02*
G75*
G02*
X11439000Y-7747000I-40000J0D01*
G01*
X11439000Y-7747000D02*
G75*
G02*
X11519000Y-7747000I40000J0D01*
G01*
X11519000Y-8001000D02*
G75*
G02*
X11439000Y-8001000I-40000J0D01*
G01*
X11439000Y-8001000D02*
G75*
G02*
X11519000Y-8001000I40000J0D01*
G01*
X11519000Y-8255000D02*
G75*
G02*
X11439000Y-8255000I-40000J0D01*
G01*
X11439000Y-8255000D02*
G75*
G02*
X11519000Y-8255000I40000J0D01*
G01*
X11519000Y-8509000D02*
G75*
G02*
X11439000Y-8509000I-40000J0D01*
G01*
X11439000Y-8509000D02*
G75*
G02*
X11519000Y-8509000I40000J0D01*
G01*
X11519000Y-8763000D02*
G75*
G02*
X11439000Y-8763000I-40000J0D01*
G01*
X11439000Y-8763000D02*
G75*
G02*
X11519000Y-8763000I40000J0D01*
G01*
X11519000Y-9017000D02*
G75*
G02*
X11439000Y-9017000I-40000J0D01*
G01*
X11439000Y-9017000D02*
G75*
G02*
X11519000Y-9017000I40000J0D01*
G01*
X11519000Y-9271000D02*
G75*
G02*
X11439000Y-9271000I-40000J0D01*
G01*
X11439000Y-9271000D02*
G75*
G02*
X11519000Y-9271000I40000J0D01*
G01*
X11596000Y-5969500D02*
G75*
G02*
X11516000Y-5969500I-40000J0D01*
G01*
X11516000Y-5969500D02*
G75*
G02*
X11596000Y-5969500I40000J0D01*
G01*
X11596000Y-6985500D02*
G75*
G02*
X11516000Y-6985500I-40000J0D01*
G01*
X11516000Y-6985500D02*
G75*
G02*
X11596000Y-6985500I40000J0D01*
G01*
X11597000Y-10287000D02*
G75*
G02*
X11517000Y-10287000I-40000J0D01*
G01*
X11517000Y-10287000D02*
G75*
G02*
X11597000Y-10287000I40000J0D01*
G01*
X11724000Y-5207000D02*
G75*
G02*
X11644000Y-5207000I-40000J0D01*
G01*
X11644000Y-5207000D02*
G75*
G02*
X11724000Y-5207000I40000J0D01*
G01*
X11850000Y-5715500D02*
G75*
G02*
X11770000Y-5715500I-40000J0D01*
G01*
X11770000Y-5715500D02*
G75*
G02*
X11850000Y-5715500I40000J0D01*
G01*
X11850000Y-6223500D02*
G75*
G02*
X11770000Y-6223500I-40000J0D01*
G01*
X11770000Y-6223500D02*
G75*
G02*
X11850000Y-6223500I40000J0D01*
G01*
X11850000Y-6731500D02*
G75*
G02*
X11770000Y-6731500I-40000J0D01*
G01*
X11770000Y-6731500D02*
G75*
G02*
X11850000Y-6731500I40000J0D01*
G01*
X11850000Y-7239500D02*
G75*
G02*
X11770000Y-7239500I-40000J0D01*
G01*
X11770000Y-7239500D02*
G75*
G02*
X11850000Y-7239500I40000J0D01*
G01*
X12105000Y-2540000D02*
G75*
G02*
X12025000Y-2540000I-40000J0D01*
G01*
X12025000Y-2540000D02*
G75*
G02*
X12105000Y-2540000I40000J0D01*
G01*
X12105000Y-2794000D02*
G75*
G02*
X12025000Y-2794000I-40000J0D01*
G01*
X12025000Y-2794000D02*
G75*
G02*
X12105000Y-2794000I40000J0D01*
G01*
X12105000Y-3048000D02*
G75*
G02*
X12025000Y-3048000I-40000J0D01*
G01*
X12025000Y-3048000D02*
G75*
G02*
X12105000Y-3048000I40000J0D01*
G01*
X12105000Y-3302000D02*
G75*
G02*
X12025000Y-3302000I-40000J0D01*
G01*
X12025000Y-3302000D02*
G75*
G02*
X12105000Y-3302000I40000J0D01*
G01*
X12105000Y-3556000D02*
G75*
G02*
X12025000Y-3556000I-40000J0D01*
G01*
X12025000Y-3556000D02*
G75*
G02*
X12105000Y-3556000I40000J0D01*
G01*
X12105000Y-3810000D02*
G75*
G02*
X12025000Y-3810000I-40000J0D01*
G01*
X12025000Y-3810000D02*
G75*
G02*
X12105000Y-3810000I40000J0D01*
G01*
X12105000Y-4064000D02*
G75*
G02*
X12025000Y-4064000I-40000J0D01*
G01*
X12025000Y-4064000D02*
G75*
G02*
X12105000Y-4064000I40000J0D01*
G01*
X12281000Y-7747000D02*
G75*
G02*
X12201000Y-7747000I-40000J0D01*
G01*
X12201000Y-7747000D02*
G75*
G02*
X12281000Y-7747000I40000J0D01*
G01*
X12281000Y-8001000D02*
G75*
G02*
X12201000Y-8001000I-40000J0D01*
G01*
X12201000Y-8001000D02*
G75*
G02*
X12281000Y-8001000I40000J0D01*
G01*
X12281000Y-8255000D02*
G75*
G02*
X12201000Y-8255000I-40000J0D01*
G01*
X12201000Y-8255000D02*
G75*
G02*
X12281000Y-8255000I40000J0D01*
G01*
X12281000Y-8509000D02*
G75*
G02*
X12201000Y-8509000I-40000J0D01*
G01*
X12201000Y-8509000D02*
G75*
G02*
X12281000Y-8509000I40000J0D01*
G01*
X12281000Y-8763000D02*
G75*
G02*
X12201000Y-8763000I-40000J0D01*
G01*
X12201000Y-8763000D02*
G75*
G02*
X12281000Y-8763000I40000J0D01*
G01*
X12281000Y-9017000D02*
G75*
G02*
X12201000Y-9017000I-40000J0D01*
G01*
X12201000Y-9017000D02*
G75*
G02*
X12281000Y-9017000I40000J0D01*
G01*
X12281000Y-9271000D02*
G75*
G02*
X12201000Y-9271000I-40000J0D01*
G01*
X12201000Y-9271000D02*
G75*
G02*
X12281000Y-9271000I40000J0D01*
G01*
X12359000Y-10287000D02*
G75*
G02*
X12279000Y-10287000I-40000J0D01*
G01*
X12279000Y-10287000D02*
G75*
G02*
X12359000Y-10287000I40000J0D01*
G01*
X12486000Y-5207000D02*
G75*
G02*
X12406000Y-5207000I-40000J0D01*
G01*
X12406000Y-5207000D02*
G75*
G02*
X12486000Y-5207000I40000J0D01*
G01*
X12740000Y-5207000D02*
G75*
G02*
X12660000Y-5207000I-40000J0D01*
G01*
X12660000Y-5207000D02*
G75*
G02*
X12740000Y-5207000I40000J0D01*
G01*
X12867000Y-2540000D02*
G75*
G02*
X12787000Y-2540000I-40000J0D01*
G01*
X12787000Y-2540000D02*
G75*
G02*
X12867000Y-2540000I40000J0D01*
G01*
X12867000Y-2794000D02*
G75*
G02*
X12787000Y-2794000I-40000J0D01*
G01*
X12787000Y-2794000D02*
G75*
G02*
X12867000Y-2794000I40000J0D01*
G01*
X12867000Y-3048000D02*
G75*
G02*
X12787000Y-3048000I-40000J0D01*
G01*
X12787000Y-3048000D02*
G75*
G02*
X12867000Y-3048000I40000J0D01*
G01*
X12867000Y-3302000D02*
G75*
G02*
X12787000Y-3302000I-40000J0D01*
G01*
X12787000Y-3302000D02*
G75*
G02*
X12867000Y-3302000I40000J0D01*
G01*
X12867000Y-3556000D02*
G75*
G02*
X12787000Y-3556000I-40000J0D01*
G01*
X12787000Y-3556000D02*
G75*
G02*
X12867000Y-3556000I40000J0D01*
G01*
X12867000Y-3810000D02*
G75*
G02*
X12787000Y-3810000I-40000J0D01*
G01*
X12787000Y-3810000D02*
G75*
G02*
X12867000Y-3810000I40000J0D01*
G01*
X12867000Y-4064000D02*
G75*
G02*
X12787000Y-4064000I-40000J0D01*
G01*
X12787000Y-4064000D02*
G75*
G02*
X12867000Y-4064000I40000J0D01*
G01*
X12994000Y-5588000D02*
G75*
G02*
X12914000Y-5588000I-40000J0D01*
G01*
X12914000Y-5588000D02*
G75*
G02*
X12994000Y-5588000I40000J0D01*
G01*
X12994000Y-5842000D02*
G75*
G02*
X12914000Y-5842000I-40000J0D01*
G01*
X12914000Y-5842000D02*
G75*
G02*
X12994000Y-5842000I40000J0D01*
G01*
X12994000Y-6096000D02*
G75*
G02*
X12914000Y-6096000I-40000J0D01*
G01*
X12914000Y-6096000D02*
G75*
G02*
X12994000Y-6096000I40000J0D01*
G01*
X12994000Y-6350000D02*
G75*
G02*
X12914000Y-6350000I-40000J0D01*
G01*
X12914000Y-6350000D02*
G75*
G02*
X12994000Y-6350000I40000J0D01*
G01*
X12994000Y-6604000D02*
G75*
G02*
X12914000Y-6604000I-40000J0D01*
G01*
X12914000Y-6604000D02*
G75*
G02*
X12994000Y-6604000I40000J0D01*
G01*
X12994000Y-6858000D02*
G75*
G02*
X12914000Y-6858000I-40000J0D01*
G01*
X12914000Y-6858000D02*
G75*
G02*
X12994000Y-6858000I40000J0D01*
G01*
X12994000Y-7112000D02*
G75*
G02*
X12914000Y-7112000I-40000J0D01*
G01*
X12914000Y-7112000D02*
G75*
G02*
X12994000Y-7112000I40000J0D01*
G01*
X12994000Y-7366000D02*
G75*
G02*
X12914000Y-7366000I-40000J0D01*
G01*
X12914000Y-7366000D02*
G75*
G02*
X12994000Y-7366000I40000J0D01*
G01*
X13121000Y-8001000D02*
G75*
G02*
X13041000Y-8001000I-40000J0D01*
G01*
X13041000Y-8001000D02*
G75*
G02*
X13121000Y-8001000I40000J0D01*
G01*
X13121000Y-8255000D02*
G75*
G02*
X13041000Y-8255000I-40000J0D01*
G01*
X13041000Y-8255000D02*
G75*
G02*
X13121000Y-8255000I40000J0D01*
G01*
X13121000Y-8509000D02*
G75*
G02*
X13041000Y-8509000I-40000J0D01*
G01*
X13041000Y-8509000D02*
G75*
G02*
X13121000Y-8509000I40000J0D01*
G01*
X13121000Y-8763000D02*
G75*
G02*
X13041000Y-8763000I-40000J0D01*
G01*
X13041000Y-8763000D02*
G75*
G02*
X13121000Y-8763000I40000J0D01*
G01*
X13121000Y-9017000D02*
G75*
G02*
X13041000Y-9017000I-40000J0D01*
G01*
X13041000Y-9017000D02*
G75*
G02*
X13121000Y-9017000I40000J0D01*
G01*
X13121000Y-9271000D02*
G75*
G02*
X13041000Y-9271000I-40000J0D01*
G01*
X13041000Y-9271000D02*
G75*
G02*
X13121000Y-9271000I40000J0D01*
G01*
X13121000Y-9525000D02*
G75*
G02*
X13041000Y-9525000I-40000J0D01*
G01*
X13041000Y-9525000D02*
G75*
G02*
X13121000Y-9525000I40000J0D01*
G01*
X13121000Y-9779000D02*
G75*
G02*
X13041000Y-9779000I-40000J0D01*
G01*
X13041000Y-9779000D02*
G75*
G02*
X13121000Y-9779000I40000J0D01*
G01*
X13121000Y-10033000D02*
G75*
G02*
X13041000Y-10033000I-40000J0D01*
G01*
X13041000Y-10033000D02*
G75*
G02*
X13121000Y-10033000I40000J0D01*
G01*
X13121000Y-10287000D02*
G75*
G02*
X13041000Y-10287000I-40000J0D01*
G01*
X13041000Y-10287000D02*
G75*
G02*
X13121000Y-10287000I40000J0D01*
G01*
X13375000Y-2540000D02*
G75*
G02*
X13295000Y-2540000I-40000J0D01*
G01*
X13295000Y-2540000D02*
G75*
G02*
X13375000Y-2540000I40000J0D01*
G01*
X13375000Y-2794000D02*
G75*
G02*
X13295000Y-2794000I-40000J0D01*
G01*
X13295000Y-2794000D02*
G75*
G02*
X13375000Y-2794000I40000J0D01*
G01*
X13375000Y-3048000D02*
G75*
G02*
X13295000Y-3048000I-40000J0D01*
G01*
X13295000Y-3048000D02*
G75*
G02*
X13375000Y-3048000I40000J0D01*
G01*
X13375000Y-3302000D02*
G75*
G02*
X13295000Y-3302000I-40000J0D01*
G01*
X13295000Y-3302000D02*
G75*
G02*
X13375000Y-3302000I40000J0D01*
G01*
X13375000Y-3556000D02*
G75*
G02*
X13295000Y-3556000I-40000J0D01*
G01*
X13295000Y-3556000D02*
G75*
G02*
X13375000Y-3556000I40000J0D01*
G01*
X13375000Y-3810000D02*
G75*
G02*
X13295000Y-3810000I-40000J0D01*
G01*
X13295000Y-3810000D02*
G75*
G02*
X13375000Y-3810000I40000J0D01*
G01*
X13375000Y-4064000D02*
G75*
G02*
X13295000Y-4064000I-40000J0D01*
G01*
X13295000Y-4064000D02*
G75*
G02*
X13375000Y-4064000I40000J0D01*
G01*
X13502000Y-5207000D02*
G75*
G02*
X13422000Y-5207000I-40000J0D01*
G01*
X13422000Y-5207000D02*
G75*
G02*
X13502000Y-5207000I40000J0D01*
G01*
X13756000Y-5588000D02*
G75*
G02*
X13676000Y-5588000I-40000J0D01*
G01*
X13676000Y-5588000D02*
G75*
G02*
X13756000Y-5588000I40000J0D01*
G01*
X13756000Y-5842000D02*
G75*
G02*
X13676000Y-5842000I-40000J0D01*
G01*
X13676000Y-5842000D02*
G75*
G02*
X13756000Y-5842000I40000J0D01*
G01*
X13756000Y-6096000D02*
G75*
G02*
X13676000Y-6096000I-40000J0D01*
G01*
X13676000Y-6096000D02*
G75*
G02*
X13756000Y-6096000I40000J0D01*
G01*
X13756000Y-6350000D02*
G75*
G02*
X13676000Y-6350000I-40000J0D01*
G01*
X13676000Y-6350000D02*
G75*
G02*
X13756000Y-6350000I40000J0D01*
G01*
X13756000Y-6604000D02*
G75*
G02*
X13676000Y-6604000I-40000J0D01*
G01*
X13676000Y-6604000D02*
G75*
G02*
X13756000Y-6604000I40000J0D01*
G01*
X13756000Y-6858000D02*
G75*
G02*
X13676000Y-6858000I-40000J0D01*
G01*
X13676000Y-6858000D02*
G75*
G02*
X13756000Y-6858000I40000J0D01*
G01*
X13756000Y-7112000D02*
G75*
G02*
X13676000Y-7112000I-40000J0D01*
G01*
X13676000Y-7112000D02*
G75*
G02*
X13756000Y-7112000I40000J0D01*
G01*
X13756000Y-7366000D02*
G75*
G02*
X13676000Y-7366000I-40000J0D01*
G01*
X13676000Y-7366000D02*
G75*
G02*
X13756000Y-7366000I40000J0D01*
G01*
X13883000Y-8001000D02*
G75*
G02*
X13803000Y-8001000I-40000J0D01*
G01*
X13803000Y-8001000D02*
G75*
G02*
X13883000Y-8001000I40000J0D01*
G01*
X13883000Y-8255000D02*
G75*
G02*
X13803000Y-8255000I-40000J0D01*
G01*
X13803000Y-8255000D02*
G75*
G02*
X13883000Y-8255000I40000J0D01*
G01*
X13883000Y-8509000D02*
G75*
G02*
X13803000Y-8509000I-40000J0D01*
G01*
X13803000Y-8509000D02*
G75*
G02*
X13883000Y-8509000I40000J0D01*
G01*
X13883000Y-8763000D02*
G75*
G02*
X13803000Y-8763000I-40000J0D01*
G01*
X13803000Y-8763000D02*
G75*
G02*
X13883000Y-8763000I40000J0D01*
G01*
X13883000Y-9017000D02*
G75*
G02*
X13803000Y-9017000I-40000J0D01*
G01*
X13803000Y-9017000D02*
G75*
G02*
X13883000Y-9017000I40000J0D01*
G01*
X13883000Y-9271000D02*
G75*
G02*
X13803000Y-9271000I-40000J0D01*
G01*
X13803000Y-9271000D02*
G75*
G02*
X13883000Y-9271000I40000J0D01*
G01*
X13883000Y-9525000D02*
G75*
G02*
X13803000Y-9525000I-40000J0D01*
G01*
X13803000Y-9525000D02*
G75*
G02*
X13883000Y-9525000I40000J0D01*
G01*
X13883000Y-9779000D02*
G75*
G02*
X13803000Y-9779000I-40000J0D01*
G01*
X13803000Y-9779000D02*
G75*
G02*
X13883000Y-9779000I40000J0D01*
G01*
X13883000Y-10033000D02*
G75*
G02*
X13803000Y-10033000I-40000J0D01*
G01*
X13803000Y-10033000D02*
G75*
G02*
X13883000Y-10033000I40000J0D01*
G01*
X13883000Y-10287000D02*
G75*
G02*
X13803000Y-10287000I-40000J0D01*
G01*
X13803000Y-10287000D02*
G75*
G02*
X13883000Y-10287000I40000J0D01*
G01*
X14137000Y-2540000D02*
G75*
G02*
X14057000Y-2540000I-40000J0D01*
G01*
X14057000Y-2540000D02*
G75*
G02*
X14137000Y-2540000I40000J0D01*
G01*
X14137000Y-2794000D02*
G75*
G02*
X14057000Y-2794000I-40000J0D01*
G01*
X14057000Y-2794000D02*
G75*
G02*
X14137000Y-2794000I40000J0D01*
G01*
X14137000Y-3048000D02*
G75*
G02*
X14057000Y-3048000I-40000J0D01*
G01*
X14057000Y-3048000D02*
G75*
G02*
X14137000Y-3048000I40000J0D01*
G01*
X14137000Y-3302000D02*
G75*
G02*
X14057000Y-3302000I-40000J0D01*
G01*
X14057000Y-3302000D02*
G75*
G02*
X14137000Y-3302000I40000J0D01*
G01*
X14137000Y-3556000D02*
G75*
G02*
X14057000Y-3556000I-40000J0D01*
G01*
X14057000Y-3556000D02*
G75*
G02*
X14137000Y-3556000I40000J0D01*
G01*
X14137000Y-3810000D02*
G75*
G02*
X14057000Y-3810000I-40000J0D01*
G01*
X14057000Y-3810000D02*
G75*
G02*
X14137000Y-3810000I40000J0D01*
G01*
X14137000Y-4064000D02*
G75*
G02*
X14057000Y-4064000I-40000J0D01*
G01*
X14057000Y-4064000D02*
G75*
G02*
X14137000Y-4064000I40000J0D01*
G01*
X14391000Y-10287000D02*
G75*
G02*
X14311000Y-10287000I-40000J0D01*
G01*
X14311000Y-10287000D02*
G75*
G02*
X14391000Y-10287000I40000J0D01*
G01*
X14645000Y-2540000D02*
G75*
G02*
X14565000Y-2540000I-40000J0D01*
G01*
X14565000Y-2540000D02*
G75*
G02*
X14645000Y-2540000I40000J0D01*
G01*
X14645000Y-2794000D02*
G75*
G02*
X14565000Y-2794000I-40000J0D01*
G01*
X14565000Y-2794000D02*
G75*
G02*
X14645000Y-2794000I40000J0D01*
G01*
X14645000Y-3048000D02*
G75*
G02*
X14565000Y-3048000I-40000J0D01*
G01*
X14565000Y-3048000D02*
G75*
G02*
X14645000Y-3048000I40000J0D01*
G01*
X14645000Y-3302000D02*
G75*
G02*
X14565000Y-3302000I-40000J0D01*
G01*
X14565000Y-3302000D02*
G75*
G02*
X14645000Y-3302000I40000J0D01*
G01*
X14645000Y-3556000D02*
G75*
G02*
X14565000Y-3556000I-40000J0D01*
G01*
X14565000Y-3556000D02*
G75*
G02*
X14645000Y-3556000I40000J0D01*
G01*
X14645000Y-3810000D02*
G75*
G02*
X14565000Y-3810000I-40000J0D01*
G01*
X14565000Y-3810000D02*
G75*
G02*
X14645000Y-3810000I40000J0D01*
G01*
X14645000Y-4064000D02*
G75*
G02*
X14565000Y-4064000I-40000J0D01*
G01*
X14565000Y-4064000D02*
G75*
G02*
X14645000Y-4064000I40000J0D01*
G01*
X14645000Y-4572000D02*
G75*
G02*
X14565000Y-4572000I-40000J0D01*
G01*
X14565000Y-4572000D02*
G75*
G02*
X14645000Y-4572000I40000J0D01*
G01*
X14645000Y-4826000D02*
G75*
G02*
X14565000Y-4826000I-40000J0D01*
G01*
X14565000Y-4826000D02*
G75*
G02*
X14645000Y-4826000I40000J0D01*
G01*
X14645000Y-5080000D02*
G75*
G02*
X14565000Y-5080000I-40000J0D01*
G01*
X14565000Y-5080000D02*
G75*
G02*
X14645000Y-5080000I40000J0D01*
G01*
X14645000Y-5334000D02*
G75*
G02*
X14565000Y-5334000I-40000J0D01*
G01*
X14565000Y-5334000D02*
G75*
G02*
X14645000Y-5334000I40000J0D01*
G01*
X14645000Y-5588000D02*
G75*
G02*
X14565000Y-5588000I-40000J0D01*
G01*
X14565000Y-5588000D02*
G75*
G02*
X14645000Y-5588000I40000J0D01*
G01*
X14645000Y-5842000D02*
G75*
G02*
X14565000Y-5842000I-40000J0D01*
G01*
X14565000Y-5842000D02*
G75*
G02*
X14645000Y-5842000I40000J0D01*
G01*
X14645000Y-6096000D02*
G75*
G02*
X14565000Y-6096000I-40000J0D01*
G01*
X14565000Y-6096000D02*
G75*
G02*
X14645000Y-6096000I40000J0D01*
G01*
X14645000Y-6350000D02*
G75*
G02*
X14565000Y-6350000I-40000J0D01*
G01*
X14565000Y-6350000D02*
G75*
G02*
X14645000Y-6350000I40000J0D01*
G01*
X14645000Y-6858000D02*
G75*
G02*
X14565000Y-6858000I-40000J0D01*
G01*
X14565000Y-6858000D02*
G75*
G02*
X14645000Y-6858000I40000J0D01*
G01*
X14645000Y-7112000D02*
G75*
G02*
X14565000Y-7112000I-40000J0D01*
G01*
X14565000Y-7112000D02*
G75*
G02*
X14645000Y-7112000I40000J0D01*
G01*
X14645000Y-7366000D02*
G75*
G02*
X14565000Y-7366000I-40000J0D01*
G01*
X14565000Y-7366000D02*
G75*
G02*
X14645000Y-7366000I40000J0D01*
G01*
X14645000Y-7620000D02*
G75*
G02*
X14565000Y-7620000I-40000J0D01*
G01*
X14565000Y-7620000D02*
G75*
G02*
X14645000Y-7620000I40000J0D01*
G01*
X14645000Y-7874000D02*
G75*
G02*
X14565000Y-7874000I-40000J0D01*
G01*
X14565000Y-7874000D02*
G75*
G02*
X14645000Y-7874000I40000J0D01*
G01*
X14645000Y-8128000D02*
G75*
G02*
X14565000Y-8128000I-40000J0D01*
G01*
X14565000Y-8128000D02*
G75*
G02*
X14645000Y-8128000I40000J0D01*
G01*
X14645000Y-8382000D02*
G75*
G02*
X14565000Y-8382000I-40000J0D01*
G01*
X14565000Y-8382000D02*
G75*
G02*
X14645000Y-8382000I40000J0D01*
G01*
X14645000Y-8636000D02*
G75*
G02*
X14565000Y-8636000I-40000J0D01*
G01*
X14565000Y-8636000D02*
G75*
G02*
X14645000Y-8636000I40000J0D01*
G01*
X15153000Y-10287000D02*
G75*
G02*
X15073000Y-10287000I-40000J0D01*
G01*
X15073000Y-10287000D02*
G75*
G02*
X15153000Y-10287000I40000J0D01*
G01*
X15407000Y-2540000D02*
G75*
G02*
X15327000Y-2540000I-40000J0D01*
G01*
X15327000Y-2540000D02*
G75*
G02*
X15407000Y-2540000I40000J0D01*
G01*
X15407000Y-2794000D02*
G75*
G02*
X15327000Y-2794000I-40000J0D01*
G01*
X15327000Y-2794000D02*
G75*
G02*
X15407000Y-2794000I40000J0D01*
G01*
X15407000Y-3048000D02*
G75*
G02*
X15327000Y-3048000I-40000J0D01*
G01*
X15327000Y-3048000D02*
G75*
G02*
X15407000Y-3048000I40000J0D01*
G01*
X15407000Y-3302000D02*
G75*
G02*
X15327000Y-3302000I-40000J0D01*
G01*
X15327000Y-3302000D02*
G75*
G02*
X15407000Y-3302000I40000J0D01*
G01*
X15407000Y-3556000D02*
G75*
G02*
X15327000Y-3556000I-40000J0D01*
G01*
X15327000Y-3556000D02*
G75*
G02*
X15407000Y-3556000I40000J0D01*
G01*
X15407000Y-3810000D02*
G75*
G02*
X15327000Y-3810000I-40000J0D01*
G01*
X15327000Y-3810000D02*
G75*
G02*
X15407000Y-3810000I40000J0D01*
G01*
X15407000Y-4064000D02*
G75*
G02*
X15327000Y-4064000I-40000J0D01*
G01*
X15327000Y-4064000D02*
G75*
G02*
X15407000Y-4064000I40000J0D01*
G01*
X15407000Y-4572000D02*
G75*
G02*
X15327000Y-4572000I-40000J0D01*
G01*
X15327000Y-4572000D02*
G75*
G02*
X15407000Y-4572000I40000J0D01*
G01*
X15407000Y-4826000D02*
G75*
G02*
X15327000Y-4826000I-40000J0D01*
G01*
X15327000Y-4826000D02*
G75*
G02*
X15407000Y-4826000I40000J0D01*
G01*
X15407000Y-5080000D02*
G75*
G02*
X15327000Y-5080000I-40000J0D01*
G01*
X15327000Y-5080000D02*
G75*
G02*
X15407000Y-5080000I40000J0D01*
G01*
X15407000Y-5334000D02*
G75*
G02*
X15327000Y-5334000I-40000J0D01*
G01*
X15327000Y-5334000D02*
G75*
G02*
X15407000Y-5334000I40000J0D01*
G01*
X15407000Y-5588000D02*
G75*
G02*
X15327000Y-5588000I-40000J0D01*
G01*
X15327000Y-5588000D02*
G75*
G02*
X15407000Y-5588000I40000J0D01*
G01*
X15407000Y-5842000D02*
G75*
G02*
X15327000Y-5842000I-40000J0D01*
G01*
X15327000Y-5842000D02*
G75*
G02*
X15407000Y-5842000I40000J0D01*
G01*
X15407000Y-6096000D02*
G75*
G02*
X15327000Y-6096000I-40000J0D01*
G01*
X15327000Y-6096000D02*
G75*
G02*
X15407000Y-6096000I40000J0D01*
G01*
X15407000Y-6350000D02*
G75*
G02*
X15327000Y-6350000I-40000J0D01*
G01*
X15327000Y-6350000D02*
G75*
G02*
X15407000Y-6350000I40000J0D01*
G01*
X15407000Y-6858000D02*
G75*
G02*
X15327000Y-6858000I-40000J0D01*
G01*
X15327000Y-6858000D02*
G75*
G02*
X15407000Y-6858000I40000J0D01*
G01*
X15407000Y-7112000D02*
G75*
G02*
X15327000Y-7112000I-40000J0D01*
G01*
X15327000Y-7112000D02*
G75*
G02*
X15407000Y-7112000I40000J0D01*
G01*
X15407000Y-7366000D02*
G75*
G02*
X15327000Y-7366000I-40000J0D01*
G01*
X15327000Y-7366000D02*
G75*
G02*
X15407000Y-7366000I40000J0D01*
G01*
X15407000Y-7620000D02*
G75*
G02*
X15327000Y-7620000I-40000J0D01*
G01*
X15327000Y-7620000D02*
G75*
G02*
X15407000Y-7620000I40000J0D01*
G01*
X15407000Y-7874000D02*
G75*
G02*
X15327000Y-7874000I-40000J0D01*
G01*
X15327000Y-7874000D02*
G75*
G02*
X15407000Y-7874000I40000J0D01*
G01*
X15407000Y-8128000D02*
G75*
G02*
X15327000Y-8128000I-40000J0D01*
G01*
X15327000Y-8128000D02*
G75*
G02*
X15407000Y-8128000I40000J0D01*
G01*
X15407000Y-8382000D02*
G75*
G02*
X15327000Y-8382000I-40000J0D01*
G01*
X15327000Y-8382000D02*
G75*
G02*
X15407000Y-8382000I40000J0D01*
G01*
X15407000Y-8636000D02*
G75*
G02*
X15327000Y-8636000I-40000J0D01*
G01*
X15327000Y-8636000D02*
G75*
G02*
X15407000Y-8636000I40000J0D01*
G01*
X15407000Y-10287000D02*
G75*
G02*
X15327000Y-10287000I-40000J0D01*
G01*
X15327000Y-10287000D02*
G75*
G02*
X15407000Y-10287000I40000J0D01*
G01*
X16169000Y-10287000D02*
G75*
G02*
X16089000Y-10287000I-40000J0D01*
G01*
X16089000Y-10287000D02*
G75*
G02*
X16169000Y-10287000I40000J0D01*
G01*
X16296000Y-3047500D02*
G75*
G02*
X16216000Y-3047500I-40000J0D01*
G01*
X16216000Y-3047500D02*
G75*
G02*
X16296000Y-3047500I40000J0D01*
G01*
X16296000Y-3301500D02*
G75*
G02*
X16216000Y-3301500I-40000J0D01*
G01*
X16216000Y-3301500D02*
G75*
G02*
X16296000Y-3301500I40000J0D01*
G01*
X16296000Y-3555500D02*
G75*
G02*
X16216000Y-3555500I-40000J0D01*
G01*
X16216000Y-3555500D02*
G75*
G02*
X16296000Y-3555500I40000J0D01*
G01*
X16296000Y-3809500D02*
G75*
G02*
X16216000Y-3809500I-40000J0D01*
G01*
X16216000Y-3809500D02*
G75*
G02*
X16296000Y-3809500I40000J0D01*
G01*
X16296000Y-4063500D02*
G75*
G02*
X16216000Y-4063500I-40000J0D01*
G01*
X16216000Y-4063500D02*
G75*
G02*
X16296000Y-4063500I40000J0D01*
G01*
X16296000Y-4317500D02*
G75*
G02*
X16216000Y-4317500I-40000J0D01*
G01*
X16216000Y-4317500D02*
G75*
G02*
X16296000Y-4317500I40000J0D01*
G01*
X16296000Y-4571500D02*
G75*
G02*
X16216000Y-4571500I-40000J0D01*
G01*
X16216000Y-4571500D02*
G75*
G02*
X16296000Y-4571500I40000J0D01*
G01*
X16296000Y-5080000D02*
G75*
G02*
X16216000Y-5080000I-40000J0D01*
G01*
X16216000Y-5080000D02*
G75*
G02*
X16296000Y-5080000I40000J0D01*
G01*
X16296000Y-5334000D02*
G75*
G02*
X16216000Y-5334000I-40000J0D01*
G01*
X16216000Y-5334000D02*
G75*
G02*
X16296000Y-5334000I40000J0D01*
G01*
X16296000Y-5588000D02*
G75*
G02*
X16216000Y-5588000I-40000J0D01*
G01*
X16216000Y-5588000D02*
G75*
G02*
X16296000Y-5588000I40000J0D01*
G01*
X16296000Y-5842000D02*
G75*
G02*
X16216000Y-5842000I-40000J0D01*
G01*
X16216000Y-5842000D02*
G75*
G02*
X16296000Y-5842000I40000J0D01*
G01*
X16296000Y-6096000D02*
G75*
G02*
X16216000Y-6096000I-40000J0D01*
G01*
X16216000Y-6096000D02*
G75*
G02*
X16296000Y-6096000I40000J0D01*
G01*
X16296000Y-6350000D02*
G75*
G02*
X16216000Y-6350000I-40000J0D01*
G01*
X16216000Y-6350000D02*
G75*
G02*
X16296000Y-6350000I40000J0D01*
G01*
X16296000Y-6604000D02*
G75*
G02*
X16216000Y-6604000I-40000J0D01*
G01*
X16216000Y-6604000D02*
G75*
G02*
X16296000Y-6604000I40000J0D01*
G01*
X16296000Y-7112000D02*
G75*
G02*
X16216000Y-7112000I-40000J0D01*
G01*
X16216000Y-7112000D02*
G75*
G02*
X16296000Y-7112000I40000J0D01*
G01*
X16296000Y-7366000D02*
G75*
G02*
X16216000Y-7366000I-40000J0D01*
G01*
X16216000Y-7366000D02*
G75*
G02*
X16296000Y-7366000I40000J0D01*
G01*
X16296000Y-7620000D02*
G75*
G02*
X16216000Y-7620000I-40000J0D01*
G01*
X16216000Y-7620000D02*
G75*
G02*
X16296000Y-7620000I40000J0D01*
G01*
X16296000Y-7874000D02*
G75*
G02*
X16216000Y-7874000I-40000J0D01*
G01*
X16216000Y-7874000D02*
G75*
G02*
X16296000Y-7874000I40000J0D01*
G01*
X16296000Y-8128000D02*
G75*
G02*
X16216000Y-8128000I-40000J0D01*
G01*
X16216000Y-8128000D02*
G75*
G02*
X16296000Y-8128000I40000J0D01*
G01*
X16296000Y-8382000D02*
G75*
G02*
X16216000Y-8382000I-40000J0D01*
G01*
X16216000Y-8382000D02*
G75*
G02*
X16296000Y-8382000I40000J0D01*
G01*
X16296000Y-8636000D02*
G75*
G02*
X16216000Y-8636000I-40000J0D01*
G01*
X16216000Y-8636000D02*
G75*
G02*
X16296000Y-8636000I40000J0D01*
G01*
X16677000Y-10287000D02*
G75*
G02*
X16597000Y-10287000I-40000J0D01*
G01*
X16597000Y-10287000D02*
G75*
G02*
X16677000Y-10287000I40000J0D01*
G01*
X17058000Y-3047500D02*
G75*
G02*
X16978000Y-3047500I-40000J0D01*
G01*
X16978000Y-3047500D02*
G75*
G02*
X17058000Y-3047500I40000J0D01*
G01*
X17058000Y-3301500D02*
G75*
G02*
X16978000Y-3301500I-40000J0D01*
G01*
X16978000Y-3301500D02*
G75*
G02*
X17058000Y-3301500I40000J0D01*
G01*
X17058000Y-3555500D02*
G75*
G02*
X16978000Y-3555500I-40000J0D01*
G01*
X16978000Y-3555500D02*
G75*
G02*
X17058000Y-3555500I40000J0D01*
G01*
X17058000Y-3809500D02*
G75*
G02*
X16978000Y-3809500I-40000J0D01*
G01*
X16978000Y-3809500D02*
G75*
G02*
X17058000Y-3809500I40000J0D01*
G01*
X17058000Y-4063500D02*
G75*
G02*
X16978000Y-4063500I-40000J0D01*
G01*
X16978000Y-4063500D02*
G75*
G02*
X17058000Y-4063500I40000J0D01*
G01*
X17058000Y-4317500D02*
G75*
G02*
X16978000Y-4317500I-40000J0D01*
G01*
X16978000Y-4317500D02*
G75*
G02*
X17058000Y-4317500I40000J0D01*
G01*
X17058000Y-4571500D02*
G75*
G02*
X16978000Y-4571500I-40000J0D01*
G01*
X16978000Y-4571500D02*
G75*
G02*
X17058000Y-4571500I40000J0D01*
G01*
X17058000Y-5080000D02*
G75*
G02*
X16978000Y-5080000I-40000J0D01*
G01*
X16978000Y-5080000D02*
G75*
G02*
X17058000Y-5080000I40000J0D01*
G01*
X17058000Y-5334000D02*
G75*
G02*
X16978000Y-5334000I-40000J0D01*
G01*
X16978000Y-5334000D02*
G75*
G02*
X17058000Y-5334000I40000J0D01*
G01*
X17058000Y-5588000D02*
G75*
G02*
X16978000Y-5588000I-40000J0D01*
G01*
X16978000Y-5588000D02*
G75*
G02*
X17058000Y-5588000I40000J0D01*
G01*
X17058000Y-5842000D02*
G75*
G02*
X16978000Y-5842000I-40000J0D01*
G01*
X16978000Y-5842000D02*
G75*
G02*
X17058000Y-5842000I40000J0D01*
G01*
X17058000Y-6096000D02*
G75*
G02*
X16978000Y-6096000I-40000J0D01*
G01*
X16978000Y-6096000D02*
G75*
G02*
X17058000Y-6096000I40000J0D01*
G01*
X17058000Y-6350000D02*
G75*
G02*
X16978000Y-6350000I-40000J0D01*
G01*
X16978000Y-6350000D02*
G75*
G02*
X17058000Y-6350000I40000J0D01*
G01*
X17058000Y-6604000D02*
G75*
G02*
X16978000Y-6604000I-40000J0D01*
G01*
X16978000Y-6604000D02*
G75*
G02*
X17058000Y-6604000I40000J0D01*
G01*
X17058000Y-7112000D02*
G75*
G02*
X16978000Y-7112000I-40000J0D01*
G01*
X16978000Y-7112000D02*
G75*
G02*
X17058000Y-7112000I40000J0D01*
G01*
X17058000Y-7366000D02*
G75*
G02*
X16978000Y-7366000I-40000J0D01*
G01*
X16978000Y-7366000D02*
G75*
G02*
X17058000Y-7366000I40000J0D01*
G01*
X17058000Y-7620000D02*
G75*
G02*
X16978000Y-7620000I-40000J0D01*
G01*
X16978000Y-7620000D02*
G75*
G02*
X17058000Y-7620000I40000J0D01*
G01*
X17058000Y-7874000D02*
G75*
G02*
X16978000Y-7874000I-40000J0D01*
G01*
X16978000Y-7874000D02*
G75*
G02*
X17058000Y-7874000I40000J0D01*
G01*
X17058000Y-8128000D02*
G75*
G02*
X16978000Y-8128000I-40000J0D01*
G01*
X16978000Y-8128000D02*
G75*
G02*
X17058000Y-8128000I40000J0D01*
G01*
X17058000Y-8382000D02*
G75*
G02*
X16978000Y-8382000I-40000J0D01*
G01*
X16978000Y-8382000D02*
G75*
G02*
X17058000Y-8382000I40000J0D01*
G01*
X17058000Y-8636000D02*
G75*
G02*
X16978000Y-8636000I-40000J0D01*
G01*
X16978000Y-8636000D02*
G75*
G02*
X17058000Y-8636000I40000J0D01*
G01*
X17439000Y-10287000D02*
G75*
G02*
X17359000Y-10287000I-40000J0D01*
G01*
X17359000Y-10287000D02*
G75*
G02*
X17439000Y-10287000I40000J0D01*
G01*
X17693000Y-10287000D02*
G75*
G02*
X17613000Y-10287000I-40000J0D01*
G01*
X17613000Y-10287000D02*
G75*
G02*
X17693000Y-10287000I40000J0D01*
G01*
X17946000Y-2658500D02*
G75*
G02*
X17866000Y-2658500I-40000J0D01*
G01*
X17866000Y-2658500D02*
G75*
G02*
X17946000Y-2658500I40000J0D01*
G01*
X17946000Y-2912500D02*
G75*
G02*
X17866000Y-2912500I-40000J0D01*
G01*
X17866000Y-2912500D02*
G75*
G02*
X17946000Y-2912500I40000J0D01*
G01*
X17946000Y-3166500D02*
G75*
G02*
X17866000Y-3166500I-40000J0D01*
G01*
X17866000Y-3166500D02*
G75*
G02*
X17946000Y-3166500I40000J0D01*
G01*
X17946000Y-3420500D02*
G75*
G02*
X17866000Y-3420500I-40000J0D01*
G01*
X17866000Y-3420500D02*
G75*
G02*
X17946000Y-3420500I40000J0D01*
G01*
X17946000Y-3674500D02*
G75*
G02*
X17866000Y-3674500I-40000J0D01*
G01*
X17866000Y-3674500D02*
G75*
G02*
X17946000Y-3674500I40000J0D01*
G01*
X17946000Y-3928500D02*
G75*
G02*
X17866000Y-3928500I-40000J0D01*
G01*
X17866000Y-3928500D02*
G75*
G02*
X17946000Y-3928500I40000J0D01*
G01*
X17946000Y-4182500D02*
G75*
G02*
X17866000Y-4182500I-40000J0D01*
G01*
X17866000Y-4182500D02*
G75*
G02*
X17946000Y-4182500I40000J0D01*
G01*
X17946000Y-4690500D02*
G75*
G02*
X17866000Y-4690500I-40000J0D01*
G01*
X17866000Y-4690500D02*
G75*
G02*
X17946000Y-4690500I40000J0D01*
G01*
X17946000Y-4944500D02*
G75*
G02*
X17866000Y-4944500I-40000J0D01*
G01*
X17866000Y-4944500D02*
G75*
G02*
X17946000Y-4944500I40000J0D01*
G01*
X17946000Y-5198500D02*
G75*
G02*
X17866000Y-5198500I-40000J0D01*
G01*
X17866000Y-5198500D02*
G75*
G02*
X17946000Y-5198500I40000J0D01*
G01*
X17946000Y-5452500D02*
G75*
G02*
X17866000Y-5452500I-40000J0D01*
G01*
X17866000Y-5452500D02*
G75*
G02*
X17946000Y-5452500I40000J0D01*
G01*
X17946000Y-5706500D02*
G75*
G02*
X17866000Y-5706500I-40000J0D01*
G01*
X17866000Y-5706500D02*
G75*
G02*
X17946000Y-5706500I40000J0D01*
G01*
X17946000Y-5960500D02*
G75*
G02*
X17866000Y-5960500I-40000J0D01*
G01*
X17866000Y-5960500D02*
G75*
G02*
X17946000Y-5960500I40000J0D01*
G01*
X17946000Y-6214500D02*
G75*
G02*
X17866000Y-6214500I-40000J0D01*
G01*
X17866000Y-6214500D02*
G75*
G02*
X17946000Y-6214500I40000J0D01*
G01*
X17947000Y-7104000D02*
G75*
G02*
X17867000Y-7104000I-40000J0D01*
G01*
X17867000Y-7104000D02*
G75*
G02*
X17947000Y-7104000I40000J0D01*
G01*
X17947000Y-7358000D02*
G75*
G02*
X17867000Y-7358000I-40000J0D01*
G01*
X17867000Y-7358000D02*
G75*
G02*
X17947000Y-7358000I40000J0D01*
G01*
X17947000Y-7612000D02*
G75*
G02*
X17867000Y-7612000I-40000J0D01*
G01*
X17867000Y-7612000D02*
G75*
G02*
X17947000Y-7612000I40000J0D01*
G01*
X17947000Y-7866000D02*
G75*
G02*
X17867000Y-7866000I-40000J0D01*
G01*
X17867000Y-7866000D02*
G75*
G02*
X17947000Y-7866000I40000J0D01*
G01*
X17947000Y-8120000D02*
G75*
G02*
X17867000Y-8120000I-40000J0D01*
G01*
X17867000Y-8120000D02*
G75*
G02*
X17947000Y-8120000I40000J0D01*
G01*
X17947000Y-8374000D02*
G75*
G02*
X17867000Y-8374000I-40000J0D01*
G01*
X17867000Y-8374000D02*
G75*
G02*
X17947000Y-8374000I40000J0D01*
G01*
X17947000Y-8628000D02*
G75*
G02*
X17867000Y-8628000I-40000J0D01*
G01*
X17867000Y-8628000D02*
G75*
G02*
X17947000Y-8628000I40000J0D01*
G01*
X18455000Y-10287000D02*
G75*
G02*
X18375000Y-10287000I-40000J0D01*
G01*
X18375000Y-10287000D02*
G75*
G02*
X18455000Y-10287000I40000J0D01*
G01*
X18708000Y-2658500D02*
G75*
G02*
X18628000Y-2658500I-40000J0D01*
G01*
X18628000Y-2658500D02*
G75*
G02*
X18708000Y-2658500I40000J0D01*
G01*
X18708000Y-2912500D02*
G75*
G02*
X18628000Y-2912500I-40000J0D01*
G01*
X18628000Y-2912500D02*
G75*
G02*
X18708000Y-2912500I40000J0D01*
G01*
X18708000Y-3166500D02*
G75*
G02*
X18628000Y-3166500I-40000J0D01*
G01*
X18628000Y-3166500D02*
G75*
G02*
X18708000Y-3166500I40000J0D01*
G01*
X18708000Y-3420500D02*
G75*
G02*
X18628000Y-3420500I-40000J0D01*
G01*
X18628000Y-3420500D02*
G75*
G02*
X18708000Y-3420500I40000J0D01*
G01*
X18708000Y-3674500D02*
G75*
G02*
X18628000Y-3674500I-40000J0D01*
G01*
X18628000Y-3674500D02*
G75*
G02*
X18708000Y-3674500I40000J0D01*
G01*
X18708000Y-3928500D02*
G75*
G02*
X18628000Y-3928500I-40000J0D01*
G01*
X18628000Y-3928500D02*
G75*
G02*
X18708000Y-3928500I40000J0D01*
G01*
X18708000Y-4182500D02*
G75*
G02*
X18628000Y-4182500I-40000J0D01*
G01*
X18628000Y-4182500D02*
G75*
G02*
X18708000Y-4182500I40000J0D01*
G01*
X18708000Y-4690500D02*
G75*
G02*
X18628000Y-4690500I-40000J0D01*
G01*
X18628000Y-4690500D02*
G75*
G02*
X18708000Y-4690500I40000J0D01*
G01*
X18708000Y-4944500D02*
G75*
G02*
X18628000Y-4944500I-40000J0D01*
G01*
X18628000Y-4944500D02*
G75*
G02*
X18708000Y-4944500I40000J0D01*
G01*
X18708000Y-5198500D02*
G75*
G02*
X18628000Y-5198500I-40000J0D01*
G01*
X18628000Y-5198500D02*
G75*
G02*
X18708000Y-5198500I40000J0D01*
G01*
X18708000Y-5452500D02*
G75*
G02*
X18628000Y-5452500I-40000J0D01*
G01*
X18628000Y-5452500D02*
G75*
G02*
X18708000Y-5452500I40000J0D01*
G01*
X18708000Y-5706500D02*
G75*
G02*
X18628000Y-5706500I-40000J0D01*
G01*
X18628000Y-5706500D02*
G75*
G02*
X18708000Y-5706500I40000J0D01*
G01*
X18708000Y-5960500D02*
G75*
G02*
X18628000Y-5960500I-40000J0D01*
G01*
X18628000Y-5960500D02*
G75*
G02*
X18708000Y-5960500I40000J0D01*
G01*
X18708000Y-6214500D02*
G75*
G02*
X18628000Y-6214500I-40000J0D01*
G01*
X18628000Y-6214500D02*
G75*
G02*
X18708000Y-6214500I40000J0D01*
G01*
X18709000Y-7104000D02*
G75*
G02*
X18629000Y-7104000I-40000J0D01*
G01*
X18629000Y-7104000D02*
G75*
G02*
X18709000Y-7104000I40000J0D01*
G01*
X18709000Y-7358000D02*
G75*
G02*
X18629000Y-7358000I-40000J0D01*
G01*
X18629000Y-7358000D02*
G75*
G02*
X18709000Y-7358000I40000J0D01*
G01*
X18709000Y-7612000D02*
G75*
G02*
X18629000Y-7612000I-40000J0D01*
G01*
X18629000Y-7612000D02*
G75*
G02*
X18709000Y-7612000I40000J0D01*
G01*
X18709000Y-7866000D02*
G75*
G02*
X18629000Y-7866000I-40000J0D01*
G01*
X18629000Y-7866000D02*
G75*
G02*
X18709000Y-7866000I40000J0D01*
G01*
X18709000Y-8120000D02*
G75*
G02*
X18629000Y-8120000I-40000J0D01*
G01*
X18629000Y-8120000D02*
G75*
G02*
X18709000Y-8120000I40000J0D01*
G01*
X18709000Y-8374000D02*
G75*
G02*
X18629000Y-8374000I-40000J0D01*
G01*
X18629000Y-8374000D02*
G75*
G02*
X18709000Y-8374000I40000J0D01*
G01*
X18709000Y-8628000D02*
G75*
G02*
X18629000Y-8628000I-40000J0D01*
G01*
X18629000Y-8628000D02*
G75*
G02*
X18709000Y-8628000I40000J0D01*
G01*
X19217000Y-7358000D02*
G75*
G02*
X19137000Y-7358000I-40000J0D01*
G01*
X19137000Y-7358000D02*
G75*
G02*
X19217000Y-7358000I40000J0D01*
G01*
X19217000Y-7993000D02*
G75*
G02*
X19137000Y-7993000I-40000J0D01*
G01*
X19137000Y-7993000D02*
G75*
G02*
X19217000Y-7993000I40000J0D01*
G01*
X19217000Y-8755000D02*
G75*
G02*
X19137000Y-8755000I-40000J0D01*
G01*
X19137000Y-8755000D02*
G75*
G02*
X19217000Y-8755000I40000J0D01*
G01*
X19471000Y-7104000D02*
G75*
G02*
X19391000Y-7104000I-40000J0D01*
G01*
X19391000Y-7104000D02*
G75*
G02*
X19471000Y-7104000I40000J0D01*
G01*
X19471000Y-7612000D02*
G75*
G02*
X19391000Y-7612000I-40000J0D01*
G01*
X19391000Y-7612000D02*
G75*
G02*
X19471000Y-7612000I40000J0D01*
G01*
X19725000Y-8128000D02*
G75*
G02*
X19645000Y-8128000I-40000J0D01*
G01*
X19645000Y-8128000D02*
G75*
G02*
X19725000Y-8128000I40000J0D01*
G01*
X19725000Y-8628000D02*
G75*
G02*
X19645000Y-8628000I-40000J0D01*
G01*
X19645000Y-8628000D02*
G75*
G02*
X19725000Y-8628000I40000J0D01*
G01*
X11811000Y-9734000D02*
X11811000Y-9824000D01*
X11766000Y-9779000D02*
X11856000Y-9779000D01*
X12065000Y-4654000D02*
X12065000Y-4744000D01*
X12020000Y-4699000D02*
X12110000Y-4699000D01*
X12065000Y-9734000D02*
X12065000Y-9824000D01*
X12020000Y-9779000D02*
X12110000Y-9779000D01*
X12319000Y-4654000D02*
X12319000Y-4744000D01*
X12274000Y-4699000D02*
X12364000Y-4699000D01*
X12954000Y-4654000D02*
X12954000Y-4744000D01*
X12909000Y-4699000D02*
X12999000Y-4699000D01*
X13208000Y-4654000D02*
X13208000Y-4744000D01*
X13163000Y-4699000D02*
X13253000Y-4699000D01*
X14605000Y-9734000D02*
X14605000Y-9824000D01*
X14560000Y-9779000D02*
X14650000Y-9779000D01*
X14859000Y-9734000D02*
X14859000Y-9824000D01*
X14814000Y-9779000D02*
X14904000Y-9779000D01*
X15621000Y-9734000D02*
X15621000Y-9824000D01*
X15576000Y-9779000D02*
X15666000Y-9779000D01*
X15875000Y-9734000D02*
X15875000Y-9824000D01*
X15830000Y-9779000D02*
X15920000Y-9779000D01*
X16891000Y-9734000D02*
X16891000Y-9824000D01*
X16846000Y-9779000D02*
X16936000Y-9779000D01*
X17145000Y-9734000D02*
X17145000Y-9824000D01*
X17100000Y-9779000D02*
X17190000Y-9779000D01*
X17907000Y-9734000D02*
X17907000Y-9824000D01*
X17862000Y-9779000D02*
X17952000Y-9779000D01*
X18161000Y-9734000D02*
X18161000Y-9824000D01*
X18116000Y-9779000D02*
X18206000Y-9779000D01*
D12*
X10071891Y-10389391D02*
X10071891Y-10311609D01*
X9994109Y-10311609D01*
X9994109Y-10389391D01*
X10071891Y-10389391D01*
X10389391Y-9915391D02*
X10389391Y-9837609D01*
X10311609Y-9837609D01*
X10311609Y-9915391D01*
X10389391Y-9915391D01*
X10643391Y-9915391D02*
X10643391Y-9837609D01*
X10565609Y-9837609D01*
X10565609Y-9915391D01*
X10643391Y-9915391D01*
X10897391Y-9915391D02*
X10897391Y-9837609D01*
X10819609Y-9837609D01*
X10819609Y-9915391D01*
X10897391Y-9915391D01*
X11087891Y-4390891D02*
X11087891Y-4313109D01*
X11010109Y-4313109D01*
X11010109Y-4390891D01*
X11087891Y-4390891D01*
X11087891Y-10389391D02*
X11087891Y-10311609D01*
X11010109Y-10311609D01*
X11010109Y-10389391D01*
X11087891Y-10389391D01*
X11341891Y-4390891D02*
X11341891Y-4313109D01*
X11264109Y-4313109D01*
X11264109Y-4390891D01*
X11341891Y-4390891D01*
X11595891Y-4390891D02*
X11595891Y-4313109D01*
X11518109Y-4313109D01*
X11518109Y-4390891D01*
X11595891Y-4390891D01*
D13*
X8517000Y-7954000D02*
X8582000Y-7889000D01*
X8517000Y-7824000D01*
X8452000Y-7889000D01*
X8517000Y-7954000D01*
X8517000Y-8974000D02*
X8582000Y-8909000D01*
X8517000Y-8844000D01*
X8452000Y-8909000D01*
X8517000Y-8974000D01*
X9017000Y-9224000D02*
X9082000Y-9159000D01*
X9017000Y-9094000D01*
X8952000Y-9159000D01*
X9017000Y-9224000D01*
X9517000Y-7954000D02*
X9582000Y-7889000D01*
X9517000Y-7824000D01*
X9452000Y-7889000D01*
X9517000Y-7954000D01*
X9517000Y-8974000D02*
X9582000Y-8909000D01*
X9517000Y-8844000D01*
X9452000Y-8909000D01*
X9517000Y-8974000D01*
D14*
X7862500Y-4751000D02*
X8012500Y-4901000D01*
X8012500Y-4751000D02*
X7862500Y-4901000D01*
X8012500Y-4826000D02*
G75*
G02*
X7862500Y-4826000I-75000J0D01*
G01*
X7862500Y-4826000D02*
G75*
G02*
X8012500Y-4826000I75000J0D01*
G01*
X7862500Y-5322500D02*
X8012500Y-5472500D01*
X8012500Y-5322500D02*
X7862500Y-5472500D01*
X8012500Y-5397500D02*
G75*
G02*
X7862500Y-5397500I-75000J0D01*
G01*
X7862500Y-5397500D02*
G75*
G02*
X8012500Y-5397500I75000J0D01*
G01*
X18975000Y-9259500D02*
X19125000Y-9409500D01*
X19125000Y-9259500D02*
X18975000Y-9409500D01*
X19125000Y-9334500D02*
G75*
G02*
X18975000Y-9334500I-75000J0D01*
G01*
X18975000Y-9334500D02*
G75*
G02*
X19125000Y-9334500I75000J0D01*
G01*
X19483000Y-9259500D02*
X19633000Y-9409500D01*
X19633000Y-9259500D02*
X19483000Y-9409500D01*
X19633000Y-9334500D02*
G75*
G02*
X19483000Y-9334500I-75000J0D01*
G01*
X19483000Y-9334500D02*
G75*
G02*
X19633000Y-9334500I75000J0D01*
G01*
D15*
X9154000Y-4106000D02*
X9324000Y-4276000D01*
X9324000Y-4106000D02*
X9154000Y-4276000D01*
X9239000Y-4106000D02*
X9239000Y-4276000D01*
X9154000Y-4191000D02*
X9324000Y-4191000D01*
X9694000Y-4106000D02*
X9864000Y-4276000D01*
X9864000Y-4106000D02*
X9694000Y-4276000D01*
X9779000Y-4106000D02*
X9779000Y-4276000D01*
X9694000Y-4191000D02*
X9864000Y-4191000D01*
D16*
X7085000Y-3163000D02*
X7265000Y-3343000D01*
X7265000Y-3163000D02*
X7085000Y-3343000D01*
X7238640Y-3316640D02*
X7238640Y-3189360D01*
X7111360Y-3189360D01*
X7111360Y-3316640D01*
X7238640Y-3316640D01*
X7085000Y-3593000D02*
X7265000Y-3773000D01*
X7265000Y-3593000D02*
X7085000Y-3773000D01*
X7238640Y-3746640D02*
X7238640Y-3619360D01*
X7111360Y-3619360D01*
X7111360Y-3746640D01*
X7238640Y-3746640D01*
X7085000Y-4023000D02*
X7265000Y-4203000D01*
X7265000Y-4023000D02*
X7085000Y-4203000D01*
X7238640Y-4176640D02*
X7238640Y-4049360D01*
X7111360Y-4049360D01*
X7111360Y-4176640D01*
X7238640Y-4176640D01*
X7085000Y-5957000D02*
X7265000Y-6137000D01*
X7265000Y-5957000D02*
X7085000Y-6137000D01*
X7238640Y-6110640D02*
X7238640Y-5983360D01*
X7111360Y-5983360D01*
X7111360Y-6110640D01*
X7238640Y-6110640D01*
X7085000Y-6387000D02*
X7265000Y-6567000D01*
X7265000Y-6387000D02*
X7085000Y-6567000D01*
X7238640Y-6540640D02*
X7238640Y-6413360D01*
X7111360Y-6413360D01*
X7111360Y-6540640D01*
X7238640Y-6540640D01*
X7085000Y-6817000D02*
X7265000Y-6997000D01*
X7265000Y-6817000D02*
X7085000Y-6997000D01*
X7238640Y-6970640D02*
X7238640Y-6843360D01*
X7111360Y-6843360D01*
X7111360Y-6970640D01*
X7238640Y-6970640D01*
X7085000Y-8751000D02*
X7265000Y-8931000D01*
X7265000Y-8751000D02*
X7085000Y-8931000D01*
X7238640Y-8904640D02*
X7238640Y-8777360D01*
X7111360Y-8777360D01*
X7111360Y-8904640D01*
X7238640Y-8904640D01*
X7085000Y-9181000D02*
X7265000Y-9361000D01*
X7265000Y-9181000D02*
X7085000Y-9361000D01*
X7238640Y-9334640D02*
X7238640Y-9207360D01*
X7111360Y-9207360D01*
X7111360Y-9334640D01*
X7238640Y-9334640D01*
X7085000Y-9611000D02*
X7265000Y-9791000D01*
X7265000Y-9611000D02*
X7085000Y-9791000D01*
X7238640Y-9764640D02*
X7238640Y-9637360D01*
X7111360Y-9637360D01*
X7111360Y-9764640D01*
X7238640Y-9764640D01*
D11*
X5462777Y-10984484D02*
X5462777Y-10784484D01*
X5462777Y-10784484D02*
X5510396Y-10784484D01*
X5510396Y-10784484D02*
X5538967Y-10794008D01*
X5538967Y-10794008D02*
X5558015Y-10813055D01*
X5558015Y-10813055D02*
X5567539Y-10832103D01*
X5567539Y-10832103D02*
X5577063Y-10870198D01*
X5577063Y-10870198D02*
X5577063Y-10898770D01*
X5577063Y-10898770D02*
X5567539Y-10936865D01*
X5567539Y-10936865D02*
X5558015Y-10955912D01*
X5558015Y-10955912D02*
X5538967Y-10974960D01*
X5538967Y-10974960D02*
X5510396Y-10984484D01*
X5510396Y-10984484D02*
X5462777Y-10984484D01*
X5662777Y-10984484D02*
X5662777Y-10851150D01*
X5662777Y-10889246D02*
X5672301Y-10870198D01*
X5672301Y-10870198D02*
X5681824Y-10860674D01*
X5681824Y-10860674D02*
X5700872Y-10851150D01*
X5700872Y-10851150D02*
X5719920Y-10851150D01*
X5786586Y-10984484D02*
X5786586Y-10851150D01*
X5786586Y-10784484D02*
X5777062Y-10794008D01*
X5777062Y-10794008D02*
X5786586Y-10803531D01*
X5786586Y-10803531D02*
X5796110Y-10794008D01*
X5796110Y-10794008D02*
X5786586Y-10784484D01*
X5786586Y-10784484D02*
X5786586Y-10803531D01*
X5910396Y-10984484D02*
X5891348Y-10974960D01*
X5891348Y-10974960D02*
X5881824Y-10955912D01*
X5881824Y-10955912D02*
X5881824Y-10784484D01*
X6015158Y-10984484D02*
X5996110Y-10974960D01*
X5996110Y-10974960D02*
X5986586Y-10955912D01*
X5986586Y-10955912D02*
X5986586Y-10784484D01*
X6243729Y-10984484D02*
X6243729Y-10784484D01*
X6243729Y-10784484D02*
X6310396Y-10927341D01*
X6310396Y-10927341D02*
X6377062Y-10784484D01*
X6377062Y-10784484D02*
X6377062Y-10984484D01*
X6558015Y-10984484D02*
X6558015Y-10879722D01*
X6558015Y-10879722D02*
X6548491Y-10860674D01*
X6548491Y-10860674D02*
X6529443Y-10851150D01*
X6529443Y-10851150D02*
X6491348Y-10851150D01*
X6491348Y-10851150D02*
X6472301Y-10860674D01*
X6558015Y-10974960D02*
X6538967Y-10984484D01*
X6538967Y-10984484D02*
X6491348Y-10984484D01*
X6491348Y-10984484D02*
X6472301Y-10974960D01*
X6472301Y-10974960D02*
X6462777Y-10955912D01*
X6462777Y-10955912D02*
X6462777Y-10936865D01*
X6462777Y-10936865D02*
X6472301Y-10917817D01*
X6472301Y-10917817D02*
X6491348Y-10908293D01*
X6491348Y-10908293D02*
X6538967Y-10908293D01*
X6538967Y-10908293D02*
X6558015Y-10898770D01*
X6653253Y-10851150D02*
X6653253Y-11051150D01*
X6653253Y-10860674D02*
X6672301Y-10851150D01*
X6672301Y-10851150D02*
X6710396Y-10851150D01*
X6710396Y-10851150D02*
X6729443Y-10860674D01*
X6729443Y-10860674D02*
X6738967Y-10870198D01*
X6738967Y-10870198D02*
X6748491Y-10889246D01*
X6748491Y-10889246D02*
X6748491Y-10946389D01*
X6748491Y-10946389D02*
X6738967Y-10965436D01*
X6738967Y-10965436D02*
X6729443Y-10974960D01*
X6729443Y-10974960D02*
X6710396Y-10984484D01*
X6710396Y-10984484D02*
X6672301Y-10984484D01*
X6672301Y-10984484D02*
X6653253Y-10974960D01*
X6834205Y-10965436D02*
X6843729Y-10974960D01*
X6843729Y-10974960D02*
X6834205Y-10984484D01*
X6834205Y-10984484D02*
X6824682Y-10974960D01*
X6824682Y-10974960D02*
X6834205Y-10965436D01*
X6834205Y-10965436D02*
X6834205Y-10984484D01*
X6834205Y-10860674D02*
X6843729Y-10870198D01*
X6843729Y-10870198D02*
X6834205Y-10879722D01*
X6834205Y-10879722D02*
X6824682Y-10870198D01*
X6824682Y-10870198D02*
X6834205Y-10860674D01*
X6834205Y-10860674D02*
X6834205Y-10879722D01*
D10*
X5162000Y-11293000D02*
X5202000Y-11333000D01*
X5202000Y-11293000D02*
X5162000Y-11333000D01*
D11*
X5500872Y-11204484D02*
X5519920Y-11204484D01*
X5519920Y-11204484D02*
X5538967Y-11214008D01*
X5538967Y-11214008D02*
X5548491Y-11223531D01*
X5548491Y-11223531D02*
X5558015Y-11242579D01*
X5558015Y-11242579D02*
X5567539Y-11280674D01*
X5567539Y-11280674D02*
X5567539Y-11328293D01*
X5567539Y-11328293D02*
X5558015Y-11366388D01*
X5558015Y-11366388D02*
X5548491Y-11385436D01*
X5548491Y-11385436D02*
X5538967Y-11394960D01*
X5538967Y-11394960D02*
X5519920Y-11404484D01*
X5519920Y-11404484D02*
X5500872Y-11404484D01*
X5500872Y-11404484D02*
X5481824Y-11394960D01*
X5481824Y-11394960D02*
X5472301Y-11385436D01*
X5472301Y-11385436D02*
X5462777Y-11366388D01*
X5462777Y-11366388D02*
X5453253Y-11328293D01*
X5453253Y-11328293D02*
X5453253Y-11280674D01*
X5453253Y-11280674D02*
X5462777Y-11242579D01*
X5462777Y-11242579D02*
X5472301Y-11223531D01*
X5472301Y-11223531D02*
X5481824Y-11214008D01*
X5481824Y-11214008D02*
X5500872Y-11204484D01*
X5653253Y-11385436D02*
X5662777Y-11394960D01*
X5662777Y-11394960D02*
X5653253Y-11404484D01*
X5653253Y-11404484D02*
X5643729Y-11394960D01*
X5643729Y-11394960D02*
X5653253Y-11385436D01*
X5653253Y-11385436D02*
X5653253Y-11404484D01*
X5834205Y-11271150D02*
X5834205Y-11404484D01*
X5786586Y-11194960D02*
X5738967Y-11337817D01*
X5738967Y-11337817D02*
X5862777Y-11337817D01*
X5977062Y-11204484D02*
X5996110Y-11204484D01*
X5996110Y-11204484D02*
X6015158Y-11214008D01*
X6015158Y-11214008D02*
X6024682Y-11223531D01*
X6024682Y-11223531D02*
X6034205Y-11242579D01*
X6034205Y-11242579D02*
X6043729Y-11280674D01*
X6043729Y-11280674D02*
X6043729Y-11328293D01*
X6043729Y-11328293D02*
X6034205Y-11366388D01*
X6034205Y-11366388D02*
X6024682Y-11385436D01*
X6024682Y-11385436D02*
X6015158Y-11394960D01*
X6015158Y-11394960D02*
X5996110Y-11404484D01*
X5996110Y-11404484D02*
X5977062Y-11404484D01*
X5977062Y-11404484D02*
X5958015Y-11394960D01*
X5958015Y-11394960D02*
X5948491Y-11385436D01*
X5948491Y-11385436D02*
X5938967Y-11366388D01*
X5938967Y-11366388D02*
X5929443Y-11328293D01*
X5929443Y-11328293D02*
X5929443Y-11280674D01*
X5929443Y-11280674D02*
X5938967Y-11242579D01*
X5938967Y-11242579D02*
X5948491Y-11223531D01*
X5948491Y-11223531D02*
X5958015Y-11214008D01*
X5958015Y-11214008D02*
X5977062Y-11204484D01*
X6167539Y-11204484D02*
X6186586Y-11204484D01*
X6186586Y-11204484D02*
X6205634Y-11214008D01*
X6205634Y-11214008D02*
X6215158Y-11223531D01*
X6215158Y-11223531D02*
X6224682Y-11242579D01*
X6224682Y-11242579D02*
X6234205Y-11280674D01*
X6234205Y-11280674D02*
X6234205Y-11328293D01*
X6234205Y-11328293D02*
X6224682Y-11366388D01*
X6224682Y-11366388D02*
X6215158Y-11385436D01*
X6215158Y-11385436D02*
X6205634Y-11394960D01*
X6205634Y-11394960D02*
X6186586Y-11404484D01*
X6186586Y-11404484D02*
X6167539Y-11404484D01*
X6167539Y-11404484D02*
X6148491Y-11394960D01*
X6148491Y-11394960D02*
X6138967Y-11385436D01*
X6138967Y-11385436D02*
X6129443Y-11366388D01*
X6129443Y-11366388D02*
X6119920Y-11328293D01*
X6119920Y-11328293D02*
X6119920Y-11280674D01*
X6119920Y-11280674D02*
X6129443Y-11242579D01*
X6129443Y-11242579D02*
X6138967Y-11223531D01*
X6138967Y-11223531D02*
X6148491Y-11214008D01*
X6148491Y-11214008D02*
X6167539Y-11204484D01*
X6319920Y-11404484D02*
X6319920Y-11271150D01*
X6319920Y-11290198D02*
X6329443Y-11280674D01*
X6329443Y-11280674D02*
X6348491Y-11271150D01*
X6348491Y-11271150D02*
X6377063Y-11271150D01*
X6377063Y-11271150D02*
X6396110Y-11280674D01*
X6396110Y-11280674D02*
X6405634Y-11299722D01*
X6405634Y-11299722D02*
X6405634Y-11404484D01*
X6405634Y-11299722D02*
X6415158Y-11280674D01*
X6415158Y-11280674D02*
X6434205Y-11271150D01*
X6434205Y-11271150D02*
X6462777Y-11271150D01*
X6462777Y-11271150D02*
X6481824Y-11280674D01*
X6481824Y-11280674D02*
X6491348Y-11299722D01*
X6491348Y-11299722D02*
X6491348Y-11404484D01*
X6586586Y-11404484D02*
X6586586Y-11271150D01*
X6586586Y-11290198D02*
X6596110Y-11280674D01*
X6596110Y-11280674D02*
X6615158Y-11271150D01*
X6615158Y-11271150D02*
X6643729Y-11271150D01*
X6643729Y-11271150D02*
X6662777Y-11280674D01*
X6662777Y-11280674D02*
X6672301Y-11299722D01*
X6672301Y-11299722D02*
X6672301Y-11404484D01*
X6672301Y-11299722D02*
X6681824Y-11280674D01*
X6681824Y-11280674D02*
X6700872Y-11271150D01*
X6700872Y-11271150D02*
X6729443Y-11271150D01*
X6729443Y-11271150D02*
X6748491Y-11280674D01*
X6748491Y-11280674D02*
X6758015Y-11299722D01*
X6758015Y-11299722D02*
X6758015Y-11404484D01*
X7148491Y-11194960D02*
X6977063Y-11452103D01*
X7405634Y-11204484D02*
X7424682Y-11204484D01*
X7424682Y-11204484D02*
X7443729Y-11214008D01*
X7443729Y-11214008D02*
X7453253Y-11223531D01*
X7453253Y-11223531D02*
X7462777Y-11242579D01*
X7462777Y-11242579D02*
X7472301Y-11280674D01*
X7472301Y-11280674D02*
X7472301Y-11328293D01*
X7472301Y-11328293D02*
X7462777Y-11366388D01*
X7462777Y-11366388D02*
X7453253Y-11385436D01*
X7453253Y-11385436D02*
X7443729Y-11394960D01*
X7443729Y-11394960D02*
X7424682Y-11404484D01*
X7424682Y-11404484D02*
X7405634Y-11404484D01*
X7405634Y-11404484D02*
X7386586Y-11394960D01*
X7386586Y-11394960D02*
X7377063Y-11385436D01*
X7377063Y-11385436D02*
X7367539Y-11366388D01*
X7367539Y-11366388D02*
X7358015Y-11328293D01*
X7358015Y-11328293D02*
X7358015Y-11280674D01*
X7358015Y-11280674D02*
X7367539Y-11242579D01*
X7367539Y-11242579D02*
X7377063Y-11223531D01*
X7377063Y-11223531D02*
X7386586Y-11214008D01*
X7386586Y-11214008D02*
X7405634Y-11204484D01*
X7558015Y-11385436D02*
X7567539Y-11394960D01*
X7567539Y-11394960D02*
X7558015Y-11404484D01*
X7558015Y-11404484D02*
X7548491Y-11394960D01*
X7548491Y-11394960D02*
X7558015Y-11385436D01*
X7558015Y-11385436D02*
X7558015Y-11404484D01*
X7691348Y-11204484D02*
X7710396Y-11204484D01*
X7710396Y-11204484D02*
X7729444Y-11214008D01*
X7729444Y-11214008D02*
X7738967Y-11223531D01*
X7738967Y-11223531D02*
X7748491Y-11242579D01*
X7748491Y-11242579D02*
X7758015Y-11280674D01*
X7758015Y-11280674D02*
X7758015Y-11328293D01*
X7758015Y-11328293D02*
X7748491Y-11366388D01*
X7748491Y-11366388D02*
X7738967Y-11385436D01*
X7738967Y-11385436D02*
X7729444Y-11394960D01*
X7729444Y-11394960D02*
X7710396Y-11404484D01*
X7710396Y-11404484D02*
X7691348Y-11404484D01*
X7691348Y-11404484D02*
X7672301Y-11394960D01*
X7672301Y-11394960D02*
X7662777Y-11385436D01*
X7662777Y-11385436D02*
X7653253Y-11366388D01*
X7653253Y-11366388D02*
X7643729Y-11328293D01*
X7643729Y-11328293D02*
X7643729Y-11280674D01*
X7643729Y-11280674D02*
X7653253Y-11242579D01*
X7653253Y-11242579D02*
X7662777Y-11223531D01*
X7662777Y-11223531D02*
X7672301Y-11214008D01*
X7672301Y-11214008D02*
X7691348Y-11204484D01*
X7948491Y-11404484D02*
X7834206Y-11404484D01*
X7891348Y-11404484D02*
X7891348Y-11204484D01*
X7891348Y-11204484D02*
X7872301Y-11233055D01*
X7872301Y-11233055D02*
X7853253Y-11252103D01*
X7853253Y-11252103D02*
X7834206Y-11261627D01*
X8129444Y-11204484D02*
X8034206Y-11204484D01*
X8034206Y-11204484D02*
X8024682Y-11299722D01*
X8024682Y-11299722D02*
X8034206Y-11290198D01*
X8034206Y-11290198D02*
X8053253Y-11280674D01*
X8053253Y-11280674D02*
X8100872Y-11280674D01*
X8100872Y-11280674D02*
X8119920Y-11290198D01*
X8119920Y-11290198D02*
X8129444Y-11299722D01*
X8129444Y-11299722D02*
X8138967Y-11318769D01*
X8138967Y-11318769D02*
X8138967Y-11366388D01*
X8138967Y-11366388D02*
X8129444Y-11385436D01*
X8129444Y-11385436D02*
X8119920Y-11394960D01*
X8119920Y-11394960D02*
X8100872Y-11404484D01*
X8100872Y-11404484D02*
X8053253Y-11404484D01*
X8053253Y-11404484D02*
X8034206Y-11394960D01*
X8034206Y-11394960D02*
X8024682Y-11385436D01*
X8205634Y-11204484D02*
X8338967Y-11204484D01*
X8338967Y-11204484D02*
X8253253Y-11404484D01*
X8405634Y-11204484D02*
X8405634Y-11242579D01*
X8481825Y-11204484D02*
X8481825Y-11242579D01*
X8777063Y-11480674D02*
X8767539Y-11471150D01*
X8767539Y-11471150D02*
X8748491Y-11442579D01*
X8748491Y-11442579D02*
X8738968Y-11423531D01*
X8738968Y-11423531D02*
X8729444Y-11394960D01*
X8729444Y-11394960D02*
X8719920Y-11347341D01*
X8719920Y-11347341D02*
X8719920Y-11309246D01*
X8719920Y-11309246D02*
X8729444Y-11261627D01*
X8729444Y-11261627D02*
X8738968Y-11233055D01*
X8738968Y-11233055D02*
X8748491Y-11214008D01*
X8748491Y-11214008D02*
X8767539Y-11185436D01*
X8767539Y-11185436D02*
X8777063Y-11175912D01*
X8938968Y-11271150D02*
X8938968Y-11404484D01*
X8891349Y-11194960D02*
X8843730Y-11337817D01*
X8843730Y-11337817D02*
X8967539Y-11337817D01*
X9081825Y-11204484D02*
X9100872Y-11204484D01*
X9100872Y-11204484D02*
X9119920Y-11214008D01*
X9119920Y-11214008D02*
X9129444Y-11223531D01*
X9129444Y-11223531D02*
X9138968Y-11242579D01*
X9138968Y-11242579D02*
X9148491Y-11280674D01*
X9148491Y-11280674D02*
X9148491Y-11328293D01*
X9148491Y-11328293D02*
X9138968Y-11366388D01*
X9138968Y-11366388D02*
X9129444Y-11385436D01*
X9129444Y-11385436D02*
X9119920Y-11394960D01*
X9119920Y-11394960D02*
X9100872Y-11404484D01*
X9100872Y-11404484D02*
X9081825Y-11404484D01*
X9081825Y-11404484D02*
X9062777Y-11394960D01*
X9062777Y-11394960D02*
X9053253Y-11385436D01*
X9053253Y-11385436D02*
X9043730Y-11366388D01*
X9043730Y-11366388D02*
X9034206Y-11328293D01*
X9034206Y-11328293D02*
X9034206Y-11280674D01*
X9034206Y-11280674D02*
X9043730Y-11242579D01*
X9043730Y-11242579D02*
X9053253Y-11223531D01*
X9053253Y-11223531D02*
X9062777Y-11214008D01*
X9062777Y-11214008D02*
X9081825Y-11204484D01*
X9386587Y-11404484D02*
X9386587Y-11204484D01*
X9472301Y-11404484D02*
X9472301Y-11299722D01*
X9472301Y-11299722D02*
X9462777Y-11280674D01*
X9462777Y-11280674D02*
X9443730Y-11271150D01*
X9443730Y-11271150D02*
X9415158Y-11271150D01*
X9415158Y-11271150D02*
X9396111Y-11280674D01*
X9396111Y-11280674D02*
X9386587Y-11290198D01*
X9596111Y-11404484D02*
X9577063Y-11394960D01*
X9577063Y-11394960D02*
X9567539Y-11385436D01*
X9567539Y-11385436D02*
X9558015Y-11366388D01*
X9558015Y-11366388D02*
X9558015Y-11309246D01*
X9558015Y-11309246D02*
X9567539Y-11290198D01*
X9567539Y-11290198D02*
X9577063Y-11280674D01*
X9577063Y-11280674D02*
X9596111Y-11271150D01*
X9596111Y-11271150D02*
X9624682Y-11271150D01*
X9624682Y-11271150D02*
X9643730Y-11280674D01*
X9643730Y-11280674D02*
X9653253Y-11290198D01*
X9653253Y-11290198D02*
X9662777Y-11309246D01*
X9662777Y-11309246D02*
X9662777Y-11366388D01*
X9662777Y-11366388D02*
X9653253Y-11385436D01*
X9653253Y-11385436D02*
X9643730Y-11394960D01*
X9643730Y-11394960D02*
X9624682Y-11404484D01*
X9624682Y-11404484D02*
X9596111Y-11404484D01*
X9777063Y-11404484D02*
X9758015Y-11394960D01*
X9758015Y-11394960D02*
X9748492Y-11375912D01*
X9748492Y-11375912D02*
X9748492Y-11204484D01*
X9929444Y-11394960D02*
X9910396Y-11404484D01*
X9910396Y-11404484D02*
X9872301Y-11404484D01*
X9872301Y-11404484D02*
X9853253Y-11394960D01*
X9853253Y-11394960D02*
X9843730Y-11375912D01*
X9843730Y-11375912D02*
X9843730Y-11299722D01*
X9843730Y-11299722D02*
X9853253Y-11280674D01*
X9853253Y-11280674D02*
X9872301Y-11271150D01*
X9872301Y-11271150D02*
X9910396Y-11271150D01*
X9910396Y-11271150D02*
X9929444Y-11280674D01*
X9929444Y-11280674D02*
X9938968Y-11299722D01*
X9938968Y-11299722D02*
X9938968Y-11318769D01*
X9938968Y-11318769D02*
X9843730Y-11337817D01*
X10015158Y-11394960D02*
X10034206Y-11404484D01*
X10034206Y-11404484D02*
X10072301Y-11404484D01*
X10072301Y-11404484D02*
X10091349Y-11394960D01*
X10091349Y-11394960D02*
X10100873Y-11375912D01*
X10100873Y-11375912D02*
X10100873Y-11366388D01*
X10100873Y-11366388D02*
X10091349Y-11347341D01*
X10091349Y-11347341D02*
X10072301Y-11337817D01*
X10072301Y-11337817D02*
X10043730Y-11337817D01*
X10043730Y-11337817D02*
X10024682Y-11328293D01*
X10024682Y-11328293D02*
X10015158Y-11309246D01*
X10015158Y-11309246D02*
X10015158Y-11299722D01*
X10015158Y-11299722D02*
X10024682Y-11280674D01*
X10024682Y-11280674D02*
X10043730Y-11271150D01*
X10043730Y-11271150D02*
X10072301Y-11271150D01*
X10072301Y-11271150D02*
X10091349Y-11280674D01*
X10167539Y-11480674D02*
X10177063Y-11471150D01*
X10177063Y-11471150D02*
X10196111Y-11442579D01*
X10196111Y-11442579D02*
X10205634Y-11423531D01*
X10205634Y-11423531D02*
X10215158Y-11394960D01*
X10215158Y-11394960D02*
X10224682Y-11347341D01*
X10224682Y-11347341D02*
X10224682Y-11309246D01*
X10224682Y-11309246D02*
X10215158Y-11261627D01*
X10215158Y-11261627D02*
X10205634Y-11233055D01*
X10205634Y-11233055D02*
X10196111Y-11214008D01*
X10196111Y-11214008D02*
X10177063Y-11185436D01*
X10177063Y-11185436D02*
X10167539Y-11175912D01*
D10*
X5202000Y-11577000D02*
G75*
G02*
X5122000Y-11577000I-40000J0D01*
G01*
X5122000Y-11577000D02*
G75*
G02*
X5202000Y-11577000I40000J0D01*
G01*
D11*
X5500872Y-11468484D02*
X5519920Y-11468484D01*
X5519920Y-11468484D02*
X5538967Y-11478008D01*
X5538967Y-11478008D02*
X5548491Y-11487531D01*
X5548491Y-11487531D02*
X5558015Y-11506579D01*
X5558015Y-11506579D02*
X5567539Y-11544674D01*
X5567539Y-11544674D02*
X5567539Y-11592293D01*
X5567539Y-11592293D02*
X5558015Y-11630388D01*
X5558015Y-11630388D02*
X5548491Y-11649436D01*
X5548491Y-11649436D02*
X5538967Y-11658960D01*
X5538967Y-11658960D02*
X5519920Y-11668484D01*
X5519920Y-11668484D02*
X5500872Y-11668484D01*
X5500872Y-11668484D02*
X5481824Y-11658960D01*
X5481824Y-11658960D02*
X5472301Y-11649436D01*
X5472301Y-11649436D02*
X5462777Y-11630388D01*
X5462777Y-11630388D02*
X5453253Y-11592293D01*
X5453253Y-11592293D02*
X5453253Y-11544674D01*
X5453253Y-11544674D02*
X5462777Y-11506579D01*
X5462777Y-11506579D02*
X5472301Y-11487531D01*
X5472301Y-11487531D02*
X5481824Y-11478008D01*
X5481824Y-11478008D02*
X5500872Y-11468484D01*
X5653253Y-11649436D02*
X5662777Y-11658960D01*
X5662777Y-11658960D02*
X5653253Y-11668484D01*
X5653253Y-11668484D02*
X5643729Y-11658960D01*
X5643729Y-11658960D02*
X5653253Y-11649436D01*
X5653253Y-11649436D02*
X5653253Y-11668484D01*
X5777062Y-11554198D02*
X5758015Y-11544674D01*
X5758015Y-11544674D02*
X5748491Y-11535150D01*
X5748491Y-11535150D02*
X5738967Y-11516103D01*
X5738967Y-11516103D02*
X5738967Y-11506579D01*
X5738967Y-11506579D02*
X5748491Y-11487531D01*
X5748491Y-11487531D02*
X5758015Y-11478008D01*
X5758015Y-11478008D02*
X5777062Y-11468484D01*
X5777062Y-11468484D02*
X5815158Y-11468484D01*
X5815158Y-11468484D02*
X5834205Y-11478008D01*
X5834205Y-11478008D02*
X5843729Y-11487531D01*
X5843729Y-11487531D02*
X5853253Y-11506579D01*
X5853253Y-11506579D02*
X5853253Y-11516103D01*
X5853253Y-11516103D02*
X5843729Y-11535150D01*
X5843729Y-11535150D02*
X5834205Y-11544674D01*
X5834205Y-11544674D02*
X5815158Y-11554198D01*
X5815158Y-11554198D02*
X5777062Y-11554198D01*
X5777062Y-11554198D02*
X5758015Y-11563722D01*
X5758015Y-11563722D02*
X5748491Y-11573246D01*
X5748491Y-11573246D02*
X5738967Y-11592293D01*
X5738967Y-11592293D02*
X5738967Y-11630388D01*
X5738967Y-11630388D02*
X5748491Y-11649436D01*
X5748491Y-11649436D02*
X5758015Y-11658960D01*
X5758015Y-11658960D02*
X5777062Y-11668484D01*
X5777062Y-11668484D02*
X5815158Y-11668484D01*
X5815158Y-11668484D02*
X5834205Y-11658960D01*
X5834205Y-11658960D02*
X5843729Y-11649436D01*
X5843729Y-11649436D02*
X5853253Y-11630388D01*
X5853253Y-11630388D02*
X5853253Y-11592293D01*
X5853253Y-11592293D02*
X5843729Y-11573246D01*
X5843729Y-11573246D02*
X5834205Y-11563722D01*
X5834205Y-11563722D02*
X5815158Y-11554198D01*
X5977062Y-11468484D02*
X5996110Y-11468484D01*
X5996110Y-11468484D02*
X6015158Y-11478008D01*
X6015158Y-11478008D02*
X6024682Y-11487531D01*
X6024682Y-11487531D02*
X6034205Y-11506579D01*
X6034205Y-11506579D02*
X6043729Y-11544674D01*
X6043729Y-11544674D02*
X6043729Y-11592293D01*
X6043729Y-11592293D02*
X6034205Y-11630388D01*
X6034205Y-11630388D02*
X6024682Y-11649436D01*
X6024682Y-11649436D02*
X6015158Y-11658960D01*
X6015158Y-11658960D02*
X5996110Y-11668484D01*
X5996110Y-11668484D02*
X5977062Y-11668484D01*
X5977062Y-11668484D02*
X5958015Y-11658960D01*
X5958015Y-11658960D02*
X5948491Y-11649436D01*
X5948491Y-11649436D02*
X5938967Y-11630388D01*
X5938967Y-11630388D02*
X5929443Y-11592293D01*
X5929443Y-11592293D02*
X5929443Y-11544674D01*
X5929443Y-11544674D02*
X5938967Y-11506579D01*
X5938967Y-11506579D02*
X5948491Y-11487531D01*
X5948491Y-11487531D02*
X5958015Y-11478008D01*
X5958015Y-11478008D02*
X5977062Y-11468484D01*
X6167539Y-11468484D02*
X6186586Y-11468484D01*
X6186586Y-11468484D02*
X6205634Y-11478008D01*
X6205634Y-11478008D02*
X6215158Y-11487531D01*
X6215158Y-11487531D02*
X6224682Y-11506579D01*
X6224682Y-11506579D02*
X6234205Y-11544674D01*
X6234205Y-11544674D02*
X6234205Y-11592293D01*
X6234205Y-11592293D02*
X6224682Y-11630388D01*
X6224682Y-11630388D02*
X6215158Y-11649436D01*
X6215158Y-11649436D02*
X6205634Y-11658960D01*
X6205634Y-11658960D02*
X6186586Y-11668484D01*
X6186586Y-11668484D02*
X6167539Y-11668484D01*
X6167539Y-11668484D02*
X6148491Y-11658960D01*
X6148491Y-11658960D02*
X6138967Y-11649436D01*
X6138967Y-11649436D02*
X6129443Y-11630388D01*
X6129443Y-11630388D02*
X6119920Y-11592293D01*
X6119920Y-11592293D02*
X6119920Y-11544674D01*
X6119920Y-11544674D02*
X6129443Y-11506579D01*
X6129443Y-11506579D02*
X6138967Y-11487531D01*
X6138967Y-11487531D02*
X6148491Y-11478008D01*
X6148491Y-11478008D02*
X6167539Y-11468484D01*
X6319920Y-11668484D02*
X6319920Y-11535150D01*
X6319920Y-11554198D02*
X6329443Y-11544674D01*
X6329443Y-11544674D02*
X6348491Y-11535150D01*
X6348491Y-11535150D02*
X6377063Y-11535150D01*
X6377063Y-11535150D02*
X6396110Y-11544674D01*
X6396110Y-11544674D02*
X6405634Y-11563722D01*
X6405634Y-11563722D02*
X6405634Y-11668484D01*
X6405634Y-11563722D02*
X6415158Y-11544674D01*
X6415158Y-11544674D02*
X6434205Y-11535150D01*
X6434205Y-11535150D02*
X6462777Y-11535150D01*
X6462777Y-11535150D02*
X6481824Y-11544674D01*
X6481824Y-11544674D02*
X6491348Y-11563722D01*
X6491348Y-11563722D02*
X6491348Y-11668484D01*
X6586586Y-11668484D02*
X6586586Y-11535150D01*
X6586586Y-11554198D02*
X6596110Y-11544674D01*
X6596110Y-11544674D02*
X6615158Y-11535150D01*
X6615158Y-11535150D02*
X6643729Y-11535150D01*
X6643729Y-11535150D02*
X6662777Y-11544674D01*
X6662777Y-11544674D02*
X6672301Y-11563722D01*
X6672301Y-11563722D02*
X6672301Y-11668484D01*
X6672301Y-11563722D02*
X6681824Y-11544674D01*
X6681824Y-11544674D02*
X6700872Y-11535150D01*
X6700872Y-11535150D02*
X6729443Y-11535150D01*
X6729443Y-11535150D02*
X6748491Y-11544674D01*
X6748491Y-11544674D02*
X6758015Y-11563722D01*
X6758015Y-11563722D02*
X6758015Y-11668484D01*
X7148491Y-11458960D02*
X6977063Y-11716103D01*
X7405634Y-11468484D02*
X7424682Y-11468484D01*
X7424682Y-11468484D02*
X7443729Y-11478008D01*
X7443729Y-11478008D02*
X7453253Y-11487531D01*
X7453253Y-11487531D02*
X7462777Y-11506579D01*
X7462777Y-11506579D02*
X7472301Y-11544674D01*
X7472301Y-11544674D02*
X7472301Y-11592293D01*
X7472301Y-11592293D02*
X7462777Y-11630388D01*
X7462777Y-11630388D02*
X7453253Y-11649436D01*
X7453253Y-11649436D02*
X7443729Y-11658960D01*
X7443729Y-11658960D02*
X7424682Y-11668484D01*
X7424682Y-11668484D02*
X7405634Y-11668484D01*
X7405634Y-11668484D02*
X7386586Y-11658960D01*
X7386586Y-11658960D02*
X7377063Y-11649436D01*
X7377063Y-11649436D02*
X7367539Y-11630388D01*
X7367539Y-11630388D02*
X7358015Y-11592293D01*
X7358015Y-11592293D02*
X7358015Y-11544674D01*
X7358015Y-11544674D02*
X7367539Y-11506579D01*
X7367539Y-11506579D02*
X7377063Y-11487531D01*
X7377063Y-11487531D02*
X7386586Y-11478008D01*
X7386586Y-11478008D02*
X7405634Y-11468484D01*
X7558015Y-11649436D02*
X7567539Y-11658960D01*
X7567539Y-11658960D02*
X7558015Y-11668484D01*
X7558015Y-11668484D02*
X7548491Y-11658960D01*
X7548491Y-11658960D02*
X7558015Y-11649436D01*
X7558015Y-11649436D02*
X7558015Y-11668484D01*
X7691348Y-11468484D02*
X7710396Y-11468484D01*
X7710396Y-11468484D02*
X7729444Y-11478008D01*
X7729444Y-11478008D02*
X7738967Y-11487531D01*
X7738967Y-11487531D02*
X7748491Y-11506579D01*
X7748491Y-11506579D02*
X7758015Y-11544674D01*
X7758015Y-11544674D02*
X7758015Y-11592293D01*
X7758015Y-11592293D02*
X7748491Y-11630388D01*
X7748491Y-11630388D02*
X7738967Y-11649436D01*
X7738967Y-11649436D02*
X7729444Y-11658960D01*
X7729444Y-11658960D02*
X7710396Y-11668484D01*
X7710396Y-11668484D02*
X7691348Y-11668484D01*
X7691348Y-11668484D02*
X7672301Y-11658960D01*
X7672301Y-11658960D02*
X7662777Y-11649436D01*
X7662777Y-11649436D02*
X7653253Y-11630388D01*
X7653253Y-11630388D02*
X7643729Y-11592293D01*
X7643729Y-11592293D02*
X7643729Y-11544674D01*
X7643729Y-11544674D02*
X7653253Y-11506579D01*
X7653253Y-11506579D02*
X7662777Y-11487531D01*
X7662777Y-11487531D02*
X7672301Y-11478008D01*
X7672301Y-11478008D02*
X7691348Y-11468484D01*
X7824682Y-11468484D02*
X7948491Y-11468484D01*
X7948491Y-11468484D02*
X7881825Y-11544674D01*
X7881825Y-11544674D02*
X7910396Y-11544674D01*
X7910396Y-11544674D02*
X7929444Y-11554198D01*
X7929444Y-11554198D02*
X7938967Y-11563722D01*
X7938967Y-11563722D02*
X7948491Y-11582769D01*
X7948491Y-11582769D02*
X7948491Y-11630388D01*
X7948491Y-11630388D02*
X7938967Y-11649436D01*
X7938967Y-11649436D02*
X7929444Y-11658960D01*
X7929444Y-11658960D02*
X7910396Y-11668484D01*
X7910396Y-11668484D02*
X7853253Y-11668484D01*
X7853253Y-11668484D02*
X7834206Y-11658960D01*
X7834206Y-11658960D02*
X7824682Y-11649436D01*
X8138967Y-11668484D02*
X8024682Y-11668484D01*
X8081825Y-11668484D02*
X8081825Y-11468484D01*
X8081825Y-11468484D02*
X8062777Y-11497055D01*
X8062777Y-11497055D02*
X8043729Y-11516103D01*
X8043729Y-11516103D02*
X8024682Y-11525627D01*
X8319920Y-11468484D02*
X8224682Y-11468484D01*
X8224682Y-11468484D02*
X8215158Y-11563722D01*
X8215158Y-11563722D02*
X8224682Y-11554198D01*
X8224682Y-11554198D02*
X8243729Y-11544674D01*
X8243729Y-11544674D02*
X8291348Y-11544674D01*
X8291348Y-11544674D02*
X8310396Y-11554198D01*
X8310396Y-11554198D02*
X8319920Y-11563722D01*
X8319920Y-11563722D02*
X8329444Y-11582769D01*
X8329444Y-11582769D02*
X8329444Y-11630388D01*
X8329444Y-11630388D02*
X8319920Y-11649436D01*
X8319920Y-11649436D02*
X8310396Y-11658960D01*
X8310396Y-11658960D02*
X8291348Y-11668484D01*
X8291348Y-11668484D02*
X8243729Y-11668484D01*
X8243729Y-11668484D02*
X8224682Y-11658960D01*
X8224682Y-11658960D02*
X8215158Y-11649436D01*
X8405634Y-11468484D02*
X8405634Y-11506579D01*
X8481825Y-11468484D02*
X8481825Y-11506579D01*
X8777063Y-11744674D02*
X8767539Y-11735150D01*
X8767539Y-11735150D02*
X8748491Y-11706579D01*
X8748491Y-11706579D02*
X8738968Y-11687531D01*
X8738968Y-11687531D02*
X8729444Y-11658960D01*
X8729444Y-11658960D02*
X8719920Y-11611341D01*
X8719920Y-11611341D02*
X8719920Y-11573246D01*
X8719920Y-11573246D02*
X8729444Y-11525627D01*
X8729444Y-11525627D02*
X8738968Y-11497055D01*
X8738968Y-11497055D02*
X8748491Y-11478008D01*
X8748491Y-11478008D02*
X8767539Y-11449436D01*
X8767539Y-11449436D02*
X8777063Y-11439912D01*
X8843730Y-11487531D02*
X8853253Y-11478008D01*
X8853253Y-11478008D02*
X8872301Y-11468484D01*
X8872301Y-11468484D02*
X8919920Y-11468484D01*
X8919920Y-11468484D02*
X8938968Y-11478008D01*
X8938968Y-11478008D02*
X8948491Y-11487531D01*
X8948491Y-11487531D02*
X8958015Y-11506579D01*
X8958015Y-11506579D02*
X8958015Y-11525627D01*
X8958015Y-11525627D02*
X8948491Y-11554198D01*
X8948491Y-11554198D02*
X8834206Y-11668484D01*
X8834206Y-11668484D02*
X8958015Y-11668484D01*
X9129444Y-11468484D02*
X9091349Y-11468484D01*
X9091349Y-11468484D02*
X9072301Y-11478008D01*
X9072301Y-11478008D02*
X9062777Y-11487531D01*
X9062777Y-11487531D02*
X9043730Y-11516103D01*
X9043730Y-11516103D02*
X9034206Y-11554198D01*
X9034206Y-11554198D02*
X9034206Y-11630388D01*
X9034206Y-11630388D02*
X9043730Y-11649436D01*
X9043730Y-11649436D02*
X9053253Y-11658960D01*
X9053253Y-11658960D02*
X9072301Y-11668484D01*
X9072301Y-11668484D02*
X9110396Y-11668484D01*
X9110396Y-11668484D02*
X9129444Y-11658960D01*
X9129444Y-11658960D02*
X9138968Y-11649436D01*
X9138968Y-11649436D02*
X9148491Y-11630388D01*
X9148491Y-11630388D02*
X9148491Y-11582769D01*
X9148491Y-11582769D02*
X9138968Y-11563722D01*
X9138968Y-11563722D02*
X9129444Y-11554198D01*
X9129444Y-11554198D02*
X9110396Y-11544674D01*
X9110396Y-11544674D02*
X9072301Y-11544674D01*
X9072301Y-11544674D02*
X9053253Y-11554198D01*
X9053253Y-11554198D02*
X9043730Y-11563722D01*
X9043730Y-11563722D02*
X9034206Y-11582769D01*
X9338968Y-11668484D02*
X9224682Y-11668484D01*
X9281825Y-11668484D02*
X9281825Y-11468484D01*
X9281825Y-11468484D02*
X9262777Y-11497055D01*
X9262777Y-11497055D02*
X9243730Y-11516103D01*
X9243730Y-11516103D02*
X9224682Y-11525627D01*
X9577063Y-11668484D02*
X9577063Y-11468484D01*
X9662777Y-11668484D02*
X9662777Y-11563722D01*
X9662777Y-11563722D02*
X9653253Y-11544674D01*
X9653253Y-11544674D02*
X9634206Y-11535150D01*
X9634206Y-11535150D02*
X9605634Y-11535150D01*
X9605634Y-11535150D02*
X9586587Y-11544674D01*
X9586587Y-11544674D02*
X9577063Y-11554198D01*
X9786587Y-11668484D02*
X9767539Y-11658960D01*
X9767539Y-11658960D02*
X9758015Y-11649436D01*
X9758015Y-11649436D02*
X9748492Y-11630388D01*
X9748492Y-11630388D02*
X9748492Y-11573246D01*
X9748492Y-11573246D02*
X9758015Y-11554198D01*
X9758015Y-11554198D02*
X9767539Y-11544674D01*
X9767539Y-11544674D02*
X9786587Y-11535150D01*
X9786587Y-11535150D02*
X9815158Y-11535150D01*
X9815158Y-11535150D02*
X9834206Y-11544674D01*
X9834206Y-11544674D02*
X9843730Y-11554198D01*
X9843730Y-11554198D02*
X9853253Y-11573246D01*
X9853253Y-11573246D02*
X9853253Y-11630388D01*
X9853253Y-11630388D02*
X9843730Y-11649436D01*
X9843730Y-11649436D02*
X9834206Y-11658960D01*
X9834206Y-11658960D02*
X9815158Y-11668484D01*
X9815158Y-11668484D02*
X9786587Y-11668484D01*
X9967539Y-11668484D02*
X9948492Y-11658960D01*
X9948492Y-11658960D02*
X9938968Y-11639912D01*
X9938968Y-11639912D02*
X9938968Y-11468484D01*
X10119920Y-11658960D02*
X10100873Y-11668484D01*
X10100873Y-11668484D02*
X10062777Y-11668484D01*
X10062777Y-11668484D02*
X10043730Y-11658960D01*
X10043730Y-11658960D02*
X10034206Y-11639912D01*
X10034206Y-11639912D02*
X10034206Y-11563722D01*
X10034206Y-11563722D02*
X10043730Y-11544674D01*
X10043730Y-11544674D02*
X10062777Y-11535150D01*
X10062777Y-11535150D02*
X10100873Y-11535150D01*
X10100873Y-11535150D02*
X10119920Y-11544674D01*
X10119920Y-11544674D02*
X10129444Y-11563722D01*
X10129444Y-11563722D02*
X10129444Y-11582769D01*
X10129444Y-11582769D02*
X10034206Y-11601817D01*
X10205634Y-11658960D02*
X10224682Y-11668484D01*
X10224682Y-11668484D02*
X10262777Y-11668484D01*
X10262777Y-11668484D02*
X10281825Y-11658960D01*
X10281825Y-11658960D02*
X10291349Y-11639912D01*
X10291349Y-11639912D02*
X10291349Y-11630388D01*
X10291349Y-11630388D02*
X10281825Y-11611341D01*
X10281825Y-11611341D02*
X10262777Y-11601817D01*
X10262777Y-11601817D02*
X10234206Y-11601817D01*
X10234206Y-11601817D02*
X10215158Y-11592293D01*
X10215158Y-11592293D02*
X10205634Y-11573246D01*
X10205634Y-11573246D02*
X10205634Y-11563722D01*
X10205634Y-11563722D02*
X10215158Y-11544674D01*
X10215158Y-11544674D02*
X10234206Y-11535150D01*
X10234206Y-11535150D02*
X10262777Y-11535150D01*
X10262777Y-11535150D02*
X10281825Y-11544674D01*
X10358015Y-11744674D02*
X10367539Y-11735150D01*
X10367539Y-11735150D02*
X10386587Y-11706579D01*
X10386587Y-11706579D02*
X10396111Y-11687531D01*
X10396111Y-11687531D02*
X10405634Y-11658960D01*
X10405634Y-11658960D02*
X10415158Y-11611341D01*
X10415158Y-11611341D02*
X10415158Y-11573246D01*
X10415158Y-11573246D02*
X10405634Y-11525627D01*
X10405634Y-11525627D02*
X10396111Y-11497055D01*
X10396111Y-11497055D02*
X10386587Y-11478008D01*
X10386587Y-11478008D02*
X10367539Y-11449436D01*
X10367539Y-11449436D02*
X10358015Y-11439912D01*
D10*
X5157000Y-11796000D02*
X5157000Y-11886000D01*
X5112000Y-11841000D02*
X5202000Y-11841000D01*
D11*
X5500872Y-11732484D02*
X5519920Y-11732484D01*
X5519920Y-11732484D02*
X5538967Y-11742008D01*
X5538967Y-11742008D02*
X5548491Y-11751531D01*
X5548491Y-11751531D02*
X5558015Y-11770579D01*
X5558015Y-11770579D02*
X5567539Y-11808674D01*
X5567539Y-11808674D02*
X5567539Y-11856293D01*
X5567539Y-11856293D02*
X5558015Y-11894388D01*
X5558015Y-11894388D02*
X5548491Y-11913436D01*
X5548491Y-11913436D02*
X5538967Y-11922960D01*
X5538967Y-11922960D02*
X5519920Y-11932484D01*
X5519920Y-11932484D02*
X5500872Y-11932484D01*
X5500872Y-11932484D02*
X5481824Y-11922960D01*
X5481824Y-11922960D02*
X5472301Y-11913436D01*
X5472301Y-11913436D02*
X5462777Y-11894388D01*
X5462777Y-11894388D02*
X5453253Y-11856293D01*
X5453253Y-11856293D02*
X5453253Y-11808674D01*
X5453253Y-11808674D02*
X5462777Y-11770579D01*
X5462777Y-11770579D02*
X5472301Y-11751531D01*
X5472301Y-11751531D02*
X5481824Y-11742008D01*
X5481824Y-11742008D02*
X5500872Y-11732484D01*
X5653253Y-11913436D02*
X5662777Y-11922960D01*
X5662777Y-11922960D02*
X5653253Y-11932484D01*
X5653253Y-11932484D02*
X5643729Y-11922960D01*
X5643729Y-11922960D02*
X5653253Y-11913436D01*
X5653253Y-11913436D02*
X5653253Y-11932484D01*
X5758015Y-11932484D02*
X5796110Y-11932484D01*
X5796110Y-11932484D02*
X5815158Y-11922960D01*
X5815158Y-11922960D02*
X5824682Y-11913436D01*
X5824682Y-11913436D02*
X5843729Y-11884865D01*
X5843729Y-11884865D02*
X5853253Y-11846769D01*
X5853253Y-11846769D02*
X5853253Y-11770579D01*
X5853253Y-11770579D02*
X5843729Y-11751531D01*
X5843729Y-11751531D02*
X5834205Y-11742008D01*
X5834205Y-11742008D02*
X5815158Y-11732484D01*
X5815158Y-11732484D02*
X5777062Y-11732484D01*
X5777062Y-11732484D02*
X5758015Y-11742008D01*
X5758015Y-11742008D02*
X5748491Y-11751531D01*
X5748491Y-11751531D02*
X5738967Y-11770579D01*
X5738967Y-11770579D02*
X5738967Y-11818198D01*
X5738967Y-11818198D02*
X5748491Y-11837246D01*
X5748491Y-11837246D02*
X5758015Y-11846769D01*
X5758015Y-11846769D02*
X5777062Y-11856293D01*
X5777062Y-11856293D02*
X5815158Y-11856293D01*
X5815158Y-11856293D02*
X5834205Y-11846769D01*
X5834205Y-11846769D02*
X5843729Y-11837246D01*
X5843729Y-11837246D02*
X5853253Y-11818198D01*
X5977062Y-11732484D02*
X5996110Y-11732484D01*
X5996110Y-11732484D02*
X6015158Y-11742008D01*
X6015158Y-11742008D02*
X6024682Y-11751531D01*
X6024682Y-11751531D02*
X6034205Y-11770579D01*
X6034205Y-11770579D02*
X6043729Y-11808674D01*
X6043729Y-11808674D02*
X6043729Y-11856293D01*
X6043729Y-11856293D02*
X6034205Y-11894388D01*
X6034205Y-11894388D02*
X6024682Y-11913436D01*
X6024682Y-11913436D02*
X6015158Y-11922960D01*
X6015158Y-11922960D02*
X5996110Y-11932484D01*
X5996110Y-11932484D02*
X5977062Y-11932484D01*
X5977062Y-11932484D02*
X5958015Y-11922960D01*
X5958015Y-11922960D02*
X5948491Y-11913436D01*
X5948491Y-11913436D02*
X5938967Y-11894388D01*
X5938967Y-11894388D02*
X5929443Y-11856293D01*
X5929443Y-11856293D02*
X5929443Y-11808674D01*
X5929443Y-11808674D02*
X5938967Y-11770579D01*
X5938967Y-11770579D02*
X5948491Y-11751531D01*
X5948491Y-11751531D02*
X5958015Y-11742008D01*
X5958015Y-11742008D02*
X5977062Y-11732484D01*
X6167539Y-11732484D02*
X6186586Y-11732484D01*
X6186586Y-11732484D02*
X6205634Y-11742008D01*
X6205634Y-11742008D02*
X6215158Y-11751531D01*
X6215158Y-11751531D02*
X6224682Y-11770579D01*
X6224682Y-11770579D02*
X6234205Y-11808674D01*
X6234205Y-11808674D02*
X6234205Y-11856293D01*
X6234205Y-11856293D02*
X6224682Y-11894388D01*
X6224682Y-11894388D02*
X6215158Y-11913436D01*
X6215158Y-11913436D02*
X6205634Y-11922960D01*
X6205634Y-11922960D02*
X6186586Y-11932484D01*
X6186586Y-11932484D02*
X6167539Y-11932484D01*
X6167539Y-11932484D02*
X6148491Y-11922960D01*
X6148491Y-11922960D02*
X6138967Y-11913436D01*
X6138967Y-11913436D02*
X6129443Y-11894388D01*
X6129443Y-11894388D02*
X6119920Y-11856293D01*
X6119920Y-11856293D02*
X6119920Y-11808674D01*
X6119920Y-11808674D02*
X6129443Y-11770579D01*
X6129443Y-11770579D02*
X6138967Y-11751531D01*
X6138967Y-11751531D02*
X6148491Y-11742008D01*
X6148491Y-11742008D02*
X6167539Y-11732484D01*
X6319920Y-11932484D02*
X6319920Y-11799150D01*
X6319920Y-11818198D02*
X6329443Y-11808674D01*
X6329443Y-11808674D02*
X6348491Y-11799150D01*
X6348491Y-11799150D02*
X6377063Y-11799150D01*
X6377063Y-11799150D02*
X6396110Y-11808674D01*
X6396110Y-11808674D02*
X6405634Y-11827722D01*
X6405634Y-11827722D02*
X6405634Y-11932484D01*
X6405634Y-11827722D02*
X6415158Y-11808674D01*
X6415158Y-11808674D02*
X6434205Y-11799150D01*
X6434205Y-11799150D02*
X6462777Y-11799150D01*
X6462777Y-11799150D02*
X6481824Y-11808674D01*
X6481824Y-11808674D02*
X6491348Y-11827722D01*
X6491348Y-11827722D02*
X6491348Y-11932484D01*
X6586586Y-11932484D02*
X6586586Y-11799150D01*
X6586586Y-11818198D02*
X6596110Y-11808674D01*
X6596110Y-11808674D02*
X6615158Y-11799150D01*
X6615158Y-11799150D02*
X6643729Y-11799150D01*
X6643729Y-11799150D02*
X6662777Y-11808674D01*
X6662777Y-11808674D02*
X6672301Y-11827722D01*
X6672301Y-11827722D02*
X6672301Y-11932484D01*
X6672301Y-11827722D02*
X6681824Y-11808674D01*
X6681824Y-11808674D02*
X6700872Y-11799150D01*
X6700872Y-11799150D02*
X6729443Y-11799150D01*
X6729443Y-11799150D02*
X6748491Y-11808674D01*
X6748491Y-11808674D02*
X6758015Y-11827722D01*
X6758015Y-11827722D02*
X6758015Y-11932484D01*
X7148491Y-11722960D02*
X6977063Y-11980103D01*
X7405634Y-11732484D02*
X7424682Y-11732484D01*
X7424682Y-11732484D02*
X7443729Y-11742008D01*
X7443729Y-11742008D02*
X7453253Y-11751531D01*
X7453253Y-11751531D02*
X7462777Y-11770579D01*
X7462777Y-11770579D02*
X7472301Y-11808674D01*
X7472301Y-11808674D02*
X7472301Y-11856293D01*
X7472301Y-11856293D02*
X7462777Y-11894388D01*
X7462777Y-11894388D02*
X7453253Y-11913436D01*
X7453253Y-11913436D02*
X7443729Y-11922960D01*
X7443729Y-11922960D02*
X7424682Y-11932484D01*
X7424682Y-11932484D02*
X7405634Y-11932484D01*
X7405634Y-11932484D02*
X7386586Y-11922960D01*
X7386586Y-11922960D02*
X7377063Y-11913436D01*
X7377063Y-11913436D02*
X7367539Y-11894388D01*
X7367539Y-11894388D02*
X7358015Y-11856293D01*
X7358015Y-11856293D02*
X7358015Y-11808674D01*
X7358015Y-11808674D02*
X7367539Y-11770579D01*
X7367539Y-11770579D02*
X7377063Y-11751531D01*
X7377063Y-11751531D02*
X7386586Y-11742008D01*
X7386586Y-11742008D02*
X7405634Y-11732484D01*
X7558015Y-11913436D02*
X7567539Y-11922960D01*
X7567539Y-11922960D02*
X7558015Y-11932484D01*
X7558015Y-11932484D02*
X7548491Y-11922960D01*
X7548491Y-11922960D02*
X7558015Y-11913436D01*
X7558015Y-11913436D02*
X7558015Y-11932484D01*
X7691348Y-11732484D02*
X7710396Y-11732484D01*
X7710396Y-11732484D02*
X7729444Y-11742008D01*
X7729444Y-11742008D02*
X7738967Y-11751531D01*
X7738967Y-11751531D02*
X7748491Y-11770579D01*
X7748491Y-11770579D02*
X7758015Y-11808674D01*
X7758015Y-11808674D02*
X7758015Y-11856293D01*
X7758015Y-11856293D02*
X7748491Y-11894388D01*
X7748491Y-11894388D02*
X7738967Y-11913436D01*
X7738967Y-11913436D02*
X7729444Y-11922960D01*
X7729444Y-11922960D02*
X7710396Y-11932484D01*
X7710396Y-11932484D02*
X7691348Y-11932484D01*
X7691348Y-11932484D02*
X7672301Y-11922960D01*
X7672301Y-11922960D02*
X7662777Y-11913436D01*
X7662777Y-11913436D02*
X7653253Y-11894388D01*
X7653253Y-11894388D02*
X7643729Y-11856293D01*
X7643729Y-11856293D02*
X7643729Y-11808674D01*
X7643729Y-11808674D02*
X7653253Y-11770579D01*
X7653253Y-11770579D02*
X7662777Y-11751531D01*
X7662777Y-11751531D02*
X7672301Y-11742008D01*
X7672301Y-11742008D02*
X7691348Y-11732484D01*
X7824682Y-11732484D02*
X7948491Y-11732484D01*
X7948491Y-11732484D02*
X7881825Y-11808674D01*
X7881825Y-11808674D02*
X7910396Y-11808674D01*
X7910396Y-11808674D02*
X7929444Y-11818198D01*
X7929444Y-11818198D02*
X7938967Y-11827722D01*
X7938967Y-11827722D02*
X7948491Y-11846769D01*
X7948491Y-11846769D02*
X7948491Y-11894388D01*
X7948491Y-11894388D02*
X7938967Y-11913436D01*
X7938967Y-11913436D02*
X7929444Y-11922960D01*
X7929444Y-11922960D02*
X7910396Y-11932484D01*
X7910396Y-11932484D02*
X7853253Y-11932484D01*
X7853253Y-11932484D02*
X7834206Y-11922960D01*
X7834206Y-11922960D02*
X7824682Y-11913436D01*
X8129444Y-11732484D02*
X8034206Y-11732484D01*
X8034206Y-11732484D02*
X8024682Y-11827722D01*
X8024682Y-11827722D02*
X8034206Y-11818198D01*
X8034206Y-11818198D02*
X8053253Y-11808674D01*
X8053253Y-11808674D02*
X8100872Y-11808674D01*
X8100872Y-11808674D02*
X8119920Y-11818198D01*
X8119920Y-11818198D02*
X8129444Y-11827722D01*
X8129444Y-11827722D02*
X8138967Y-11846769D01*
X8138967Y-11846769D02*
X8138967Y-11894388D01*
X8138967Y-11894388D02*
X8129444Y-11913436D01*
X8129444Y-11913436D02*
X8119920Y-11922960D01*
X8119920Y-11922960D02*
X8100872Y-11932484D01*
X8100872Y-11932484D02*
X8053253Y-11932484D01*
X8053253Y-11932484D02*
X8034206Y-11922960D01*
X8034206Y-11922960D02*
X8024682Y-11913436D01*
X8310396Y-11799150D02*
X8310396Y-11932484D01*
X8262777Y-11722960D02*
X8215158Y-11865817D01*
X8215158Y-11865817D02*
X8338967Y-11865817D01*
X8405634Y-11732484D02*
X8405634Y-11770579D01*
X8481825Y-11732484D02*
X8481825Y-11770579D01*
X8777063Y-12008674D02*
X8767539Y-11999150D01*
X8767539Y-11999150D02*
X8748491Y-11970579D01*
X8748491Y-11970579D02*
X8738968Y-11951531D01*
X8738968Y-11951531D02*
X8729444Y-11922960D01*
X8729444Y-11922960D02*
X8719920Y-11875341D01*
X8719920Y-11875341D02*
X8719920Y-11837246D01*
X8719920Y-11837246D02*
X8729444Y-11789627D01*
X8729444Y-11789627D02*
X8738968Y-11761055D01*
X8738968Y-11761055D02*
X8748491Y-11742008D01*
X8748491Y-11742008D02*
X8767539Y-11713436D01*
X8767539Y-11713436D02*
X8777063Y-11703912D01*
X8958015Y-11932484D02*
X8843730Y-11932484D01*
X8900872Y-11932484D02*
X8900872Y-11732484D01*
X8900872Y-11732484D02*
X8881825Y-11761055D01*
X8881825Y-11761055D02*
X8862777Y-11780103D01*
X8862777Y-11780103D02*
X8843730Y-11789627D01*
X9129444Y-11799150D02*
X9129444Y-11932484D01*
X9081825Y-11722960D02*
X9034206Y-11865817D01*
X9034206Y-11865817D02*
X9158015Y-11865817D01*
X9386587Y-11932484D02*
X9386587Y-11732484D01*
X9472301Y-11932484D02*
X9472301Y-11827722D01*
X9472301Y-11827722D02*
X9462777Y-11808674D01*
X9462777Y-11808674D02*
X9443730Y-11799150D01*
X9443730Y-11799150D02*
X9415158Y-11799150D01*
X9415158Y-11799150D02*
X9396111Y-11808674D01*
X9396111Y-11808674D02*
X9386587Y-11818198D01*
X9596111Y-11932484D02*
X9577063Y-11922960D01*
X9577063Y-11922960D02*
X9567539Y-11913436D01*
X9567539Y-11913436D02*
X9558015Y-11894388D01*
X9558015Y-11894388D02*
X9558015Y-11837246D01*
X9558015Y-11837246D02*
X9567539Y-11818198D01*
X9567539Y-11818198D02*
X9577063Y-11808674D01*
X9577063Y-11808674D02*
X9596111Y-11799150D01*
X9596111Y-11799150D02*
X9624682Y-11799150D01*
X9624682Y-11799150D02*
X9643730Y-11808674D01*
X9643730Y-11808674D02*
X9653253Y-11818198D01*
X9653253Y-11818198D02*
X9662777Y-11837246D01*
X9662777Y-11837246D02*
X9662777Y-11894388D01*
X9662777Y-11894388D02*
X9653253Y-11913436D01*
X9653253Y-11913436D02*
X9643730Y-11922960D01*
X9643730Y-11922960D02*
X9624682Y-11932484D01*
X9624682Y-11932484D02*
X9596111Y-11932484D01*
X9777063Y-11932484D02*
X9758015Y-11922960D01*
X9758015Y-11922960D02*
X9748492Y-11903912D01*
X9748492Y-11903912D02*
X9748492Y-11732484D01*
X9929444Y-11922960D02*
X9910396Y-11932484D01*
X9910396Y-11932484D02*
X9872301Y-11932484D01*
X9872301Y-11932484D02*
X9853253Y-11922960D01*
X9853253Y-11922960D02*
X9843730Y-11903912D01*
X9843730Y-11903912D02*
X9843730Y-11827722D01*
X9843730Y-11827722D02*
X9853253Y-11808674D01*
X9853253Y-11808674D02*
X9872301Y-11799150D01*
X9872301Y-11799150D02*
X9910396Y-11799150D01*
X9910396Y-11799150D02*
X9929444Y-11808674D01*
X9929444Y-11808674D02*
X9938968Y-11827722D01*
X9938968Y-11827722D02*
X9938968Y-11846769D01*
X9938968Y-11846769D02*
X9843730Y-11865817D01*
X10015158Y-11922960D02*
X10034206Y-11932484D01*
X10034206Y-11932484D02*
X10072301Y-11932484D01*
X10072301Y-11932484D02*
X10091349Y-11922960D01*
X10091349Y-11922960D02*
X10100873Y-11903912D01*
X10100873Y-11903912D02*
X10100873Y-11894388D01*
X10100873Y-11894388D02*
X10091349Y-11875341D01*
X10091349Y-11875341D02*
X10072301Y-11865817D01*
X10072301Y-11865817D02*
X10043730Y-11865817D01*
X10043730Y-11865817D02*
X10024682Y-11856293D01*
X10024682Y-11856293D02*
X10015158Y-11837246D01*
X10015158Y-11837246D02*
X10015158Y-11827722D01*
X10015158Y-11827722D02*
X10024682Y-11808674D01*
X10024682Y-11808674D02*
X10043730Y-11799150D01*
X10043730Y-11799150D02*
X10072301Y-11799150D01*
X10072301Y-11799150D02*
X10091349Y-11808674D01*
X10167539Y-12008674D02*
X10177063Y-11999150D01*
X10177063Y-11999150D02*
X10196111Y-11970579D01*
X10196111Y-11970579D02*
X10205634Y-11951531D01*
X10205634Y-11951531D02*
X10215158Y-11922960D01*
X10215158Y-11922960D02*
X10224682Y-11875341D01*
X10224682Y-11875341D02*
X10224682Y-11837246D01*
X10224682Y-11837246D02*
X10215158Y-11789627D01*
X10215158Y-11789627D02*
X10205634Y-11761055D01*
X10205634Y-11761055D02*
X10196111Y-11742008D01*
X10196111Y-11742008D02*
X10177063Y-11713436D01*
X10177063Y-11713436D02*
X10167539Y-11703912D01*
D12*
X5185891Y-12143891D02*
X5185891Y-12066109D01*
X5108109Y-12066109D01*
X5108109Y-12143891D01*
X5185891Y-12143891D01*
D11*
X5567539Y-12196484D02*
X5453253Y-12196484D01*
X5510396Y-12196484D02*
X5510396Y-11996484D01*
X5510396Y-11996484D02*
X5491348Y-12025055D01*
X5491348Y-12025055D02*
X5472301Y-12044103D01*
X5472301Y-12044103D02*
X5453253Y-12053627D01*
X5653253Y-12177436D02*
X5662777Y-12186960D01*
X5662777Y-12186960D02*
X5653253Y-12196484D01*
X5653253Y-12196484D02*
X5643729Y-12186960D01*
X5643729Y-12186960D02*
X5653253Y-12177436D01*
X5653253Y-12177436D02*
X5653253Y-12196484D01*
X5853253Y-12196484D02*
X5738967Y-12196484D01*
X5796110Y-12196484D02*
X5796110Y-11996484D01*
X5796110Y-11996484D02*
X5777062Y-12025055D01*
X5777062Y-12025055D02*
X5758015Y-12044103D01*
X5758015Y-12044103D02*
X5738967Y-12053627D01*
X5977062Y-11996484D02*
X5996110Y-11996484D01*
X5996110Y-11996484D02*
X6015158Y-12006008D01*
X6015158Y-12006008D02*
X6024682Y-12015531D01*
X6024682Y-12015531D02*
X6034205Y-12034579D01*
X6034205Y-12034579D02*
X6043729Y-12072674D01*
X6043729Y-12072674D02*
X6043729Y-12120293D01*
X6043729Y-12120293D02*
X6034205Y-12158388D01*
X6034205Y-12158388D02*
X6024682Y-12177436D01*
X6024682Y-12177436D02*
X6015158Y-12186960D01*
X6015158Y-12186960D02*
X5996110Y-12196484D01*
X5996110Y-12196484D02*
X5977062Y-12196484D01*
X5977062Y-12196484D02*
X5958015Y-12186960D01*
X5958015Y-12186960D02*
X5948491Y-12177436D01*
X5948491Y-12177436D02*
X5938967Y-12158388D01*
X5938967Y-12158388D02*
X5929443Y-12120293D01*
X5929443Y-12120293D02*
X5929443Y-12072674D01*
X5929443Y-12072674D02*
X5938967Y-12034579D01*
X5938967Y-12034579D02*
X5948491Y-12015531D01*
X5948491Y-12015531D02*
X5958015Y-12006008D01*
X5958015Y-12006008D02*
X5977062Y-11996484D01*
X6167539Y-11996484D02*
X6186586Y-11996484D01*
X6186586Y-11996484D02*
X6205634Y-12006008D01*
X6205634Y-12006008D02*
X6215158Y-12015531D01*
X6215158Y-12015531D02*
X6224682Y-12034579D01*
X6224682Y-12034579D02*
X6234205Y-12072674D01*
X6234205Y-12072674D02*
X6234205Y-12120293D01*
X6234205Y-12120293D02*
X6224682Y-12158388D01*
X6224682Y-12158388D02*
X6215158Y-12177436D01*
X6215158Y-12177436D02*
X6205634Y-12186960D01*
X6205634Y-12186960D02*
X6186586Y-12196484D01*
X6186586Y-12196484D02*
X6167539Y-12196484D01*
X6167539Y-12196484D02*
X6148491Y-12186960D01*
X6148491Y-12186960D02*
X6138967Y-12177436D01*
X6138967Y-12177436D02*
X6129443Y-12158388D01*
X6129443Y-12158388D02*
X6119920Y-12120293D01*
X6119920Y-12120293D02*
X6119920Y-12072674D01*
X6119920Y-12072674D02*
X6129443Y-12034579D01*
X6129443Y-12034579D02*
X6138967Y-12015531D01*
X6138967Y-12015531D02*
X6148491Y-12006008D01*
X6148491Y-12006008D02*
X6167539Y-11996484D01*
X6319920Y-12196484D02*
X6319920Y-12063150D01*
X6319920Y-12082198D02*
X6329443Y-12072674D01*
X6329443Y-12072674D02*
X6348491Y-12063150D01*
X6348491Y-12063150D02*
X6377063Y-12063150D01*
X6377063Y-12063150D02*
X6396110Y-12072674D01*
X6396110Y-12072674D02*
X6405634Y-12091722D01*
X6405634Y-12091722D02*
X6405634Y-12196484D01*
X6405634Y-12091722D02*
X6415158Y-12072674D01*
X6415158Y-12072674D02*
X6434205Y-12063150D01*
X6434205Y-12063150D02*
X6462777Y-12063150D01*
X6462777Y-12063150D02*
X6481824Y-12072674D01*
X6481824Y-12072674D02*
X6491348Y-12091722D01*
X6491348Y-12091722D02*
X6491348Y-12196484D01*
X6586586Y-12196484D02*
X6586586Y-12063150D01*
X6586586Y-12082198D02*
X6596110Y-12072674D01*
X6596110Y-12072674D02*
X6615158Y-12063150D01*
X6615158Y-12063150D02*
X6643729Y-12063150D01*
X6643729Y-12063150D02*
X6662777Y-12072674D01*
X6662777Y-12072674D02*
X6672301Y-12091722D01*
X6672301Y-12091722D02*
X6672301Y-12196484D01*
X6672301Y-12091722D02*
X6681824Y-12072674D01*
X6681824Y-12072674D02*
X6700872Y-12063150D01*
X6700872Y-12063150D02*
X6729443Y-12063150D01*
X6729443Y-12063150D02*
X6748491Y-12072674D01*
X6748491Y-12072674D02*
X6758015Y-12091722D01*
X6758015Y-12091722D02*
X6758015Y-12196484D01*
X7148491Y-11986960D02*
X6977063Y-12244103D01*
X7405634Y-11996484D02*
X7424682Y-11996484D01*
X7424682Y-11996484D02*
X7443729Y-12006008D01*
X7443729Y-12006008D02*
X7453253Y-12015531D01*
X7453253Y-12015531D02*
X7462777Y-12034579D01*
X7462777Y-12034579D02*
X7472301Y-12072674D01*
X7472301Y-12072674D02*
X7472301Y-12120293D01*
X7472301Y-12120293D02*
X7462777Y-12158388D01*
X7462777Y-12158388D02*
X7453253Y-12177436D01*
X7453253Y-12177436D02*
X7443729Y-12186960D01*
X7443729Y-12186960D02*
X7424682Y-12196484D01*
X7424682Y-12196484D02*
X7405634Y-12196484D01*
X7405634Y-12196484D02*
X7386586Y-12186960D01*
X7386586Y-12186960D02*
X7377063Y-12177436D01*
X7377063Y-12177436D02*
X7367539Y-12158388D01*
X7367539Y-12158388D02*
X7358015Y-12120293D01*
X7358015Y-12120293D02*
X7358015Y-12072674D01*
X7358015Y-12072674D02*
X7367539Y-12034579D01*
X7367539Y-12034579D02*
X7377063Y-12015531D01*
X7377063Y-12015531D02*
X7386586Y-12006008D01*
X7386586Y-12006008D02*
X7405634Y-11996484D01*
X7558015Y-12177436D02*
X7567539Y-12186960D01*
X7567539Y-12186960D02*
X7558015Y-12196484D01*
X7558015Y-12196484D02*
X7548491Y-12186960D01*
X7548491Y-12186960D02*
X7558015Y-12177436D01*
X7558015Y-12177436D02*
X7558015Y-12196484D01*
X7691348Y-11996484D02*
X7710396Y-11996484D01*
X7710396Y-11996484D02*
X7729444Y-12006008D01*
X7729444Y-12006008D02*
X7738967Y-12015531D01*
X7738967Y-12015531D02*
X7748491Y-12034579D01*
X7748491Y-12034579D02*
X7758015Y-12072674D01*
X7758015Y-12072674D02*
X7758015Y-12120293D01*
X7758015Y-12120293D02*
X7748491Y-12158388D01*
X7748491Y-12158388D02*
X7738967Y-12177436D01*
X7738967Y-12177436D02*
X7729444Y-12186960D01*
X7729444Y-12186960D02*
X7710396Y-12196484D01*
X7710396Y-12196484D02*
X7691348Y-12196484D01*
X7691348Y-12196484D02*
X7672301Y-12186960D01*
X7672301Y-12186960D02*
X7662777Y-12177436D01*
X7662777Y-12177436D02*
X7653253Y-12158388D01*
X7653253Y-12158388D02*
X7643729Y-12120293D01*
X7643729Y-12120293D02*
X7643729Y-12072674D01*
X7643729Y-12072674D02*
X7653253Y-12034579D01*
X7653253Y-12034579D02*
X7662777Y-12015531D01*
X7662777Y-12015531D02*
X7672301Y-12006008D01*
X7672301Y-12006008D02*
X7691348Y-11996484D01*
X7929444Y-12063150D02*
X7929444Y-12196484D01*
X7881825Y-11986960D02*
X7834206Y-12129817D01*
X7834206Y-12129817D02*
X7958015Y-12129817D01*
X8015158Y-11996484D02*
X8138967Y-11996484D01*
X8138967Y-11996484D02*
X8072301Y-12072674D01*
X8072301Y-12072674D02*
X8100872Y-12072674D01*
X8100872Y-12072674D02*
X8119920Y-12082198D01*
X8119920Y-12082198D02*
X8129444Y-12091722D01*
X8129444Y-12091722D02*
X8138967Y-12110769D01*
X8138967Y-12110769D02*
X8138967Y-12158388D01*
X8138967Y-12158388D02*
X8129444Y-12177436D01*
X8129444Y-12177436D02*
X8119920Y-12186960D01*
X8119920Y-12186960D02*
X8100872Y-12196484D01*
X8100872Y-12196484D02*
X8043729Y-12196484D01*
X8043729Y-12196484D02*
X8024682Y-12186960D01*
X8024682Y-12186960D02*
X8015158Y-12177436D01*
X8205634Y-11996484D02*
X8329444Y-11996484D01*
X8329444Y-11996484D02*
X8262777Y-12072674D01*
X8262777Y-12072674D02*
X8291348Y-12072674D01*
X8291348Y-12072674D02*
X8310396Y-12082198D01*
X8310396Y-12082198D02*
X8319920Y-12091722D01*
X8319920Y-12091722D02*
X8329444Y-12110769D01*
X8329444Y-12110769D02*
X8329444Y-12158388D01*
X8329444Y-12158388D02*
X8319920Y-12177436D01*
X8319920Y-12177436D02*
X8310396Y-12186960D01*
X8310396Y-12186960D02*
X8291348Y-12196484D01*
X8291348Y-12196484D02*
X8234206Y-12196484D01*
X8234206Y-12196484D02*
X8215158Y-12186960D01*
X8215158Y-12186960D02*
X8205634Y-12177436D01*
X8405634Y-11996484D02*
X8405634Y-12034579D01*
X8481825Y-11996484D02*
X8481825Y-12034579D01*
X8777063Y-12272674D02*
X8767539Y-12263150D01*
X8767539Y-12263150D02*
X8748491Y-12234579D01*
X8748491Y-12234579D02*
X8738968Y-12215531D01*
X8738968Y-12215531D02*
X8729444Y-12186960D01*
X8729444Y-12186960D02*
X8719920Y-12139341D01*
X8719920Y-12139341D02*
X8719920Y-12101246D01*
X8719920Y-12101246D02*
X8729444Y-12053627D01*
X8729444Y-12053627D02*
X8738968Y-12025055D01*
X8738968Y-12025055D02*
X8748491Y-12006008D01*
X8748491Y-12006008D02*
X8767539Y-11977436D01*
X8767539Y-11977436D02*
X8777063Y-11967912D01*
X8881825Y-12082198D02*
X8862777Y-12072674D01*
X8862777Y-12072674D02*
X8853253Y-12063150D01*
X8853253Y-12063150D02*
X8843730Y-12044103D01*
X8843730Y-12044103D02*
X8843730Y-12034579D01*
X8843730Y-12034579D02*
X8853253Y-12015531D01*
X8853253Y-12015531D02*
X8862777Y-12006008D01*
X8862777Y-12006008D02*
X8881825Y-11996484D01*
X8881825Y-11996484D02*
X8919920Y-11996484D01*
X8919920Y-11996484D02*
X8938968Y-12006008D01*
X8938968Y-12006008D02*
X8948491Y-12015531D01*
X8948491Y-12015531D02*
X8958015Y-12034579D01*
X8958015Y-12034579D02*
X8958015Y-12044103D01*
X8958015Y-12044103D02*
X8948491Y-12063150D01*
X8948491Y-12063150D02*
X8938968Y-12072674D01*
X8938968Y-12072674D02*
X8919920Y-12082198D01*
X8919920Y-12082198D02*
X8881825Y-12082198D01*
X8881825Y-12082198D02*
X8862777Y-12091722D01*
X8862777Y-12091722D02*
X8853253Y-12101246D01*
X8853253Y-12101246D02*
X8843730Y-12120293D01*
X8843730Y-12120293D02*
X8843730Y-12158388D01*
X8843730Y-12158388D02*
X8853253Y-12177436D01*
X8853253Y-12177436D02*
X8862777Y-12186960D01*
X8862777Y-12186960D02*
X8881825Y-12196484D01*
X8881825Y-12196484D02*
X8919920Y-12196484D01*
X8919920Y-12196484D02*
X8938968Y-12186960D01*
X8938968Y-12186960D02*
X8948491Y-12177436D01*
X8948491Y-12177436D02*
X8958015Y-12158388D01*
X8958015Y-12158388D02*
X8958015Y-12120293D01*
X8958015Y-12120293D02*
X8948491Y-12101246D01*
X8948491Y-12101246D02*
X8938968Y-12091722D01*
X8938968Y-12091722D02*
X8919920Y-12082198D01*
X9196111Y-12196484D02*
X9196111Y-11996484D01*
X9281825Y-12196484D02*
X9281825Y-12091722D01*
X9281825Y-12091722D02*
X9272301Y-12072674D01*
X9272301Y-12072674D02*
X9253253Y-12063150D01*
X9253253Y-12063150D02*
X9224682Y-12063150D01*
X9224682Y-12063150D02*
X9205634Y-12072674D01*
X9205634Y-12072674D02*
X9196111Y-12082198D01*
X9405634Y-12196484D02*
X9386587Y-12186960D01*
X9386587Y-12186960D02*
X9377063Y-12177436D01*
X9377063Y-12177436D02*
X9367539Y-12158388D01*
X9367539Y-12158388D02*
X9367539Y-12101246D01*
X9367539Y-12101246D02*
X9377063Y-12082198D01*
X9377063Y-12082198D02*
X9386587Y-12072674D01*
X9386587Y-12072674D02*
X9405634Y-12063150D01*
X9405634Y-12063150D02*
X9434206Y-12063150D01*
X9434206Y-12063150D02*
X9453253Y-12072674D01*
X9453253Y-12072674D02*
X9462777Y-12082198D01*
X9462777Y-12082198D02*
X9472301Y-12101246D01*
X9472301Y-12101246D02*
X9472301Y-12158388D01*
X9472301Y-12158388D02*
X9462777Y-12177436D01*
X9462777Y-12177436D02*
X9453253Y-12186960D01*
X9453253Y-12186960D02*
X9434206Y-12196484D01*
X9434206Y-12196484D02*
X9405634Y-12196484D01*
X9586587Y-12196484D02*
X9567539Y-12186960D01*
X9567539Y-12186960D02*
X9558015Y-12167912D01*
X9558015Y-12167912D02*
X9558015Y-11996484D01*
X9738968Y-12186960D02*
X9719920Y-12196484D01*
X9719920Y-12196484D02*
X9681825Y-12196484D01*
X9681825Y-12196484D02*
X9662777Y-12186960D01*
X9662777Y-12186960D02*
X9653253Y-12167912D01*
X9653253Y-12167912D02*
X9653253Y-12091722D01*
X9653253Y-12091722D02*
X9662777Y-12072674D01*
X9662777Y-12072674D02*
X9681825Y-12063150D01*
X9681825Y-12063150D02*
X9719920Y-12063150D01*
X9719920Y-12063150D02*
X9738968Y-12072674D01*
X9738968Y-12072674D02*
X9748492Y-12091722D01*
X9748492Y-12091722D02*
X9748492Y-12110769D01*
X9748492Y-12110769D02*
X9653253Y-12129817D01*
X9824682Y-12186960D02*
X9843730Y-12196484D01*
X9843730Y-12196484D02*
X9881825Y-12196484D01*
X9881825Y-12196484D02*
X9900873Y-12186960D01*
X9900873Y-12186960D02*
X9910396Y-12167912D01*
X9910396Y-12167912D02*
X9910396Y-12158388D01*
X9910396Y-12158388D02*
X9900873Y-12139341D01*
X9900873Y-12139341D02*
X9881825Y-12129817D01*
X9881825Y-12129817D02*
X9853253Y-12129817D01*
X9853253Y-12129817D02*
X9834206Y-12120293D01*
X9834206Y-12120293D02*
X9824682Y-12101246D01*
X9824682Y-12101246D02*
X9824682Y-12091722D01*
X9824682Y-12091722D02*
X9834206Y-12072674D01*
X9834206Y-12072674D02*
X9853253Y-12063150D01*
X9853253Y-12063150D02*
X9881825Y-12063150D01*
X9881825Y-12063150D02*
X9900873Y-12072674D01*
X9977063Y-12272674D02*
X9986587Y-12263150D01*
X9986587Y-12263150D02*
X10005634Y-12234579D01*
X10005634Y-12234579D02*
X10015158Y-12215531D01*
X10015158Y-12215531D02*
X10024682Y-12186960D01*
X10024682Y-12186960D02*
X10034206Y-12139341D01*
X10034206Y-12139341D02*
X10034206Y-12101246D01*
X10034206Y-12101246D02*
X10024682Y-12053627D01*
X10024682Y-12053627D02*
X10015158Y-12025055D01*
X10015158Y-12025055D02*
X10005634Y-12006008D01*
X10005634Y-12006008D02*
X9986587Y-11977436D01*
X9986587Y-11977436D02*
X9977063Y-11967912D01*
D13*
X5137000Y-12434000D02*
X5202000Y-12369000D01*
X5137000Y-12304000D01*
X5072000Y-12369000D01*
X5137000Y-12434000D01*
D11*
X5567539Y-12460484D02*
X5453253Y-12460484D01*
X5510396Y-12460484D02*
X5510396Y-12260484D01*
X5510396Y-12260484D02*
X5491348Y-12289055D01*
X5491348Y-12289055D02*
X5472301Y-12308103D01*
X5472301Y-12308103D02*
X5453253Y-12317627D01*
X5653253Y-12441436D02*
X5662777Y-12450960D01*
X5662777Y-12450960D02*
X5653253Y-12460484D01*
X5653253Y-12460484D02*
X5643729Y-12450960D01*
X5643729Y-12450960D02*
X5653253Y-12441436D01*
X5653253Y-12441436D02*
X5653253Y-12460484D01*
X5729443Y-12260484D02*
X5853253Y-12260484D01*
X5853253Y-12260484D02*
X5786586Y-12336674D01*
X5786586Y-12336674D02*
X5815158Y-12336674D01*
X5815158Y-12336674D02*
X5834205Y-12346198D01*
X5834205Y-12346198D02*
X5843729Y-12355722D01*
X5843729Y-12355722D02*
X5853253Y-12374769D01*
X5853253Y-12374769D02*
X5853253Y-12422388D01*
X5853253Y-12422388D02*
X5843729Y-12441436D01*
X5843729Y-12441436D02*
X5834205Y-12450960D01*
X5834205Y-12450960D02*
X5815158Y-12460484D01*
X5815158Y-12460484D02*
X5758015Y-12460484D01*
X5758015Y-12460484D02*
X5738967Y-12450960D01*
X5738967Y-12450960D02*
X5729443Y-12441436D01*
X5977062Y-12260484D02*
X5996110Y-12260484D01*
X5996110Y-12260484D02*
X6015158Y-12270008D01*
X6015158Y-12270008D02*
X6024682Y-12279531D01*
X6024682Y-12279531D02*
X6034205Y-12298579D01*
X6034205Y-12298579D02*
X6043729Y-12336674D01*
X6043729Y-12336674D02*
X6043729Y-12384293D01*
X6043729Y-12384293D02*
X6034205Y-12422388D01*
X6034205Y-12422388D02*
X6024682Y-12441436D01*
X6024682Y-12441436D02*
X6015158Y-12450960D01*
X6015158Y-12450960D02*
X5996110Y-12460484D01*
X5996110Y-12460484D02*
X5977062Y-12460484D01*
X5977062Y-12460484D02*
X5958015Y-12450960D01*
X5958015Y-12450960D02*
X5948491Y-12441436D01*
X5948491Y-12441436D02*
X5938967Y-12422388D01*
X5938967Y-12422388D02*
X5929443Y-12384293D01*
X5929443Y-12384293D02*
X5929443Y-12336674D01*
X5929443Y-12336674D02*
X5938967Y-12298579D01*
X5938967Y-12298579D02*
X5948491Y-12279531D01*
X5948491Y-12279531D02*
X5958015Y-12270008D01*
X5958015Y-12270008D02*
X5977062Y-12260484D01*
X6167539Y-12260484D02*
X6186586Y-12260484D01*
X6186586Y-12260484D02*
X6205634Y-12270008D01*
X6205634Y-12270008D02*
X6215158Y-12279531D01*
X6215158Y-12279531D02*
X6224682Y-12298579D01*
X6224682Y-12298579D02*
X6234205Y-12336674D01*
X6234205Y-12336674D02*
X6234205Y-12384293D01*
X6234205Y-12384293D02*
X6224682Y-12422388D01*
X6224682Y-12422388D02*
X6215158Y-12441436D01*
X6215158Y-12441436D02*
X6205634Y-12450960D01*
X6205634Y-12450960D02*
X6186586Y-12460484D01*
X6186586Y-12460484D02*
X6167539Y-12460484D01*
X6167539Y-12460484D02*
X6148491Y-12450960D01*
X6148491Y-12450960D02*
X6138967Y-12441436D01*
X6138967Y-12441436D02*
X6129443Y-12422388D01*
X6129443Y-12422388D02*
X6119920Y-12384293D01*
X6119920Y-12384293D02*
X6119920Y-12336674D01*
X6119920Y-12336674D02*
X6129443Y-12298579D01*
X6129443Y-12298579D02*
X6138967Y-12279531D01*
X6138967Y-12279531D02*
X6148491Y-12270008D01*
X6148491Y-12270008D02*
X6167539Y-12260484D01*
X6319920Y-12460484D02*
X6319920Y-12327150D01*
X6319920Y-12346198D02*
X6329443Y-12336674D01*
X6329443Y-12336674D02*
X6348491Y-12327150D01*
X6348491Y-12327150D02*
X6377063Y-12327150D01*
X6377063Y-12327150D02*
X6396110Y-12336674D01*
X6396110Y-12336674D02*
X6405634Y-12355722D01*
X6405634Y-12355722D02*
X6405634Y-12460484D01*
X6405634Y-12355722D02*
X6415158Y-12336674D01*
X6415158Y-12336674D02*
X6434205Y-12327150D01*
X6434205Y-12327150D02*
X6462777Y-12327150D01*
X6462777Y-12327150D02*
X6481824Y-12336674D01*
X6481824Y-12336674D02*
X6491348Y-12355722D01*
X6491348Y-12355722D02*
X6491348Y-12460484D01*
X6586586Y-12460484D02*
X6586586Y-12327150D01*
X6586586Y-12346198D02*
X6596110Y-12336674D01*
X6596110Y-12336674D02*
X6615158Y-12327150D01*
X6615158Y-12327150D02*
X6643729Y-12327150D01*
X6643729Y-12327150D02*
X6662777Y-12336674D01*
X6662777Y-12336674D02*
X6672301Y-12355722D01*
X6672301Y-12355722D02*
X6672301Y-12460484D01*
X6672301Y-12355722D02*
X6681824Y-12336674D01*
X6681824Y-12336674D02*
X6700872Y-12327150D01*
X6700872Y-12327150D02*
X6729443Y-12327150D01*
X6729443Y-12327150D02*
X6748491Y-12336674D01*
X6748491Y-12336674D02*
X6758015Y-12355722D01*
X6758015Y-12355722D02*
X6758015Y-12460484D01*
X7148491Y-12250960D02*
X6977063Y-12508103D01*
X7405634Y-12260484D02*
X7424682Y-12260484D01*
X7424682Y-12260484D02*
X7443729Y-12270008D01*
X7443729Y-12270008D02*
X7453253Y-12279531D01*
X7453253Y-12279531D02*
X7462777Y-12298579D01*
X7462777Y-12298579D02*
X7472301Y-12336674D01*
X7472301Y-12336674D02*
X7472301Y-12384293D01*
X7472301Y-12384293D02*
X7462777Y-12422388D01*
X7462777Y-12422388D02*
X7453253Y-12441436D01*
X7453253Y-12441436D02*
X7443729Y-12450960D01*
X7443729Y-12450960D02*
X7424682Y-12460484D01*
X7424682Y-12460484D02*
X7405634Y-12460484D01*
X7405634Y-12460484D02*
X7386586Y-12450960D01*
X7386586Y-12450960D02*
X7377063Y-12441436D01*
X7377063Y-12441436D02*
X7367539Y-12422388D01*
X7367539Y-12422388D02*
X7358015Y-12384293D01*
X7358015Y-12384293D02*
X7358015Y-12336674D01*
X7358015Y-12336674D02*
X7367539Y-12298579D01*
X7367539Y-12298579D02*
X7377063Y-12279531D01*
X7377063Y-12279531D02*
X7386586Y-12270008D01*
X7386586Y-12270008D02*
X7405634Y-12260484D01*
X7558015Y-12441436D02*
X7567539Y-12450960D01*
X7567539Y-12450960D02*
X7558015Y-12460484D01*
X7558015Y-12460484D02*
X7548491Y-12450960D01*
X7548491Y-12450960D02*
X7558015Y-12441436D01*
X7558015Y-12441436D02*
X7558015Y-12460484D01*
X7691348Y-12260484D02*
X7710396Y-12260484D01*
X7710396Y-12260484D02*
X7729444Y-12270008D01*
X7729444Y-12270008D02*
X7738967Y-12279531D01*
X7738967Y-12279531D02*
X7748491Y-12298579D01*
X7748491Y-12298579D02*
X7758015Y-12336674D01*
X7758015Y-12336674D02*
X7758015Y-12384293D01*
X7758015Y-12384293D02*
X7748491Y-12422388D01*
X7748491Y-12422388D02*
X7738967Y-12441436D01*
X7738967Y-12441436D02*
X7729444Y-12450960D01*
X7729444Y-12450960D02*
X7710396Y-12460484D01*
X7710396Y-12460484D02*
X7691348Y-12460484D01*
X7691348Y-12460484D02*
X7672301Y-12450960D01*
X7672301Y-12450960D02*
X7662777Y-12441436D01*
X7662777Y-12441436D02*
X7653253Y-12422388D01*
X7653253Y-12422388D02*
X7643729Y-12384293D01*
X7643729Y-12384293D02*
X7643729Y-12336674D01*
X7643729Y-12336674D02*
X7653253Y-12298579D01*
X7653253Y-12298579D02*
X7662777Y-12279531D01*
X7662777Y-12279531D02*
X7672301Y-12270008D01*
X7672301Y-12270008D02*
X7691348Y-12260484D01*
X7938967Y-12260484D02*
X7843729Y-12260484D01*
X7843729Y-12260484D02*
X7834206Y-12355722D01*
X7834206Y-12355722D02*
X7843729Y-12346198D01*
X7843729Y-12346198D02*
X7862777Y-12336674D01*
X7862777Y-12336674D02*
X7910396Y-12336674D01*
X7910396Y-12336674D02*
X7929444Y-12346198D01*
X7929444Y-12346198D02*
X7938967Y-12355722D01*
X7938967Y-12355722D02*
X7948491Y-12374769D01*
X7948491Y-12374769D02*
X7948491Y-12422388D01*
X7948491Y-12422388D02*
X7938967Y-12441436D01*
X7938967Y-12441436D02*
X7929444Y-12450960D01*
X7929444Y-12450960D02*
X7910396Y-12460484D01*
X7910396Y-12460484D02*
X7862777Y-12460484D01*
X7862777Y-12460484D02*
X7843729Y-12450960D01*
X7843729Y-12450960D02*
X7834206Y-12441436D01*
X8138967Y-12460484D02*
X8024682Y-12460484D01*
X8081825Y-12460484D02*
X8081825Y-12260484D01*
X8081825Y-12260484D02*
X8062777Y-12289055D01*
X8062777Y-12289055D02*
X8043729Y-12308103D01*
X8043729Y-12308103D02*
X8024682Y-12317627D01*
X8215158Y-12279531D02*
X8224682Y-12270008D01*
X8224682Y-12270008D02*
X8243729Y-12260484D01*
X8243729Y-12260484D02*
X8291348Y-12260484D01*
X8291348Y-12260484D02*
X8310396Y-12270008D01*
X8310396Y-12270008D02*
X8319920Y-12279531D01*
X8319920Y-12279531D02*
X8329444Y-12298579D01*
X8329444Y-12298579D02*
X8329444Y-12317627D01*
X8329444Y-12317627D02*
X8319920Y-12346198D01*
X8319920Y-12346198D02*
X8205634Y-12460484D01*
X8205634Y-12460484D02*
X8329444Y-12460484D01*
X8405634Y-12260484D02*
X8405634Y-12298579D01*
X8481825Y-12260484D02*
X8481825Y-12298579D01*
X8777063Y-12536674D02*
X8767539Y-12527150D01*
X8767539Y-12527150D02*
X8748491Y-12498579D01*
X8748491Y-12498579D02*
X8738968Y-12479531D01*
X8738968Y-12479531D02*
X8729444Y-12450960D01*
X8729444Y-12450960D02*
X8719920Y-12403341D01*
X8719920Y-12403341D02*
X8719920Y-12365246D01*
X8719920Y-12365246D02*
X8729444Y-12317627D01*
X8729444Y-12317627D02*
X8738968Y-12289055D01*
X8738968Y-12289055D02*
X8748491Y-12270008D01*
X8748491Y-12270008D02*
X8767539Y-12241436D01*
X8767539Y-12241436D02*
X8777063Y-12231912D01*
X8948491Y-12260484D02*
X8853253Y-12260484D01*
X8853253Y-12260484D02*
X8843730Y-12355722D01*
X8843730Y-12355722D02*
X8853253Y-12346198D01*
X8853253Y-12346198D02*
X8872301Y-12336674D01*
X8872301Y-12336674D02*
X8919920Y-12336674D01*
X8919920Y-12336674D02*
X8938968Y-12346198D01*
X8938968Y-12346198D02*
X8948491Y-12355722D01*
X8948491Y-12355722D02*
X8958015Y-12374769D01*
X8958015Y-12374769D02*
X8958015Y-12422388D01*
X8958015Y-12422388D02*
X8948491Y-12441436D01*
X8948491Y-12441436D02*
X8938968Y-12450960D01*
X8938968Y-12450960D02*
X8919920Y-12460484D01*
X8919920Y-12460484D02*
X8872301Y-12460484D01*
X8872301Y-12460484D02*
X8853253Y-12450960D01*
X8853253Y-12450960D02*
X8843730Y-12441436D01*
X9196111Y-12460484D02*
X9196111Y-12260484D01*
X9281825Y-12460484D02*
X9281825Y-12355722D01*
X9281825Y-12355722D02*
X9272301Y-12336674D01*
X9272301Y-12336674D02*
X9253253Y-12327150D01*
X9253253Y-12327150D02*
X9224682Y-12327150D01*
X9224682Y-12327150D02*
X9205634Y-12336674D01*
X9205634Y-12336674D02*
X9196111Y-12346198D01*
X9405634Y-12460484D02*
X9386587Y-12450960D01*
X9386587Y-12450960D02*
X9377063Y-12441436D01*
X9377063Y-12441436D02*
X9367539Y-12422388D01*
X9367539Y-12422388D02*
X9367539Y-12365246D01*
X9367539Y-12365246D02*
X9377063Y-12346198D01*
X9377063Y-12346198D02*
X9386587Y-12336674D01*
X9386587Y-12336674D02*
X9405634Y-12327150D01*
X9405634Y-12327150D02*
X9434206Y-12327150D01*
X9434206Y-12327150D02*
X9453253Y-12336674D01*
X9453253Y-12336674D02*
X9462777Y-12346198D01*
X9462777Y-12346198D02*
X9472301Y-12365246D01*
X9472301Y-12365246D02*
X9472301Y-12422388D01*
X9472301Y-12422388D02*
X9462777Y-12441436D01*
X9462777Y-12441436D02*
X9453253Y-12450960D01*
X9453253Y-12450960D02*
X9434206Y-12460484D01*
X9434206Y-12460484D02*
X9405634Y-12460484D01*
X9586587Y-12460484D02*
X9567539Y-12450960D01*
X9567539Y-12450960D02*
X9558015Y-12431912D01*
X9558015Y-12431912D02*
X9558015Y-12260484D01*
X9738968Y-12450960D02*
X9719920Y-12460484D01*
X9719920Y-12460484D02*
X9681825Y-12460484D01*
X9681825Y-12460484D02*
X9662777Y-12450960D01*
X9662777Y-12450960D02*
X9653253Y-12431912D01*
X9653253Y-12431912D02*
X9653253Y-12355722D01*
X9653253Y-12355722D02*
X9662777Y-12336674D01*
X9662777Y-12336674D02*
X9681825Y-12327150D01*
X9681825Y-12327150D02*
X9719920Y-12327150D01*
X9719920Y-12327150D02*
X9738968Y-12336674D01*
X9738968Y-12336674D02*
X9748492Y-12355722D01*
X9748492Y-12355722D02*
X9748492Y-12374769D01*
X9748492Y-12374769D02*
X9653253Y-12393817D01*
X9824682Y-12450960D02*
X9843730Y-12460484D01*
X9843730Y-12460484D02*
X9881825Y-12460484D01*
X9881825Y-12460484D02*
X9900873Y-12450960D01*
X9900873Y-12450960D02*
X9910396Y-12431912D01*
X9910396Y-12431912D02*
X9910396Y-12422388D01*
X9910396Y-12422388D02*
X9900873Y-12403341D01*
X9900873Y-12403341D02*
X9881825Y-12393817D01*
X9881825Y-12393817D02*
X9853253Y-12393817D01*
X9853253Y-12393817D02*
X9834206Y-12384293D01*
X9834206Y-12384293D02*
X9824682Y-12365246D01*
X9824682Y-12365246D02*
X9824682Y-12355722D01*
X9824682Y-12355722D02*
X9834206Y-12336674D01*
X9834206Y-12336674D02*
X9853253Y-12327150D01*
X9853253Y-12327150D02*
X9881825Y-12327150D01*
X9881825Y-12327150D02*
X9900873Y-12336674D01*
X9977063Y-12536674D02*
X9986587Y-12527150D01*
X9986587Y-12527150D02*
X10005634Y-12498579D01*
X10005634Y-12498579D02*
X10015158Y-12479531D01*
X10015158Y-12479531D02*
X10024682Y-12450960D01*
X10024682Y-12450960D02*
X10034206Y-12403341D01*
X10034206Y-12403341D02*
X10034206Y-12365246D01*
X10034206Y-12365246D02*
X10024682Y-12317627D01*
X10024682Y-12317627D02*
X10015158Y-12289055D01*
X10015158Y-12289055D02*
X10005634Y-12270008D01*
X10005634Y-12270008D02*
X9986587Y-12241436D01*
X9986587Y-12241436D02*
X9977063Y-12231912D01*
D14*
X5052000Y-12558000D02*
X5202000Y-12708000D01*
X5202000Y-12558000D02*
X5052000Y-12708000D01*
X5202000Y-12633000D02*
G75*
G02*
X5052000Y-12633000I-75000J0D01*
G01*
X5052000Y-12633000D02*
G75*
G02*
X5202000Y-12633000I75000J0D01*
G01*
D11*
X5567539Y-12724484D02*
X5453253Y-12724484D01*
X5510396Y-12724484D02*
X5510396Y-12524484D01*
X5510396Y-12524484D02*
X5491348Y-12553055D01*
X5491348Y-12553055D02*
X5472301Y-12572103D01*
X5472301Y-12572103D02*
X5453253Y-12581627D01*
X5653253Y-12705436D02*
X5662777Y-12714960D01*
X5662777Y-12714960D02*
X5653253Y-12724484D01*
X5653253Y-12724484D02*
X5643729Y-12714960D01*
X5643729Y-12714960D02*
X5653253Y-12705436D01*
X5653253Y-12705436D02*
X5653253Y-12724484D01*
X5843729Y-12524484D02*
X5748491Y-12524484D01*
X5748491Y-12524484D02*
X5738967Y-12619722D01*
X5738967Y-12619722D02*
X5748491Y-12610198D01*
X5748491Y-12610198D02*
X5767539Y-12600674D01*
X5767539Y-12600674D02*
X5815158Y-12600674D01*
X5815158Y-12600674D02*
X5834205Y-12610198D01*
X5834205Y-12610198D02*
X5843729Y-12619722D01*
X5843729Y-12619722D02*
X5853253Y-12638769D01*
X5853253Y-12638769D02*
X5853253Y-12686388D01*
X5853253Y-12686388D02*
X5843729Y-12705436D01*
X5843729Y-12705436D02*
X5834205Y-12714960D01*
X5834205Y-12714960D02*
X5815158Y-12724484D01*
X5815158Y-12724484D02*
X5767539Y-12724484D01*
X5767539Y-12724484D02*
X5748491Y-12714960D01*
X5748491Y-12714960D02*
X5738967Y-12705436D01*
X5977062Y-12524484D02*
X5996110Y-12524484D01*
X5996110Y-12524484D02*
X6015158Y-12534008D01*
X6015158Y-12534008D02*
X6024682Y-12543531D01*
X6024682Y-12543531D02*
X6034205Y-12562579D01*
X6034205Y-12562579D02*
X6043729Y-12600674D01*
X6043729Y-12600674D02*
X6043729Y-12648293D01*
X6043729Y-12648293D02*
X6034205Y-12686388D01*
X6034205Y-12686388D02*
X6024682Y-12705436D01*
X6024682Y-12705436D02*
X6015158Y-12714960D01*
X6015158Y-12714960D02*
X5996110Y-12724484D01*
X5996110Y-12724484D02*
X5977062Y-12724484D01*
X5977062Y-12724484D02*
X5958015Y-12714960D01*
X5958015Y-12714960D02*
X5948491Y-12705436D01*
X5948491Y-12705436D02*
X5938967Y-12686388D01*
X5938967Y-12686388D02*
X5929443Y-12648293D01*
X5929443Y-12648293D02*
X5929443Y-12600674D01*
X5929443Y-12600674D02*
X5938967Y-12562579D01*
X5938967Y-12562579D02*
X5948491Y-12543531D01*
X5948491Y-12543531D02*
X5958015Y-12534008D01*
X5958015Y-12534008D02*
X5977062Y-12524484D01*
X6167539Y-12524484D02*
X6186586Y-12524484D01*
X6186586Y-12524484D02*
X6205634Y-12534008D01*
X6205634Y-12534008D02*
X6215158Y-12543531D01*
X6215158Y-12543531D02*
X6224682Y-12562579D01*
X6224682Y-12562579D02*
X6234205Y-12600674D01*
X6234205Y-12600674D02*
X6234205Y-12648293D01*
X6234205Y-12648293D02*
X6224682Y-12686388D01*
X6224682Y-12686388D02*
X6215158Y-12705436D01*
X6215158Y-12705436D02*
X6205634Y-12714960D01*
X6205634Y-12714960D02*
X6186586Y-12724484D01*
X6186586Y-12724484D02*
X6167539Y-12724484D01*
X6167539Y-12724484D02*
X6148491Y-12714960D01*
X6148491Y-12714960D02*
X6138967Y-12705436D01*
X6138967Y-12705436D02*
X6129443Y-12686388D01*
X6129443Y-12686388D02*
X6119920Y-12648293D01*
X6119920Y-12648293D02*
X6119920Y-12600674D01*
X6119920Y-12600674D02*
X6129443Y-12562579D01*
X6129443Y-12562579D02*
X6138967Y-12543531D01*
X6138967Y-12543531D02*
X6148491Y-12534008D01*
X6148491Y-12534008D02*
X6167539Y-12524484D01*
X6319920Y-12724484D02*
X6319920Y-12591150D01*
X6319920Y-12610198D02*
X6329443Y-12600674D01*
X6329443Y-12600674D02*
X6348491Y-12591150D01*
X6348491Y-12591150D02*
X6377063Y-12591150D01*
X6377063Y-12591150D02*
X6396110Y-12600674D01*
X6396110Y-12600674D02*
X6405634Y-12619722D01*
X6405634Y-12619722D02*
X6405634Y-12724484D01*
X6405634Y-12619722D02*
X6415158Y-12600674D01*
X6415158Y-12600674D02*
X6434205Y-12591150D01*
X6434205Y-12591150D02*
X6462777Y-12591150D01*
X6462777Y-12591150D02*
X6481824Y-12600674D01*
X6481824Y-12600674D02*
X6491348Y-12619722D01*
X6491348Y-12619722D02*
X6491348Y-12724484D01*
X6586586Y-12724484D02*
X6586586Y-12591150D01*
X6586586Y-12610198D02*
X6596110Y-12600674D01*
X6596110Y-12600674D02*
X6615158Y-12591150D01*
X6615158Y-12591150D02*
X6643729Y-12591150D01*
X6643729Y-12591150D02*
X6662777Y-12600674D01*
X6662777Y-12600674D02*
X6672301Y-12619722D01*
X6672301Y-12619722D02*
X6672301Y-12724484D01*
X6672301Y-12619722D02*
X6681824Y-12600674D01*
X6681824Y-12600674D02*
X6700872Y-12591150D01*
X6700872Y-12591150D02*
X6729443Y-12591150D01*
X6729443Y-12591150D02*
X6748491Y-12600674D01*
X6748491Y-12600674D02*
X6758015Y-12619722D01*
X6758015Y-12619722D02*
X6758015Y-12724484D01*
X7148491Y-12514960D02*
X6977063Y-12772103D01*
X7405634Y-12524484D02*
X7424682Y-12524484D01*
X7424682Y-12524484D02*
X7443729Y-12534008D01*
X7443729Y-12534008D02*
X7453253Y-12543531D01*
X7453253Y-12543531D02*
X7462777Y-12562579D01*
X7462777Y-12562579D02*
X7472301Y-12600674D01*
X7472301Y-12600674D02*
X7472301Y-12648293D01*
X7472301Y-12648293D02*
X7462777Y-12686388D01*
X7462777Y-12686388D02*
X7453253Y-12705436D01*
X7453253Y-12705436D02*
X7443729Y-12714960D01*
X7443729Y-12714960D02*
X7424682Y-12724484D01*
X7424682Y-12724484D02*
X7405634Y-12724484D01*
X7405634Y-12724484D02*
X7386586Y-12714960D01*
X7386586Y-12714960D02*
X7377063Y-12705436D01*
X7377063Y-12705436D02*
X7367539Y-12686388D01*
X7367539Y-12686388D02*
X7358015Y-12648293D01*
X7358015Y-12648293D02*
X7358015Y-12600674D01*
X7358015Y-12600674D02*
X7367539Y-12562579D01*
X7367539Y-12562579D02*
X7377063Y-12543531D01*
X7377063Y-12543531D02*
X7386586Y-12534008D01*
X7386586Y-12534008D02*
X7405634Y-12524484D01*
X7558015Y-12705436D02*
X7567539Y-12714960D01*
X7567539Y-12714960D02*
X7558015Y-12724484D01*
X7558015Y-12724484D02*
X7548491Y-12714960D01*
X7548491Y-12714960D02*
X7558015Y-12705436D01*
X7558015Y-12705436D02*
X7558015Y-12724484D01*
X7691348Y-12524484D02*
X7710396Y-12524484D01*
X7710396Y-12524484D02*
X7729444Y-12534008D01*
X7729444Y-12534008D02*
X7738967Y-12543531D01*
X7738967Y-12543531D02*
X7748491Y-12562579D01*
X7748491Y-12562579D02*
X7758015Y-12600674D01*
X7758015Y-12600674D02*
X7758015Y-12648293D01*
X7758015Y-12648293D02*
X7748491Y-12686388D01*
X7748491Y-12686388D02*
X7738967Y-12705436D01*
X7738967Y-12705436D02*
X7729444Y-12714960D01*
X7729444Y-12714960D02*
X7710396Y-12724484D01*
X7710396Y-12724484D02*
X7691348Y-12724484D01*
X7691348Y-12724484D02*
X7672301Y-12714960D01*
X7672301Y-12714960D02*
X7662777Y-12705436D01*
X7662777Y-12705436D02*
X7653253Y-12686388D01*
X7653253Y-12686388D02*
X7643729Y-12648293D01*
X7643729Y-12648293D02*
X7643729Y-12600674D01*
X7643729Y-12600674D02*
X7653253Y-12562579D01*
X7653253Y-12562579D02*
X7662777Y-12543531D01*
X7662777Y-12543531D02*
X7672301Y-12534008D01*
X7672301Y-12534008D02*
X7691348Y-12524484D01*
X7938967Y-12524484D02*
X7843729Y-12524484D01*
X7843729Y-12524484D02*
X7834206Y-12619722D01*
X7834206Y-12619722D02*
X7843729Y-12610198D01*
X7843729Y-12610198D02*
X7862777Y-12600674D01*
X7862777Y-12600674D02*
X7910396Y-12600674D01*
X7910396Y-12600674D02*
X7929444Y-12610198D01*
X7929444Y-12610198D02*
X7938967Y-12619722D01*
X7938967Y-12619722D02*
X7948491Y-12638769D01*
X7948491Y-12638769D02*
X7948491Y-12686388D01*
X7948491Y-12686388D02*
X7938967Y-12705436D01*
X7938967Y-12705436D02*
X7929444Y-12714960D01*
X7929444Y-12714960D02*
X7910396Y-12724484D01*
X7910396Y-12724484D02*
X7862777Y-12724484D01*
X7862777Y-12724484D02*
X7843729Y-12714960D01*
X7843729Y-12714960D02*
X7834206Y-12705436D01*
X8043729Y-12724484D02*
X8081825Y-12724484D01*
X8081825Y-12724484D02*
X8100872Y-12714960D01*
X8100872Y-12714960D02*
X8110396Y-12705436D01*
X8110396Y-12705436D02*
X8129444Y-12676865D01*
X8129444Y-12676865D02*
X8138967Y-12638769D01*
X8138967Y-12638769D02*
X8138967Y-12562579D01*
X8138967Y-12562579D02*
X8129444Y-12543531D01*
X8129444Y-12543531D02*
X8119920Y-12534008D01*
X8119920Y-12534008D02*
X8100872Y-12524484D01*
X8100872Y-12524484D02*
X8062777Y-12524484D01*
X8062777Y-12524484D02*
X8043729Y-12534008D01*
X8043729Y-12534008D02*
X8034206Y-12543531D01*
X8034206Y-12543531D02*
X8024682Y-12562579D01*
X8024682Y-12562579D02*
X8024682Y-12610198D01*
X8024682Y-12610198D02*
X8034206Y-12629246D01*
X8034206Y-12629246D02*
X8043729Y-12638769D01*
X8043729Y-12638769D02*
X8062777Y-12648293D01*
X8062777Y-12648293D02*
X8100872Y-12648293D01*
X8100872Y-12648293D02*
X8119920Y-12638769D01*
X8119920Y-12638769D02*
X8129444Y-12629246D01*
X8129444Y-12629246D02*
X8138967Y-12610198D01*
X8329444Y-12724484D02*
X8215158Y-12724484D01*
X8272301Y-12724484D02*
X8272301Y-12524484D01*
X8272301Y-12524484D02*
X8253253Y-12553055D01*
X8253253Y-12553055D02*
X8234206Y-12572103D01*
X8234206Y-12572103D02*
X8215158Y-12581627D01*
X8405634Y-12524484D02*
X8405634Y-12562579D01*
X8481825Y-12524484D02*
X8481825Y-12562579D01*
X8777063Y-12800674D02*
X8767539Y-12791150D01*
X8767539Y-12791150D02*
X8748491Y-12762579D01*
X8748491Y-12762579D02*
X8738968Y-12743531D01*
X8738968Y-12743531D02*
X8729444Y-12714960D01*
X8729444Y-12714960D02*
X8719920Y-12667341D01*
X8719920Y-12667341D02*
X8719920Y-12629246D01*
X8719920Y-12629246D02*
X8729444Y-12581627D01*
X8729444Y-12581627D02*
X8738968Y-12553055D01*
X8738968Y-12553055D02*
X8748491Y-12534008D01*
X8748491Y-12534008D02*
X8767539Y-12505436D01*
X8767539Y-12505436D02*
X8777063Y-12495912D01*
X8938968Y-12591150D02*
X8938968Y-12724484D01*
X8891349Y-12514960D02*
X8843730Y-12657817D01*
X8843730Y-12657817D02*
X8967539Y-12657817D01*
X9196111Y-12724484D02*
X9196111Y-12524484D01*
X9281825Y-12724484D02*
X9281825Y-12619722D01*
X9281825Y-12619722D02*
X9272301Y-12600674D01*
X9272301Y-12600674D02*
X9253253Y-12591150D01*
X9253253Y-12591150D02*
X9224682Y-12591150D01*
X9224682Y-12591150D02*
X9205634Y-12600674D01*
X9205634Y-12600674D02*
X9196111Y-12610198D01*
X9405634Y-12724484D02*
X9386587Y-12714960D01*
X9386587Y-12714960D02*
X9377063Y-12705436D01*
X9377063Y-12705436D02*
X9367539Y-12686388D01*
X9367539Y-12686388D02*
X9367539Y-12629246D01*
X9367539Y-12629246D02*
X9377063Y-12610198D01*
X9377063Y-12610198D02*
X9386587Y-12600674D01*
X9386587Y-12600674D02*
X9405634Y-12591150D01*
X9405634Y-12591150D02*
X9434206Y-12591150D01*
X9434206Y-12591150D02*
X9453253Y-12600674D01*
X9453253Y-12600674D02*
X9462777Y-12610198D01*
X9462777Y-12610198D02*
X9472301Y-12629246D01*
X9472301Y-12629246D02*
X9472301Y-12686388D01*
X9472301Y-12686388D02*
X9462777Y-12705436D01*
X9462777Y-12705436D02*
X9453253Y-12714960D01*
X9453253Y-12714960D02*
X9434206Y-12724484D01*
X9434206Y-12724484D02*
X9405634Y-12724484D01*
X9586587Y-12724484D02*
X9567539Y-12714960D01*
X9567539Y-12714960D02*
X9558015Y-12695912D01*
X9558015Y-12695912D02*
X9558015Y-12524484D01*
X9738968Y-12714960D02*
X9719920Y-12724484D01*
X9719920Y-12724484D02*
X9681825Y-12724484D01*
X9681825Y-12724484D02*
X9662777Y-12714960D01*
X9662777Y-12714960D02*
X9653253Y-12695912D01*
X9653253Y-12695912D02*
X9653253Y-12619722D01*
X9653253Y-12619722D02*
X9662777Y-12600674D01*
X9662777Y-12600674D02*
X9681825Y-12591150D01*
X9681825Y-12591150D02*
X9719920Y-12591150D01*
X9719920Y-12591150D02*
X9738968Y-12600674D01*
X9738968Y-12600674D02*
X9748492Y-12619722D01*
X9748492Y-12619722D02*
X9748492Y-12638769D01*
X9748492Y-12638769D02*
X9653253Y-12657817D01*
X9824682Y-12714960D02*
X9843730Y-12724484D01*
X9843730Y-12724484D02*
X9881825Y-12724484D01*
X9881825Y-12724484D02*
X9900873Y-12714960D01*
X9900873Y-12714960D02*
X9910396Y-12695912D01*
X9910396Y-12695912D02*
X9910396Y-12686388D01*
X9910396Y-12686388D02*
X9900873Y-12667341D01*
X9900873Y-12667341D02*
X9881825Y-12657817D01*
X9881825Y-12657817D02*
X9853253Y-12657817D01*
X9853253Y-12657817D02*
X9834206Y-12648293D01*
X9834206Y-12648293D02*
X9824682Y-12629246D01*
X9824682Y-12629246D02*
X9824682Y-12619722D01*
X9824682Y-12619722D02*
X9834206Y-12600674D01*
X9834206Y-12600674D02*
X9853253Y-12591150D01*
X9853253Y-12591150D02*
X9881825Y-12591150D01*
X9881825Y-12591150D02*
X9900873Y-12600674D01*
X9977063Y-12800674D02*
X9986587Y-12791150D01*
X9986587Y-12791150D02*
X10005634Y-12762579D01*
X10005634Y-12762579D02*
X10015158Y-12743531D01*
X10015158Y-12743531D02*
X10024682Y-12714960D01*
X10024682Y-12714960D02*
X10034206Y-12667341D01*
X10034206Y-12667341D02*
X10034206Y-12629246D01*
X10034206Y-12629246D02*
X10024682Y-12581627D01*
X10024682Y-12581627D02*
X10015158Y-12553055D01*
X10015158Y-12553055D02*
X10005634Y-12534008D01*
X10005634Y-12534008D02*
X9986587Y-12505436D01*
X9986587Y-12505436D02*
X9977063Y-12495912D01*
D15*
X5032000Y-12818000D02*
X5202000Y-12988000D01*
X5202000Y-12818000D02*
X5032000Y-12988000D01*
X5117000Y-12818000D02*
X5117000Y-12988000D01*
X5032000Y-12903000D02*
X5202000Y-12903000D01*
D11*
X5567539Y-12994484D02*
X5453253Y-12994484D01*
X5510396Y-12994484D02*
X5510396Y-12794484D01*
X5510396Y-12794484D02*
X5491348Y-12823055D01*
X5491348Y-12823055D02*
X5472301Y-12842103D01*
X5472301Y-12842103D02*
X5453253Y-12851627D01*
X5653253Y-12975436D02*
X5662777Y-12984960D01*
X5662777Y-12984960D02*
X5653253Y-12994484D01*
X5653253Y-12994484D02*
X5643729Y-12984960D01*
X5643729Y-12984960D02*
X5653253Y-12975436D01*
X5653253Y-12975436D02*
X5653253Y-12994484D01*
X5729443Y-12794484D02*
X5862777Y-12794484D01*
X5862777Y-12794484D02*
X5777062Y-12994484D01*
X5977062Y-12794484D02*
X5996110Y-12794484D01*
X5996110Y-12794484D02*
X6015158Y-12804008D01*
X6015158Y-12804008D02*
X6024682Y-12813531D01*
X6024682Y-12813531D02*
X6034205Y-12832579D01*
X6034205Y-12832579D02*
X6043729Y-12870674D01*
X6043729Y-12870674D02*
X6043729Y-12918293D01*
X6043729Y-12918293D02*
X6034205Y-12956388D01*
X6034205Y-12956388D02*
X6024682Y-12975436D01*
X6024682Y-12975436D02*
X6015158Y-12984960D01*
X6015158Y-12984960D02*
X5996110Y-12994484D01*
X5996110Y-12994484D02*
X5977062Y-12994484D01*
X5977062Y-12994484D02*
X5958015Y-12984960D01*
X5958015Y-12984960D02*
X5948491Y-12975436D01*
X5948491Y-12975436D02*
X5938967Y-12956388D01*
X5938967Y-12956388D02*
X5929443Y-12918293D01*
X5929443Y-12918293D02*
X5929443Y-12870674D01*
X5929443Y-12870674D02*
X5938967Y-12832579D01*
X5938967Y-12832579D02*
X5948491Y-12813531D01*
X5948491Y-12813531D02*
X5958015Y-12804008D01*
X5958015Y-12804008D02*
X5977062Y-12794484D01*
X6167539Y-12794484D02*
X6186586Y-12794484D01*
X6186586Y-12794484D02*
X6205634Y-12804008D01*
X6205634Y-12804008D02*
X6215158Y-12813531D01*
X6215158Y-12813531D02*
X6224682Y-12832579D01*
X6224682Y-12832579D02*
X6234205Y-12870674D01*
X6234205Y-12870674D02*
X6234205Y-12918293D01*
X6234205Y-12918293D02*
X6224682Y-12956388D01*
X6224682Y-12956388D02*
X6215158Y-12975436D01*
X6215158Y-12975436D02*
X6205634Y-12984960D01*
X6205634Y-12984960D02*
X6186586Y-12994484D01*
X6186586Y-12994484D02*
X6167539Y-12994484D01*
X6167539Y-12994484D02*
X6148491Y-12984960D01*
X6148491Y-12984960D02*
X6138967Y-12975436D01*
X6138967Y-12975436D02*
X6129443Y-12956388D01*
X6129443Y-12956388D02*
X6119920Y-12918293D01*
X6119920Y-12918293D02*
X6119920Y-12870674D01*
X6119920Y-12870674D02*
X6129443Y-12832579D01*
X6129443Y-12832579D02*
X6138967Y-12813531D01*
X6138967Y-12813531D02*
X6148491Y-12804008D01*
X6148491Y-12804008D02*
X6167539Y-12794484D01*
X6319920Y-12994484D02*
X6319920Y-12861150D01*
X6319920Y-12880198D02*
X6329443Y-12870674D01*
X6329443Y-12870674D02*
X6348491Y-12861150D01*
X6348491Y-12861150D02*
X6377063Y-12861150D01*
X6377063Y-12861150D02*
X6396110Y-12870674D01*
X6396110Y-12870674D02*
X6405634Y-12889722D01*
X6405634Y-12889722D02*
X6405634Y-12994484D01*
X6405634Y-12889722D02*
X6415158Y-12870674D01*
X6415158Y-12870674D02*
X6434205Y-12861150D01*
X6434205Y-12861150D02*
X6462777Y-12861150D01*
X6462777Y-12861150D02*
X6481824Y-12870674D01*
X6481824Y-12870674D02*
X6491348Y-12889722D01*
X6491348Y-12889722D02*
X6491348Y-12994484D01*
X6586586Y-12994484D02*
X6586586Y-12861150D01*
X6586586Y-12880198D02*
X6596110Y-12870674D01*
X6596110Y-12870674D02*
X6615158Y-12861150D01*
X6615158Y-12861150D02*
X6643729Y-12861150D01*
X6643729Y-12861150D02*
X6662777Y-12870674D01*
X6662777Y-12870674D02*
X6672301Y-12889722D01*
X6672301Y-12889722D02*
X6672301Y-12994484D01*
X6672301Y-12889722D02*
X6681824Y-12870674D01*
X6681824Y-12870674D02*
X6700872Y-12861150D01*
X6700872Y-12861150D02*
X6729443Y-12861150D01*
X6729443Y-12861150D02*
X6748491Y-12870674D01*
X6748491Y-12870674D02*
X6758015Y-12889722D01*
X6758015Y-12889722D02*
X6758015Y-12994484D01*
X7148491Y-12784960D02*
X6977063Y-13042103D01*
X7405634Y-12794484D02*
X7424682Y-12794484D01*
X7424682Y-12794484D02*
X7443729Y-12804008D01*
X7443729Y-12804008D02*
X7453253Y-12813531D01*
X7453253Y-12813531D02*
X7462777Y-12832579D01*
X7462777Y-12832579D02*
X7472301Y-12870674D01*
X7472301Y-12870674D02*
X7472301Y-12918293D01*
X7472301Y-12918293D02*
X7462777Y-12956388D01*
X7462777Y-12956388D02*
X7453253Y-12975436D01*
X7453253Y-12975436D02*
X7443729Y-12984960D01*
X7443729Y-12984960D02*
X7424682Y-12994484D01*
X7424682Y-12994484D02*
X7405634Y-12994484D01*
X7405634Y-12994484D02*
X7386586Y-12984960D01*
X7386586Y-12984960D02*
X7377063Y-12975436D01*
X7377063Y-12975436D02*
X7367539Y-12956388D01*
X7367539Y-12956388D02*
X7358015Y-12918293D01*
X7358015Y-12918293D02*
X7358015Y-12870674D01*
X7358015Y-12870674D02*
X7367539Y-12832579D01*
X7367539Y-12832579D02*
X7377063Y-12813531D01*
X7377063Y-12813531D02*
X7386586Y-12804008D01*
X7386586Y-12804008D02*
X7405634Y-12794484D01*
X7558015Y-12975436D02*
X7567539Y-12984960D01*
X7567539Y-12984960D02*
X7558015Y-12994484D01*
X7558015Y-12994484D02*
X7548491Y-12984960D01*
X7548491Y-12984960D02*
X7558015Y-12975436D01*
X7558015Y-12975436D02*
X7558015Y-12994484D01*
X7691348Y-12794484D02*
X7710396Y-12794484D01*
X7710396Y-12794484D02*
X7729444Y-12804008D01*
X7729444Y-12804008D02*
X7738967Y-12813531D01*
X7738967Y-12813531D02*
X7748491Y-12832579D01*
X7748491Y-12832579D02*
X7758015Y-12870674D01*
X7758015Y-12870674D02*
X7758015Y-12918293D01*
X7758015Y-12918293D02*
X7748491Y-12956388D01*
X7748491Y-12956388D02*
X7738967Y-12975436D01*
X7738967Y-12975436D02*
X7729444Y-12984960D01*
X7729444Y-12984960D02*
X7710396Y-12994484D01*
X7710396Y-12994484D02*
X7691348Y-12994484D01*
X7691348Y-12994484D02*
X7672301Y-12984960D01*
X7672301Y-12984960D02*
X7662777Y-12975436D01*
X7662777Y-12975436D02*
X7653253Y-12956388D01*
X7653253Y-12956388D02*
X7643729Y-12918293D01*
X7643729Y-12918293D02*
X7643729Y-12870674D01*
X7643729Y-12870674D02*
X7653253Y-12832579D01*
X7653253Y-12832579D02*
X7662777Y-12813531D01*
X7662777Y-12813531D02*
X7672301Y-12804008D01*
X7672301Y-12804008D02*
X7691348Y-12794484D01*
X7929444Y-12794484D02*
X7891348Y-12794484D01*
X7891348Y-12794484D02*
X7872301Y-12804008D01*
X7872301Y-12804008D02*
X7862777Y-12813531D01*
X7862777Y-12813531D02*
X7843729Y-12842103D01*
X7843729Y-12842103D02*
X7834206Y-12880198D01*
X7834206Y-12880198D02*
X7834206Y-12956388D01*
X7834206Y-12956388D02*
X7843729Y-12975436D01*
X7843729Y-12975436D02*
X7853253Y-12984960D01*
X7853253Y-12984960D02*
X7872301Y-12994484D01*
X7872301Y-12994484D02*
X7910396Y-12994484D01*
X7910396Y-12994484D02*
X7929444Y-12984960D01*
X7929444Y-12984960D02*
X7938967Y-12975436D01*
X7938967Y-12975436D02*
X7948491Y-12956388D01*
X7948491Y-12956388D02*
X7948491Y-12908769D01*
X7948491Y-12908769D02*
X7938967Y-12889722D01*
X7938967Y-12889722D02*
X7929444Y-12880198D01*
X7929444Y-12880198D02*
X7910396Y-12870674D01*
X7910396Y-12870674D02*
X7872301Y-12870674D01*
X7872301Y-12870674D02*
X7853253Y-12880198D01*
X7853253Y-12880198D02*
X7843729Y-12889722D01*
X7843729Y-12889722D02*
X7834206Y-12908769D01*
X8119920Y-12794484D02*
X8081825Y-12794484D01*
X8081825Y-12794484D02*
X8062777Y-12804008D01*
X8062777Y-12804008D02*
X8053253Y-12813531D01*
X8053253Y-12813531D02*
X8034206Y-12842103D01*
X8034206Y-12842103D02*
X8024682Y-12880198D01*
X8024682Y-12880198D02*
X8024682Y-12956388D01*
X8024682Y-12956388D02*
X8034206Y-12975436D01*
X8034206Y-12975436D02*
X8043729Y-12984960D01*
X8043729Y-12984960D02*
X8062777Y-12994484D01*
X8062777Y-12994484D02*
X8100872Y-12994484D01*
X8100872Y-12994484D02*
X8119920Y-12984960D01*
X8119920Y-12984960D02*
X8129444Y-12975436D01*
X8129444Y-12975436D02*
X8138967Y-12956388D01*
X8138967Y-12956388D02*
X8138967Y-12908769D01*
X8138967Y-12908769D02*
X8129444Y-12889722D01*
X8129444Y-12889722D02*
X8119920Y-12880198D01*
X8119920Y-12880198D02*
X8100872Y-12870674D01*
X8100872Y-12870674D02*
X8062777Y-12870674D01*
X8062777Y-12870674D02*
X8043729Y-12880198D01*
X8043729Y-12880198D02*
X8034206Y-12889722D01*
X8034206Y-12889722D02*
X8024682Y-12908769D01*
X8234206Y-12994484D02*
X8272301Y-12994484D01*
X8272301Y-12994484D02*
X8291348Y-12984960D01*
X8291348Y-12984960D02*
X8300872Y-12975436D01*
X8300872Y-12975436D02*
X8319920Y-12946865D01*
X8319920Y-12946865D02*
X8329444Y-12908769D01*
X8329444Y-12908769D02*
X8329444Y-12832579D01*
X8329444Y-12832579D02*
X8319920Y-12813531D01*
X8319920Y-12813531D02*
X8310396Y-12804008D01*
X8310396Y-12804008D02*
X8291348Y-12794484D01*
X8291348Y-12794484D02*
X8253253Y-12794484D01*
X8253253Y-12794484D02*
X8234206Y-12804008D01*
X8234206Y-12804008D02*
X8224682Y-12813531D01*
X8224682Y-12813531D02*
X8215158Y-12832579D01*
X8215158Y-12832579D02*
X8215158Y-12880198D01*
X8215158Y-12880198D02*
X8224682Y-12899246D01*
X8224682Y-12899246D02*
X8234206Y-12908769D01*
X8234206Y-12908769D02*
X8253253Y-12918293D01*
X8253253Y-12918293D02*
X8291348Y-12918293D01*
X8291348Y-12918293D02*
X8310396Y-12908769D01*
X8310396Y-12908769D02*
X8319920Y-12899246D01*
X8319920Y-12899246D02*
X8329444Y-12880198D01*
X8405634Y-12794484D02*
X8405634Y-12832579D01*
X8481825Y-12794484D02*
X8481825Y-12832579D01*
X8777063Y-13070674D02*
X8767539Y-13061150D01*
X8767539Y-13061150D02*
X8748491Y-13032579D01*
X8748491Y-13032579D02*
X8738968Y-13013531D01*
X8738968Y-13013531D02*
X8729444Y-12984960D01*
X8729444Y-12984960D02*
X8719920Y-12937341D01*
X8719920Y-12937341D02*
X8719920Y-12899246D01*
X8719920Y-12899246D02*
X8729444Y-12851627D01*
X8729444Y-12851627D02*
X8738968Y-12823055D01*
X8738968Y-12823055D02*
X8748491Y-12804008D01*
X8748491Y-12804008D02*
X8767539Y-12775436D01*
X8767539Y-12775436D02*
X8777063Y-12765912D01*
X8843730Y-12813531D02*
X8853253Y-12804008D01*
X8853253Y-12804008D02*
X8872301Y-12794484D01*
X8872301Y-12794484D02*
X8919920Y-12794484D01*
X8919920Y-12794484D02*
X8938968Y-12804008D01*
X8938968Y-12804008D02*
X8948491Y-12813531D01*
X8948491Y-12813531D02*
X8958015Y-12832579D01*
X8958015Y-12832579D02*
X8958015Y-12851627D01*
X8958015Y-12851627D02*
X8948491Y-12880198D01*
X8948491Y-12880198D02*
X8834206Y-12994484D01*
X8834206Y-12994484D02*
X8958015Y-12994484D01*
X9196111Y-12994484D02*
X9196111Y-12794484D01*
X9281825Y-12994484D02*
X9281825Y-12889722D01*
X9281825Y-12889722D02*
X9272301Y-12870674D01*
X9272301Y-12870674D02*
X9253253Y-12861150D01*
X9253253Y-12861150D02*
X9224682Y-12861150D01*
X9224682Y-12861150D02*
X9205634Y-12870674D01*
X9205634Y-12870674D02*
X9196111Y-12880198D01*
X9405634Y-12994484D02*
X9386587Y-12984960D01*
X9386587Y-12984960D02*
X9377063Y-12975436D01*
X9377063Y-12975436D02*
X9367539Y-12956388D01*
X9367539Y-12956388D02*
X9367539Y-12899246D01*
X9367539Y-12899246D02*
X9377063Y-12880198D01*
X9377063Y-12880198D02*
X9386587Y-12870674D01*
X9386587Y-12870674D02*
X9405634Y-12861150D01*
X9405634Y-12861150D02*
X9434206Y-12861150D01*
X9434206Y-12861150D02*
X9453253Y-12870674D01*
X9453253Y-12870674D02*
X9462777Y-12880198D01*
X9462777Y-12880198D02*
X9472301Y-12899246D01*
X9472301Y-12899246D02*
X9472301Y-12956388D01*
X9472301Y-12956388D02*
X9462777Y-12975436D01*
X9462777Y-12975436D02*
X9453253Y-12984960D01*
X9453253Y-12984960D02*
X9434206Y-12994484D01*
X9434206Y-12994484D02*
X9405634Y-12994484D01*
X9586587Y-12994484D02*
X9567539Y-12984960D01*
X9567539Y-12984960D02*
X9558015Y-12965912D01*
X9558015Y-12965912D02*
X9558015Y-12794484D01*
X9738968Y-12984960D02*
X9719920Y-12994484D01*
X9719920Y-12994484D02*
X9681825Y-12994484D01*
X9681825Y-12994484D02*
X9662777Y-12984960D01*
X9662777Y-12984960D02*
X9653253Y-12965912D01*
X9653253Y-12965912D02*
X9653253Y-12889722D01*
X9653253Y-12889722D02*
X9662777Y-12870674D01*
X9662777Y-12870674D02*
X9681825Y-12861150D01*
X9681825Y-12861150D02*
X9719920Y-12861150D01*
X9719920Y-12861150D02*
X9738968Y-12870674D01*
X9738968Y-12870674D02*
X9748492Y-12889722D01*
X9748492Y-12889722D02*
X9748492Y-12908769D01*
X9748492Y-12908769D02*
X9653253Y-12927817D01*
X9824682Y-12984960D02*
X9843730Y-12994484D01*
X9843730Y-12994484D02*
X9881825Y-12994484D01*
X9881825Y-12994484D02*
X9900873Y-12984960D01*
X9900873Y-12984960D02*
X9910396Y-12965912D01*
X9910396Y-12965912D02*
X9910396Y-12956388D01*
X9910396Y-12956388D02*
X9900873Y-12937341D01*
X9900873Y-12937341D02*
X9881825Y-12927817D01*
X9881825Y-12927817D02*
X9853253Y-12927817D01*
X9853253Y-12927817D02*
X9834206Y-12918293D01*
X9834206Y-12918293D02*
X9824682Y-12899246D01*
X9824682Y-12899246D02*
X9824682Y-12889722D01*
X9824682Y-12889722D02*
X9834206Y-12870674D01*
X9834206Y-12870674D02*
X9853253Y-12861150D01*
X9853253Y-12861150D02*
X9881825Y-12861150D01*
X9881825Y-12861150D02*
X9900873Y-12870674D01*
X9977063Y-13070674D02*
X9986587Y-13061150D01*
X9986587Y-13061150D02*
X10005634Y-13032579D01*
X10005634Y-13032579D02*
X10015158Y-13013531D01*
X10015158Y-13013531D02*
X10024682Y-12984960D01*
X10024682Y-12984960D02*
X10034206Y-12937341D01*
X10034206Y-12937341D02*
X10034206Y-12899246D01*
X10034206Y-12899246D02*
X10024682Y-12851627D01*
X10024682Y-12851627D02*
X10015158Y-12823055D01*
X10015158Y-12823055D02*
X10005634Y-12804008D01*
X10005634Y-12804008D02*
X9986587Y-12775436D01*
X9986587Y-12775436D02*
X9977063Y-12765912D01*
D16*
X5022000Y-13103000D02*
X5202000Y-13283000D01*
X5202000Y-13103000D02*
X5022000Y-13283000D01*
X5175640Y-13256640D02*
X5175640Y-13129360D01*
X5048360Y-13129360D01*
X5048360Y-13256640D01*
X5175640Y-13256640D01*
D11*
X5567539Y-13284484D02*
X5453253Y-13284484D01*
X5510396Y-13284484D02*
X5510396Y-13084484D01*
X5510396Y-13084484D02*
X5491348Y-13113055D01*
X5491348Y-13113055D02*
X5472301Y-13132103D01*
X5472301Y-13132103D02*
X5453253Y-13141627D01*
X5653253Y-13265436D02*
X5662777Y-13274960D01*
X5662777Y-13274960D02*
X5653253Y-13284484D01*
X5653253Y-13284484D02*
X5643729Y-13274960D01*
X5643729Y-13274960D02*
X5653253Y-13265436D01*
X5653253Y-13265436D02*
X5653253Y-13284484D01*
X5777062Y-13170198D02*
X5758015Y-13160674D01*
X5758015Y-13160674D02*
X5748491Y-13151150D01*
X5748491Y-13151150D02*
X5738967Y-13132103D01*
X5738967Y-13132103D02*
X5738967Y-13122579D01*
X5738967Y-13122579D02*
X5748491Y-13103531D01*
X5748491Y-13103531D02*
X5758015Y-13094008D01*
X5758015Y-13094008D02*
X5777062Y-13084484D01*
X5777062Y-13084484D02*
X5815158Y-13084484D01*
X5815158Y-13084484D02*
X5834205Y-13094008D01*
X5834205Y-13094008D02*
X5843729Y-13103531D01*
X5843729Y-13103531D02*
X5853253Y-13122579D01*
X5853253Y-13122579D02*
X5853253Y-13132103D01*
X5853253Y-13132103D02*
X5843729Y-13151150D01*
X5843729Y-13151150D02*
X5834205Y-13160674D01*
X5834205Y-13160674D02*
X5815158Y-13170198D01*
X5815158Y-13170198D02*
X5777062Y-13170198D01*
X5777062Y-13170198D02*
X5758015Y-13179722D01*
X5758015Y-13179722D02*
X5748491Y-13189246D01*
X5748491Y-13189246D02*
X5738967Y-13208293D01*
X5738967Y-13208293D02*
X5738967Y-13246388D01*
X5738967Y-13246388D02*
X5748491Y-13265436D01*
X5748491Y-13265436D02*
X5758015Y-13274960D01*
X5758015Y-13274960D02*
X5777062Y-13284484D01*
X5777062Y-13284484D02*
X5815158Y-13284484D01*
X5815158Y-13284484D02*
X5834205Y-13274960D01*
X5834205Y-13274960D02*
X5843729Y-13265436D01*
X5843729Y-13265436D02*
X5853253Y-13246388D01*
X5853253Y-13246388D02*
X5853253Y-13208293D01*
X5853253Y-13208293D02*
X5843729Y-13189246D01*
X5843729Y-13189246D02*
X5834205Y-13179722D01*
X5834205Y-13179722D02*
X5815158Y-13170198D01*
X5977062Y-13084484D02*
X5996110Y-13084484D01*
X5996110Y-13084484D02*
X6015158Y-13094008D01*
X6015158Y-13094008D02*
X6024682Y-13103531D01*
X6024682Y-13103531D02*
X6034205Y-13122579D01*
X6034205Y-13122579D02*
X6043729Y-13160674D01*
X6043729Y-13160674D02*
X6043729Y-13208293D01*
X6043729Y-13208293D02*
X6034205Y-13246388D01*
X6034205Y-13246388D02*
X6024682Y-13265436D01*
X6024682Y-13265436D02*
X6015158Y-13274960D01*
X6015158Y-13274960D02*
X5996110Y-13284484D01*
X5996110Y-13284484D02*
X5977062Y-13284484D01*
X5977062Y-13284484D02*
X5958015Y-13274960D01*
X5958015Y-13274960D02*
X5948491Y-13265436D01*
X5948491Y-13265436D02*
X5938967Y-13246388D01*
X5938967Y-13246388D02*
X5929443Y-13208293D01*
X5929443Y-13208293D02*
X5929443Y-13160674D01*
X5929443Y-13160674D02*
X5938967Y-13122579D01*
X5938967Y-13122579D02*
X5948491Y-13103531D01*
X5948491Y-13103531D02*
X5958015Y-13094008D01*
X5958015Y-13094008D02*
X5977062Y-13084484D01*
X6167539Y-13084484D02*
X6186586Y-13084484D01*
X6186586Y-13084484D02*
X6205634Y-13094008D01*
X6205634Y-13094008D02*
X6215158Y-13103531D01*
X6215158Y-13103531D02*
X6224682Y-13122579D01*
X6224682Y-13122579D02*
X6234205Y-13160674D01*
X6234205Y-13160674D02*
X6234205Y-13208293D01*
X6234205Y-13208293D02*
X6224682Y-13246388D01*
X6224682Y-13246388D02*
X6215158Y-13265436D01*
X6215158Y-13265436D02*
X6205634Y-13274960D01*
X6205634Y-13274960D02*
X6186586Y-13284484D01*
X6186586Y-13284484D02*
X6167539Y-13284484D01*
X6167539Y-13284484D02*
X6148491Y-13274960D01*
X6148491Y-13274960D02*
X6138967Y-13265436D01*
X6138967Y-13265436D02*
X6129443Y-13246388D01*
X6129443Y-13246388D02*
X6119920Y-13208293D01*
X6119920Y-13208293D02*
X6119920Y-13160674D01*
X6119920Y-13160674D02*
X6129443Y-13122579D01*
X6129443Y-13122579D02*
X6138967Y-13103531D01*
X6138967Y-13103531D02*
X6148491Y-13094008D01*
X6148491Y-13094008D02*
X6167539Y-13084484D01*
X6319920Y-13284484D02*
X6319920Y-13151150D01*
X6319920Y-13170198D02*
X6329443Y-13160674D01*
X6329443Y-13160674D02*
X6348491Y-13151150D01*
X6348491Y-13151150D02*
X6377063Y-13151150D01*
X6377063Y-13151150D02*
X6396110Y-13160674D01*
X6396110Y-13160674D02*
X6405634Y-13179722D01*
X6405634Y-13179722D02*
X6405634Y-13284484D01*
X6405634Y-13179722D02*
X6415158Y-13160674D01*
X6415158Y-13160674D02*
X6434205Y-13151150D01*
X6434205Y-13151150D02*
X6462777Y-13151150D01*
X6462777Y-13151150D02*
X6481824Y-13160674D01*
X6481824Y-13160674D02*
X6491348Y-13179722D01*
X6491348Y-13179722D02*
X6491348Y-13284484D01*
X6586586Y-13284484D02*
X6586586Y-13151150D01*
X6586586Y-13170198D02*
X6596110Y-13160674D01*
X6596110Y-13160674D02*
X6615158Y-13151150D01*
X6615158Y-13151150D02*
X6643729Y-13151150D01*
X6643729Y-13151150D02*
X6662777Y-13160674D01*
X6662777Y-13160674D02*
X6672301Y-13179722D01*
X6672301Y-13179722D02*
X6672301Y-13284484D01*
X6672301Y-13179722D02*
X6681824Y-13160674D01*
X6681824Y-13160674D02*
X6700872Y-13151150D01*
X6700872Y-13151150D02*
X6729443Y-13151150D01*
X6729443Y-13151150D02*
X6748491Y-13160674D01*
X6748491Y-13160674D02*
X6758015Y-13179722D01*
X6758015Y-13179722D02*
X6758015Y-13284484D01*
X7148491Y-13074960D02*
X6977063Y-13332103D01*
X7405634Y-13084484D02*
X7424682Y-13084484D01*
X7424682Y-13084484D02*
X7443729Y-13094008D01*
X7443729Y-13094008D02*
X7453253Y-13103531D01*
X7453253Y-13103531D02*
X7462777Y-13122579D01*
X7462777Y-13122579D02*
X7472301Y-13160674D01*
X7472301Y-13160674D02*
X7472301Y-13208293D01*
X7472301Y-13208293D02*
X7462777Y-13246388D01*
X7462777Y-13246388D02*
X7453253Y-13265436D01*
X7453253Y-13265436D02*
X7443729Y-13274960D01*
X7443729Y-13274960D02*
X7424682Y-13284484D01*
X7424682Y-13284484D02*
X7405634Y-13284484D01*
X7405634Y-13284484D02*
X7386586Y-13274960D01*
X7386586Y-13274960D02*
X7377063Y-13265436D01*
X7377063Y-13265436D02*
X7367539Y-13246388D01*
X7367539Y-13246388D02*
X7358015Y-13208293D01*
X7358015Y-13208293D02*
X7358015Y-13160674D01*
X7358015Y-13160674D02*
X7367539Y-13122579D01*
X7367539Y-13122579D02*
X7377063Y-13103531D01*
X7377063Y-13103531D02*
X7386586Y-13094008D01*
X7386586Y-13094008D02*
X7405634Y-13084484D01*
X7558015Y-13265436D02*
X7567539Y-13274960D01*
X7567539Y-13274960D02*
X7558015Y-13284484D01*
X7558015Y-13284484D02*
X7548491Y-13274960D01*
X7548491Y-13274960D02*
X7558015Y-13265436D01*
X7558015Y-13265436D02*
X7558015Y-13284484D01*
X7691348Y-13084484D02*
X7710396Y-13084484D01*
X7710396Y-13084484D02*
X7729444Y-13094008D01*
X7729444Y-13094008D02*
X7738967Y-13103531D01*
X7738967Y-13103531D02*
X7748491Y-13122579D01*
X7748491Y-13122579D02*
X7758015Y-13160674D01*
X7758015Y-13160674D02*
X7758015Y-13208293D01*
X7758015Y-13208293D02*
X7748491Y-13246388D01*
X7748491Y-13246388D02*
X7738967Y-13265436D01*
X7738967Y-13265436D02*
X7729444Y-13274960D01*
X7729444Y-13274960D02*
X7710396Y-13284484D01*
X7710396Y-13284484D02*
X7691348Y-13284484D01*
X7691348Y-13284484D02*
X7672301Y-13274960D01*
X7672301Y-13274960D02*
X7662777Y-13265436D01*
X7662777Y-13265436D02*
X7653253Y-13246388D01*
X7653253Y-13246388D02*
X7643729Y-13208293D01*
X7643729Y-13208293D02*
X7643729Y-13160674D01*
X7643729Y-13160674D02*
X7653253Y-13122579D01*
X7653253Y-13122579D02*
X7662777Y-13103531D01*
X7662777Y-13103531D02*
X7672301Y-13094008D01*
X7672301Y-13094008D02*
X7691348Y-13084484D01*
X7824682Y-13084484D02*
X7958015Y-13084484D01*
X7958015Y-13084484D02*
X7872301Y-13284484D01*
X8072301Y-13084484D02*
X8091348Y-13084484D01*
X8091348Y-13084484D02*
X8110396Y-13094008D01*
X8110396Y-13094008D02*
X8119920Y-13103531D01*
X8119920Y-13103531D02*
X8129444Y-13122579D01*
X8129444Y-13122579D02*
X8138967Y-13160674D01*
X8138967Y-13160674D02*
X8138967Y-13208293D01*
X8138967Y-13208293D02*
X8129444Y-13246388D01*
X8129444Y-13246388D02*
X8119920Y-13265436D01*
X8119920Y-13265436D02*
X8110396Y-13274960D01*
X8110396Y-13274960D02*
X8091348Y-13284484D01*
X8091348Y-13284484D02*
X8072301Y-13284484D01*
X8072301Y-13284484D02*
X8053253Y-13274960D01*
X8053253Y-13274960D02*
X8043729Y-13265436D01*
X8043729Y-13265436D02*
X8034206Y-13246388D01*
X8034206Y-13246388D02*
X8024682Y-13208293D01*
X8024682Y-13208293D02*
X8024682Y-13160674D01*
X8024682Y-13160674D02*
X8034206Y-13122579D01*
X8034206Y-13122579D02*
X8043729Y-13103531D01*
X8043729Y-13103531D02*
X8053253Y-13094008D01*
X8053253Y-13094008D02*
X8072301Y-13084484D01*
X8234206Y-13284484D02*
X8272301Y-13284484D01*
X8272301Y-13284484D02*
X8291348Y-13274960D01*
X8291348Y-13274960D02*
X8300872Y-13265436D01*
X8300872Y-13265436D02*
X8319920Y-13236865D01*
X8319920Y-13236865D02*
X8329444Y-13198769D01*
X8329444Y-13198769D02*
X8329444Y-13122579D01*
X8329444Y-13122579D02*
X8319920Y-13103531D01*
X8319920Y-13103531D02*
X8310396Y-13094008D01*
X8310396Y-13094008D02*
X8291348Y-13084484D01*
X8291348Y-13084484D02*
X8253253Y-13084484D01*
X8253253Y-13084484D02*
X8234206Y-13094008D01*
X8234206Y-13094008D02*
X8224682Y-13103531D01*
X8224682Y-13103531D02*
X8215158Y-13122579D01*
X8215158Y-13122579D02*
X8215158Y-13170198D01*
X8215158Y-13170198D02*
X8224682Y-13189246D01*
X8224682Y-13189246D02*
X8234206Y-13198769D01*
X8234206Y-13198769D02*
X8253253Y-13208293D01*
X8253253Y-13208293D02*
X8291348Y-13208293D01*
X8291348Y-13208293D02*
X8310396Y-13198769D01*
X8310396Y-13198769D02*
X8319920Y-13189246D01*
X8319920Y-13189246D02*
X8329444Y-13170198D01*
X8405634Y-13084484D02*
X8405634Y-13122579D01*
X8481825Y-13084484D02*
X8481825Y-13122579D01*
X8777063Y-13360674D02*
X8767539Y-13351150D01*
X8767539Y-13351150D02*
X8748491Y-13322579D01*
X8748491Y-13322579D02*
X8738968Y-13303531D01*
X8738968Y-13303531D02*
X8729444Y-13274960D01*
X8729444Y-13274960D02*
X8719920Y-13227341D01*
X8719920Y-13227341D02*
X8719920Y-13189246D01*
X8719920Y-13189246D02*
X8729444Y-13141627D01*
X8729444Y-13141627D02*
X8738968Y-13113055D01*
X8738968Y-13113055D02*
X8748491Y-13094008D01*
X8748491Y-13094008D02*
X8767539Y-13065436D01*
X8767539Y-13065436D02*
X8777063Y-13055912D01*
X8862777Y-13284484D02*
X8900872Y-13284484D01*
X8900872Y-13284484D02*
X8919920Y-13274960D01*
X8919920Y-13274960D02*
X8929444Y-13265436D01*
X8929444Y-13265436D02*
X8948491Y-13236865D01*
X8948491Y-13236865D02*
X8958015Y-13198769D01*
X8958015Y-13198769D02*
X8958015Y-13122579D01*
X8958015Y-13122579D02*
X8948491Y-13103531D01*
X8948491Y-13103531D02*
X8938968Y-13094008D01*
X8938968Y-13094008D02*
X8919920Y-13084484D01*
X8919920Y-13084484D02*
X8881825Y-13084484D01*
X8881825Y-13084484D02*
X8862777Y-13094008D01*
X8862777Y-13094008D02*
X8853253Y-13103531D01*
X8853253Y-13103531D02*
X8843730Y-13122579D01*
X8843730Y-13122579D02*
X8843730Y-13170198D01*
X8843730Y-13170198D02*
X8853253Y-13189246D01*
X8853253Y-13189246D02*
X8862777Y-13198769D01*
X8862777Y-13198769D02*
X8881825Y-13208293D01*
X8881825Y-13208293D02*
X8919920Y-13208293D01*
X8919920Y-13208293D02*
X8938968Y-13198769D01*
X8938968Y-13198769D02*
X8948491Y-13189246D01*
X8948491Y-13189246D02*
X8958015Y-13170198D01*
X9196111Y-13284484D02*
X9196111Y-13084484D01*
X9281825Y-13284484D02*
X9281825Y-13179722D01*
X9281825Y-13179722D02*
X9272301Y-13160674D01*
X9272301Y-13160674D02*
X9253253Y-13151150D01*
X9253253Y-13151150D02*
X9224682Y-13151150D01*
X9224682Y-13151150D02*
X9205634Y-13160674D01*
X9205634Y-13160674D02*
X9196111Y-13170198D01*
X9405634Y-13284484D02*
X9386587Y-13274960D01*
X9386587Y-13274960D02*
X9377063Y-13265436D01*
X9377063Y-13265436D02*
X9367539Y-13246388D01*
X9367539Y-13246388D02*
X9367539Y-13189246D01*
X9367539Y-13189246D02*
X9377063Y-13170198D01*
X9377063Y-13170198D02*
X9386587Y-13160674D01*
X9386587Y-13160674D02*
X9405634Y-13151150D01*
X9405634Y-13151150D02*
X9434206Y-13151150D01*
X9434206Y-13151150D02*
X9453253Y-13160674D01*
X9453253Y-13160674D02*
X9462777Y-13170198D01*
X9462777Y-13170198D02*
X9472301Y-13189246D01*
X9472301Y-13189246D02*
X9472301Y-13246388D01*
X9472301Y-13246388D02*
X9462777Y-13265436D01*
X9462777Y-13265436D02*
X9453253Y-13274960D01*
X9453253Y-13274960D02*
X9434206Y-13284484D01*
X9434206Y-13284484D02*
X9405634Y-13284484D01*
X9586587Y-13284484D02*
X9567539Y-13274960D01*
X9567539Y-13274960D02*
X9558015Y-13255912D01*
X9558015Y-13255912D02*
X9558015Y-13084484D01*
X9738968Y-13274960D02*
X9719920Y-13284484D01*
X9719920Y-13284484D02*
X9681825Y-13284484D01*
X9681825Y-13284484D02*
X9662777Y-13274960D01*
X9662777Y-13274960D02*
X9653253Y-13255912D01*
X9653253Y-13255912D02*
X9653253Y-13179722D01*
X9653253Y-13179722D02*
X9662777Y-13160674D01*
X9662777Y-13160674D02*
X9681825Y-13151150D01*
X9681825Y-13151150D02*
X9719920Y-13151150D01*
X9719920Y-13151150D02*
X9738968Y-13160674D01*
X9738968Y-13160674D02*
X9748492Y-13179722D01*
X9748492Y-13179722D02*
X9748492Y-13198769D01*
X9748492Y-13198769D02*
X9653253Y-13217817D01*
X9824682Y-13274960D02*
X9843730Y-13284484D01*
X9843730Y-13284484D02*
X9881825Y-13284484D01*
X9881825Y-13284484D02*
X9900873Y-13274960D01*
X9900873Y-13274960D02*
X9910396Y-13255912D01*
X9910396Y-13255912D02*
X9910396Y-13246388D01*
X9910396Y-13246388D02*
X9900873Y-13227341D01*
X9900873Y-13227341D02*
X9881825Y-13217817D01*
X9881825Y-13217817D02*
X9853253Y-13217817D01*
X9853253Y-13217817D02*
X9834206Y-13208293D01*
X9834206Y-13208293D02*
X9824682Y-13189246D01*
X9824682Y-13189246D02*
X9824682Y-13179722D01*
X9824682Y-13179722D02*
X9834206Y-13160674D01*
X9834206Y-13160674D02*
X9853253Y-13151150D01*
X9853253Y-13151150D02*
X9881825Y-13151150D01*
X9881825Y-13151150D02*
X9900873Y-13160674D01*
X9977063Y-13360674D02*
X9986587Y-13351150D01*
X9986587Y-13351150D02*
X10005634Y-13322579D01*
X10005634Y-13322579D02*
X10015158Y-13303531D01*
X10015158Y-13303531D02*
X10024682Y-13274960D01*
X10024682Y-13274960D02*
X10034206Y-13227341D01*
X10034206Y-13227341D02*
X10034206Y-13189246D01*
X10034206Y-13189246D02*
X10024682Y-13141627D01*
X10024682Y-13141627D02*
X10015158Y-13113055D01*
X10015158Y-13113055D02*
X10005634Y-13094008D01*
X10005634Y-13094008D02*
X9986587Y-13065436D01*
X9986587Y-13065436D02*
X9977063Y-13055912D01*
M02*
