%TF.GenerationSoftware,KiCad,Pcbnew,8.0.2*%
%TF.CreationDate,2024-05-19T17:08:07+01:00*%
%TF.ProjectId,New BSPD,4e657720-4253-4504-942e-6b696361645f,rev?*%
%TF.SameCoordinates,Original*%
%TF.FileFunction,Drillmap*%
%TF.FilePolarity,Positive*%
%FSLAX45Y45*%
G04 Gerber Fmt 4.5, Leading zero omitted, Abs format (unit mm)*
G04 Created by KiCad (PCBNEW 8.0.2) date 2024-05-19 17:08:07*
%MOMM*%
%LPD*%
G01*
G04 APERTURE LIST*
%ADD10C,0.100000*%
%ADD11C,0.200000*%
%ADD12C,0.320000*%
%ADD13C,0.330000*%
%ADD14C,0.350000*%
G04 APERTURE END LIST*
D10*
X5461000Y-10668000D02*
G75*
G02*
X5207000Y-10414000I0J254000D01*
G01*
X5461000Y-2286000D02*
X19812000Y-2286000D01*
X19812000Y-2286000D02*
G75*
G02*
X20066000Y-2540000I0J-254000D01*
G01*
X5207000Y-2540000D02*
G75*
G02*
X5461000Y-2286000I254000J0D01*
G01*
X20066000Y-10414000D02*
G75*
G02*
X19812000Y-10668000I-254000J0D01*
G01*
X5207000Y-10414000D02*
X5207000Y-2540000D01*
X20066000Y-2540000D02*
X20066000Y-10414000D01*
X19812000Y-10668000D02*
X5461000Y-10668000D01*
D11*
D12*
X7968000Y-2761000D02*
X8288000Y-3081000D01*
X8288000Y-2761000D02*
X7968000Y-3081000D01*
X7968000Y-9873000D02*
X8288000Y-10193000D01*
X8288000Y-9873000D02*
X7968000Y-10193000D01*
X19271000Y-2761000D02*
X19591000Y-3081000D01*
X19591000Y-2761000D02*
X19271000Y-3081000D01*
X19271000Y-9873000D02*
X19591000Y-10193000D01*
X19591000Y-9873000D02*
X19271000Y-10193000D01*
D13*
X7340000Y-2713000D02*
G75*
G02*
X7010000Y-2713000I-165000J0D01*
G01*
X7010000Y-2713000D02*
G75*
G02*
X7340000Y-2713000I165000J0D01*
G01*
X7340000Y-4653000D02*
G75*
G02*
X7010000Y-4653000I-165000J0D01*
G01*
X7010000Y-4653000D02*
G75*
G02*
X7340000Y-4653000I165000J0D01*
G01*
X7340000Y-5507000D02*
G75*
G02*
X7010000Y-5507000I-165000J0D01*
G01*
X7010000Y-5507000D02*
G75*
G02*
X7340000Y-5507000I165000J0D01*
G01*
X7340000Y-7447000D02*
G75*
G02*
X7010000Y-7447000I-165000J0D01*
G01*
X7010000Y-7447000D02*
G75*
G02*
X7340000Y-7447000I165000J0D01*
G01*
X7340000Y-8301000D02*
G75*
G02*
X7010000Y-8301000I-165000J0D01*
G01*
X7010000Y-8301000D02*
G75*
G02*
X7340000Y-8301000I165000J0D01*
G01*
X7340000Y-10241000D02*
G75*
G02*
X7010000Y-10241000I-165000J0D01*
G01*
X7010000Y-10241000D02*
G75*
G02*
X7340000Y-10241000I165000J0D01*
G01*
X8815000Y-4191000D02*
G75*
G02*
X8485000Y-4191000I-165000J0D01*
G01*
X8485000Y-4191000D02*
G75*
G02*
X8815000Y-4191000I165000J0D01*
G01*
X10533000Y-4191000D02*
G75*
G02*
X10203000Y-4191000I-165000J0D01*
G01*
X10203000Y-4191000D02*
G75*
G02*
X10533000Y-4191000I165000J0D01*
G01*
D14*
X10604500Y-8035500D02*
X10604500Y-8385500D01*
X10429500Y-8210500D02*
X10779500Y-8210500D01*
X11303000Y-2511000D02*
X11303000Y-2861000D01*
X11128000Y-2686000D02*
X11478000Y-2686000D01*
D11*
X5462777Y-10984484D02*
X5462777Y-10784484D01*
X5462777Y-10784484D02*
X5510396Y-10784484D01*
X5510396Y-10784484D02*
X5538967Y-10794008D01*
X5538967Y-10794008D02*
X5558015Y-10813055D01*
X5558015Y-10813055D02*
X5567539Y-10832103D01*
X5567539Y-10832103D02*
X5577063Y-10870198D01*
X5577063Y-10870198D02*
X5577063Y-10898770D01*
X5577063Y-10898770D02*
X5567539Y-10936865D01*
X5567539Y-10936865D02*
X5558015Y-10955912D01*
X5558015Y-10955912D02*
X5538967Y-10974960D01*
X5538967Y-10974960D02*
X5510396Y-10984484D01*
X5510396Y-10984484D02*
X5462777Y-10984484D01*
X5662777Y-10984484D02*
X5662777Y-10851150D01*
X5662777Y-10889246D02*
X5672301Y-10870198D01*
X5672301Y-10870198D02*
X5681824Y-10860674D01*
X5681824Y-10860674D02*
X5700872Y-10851150D01*
X5700872Y-10851150D02*
X5719920Y-10851150D01*
X5786586Y-10984484D02*
X5786586Y-10851150D01*
X5786586Y-10784484D02*
X5777062Y-10794008D01*
X5777062Y-10794008D02*
X5786586Y-10803531D01*
X5786586Y-10803531D02*
X5796110Y-10794008D01*
X5796110Y-10794008D02*
X5786586Y-10784484D01*
X5786586Y-10784484D02*
X5786586Y-10803531D01*
X5910396Y-10984484D02*
X5891348Y-10974960D01*
X5891348Y-10974960D02*
X5881824Y-10955912D01*
X5881824Y-10955912D02*
X5881824Y-10784484D01*
X6015158Y-10984484D02*
X5996110Y-10974960D01*
X5996110Y-10974960D02*
X5986586Y-10955912D01*
X5986586Y-10955912D02*
X5986586Y-10784484D01*
X6243729Y-10984484D02*
X6243729Y-10784484D01*
X6243729Y-10784484D02*
X6310396Y-10927341D01*
X6310396Y-10927341D02*
X6377062Y-10784484D01*
X6377062Y-10784484D02*
X6377062Y-10984484D01*
X6558015Y-10984484D02*
X6558015Y-10879722D01*
X6558015Y-10879722D02*
X6548491Y-10860674D01*
X6548491Y-10860674D02*
X6529443Y-10851150D01*
X6529443Y-10851150D02*
X6491348Y-10851150D01*
X6491348Y-10851150D02*
X6472301Y-10860674D01*
X6558015Y-10974960D02*
X6538967Y-10984484D01*
X6538967Y-10984484D02*
X6491348Y-10984484D01*
X6491348Y-10984484D02*
X6472301Y-10974960D01*
X6472301Y-10974960D02*
X6462777Y-10955912D01*
X6462777Y-10955912D02*
X6462777Y-10936865D01*
X6462777Y-10936865D02*
X6472301Y-10917817D01*
X6472301Y-10917817D02*
X6491348Y-10908293D01*
X6491348Y-10908293D02*
X6538967Y-10908293D01*
X6538967Y-10908293D02*
X6558015Y-10898770D01*
X6653253Y-10851150D02*
X6653253Y-11051150D01*
X6653253Y-10860674D02*
X6672301Y-10851150D01*
X6672301Y-10851150D02*
X6710396Y-10851150D01*
X6710396Y-10851150D02*
X6729443Y-10860674D01*
X6729443Y-10860674D02*
X6738967Y-10870198D01*
X6738967Y-10870198D02*
X6748491Y-10889246D01*
X6748491Y-10889246D02*
X6748491Y-10946389D01*
X6748491Y-10946389D02*
X6738967Y-10965436D01*
X6738967Y-10965436D02*
X6729443Y-10974960D01*
X6729443Y-10974960D02*
X6710396Y-10984484D01*
X6710396Y-10984484D02*
X6672301Y-10984484D01*
X6672301Y-10984484D02*
X6653253Y-10974960D01*
X6834205Y-10965436D02*
X6843729Y-10974960D01*
X6843729Y-10974960D02*
X6834205Y-10984484D01*
X6834205Y-10984484D02*
X6824682Y-10974960D01*
X6824682Y-10974960D02*
X6834205Y-10965436D01*
X6834205Y-10965436D02*
X6834205Y-10984484D01*
X6834205Y-10860674D02*
X6843729Y-10870198D01*
X6843729Y-10870198D02*
X6834205Y-10879722D01*
X6834205Y-10879722D02*
X6824682Y-10870198D01*
X6824682Y-10870198D02*
X6834205Y-10860674D01*
X6834205Y-10860674D02*
X6834205Y-10879722D01*
X5002000Y-11213000D02*
X5202000Y-11413000D01*
X5202000Y-11213000D02*
X5002000Y-11413000D01*
X5443729Y-11204484D02*
X5567539Y-11204484D01*
X5567539Y-11204484D02*
X5500872Y-11280674D01*
X5500872Y-11280674D02*
X5529444Y-11280674D01*
X5529444Y-11280674D02*
X5548491Y-11290198D01*
X5548491Y-11290198D02*
X5558015Y-11299722D01*
X5558015Y-11299722D02*
X5567539Y-11318769D01*
X5567539Y-11318769D02*
X5567539Y-11366388D01*
X5567539Y-11366388D02*
X5558015Y-11385436D01*
X5558015Y-11385436D02*
X5548491Y-11394960D01*
X5548491Y-11394960D02*
X5529444Y-11404484D01*
X5529444Y-11404484D02*
X5472301Y-11404484D01*
X5472301Y-11404484D02*
X5453253Y-11394960D01*
X5453253Y-11394960D02*
X5443729Y-11385436D01*
X5653253Y-11385436D02*
X5662777Y-11394960D01*
X5662777Y-11394960D02*
X5653253Y-11404484D01*
X5653253Y-11404484D02*
X5643729Y-11394960D01*
X5643729Y-11394960D02*
X5653253Y-11385436D01*
X5653253Y-11385436D02*
X5653253Y-11404484D01*
X5738967Y-11223531D02*
X5748491Y-11214008D01*
X5748491Y-11214008D02*
X5767539Y-11204484D01*
X5767539Y-11204484D02*
X5815158Y-11204484D01*
X5815158Y-11204484D02*
X5834205Y-11214008D01*
X5834205Y-11214008D02*
X5843729Y-11223531D01*
X5843729Y-11223531D02*
X5853253Y-11242579D01*
X5853253Y-11242579D02*
X5853253Y-11261627D01*
X5853253Y-11261627D02*
X5843729Y-11290198D01*
X5843729Y-11290198D02*
X5729443Y-11404484D01*
X5729443Y-11404484D02*
X5853253Y-11404484D01*
X5977062Y-11204484D02*
X5996110Y-11204484D01*
X5996110Y-11204484D02*
X6015158Y-11214008D01*
X6015158Y-11214008D02*
X6024682Y-11223531D01*
X6024682Y-11223531D02*
X6034205Y-11242579D01*
X6034205Y-11242579D02*
X6043729Y-11280674D01*
X6043729Y-11280674D02*
X6043729Y-11328293D01*
X6043729Y-11328293D02*
X6034205Y-11366388D01*
X6034205Y-11366388D02*
X6024682Y-11385436D01*
X6024682Y-11385436D02*
X6015158Y-11394960D01*
X6015158Y-11394960D02*
X5996110Y-11404484D01*
X5996110Y-11404484D02*
X5977062Y-11404484D01*
X5977062Y-11404484D02*
X5958015Y-11394960D01*
X5958015Y-11394960D02*
X5948491Y-11385436D01*
X5948491Y-11385436D02*
X5938967Y-11366388D01*
X5938967Y-11366388D02*
X5929443Y-11328293D01*
X5929443Y-11328293D02*
X5929443Y-11280674D01*
X5929443Y-11280674D02*
X5938967Y-11242579D01*
X5938967Y-11242579D02*
X5948491Y-11223531D01*
X5948491Y-11223531D02*
X5958015Y-11214008D01*
X5958015Y-11214008D02*
X5977062Y-11204484D01*
X6167539Y-11204484D02*
X6186586Y-11204484D01*
X6186586Y-11204484D02*
X6205634Y-11214008D01*
X6205634Y-11214008D02*
X6215158Y-11223531D01*
X6215158Y-11223531D02*
X6224682Y-11242579D01*
X6224682Y-11242579D02*
X6234205Y-11280674D01*
X6234205Y-11280674D02*
X6234205Y-11328293D01*
X6234205Y-11328293D02*
X6224682Y-11366388D01*
X6224682Y-11366388D02*
X6215158Y-11385436D01*
X6215158Y-11385436D02*
X6205634Y-11394960D01*
X6205634Y-11394960D02*
X6186586Y-11404484D01*
X6186586Y-11404484D02*
X6167539Y-11404484D01*
X6167539Y-11404484D02*
X6148491Y-11394960D01*
X6148491Y-11394960D02*
X6138967Y-11385436D01*
X6138967Y-11385436D02*
X6129443Y-11366388D01*
X6129443Y-11366388D02*
X6119920Y-11328293D01*
X6119920Y-11328293D02*
X6119920Y-11280674D01*
X6119920Y-11280674D02*
X6129443Y-11242579D01*
X6129443Y-11242579D02*
X6138967Y-11223531D01*
X6138967Y-11223531D02*
X6148491Y-11214008D01*
X6148491Y-11214008D02*
X6167539Y-11204484D01*
X6319920Y-11404484D02*
X6319920Y-11271150D01*
X6319920Y-11290198D02*
X6329443Y-11280674D01*
X6329443Y-11280674D02*
X6348491Y-11271150D01*
X6348491Y-11271150D02*
X6377063Y-11271150D01*
X6377063Y-11271150D02*
X6396110Y-11280674D01*
X6396110Y-11280674D02*
X6405634Y-11299722D01*
X6405634Y-11299722D02*
X6405634Y-11404484D01*
X6405634Y-11299722D02*
X6415158Y-11280674D01*
X6415158Y-11280674D02*
X6434205Y-11271150D01*
X6434205Y-11271150D02*
X6462777Y-11271150D01*
X6462777Y-11271150D02*
X6481824Y-11280674D01*
X6481824Y-11280674D02*
X6491348Y-11299722D01*
X6491348Y-11299722D02*
X6491348Y-11404484D01*
X6586586Y-11404484D02*
X6586586Y-11271150D01*
X6586586Y-11290198D02*
X6596110Y-11280674D01*
X6596110Y-11280674D02*
X6615158Y-11271150D01*
X6615158Y-11271150D02*
X6643729Y-11271150D01*
X6643729Y-11271150D02*
X6662777Y-11280674D01*
X6662777Y-11280674D02*
X6672301Y-11299722D01*
X6672301Y-11299722D02*
X6672301Y-11404484D01*
X6672301Y-11299722D02*
X6681824Y-11280674D01*
X6681824Y-11280674D02*
X6700872Y-11271150D01*
X6700872Y-11271150D02*
X6729443Y-11271150D01*
X6729443Y-11271150D02*
X6748491Y-11280674D01*
X6748491Y-11280674D02*
X6758015Y-11299722D01*
X6758015Y-11299722D02*
X6758015Y-11404484D01*
X7148491Y-11194960D02*
X6977063Y-11452103D01*
X7405634Y-11204484D02*
X7424682Y-11204484D01*
X7424682Y-11204484D02*
X7443729Y-11214008D01*
X7443729Y-11214008D02*
X7453253Y-11223531D01*
X7453253Y-11223531D02*
X7462777Y-11242579D01*
X7462777Y-11242579D02*
X7472301Y-11280674D01*
X7472301Y-11280674D02*
X7472301Y-11328293D01*
X7472301Y-11328293D02*
X7462777Y-11366388D01*
X7462777Y-11366388D02*
X7453253Y-11385436D01*
X7453253Y-11385436D02*
X7443729Y-11394960D01*
X7443729Y-11394960D02*
X7424682Y-11404484D01*
X7424682Y-11404484D02*
X7405634Y-11404484D01*
X7405634Y-11404484D02*
X7386586Y-11394960D01*
X7386586Y-11394960D02*
X7377063Y-11385436D01*
X7377063Y-11385436D02*
X7367539Y-11366388D01*
X7367539Y-11366388D02*
X7358015Y-11328293D01*
X7358015Y-11328293D02*
X7358015Y-11280674D01*
X7358015Y-11280674D02*
X7367539Y-11242579D01*
X7367539Y-11242579D02*
X7377063Y-11223531D01*
X7377063Y-11223531D02*
X7386586Y-11214008D01*
X7386586Y-11214008D02*
X7405634Y-11204484D01*
X7558015Y-11385436D02*
X7567539Y-11394960D01*
X7567539Y-11394960D02*
X7558015Y-11404484D01*
X7558015Y-11404484D02*
X7548491Y-11394960D01*
X7548491Y-11394960D02*
X7558015Y-11385436D01*
X7558015Y-11385436D02*
X7558015Y-11404484D01*
X7758015Y-11404484D02*
X7643729Y-11404484D01*
X7700872Y-11404484D02*
X7700872Y-11204484D01*
X7700872Y-11204484D02*
X7681825Y-11233055D01*
X7681825Y-11233055D02*
X7662777Y-11252103D01*
X7662777Y-11252103D02*
X7643729Y-11261627D01*
X7834206Y-11223531D02*
X7843729Y-11214008D01*
X7843729Y-11214008D02*
X7862777Y-11204484D01*
X7862777Y-11204484D02*
X7910396Y-11204484D01*
X7910396Y-11204484D02*
X7929444Y-11214008D01*
X7929444Y-11214008D02*
X7938967Y-11223531D01*
X7938967Y-11223531D02*
X7948491Y-11242579D01*
X7948491Y-11242579D02*
X7948491Y-11261627D01*
X7948491Y-11261627D02*
X7938967Y-11290198D01*
X7938967Y-11290198D02*
X7824682Y-11404484D01*
X7824682Y-11404484D02*
X7948491Y-11404484D01*
X8119920Y-11204484D02*
X8081825Y-11204484D01*
X8081825Y-11204484D02*
X8062777Y-11214008D01*
X8062777Y-11214008D02*
X8053253Y-11223531D01*
X8053253Y-11223531D02*
X8034206Y-11252103D01*
X8034206Y-11252103D02*
X8024682Y-11290198D01*
X8024682Y-11290198D02*
X8024682Y-11366388D01*
X8024682Y-11366388D02*
X8034206Y-11385436D01*
X8034206Y-11385436D02*
X8043729Y-11394960D01*
X8043729Y-11394960D02*
X8062777Y-11404484D01*
X8062777Y-11404484D02*
X8100872Y-11404484D01*
X8100872Y-11404484D02*
X8119920Y-11394960D01*
X8119920Y-11394960D02*
X8129444Y-11385436D01*
X8129444Y-11385436D02*
X8138967Y-11366388D01*
X8138967Y-11366388D02*
X8138967Y-11318769D01*
X8138967Y-11318769D02*
X8129444Y-11299722D01*
X8129444Y-11299722D02*
X8119920Y-11290198D01*
X8119920Y-11290198D02*
X8100872Y-11280674D01*
X8100872Y-11280674D02*
X8062777Y-11280674D01*
X8062777Y-11280674D02*
X8043729Y-11290198D01*
X8043729Y-11290198D02*
X8034206Y-11299722D01*
X8034206Y-11299722D02*
X8024682Y-11318769D01*
X8262777Y-11204484D02*
X8281825Y-11204484D01*
X8281825Y-11204484D02*
X8300872Y-11214008D01*
X8300872Y-11214008D02*
X8310396Y-11223531D01*
X8310396Y-11223531D02*
X8319920Y-11242579D01*
X8319920Y-11242579D02*
X8329444Y-11280674D01*
X8329444Y-11280674D02*
X8329444Y-11328293D01*
X8329444Y-11328293D02*
X8319920Y-11366388D01*
X8319920Y-11366388D02*
X8310396Y-11385436D01*
X8310396Y-11385436D02*
X8300872Y-11394960D01*
X8300872Y-11394960D02*
X8281825Y-11404484D01*
X8281825Y-11404484D02*
X8262777Y-11404484D01*
X8262777Y-11404484D02*
X8243729Y-11394960D01*
X8243729Y-11394960D02*
X8234206Y-11385436D01*
X8234206Y-11385436D02*
X8224682Y-11366388D01*
X8224682Y-11366388D02*
X8215158Y-11328293D01*
X8215158Y-11328293D02*
X8215158Y-11280674D01*
X8215158Y-11280674D02*
X8224682Y-11242579D01*
X8224682Y-11242579D02*
X8234206Y-11223531D01*
X8234206Y-11223531D02*
X8243729Y-11214008D01*
X8243729Y-11214008D02*
X8262777Y-11204484D01*
X8405634Y-11204484D02*
X8405634Y-11242579D01*
X8481825Y-11204484D02*
X8481825Y-11242579D01*
X8777063Y-11480674D02*
X8767539Y-11471150D01*
X8767539Y-11471150D02*
X8748491Y-11442579D01*
X8748491Y-11442579D02*
X8738968Y-11423531D01*
X8738968Y-11423531D02*
X8729444Y-11394960D01*
X8729444Y-11394960D02*
X8719920Y-11347341D01*
X8719920Y-11347341D02*
X8719920Y-11309246D01*
X8719920Y-11309246D02*
X8729444Y-11261627D01*
X8729444Y-11261627D02*
X8738968Y-11233055D01*
X8738968Y-11233055D02*
X8748491Y-11214008D01*
X8748491Y-11214008D02*
X8767539Y-11185436D01*
X8767539Y-11185436D02*
X8777063Y-11175912D01*
X8938968Y-11271150D02*
X8938968Y-11404484D01*
X8891349Y-11194960D02*
X8843730Y-11337817D01*
X8843730Y-11337817D02*
X8967539Y-11337817D01*
X9196111Y-11404484D02*
X9196111Y-11204484D01*
X9281825Y-11404484D02*
X9281825Y-11299722D01*
X9281825Y-11299722D02*
X9272301Y-11280674D01*
X9272301Y-11280674D02*
X9253253Y-11271150D01*
X9253253Y-11271150D02*
X9224682Y-11271150D01*
X9224682Y-11271150D02*
X9205634Y-11280674D01*
X9205634Y-11280674D02*
X9196111Y-11290198D01*
X9405634Y-11404484D02*
X9386587Y-11394960D01*
X9386587Y-11394960D02*
X9377063Y-11385436D01*
X9377063Y-11385436D02*
X9367539Y-11366388D01*
X9367539Y-11366388D02*
X9367539Y-11309246D01*
X9367539Y-11309246D02*
X9377063Y-11290198D01*
X9377063Y-11290198D02*
X9386587Y-11280674D01*
X9386587Y-11280674D02*
X9405634Y-11271150D01*
X9405634Y-11271150D02*
X9434206Y-11271150D01*
X9434206Y-11271150D02*
X9453253Y-11280674D01*
X9453253Y-11280674D02*
X9462777Y-11290198D01*
X9462777Y-11290198D02*
X9472301Y-11309246D01*
X9472301Y-11309246D02*
X9472301Y-11366388D01*
X9472301Y-11366388D02*
X9462777Y-11385436D01*
X9462777Y-11385436D02*
X9453253Y-11394960D01*
X9453253Y-11394960D02*
X9434206Y-11404484D01*
X9434206Y-11404484D02*
X9405634Y-11404484D01*
X9586587Y-11404484D02*
X9567539Y-11394960D01*
X9567539Y-11394960D02*
X9558015Y-11375912D01*
X9558015Y-11375912D02*
X9558015Y-11204484D01*
X9738968Y-11394960D02*
X9719920Y-11404484D01*
X9719920Y-11404484D02*
X9681825Y-11404484D01*
X9681825Y-11404484D02*
X9662777Y-11394960D01*
X9662777Y-11394960D02*
X9653253Y-11375912D01*
X9653253Y-11375912D02*
X9653253Y-11299722D01*
X9653253Y-11299722D02*
X9662777Y-11280674D01*
X9662777Y-11280674D02*
X9681825Y-11271150D01*
X9681825Y-11271150D02*
X9719920Y-11271150D01*
X9719920Y-11271150D02*
X9738968Y-11280674D01*
X9738968Y-11280674D02*
X9748492Y-11299722D01*
X9748492Y-11299722D02*
X9748492Y-11318769D01*
X9748492Y-11318769D02*
X9653253Y-11337817D01*
X9824682Y-11394960D02*
X9843730Y-11404484D01*
X9843730Y-11404484D02*
X9881825Y-11404484D01*
X9881825Y-11404484D02*
X9900873Y-11394960D01*
X9900873Y-11394960D02*
X9910396Y-11375912D01*
X9910396Y-11375912D02*
X9910396Y-11366388D01*
X9910396Y-11366388D02*
X9900873Y-11347341D01*
X9900873Y-11347341D02*
X9881825Y-11337817D01*
X9881825Y-11337817D02*
X9853253Y-11337817D01*
X9853253Y-11337817D02*
X9834206Y-11328293D01*
X9834206Y-11328293D02*
X9824682Y-11309246D01*
X9824682Y-11309246D02*
X9824682Y-11299722D01*
X9824682Y-11299722D02*
X9834206Y-11280674D01*
X9834206Y-11280674D02*
X9853253Y-11271150D01*
X9853253Y-11271150D02*
X9881825Y-11271150D01*
X9881825Y-11271150D02*
X9900873Y-11280674D01*
X9977063Y-11480674D02*
X9986587Y-11471150D01*
X9986587Y-11471150D02*
X10005634Y-11442579D01*
X10005634Y-11442579D02*
X10015158Y-11423531D01*
X10015158Y-11423531D02*
X10024682Y-11394960D01*
X10024682Y-11394960D02*
X10034206Y-11347341D01*
X10034206Y-11347341D02*
X10034206Y-11309246D01*
X10034206Y-11309246D02*
X10024682Y-11261627D01*
X10024682Y-11261627D02*
X10015158Y-11233055D01*
X10015158Y-11233055D02*
X10005634Y-11214008D01*
X10005634Y-11214008D02*
X9986587Y-11185436D01*
X9986587Y-11185436D02*
X9977063Y-11175912D01*
X10338968Y-11480674D02*
X10329444Y-11471150D01*
X10329444Y-11471150D02*
X10310396Y-11442579D01*
X10310396Y-11442579D02*
X10300873Y-11423531D01*
X10300873Y-11423531D02*
X10291349Y-11394960D01*
X10291349Y-11394960D02*
X10281825Y-11347341D01*
X10281825Y-11347341D02*
X10281825Y-11309246D01*
X10281825Y-11309246D02*
X10291349Y-11261627D01*
X10291349Y-11261627D02*
X10300873Y-11233055D01*
X10300873Y-11233055D02*
X10310396Y-11214008D01*
X10310396Y-11214008D02*
X10329444Y-11185436D01*
X10329444Y-11185436D02*
X10338968Y-11175912D01*
X10415158Y-11271150D02*
X10415158Y-11404484D01*
X10415158Y-11290198D02*
X10424682Y-11280674D01*
X10424682Y-11280674D02*
X10443730Y-11271150D01*
X10443730Y-11271150D02*
X10472301Y-11271150D01*
X10472301Y-11271150D02*
X10491349Y-11280674D01*
X10491349Y-11280674D02*
X10500873Y-11299722D01*
X10500873Y-11299722D02*
X10500873Y-11404484D01*
X10624682Y-11404484D02*
X10605634Y-11394960D01*
X10605634Y-11394960D02*
X10596111Y-11385436D01*
X10596111Y-11385436D02*
X10586587Y-11366388D01*
X10586587Y-11366388D02*
X10586587Y-11309246D01*
X10586587Y-11309246D02*
X10596111Y-11290198D01*
X10596111Y-11290198D02*
X10605634Y-11280674D01*
X10605634Y-11280674D02*
X10624682Y-11271150D01*
X10624682Y-11271150D02*
X10653254Y-11271150D01*
X10653254Y-11271150D02*
X10672301Y-11280674D01*
X10672301Y-11280674D02*
X10681825Y-11290198D01*
X10681825Y-11290198D02*
X10691349Y-11309246D01*
X10691349Y-11309246D02*
X10691349Y-11366388D01*
X10691349Y-11366388D02*
X10681825Y-11385436D01*
X10681825Y-11385436D02*
X10672301Y-11394960D01*
X10672301Y-11394960D02*
X10653254Y-11404484D01*
X10653254Y-11404484D02*
X10624682Y-11404484D01*
X10748492Y-11271150D02*
X10824682Y-11271150D01*
X10777063Y-11204484D02*
X10777063Y-11375912D01*
X10777063Y-11375912D02*
X10786587Y-11394960D01*
X10786587Y-11394960D02*
X10805634Y-11404484D01*
X10805634Y-11404484D02*
X10824682Y-11404484D01*
X11043730Y-11271150D02*
X11043730Y-11471150D01*
X11043730Y-11280674D02*
X11062777Y-11271150D01*
X11062777Y-11271150D02*
X11100873Y-11271150D01*
X11100873Y-11271150D02*
X11119920Y-11280674D01*
X11119920Y-11280674D02*
X11129444Y-11290198D01*
X11129444Y-11290198D02*
X11138968Y-11309246D01*
X11138968Y-11309246D02*
X11138968Y-11366388D01*
X11138968Y-11366388D02*
X11129444Y-11385436D01*
X11129444Y-11385436D02*
X11119920Y-11394960D01*
X11119920Y-11394960D02*
X11100873Y-11404484D01*
X11100873Y-11404484D02*
X11062777Y-11404484D01*
X11062777Y-11404484D02*
X11043730Y-11394960D01*
X11253253Y-11404484D02*
X11234206Y-11394960D01*
X11234206Y-11394960D02*
X11224682Y-11375912D01*
X11224682Y-11375912D02*
X11224682Y-11204484D01*
X11415158Y-11404484D02*
X11415158Y-11299722D01*
X11415158Y-11299722D02*
X11405634Y-11280674D01*
X11405634Y-11280674D02*
X11386587Y-11271150D01*
X11386587Y-11271150D02*
X11348492Y-11271150D01*
X11348492Y-11271150D02*
X11329444Y-11280674D01*
X11415158Y-11394960D02*
X11396111Y-11404484D01*
X11396111Y-11404484D02*
X11348492Y-11404484D01*
X11348492Y-11404484D02*
X11329444Y-11394960D01*
X11329444Y-11394960D02*
X11319920Y-11375912D01*
X11319920Y-11375912D02*
X11319920Y-11356865D01*
X11319920Y-11356865D02*
X11329444Y-11337817D01*
X11329444Y-11337817D02*
X11348492Y-11328293D01*
X11348492Y-11328293D02*
X11396111Y-11328293D01*
X11396111Y-11328293D02*
X11415158Y-11318769D01*
X11481825Y-11271150D02*
X11558015Y-11271150D01*
X11510396Y-11204484D02*
X11510396Y-11375912D01*
X11510396Y-11375912D02*
X11519920Y-11394960D01*
X11519920Y-11394960D02*
X11538968Y-11404484D01*
X11538968Y-11404484D02*
X11558015Y-11404484D01*
X11700873Y-11394960D02*
X11681825Y-11404484D01*
X11681825Y-11404484D02*
X11643730Y-11404484D01*
X11643730Y-11404484D02*
X11624682Y-11394960D01*
X11624682Y-11394960D02*
X11615158Y-11375912D01*
X11615158Y-11375912D02*
X11615158Y-11299722D01*
X11615158Y-11299722D02*
X11624682Y-11280674D01*
X11624682Y-11280674D02*
X11643730Y-11271150D01*
X11643730Y-11271150D02*
X11681825Y-11271150D01*
X11681825Y-11271150D02*
X11700873Y-11280674D01*
X11700873Y-11280674D02*
X11710396Y-11299722D01*
X11710396Y-11299722D02*
X11710396Y-11318769D01*
X11710396Y-11318769D02*
X11615158Y-11337817D01*
X11881825Y-11404484D02*
X11881825Y-11204484D01*
X11881825Y-11394960D02*
X11862777Y-11404484D01*
X11862777Y-11404484D02*
X11824682Y-11404484D01*
X11824682Y-11404484D02*
X11805634Y-11394960D01*
X11805634Y-11394960D02*
X11796111Y-11385436D01*
X11796111Y-11385436D02*
X11786587Y-11366388D01*
X11786587Y-11366388D02*
X11786587Y-11309246D01*
X11786587Y-11309246D02*
X11796111Y-11290198D01*
X11796111Y-11290198D02*
X11805634Y-11280674D01*
X11805634Y-11280674D02*
X11824682Y-11271150D01*
X11824682Y-11271150D02*
X11862777Y-11271150D01*
X11862777Y-11271150D02*
X11881825Y-11280674D01*
X11958015Y-11480674D02*
X11967539Y-11471150D01*
X11967539Y-11471150D02*
X11986587Y-11442579D01*
X11986587Y-11442579D02*
X11996111Y-11423531D01*
X11996111Y-11423531D02*
X12005634Y-11394960D01*
X12005634Y-11394960D02*
X12015158Y-11347341D01*
X12015158Y-11347341D02*
X12015158Y-11309246D01*
X12015158Y-11309246D02*
X12005634Y-11261627D01*
X12005634Y-11261627D02*
X11996111Y-11233055D01*
X11996111Y-11233055D02*
X11986587Y-11214008D01*
X11986587Y-11214008D02*
X11967539Y-11185436D01*
X11967539Y-11185436D02*
X11958015Y-11175912D01*
X5202000Y-11633000D02*
G75*
G02*
X5002000Y-11633000I-100000J0D01*
G01*
X5002000Y-11633000D02*
G75*
G02*
X5202000Y-11633000I100000J0D01*
G01*
X5443729Y-11524484D02*
X5567539Y-11524484D01*
X5567539Y-11524484D02*
X5500872Y-11600674D01*
X5500872Y-11600674D02*
X5529444Y-11600674D01*
X5529444Y-11600674D02*
X5548491Y-11610198D01*
X5548491Y-11610198D02*
X5558015Y-11619722D01*
X5558015Y-11619722D02*
X5567539Y-11638769D01*
X5567539Y-11638769D02*
X5567539Y-11686388D01*
X5567539Y-11686388D02*
X5558015Y-11705436D01*
X5558015Y-11705436D02*
X5548491Y-11714960D01*
X5548491Y-11714960D02*
X5529444Y-11724484D01*
X5529444Y-11724484D02*
X5472301Y-11724484D01*
X5472301Y-11724484D02*
X5453253Y-11714960D01*
X5453253Y-11714960D02*
X5443729Y-11705436D01*
X5653253Y-11705436D02*
X5662777Y-11714960D01*
X5662777Y-11714960D02*
X5653253Y-11724484D01*
X5653253Y-11724484D02*
X5643729Y-11714960D01*
X5643729Y-11714960D02*
X5653253Y-11705436D01*
X5653253Y-11705436D02*
X5653253Y-11724484D01*
X5729443Y-11524484D02*
X5853253Y-11524484D01*
X5853253Y-11524484D02*
X5786586Y-11600674D01*
X5786586Y-11600674D02*
X5815158Y-11600674D01*
X5815158Y-11600674D02*
X5834205Y-11610198D01*
X5834205Y-11610198D02*
X5843729Y-11619722D01*
X5843729Y-11619722D02*
X5853253Y-11638769D01*
X5853253Y-11638769D02*
X5853253Y-11686388D01*
X5853253Y-11686388D02*
X5843729Y-11705436D01*
X5843729Y-11705436D02*
X5834205Y-11714960D01*
X5834205Y-11714960D02*
X5815158Y-11724484D01*
X5815158Y-11724484D02*
X5758015Y-11724484D01*
X5758015Y-11724484D02*
X5738967Y-11714960D01*
X5738967Y-11714960D02*
X5729443Y-11705436D01*
X5977062Y-11524484D02*
X5996110Y-11524484D01*
X5996110Y-11524484D02*
X6015158Y-11534008D01*
X6015158Y-11534008D02*
X6024682Y-11543531D01*
X6024682Y-11543531D02*
X6034205Y-11562579D01*
X6034205Y-11562579D02*
X6043729Y-11600674D01*
X6043729Y-11600674D02*
X6043729Y-11648293D01*
X6043729Y-11648293D02*
X6034205Y-11686388D01*
X6034205Y-11686388D02*
X6024682Y-11705436D01*
X6024682Y-11705436D02*
X6015158Y-11714960D01*
X6015158Y-11714960D02*
X5996110Y-11724484D01*
X5996110Y-11724484D02*
X5977062Y-11724484D01*
X5977062Y-11724484D02*
X5958015Y-11714960D01*
X5958015Y-11714960D02*
X5948491Y-11705436D01*
X5948491Y-11705436D02*
X5938967Y-11686388D01*
X5938967Y-11686388D02*
X5929443Y-11648293D01*
X5929443Y-11648293D02*
X5929443Y-11600674D01*
X5929443Y-11600674D02*
X5938967Y-11562579D01*
X5938967Y-11562579D02*
X5948491Y-11543531D01*
X5948491Y-11543531D02*
X5958015Y-11534008D01*
X5958015Y-11534008D02*
X5977062Y-11524484D01*
X6167539Y-11524484D02*
X6186586Y-11524484D01*
X6186586Y-11524484D02*
X6205634Y-11534008D01*
X6205634Y-11534008D02*
X6215158Y-11543531D01*
X6215158Y-11543531D02*
X6224682Y-11562579D01*
X6224682Y-11562579D02*
X6234205Y-11600674D01*
X6234205Y-11600674D02*
X6234205Y-11648293D01*
X6234205Y-11648293D02*
X6224682Y-11686388D01*
X6224682Y-11686388D02*
X6215158Y-11705436D01*
X6215158Y-11705436D02*
X6205634Y-11714960D01*
X6205634Y-11714960D02*
X6186586Y-11724484D01*
X6186586Y-11724484D02*
X6167539Y-11724484D01*
X6167539Y-11724484D02*
X6148491Y-11714960D01*
X6148491Y-11714960D02*
X6138967Y-11705436D01*
X6138967Y-11705436D02*
X6129443Y-11686388D01*
X6129443Y-11686388D02*
X6119920Y-11648293D01*
X6119920Y-11648293D02*
X6119920Y-11600674D01*
X6119920Y-11600674D02*
X6129443Y-11562579D01*
X6129443Y-11562579D02*
X6138967Y-11543531D01*
X6138967Y-11543531D02*
X6148491Y-11534008D01*
X6148491Y-11534008D02*
X6167539Y-11524484D01*
X6319920Y-11724484D02*
X6319920Y-11591150D01*
X6319920Y-11610198D02*
X6329443Y-11600674D01*
X6329443Y-11600674D02*
X6348491Y-11591150D01*
X6348491Y-11591150D02*
X6377063Y-11591150D01*
X6377063Y-11591150D02*
X6396110Y-11600674D01*
X6396110Y-11600674D02*
X6405634Y-11619722D01*
X6405634Y-11619722D02*
X6405634Y-11724484D01*
X6405634Y-11619722D02*
X6415158Y-11600674D01*
X6415158Y-11600674D02*
X6434205Y-11591150D01*
X6434205Y-11591150D02*
X6462777Y-11591150D01*
X6462777Y-11591150D02*
X6481824Y-11600674D01*
X6481824Y-11600674D02*
X6491348Y-11619722D01*
X6491348Y-11619722D02*
X6491348Y-11724484D01*
X6586586Y-11724484D02*
X6586586Y-11591150D01*
X6586586Y-11610198D02*
X6596110Y-11600674D01*
X6596110Y-11600674D02*
X6615158Y-11591150D01*
X6615158Y-11591150D02*
X6643729Y-11591150D01*
X6643729Y-11591150D02*
X6662777Y-11600674D01*
X6662777Y-11600674D02*
X6672301Y-11619722D01*
X6672301Y-11619722D02*
X6672301Y-11724484D01*
X6672301Y-11619722D02*
X6681824Y-11600674D01*
X6681824Y-11600674D02*
X6700872Y-11591150D01*
X6700872Y-11591150D02*
X6729443Y-11591150D01*
X6729443Y-11591150D02*
X6748491Y-11600674D01*
X6748491Y-11600674D02*
X6758015Y-11619722D01*
X6758015Y-11619722D02*
X6758015Y-11724484D01*
X7148491Y-11514960D02*
X6977063Y-11772103D01*
X7405634Y-11524484D02*
X7424682Y-11524484D01*
X7424682Y-11524484D02*
X7443729Y-11534008D01*
X7443729Y-11534008D02*
X7453253Y-11543531D01*
X7453253Y-11543531D02*
X7462777Y-11562579D01*
X7462777Y-11562579D02*
X7472301Y-11600674D01*
X7472301Y-11600674D02*
X7472301Y-11648293D01*
X7472301Y-11648293D02*
X7462777Y-11686388D01*
X7462777Y-11686388D02*
X7453253Y-11705436D01*
X7453253Y-11705436D02*
X7443729Y-11714960D01*
X7443729Y-11714960D02*
X7424682Y-11724484D01*
X7424682Y-11724484D02*
X7405634Y-11724484D01*
X7405634Y-11724484D02*
X7386586Y-11714960D01*
X7386586Y-11714960D02*
X7377063Y-11705436D01*
X7377063Y-11705436D02*
X7367539Y-11686388D01*
X7367539Y-11686388D02*
X7358015Y-11648293D01*
X7358015Y-11648293D02*
X7358015Y-11600674D01*
X7358015Y-11600674D02*
X7367539Y-11562579D01*
X7367539Y-11562579D02*
X7377063Y-11543531D01*
X7377063Y-11543531D02*
X7386586Y-11534008D01*
X7386586Y-11534008D02*
X7405634Y-11524484D01*
X7558015Y-11705436D02*
X7567539Y-11714960D01*
X7567539Y-11714960D02*
X7558015Y-11724484D01*
X7558015Y-11724484D02*
X7548491Y-11714960D01*
X7548491Y-11714960D02*
X7558015Y-11705436D01*
X7558015Y-11705436D02*
X7558015Y-11724484D01*
X7758015Y-11724484D02*
X7643729Y-11724484D01*
X7700872Y-11724484D02*
X7700872Y-11524484D01*
X7700872Y-11524484D02*
X7681825Y-11553055D01*
X7681825Y-11553055D02*
X7662777Y-11572103D01*
X7662777Y-11572103D02*
X7643729Y-11581627D01*
X7834206Y-11543531D02*
X7843729Y-11534008D01*
X7843729Y-11534008D02*
X7862777Y-11524484D01*
X7862777Y-11524484D02*
X7910396Y-11524484D01*
X7910396Y-11524484D02*
X7929444Y-11534008D01*
X7929444Y-11534008D02*
X7938967Y-11543531D01*
X7938967Y-11543531D02*
X7948491Y-11562579D01*
X7948491Y-11562579D02*
X7948491Y-11581627D01*
X7948491Y-11581627D02*
X7938967Y-11610198D01*
X7938967Y-11610198D02*
X7824682Y-11724484D01*
X7824682Y-11724484D02*
X7948491Y-11724484D01*
X8043729Y-11724484D02*
X8081825Y-11724484D01*
X8081825Y-11724484D02*
X8100872Y-11714960D01*
X8100872Y-11714960D02*
X8110396Y-11705436D01*
X8110396Y-11705436D02*
X8129444Y-11676865D01*
X8129444Y-11676865D02*
X8138967Y-11638769D01*
X8138967Y-11638769D02*
X8138967Y-11562579D01*
X8138967Y-11562579D02*
X8129444Y-11543531D01*
X8129444Y-11543531D02*
X8119920Y-11534008D01*
X8119920Y-11534008D02*
X8100872Y-11524484D01*
X8100872Y-11524484D02*
X8062777Y-11524484D01*
X8062777Y-11524484D02*
X8043729Y-11534008D01*
X8043729Y-11534008D02*
X8034206Y-11543531D01*
X8034206Y-11543531D02*
X8024682Y-11562579D01*
X8024682Y-11562579D02*
X8024682Y-11610198D01*
X8024682Y-11610198D02*
X8034206Y-11629246D01*
X8034206Y-11629246D02*
X8043729Y-11638769D01*
X8043729Y-11638769D02*
X8062777Y-11648293D01*
X8062777Y-11648293D02*
X8100872Y-11648293D01*
X8100872Y-11648293D02*
X8119920Y-11638769D01*
X8119920Y-11638769D02*
X8129444Y-11629246D01*
X8129444Y-11629246D02*
X8138967Y-11610198D01*
X8234206Y-11724484D02*
X8272301Y-11724484D01*
X8272301Y-11724484D02*
X8291348Y-11714960D01*
X8291348Y-11714960D02*
X8300872Y-11705436D01*
X8300872Y-11705436D02*
X8319920Y-11676865D01*
X8319920Y-11676865D02*
X8329444Y-11638769D01*
X8329444Y-11638769D02*
X8329444Y-11562579D01*
X8329444Y-11562579D02*
X8319920Y-11543531D01*
X8319920Y-11543531D02*
X8310396Y-11534008D01*
X8310396Y-11534008D02*
X8291348Y-11524484D01*
X8291348Y-11524484D02*
X8253253Y-11524484D01*
X8253253Y-11524484D02*
X8234206Y-11534008D01*
X8234206Y-11534008D02*
X8224682Y-11543531D01*
X8224682Y-11543531D02*
X8215158Y-11562579D01*
X8215158Y-11562579D02*
X8215158Y-11610198D01*
X8215158Y-11610198D02*
X8224682Y-11629246D01*
X8224682Y-11629246D02*
X8234206Y-11638769D01*
X8234206Y-11638769D02*
X8253253Y-11648293D01*
X8253253Y-11648293D02*
X8291348Y-11648293D01*
X8291348Y-11648293D02*
X8310396Y-11638769D01*
X8310396Y-11638769D02*
X8319920Y-11629246D01*
X8319920Y-11629246D02*
X8329444Y-11610198D01*
X8405634Y-11524484D02*
X8405634Y-11562579D01*
X8481825Y-11524484D02*
X8481825Y-11562579D01*
X8777063Y-11800674D02*
X8767539Y-11791150D01*
X8767539Y-11791150D02*
X8748491Y-11762579D01*
X8748491Y-11762579D02*
X8738968Y-11743531D01*
X8738968Y-11743531D02*
X8729444Y-11714960D01*
X8729444Y-11714960D02*
X8719920Y-11667341D01*
X8719920Y-11667341D02*
X8719920Y-11629246D01*
X8719920Y-11629246D02*
X8729444Y-11581627D01*
X8729444Y-11581627D02*
X8738968Y-11553055D01*
X8738968Y-11553055D02*
X8748491Y-11534008D01*
X8748491Y-11534008D02*
X8767539Y-11505436D01*
X8767539Y-11505436D02*
X8777063Y-11495912D01*
X8881825Y-11610198D02*
X8862777Y-11600674D01*
X8862777Y-11600674D02*
X8853253Y-11591150D01*
X8853253Y-11591150D02*
X8843730Y-11572103D01*
X8843730Y-11572103D02*
X8843730Y-11562579D01*
X8843730Y-11562579D02*
X8853253Y-11543531D01*
X8853253Y-11543531D02*
X8862777Y-11534008D01*
X8862777Y-11534008D02*
X8881825Y-11524484D01*
X8881825Y-11524484D02*
X8919920Y-11524484D01*
X8919920Y-11524484D02*
X8938968Y-11534008D01*
X8938968Y-11534008D02*
X8948491Y-11543531D01*
X8948491Y-11543531D02*
X8958015Y-11562579D01*
X8958015Y-11562579D02*
X8958015Y-11572103D01*
X8958015Y-11572103D02*
X8948491Y-11591150D01*
X8948491Y-11591150D02*
X8938968Y-11600674D01*
X8938968Y-11600674D02*
X8919920Y-11610198D01*
X8919920Y-11610198D02*
X8881825Y-11610198D01*
X8881825Y-11610198D02*
X8862777Y-11619722D01*
X8862777Y-11619722D02*
X8853253Y-11629246D01*
X8853253Y-11629246D02*
X8843730Y-11648293D01*
X8843730Y-11648293D02*
X8843730Y-11686388D01*
X8843730Y-11686388D02*
X8853253Y-11705436D01*
X8853253Y-11705436D02*
X8862777Y-11714960D01*
X8862777Y-11714960D02*
X8881825Y-11724484D01*
X8881825Y-11724484D02*
X8919920Y-11724484D01*
X8919920Y-11724484D02*
X8938968Y-11714960D01*
X8938968Y-11714960D02*
X8948491Y-11705436D01*
X8948491Y-11705436D02*
X8958015Y-11686388D01*
X8958015Y-11686388D02*
X8958015Y-11648293D01*
X8958015Y-11648293D02*
X8948491Y-11629246D01*
X8948491Y-11629246D02*
X8938968Y-11619722D01*
X8938968Y-11619722D02*
X8919920Y-11610198D01*
X9196111Y-11724484D02*
X9196111Y-11524484D01*
X9281825Y-11724484D02*
X9281825Y-11619722D01*
X9281825Y-11619722D02*
X9272301Y-11600674D01*
X9272301Y-11600674D02*
X9253253Y-11591150D01*
X9253253Y-11591150D02*
X9224682Y-11591150D01*
X9224682Y-11591150D02*
X9205634Y-11600674D01*
X9205634Y-11600674D02*
X9196111Y-11610198D01*
X9405634Y-11724484D02*
X9386587Y-11714960D01*
X9386587Y-11714960D02*
X9377063Y-11705436D01*
X9377063Y-11705436D02*
X9367539Y-11686388D01*
X9367539Y-11686388D02*
X9367539Y-11629246D01*
X9367539Y-11629246D02*
X9377063Y-11610198D01*
X9377063Y-11610198D02*
X9386587Y-11600674D01*
X9386587Y-11600674D02*
X9405634Y-11591150D01*
X9405634Y-11591150D02*
X9434206Y-11591150D01*
X9434206Y-11591150D02*
X9453253Y-11600674D01*
X9453253Y-11600674D02*
X9462777Y-11610198D01*
X9462777Y-11610198D02*
X9472301Y-11629246D01*
X9472301Y-11629246D02*
X9472301Y-11686388D01*
X9472301Y-11686388D02*
X9462777Y-11705436D01*
X9462777Y-11705436D02*
X9453253Y-11714960D01*
X9453253Y-11714960D02*
X9434206Y-11724484D01*
X9434206Y-11724484D02*
X9405634Y-11724484D01*
X9586587Y-11724484D02*
X9567539Y-11714960D01*
X9567539Y-11714960D02*
X9558015Y-11695912D01*
X9558015Y-11695912D02*
X9558015Y-11524484D01*
X9738968Y-11714960D02*
X9719920Y-11724484D01*
X9719920Y-11724484D02*
X9681825Y-11724484D01*
X9681825Y-11724484D02*
X9662777Y-11714960D01*
X9662777Y-11714960D02*
X9653253Y-11695912D01*
X9653253Y-11695912D02*
X9653253Y-11619722D01*
X9653253Y-11619722D02*
X9662777Y-11600674D01*
X9662777Y-11600674D02*
X9681825Y-11591150D01*
X9681825Y-11591150D02*
X9719920Y-11591150D01*
X9719920Y-11591150D02*
X9738968Y-11600674D01*
X9738968Y-11600674D02*
X9748492Y-11619722D01*
X9748492Y-11619722D02*
X9748492Y-11638769D01*
X9748492Y-11638769D02*
X9653253Y-11657817D01*
X9824682Y-11714960D02*
X9843730Y-11724484D01*
X9843730Y-11724484D02*
X9881825Y-11724484D01*
X9881825Y-11724484D02*
X9900873Y-11714960D01*
X9900873Y-11714960D02*
X9910396Y-11695912D01*
X9910396Y-11695912D02*
X9910396Y-11686388D01*
X9910396Y-11686388D02*
X9900873Y-11667341D01*
X9900873Y-11667341D02*
X9881825Y-11657817D01*
X9881825Y-11657817D02*
X9853253Y-11657817D01*
X9853253Y-11657817D02*
X9834206Y-11648293D01*
X9834206Y-11648293D02*
X9824682Y-11629246D01*
X9824682Y-11629246D02*
X9824682Y-11619722D01*
X9824682Y-11619722D02*
X9834206Y-11600674D01*
X9834206Y-11600674D02*
X9853253Y-11591150D01*
X9853253Y-11591150D02*
X9881825Y-11591150D01*
X9881825Y-11591150D02*
X9900873Y-11600674D01*
X9977063Y-11800674D02*
X9986587Y-11791150D01*
X9986587Y-11791150D02*
X10005634Y-11762579D01*
X10005634Y-11762579D02*
X10015158Y-11743531D01*
X10015158Y-11743531D02*
X10024682Y-11714960D01*
X10024682Y-11714960D02*
X10034206Y-11667341D01*
X10034206Y-11667341D02*
X10034206Y-11629246D01*
X10034206Y-11629246D02*
X10024682Y-11581627D01*
X10024682Y-11581627D02*
X10015158Y-11553055D01*
X10015158Y-11553055D02*
X10005634Y-11534008D01*
X10005634Y-11534008D02*
X9986587Y-11505436D01*
X9986587Y-11505436D02*
X9977063Y-11495912D01*
X10338968Y-11800674D02*
X10329444Y-11791150D01*
X10329444Y-11791150D02*
X10310396Y-11762579D01*
X10310396Y-11762579D02*
X10300873Y-11743531D01*
X10300873Y-11743531D02*
X10291349Y-11714960D01*
X10291349Y-11714960D02*
X10281825Y-11667341D01*
X10281825Y-11667341D02*
X10281825Y-11629246D01*
X10281825Y-11629246D02*
X10291349Y-11581627D01*
X10291349Y-11581627D02*
X10300873Y-11553055D01*
X10300873Y-11553055D02*
X10310396Y-11534008D01*
X10310396Y-11534008D02*
X10329444Y-11505436D01*
X10329444Y-11505436D02*
X10338968Y-11495912D01*
X10415158Y-11591150D02*
X10415158Y-11724484D01*
X10415158Y-11610198D02*
X10424682Y-11600674D01*
X10424682Y-11600674D02*
X10443730Y-11591150D01*
X10443730Y-11591150D02*
X10472301Y-11591150D01*
X10472301Y-11591150D02*
X10491349Y-11600674D01*
X10491349Y-11600674D02*
X10500873Y-11619722D01*
X10500873Y-11619722D02*
X10500873Y-11724484D01*
X10624682Y-11724484D02*
X10605634Y-11714960D01*
X10605634Y-11714960D02*
X10596111Y-11705436D01*
X10596111Y-11705436D02*
X10586587Y-11686388D01*
X10586587Y-11686388D02*
X10586587Y-11629246D01*
X10586587Y-11629246D02*
X10596111Y-11610198D01*
X10596111Y-11610198D02*
X10605634Y-11600674D01*
X10605634Y-11600674D02*
X10624682Y-11591150D01*
X10624682Y-11591150D02*
X10653254Y-11591150D01*
X10653254Y-11591150D02*
X10672301Y-11600674D01*
X10672301Y-11600674D02*
X10681825Y-11610198D01*
X10681825Y-11610198D02*
X10691349Y-11629246D01*
X10691349Y-11629246D02*
X10691349Y-11686388D01*
X10691349Y-11686388D02*
X10681825Y-11705436D01*
X10681825Y-11705436D02*
X10672301Y-11714960D01*
X10672301Y-11714960D02*
X10653254Y-11724484D01*
X10653254Y-11724484D02*
X10624682Y-11724484D01*
X10748492Y-11591150D02*
X10824682Y-11591150D01*
X10777063Y-11524484D02*
X10777063Y-11695912D01*
X10777063Y-11695912D02*
X10786587Y-11714960D01*
X10786587Y-11714960D02*
X10805634Y-11724484D01*
X10805634Y-11724484D02*
X10824682Y-11724484D01*
X11043730Y-11591150D02*
X11043730Y-11791150D01*
X11043730Y-11600674D02*
X11062777Y-11591150D01*
X11062777Y-11591150D02*
X11100873Y-11591150D01*
X11100873Y-11591150D02*
X11119920Y-11600674D01*
X11119920Y-11600674D02*
X11129444Y-11610198D01*
X11129444Y-11610198D02*
X11138968Y-11629246D01*
X11138968Y-11629246D02*
X11138968Y-11686388D01*
X11138968Y-11686388D02*
X11129444Y-11705436D01*
X11129444Y-11705436D02*
X11119920Y-11714960D01*
X11119920Y-11714960D02*
X11100873Y-11724484D01*
X11100873Y-11724484D02*
X11062777Y-11724484D01*
X11062777Y-11724484D02*
X11043730Y-11714960D01*
X11253253Y-11724484D02*
X11234206Y-11714960D01*
X11234206Y-11714960D02*
X11224682Y-11695912D01*
X11224682Y-11695912D02*
X11224682Y-11524484D01*
X11415158Y-11724484D02*
X11415158Y-11619722D01*
X11415158Y-11619722D02*
X11405634Y-11600674D01*
X11405634Y-11600674D02*
X11386587Y-11591150D01*
X11386587Y-11591150D02*
X11348492Y-11591150D01*
X11348492Y-11591150D02*
X11329444Y-11600674D01*
X11415158Y-11714960D02*
X11396111Y-11724484D01*
X11396111Y-11724484D02*
X11348492Y-11724484D01*
X11348492Y-11724484D02*
X11329444Y-11714960D01*
X11329444Y-11714960D02*
X11319920Y-11695912D01*
X11319920Y-11695912D02*
X11319920Y-11676865D01*
X11319920Y-11676865D02*
X11329444Y-11657817D01*
X11329444Y-11657817D02*
X11348492Y-11648293D01*
X11348492Y-11648293D02*
X11396111Y-11648293D01*
X11396111Y-11648293D02*
X11415158Y-11638769D01*
X11481825Y-11591150D02*
X11558015Y-11591150D01*
X11510396Y-11524484D02*
X11510396Y-11695912D01*
X11510396Y-11695912D02*
X11519920Y-11714960D01*
X11519920Y-11714960D02*
X11538968Y-11724484D01*
X11538968Y-11724484D02*
X11558015Y-11724484D01*
X11700873Y-11714960D02*
X11681825Y-11724484D01*
X11681825Y-11724484D02*
X11643730Y-11724484D01*
X11643730Y-11724484D02*
X11624682Y-11714960D01*
X11624682Y-11714960D02*
X11615158Y-11695912D01*
X11615158Y-11695912D02*
X11615158Y-11619722D01*
X11615158Y-11619722D02*
X11624682Y-11600674D01*
X11624682Y-11600674D02*
X11643730Y-11591150D01*
X11643730Y-11591150D02*
X11681825Y-11591150D01*
X11681825Y-11591150D02*
X11700873Y-11600674D01*
X11700873Y-11600674D02*
X11710396Y-11619722D01*
X11710396Y-11619722D02*
X11710396Y-11638769D01*
X11710396Y-11638769D02*
X11615158Y-11657817D01*
X11881825Y-11724484D02*
X11881825Y-11524484D01*
X11881825Y-11714960D02*
X11862777Y-11724484D01*
X11862777Y-11724484D02*
X11824682Y-11724484D01*
X11824682Y-11724484D02*
X11805634Y-11714960D01*
X11805634Y-11714960D02*
X11796111Y-11705436D01*
X11796111Y-11705436D02*
X11786587Y-11686388D01*
X11786587Y-11686388D02*
X11786587Y-11629246D01*
X11786587Y-11629246D02*
X11796111Y-11610198D01*
X11796111Y-11610198D02*
X11805634Y-11600674D01*
X11805634Y-11600674D02*
X11824682Y-11591150D01*
X11824682Y-11591150D02*
X11862777Y-11591150D01*
X11862777Y-11591150D02*
X11881825Y-11600674D01*
X11958015Y-11800674D02*
X11967539Y-11791150D01*
X11967539Y-11791150D02*
X11986587Y-11762579D01*
X11986587Y-11762579D02*
X11996111Y-11743531D01*
X11996111Y-11743531D02*
X12005634Y-11714960D01*
X12005634Y-11714960D02*
X12015158Y-11667341D01*
X12015158Y-11667341D02*
X12015158Y-11629246D01*
X12015158Y-11629246D02*
X12005634Y-11581627D01*
X12005634Y-11581627D02*
X11996111Y-11553055D01*
X11996111Y-11553055D02*
X11986587Y-11534008D01*
X11986587Y-11534008D02*
X11967539Y-11505436D01*
X11967539Y-11505436D02*
X11958015Y-11495912D01*
X5102000Y-11853000D02*
X5102000Y-12053000D01*
X5002000Y-11953000D02*
X5202000Y-11953000D01*
X5443729Y-11844484D02*
X5567539Y-11844484D01*
X5567539Y-11844484D02*
X5500872Y-11920674D01*
X5500872Y-11920674D02*
X5529444Y-11920674D01*
X5529444Y-11920674D02*
X5548491Y-11930198D01*
X5548491Y-11930198D02*
X5558015Y-11939722D01*
X5558015Y-11939722D02*
X5567539Y-11958769D01*
X5567539Y-11958769D02*
X5567539Y-12006388D01*
X5567539Y-12006388D02*
X5558015Y-12025436D01*
X5558015Y-12025436D02*
X5548491Y-12034960D01*
X5548491Y-12034960D02*
X5529444Y-12044484D01*
X5529444Y-12044484D02*
X5472301Y-12044484D01*
X5472301Y-12044484D02*
X5453253Y-12034960D01*
X5453253Y-12034960D02*
X5443729Y-12025436D01*
X5653253Y-12025436D02*
X5662777Y-12034960D01*
X5662777Y-12034960D02*
X5653253Y-12044484D01*
X5653253Y-12044484D02*
X5643729Y-12034960D01*
X5643729Y-12034960D02*
X5653253Y-12025436D01*
X5653253Y-12025436D02*
X5653253Y-12044484D01*
X5843729Y-11844484D02*
X5748491Y-11844484D01*
X5748491Y-11844484D02*
X5738967Y-11939722D01*
X5738967Y-11939722D02*
X5748491Y-11930198D01*
X5748491Y-11930198D02*
X5767539Y-11920674D01*
X5767539Y-11920674D02*
X5815158Y-11920674D01*
X5815158Y-11920674D02*
X5834205Y-11930198D01*
X5834205Y-11930198D02*
X5843729Y-11939722D01*
X5843729Y-11939722D02*
X5853253Y-11958769D01*
X5853253Y-11958769D02*
X5853253Y-12006388D01*
X5853253Y-12006388D02*
X5843729Y-12025436D01*
X5843729Y-12025436D02*
X5834205Y-12034960D01*
X5834205Y-12034960D02*
X5815158Y-12044484D01*
X5815158Y-12044484D02*
X5767539Y-12044484D01*
X5767539Y-12044484D02*
X5748491Y-12034960D01*
X5748491Y-12034960D02*
X5738967Y-12025436D01*
X5977062Y-11844484D02*
X5996110Y-11844484D01*
X5996110Y-11844484D02*
X6015158Y-11854008D01*
X6015158Y-11854008D02*
X6024682Y-11863531D01*
X6024682Y-11863531D02*
X6034205Y-11882579D01*
X6034205Y-11882579D02*
X6043729Y-11920674D01*
X6043729Y-11920674D02*
X6043729Y-11968293D01*
X6043729Y-11968293D02*
X6034205Y-12006388D01*
X6034205Y-12006388D02*
X6024682Y-12025436D01*
X6024682Y-12025436D02*
X6015158Y-12034960D01*
X6015158Y-12034960D02*
X5996110Y-12044484D01*
X5996110Y-12044484D02*
X5977062Y-12044484D01*
X5977062Y-12044484D02*
X5958015Y-12034960D01*
X5958015Y-12034960D02*
X5948491Y-12025436D01*
X5948491Y-12025436D02*
X5938967Y-12006388D01*
X5938967Y-12006388D02*
X5929443Y-11968293D01*
X5929443Y-11968293D02*
X5929443Y-11920674D01*
X5929443Y-11920674D02*
X5938967Y-11882579D01*
X5938967Y-11882579D02*
X5948491Y-11863531D01*
X5948491Y-11863531D02*
X5958015Y-11854008D01*
X5958015Y-11854008D02*
X5977062Y-11844484D01*
X6167539Y-11844484D02*
X6186586Y-11844484D01*
X6186586Y-11844484D02*
X6205634Y-11854008D01*
X6205634Y-11854008D02*
X6215158Y-11863531D01*
X6215158Y-11863531D02*
X6224682Y-11882579D01*
X6224682Y-11882579D02*
X6234205Y-11920674D01*
X6234205Y-11920674D02*
X6234205Y-11968293D01*
X6234205Y-11968293D02*
X6224682Y-12006388D01*
X6224682Y-12006388D02*
X6215158Y-12025436D01*
X6215158Y-12025436D02*
X6205634Y-12034960D01*
X6205634Y-12034960D02*
X6186586Y-12044484D01*
X6186586Y-12044484D02*
X6167539Y-12044484D01*
X6167539Y-12044484D02*
X6148491Y-12034960D01*
X6148491Y-12034960D02*
X6138967Y-12025436D01*
X6138967Y-12025436D02*
X6129443Y-12006388D01*
X6129443Y-12006388D02*
X6119920Y-11968293D01*
X6119920Y-11968293D02*
X6119920Y-11920674D01*
X6119920Y-11920674D02*
X6129443Y-11882579D01*
X6129443Y-11882579D02*
X6138967Y-11863531D01*
X6138967Y-11863531D02*
X6148491Y-11854008D01*
X6148491Y-11854008D02*
X6167539Y-11844484D01*
X6319920Y-12044484D02*
X6319920Y-11911150D01*
X6319920Y-11930198D02*
X6329443Y-11920674D01*
X6329443Y-11920674D02*
X6348491Y-11911150D01*
X6348491Y-11911150D02*
X6377063Y-11911150D01*
X6377063Y-11911150D02*
X6396110Y-11920674D01*
X6396110Y-11920674D02*
X6405634Y-11939722D01*
X6405634Y-11939722D02*
X6405634Y-12044484D01*
X6405634Y-11939722D02*
X6415158Y-11920674D01*
X6415158Y-11920674D02*
X6434205Y-11911150D01*
X6434205Y-11911150D02*
X6462777Y-11911150D01*
X6462777Y-11911150D02*
X6481824Y-11920674D01*
X6481824Y-11920674D02*
X6491348Y-11939722D01*
X6491348Y-11939722D02*
X6491348Y-12044484D01*
X6586586Y-12044484D02*
X6586586Y-11911150D01*
X6586586Y-11930198D02*
X6596110Y-11920674D01*
X6596110Y-11920674D02*
X6615158Y-11911150D01*
X6615158Y-11911150D02*
X6643729Y-11911150D01*
X6643729Y-11911150D02*
X6662777Y-11920674D01*
X6662777Y-11920674D02*
X6672301Y-11939722D01*
X6672301Y-11939722D02*
X6672301Y-12044484D01*
X6672301Y-11939722D02*
X6681824Y-11920674D01*
X6681824Y-11920674D02*
X6700872Y-11911150D01*
X6700872Y-11911150D02*
X6729443Y-11911150D01*
X6729443Y-11911150D02*
X6748491Y-11920674D01*
X6748491Y-11920674D02*
X6758015Y-11939722D01*
X6758015Y-11939722D02*
X6758015Y-12044484D01*
X7148491Y-11834960D02*
X6977063Y-12092103D01*
X7405634Y-11844484D02*
X7424682Y-11844484D01*
X7424682Y-11844484D02*
X7443729Y-11854008D01*
X7443729Y-11854008D02*
X7453253Y-11863531D01*
X7453253Y-11863531D02*
X7462777Y-11882579D01*
X7462777Y-11882579D02*
X7472301Y-11920674D01*
X7472301Y-11920674D02*
X7472301Y-11968293D01*
X7472301Y-11968293D02*
X7462777Y-12006388D01*
X7462777Y-12006388D02*
X7453253Y-12025436D01*
X7453253Y-12025436D02*
X7443729Y-12034960D01*
X7443729Y-12034960D02*
X7424682Y-12044484D01*
X7424682Y-12044484D02*
X7405634Y-12044484D01*
X7405634Y-12044484D02*
X7386586Y-12034960D01*
X7386586Y-12034960D02*
X7377063Y-12025436D01*
X7377063Y-12025436D02*
X7367539Y-12006388D01*
X7367539Y-12006388D02*
X7358015Y-11968293D01*
X7358015Y-11968293D02*
X7358015Y-11920674D01*
X7358015Y-11920674D02*
X7367539Y-11882579D01*
X7367539Y-11882579D02*
X7377063Y-11863531D01*
X7377063Y-11863531D02*
X7386586Y-11854008D01*
X7386586Y-11854008D02*
X7405634Y-11844484D01*
X7558015Y-12025436D02*
X7567539Y-12034960D01*
X7567539Y-12034960D02*
X7558015Y-12044484D01*
X7558015Y-12044484D02*
X7548491Y-12034960D01*
X7548491Y-12034960D02*
X7558015Y-12025436D01*
X7558015Y-12025436D02*
X7558015Y-12044484D01*
X7758015Y-12044484D02*
X7643729Y-12044484D01*
X7700872Y-12044484D02*
X7700872Y-11844484D01*
X7700872Y-11844484D02*
X7681825Y-11873055D01*
X7681825Y-11873055D02*
X7662777Y-11892103D01*
X7662777Y-11892103D02*
X7643729Y-11901627D01*
X7824682Y-11844484D02*
X7948491Y-11844484D01*
X7948491Y-11844484D02*
X7881825Y-11920674D01*
X7881825Y-11920674D02*
X7910396Y-11920674D01*
X7910396Y-11920674D02*
X7929444Y-11930198D01*
X7929444Y-11930198D02*
X7938967Y-11939722D01*
X7938967Y-11939722D02*
X7948491Y-11958769D01*
X7948491Y-11958769D02*
X7948491Y-12006388D01*
X7948491Y-12006388D02*
X7938967Y-12025436D01*
X7938967Y-12025436D02*
X7929444Y-12034960D01*
X7929444Y-12034960D02*
X7910396Y-12044484D01*
X7910396Y-12044484D02*
X7853253Y-12044484D01*
X7853253Y-12044484D02*
X7834206Y-12034960D01*
X7834206Y-12034960D02*
X7824682Y-12025436D01*
X8015158Y-11844484D02*
X8148491Y-11844484D01*
X8148491Y-11844484D02*
X8062777Y-12044484D01*
X8253253Y-11930198D02*
X8234206Y-11920674D01*
X8234206Y-11920674D02*
X8224682Y-11911150D01*
X8224682Y-11911150D02*
X8215158Y-11892103D01*
X8215158Y-11892103D02*
X8215158Y-11882579D01*
X8215158Y-11882579D02*
X8224682Y-11863531D01*
X8224682Y-11863531D02*
X8234206Y-11854008D01*
X8234206Y-11854008D02*
X8253253Y-11844484D01*
X8253253Y-11844484D02*
X8291348Y-11844484D01*
X8291348Y-11844484D02*
X8310396Y-11854008D01*
X8310396Y-11854008D02*
X8319920Y-11863531D01*
X8319920Y-11863531D02*
X8329444Y-11882579D01*
X8329444Y-11882579D02*
X8329444Y-11892103D01*
X8329444Y-11892103D02*
X8319920Y-11911150D01*
X8319920Y-11911150D02*
X8310396Y-11920674D01*
X8310396Y-11920674D02*
X8291348Y-11930198D01*
X8291348Y-11930198D02*
X8253253Y-11930198D01*
X8253253Y-11930198D02*
X8234206Y-11939722D01*
X8234206Y-11939722D02*
X8224682Y-11949246D01*
X8224682Y-11949246D02*
X8215158Y-11968293D01*
X8215158Y-11968293D02*
X8215158Y-12006388D01*
X8215158Y-12006388D02*
X8224682Y-12025436D01*
X8224682Y-12025436D02*
X8234206Y-12034960D01*
X8234206Y-12034960D02*
X8253253Y-12044484D01*
X8253253Y-12044484D02*
X8291348Y-12044484D01*
X8291348Y-12044484D02*
X8310396Y-12034960D01*
X8310396Y-12034960D02*
X8319920Y-12025436D01*
X8319920Y-12025436D02*
X8329444Y-12006388D01*
X8329444Y-12006388D02*
X8329444Y-11968293D01*
X8329444Y-11968293D02*
X8319920Y-11949246D01*
X8319920Y-11949246D02*
X8310396Y-11939722D01*
X8310396Y-11939722D02*
X8291348Y-11930198D01*
X8405634Y-11844484D02*
X8405634Y-11882579D01*
X8481825Y-11844484D02*
X8481825Y-11882579D01*
X8777063Y-12120674D02*
X8767539Y-12111150D01*
X8767539Y-12111150D02*
X8748491Y-12082579D01*
X8748491Y-12082579D02*
X8738968Y-12063531D01*
X8738968Y-12063531D02*
X8729444Y-12034960D01*
X8729444Y-12034960D02*
X8719920Y-11987341D01*
X8719920Y-11987341D02*
X8719920Y-11949246D01*
X8719920Y-11949246D02*
X8729444Y-11901627D01*
X8729444Y-11901627D02*
X8738968Y-11873055D01*
X8738968Y-11873055D02*
X8748491Y-11854008D01*
X8748491Y-11854008D02*
X8767539Y-11825436D01*
X8767539Y-11825436D02*
X8777063Y-11815912D01*
X8843730Y-11863531D02*
X8853253Y-11854008D01*
X8853253Y-11854008D02*
X8872301Y-11844484D01*
X8872301Y-11844484D02*
X8919920Y-11844484D01*
X8919920Y-11844484D02*
X8938968Y-11854008D01*
X8938968Y-11854008D02*
X8948491Y-11863531D01*
X8948491Y-11863531D02*
X8958015Y-11882579D01*
X8958015Y-11882579D02*
X8958015Y-11901627D01*
X8958015Y-11901627D02*
X8948491Y-11930198D01*
X8948491Y-11930198D02*
X8834206Y-12044484D01*
X8834206Y-12044484D02*
X8958015Y-12044484D01*
X9196111Y-12044484D02*
X9196111Y-11844484D01*
X9281825Y-12044484D02*
X9281825Y-11939722D01*
X9281825Y-11939722D02*
X9272301Y-11920674D01*
X9272301Y-11920674D02*
X9253253Y-11911150D01*
X9253253Y-11911150D02*
X9224682Y-11911150D01*
X9224682Y-11911150D02*
X9205634Y-11920674D01*
X9205634Y-11920674D02*
X9196111Y-11930198D01*
X9405634Y-12044484D02*
X9386587Y-12034960D01*
X9386587Y-12034960D02*
X9377063Y-12025436D01*
X9377063Y-12025436D02*
X9367539Y-12006388D01*
X9367539Y-12006388D02*
X9367539Y-11949246D01*
X9367539Y-11949246D02*
X9377063Y-11930198D01*
X9377063Y-11930198D02*
X9386587Y-11920674D01*
X9386587Y-11920674D02*
X9405634Y-11911150D01*
X9405634Y-11911150D02*
X9434206Y-11911150D01*
X9434206Y-11911150D02*
X9453253Y-11920674D01*
X9453253Y-11920674D02*
X9462777Y-11930198D01*
X9462777Y-11930198D02*
X9472301Y-11949246D01*
X9472301Y-11949246D02*
X9472301Y-12006388D01*
X9472301Y-12006388D02*
X9462777Y-12025436D01*
X9462777Y-12025436D02*
X9453253Y-12034960D01*
X9453253Y-12034960D02*
X9434206Y-12044484D01*
X9434206Y-12044484D02*
X9405634Y-12044484D01*
X9586587Y-12044484D02*
X9567539Y-12034960D01*
X9567539Y-12034960D02*
X9558015Y-12015912D01*
X9558015Y-12015912D02*
X9558015Y-11844484D01*
X9738968Y-12034960D02*
X9719920Y-12044484D01*
X9719920Y-12044484D02*
X9681825Y-12044484D01*
X9681825Y-12044484D02*
X9662777Y-12034960D01*
X9662777Y-12034960D02*
X9653253Y-12015912D01*
X9653253Y-12015912D02*
X9653253Y-11939722D01*
X9653253Y-11939722D02*
X9662777Y-11920674D01*
X9662777Y-11920674D02*
X9681825Y-11911150D01*
X9681825Y-11911150D02*
X9719920Y-11911150D01*
X9719920Y-11911150D02*
X9738968Y-11920674D01*
X9738968Y-11920674D02*
X9748492Y-11939722D01*
X9748492Y-11939722D02*
X9748492Y-11958769D01*
X9748492Y-11958769D02*
X9653253Y-11977817D01*
X9824682Y-12034960D02*
X9843730Y-12044484D01*
X9843730Y-12044484D02*
X9881825Y-12044484D01*
X9881825Y-12044484D02*
X9900873Y-12034960D01*
X9900873Y-12034960D02*
X9910396Y-12015912D01*
X9910396Y-12015912D02*
X9910396Y-12006388D01*
X9910396Y-12006388D02*
X9900873Y-11987341D01*
X9900873Y-11987341D02*
X9881825Y-11977817D01*
X9881825Y-11977817D02*
X9853253Y-11977817D01*
X9853253Y-11977817D02*
X9834206Y-11968293D01*
X9834206Y-11968293D02*
X9824682Y-11949246D01*
X9824682Y-11949246D02*
X9824682Y-11939722D01*
X9824682Y-11939722D02*
X9834206Y-11920674D01*
X9834206Y-11920674D02*
X9853253Y-11911150D01*
X9853253Y-11911150D02*
X9881825Y-11911150D01*
X9881825Y-11911150D02*
X9900873Y-11920674D01*
X9977063Y-12120674D02*
X9986587Y-12111150D01*
X9986587Y-12111150D02*
X10005634Y-12082579D01*
X10005634Y-12082579D02*
X10015158Y-12063531D01*
X10015158Y-12063531D02*
X10024682Y-12034960D01*
X10024682Y-12034960D02*
X10034206Y-11987341D01*
X10034206Y-11987341D02*
X10034206Y-11949246D01*
X10034206Y-11949246D02*
X10024682Y-11901627D01*
X10024682Y-11901627D02*
X10015158Y-11873055D01*
X10015158Y-11873055D02*
X10005634Y-11854008D01*
X10005634Y-11854008D02*
X9986587Y-11825436D01*
X9986587Y-11825436D02*
X9977063Y-11815912D01*
X10338968Y-12120674D02*
X10329444Y-12111150D01*
X10329444Y-12111150D02*
X10310396Y-12082579D01*
X10310396Y-12082579D02*
X10300873Y-12063531D01*
X10300873Y-12063531D02*
X10291349Y-12034960D01*
X10291349Y-12034960D02*
X10281825Y-11987341D01*
X10281825Y-11987341D02*
X10281825Y-11949246D01*
X10281825Y-11949246D02*
X10291349Y-11901627D01*
X10291349Y-11901627D02*
X10300873Y-11873055D01*
X10300873Y-11873055D02*
X10310396Y-11854008D01*
X10310396Y-11854008D02*
X10329444Y-11825436D01*
X10329444Y-11825436D02*
X10338968Y-11815912D01*
X10415158Y-11911150D02*
X10415158Y-12044484D01*
X10415158Y-11930198D02*
X10424682Y-11920674D01*
X10424682Y-11920674D02*
X10443730Y-11911150D01*
X10443730Y-11911150D02*
X10472301Y-11911150D01*
X10472301Y-11911150D02*
X10491349Y-11920674D01*
X10491349Y-11920674D02*
X10500873Y-11939722D01*
X10500873Y-11939722D02*
X10500873Y-12044484D01*
X10624682Y-12044484D02*
X10605634Y-12034960D01*
X10605634Y-12034960D02*
X10596111Y-12025436D01*
X10596111Y-12025436D02*
X10586587Y-12006388D01*
X10586587Y-12006388D02*
X10586587Y-11949246D01*
X10586587Y-11949246D02*
X10596111Y-11930198D01*
X10596111Y-11930198D02*
X10605634Y-11920674D01*
X10605634Y-11920674D02*
X10624682Y-11911150D01*
X10624682Y-11911150D02*
X10653254Y-11911150D01*
X10653254Y-11911150D02*
X10672301Y-11920674D01*
X10672301Y-11920674D02*
X10681825Y-11930198D01*
X10681825Y-11930198D02*
X10691349Y-11949246D01*
X10691349Y-11949246D02*
X10691349Y-12006388D01*
X10691349Y-12006388D02*
X10681825Y-12025436D01*
X10681825Y-12025436D02*
X10672301Y-12034960D01*
X10672301Y-12034960D02*
X10653254Y-12044484D01*
X10653254Y-12044484D02*
X10624682Y-12044484D01*
X10748492Y-11911150D02*
X10824682Y-11911150D01*
X10777063Y-11844484D02*
X10777063Y-12015912D01*
X10777063Y-12015912D02*
X10786587Y-12034960D01*
X10786587Y-12034960D02*
X10805634Y-12044484D01*
X10805634Y-12044484D02*
X10824682Y-12044484D01*
X11043730Y-11911150D02*
X11043730Y-12111150D01*
X11043730Y-11920674D02*
X11062777Y-11911150D01*
X11062777Y-11911150D02*
X11100873Y-11911150D01*
X11100873Y-11911150D02*
X11119920Y-11920674D01*
X11119920Y-11920674D02*
X11129444Y-11930198D01*
X11129444Y-11930198D02*
X11138968Y-11949246D01*
X11138968Y-11949246D02*
X11138968Y-12006388D01*
X11138968Y-12006388D02*
X11129444Y-12025436D01*
X11129444Y-12025436D02*
X11119920Y-12034960D01*
X11119920Y-12034960D02*
X11100873Y-12044484D01*
X11100873Y-12044484D02*
X11062777Y-12044484D01*
X11062777Y-12044484D02*
X11043730Y-12034960D01*
X11253253Y-12044484D02*
X11234206Y-12034960D01*
X11234206Y-12034960D02*
X11224682Y-12015912D01*
X11224682Y-12015912D02*
X11224682Y-11844484D01*
X11415158Y-12044484D02*
X11415158Y-11939722D01*
X11415158Y-11939722D02*
X11405634Y-11920674D01*
X11405634Y-11920674D02*
X11386587Y-11911150D01*
X11386587Y-11911150D02*
X11348492Y-11911150D01*
X11348492Y-11911150D02*
X11329444Y-11920674D01*
X11415158Y-12034960D02*
X11396111Y-12044484D01*
X11396111Y-12044484D02*
X11348492Y-12044484D01*
X11348492Y-12044484D02*
X11329444Y-12034960D01*
X11329444Y-12034960D02*
X11319920Y-12015912D01*
X11319920Y-12015912D02*
X11319920Y-11996865D01*
X11319920Y-11996865D02*
X11329444Y-11977817D01*
X11329444Y-11977817D02*
X11348492Y-11968293D01*
X11348492Y-11968293D02*
X11396111Y-11968293D01*
X11396111Y-11968293D02*
X11415158Y-11958769D01*
X11481825Y-11911150D02*
X11558015Y-11911150D01*
X11510396Y-11844484D02*
X11510396Y-12015912D01*
X11510396Y-12015912D02*
X11519920Y-12034960D01*
X11519920Y-12034960D02*
X11538968Y-12044484D01*
X11538968Y-12044484D02*
X11558015Y-12044484D01*
X11700873Y-12034960D02*
X11681825Y-12044484D01*
X11681825Y-12044484D02*
X11643730Y-12044484D01*
X11643730Y-12044484D02*
X11624682Y-12034960D01*
X11624682Y-12034960D02*
X11615158Y-12015912D01*
X11615158Y-12015912D02*
X11615158Y-11939722D01*
X11615158Y-11939722D02*
X11624682Y-11920674D01*
X11624682Y-11920674D02*
X11643730Y-11911150D01*
X11643730Y-11911150D02*
X11681825Y-11911150D01*
X11681825Y-11911150D02*
X11700873Y-11920674D01*
X11700873Y-11920674D02*
X11710396Y-11939722D01*
X11710396Y-11939722D02*
X11710396Y-11958769D01*
X11710396Y-11958769D02*
X11615158Y-11977817D01*
X11881825Y-12044484D02*
X11881825Y-11844484D01*
X11881825Y-12034960D02*
X11862777Y-12044484D01*
X11862777Y-12044484D02*
X11824682Y-12044484D01*
X11824682Y-12044484D02*
X11805634Y-12034960D01*
X11805634Y-12034960D02*
X11796111Y-12025436D01*
X11796111Y-12025436D02*
X11786587Y-12006388D01*
X11786587Y-12006388D02*
X11786587Y-11949246D01*
X11786587Y-11949246D02*
X11796111Y-11930198D01*
X11796111Y-11930198D02*
X11805634Y-11920674D01*
X11805634Y-11920674D02*
X11824682Y-11911150D01*
X11824682Y-11911150D02*
X11862777Y-11911150D01*
X11862777Y-11911150D02*
X11881825Y-11920674D01*
X11958015Y-12120674D02*
X11967539Y-12111150D01*
X11967539Y-12111150D02*
X11986587Y-12082579D01*
X11986587Y-12082579D02*
X11996111Y-12063531D01*
X11996111Y-12063531D02*
X12005634Y-12034960D01*
X12005634Y-12034960D02*
X12015158Y-11987341D01*
X12015158Y-11987341D02*
X12015158Y-11949246D01*
X12015158Y-11949246D02*
X12005634Y-11901627D01*
X12005634Y-11901627D02*
X11996111Y-11873055D01*
X11996111Y-11873055D02*
X11986587Y-11854008D01*
X11986587Y-11854008D02*
X11967539Y-11825436D01*
X11967539Y-11825436D02*
X11958015Y-11815912D01*
M02*
