M48
; DRILL file {KiCad 8.0.2} date 2024-05-19T17:08:07+0100
; FORMAT={-:-/ absolute / metric / decimal}
; #@! TF.CreationDate,2024-05-19T17:08:07+01:00
; #@! TF.GenerationSoftware,Kicad,Pcbnew,8.0.2
; #@! TF.FileFunction,Plated,1,2,PTH
FMAT,2
METRIC
; #@! TA.AperFunction,Plated,PTH,ViaDrill
T1C0.400
; #@! TA.AperFunction,Plated,PTH,ComponentDrill
T2C0.800
; #@! TA.AperFunction,Plated,PTH,ComponentDrill
T3C0.900
; #@! TA.AperFunction,Plated,PTH,ComponentDrill
T4C1.100
; #@! TA.AperFunction,Plated,PTH,ComponentDrill
T5C1.300
; #@! TA.AperFunction,Plated,PTH,ComponentDrill
T6C1.500
; #@! TA.AperFunction,Plated,PTH,ComponentDrill
T7C1.700
; #@! TA.AperFunction,Plated,PTH,ComponentDrill
T8C1.800
%
G90
G05
T1
X77.47Y-69.215
X97.79Y-66.04
X105.41Y-53.34
X105.41Y-69.85
X116.84Y-27.94
X116.84Y-87.63
X124.46Y-27.305
X128.27Y-96.52
X130.81Y-27.94
X137.16Y-26.67
X137.795Y-29.21
X140.97Y-68.58
X143.51Y-24.15
X144.78Y-29.21
X147.32Y-43.18
X148.59Y-102.87
X149.86Y-52.07
X151.13Y-57.15
X156.21Y-54.61
X156.21Y-57.15
X158.75Y-35.56
X158.75Y-41.275
X158.75Y-46.99
X159.385Y-67.945
X160.02Y-34.29
X164.465Y-62.865
X165.1Y-25.4
X165.1Y-38.1
X165.1Y-57.15
X166.37Y-32.385
X167.005Y-52.705
X175.26Y-38.1
X175.26Y-45.72
X176.53Y-34.29
X177.8Y-91.44
X181.61Y-57.15
X184.15Y-33.655
X185.42Y-66.04
X187.96Y-87.63
X189.23Y-87.63
T2
X84.455Y-57.15
X84.455Y-64.77
X87.63Y-57.15
X87.63Y-64.77
X92.7Y-57.155
X92.7Y-62.235
X92.7Y-67.315
X92.7Y-72.395
X95.24Y-59.695
X95.24Y-69.855
X101.6Y-57.15
X101.6Y-59.69
X101.6Y-62.23
X101.6Y-64.77
X101.6Y-67.31
X101.6Y-69.85
X101.6Y-72.39
X102.235Y-76.835
X109.22Y-57.15
X109.22Y-59.69
X109.22Y-62.23
X109.22Y-64.77
X109.22Y-67.31
X109.22Y-69.85
X109.22Y-72.39
X109.855Y-76.835
X114.79Y-77.47
X114.79Y-80.01
X114.79Y-82.55
X114.79Y-85.09
X114.79Y-87.63
X114.79Y-90.17
X114.79Y-92.71
X115.56Y-59.695
X115.56Y-69.855
X115.57Y-102.87
X116.84Y-52.07
X118.1Y-57.155
X118.1Y-62.235
X118.1Y-67.315
X118.1Y-72.395
X120.65Y-25.4
X120.65Y-27.94
X120.65Y-30.48
X120.65Y-33.02
X120.65Y-35.56
X120.65Y-38.1
X120.65Y-40.64
X122.41Y-77.47
X122.41Y-80.01
X122.41Y-82.55
X122.41Y-85.09
X122.41Y-87.63
X122.41Y-90.17
X122.41Y-92.71
X123.19Y-102.87
X124.46Y-52.07
X127.0Y-52.07
X128.27Y-25.4
X128.27Y-27.94
X128.27Y-30.48
X128.27Y-33.02
X128.27Y-35.56
X128.27Y-38.1
X128.27Y-40.64
X129.54Y-55.88
X129.54Y-58.42
X129.54Y-60.96
X129.54Y-63.5
X129.54Y-66.04
X129.54Y-68.58
X129.54Y-71.12
X129.54Y-73.66
X130.81Y-80.01
X130.81Y-82.55
X130.81Y-85.09
X130.81Y-87.63
X130.81Y-90.17
X130.81Y-92.71
X130.81Y-95.25
X130.81Y-97.79
X130.81Y-100.33
X130.81Y-102.87
X133.35Y-25.4
X133.35Y-27.94
X133.35Y-30.48
X133.35Y-33.02
X133.35Y-35.56
X133.35Y-38.1
X133.35Y-40.64
X134.62Y-52.07
X137.16Y-55.88
X137.16Y-58.42
X137.16Y-60.96
X137.16Y-63.5
X137.16Y-66.04
X137.16Y-68.58
X137.16Y-71.12
X137.16Y-73.66
X138.43Y-80.01
X138.43Y-82.55
X138.43Y-85.09
X138.43Y-87.63
X138.43Y-90.17
X138.43Y-92.71
X138.43Y-95.25
X138.43Y-97.79
X138.43Y-100.33
X138.43Y-102.87
X140.97Y-25.4
X140.97Y-27.94
X140.97Y-30.48
X140.97Y-33.02
X140.97Y-35.56
X140.97Y-38.1
X140.97Y-40.64
X143.51Y-102.87
X146.05Y-25.4
X146.05Y-27.94
X146.05Y-30.48
X146.05Y-33.02
X146.05Y-35.56
X146.05Y-38.1
X146.05Y-40.64
X146.05Y-45.72
X146.05Y-48.26
X146.05Y-50.8
X146.05Y-53.34
X146.05Y-55.88
X146.05Y-58.42
X146.05Y-60.96
X146.05Y-63.5
X146.05Y-68.58
X146.05Y-71.12
X146.05Y-73.66
X146.05Y-76.2
X146.05Y-78.74
X146.05Y-81.28
X146.05Y-83.82
X146.05Y-86.36
X151.13Y-102.87
X153.67Y-25.4
X153.67Y-27.94
X153.67Y-30.48
X153.67Y-33.02
X153.67Y-35.56
X153.67Y-38.1
X153.67Y-40.64
X153.67Y-45.72
X153.67Y-48.26
X153.67Y-50.8
X153.67Y-53.34
X153.67Y-55.88
X153.67Y-58.42
X153.67Y-60.96
X153.67Y-63.5
X153.67Y-68.58
X153.67Y-71.12
X153.67Y-73.66
X153.67Y-76.2
X153.67Y-78.74
X153.67Y-81.28
X153.67Y-83.82
X153.67Y-86.36
X153.67Y-102.87
X161.29Y-102.87
X162.56Y-30.475
X162.56Y-33.015
X162.56Y-35.555
X162.56Y-38.095
X162.56Y-40.635
X162.56Y-43.175
X162.56Y-45.715
X162.56Y-50.8
X162.56Y-53.34
X162.56Y-55.88
X162.56Y-58.42
X162.56Y-60.96
X162.56Y-63.5
X162.56Y-66.04
X162.56Y-71.12
X162.56Y-73.66
X162.56Y-76.2
X162.56Y-78.74
X162.56Y-81.28
X162.56Y-83.82
X162.56Y-86.36
X166.37Y-102.87
X170.18Y-30.475
X170.18Y-33.015
X170.18Y-35.555
X170.18Y-38.095
X170.18Y-40.635
X170.18Y-43.175
X170.18Y-45.715
X170.18Y-50.8
X170.18Y-53.34
X170.18Y-55.88
X170.18Y-58.42
X170.18Y-60.96
X170.18Y-63.5
X170.18Y-66.04
X170.18Y-71.12
X170.18Y-73.66
X170.18Y-76.2
X170.18Y-78.74
X170.18Y-81.28
X170.18Y-83.82
X170.18Y-86.36
X173.99Y-102.87
X176.53Y-102.87
X179.06Y-26.585
X179.06Y-29.125
X179.06Y-31.665
X179.06Y-34.205
X179.06Y-36.745
X179.06Y-39.285
X179.06Y-41.825
X179.06Y-46.905
X179.06Y-49.445
X179.06Y-51.985
X179.06Y-54.525
X179.06Y-57.065
X179.06Y-59.605
X179.06Y-62.145
X179.07Y-71.04
X179.07Y-73.58
X179.07Y-76.12
X179.07Y-78.66
X179.07Y-81.2
X179.07Y-83.74
X179.07Y-86.28
X184.15Y-102.87
X186.68Y-26.585
X186.68Y-29.125
X186.68Y-31.665
X186.68Y-34.205
X186.68Y-36.745
X186.68Y-39.285
X186.68Y-41.825
X186.68Y-46.905
X186.68Y-49.445
X186.68Y-51.985
X186.68Y-54.525
X186.68Y-57.065
X186.68Y-59.605
X186.68Y-62.145
X186.69Y-71.04
X186.69Y-73.58
X186.69Y-76.12
X186.69Y-78.66
X186.69Y-81.2
X186.69Y-83.74
X186.69Y-86.28
X191.77Y-73.58
X191.77Y-79.93
X191.77Y-87.55
X194.31Y-71.04
X194.31Y-76.12
X196.85Y-81.28
X196.85Y-86.28
T3
X118.11Y-97.79
X120.65Y-46.99
X120.65Y-97.79
X123.19Y-46.99
X129.54Y-46.99
X132.08Y-46.99
X146.05Y-97.79
X148.59Y-97.79
X156.21Y-97.79
X158.75Y-97.79
X168.91Y-97.79
X171.45Y-97.79
X179.07Y-97.79
X181.61Y-97.79
T4
X100.33Y-103.505
X103.505Y-98.765
X106.045Y-98.765
X108.585Y-98.765
X110.49Y-43.52
X110.49Y-103.505
X113.03Y-43.52
X115.57Y-43.52
T5
X85.17Y-78.89
X85.17Y-89.09
X90.17Y-91.59
X95.17Y-78.89
X95.17Y-89.09
T6
X79.375Y-48.26
X79.375Y-53.975
X190.5Y-93.345
X195.58Y-93.345
T7
X92.39Y-41.91
X97.79Y-41.91
T8
X71.75Y-32.53
X71.75Y-36.83
X71.75Y-41.13
X71.75Y-60.47
X71.75Y-64.77
X71.75Y-69.07
X71.75Y-88.41
X71.75Y-92.71
X71.75Y-97.01
M30
