%TF.GenerationSoftware,KiCad,Pcbnew,8.0.2*%
%TF.CreationDate,2024-05-19T17:08:04+01:00*%
%TF.ProjectId,New BSPD,4e657720-4253-4504-942e-6b696361645f,rev?*%
%TF.SameCoordinates,Original*%
%TF.FileFunction,Legend,Top*%
%TF.FilePolarity,Positive*%
%FSLAX46Y46*%
G04 Gerber Fmt 4.6, Leading zero omitted, Abs format (unit mm)*
G04 Created by KiCad (PCBNEW 8.0.2) date 2024-05-19 17:08:04*
%MOMM*%
%LPD*%
G01*
G04 APERTURE LIST*
G04 Aperture macros list*
%AMRoundRect*
0 Rectangle with rounded corners*
0 $1 Rounding radius*
0 $2 $3 $4 $5 $6 $7 $8 $9 X,Y pos of 4 corners*
0 Add a 4 corners polygon primitive as box body*
4,1,4,$2,$3,$4,$5,$6,$7,$8,$9,$2,$3,0*
0 Add four circle primitives for the rounded corners*
1,1,$1+$1,$2,$3*
1,1,$1+$1,$4,$5*
1,1,$1+$1,$6,$7*
1,1,$1+$1,$8,$9*
0 Add four rect primitives between the rounded corners*
20,1,$1+$1,$2,$3,$4,$5,0*
20,1,$1+$1,$4,$5,$6,$7,0*
20,1,$1+$1,$6,$7,$8,$9,0*
20,1,$1+$1,$8,$9,$2,$3,0*%
%AMFreePoly0*
4,1,19,0.550000,-0.750000,0.000000,-0.750000,0.000000,-0.744911,-0.071157,-0.744911,-0.207708,-0.704816,-0.327430,-0.627875,-0.420627,-0.520320,-0.479746,-0.390866,-0.500000,-0.250000,-0.500000,0.250000,-0.479746,0.390866,-0.420627,0.520320,-0.327430,0.627875,-0.207708,0.704816,-0.071157,0.744911,0.000000,0.744911,0.000000,0.750000,0.550000,0.750000,0.550000,-0.750000,0.550000,-0.750000,
$1*%
%AMFreePoly1*
4,1,19,0.000000,0.744911,0.071157,0.744911,0.207708,0.704816,0.327430,0.627875,0.420627,0.520320,0.479746,0.390866,0.500000,0.250000,0.500000,-0.250000,0.479746,-0.390866,0.420627,-0.520320,0.327430,-0.627875,0.207708,-0.704816,0.071157,-0.744911,0.000000,-0.744911,0.000000,-0.750000,-0.550000,-0.750000,-0.550000,0.750000,0.000000,0.750000,0.000000,0.744911,0.000000,0.744911,
$1*%
G04 Aperture macros list end*
%ADD10C,0.150000*%
%ADD11C,0.300000*%
%ADD12C,0.400000*%
%ADD13C,1.000000*%
%ADD14C,0.120000*%
%ADD15C,3.200000*%
%ADD16R,1.800000X1.800000*%
%ADD17C,1.800000*%
%ADD18C,1.600000*%
%ADD19O,1.600000X1.600000*%
%ADD20FreePoly0,90.000000*%
%ADD21R,1.500000X1.000000*%
%ADD22FreePoly1,90.000000*%
%ADD23R,1.600000X1.600000*%
%ADD24C,1.440000*%
%ADD25C,4.000000*%
%ADD26C,3.000000*%
%ADD27C,3.300000*%
%ADD28O,3.500000X3.500000*%
%ADD29R,1.905000X2.000000*%
%ADD30O,1.905000X2.000000*%
%ADD31RoundRect,0.237500X-0.300000X-0.237500X0.300000X-0.237500X0.300000X0.237500X-0.300000X0.237500X0*%
%ADD32FreePoly0,0.000000*%
%ADD33R,1.000000X1.500000*%
%ADD34FreePoly1,0.000000*%
%ADD35R,1.100000X1.300000*%
%ADD36R,2.200000X2.200000*%
%ADD37O,2.200000X2.200000*%
G04 APERTURE END LIST*
D10*
X106807000Y-51435000D02*
X106807000Y-52705000D01*
X113030000Y-51435000D02*
X113030000Y-52705000D01*
X96647000Y-51435000D02*
X96647000Y-52705000D01*
X96901000Y-51562000D02*
X97790000Y-52451000D01*
X102870000Y-51435000D02*
X102870000Y-52705000D01*
X107061000Y-51562000D02*
X107950000Y-52451000D01*
X113284000Y-52451000D02*
X114173000Y-51562000D01*
X106807000Y-52705000D02*
X108077000Y-52705000D01*
X102870000Y-52705000D02*
X104140000Y-52705000D01*
X113030000Y-52705000D02*
X114300000Y-52705000D01*
X103124000Y-52451000D02*
X104013000Y-51562000D01*
X96647000Y-52705000D02*
X97917000Y-52705000D01*
D11*
X145962857Y-90538358D02*
X146177143Y-90624072D01*
X146177143Y-90624072D02*
X146248572Y-90709786D01*
X146248572Y-90709786D02*
X146320000Y-90881215D01*
X146320000Y-90881215D02*
X146320000Y-91138358D01*
X146320000Y-91138358D02*
X146248572Y-91309786D01*
X146248572Y-91309786D02*
X146177143Y-91395501D01*
X146177143Y-91395501D02*
X146034286Y-91481215D01*
X146034286Y-91481215D02*
X145462857Y-91481215D01*
X145462857Y-91481215D02*
X145462857Y-89681215D01*
X145462857Y-89681215D02*
X145962857Y-89681215D01*
X145962857Y-89681215D02*
X146105715Y-89766929D01*
X146105715Y-89766929D02*
X146177143Y-89852643D01*
X146177143Y-89852643D02*
X146248572Y-90024072D01*
X146248572Y-90024072D02*
X146248572Y-90195501D01*
X146248572Y-90195501D02*
X146177143Y-90366929D01*
X146177143Y-90366929D02*
X146105715Y-90452643D01*
X146105715Y-90452643D02*
X145962857Y-90538358D01*
X145962857Y-90538358D02*
X145462857Y-90538358D01*
X146962857Y-91481215D02*
X146962857Y-89681215D01*
X146962857Y-89681215D02*
X147534286Y-89681215D01*
X147534286Y-89681215D02*
X147677143Y-89766929D01*
X147677143Y-89766929D02*
X147748572Y-89852643D01*
X147748572Y-89852643D02*
X147820000Y-90024072D01*
X147820000Y-90024072D02*
X147820000Y-90281215D01*
X147820000Y-90281215D02*
X147748572Y-90452643D01*
X147748572Y-90452643D02*
X147677143Y-90538358D01*
X147677143Y-90538358D02*
X147534286Y-90624072D01*
X147534286Y-90624072D02*
X146962857Y-90624072D01*
X148391429Y-91395501D02*
X148605715Y-91481215D01*
X148605715Y-91481215D02*
X148962857Y-91481215D01*
X148962857Y-91481215D02*
X149105715Y-91395501D01*
X149105715Y-91395501D02*
X149177143Y-91309786D01*
X149177143Y-91309786D02*
X149248572Y-91138358D01*
X149248572Y-91138358D02*
X149248572Y-90966929D01*
X149248572Y-90966929D02*
X149177143Y-90795501D01*
X149177143Y-90795501D02*
X149105715Y-90709786D01*
X149105715Y-90709786D02*
X148962857Y-90624072D01*
X148962857Y-90624072D02*
X148677143Y-90538358D01*
X148677143Y-90538358D02*
X148534286Y-90452643D01*
X148534286Y-90452643D02*
X148462857Y-90366929D01*
X148462857Y-90366929D02*
X148391429Y-90195501D01*
X148391429Y-90195501D02*
X148391429Y-90024072D01*
X148391429Y-90024072D02*
X148462857Y-89852643D01*
X148462857Y-89852643D02*
X148534286Y-89766929D01*
X148534286Y-89766929D02*
X148677143Y-89681215D01*
X148677143Y-89681215D02*
X149034286Y-89681215D01*
X149034286Y-89681215D02*
X149248572Y-89766929D01*
X145748571Y-94207685D02*
X145677143Y-94293400D01*
X145677143Y-94293400D02*
X145462857Y-94379114D01*
X145462857Y-94379114D02*
X145320000Y-94379114D01*
X145320000Y-94379114D02*
X145105714Y-94293400D01*
X145105714Y-94293400D02*
X144962857Y-94121971D01*
X144962857Y-94121971D02*
X144891428Y-93950542D01*
X144891428Y-93950542D02*
X144820000Y-93607685D01*
X144820000Y-93607685D02*
X144820000Y-93350542D01*
X144820000Y-93350542D02*
X144891428Y-93007685D01*
X144891428Y-93007685D02*
X144962857Y-92836257D01*
X144962857Y-92836257D02*
X145105714Y-92664828D01*
X145105714Y-92664828D02*
X145320000Y-92579114D01*
X145320000Y-92579114D02*
X145462857Y-92579114D01*
X145462857Y-92579114D02*
X145677143Y-92664828D01*
X145677143Y-92664828D02*
X145748571Y-92750542D01*
X146605714Y-94379114D02*
X146462857Y-94293400D01*
X146462857Y-94293400D02*
X146391428Y-94207685D01*
X146391428Y-94207685D02*
X146320000Y-94036257D01*
X146320000Y-94036257D02*
X146320000Y-93521971D01*
X146320000Y-93521971D02*
X146391428Y-93350542D01*
X146391428Y-93350542D02*
X146462857Y-93264828D01*
X146462857Y-93264828D02*
X146605714Y-93179114D01*
X146605714Y-93179114D02*
X146820000Y-93179114D01*
X146820000Y-93179114D02*
X146962857Y-93264828D01*
X146962857Y-93264828D02*
X147034286Y-93350542D01*
X147034286Y-93350542D02*
X147105714Y-93521971D01*
X147105714Y-93521971D02*
X147105714Y-94036257D01*
X147105714Y-94036257D02*
X147034286Y-94207685D01*
X147034286Y-94207685D02*
X146962857Y-94293400D01*
X146962857Y-94293400D02*
X146820000Y-94379114D01*
X146820000Y-94379114D02*
X146605714Y-94379114D01*
X147748571Y-93179114D02*
X147748571Y-94379114D01*
X147748571Y-93350542D02*
X147820000Y-93264828D01*
X147820000Y-93264828D02*
X147962857Y-93179114D01*
X147962857Y-93179114D02*
X148177143Y-93179114D01*
X148177143Y-93179114D02*
X148320000Y-93264828D01*
X148320000Y-93264828D02*
X148391429Y-93436257D01*
X148391429Y-93436257D02*
X148391429Y-94379114D01*
X149105714Y-93179114D02*
X149105714Y-94379114D01*
X149105714Y-93350542D02*
X149177143Y-93264828D01*
X149177143Y-93264828D02*
X149320000Y-93179114D01*
X149320000Y-93179114D02*
X149534286Y-93179114D01*
X149534286Y-93179114D02*
X149677143Y-93264828D01*
X149677143Y-93264828D02*
X149748572Y-93436257D01*
X149748572Y-93436257D02*
X149748572Y-94379114D01*
D10*
X81318922Y-52624847D02*
X81890350Y-52624847D01*
X81604636Y-53624847D02*
X81604636Y-52624847D01*
X82223684Y-53624847D02*
X82223684Y-52624847D01*
X82223684Y-52624847D02*
X82604636Y-52624847D01*
X82604636Y-52624847D02*
X82699874Y-52672466D01*
X82699874Y-52672466D02*
X82747493Y-52720085D01*
X82747493Y-52720085D02*
X82795112Y-52815323D01*
X82795112Y-52815323D02*
X82795112Y-52958180D01*
X82795112Y-52958180D02*
X82747493Y-53053418D01*
X82747493Y-53053418D02*
X82699874Y-53101037D01*
X82699874Y-53101037D02*
X82604636Y-53148656D01*
X82604636Y-53148656D02*
X82223684Y-53148656D01*
X83176065Y-53577228D02*
X83318922Y-53624847D01*
X83318922Y-53624847D02*
X83557017Y-53624847D01*
X83557017Y-53624847D02*
X83652255Y-53577228D01*
X83652255Y-53577228D02*
X83699874Y-53529608D01*
X83699874Y-53529608D02*
X83747493Y-53434370D01*
X83747493Y-53434370D02*
X83747493Y-53339132D01*
X83747493Y-53339132D02*
X83699874Y-53243894D01*
X83699874Y-53243894D02*
X83652255Y-53196275D01*
X83652255Y-53196275D02*
X83557017Y-53148656D01*
X83557017Y-53148656D02*
X83366541Y-53101037D01*
X83366541Y-53101037D02*
X83271303Y-53053418D01*
X83271303Y-53053418D02*
X83223684Y-53005799D01*
X83223684Y-53005799D02*
X83176065Y-52910561D01*
X83176065Y-52910561D02*
X83176065Y-52815323D01*
X83176065Y-52815323D02*
X83223684Y-52720085D01*
X83223684Y-52720085D02*
X83271303Y-52672466D01*
X83271303Y-52672466D02*
X83366541Y-52624847D01*
X83366541Y-52624847D02*
X83604636Y-52624847D01*
X83604636Y-52624847D02*
X83747493Y-52672466D01*
X81414160Y-55187172D02*
X81557017Y-55234791D01*
X81557017Y-55234791D02*
X81795112Y-55234791D01*
X81795112Y-55234791D02*
X81890350Y-55187172D01*
X81890350Y-55187172D02*
X81937969Y-55139552D01*
X81937969Y-55139552D02*
X81985588Y-55044314D01*
X81985588Y-55044314D02*
X81985588Y-54949076D01*
X81985588Y-54949076D02*
X81937969Y-54853838D01*
X81937969Y-54853838D02*
X81890350Y-54806219D01*
X81890350Y-54806219D02*
X81795112Y-54758600D01*
X81795112Y-54758600D02*
X81604636Y-54710981D01*
X81604636Y-54710981D02*
X81509398Y-54663362D01*
X81509398Y-54663362D02*
X81461779Y-54615743D01*
X81461779Y-54615743D02*
X81414160Y-54520505D01*
X81414160Y-54520505D02*
X81414160Y-54425267D01*
X81414160Y-54425267D02*
X81461779Y-54330029D01*
X81461779Y-54330029D02*
X81509398Y-54282410D01*
X81509398Y-54282410D02*
X81604636Y-54234791D01*
X81604636Y-54234791D02*
X81842731Y-54234791D01*
X81842731Y-54234791D02*
X81985588Y-54282410D01*
X82414160Y-55234791D02*
X82414160Y-54568124D01*
X82414160Y-54234791D02*
X82366541Y-54282410D01*
X82366541Y-54282410D02*
X82414160Y-54330029D01*
X82414160Y-54330029D02*
X82461779Y-54282410D01*
X82461779Y-54282410D02*
X82414160Y-54234791D01*
X82414160Y-54234791D02*
X82414160Y-54330029D01*
X83318921Y-54568124D02*
X83318921Y-55377648D01*
X83318921Y-55377648D02*
X83271302Y-55472886D01*
X83271302Y-55472886D02*
X83223683Y-55520505D01*
X83223683Y-55520505D02*
X83128445Y-55568124D01*
X83128445Y-55568124D02*
X82985588Y-55568124D01*
X82985588Y-55568124D02*
X82890350Y-55520505D01*
X83318921Y-55187172D02*
X83223683Y-55234791D01*
X83223683Y-55234791D02*
X83033207Y-55234791D01*
X83033207Y-55234791D02*
X82937969Y-55187172D01*
X82937969Y-55187172D02*
X82890350Y-55139552D01*
X82890350Y-55139552D02*
X82842731Y-55044314D01*
X82842731Y-55044314D02*
X82842731Y-54758600D01*
X82842731Y-54758600D02*
X82890350Y-54663362D01*
X82890350Y-54663362D02*
X82937969Y-54615743D01*
X82937969Y-54615743D02*
X83033207Y-54568124D01*
X83033207Y-54568124D02*
X83223683Y-54568124D01*
X83223683Y-54568124D02*
X83318921Y-54615743D01*
D11*
X134452225Y-44812165D02*
X135309368Y-44812165D01*
X134880796Y-46612165D02*
X134880796Y-44812165D01*
X135809367Y-46612165D02*
X135809367Y-44812165D01*
X135809367Y-44812165D02*
X136380796Y-44812165D01*
X136380796Y-44812165D02*
X136523653Y-44897879D01*
X136523653Y-44897879D02*
X136595082Y-44983593D01*
X136595082Y-44983593D02*
X136666510Y-45155022D01*
X136666510Y-45155022D02*
X136666510Y-45412165D01*
X136666510Y-45412165D02*
X136595082Y-45583593D01*
X136595082Y-45583593D02*
X136523653Y-45669308D01*
X136523653Y-45669308D02*
X136380796Y-45755022D01*
X136380796Y-45755022D02*
X135809367Y-45755022D01*
X137237939Y-46526451D02*
X137452225Y-46612165D01*
X137452225Y-46612165D02*
X137809367Y-46612165D01*
X137809367Y-46612165D02*
X137952225Y-46526451D01*
X137952225Y-46526451D02*
X138023653Y-46440736D01*
X138023653Y-46440736D02*
X138095082Y-46269308D01*
X138095082Y-46269308D02*
X138095082Y-46097879D01*
X138095082Y-46097879D02*
X138023653Y-45926451D01*
X138023653Y-45926451D02*
X137952225Y-45840736D01*
X137952225Y-45840736D02*
X137809367Y-45755022D01*
X137809367Y-45755022D02*
X137523653Y-45669308D01*
X137523653Y-45669308D02*
X137380796Y-45583593D01*
X137380796Y-45583593D02*
X137309367Y-45497879D01*
X137309367Y-45497879D02*
X137237939Y-45326451D01*
X137237939Y-45326451D02*
X137237939Y-45155022D01*
X137237939Y-45155022D02*
X137309367Y-44983593D01*
X137309367Y-44983593D02*
X137380796Y-44897879D01*
X137380796Y-44897879D02*
X137523653Y-44812165D01*
X137523653Y-44812165D02*
X137880796Y-44812165D01*
X137880796Y-44812165D02*
X138095082Y-44897879D01*
X134452225Y-47710064D02*
X135309368Y-47710064D01*
X134880796Y-49510064D02*
X134880796Y-47710064D01*
X135809367Y-49510064D02*
X135809367Y-48310064D01*
X135809367Y-48652921D02*
X135880796Y-48481492D01*
X135880796Y-48481492D02*
X135952225Y-48395778D01*
X135952225Y-48395778D02*
X136095082Y-48310064D01*
X136095082Y-48310064D02*
X136237939Y-48310064D01*
X136737938Y-49510064D02*
X136737938Y-48310064D01*
X136737938Y-47710064D02*
X136666510Y-47795778D01*
X136666510Y-47795778D02*
X136737938Y-47881492D01*
X136737938Y-47881492D02*
X136809367Y-47795778D01*
X136809367Y-47795778D02*
X136737938Y-47710064D01*
X136737938Y-47710064D02*
X136737938Y-47881492D01*
X138095082Y-48310064D02*
X138095082Y-49767207D01*
X138095082Y-49767207D02*
X138023653Y-49938635D01*
X138023653Y-49938635D02*
X137952224Y-50024350D01*
X137952224Y-50024350D02*
X137809367Y-50110064D01*
X137809367Y-50110064D02*
X137595082Y-50110064D01*
X137595082Y-50110064D02*
X137452224Y-50024350D01*
X138095082Y-49424350D02*
X137952224Y-49510064D01*
X137952224Y-49510064D02*
X137666510Y-49510064D01*
X137666510Y-49510064D02*
X137523653Y-49424350D01*
X137523653Y-49424350D02*
X137452224Y-49338635D01*
X137452224Y-49338635D02*
X137380796Y-49167207D01*
X137380796Y-49167207D02*
X137380796Y-48652921D01*
X137380796Y-48652921D02*
X137452224Y-48481492D01*
X137452224Y-48481492D02*
X137523653Y-48395778D01*
X137523653Y-48395778D02*
X137666510Y-48310064D01*
X137666510Y-48310064D02*
X137952224Y-48310064D01*
X137952224Y-48310064D02*
X138095082Y-48395778D01*
D10*
X91163934Y-45649047D02*
X91116315Y-45791904D01*
X91116315Y-45791904D02*
X91068696Y-45839523D01*
X91068696Y-45839523D02*
X90973458Y-45887142D01*
X90973458Y-45887142D02*
X90830601Y-45887142D01*
X90830601Y-45887142D02*
X90735363Y-45839523D01*
X90735363Y-45839523D02*
X90687744Y-45791904D01*
X90687744Y-45791904D02*
X90640124Y-45696666D01*
X90640124Y-45696666D02*
X90640124Y-45315714D01*
X90640124Y-45315714D02*
X91640124Y-45315714D01*
X91640124Y-45315714D02*
X91640124Y-45649047D01*
X91640124Y-45649047D02*
X91592505Y-45744285D01*
X91592505Y-45744285D02*
X91544886Y-45791904D01*
X91544886Y-45791904D02*
X91449648Y-45839523D01*
X91449648Y-45839523D02*
X91354410Y-45839523D01*
X91354410Y-45839523D02*
X91259172Y-45791904D01*
X91259172Y-45791904D02*
X91211553Y-45744285D01*
X91211553Y-45744285D02*
X91163934Y-45649047D01*
X91163934Y-45649047D02*
X91163934Y-45315714D01*
X90640124Y-46315714D02*
X91640124Y-46315714D01*
X91640124Y-46315714D02*
X91640124Y-46696666D01*
X91640124Y-46696666D02*
X91592505Y-46791904D01*
X91592505Y-46791904D02*
X91544886Y-46839523D01*
X91544886Y-46839523D02*
X91449648Y-46887142D01*
X91449648Y-46887142D02*
X91306791Y-46887142D01*
X91306791Y-46887142D02*
X91211553Y-46839523D01*
X91211553Y-46839523D02*
X91163934Y-46791904D01*
X91163934Y-46791904D02*
X91116315Y-46696666D01*
X91116315Y-46696666D02*
X91116315Y-46315714D01*
X90687744Y-47268095D02*
X90640124Y-47410952D01*
X90640124Y-47410952D02*
X90640124Y-47649047D01*
X90640124Y-47649047D02*
X90687744Y-47744285D01*
X90687744Y-47744285D02*
X90735363Y-47791904D01*
X90735363Y-47791904D02*
X90830601Y-47839523D01*
X90830601Y-47839523D02*
X90925839Y-47839523D01*
X90925839Y-47839523D02*
X91021077Y-47791904D01*
X91021077Y-47791904D02*
X91068696Y-47744285D01*
X91068696Y-47744285D02*
X91116315Y-47649047D01*
X91116315Y-47649047D02*
X91163934Y-47458571D01*
X91163934Y-47458571D02*
X91211553Y-47363333D01*
X91211553Y-47363333D02*
X91259172Y-47315714D01*
X91259172Y-47315714D02*
X91354410Y-47268095D01*
X91354410Y-47268095D02*
X91449648Y-47268095D01*
X91449648Y-47268095D02*
X91544886Y-47315714D01*
X91544886Y-47315714D02*
X91592505Y-47363333D01*
X91592505Y-47363333D02*
X91640124Y-47458571D01*
X91640124Y-47458571D02*
X91640124Y-47696666D01*
X91640124Y-47696666D02*
X91592505Y-47839523D01*
X90640124Y-49791905D02*
X91640124Y-49791905D01*
X91640124Y-49791905D02*
X91640124Y-50172857D01*
X91640124Y-50172857D02*
X91592505Y-50268095D01*
X91592505Y-50268095D02*
X91544886Y-50315714D01*
X91544886Y-50315714D02*
X91449648Y-50363333D01*
X91449648Y-50363333D02*
X91306791Y-50363333D01*
X91306791Y-50363333D02*
X91211553Y-50315714D01*
X91211553Y-50315714D02*
X91163934Y-50268095D01*
X91163934Y-50268095D02*
X91116315Y-50172857D01*
X91116315Y-50172857D02*
X91116315Y-49791905D01*
X90640124Y-50934762D02*
X90687744Y-50839524D01*
X90687744Y-50839524D02*
X90735363Y-50791905D01*
X90735363Y-50791905D02*
X90830601Y-50744286D01*
X90830601Y-50744286D02*
X91116315Y-50744286D01*
X91116315Y-50744286D02*
X91211553Y-50791905D01*
X91211553Y-50791905D02*
X91259172Y-50839524D01*
X91259172Y-50839524D02*
X91306791Y-50934762D01*
X91306791Y-50934762D02*
X91306791Y-51077619D01*
X91306791Y-51077619D02*
X91259172Y-51172857D01*
X91259172Y-51172857D02*
X91211553Y-51220476D01*
X91211553Y-51220476D02*
X91116315Y-51268095D01*
X91116315Y-51268095D02*
X90830601Y-51268095D01*
X90830601Y-51268095D02*
X90735363Y-51220476D01*
X90735363Y-51220476D02*
X90687744Y-51172857D01*
X90687744Y-51172857D02*
X90640124Y-51077619D01*
X90640124Y-51077619D02*
X90640124Y-50934762D01*
X91306791Y-51601429D02*
X90640124Y-51791905D01*
X90640124Y-51791905D02*
X91116315Y-51982381D01*
X91116315Y-51982381D02*
X90640124Y-52172857D01*
X90640124Y-52172857D02*
X91306791Y-52363333D01*
X90687744Y-53125238D02*
X90640124Y-53030000D01*
X90640124Y-53030000D02*
X90640124Y-52839524D01*
X90640124Y-52839524D02*
X90687744Y-52744286D01*
X90687744Y-52744286D02*
X90782982Y-52696667D01*
X90782982Y-52696667D02*
X91163934Y-52696667D01*
X91163934Y-52696667D02*
X91259172Y-52744286D01*
X91259172Y-52744286D02*
X91306791Y-52839524D01*
X91306791Y-52839524D02*
X91306791Y-53030000D01*
X91306791Y-53030000D02*
X91259172Y-53125238D01*
X91259172Y-53125238D02*
X91163934Y-53172857D01*
X91163934Y-53172857D02*
X91068696Y-53172857D01*
X91068696Y-53172857D02*
X90973458Y-52696667D01*
X90640124Y-53601429D02*
X91306791Y-53601429D01*
X91116315Y-53601429D02*
X91211553Y-53649048D01*
X91211553Y-53649048D02*
X91259172Y-53696667D01*
X91259172Y-53696667D02*
X91306791Y-53791905D01*
X91306791Y-53791905D02*
X91306791Y-53887143D01*
X89030180Y-46863332D02*
X89030180Y-46291904D01*
X89030180Y-46577618D02*
X90030180Y-46577618D01*
X90030180Y-46577618D02*
X89887323Y-46482380D01*
X89887323Y-46482380D02*
X89792085Y-46387142D01*
X89792085Y-46387142D02*
X89744466Y-46291904D01*
X89934942Y-47244285D02*
X89982561Y-47291904D01*
X89982561Y-47291904D02*
X90030180Y-47387142D01*
X90030180Y-47387142D02*
X90030180Y-47625237D01*
X90030180Y-47625237D02*
X89982561Y-47720475D01*
X89982561Y-47720475D02*
X89934942Y-47768094D01*
X89934942Y-47768094D02*
X89839704Y-47815713D01*
X89839704Y-47815713D02*
X89744466Y-47815713D01*
X89744466Y-47815713D02*
X89601609Y-47768094D01*
X89601609Y-47768094D02*
X89030180Y-47196666D01*
X89030180Y-47196666D02*
X89030180Y-47815713D01*
X90030180Y-48101428D02*
X89030180Y-48434761D01*
X89030180Y-48434761D02*
X90030180Y-48768094D01*
X90030180Y-51101428D02*
X90030180Y-50625238D01*
X90030180Y-50625238D02*
X89553990Y-50577619D01*
X89553990Y-50577619D02*
X89601609Y-50625238D01*
X89601609Y-50625238D02*
X89649228Y-50720476D01*
X89649228Y-50720476D02*
X89649228Y-50958571D01*
X89649228Y-50958571D02*
X89601609Y-51053809D01*
X89601609Y-51053809D02*
X89553990Y-51101428D01*
X89553990Y-51101428D02*
X89458752Y-51149047D01*
X89458752Y-51149047D02*
X89220657Y-51149047D01*
X89220657Y-51149047D02*
X89125419Y-51101428D01*
X89125419Y-51101428D02*
X89077800Y-51053809D01*
X89077800Y-51053809D02*
X89030180Y-50958571D01*
X89030180Y-50958571D02*
X89030180Y-50720476D01*
X89030180Y-50720476D02*
X89077800Y-50625238D01*
X89077800Y-50625238D02*
X89125419Y-50577619D01*
X90030180Y-51434762D02*
X89030180Y-51768095D01*
X89030180Y-51768095D02*
X90030180Y-52101428D01*
D11*
X166501429Y-91395501D02*
X166715715Y-91481215D01*
X166715715Y-91481215D02*
X167072857Y-91481215D01*
X167072857Y-91481215D02*
X167215715Y-91395501D01*
X167215715Y-91395501D02*
X167287143Y-91309786D01*
X167287143Y-91309786D02*
X167358572Y-91138358D01*
X167358572Y-91138358D02*
X167358572Y-90966929D01*
X167358572Y-90966929D02*
X167287143Y-90795501D01*
X167287143Y-90795501D02*
X167215715Y-90709786D01*
X167215715Y-90709786D02*
X167072857Y-90624072D01*
X167072857Y-90624072D02*
X166787143Y-90538358D01*
X166787143Y-90538358D02*
X166644286Y-90452643D01*
X166644286Y-90452643D02*
X166572857Y-90366929D01*
X166572857Y-90366929D02*
X166501429Y-90195501D01*
X166501429Y-90195501D02*
X166501429Y-90024072D01*
X166501429Y-90024072D02*
X166572857Y-89852643D01*
X166572857Y-89852643D02*
X166644286Y-89766929D01*
X166644286Y-89766929D02*
X166787143Y-89681215D01*
X166787143Y-89681215D02*
X167144286Y-89681215D01*
X167144286Y-89681215D02*
X167358572Y-89766929D01*
X167858571Y-90281215D02*
X168215714Y-91481215D01*
X168572857Y-90281215D02*
X168215714Y-91481215D01*
X168215714Y-91481215D02*
X168072857Y-91909786D01*
X168072857Y-91909786D02*
X168001428Y-91995501D01*
X168001428Y-91995501D02*
X167858571Y-92081215D01*
X169072857Y-91395501D02*
X169215714Y-91481215D01*
X169215714Y-91481215D02*
X169501428Y-91481215D01*
X169501428Y-91481215D02*
X169644285Y-91395501D01*
X169644285Y-91395501D02*
X169715714Y-91224072D01*
X169715714Y-91224072D02*
X169715714Y-91138358D01*
X169715714Y-91138358D02*
X169644285Y-90966929D01*
X169644285Y-90966929D02*
X169501428Y-90881215D01*
X169501428Y-90881215D02*
X169287143Y-90881215D01*
X169287143Y-90881215D02*
X169144285Y-90795501D01*
X169144285Y-90795501D02*
X169072857Y-90624072D01*
X169072857Y-90624072D02*
X169072857Y-90538358D01*
X169072857Y-90538358D02*
X169144285Y-90366929D01*
X169144285Y-90366929D02*
X169287143Y-90281215D01*
X169287143Y-90281215D02*
X169501428Y-90281215D01*
X169501428Y-90281215D02*
X169644285Y-90366929D01*
X170144286Y-90281215D02*
X170715714Y-90281215D01*
X170358571Y-89681215D02*
X170358571Y-91224072D01*
X170358571Y-91224072D02*
X170430000Y-91395501D01*
X170430000Y-91395501D02*
X170572857Y-91481215D01*
X170572857Y-91481215D02*
X170715714Y-91481215D01*
X171787143Y-91395501D02*
X171644286Y-91481215D01*
X171644286Y-91481215D02*
X171358572Y-91481215D01*
X171358572Y-91481215D02*
X171215714Y-91395501D01*
X171215714Y-91395501D02*
X171144286Y-91224072D01*
X171144286Y-91224072D02*
X171144286Y-90538358D01*
X171144286Y-90538358D02*
X171215714Y-90366929D01*
X171215714Y-90366929D02*
X171358572Y-90281215D01*
X171358572Y-90281215D02*
X171644286Y-90281215D01*
X171644286Y-90281215D02*
X171787143Y-90366929D01*
X171787143Y-90366929D02*
X171858572Y-90538358D01*
X171858572Y-90538358D02*
X171858572Y-90709786D01*
X171858572Y-90709786D02*
X171144286Y-90881215D01*
X172501428Y-91481215D02*
X172501428Y-90281215D01*
X172501428Y-90452643D02*
X172572857Y-90366929D01*
X172572857Y-90366929D02*
X172715714Y-90281215D01*
X172715714Y-90281215D02*
X172930000Y-90281215D01*
X172930000Y-90281215D02*
X173072857Y-90366929D01*
X173072857Y-90366929D02*
X173144286Y-90538358D01*
X173144286Y-90538358D02*
X173144286Y-91481215D01*
X173144286Y-90538358D02*
X173215714Y-90366929D01*
X173215714Y-90366929D02*
X173358571Y-90281215D01*
X173358571Y-90281215D02*
X173572857Y-90281215D01*
X173572857Y-90281215D02*
X173715714Y-90366929D01*
X173715714Y-90366929D02*
X173787143Y-90538358D01*
X173787143Y-90538358D02*
X173787143Y-91481215D01*
X169287143Y-92579114D02*
X169572857Y-92579114D01*
X169572857Y-92579114D02*
X169715714Y-92664828D01*
X169715714Y-92664828D02*
X169858571Y-92836257D01*
X169858571Y-92836257D02*
X169930000Y-93179114D01*
X169930000Y-93179114D02*
X169930000Y-93779114D01*
X169930000Y-93779114D02*
X169858571Y-94121971D01*
X169858571Y-94121971D02*
X169715714Y-94293400D01*
X169715714Y-94293400D02*
X169572857Y-94379114D01*
X169572857Y-94379114D02*
X169287143Y-94379114D01*
X169287143Y-94379114D02*
X169144286Y-94293400D01*
X169144286Y-94293400D02*
X169001428Y-94121971D01*
X169001428Y-94121971D02*
X168930000Y-93779114D01*
X168930000Y-93779114D02*
X168930000Y-93179114D01*
X168930000Y-93179114D02*
X169001428Y-92836257D01*
X169001428Y-92836257D02*
X169144286Y-92664828D01*
X169144286Y-92664828D02*
X169287143Y-92579114D01*
X170572857Y-94379114D02*
X170572857Y-92579114D01*
X171430000Y-94379114D02*
X170787143Y-93350542D01*
X171430000Y-92579114D02*
X170572857Y-93607685D01*
X155587143Y-89681215D02*
X156444286Y-89681215D01*
X156015714Y-91481215D02*
X156015714Y-89681215D01*
X156944285Y-91481215D02*
X156944285Y-89681215D01*
X156944285Y-89681215D02*
X157515714Y-89681215D01*
X157515714Y-89681215D02*
X157658571Y-89766929D01*
X157658571Y-89766929D02*
X157730000Y-89852643D01*
X157730000Y-89852643D02*
X157801428Y-90024072D01*
X157801428Y-90024072D02*
X157801428Y-90281215D01*
X157801428Y-90281215D02*
X157730000Y-90452643D01*
X157730000Y-90452643D02*
X157658571Y-90538358D01*
X157658571Y-90538358D02*
X157515714Y-90624072D01*
X157515714Y-90624072D02*
X156944285Y-90624072D01*
X158372857Y-91395501D02*
X158587143Y-91481215D01*
X158587143Y-91481215D02*
X158944285Y-91481215D01*
X158944285Y-91481215D02*
X159087143Y-91395501D01*
X159087143Y-91395501D02*
X159158571Y-91309786D01*
X159158571Y-91309786D02*
X159230000Y-91138358D01*
X159230000Y-91138358D02*
X159230000Y-90966929D01*
X159230000Y-90966929D02*
X159158571Y-90795501D01*
X159158571Y-90795501D02*
X159087143Y-90709786D01*
X159087143Y-90709786D02*
X158944285Y-90624072D01*
X158944285Y-90624072D02*
X158658571Y-90538358D01*
X158658571Y-90538358D02*
X158515714Y-90452643D01*
X158515714Y-90452643D02*
X158444285Y-90366929D01*
X158444285Y-90366929D02*
X158372857Y-90195501D01*
X158372857Y-90195501D02*
X158372857Y-90024072D01*
X158372857Y-90024072D02*
X158444285Y-89852643D01*
X158444285Y-89852643D02*
X158515714Y-89766929D01*
X158515714Y-89766929D02*
X158658571Y-89681215D01*
X158658571Y-89681215D02*
X159015714Y-89681215D01*
X159015714Y-89681215D02*
X159230000Y-89766929D01*
X155908571Y-94207685D02*
X155837143Y-94293400D01*
X155837143Y-94293400D02*
X155622857Y-94379114D01*
X155622857Y-94379114D02*
X155480000Y-94379114D01*
X155480000Y-94379114D02*
X155265714Y-94293400D01*
X155265714Y-94293400D02*
X155122857Y-94121971D01*
X155122857Y-94121971D02*
X155051428Y-93950542D01*
X155051428Y-93950542D02*
X154980000Y-93607685D01*
X154980000Y-93607685D02*
X154980000Y-93350542D01*
X154980000Y-93350542D02*
X155051428Y-93007685D01*
X155051428Y-93007685D02*
X155122857Y-92836257D01*
X155122857Y-92836257D02*
X155265714Y-92664828D01*
X155265714Y-92664828D02*
X155480000Y-92579114D01*
X155480000Y-92579114D02*
X155622857Y-92579114D01*
X155622857Y-92579114D02*
X155837143Y-92664828D01*
X155837143Y-92664828D02*
X155908571Y-92750542D01*
X156765714Y-94379114D02*
X156622857Y-94293400D01*
X156622857Y-94293400D02*
X156551428Y-94207685D01*
X156551428Y-94207685D02*
X156480000Y-94036257D01*
X156480000Y-94036257D02*
X156480000Y-93521971D01*
X156480000Y-93521971D02*
X156551428Y-93350542D01*
X156551428Y-93350542D02*
X156622857Y-93264828D01*
X156622857Y-93264828D02*
X156765714Y-93179114D01*
X156765714Y-93179114D02*
X156980000Y-93179114D01*
X156980000Y-93179114D02*
X157122857Y-93264828D01*
X157122857Y-93264828D02*
X157194286Y-93350542D01*
X157194286Y-93350542D02*
X157265714Y-93521971D01*
X157265714Y-93521971D02*
X157265714Y-94036257D01*
X157265714Y-94036257D02*
X157194286Y-94207685D01*
X157194286Y-94207685D02*
X157122857Y-94293400D01*
X157122857Y-94293400D02*
X156980000Y-94379114D01*
X156980000Y-94379114D02*
X156765714Y-94379114D01*
X157908571Y-93179114D02*
X157908571Y-94379114D01*
X157908571Y-93350542D02*
X157980000Y-93264828D01*
X157980000Y-93264828D02*
X158122857Y-93179114D01*
X158122857Y-93179114D02*
X158337143Y-93179114D01*
X158337143Y-93179114D02*
X158480000Y-93264828D01*
X158480000Y-93264828D02*
X158551429Y-93436257D01*
X158551429Y-93436257D02*
X158551429Y-94379114D01*
X159265714Y-93179114D02*
X159265714Y-94379114D01*
X159265714Y-93350542D02*
X159337143Y-93264828D01*
X159337143Y-93264828D02*
X159480000Y-93179114D01*
X159480000Y-93179114D02*
X159694286Y-93179114D01*
X159694286Y-93179114D02*
X159837143Y-93264828D01*
X159837143Y-93264828D02*
X159908572Y-93436257D01*
X159908572Y-93436257D02*
X159908572Y-94379114D01*
D10*
X109625238Y-50141009D02*
X109768095Y-50188628D01*
X109768095Y-50188628D02*
X109815714Y-50236247D01*
X109815714Y-50236247D02*
X109863333Y-50331485D01*
X109863333Y-50331485D02*
X109863333Y-50474342D01*
X109863333Y-50474342D02*
X109815714Y-50569580D01*
X109815714Y-50569580D02*
X109768095Y-50617200D01*
X109768095Y-50617200D02*
X109672857Y-50664819D01*
X109672857Y-50664819D02*
X109291905Y-50664819D01*
X109291905Y-50664819D02*
X109291905Y-49664819D01*
X109291905Y-49664819D02*
X109625238Y-49664819D01*
X109625238Y-49664819D02*
X109720476Y-49712438D01*
X109720476Y-49712438D02*
X109768095Y-49760057D01*
X109768095Y-49760057D02*
X109815714Y-49855295D01*
X109815714Y-49855295D02*
X109815714Y-49950533D01*
X109815714Y-49950533D02*
X109768095Y-50045771D01*
X109768095Y-50045771D02*
X109720476Y-50093390D01*
X109720476Y-50093390D02*
X109625238Y-50141009D01*
X109625238Y-50141009D02*
X109291905Y-50141009D01*
X110291905Y-50664819D02*
X110291905Y-49664819D01*
X110291905Y-49664819D02*
X110672857Y-49664819D01*
X110672857Y-49664819D02*
X110768095Y-49712438D01*
X110768095Y-49712438D02*
X110815714Y-49760057D01*
X110815714Y-49760057D02*
X110863333Y-49855295D01*
X110863333Y-49855295D02*
X110863333Y-49998152D01*
X110863333Y-49998152D02*
X110815714Y-50093390D01*
X110815714Y-50093390D02*
X110768095Y-50141009D01*
X110768095Y-50141009D02*
X110672857Y-50188628D01*
X110672857Y-50188628D02*
X110291905Y-50188628D01*
X111244286Y-50617200D02*
X111387143Y-50664819D01*
X111387143Y-50664819D02*
X111625238Y-50664819D01*
X111625238Y-50664819D02*
X111720476Y-50617200D01*
X111720476Y-50617200D02*
X111768095Y-50569580D01*
X111768095Y-50569580D02*
X111815714Y-50474342D01*
X111815714Y-50474342D02*
X111815714Y-50379104D01*
X111815714Y-50379104D02*
X111768095Y-50283866D01*
X111768095Y-50283866D02*
X111720476Y-50236247D01*
X111720476Y-50236247D02*
X111625238Y-50188628D01*
X111625238Y-50188628D02*
X111434762Y-50141009D01*
X111434762Y-50141009D02*
X111339524Y-50093390D01*
X111339524Y-50093390D02*
X111291905Y-50045771D01*
X111291905Y-50045771D02*
X111244286Y-49950533D01*
X111244286Y-49950533D02*
X111244286Y-49855295D01*
X111244286Y-49855295D02*
X111291905Y-49760057D01*
X111291905Y-49760057D02*
X111339524Y-49712438D01*
X111339524Y-49712438D02*
X111434762Y-49664819D01*
X111434762Y-49664819D02*
X111672857Y-49664819D01*
X111672857Y-49664819D02*
X111815714Y-49712438D01*
D12*
X77735561Y-33210952D02*
X77545085Y-33782380D01*
X77545085Y-33782380D02*
X77354609Y-33972857D01*
X77354609Y-33972857D02*
X76973657Y-34163333D01*
X76973657Y-34163333D02*
X76402228Y-34163333D01*
X76402228Y-34163333D02*
X76021276Y-33972857D01*
X76021276Y-33972857D02*
X75830800Y-33782380D01*
X75830800Y-33782380D02*
X75640323Y-33401428D01*
X75640323Y-33401428D02*
X75640323Y-31877618D01*
X75640323Y-31877618D02*
X79640323Y-31877618D01*
X79640323Y-31877618D02*
X79640323Y-33210952D01*
X79640323Y-33210952D02*
X79449847Y-33591904D01*
X79449847Y-33591904D02*
X79259371Y-33782380D01*
X79259371Y-33782380D02*
X78878419Y-33972857D01*
X78878419Y-33972857D02*
X78497466Y-33972857D01*
X78497466Y-33972857D02*
X78116514Y-33782380D01*
X78116514Y-33782380D02*
X77926038Y-33591904D01*
X77926038Y-33591904D02*
X77735561Y-33210952D01*
X77735561Y-33210952D02*
X77735561Y-31877618D01*
X75640323Y-35877618D02*
X79640323Y-35877618D01*
X79640323Y-35877618D02*
X79640323Y-37401428D01*
X79640323Y-37401428D02*
X79449847Y-37782380D01*
X79449847Y-37782380D02*
X79259371Y-37972857D01*
X79259371Y-37972857D02*
X78878419Y-38163333D01*
X78878419Y-38163333D02*
X78306990Y-38163333D01*
X78306990Y-38163333D02*
X77926038Y-37972857D01*
X77926038Y-37972857D02*
X77735561Y-37782380D01*
X77735561Y-37782380D02*
X77545085Y-37401428D01*
X77545085Y-37401428D02*
X77545085Y-35877618D01*
X75830800Y-39687142D02*
X75640323Y-40258571D01*
X75640323Y-40258571D02*
X75640323Y-41210952D01*
X75640323Y-41210952D02*
X75830800Y-41591904D01*
X75830800Y-41591904D02*
X76021276Y-41782380D01*
X76021276Y-41782380D02*
X76402228Y-41972857D01*
X76402228Y-41972857D02*
X76783180Y-41972857D01*
X76783180Y-41972857D02*
X77164133Y-41782380D01*
X77164133Y-41782380D02*
X77354609Y-41591904D01*
X77354609Y-41591904D02*
X77545085Y-41210952D01*
X77545085Y-41210952D02*
X77735561Y-40449047D01*
X77735561Y-40449047D02*
X77926038Y-40068095D01*
X77926038Y-40068095D02*
X78116514Y-39877618D01*
X78116514Y-39877618D02*
X78497466Y-39687142D01*
X78497466Y-39687142D02*
X78878419Y-39687142D01*
X78878419Y-39687142D02*
X79259371Y-39877618D01*
X79259371Y-39877618D02*
X79449847Y-40068095D01*
X79449847Y-40068095D02*
X79640323Y-40449047D01*
X79640323Y-40449047D02*
X79640323Y-41401428D01*
X79640323Y-41401428D02*
X79449847Y-41972857D01*
D10*
X99108095Y-49664819D02*
X99679523Y-49664819D01*
X99393809Y-50664819D02*
X99393809Y-49664819D01*
X100012857Y-50664819D02*
X100012857Y-49664819D01*
X100012857Y-49664819D02*
X100393809Y-49664819D01*
X100393809Y-49664819D02*
X100489047Y-49712438D01*
X100489047Y-49712438D02*
X100536666Y-49760057D01*
X100536666Y-49760057D02*
X100584285Y-49855295D01*
X100584285Y-49855295D02*
X100584285Y-49998152D01*
X100584285Y-49998152D02*
X100536666Y-50093390D01*
X100536666Y-50093390D02*
X100489047Y-50141009D01*
X100489047Y-50141009D02*
X100393809Y-50188628D01*
X100393809Y-50188628D02*
X100012857Y-50188628D01*
X100965238Y-50617200D02*
X101108095Y-50664819D01*
X101108095Y-50664819D02*
X101346190Y-50664819D01*
X101346190Y-50664819D02*
X101441428Y-50617200D01*
X101441428Y-50617200D02*
X101489047Y-50569580D01*
X101489047Y-50569580D02*
X101536666Y-50474342D01*
X101536666Y-50474342D02*
X101536666Y-50379104D01*
X101536666Y-50379104D02*
X101489047Y-50283866D01*
X101489047Y-50283866D02*
X101441428Y-50236247D01*
X101441428Y-50236247D02*
X101346190Y-50188628D01*
X101346190Y-50188628D02*
X101155714Y-50141009D01*
X101155714Y-50141009D02*
X101060476Y-50093390D01*
X101060476Y-50093390D02*
X101012857Y-50045771D01*
X101012857Y-50045771D02*
X100965238Y-49950533D01*
X100965238Y-49950533D02*
X100965238Y-49855295D01*
X100965238Y-49855295D02*
X101012857Y-49760057D01*
X101012857Y-49760057D02*
X101060476Y-49712438D01*
X101060476Y-49712438D02*
X101155714Y-49664819D01*
X101155714Y-49664819D02*
X101393809Y-49664819D01*
X101393809Y-49664819D02*
X101536666Y-49712438D01*
D12*
X79640323Y-59722381D02*
X79640323Y-62008095D01*
X75640323Y-60865238D02*
X79640323Y-60865238D01*
X75640323Y-63341428D02*
X79640323Y-63341428D01*
X79640323Y-63341428D02*
X79640323Y-64865238D01*
X79640323Y-64865238D02*
X79449847Y-65246190D01*
X79449847Y-65246190D02*
X79259371Y-65436667D01*
X79259371Y-65436667D02*
X78878419Y-65627143D01*
X78878419Y-65627143D02*
X78306990Y-65627143D01*
X78306990Y-65627143D02*
X77926038Y-65436667D01*
X77926038Y-65436667D02*
X77735561Y-65246190D01*
X77735561Y-65246190D02*
X77545085Y-64865238D01*
X77545085Y-64865238D02*
X77545085Y-63341428D01*
X75830800Y-67150952D02*
X75640323Y-67722381D01*
X75640323Y-67722381D02*
X75640323Y-68674762D01*
X75640323Y-68674762D02*
X75830800Y-69055714D01*
X75830800Y-69055714D02*
X76021276Y-69246190D01*
X76021276Y-69246190D02*
X76402228Y-69436667D01*
X76402228Y-69436667D02*
X76783180Y-69436667D01*
X76783180Y-69436667D02*
X77164133Y-69246190D01*
X77164133Y-69246190D02*
X77354609Y-69055714D01*
X77354609Y-69055714D02*
X77545085Y-68674762D01*
X77545085Y-68674762D02*
X77735561Y-67912857D01*
X77735561Y-67912857D02*
X77926038Y-67531905D01*
X77926038Y-67531905D02*
X78116514Y-67341428D01*
X78116514Y-67341428D02*
X78497466Y-67150952D01*
X78497466Y-67150952D02*
X78878419Y-67150952D01*
X78878419Y-67150952D02*
X79259371Y-67341428D01*
X79259371Y-67341428D02*
X79449847Y-67531905D01*
X79449847Y-67531905D02*
X79640323Y-67912857D01*
X79640323Y-67912857D02*
X79640323Y-68865238D01*
X79640323Y-68865238D02*
X79449847Y-69436667D01*
D13*
X194828271Y-50550751D02*
X194465414Y-51276465D01*
X194465414Y-51276465D02*
X194102557Y-51518370D01*
X194102557Y-51518370D02*
X193376842Y-51760274D01*
X193376842Y-51760274D02*
X192288271Y-51760274D01*
X192288271Y-51760274D02*
X191562557Y-51518370D01*
X191562557Y-51518370D02*
X191199700Y-51276465D01*
X191199700Y-51276465D02*
X190836842Y-50792655D01*
X190836842Y-50792655D02*
X190836842Y-48857417D01*
X190836842Y-48857417D02*
X198456842Y-48857417D01*
X198456842Y-48857417D02*
X198456842Y-50550751D01*
X198456842Y-50550751D02*
X198093985Y-51034560D01*
X198093985Y-51034560D02*
X197731128Y-51276465D01*
X197731128Y-51276465D02*
X197005414Y-51518370D01*
X197005414Y-51518370D02*
X196279700Y-51518370D01*
X196279700Y-51518370D02*
X195553985Y-51276465D01*
X195553985Y-51276465D02*
X195191128Y-51034560D01*
X195191128Y-51034560D02*
X194828271Y-50550751D01*
X194828271Y-50550751D02*
X194828271Y-48857417D01*
X191199700Y-53695513D02*
X190836842Y-54421227D01*
X190836842Y-54421227D02*
X190836842Y-55630751D01*
X190836842Y-55630751D02*
X191199700Y-56114560D01*
X191199700Y-56114560D02*
X191562557Y-56356465D01*
X191562557Y-56356465D02*
X192288271Y-56598370D01*
X192288271Y-56598370D02*
X193013985Y-56598370D01*
X193013985Y-56598370D02*
X193739700Y-56356465D01*
X193739700Y-56356465D02*
X194102557Y-56114560D01*
X194102557Y-56114560D02*
X194465414Y-55630751D01*
X194465414Y-55630751D02*
X194828271Y-54663132D01*
X194828271Y-54663132D02*
X195191128Y-54179322D01*
X195191128Y-54179322D02*
X195553985Y-53937417D01*
X195553985Y-53937417D02*
X196279700Y-53695513D01*
X196279700Y-53695513D02*
X197005414Y-53695513D01*
X197005414Y-53695513D02*
X197731128Y-53937417D01*
X197731128Y-53937417D02*
X198093985Y-54179322D01*
X198093985Y-54179322D02*
X198456842Y-54663132D01*
X198456842Y-54663132D02*
X198456842Y-55872655D01*
X198456842Y-55872655D02*
X198093985Y-56598370D01*
X190836842Y-58775512D02*
X198456842Y-58775512D01*
X198456842Y-58775512D02*
X198456842Y-60710750D01*
X198456842Y-60710750D02*
X198093985Y-61194560D01*
X198093985Y-61194560D02*
X197731128Y-61436465D01*
X197731128Y-61436465D02*
X197005414Y-61678369D01*
X197005414Y-61678369D02*
X195916842Y-61678369D01*
X195916842Y-61678369D02*
X195191128Y-61436465D01*
X195191128Y-61436465D02*
X194828271Y-61194560D01*
X194828271Y-61194560D02*
X194465414Y-60710750D01*
X194465414Y-60710750D02*
X194465414Y-58775512D01*
X190836842Y-63855512D02*
X198456842Y-63855512D01*
X198456842Y-63855512D02*
X198456842Y-65065036D01*
X198456842Y-65065036D02*
X198093985Y-65790750D01*
X198093985Y-65790750D02*
X197368271Y-66274560D01*
X197368271Y-66274560D02*
X196642557Y-66516465D01*
X196642557Y-66516465D02*
X195191128Y-66758369D01*
X195191128Y-66758369D02*
X194102557Y-66758369D01*
X194102557Y-66758369D02*
X192651128Y-66516465D01*
X192651128Y-66516465D02*
X191925414Y-66274560D01*
X191925414Y-66274560D02*
X191199700Y-65790750D01*
X191199700Y-65790750D02*
X190836842Y-65065036D01*
X190836842Y-65065036D02*
X190836842Y-63855512D01*
D10*
X81795112Y-47386037D02*
X81937969Y-47433656D01*
X81937969Y-47433656D02*
X81985588Y-47481275D01*
X81985588Y-47481275D02*
X82033207Y-47576513D01*
X82033207Y-47576513D02*
X82033207Y-47719370D01*
X82033207Y-47719370D02*
X81985588Y-47814608D01*
X81985588Y-47814608D02*
X81937969Y-47862228D01*
X81937969Y-47862228D02*
X81842731Y-47909847D01*
X81842731Y-47909847D02*
X81461779Y-47909847D01*
X81461779Y-47909847D02*
X81461779Y-46909847D01*
X81461779Y-46909847D02*
X81795112Y-46909847D01*
X81795112Y-46909847D02*
X81890350Y-46957466D01*
X81890350Y-46957466D02*
X81937969Y-47005085D01*
X81937969Y-47005085D02*
X81985588Y-47100323D01*
X81985588Y-47100323D02*
X81985588Y-47195561D01*
X81985588Y-47195561D02*
X81937969Y-47290799D01*
X81937969Y-47290799D02*
X81890350Y-47338418D01*
X81890350Y-47338418D02*
X81795112Y-47386037D01*
X81795112Y-47386037D02*
X81461779Y-47386037D01*
X82461779Y-47909847D02*
X82461779Y-46909847D01*
X82461779Y-46909847D02*
X82842731Y-46909847D01*
X82842731Y-46909847D02*
X82937969Y-46957466D01*
X82937969Y-46957466D02*
X82985588Y-47005085D01*
X82985588Y-47005085D02*
X83033207Y-47100323D01*
X83033207Y-47100323D02*
X83033207Y-47243180D01*
X83033207Y-47243180D02*
X82985588Y-47338418D01*
X82985588Y-47338418D02*
X82937969Y-47386037D01*
X82937969Y-47386037D02*
X82842731Y-47433656D01*
X82842731Y-47433656D02*
X82461779Y-47433656D01*
X83414160Y-47862228D02*
X83557017Y-47909847D01*
X83557017Y-47909847D02*
X83795112Y-47909847D01*
X83795112Y-47909847D02*
X83890350Y-47862228D01*
X83890350Y-47862228D02*
X83937969Y-47814608D01*
X83937969Y-47814608D02*
X83985588Y-47719370D01*
X83985588Y-47719370D02*
X83985588Y-47624132D01*
X83985588Y-47624132D02*
X83937969Y-47528894D01*
X83937969Y-47528894D02*
X83890350Y-47481275D01*
X83890350Y-47481275D02*
X83795112Y-47433656D01*
X83795112Y-47433656D02*
X83604636Y-47386037D01*
X83604636Y-47386037D02*
X83509398Y-47338418D01*
X83509398Y-47338418D02*
X83461779Y-47290799D01*
X83461779Y-47290799D02*
X83414160Y-47195561D01*
X83414160Y-47195561D02*
X83414160Y-47100323D01*
X83414160Y-47100323D02*
X83461779Y-47005085D01*
X83461779Y-47005085D02*
X83509398Y-46957466D01*
X83509398Y-46957466D02*
X83604636Y-46909847D01*
X83604636Y-46909847D02*
X83842731Y-46909847D01*
X83842731Y-46909847D02*
X83985588Y-46957466D01*
X81414160Y-49472172D02*
X81557017Y-49519791D01*
X81557017Y-49519791D02*
X81795112Y-49519791D01*
X81795112Y-49519791D02*
X81890350Y-49472172D01*
X81890350Y-49472172D02*
X81937969Y-49424552D01*
X81937969Y-49424552D02*
X81985588Y-49329314D01*
X81985588Y-49329314D02*
X81985588Y-49234076D01*
X81985588Y-49234076D02*
X81937969Y-49138838D01*
X81937969Y-49138838D02*
X81890350Y-49091219D01*
X81890350Y-49091219D02*
X81795112Y-49043600D01*
X81795112Y-49043600D02*
X81604636Y-48995981D01*
X81604636Y-48995981D02*
X81509398Y-48948362D01*
X81509398Y-48948362D02*
X81461779Y-48900743D01*
X81461779Y-48900743D02*
X81414160Y-48805505D01*
X81414160Y-48805505D02*
X81414160Y-48710267D01*
X81414160Y-48710267D02*
X81461779Y-48615029D01*
X81461779Y-48615029D02*
X81509398Y-48567410D01*
X81509398Y-48567410D02*
X81604636Y-48519791D01*
X81604636Y-48519791D02*
X81842731Y-48519791D01*
X81842731Y-48519791D02*
X81985588Y-48567410D01*
X82414160Y-49519791D02*
X82414160Y-48853124D01*
X82414160Y-48519791D02*
X82366541Y-48567410D01*
X82366541Y-48567410D02*
X82414160Y-48615029D01*
X82414160Y-48615029D02*
X82461779Y-48567410D01*
X82461779Y-48567410D02*
X82414160Y-48519791D01*
X82414160Y-48519791D02*
X82414160Y-48615029D01*
X83318921Y-48853124D02*
X83318921Y-49662648D01*
X83318921Y-49662648D02*
X83271302Y-49757886D01*
X83271302Y-49757886D02*
X83223683Y-49805505D01*
X83223683Y-49805505D02*
X83128445Y-49853124D01*
X83128445Y-49853124D02*
X82985588Y-49853124D01*
X82985588Y-49853124D02*
X82890350Y-49805505D01*
X83318921Y-49472172D02*
X83223683Y-49519791D01*
X83223683Y-49519791D02*
X83033207Y-49519791D01*
X83033207Y-49519791D02*
X82937969Y-49472172D01*
X82937969Y-49472172D02*
X82890350Y-49424552D01*
X82890350Y-49424552D02*
X82842731Y-49329314D01*
X82842731Y-49329314D02*
X82842731Y-49043600D01*
X82842731Y-49043600D02*
X82890350Y-48948362D01*
X82890350Y-48948362D02*
X82937969Y-48900743D01*
X82937969Y-48900743D02*
X83033207Y-48853124D01*
X83033207Y-48853124D02*
X83223683Y-48853124D01*
X83223683Y-48853124D02*
X83318921Y-48900743D01*
D12*
X75830800Y-82638570D02*
X75640323Y-83067142D01*
X75640323Y-83067142D02*
X75640323Y-83781427D01*
X75640323Y-83781427D02*
X75830800Y-84067142D01*
X75830800Y-84067142D02*
X76021276Y-84209999D01*
X76021276Y-84209999D02*
X76402228Y-84352856D01*
X76402228Y-84352856D02*
X76783180Y-84352856D01*
X76783180Y-84352856D02*
X77164133Y-84209999D01*
X77164133Y-84209999D02*
X77354609Y-84067142D01*
X77354609Y-84067142D02*
X77545085Y-83781427D01*
X77545085Y-83781427D02*
X77735561Y-83209999D01*
X77735561Y-83209999D02*
X77926038Y-82924284D01*
X77926038Y-82924284D02*
X78116514Y-82781427D01*
X78116514Y-82781427D02*
X78497466Y-82638570D01*
X78497466Y-82638570D02*
X78878419Y-82638570D01*
X78878419Y-82638570D02*
X79259371Y-82781427D01*
X79259371Y-82781427D02*
X79449847Y-82924284D01*
X79449847Y-82924284D02*
X79640323Y-83209999D01*
X79640323Y-83209999D02*
X79640323Y-83924284D01*
X79640323Y-83924284D02*
X79449847Y-84352856D01*
X75640323Y-85638570D02*
X79640323Y-85638570D01*
X75640323Y-86924285D02*
X77735561Y-86924285D01*
X77735561Y-86924285D02*
X78116514Y-86781427D01*
X78116514Y-86781427D02*
X78306990Y-86495713D01*
X78306990Y-86495713D02*
X78306990Y-86067142D01*
X78306990Y-86067142D02*
X78116514Y-85781427D01*
X78116514Y-85781427D02*
X77926038Y-85638570D01*
X78306990Y-89638571D02*
X75640323Y-89638571D01*
X78306990Y-88352856D02*
X76211752Y-88352856D01*
X76211752Y-88352856D02*
X75830800Y-88495713D01*
X75830800Y-88495713D02*
X75640323Y-88781428D01*
X75640323Y-88781428D02*
X75640323Y-89209999D01*
X75640323Y-89209999D02*
X75830800Y-89495713D01*
X75830800Y-89495713D02*
X76021276Y-89638571D01*
X78306990Y-90638571D02*
X78306990Y-91781428D01*
X79640323Y-91067142D02*
X76211752Y-91067142D01*
X76211752Y-91067142D02*
X75830800Y-91209999D01*
X75830800Y-91209999D02*
X75640323Y-91495714D01*
X75640323Y-91495714D02*
X75640323Y-91781428D01*
X75640323Y-94067143D02*
X79640323Y-94067143D01*
X75830800Y-94067143D02*
X75640323Y-93781428D01*
X75640323Y-93781428D02*
X75640323Y-93210000D01*
X75640323Y-93210000D02*
X75830800Y-92924285D01*
X75830800Y-92924285D02*
X76021276Y-92781428D01*
X76021276Y-92781428D02*
X76402228Y-92638571D01*
X76402228Y-92638571D02*
X77545085Y-92638571D01*
X77545085Y-92638571D02*
X77926038Y-92781428D01*
X77926038Y-92781428D02*
X78116514Y-92924285D01*
X78116514Y-92924285D02*
X78306990Y-93210000D01*
X78306990Y-93210000D02*
X78306990Y-93781428D01*
X78306990Y-93781428D02*
X78116514Y-94067143D01*
X75640323Y-95924286D02*
X75830800Y-95638571D01*
X75830800Y-95638571D02*
X76021276Y-95495714D01*
X76021276Y-95495714D02*
X76402228Y-95352857D01*
X76402228Y-95352857D02*
X77545085Y-95352857D01*
X77545085Y-95352857D02*
X77926038Y-95495714D01*
X77926038Y-95495714D02*
X78116514Y-95638571D01*
X78116514Y-95638571D02*
X78306990Y-95924286D01*
X78306990Y-95924286D02*
X78306990Y-96352857D01*
X78306990Y-96352857D02*
X78116514Y-96638571D01*
X78116514Y-96638571D02*
X77926038Y-96781429D01*
X77926038Y-96781429D02*
X77545085Y-96924286D01*
X77545085Y-96924286D02*
X76402228Y-96924286D01*
X76402228Y-96924286D02*
X76021276Y-96781429D01*
X76021276Y-96781429D02*
X75830800Y-96638571D01*
X75830800Y-96638571D02*
X75640323Y-96352857D01*
X75640323Y-96352857D02*
X75640323Y-95924286D01*
X78306990Y-97924286D02*
X75640323Y-98495715D01*
X75640323Y-98495715D02*
X77545085Y-99067143D01*
X77545085Y-99067143D02*
X75640323Y-99638572D01*
X75640323Y-99638572D02*
X78306990Y-100210000D01*
X78306990Y-101352857D02*
X75640323Y-101352857D01*
X77926038Y-101352857D02*
X78116514Y-101495714D01*
X78116514Y-101495714D02*
X78306990Y-101781429D01*
X78306990Y-101781429D02*
X78306990Y-102210000D01*
X78306990Y-102210000D02*
X78116514Y-102495714D01*
X78116514Y-102495714D02*
X77735561Y-102638572D01*
X77735561Y-102638572D02*
X75640323Y-102638572D01*
D11*
X112716600Y-94659285D02*
X112630885Y-94873571D01*
X112630885Y-94873571D02*
X112630885Y-95230713D01*
X112630885Y-95230713D02*
X112716600Y-95373571D01*
X112716600Y-95373571D02*
X112802314Y-95444999D01*
X112802314Y-95444999D02*
X112973742Y-95516428D01*
X112973742Y-95516428D02*
X113145171Y-95516428D01*
X113145171Y-95516428D02*
X113316600Y-95444999D01*
X113316600Y-95444999D02*
X113402314Y-95373571D01*
X113402314Y-95373571D02*
X113488028Y-95230713D01*
X113488028Y-95230713D02*
X113573742Y-94944999D01*
X113573742Y-94944999D02*
X113659457Y-94802142D01*
X113659457Y-94802142D02*
X113745171Y-94730713D01*
X113745171Y-94730713D02*
X113916600Y-94659285D01*
X113916600Y-94659285D02*
X114088028Y-94659285D01*
X114088028Y-94659285D02*
X114259457Y-94730713D01*
X114259457Y-94730713D02*
X114345171Y-94802142D01*
X114345171Y-94802142D02*
X114430885Y-94944999D01*
X114430885Y-94944999D02*
X114430885Y-95302142D01*
X114430885Y-95302142D02*
X114345171Y-95516428D01*
X112630885Y-96159284D02*
X114430885Y-96159284D01*
X112630885Y-96802142D02*
X113573742Y-96802142D01*
X113573742Y-96802142D02*
X113745171Y-96730713D01*
X113745171Y-96730713D02*
X113830885Y-96587856D01*
X113830885Y-96587856D02*
X113830885Y-96373570D01*
X113830885Y-96373570D02*
X113745171Y-96230713D01*
X113745171Y-96230713D02*
X113659457Y-96159284D01*
X113830885Y-98159285D02*
X112630885Y-98159285D01*
X113830885Y-97516427D02*
X112888028Y-97516427D01*
X112888028Y-97516427D02*
X112716600Y-97587856D01*
X112716600Y-97587856D02*
X112630885Y-97730713D01*
X112630885Y-97730713D02*
X112630885Y-97944999D01*
X112630885Y-97944999D02*
X112716600Y-98087856D01*
X112716600Y-98087856D02*
X112802314Y-98159285D01*
X113830885Y-98659285D02*
X113830885Y-99230713D01*
X114430885Y-98873570D02*
X112888028Y-98873570D01*
X112888028Y-98873570D02*
X112716600Y-98944999D01*
X112716600Y-98944999D02*
X112630885Y-99087856D01*
X112630885Y-99087856D02*
X112630885Y-99230713D01*
X112630885Y-100373571D02*
X114430885Y-100373571D01*
X112716600Y-100373571D02*
X112630885Y-100230713D01*
X112630885Y-100230713D02*
X112630885Y-99944999D01*
X112630885Y-99944999D02*
X112716600Y-99802142D01*
X112716600Y-99802142D02*
X112802314Y-99730713D01*
X112802314Y-99730713D02*
X112973742Y-99659285D01*
X112973742Y-99659285D02*
X113488028Y-99659285D01*
X113488028Y-99659285D02*
X113659457Y-99730713D01*
X113659457Y-99730713D02*
X113745171Y-99802142D01*
X113745171Y-99802142D02*
X113830885Y-99944999D01*
X113830885Y-99944999D02*
X113830885Y-100230713D01*
X113830885Y-100230713D02*
X113745171Y-100373571D01*
X112630885Y-101302142D02*
X112716600Y-101159285D01*
X112716600Y-101159285D02*
X112802314Y-101087856D01*
X112802314Y-101087856D02*
X112973742Y-101016428D01*
X112973742Y-101016428D02*
X113488028Y-101016428D01*
X113488028Y-101016428D02*
X113659457Y-101087856D01*
X113659457Y-101087856D02*
X113745171Y-101159285D01*
X113745171Y-101159285D02*
X113830885Y-101302142D01*
X113830885Y-101302142D02*
X113830885Y-101516428D01*
X113830885Y-101516428D02*
X113745171Y-101659285D01*
X113745171Y-101659285D02*
X113659457Y-101730714D01*
X113659457Y-101730714D02*
X113488028Y-101802142D01*
X113488028Y-101802142D02*
X112973742Y-101802142D01*
X112973742Y-101802142D02*
X112802314Y-101730714D01*
X112802314Y-101730714D02*
X112716600Y-101659285D01*
X112716600Y-101659285D02*
X112630885Y-101516428D01*
X112630885Y-101516428D02*
X112630885Y-101302142D01*
X113830885Y-102302142D02*
X112630885Y-102587857D01*
X112630885Y-102587857D02*
X113488028Y-102873571D01*
X113488028Y-102873571D02*
X112630885Y-103159285D01*
X112630885Y-103159285D02*
X113830885Y-103444999D01*
X113830885Y-104016428D02*
X112630885Y-104016428D01*
X113659457Y-104016428D02*
X113745171Y-104087857D01*
X113745171Y-104087857D02*
X113830885Y-104230714D01*
X113830885Y-104230714D02*
X113830885Y-104445000D01*
X113830885Y-104445000D02*
X113745171Y-104587857D01*
X113745171Y-104587857D02*
X113573742Y-104659286D01*
X113573742Y-104659286D02*
X112630885Y-104659286D01*
D10*
X88465124Y-66881904D02*
X88465124Y-67453332D01*
X87465124Y-67167618D02*
X88465124Y-67167618D01*
X87465124Y-67786666D02*
X88465124Y-67786666D01*
X88465124Y-67786666D02*
X88465124Y-68167618D01*
X88465124Y-68167618D02*
X88417505Y-68262856D01*
X88417505Y-68262856D02*
X88369886Y-68310475D01*
X88369886Y-68310475D02*
X88274648Y-68358094D01*
X88274648Y-68358094D02*
X88131791Y-68358094D01*
X88131791Y-68358094D02*
X88036553Y-68310475D01*
X88036553Y-68310475D02*
X87988934Y-68262856D01*
X87988934Y-68262856D02*
X87941315Y-68167618D01*
X87941315Y-68167618D02*
X87941315Y-67786666D01*
X87512744Y-68739047D02*
X87465124Y-68881904D01*
X87465124Y-68881904D02*
X87465124Y-69119999D01*
X87465124Y-69119999D02*
X87512744Y-69215237D01*
X87512744Y-69215237D02*
X87560363Y-69262856D01*
X87560363Y-69262856D02*
X87655601Y-69310475D01*
X87655601Y-69310475D02*
X87750839Y-69310475D01*
X87750839Y-69310475D02*
X87846077Y-69262856D01*
X87846077Y-69262856D02*
X87893696Y-69215237D01*
X87893696Y-69215237D02*
X87941315Y-69119999D01*
X87941315Y-69119999D02*
X87988934Y-68929523D01*
X87988934Y-68929523D02*
X88036553Y-68834285D01*
X88036553Y-68834285D02*
X88084172Y-68786666D01*
X88084172Y-68786666D02*
X88179410Y-68739047D01*
X88179410Y-68739047D02*
X88274648Y-68739047D01*
X88274648Y-68739047D02*
X88369886Y-68786666D01*
X88369886Y-68786666D02*
X88417505Y-68834285D01*
X88417505Y-68834285D02*
X88465124Y-68929523D01*
X88465124Y-68929523D02*
X88465124Y-69167618D01*
X88465124Y-69167618D02*
X88417505Y-69310475D01*
X87465124Y-71262857D02*
X88465124Y-71262857D01*
X88465124Y-71262857D02*
X88465124Y-71643809D01*
X88465124Y-71643809D02*
X88417505Y-71739047D01*
X88417505Y-71739047D02*
X88369886Y-71786666D01*
X88369886Y-71786666D02*
X88274648Y-71834285D01*
X88274648Y-71834285D02*
X88131791Y-71834285D01*
X88131791Y-71834285D02*
X88036553Y-71786666D01*
X88036553Y-71786666D02*
X87988934Y-71739047D01*
X87988934Y-71739047D02*
X87941315Y-71643809D01*
X87941315Y-71643809D02*
X87941315Y-71262857D01*
X87465124Y-72405714D02*
X87512744Y-72310476D01*
X87512744Y-72310476D02*
X87560363Y-72262857D01*
X87560363Y-72262857D02*
X87655601Y-72215238D01*
X87655601Y-72215238D02*
X87941315Y-72215238D01*
X87941315Y-72215238D02*
X88036553Y-72262857D01*
X88036553Y-72262857D02*
X88084172Y-72310476D01*
X88084172Y-72310476D02*
X88131791Y-72405714D01*
X88131791Y-72405714D02*
X88131791Y-72548571D01*
X88131791Y-72548571D02*
X88084172Y-72643809D01*
X88084172Y-72643809D02*
X88036553Y-72691428D01*
X88036553Y-72691428D02*
X87941315Y-72739047D01*
X87941315Y-72739047D02*
X87655601Y-72739047D01*
X87655601Y-72739047D02*
X87560363Y-72691428D01*
X87560363Y-72691428D02*
X87512744Y-72643809D01*
X87512744Y-72643809D02*
X87465124Y-72548571D01*
X87465124Y-72548571D02*
X87465124Y-72405714D01*
X88131791Y-73072381D02*
X87465124Y-73262857D01*
X87465124Y-73262857D02*
X87941315Y-73453333D01*
X87941315Y-73453333D02*
X87465124Y-73643809D01*
X87465124Y-73643809D02*
X88131791Y-73834285D01*
X87512744Y-74596190D02*
X87465124Y-74500952D01*
X87465124Y-74500952D02*
X87465124Y-74310476D01*
X87465124Y-74310476D02*
X87512744Y-74215238D01*
X87512744Y-74215238D02*
X87607982Y-74167619D01*
X87607982Y-74167619D02*
X87988934Y-74167619D01*
X87988934Y-74167619D02*
X88084172Y-74215238D01*
X88084172Y-74215238D02*
X88131791Y-74310476D01*
X88131791Y-74310476D02*
X88131791Y-74500952D01*
X88131791Y-74500952D02*
X88084172Y-74596190D01*
X88084172Y-74596190D02*
X87988934Y-74643809D01*
X87988934Y-74643809D02*
X87893696Y-74643809D01*
X87893696Y-74643809D02*
X87798458Y-74167619D01*
X87465124Y-75072381D02*
X88131791Y-75072381D01*
X87941315Y-75072381D02*
X88036553Y-75120000D01*
X88036553Y-75120000D02*
X88084172Y-75167619D01*
X88084172Y-75167619D02*
X88131791Y-75262857D01*
X88131791Y-75262857D02*
X88131791Y-75358095D01*
X85855180Y-68453332D02*
X85855180Y-67881904D01*
X85855180Y-68167618D02*
X86855180Y-68167618D01*
X86855180Y-68167618D02*
X86712323Y-68072380D01*
X86712323Y-68072380D02*
X86617085Y-67977142D01*
X86617085Y-67977142D02*
X86569466Y-67881904D01*
X86759942Y-68834285D02*
X86807561Y-68881904D01*
X86807561Y-68881904D02*
X86855180Y-68977142D01*
X86855180Y-68977142D02*
X86855180Y-69215237D01*
X86855180Y-69215237D02*
X86807561Y-69310475D01*
X86807561Y-69310475D02*
X86759942Y-69358094D01*
X86759942Y-69358094D02*
X86664704Y-69405713D01*
X86664704Y-69405713D02*
X86569466Y-69405713D01*
X86569466Y-69405713D02*
X86426609Y-69358094D01*
X86426609Y-69358094D02*
X85855180Y-68786666D01*
X85855180Y-68786666D02*
X85855180Y-69405713D01*
X86855180Y-69691428D02*
X85855180Y-70024761D01*
X85855180Y-70024761D02*
X86855180Y-70358094D01*
X86855180Y-72691428D02*
X86855180Y-72215238D01*
X86855180Y-72215238D02*
X86378990Y-72167619D01*
X86378990Y-72167619D02*
X86426609Y-72215238D01*
X86426609Y-72215238D02*
X86474228Y-72310476D01*
X86474228Y-72310476D02*
X86474228Y-72548571D01*
X86474228Y-72548571D02*
X86426609Y-72643809D01*
X86426609Y-72643809D02*
X86378990Y-72691428D01*
X86378990Y-72691428D02*
X86283752Y-72739047D01*
X86283752Y-72739047D02*
X86045657Y-72739047D01*
X86045657Y-72739047D02*
X85950419Y-72691428D01*
X85950419Y-72691428D02*
X85902800Y-72643809D01*
X85902800Y-72643809D02*
X85855180Y-72548571D01*
X85855180Y-72548571D02*
X85855180Y-72310476D01*
X85855180Y-72310476D02*
X85902800Y-72215238D01*
X85902800Y-72215238D02*
X85950419Y-72167619D01*
X86855180Y-73024762D02*
X85855180Y-73358095D01*
X85855180Y-73358095D02*
X86855180Y-73691428D01*
D12*
X97028095Y-45862533D02*
X98551905Y-45862533D01*
X97790000Y-46624438D02*
X97790000Y-45100628D01*
D11*
X114976203Y-45669308D02*
X115190489Y-45755022D01*
X115190489Y-45755022D02*
X115261918Y-45840736D01*
X115261918Y-45840736D02*
X115333346Y-46012165D01*
X115333346Y-46012165D02*
X115333346Y-46269308D01*
X115333346Y-46269308D02*
X115261918Y-46440736D01*
X115261918Y-46440736D02*
X115190489Y-46526451D01*
X115190489Y-46526451D02*
X115047632Y-46612165D01*
X115047632Y-46612165D02*
X114476203Y-46612165D01*
X114476203Y-46612165D02*
X114476203Y-44812165D01*
X114476203Y-44812165D02*
X114976203Y-44812165D01*
X114976203Y-44812165D02*
X115119061Y-44897879D01*
X115119061Y-44897879D02*
X115190489Y-44983593D01*
X115190489Y-44983593D02*
X115261918Y-45155022D01*
X115261918Y-45155022D02*
X115261918Y-45326451D01*
X115261918Y-45326451D02*
X115190489Y-45497879D01*
X115190489Y-45497879D02*
X115119061Y-45583593D01*
X115119061Y-45583593D02*
X114976203Y-45669308D01*
X114976203Y-45669308D02*
X114476203Y-45669308D01*
X115976203Y-46612165D02*
X115976203Y-44812165D01*
X115976203Y-44812165D02*
X116547632Y-44812165D01*
X116547632Y-44812165D02*
X116690489Y-44897879D01*
X116690489Y-44897879D02*
X116761918Y-44983593D01*
X116761918Y-44983593D02*
X116833346Y-45155022D01*
X116833346Y-45155022D02*
X116833346Y-45412165D01*
X116833346Y-45412165D02*
X116761918Y-45583593D01*
X116761918Y-45583593D02*
X116690489Y-45669308D01*
X116690489Y-45669308D02*
X116547632Y-45755022D01*
X116547632Y-45755022D02*
X115976203Y-45755022D01*
X117404775Y-46526451D02*
X117619061Y-46612165D01*
X117619061Y-46612165D02*
X117976203Y-46612165D01*
X117976203Y-46612165D02*
X118119061Y-46526451D01*
X118119061Y-46526451D02*
X118190489Y-46440736D01*
X118190489Y-46440736D02*
X118261918Y-46269308D01*
X118261918Y-46269308D02*
X118261918Y-46097879D01*
X118261918Y-46097879D02*
X118190489Y-45926451D01*
X118190489Y-45926451D02*
X118119061Y-45840736D01*
X118119061Y-45840736D02*
X117976203Y-45755022D01*
X117976203Y-45755022D02*
X117690489Y-45669308D01*
X117690489Y-45669308D02*
X117547632Y-45583593D01*
X117547632Y-45583593D02*
X117476203Y-45497879D01*
X117476203Y-45497879D02*
X117404775Y-45326451D01*
X117404775Y-45326451D02*
X117404775Y-45155022D01*
X117404775Y-45155022D02*
X117476203Y-44983593D01*
X117476203Y-44983593D02*
X117547632Y-44897879D01*
X117547632Y-44897879D02*
X117690489Y-44812165D01*
X117690489Y-44812165D02*
X118047632Y-44812165D01*
X118047632Y-44812165D02*
X118261918Y-44897879D01*
X114547632Y-47710064D02*
X115404775Y-47710064D01*
X114976203Y-49510064D02*
X114976203Y-47710064D01*
X115904774Y-49510064D02*
X115904774Y-48310064D01*
X115904774Y-48652921D02*
X115976203Y-48481492D01*
X115976203Y-48481492D02*
X116047632Y-48395778D01*
X116047632Y-48395778D02*
X116190489Y-48310064D01*
X116190489Y-48310064D02*
X116333346Y-48310064D01*
X116833345Y-49510064D02*
X116833345Y-48310064D01*
X116833345Y-47710064D02*
X116761917Y-47795778D01*
X116761917Y-47795778D02*
X116833345Y-47881492D01*
X116833345Y-47881492D02*
X116904774Y-47795778D01*
X116904774Y-47795778D02*
X116833345Y-47710064D01*
X116833345Y-47710064D02*
X116833345Y-47881492D01*
X118190489Y-48310064D02*
X118190489Y-49767207D01*
X118190489Y-49767207D02*
X118119060Y-49938635D01*
X118119060Y-49938635D02*
X118047631Y-50024350D01*
X118047631Y-50024350D02*
X117904774Y-50110064D01*
X117904774Y-50110064D02*
X117690489Y-50110064D01*
X117690489Y-50110064D02*
X117547631Y-50024350D01*
X118190489Y-49424350D02*
X118047631Y-49510064D01*
X118047631Y-49510064D02*
X117761917Y-49510064D01*
X117761917Y-49510064D02*
X117619060Y-49424350D01*
X117619060Y-49424350D02*
X117547631Y-49338635D01*
X117547631Y-49338635D02*
X117476203Y-49167207D01*
X117476203Y-49167207D02*
X117476203Y-48652921D01*
X117476203Y-48652921D02*
X117547631Y-48481492D01*
X117547631Y-48481492D02*
X117619060Y-48395778D01*
X117619060Y-48395778D02*
X117761917Y-48310064D01*
X117761917Y-48310064D02*
X118047631Y-48310064D01*
X118047631Y-48310064D02*
X118190489Y-48395778D01*
D10*
X175791905Y-95704819D02*
X175791905Y-94704819D01*
X175791905Y-94704819D02*
X176030000Y-94704819D01*
X176030000Y-94704819D02*
X176172857Y-94752438D01*
X176172857Y-94752438D02*
X176268095Y-94847676D01*
X176268095Y-94847676D02*
X176315714Y-94942914D01*
X176315714Y-94942914D02*
X176363333Y-95133390D01*
X176363333Y-95133390D02*
X176363333Y-95276247D01*
X176363333Y-95276247D02*
X176315714Y-95466723D01*
X176315714Y-95466723D02*
X176268095Y-95561961D01*
X176268095Y-95561961D02*
X176172857Y-95657200D01*
X176172857Y-95657200D02*
X176030000Y-95704819D01*
X176030000Y-95704819D02*
X175791905Y-95704819D01*
X176696667Y-94704819D02*
X177363333Y-94704819D01*
X177363333Y-94704819D02*
X176934762Y-95704819D01*
X179697142Y-105694819D02*
X179363809Y-105218628D01*
X179125714Y-105694819D02*
X179125714Y-104694819D01*
X179125714Y-104694819D02*
X179506666Y-104694819D01*
X179506666Y-104694819D02*
X179601904Y-104742438D01*
X179601904Y-104742438D02*
X179649523Y-104790057D01*
X179649523Y-104790057D02*
X179697142Y-104885295D01*
X179697142Y-104885295D02*
X179697142Y-105028152D01*
X179697142Y-105028152D02*
X179649523Y-105123390D01*
X179649523Y-105123390D02*
X179601904Y-105171009D01*
X179601904Y-105171009D02*
X179506666Y-105218628D01*
X179506666Y-105218628D02*
X179125714Y-105218628D01*
X180649523Y-105694819D02*
X180078095Y-105694819D01*
X180363809Y-105694819D02*
X180363809Y-104694819D01*
X180363809Y-104694819D02*
X180268571Y-104837676D01*
X180268571Y-104837676D02*
X180173333Y-104932914D01*
X180173333Y-104932914D02*
X180078095Y-104980533D01*
X181268571Y-104694819D02*
X181363809Y-104694819D01*
X181363809Y-104694819D02*
X181459047Y-104742438D01*
X181459047Y-104742438D02*
X181506666Y-104790057D01*
X181506666Y-104790057D02*
X181554285Y-104885295D01*
X181554285Y-104885295D02*
X181601904Y-105075771D01*
X181601904Y-105075771D02*
X181601904Y-105313866D01*
X181601904Y-105313866D02*
X181554285Y-105504342D01*
X181554285Y-105504342D02*
X181506666Y-105599580D01*
X181506666Y-105599580D02*
X181459047Y-105647200D01*
X181459047Y-105647200D02*
X181363809Y-105694819D01*
X181363809Y-105694819D02*
X181268571Y-105694819D01*
X181268571Y-105694819D02*
X181173333Y-105647200D01*
X181173333Y-105647200D02*
X181125714Y-105599580D01*
X181125714Y-105599580D02*
X181078095Y-105504342D01*
X181078095Y-105504342D02*
X181030476Y-105313866D01*
X181030476Y-105313866D02*
X181030476Y-105075771D01*
X181030476Y-105075771D02*
X181078095Y-104885295D01*
X181078095Y-104885295D02*
X181125714Y-104790057D01*
X181125714Y-104790057D02*
X181173333Y-104742438D01*
X181173333Y-104742438D02*
X181268571Y-104694819D01*
X152931905Y-95704819D02*
X152931905Y-94704819D01*
X152931905Y-94704819D02*
X153170000Y-94704819D01*
X153170000Y-94704819D02*
X153312857Y-94752438D01*
X153312857Y-94752438D02*
X153408095Y-94847676D01*
X153408095Y-94847676D02*
X153455714Y-94942914D01*
X153455714Y-94942914D02*
X153503333Y-95133390D01*
X153503333Y-95133390D02*
X153503333Y-95276247D01*
X153503333Y-95276247D02*
X153455714Y-95466723D01*
X153455714Y-95466723D02*
X153408095Y-95561961D01*
X153408095Y-95561961D02*
X153312857Y-95657200D01*
X153312857Y-95657200D02*
X153170000Y-95704819D01*
X153170000Y-95704819D02*
X152931905Y-95704819D01*
X154360476Y-95038152D02*
X154360476Y-95704819D01*
X154122381Y-94657200D02*
X153884286Y-95371485D01*
X153884286Y-95371485D02*
X154503333Y-95371485D01*
X84649819Y-50363333D02*
X85364104Y-50363333D01*
X85364104Y-50363333D02*
X85506961Y-50410952D01*
X85506961Y-50410952D02*
X85602200Y-50506190D01*
X85602200Y-50506190D02*
X85649819Y-50649047D01*
X85649819Y-50649047D02*
X85649819Y-50744285D01*
X85649819Y-49887142D02*
X84649819Y-49887142D01*
X84649819Y-49887142D02*
X84649819Y-49506190D01*
X84649819Y-49506190D02*
X84697438Y-49410952D01*
X84697438Y-49410952D02*
X84745057Y-49363333D01*
X84745057Y-49363333D02*
X84840295Y-49315714D01*
X84840295Y-49315714D02*
X84983152Y-49315714D01*
X84983152Y-49315714D02*
X85078390Y-49363333D01*
X85078390Y-49363333D02*
X85126009Y-49410952D01*
X85126009Y-49410952D02*
X85173628Y-49506190D01*
X85173628Y-49506190D02*
X85173628Y-49887142D01*
X85649819Y-48363333D02*
X85649819Y-48934761D01*
X85649819Y-48649047D02*
X84649819Y-48649047D01*
X84649819Y-48649047D02*
X84792676Y-48744285D01*
X84792676Y-48744285D02*
X84887914Y-48839523D01*
X84887914Y-48839523D02*
X84935533Y-48934761D01*
X133381905Y-104654819D02*
X133381905Y-105464342D01*
X133381905Y-105464342D02*
X133429524Y-105559580D01*
X133429524Y-105559580D02*
X133477143Y-105607200D01*
X133477143Y-105607200D02*
X133572381Y-105654819D01*
X133572381Y-105654819D02*
X133762857Y-105654819D01*
X133762857Y-105654819D02*
X133858095Y-105607200D01*
X133858095Y-105607200D02*
X133905714Y-105559580D01*
X133905714Y-105559580D02*
X133953333Y-105464342D01*
X133953333Y-105464342D02*
X133953333Y-104654819D01*
X134953333Y-105654819D02*
X134381905Y-105654819D01*
X134667619Y-105654819D02*
X134667619Y-104654819D01*
X134667619Y-104654819D02*
X134572381Y-104797676D01*
X134572381Y-104797676D02*
X134477143Y-104892914D01*
X134477143Y-104892914D02*
X134381905Y-104940533D01*
X135334286Y-104750057D02*
X135381905Y-104702438D01*
X135381905Y-104702438D02*
X135477143Y-104654819D01*
X135477143Y-104654819D02*
X135715238Y-104654819D01*
X135715238Y-104654819D02*
X135810476Y-104702438D01*
X135810476Y-104702438D02*
X135858095Y-104750057D01*
X135858095Y-104750057D02*
X135905714Y-104845295D01*
X135905714Y-104845295D02*
X135905714Y-104940533D01*
X135905714Y-104940533D02*
X135858095Y-105083390D01*
X135858095Y-105083390D02*
X135286667Y-105654819D01*
X135286667Y-105654819D02*
X135905714Y-105654819D01*
X136398095Y-42634819D02*
X136398095Y-43444342D01*
X136398095Y-43444342D02*
X136445714Y-43539580D01*
X136445714Y-43539580D02*
X136493333Y-43587200D01*
X136493333Y-43587200D02*
X136588571Y-43634819D01*
X136588571Y-43634819D02*
X136779047Y-43634819D01*
X136779047Y-43634819D02*
X136874285Y-43587200D01*
X136874285Y-43587200D02*
X136921904Y-43539580D01*
X136921904Y-43539580D02*
X136969523Y-43444342D01*
X136969523Y-43444342D02*
X136969523Y-42634819D01*
X137350476Y-42634819D02*
X137969523Y-42634819D01*
X137969523Y-42634819D02*
X137636190Y-43015771D01*
X137636190Y-43015771D02*
X137779047Y-43015771D01*
X137779047Y-43015771D02*
X137874285Y-43063390D01*
X137874285Y-43063390D02*
X137921904Y-43111009D01*
X137921904Y-43111009D02*
X137969523Y-43206247D01*
X137969523Y-43206247D02*
X137969523Y-43444342D01*
X137969523Y-43444342D02*
X137921904Y-43539580D01*
X137921904Y-43539580D02*
X137874285Y-43587200D01*
X137874285Y-43587200D02*
X137779047Y-43634819D01*
X137779047Y-43634819D02*
X137493333Y-43634819D01*
X137493333Y-43634819D02*
X137398095Y-43587200D01*
X137398095Y-43587200D02*
X137350476Y-43539580D01*
X165608095Y-68034819D02*
X165608095Y-68844342D01*
X165608095Y-68844342D02*
X165655714Y-68939580D01*
X165655714Y-68939580D02*
X165703333Y-68987200D01*
X165703333Y-68987200D02*
X165798571Y-69034819D01*
X165798571Y-69034819D02*
X165989047Y-69034819D01*
X165989047Y-69034819D02*
X166084285Y-68987200D01*
X166084285Y-68987200D02*
X166131904Y-68939580D01*
X166131904Y-68939580D02*
X166179523Y-68844342D01*
X166179523Y-68844342D02*
X166179523Y-68034819D01*
X167131904Y-68034819D02*
X166655714Y-68034819D01*
X166655714Y-68034819D02*
X166608095Y-68511009D01*
X166608095Y-68511009D02*
X166655714Y-68463390D01*
X166655714Y-68463390D02*
X166750952Y-68415771D01*
X166750952Y-68415771D02*
X166989047Y-68415771D01*
X166989047Y-68415771D02*
X167084285Y-68463390D01*
X167084285Y-68463390D02*
X167131904Y-68511009D01*
X167131904Y-68511009D02*
X167179523Y-68606247D01*
X167179523Y-68606247D02*
X167179523Y-68844342D01*
X167179523Y-68844342D02*
X167131904Y-68939580D01*
X167131904Y-68939580D02*
X167084285Y-68987200D01*
X167084285Y-68987200D02*
X166989047Y-69034819D01*
X166989047Y-69034819D02*
X166750952Y-69034819D01*
X166750952Y-69034819D02*
X166655714Y-68987200D01*
X166655714Y-68987200D02*
X166608095Y-68939580D01*
X118737142Y-105694819D02*
X118403809Y-105218628D01*
X118165714Y-105694819D02*
X118165714Y-104694819D01*
X118165714Y-104694819D02*
X118546666Y-104694819D01*
X118546666Y-104694819D02*
X118641904Y-104742438D01*
X118641904Y-104742438D02*
X118689523Y-104790057D01*
X118689523Y-104790057D02*
X118737142Y-104885295D01*
X118737142Y-104885295D02*
X118737142Y-105028152D01*
X118737142Y-105028152D02*
X118689523Y-105123390D01*
X118689523Y-105123390D02*
X118641904Y-105171009D01*
X118641904Y-105171009D02*
X118546666Y-105218628D01*
X118546666Y-105218628D02*
X118165714Y-105218628D01*
X119689523Y-105694819D02*
X119118095Y-105694819D01*
X119403809Y-105694819D02*
X119403809Y-104694819D01*
X119403809Y-104694819D02*
X119308571Y-104837676D01*
X119308571Y-104837676D02*
X119213333Y-104932914D01*
X119213333Y-104932914D02*
X119118095Y-104980533D01*
X120641904Y-105694819D02*
X120070476Y-105694819D01*
X120356190Y-105694819D02*
X120356190Y-104694819D01*
X120356190Y-104694819D02*
X120260952Y-104837676D01*
X120260952Y-104837676D02*
X120165714Y-104932914D01*
X120165714Y-104932914D02*
X120070476Y-104980533D01*
X90764819Y-60290238D02*
X90288628Y-60623571D01*
X90764819Y-60861666D02*
X89764819Y-60861666D01*
X89764819Y-60861666D02*
X89764819Y-60480714D01*
X89764819Y-60480714D02*
X89812438Y-60385476D01*
X89812438Y-60385476D02*
X89860057Y-60337857D01*
X89860057Y-60337857D02*
X89955295Y-60290238D01*
X89955295Y-60290238D02*
X90098152Y-60290238D01*
X90098152Y-60290238D02*
X90193390Y-60337857D01*
X90193390Y-60337857D02*
X90241009Y-60385476D01*
X90241009Y-60385476D02*
X90288628Y-60480714D01*
X90288628Y-60480714D02*
X90288628Y-60861666D01*
X89764819Y-60004523D02*
X90764819Y-59671190D01*
X90764819Y-59671190D02*
X89764819Y-59337857D01*
X89860057Y-59052142D02*
X89812438Y-59004523D01*
X89812438Y-59004523D02*
X89764819Y-58909285D01*
X89764819Y-58909285D02*
X89764819Y-58671190D01*
X89764819Y-58671190D02*
X89812438Y-58575952D01*
X89812438Y-58575952D02*
X89860057Y-58528333D01*
X89860057Y-58528333D02*
X89955295Y-58480714D01*
X89955295Y-58480714D02*
X90050533Y-58480714D01*
X90050533Y-58480714D02*
X90193390Y-58528333D01*
X90193390Y-58528333D02*
X90764819Y-59099761D01*
X90764819Y-59099761D02*
X90764819Y-58480714D01*
X120944819Y-70450238D02*
X120468628Y-70783571D01*
X120944819Y-71021666D02*
X119944819Y-71021666D01*
X119944819Y-71021666D02*
X119944819Y-70640714D01*
X119944819Y-70640714D02*
X119992438Y-70545476D01*
X119992438Y-70545476D02*
X120040057Y-70497857D01*
X120040057Y-70497857D02*
X120135295Y-70450238D01*
X120135295Y-70450238D02*
X120278152Y-70450238D01*
X120278152Y-70450238D02*
X120373390Y-70497857D01*
X120373390Y-70497857D02*
X120421009Y-70545476D01*
X120421009Y-70545476D02*
X120468628Y-70640714D01*
X120468628Y-70640714D02*
X120468628Y-71021666D01*
X119944819Y-70164523D02*
X120944819Y-69831190D01*
X120944819Y-69831190D02*
X119944819Y-69497857D01*
X119944819Y-69259761D02*
X119944819Y-68640714D01*
X119944819Y-68640714D02*
X120325771Y-68974047D01*
X120325771Y-68974047D02*
X120325771Y-68831190D01*
X120325771Y-68831190D02*
X120373390Y-68735952D01*
X120373390Y-68735952D02*
X120421009Y-68688333D01*
X120421009Y-68688333D02*
X120516247Y-68640714D01*
X120516247Y-68640714D02*
X120754342Y-68640714D01*
X120754342Y-68640714D02*
X120849580Y-68688333D01*
X120849580Y-68688333D02*
X120897200Y-68735952D01*
X120897200Y-68735952D02*
X120944819Y-68831190D01*
X120944819Y-68831190D02*
X120944819Y-69116904D01*
X120944819Y-69116904D02*
X120897200Y-69212142D01*
X120897200Y-69212142D02*
X120849580Y-69259761D01*
X199709580Y-83946666D02*
X199757200Y-83994285D01*
X199757200Y-83994285D02*
X199804819Y-84137142D01*
X199804819Y-84137142D02*
X199804819Y-84232380D01*
X199804819Y-84232380D02*
X199757200Y-84375237D01*
X199757200Y-84375237D02*
X199661961Y-84470475D01*
X199661961Y-84470475D02*
X199566723Y-84518094D01*
X199566723Y-84518094D02*
X199376247Y-84565713D01*
X199376247Y-84565713D02*
X199233390Y-84565713D01*
X199233390Y-84565713D02*
X199042914Y-84518094D01*
X199042914Y-84518094D02*
X198947676Y-84470475D01*
X198947676Y-84470475D02*
X198852438Y-84375237D01*
X198852438Y-84375237D02*
X198804819Y-84232380D01*
X198804819Y-84232380D02*
X198804819Y-84137142D01*
X198804819Y-84137142D02*
X198852438Y-83994285D01*
X198852438Y-83994285D02*
X198900057Y-83946666D01*
X199804819Y-82994285D02*
X199804819Y-83565713D01*
X199804819Y-83279999D02*
X198804819Y-83279999D01*
X198804819Y-83279999D02*
X198947676Y-83375237D01*
X198947676Y-83375237D02*
X199042914Y-83470475D01*
X199042914Y-83470475D02*
X199090533Y-83565713D01*
X148621905Y-42634819D02*
X148621905Y-43444342D01*
X148621905Y-43444342D02*
X148669524Y-43539580D01*
X148669524Y-43539580D02*
X148717143Y-43587200D01*
X148717143Y-43587200D02*
X148812381Y-43634819D01*
X148812381Y-43634819D02*
X149002857Y-43634819D01*
X149002857Y-43634819D02*
X149098095Y-43587200D01*
X149098095Y-43587200D02*
X149145714Y-43539580D01*
X149145714Y-43539580D02*
X149193333Y-43444342D01*
X149193333Y-43444342D02*
X149193333Y-42634819D01*
X150193333Y-43634819D02*
X149621905Y-43634819D01*
X149907619Y-43634819D02*
X149907619Y-42634819D01*
X149907619Y-42634819D02*
X149812381Y-42777676D01*
X149812381Y-42777676D02*
X149717143Y-42872914D01*
X149717143Y-42872914D02*
X149621905Y-42920533D01*
X151145714Y-43634819D02*
X150574286Y-43634819D01*
X150860000Y-43634819D02*
X150860000Y-42634819D01*
X150860000Y-42634819D02*
X150764762Y-42777676D01*
X150764762Y-42777676D02*
X150669524Y-42872914D01*
X150669524Y-42872914D02*
X150574286Y-42920533D01*
X121793095Y-74594819D02*
X121793095Y-75404342D01*
X121793095Y-75404342D02*
X121840714Y-75499580D01*
X121840714Y-75499580D02*
X121888333Y-75547200D01*
X121888333Y-75547200D02*
X121983571Y-75594819D01*
X121983571Y-75594819D02*
X122174047Y-75594819D01*
X122174047Y-75594819D02*
X122269285Y-75547200D01*
X122269285Y-75547200D02*
X122316904Y-75499580D01*
X122316904Y-75499580D02*
X122364523Y-75404342D01*
X122364523Y-75404342D02*
X122364523Y-74594819D01*
X122793095Y-74690057D02*
X122840714Y-74642438D01*
X122840714Y-74642438D02*
X122935952Y-74594819D01*
X122935952Y-74594819D02*
X123174047Y-74594819D01*
X123174047Y-74594819D02*
X123269285Y-74642438D01*
X123269285Y-74642438D02*
X123316904Y-74690057D01*
X123316904Y-74690057D02*
X123364523Y-74785295D01*
X123364523Y-74785295D02*
X123364523Y-74880533D01*
X123364523Y-74880533D02*
X123316904Y-75023390D01*
X123316904Y-75023390D02*
X122745476Y-75594819D01*
X122745476Y-75594819D02*
X123364523Y-75594819D01*
X121134819Y-58385238D02*
X120658628Y-58718571D01*
X121134819Y-58956666D02*
X120134819Y-58956666D01*
X120134819Y-58956666D02*
X120134819Y-58575714D01*
X120134819Y-58575714D02*
X120182438Y-58480476D01*
X120182438Y-58480476D02*
X120230057Y-58432857D01*
X120230057Y-58432857D02*
X120325295Y-58385238D01*
X120325295Y-58385238D02*
X120468152Y-58385238D01*
X120468152Y-58385238D02*
X120563390Y-58432857D01*
X120563390Y-58432857D02*
X120611009Y-58480476D01*
X120611009Y-58480476D02*
X120658628Y-58575714D01*
X120658628Y-58575714D02*
X120658628Y-58956666D01*
X120134819Y-58099523D02*
X121134819Y-57766190D01*
X121134819Y-57766190D02*
X120134819Y-57432857D01*
X121134819Y-56575714D02*
X121134819Y-57147142D01*
X121134819Y-56861428D02*
X120134819Y-56861428D01*
X120134819Y-56861428D02*
X120277676Y-56956666D01*
X120277676Y-56956666D02*
X120372914Y-57051904D01*
X120372914Y-57051904D02*
X120420533Y-57147142D01*
X165608095Y-88354819D02*
X165608095Y-89164342D01*
X165608095Y-89164342D02*
X165655714Y-89259580D01*
X165655714Y-89259580D02*
X165703333Y-89307200D01*
X165703333Y-89307200D02*
X165798571Y-89354819D01*
X165798571Y-89354819D02*
X165989047Y-89354819D01*
X165989047Y-89354819D02*
X166084285Y-89307200D01*
X166084285Y-89307200D02*
X166131904Y-89259580D01*
X166131904Y-89259580D02*
X166179523Y-89164342D01*
X166179523Y-89164342D02*
X166179523Y-88354819D01*
X167084285Y-88354819D02*
X166893809Y-88354819D01*
X166893809Y-88354819D02*
X166798571Y-88402438D01*
X166798571Y-88402438D02*
X166750952Y-88450057D01*
X166750952Y-88450057D02*
X166655714Y-88592914D01*
X166655714Y-88592914D02*
X166608095Y-88783390D01*
X166608095Y-88783390D02*
X166608095Y-89164342D01*
X166608095Y-89164342D02*
X166655714Y-89259580D01*
X166655714Y-89259580D02*
X166703333Y-89307200D01*
X166703333Y-89307200D02*
X166798571Y-89354819D01*
X166798571Y-89354819D02*
X166989047Y-89354819D01*
X166989047Y-89354819D02*
X167084285Y-89307200D01*
X167084285Y-89307200D02*
X167131904Y-89259580D01*
X167131904Y-89259580D02*
X167179523Y-89164342D01*
X167179523Y-89164342D02*
X167179523Y-88926247D01*
X167179523Y-88926247D02*
X167131904Y-88831009D01*
X167131904Y-88831009D02*
X167084285Y-88783390D01*
X167084285Y-88783390D02*
X166989047Y-88735771D01*
X166989047Y-88735771D02*
X166798571Y-88735771D01*
X166798571Y-88735771D02*
X166703333Y-88783390D01*
X166703333Y-88783390D02*
X166655714Y-88831009D01*
X166655714Y-88831009D02*
X166608095Y-88926247D01*
X148621905Y-65284819D02*
X148621905Y-66094342D01*
X148621905Y-66094342D02*
X148669524Y-66189580D01*
X148669524Y-66189580D02*
X148717143Y-66237200D01*
X148717143Y-66237200D02*
X148812381Y-66284819D01*
X148812381Y-66284819D02*
X149002857Y-66284819D01*
X149002857Y-66284819D02*
X149098095Y-66237200D01*
X149098095Y-66237200D02*
X149145714Y-66189580D01*
X149145714Y-66189580D02*
X149193333Y-66094342D01*
X149193333Y-66094342D02*
X149193333Y-65284819D01*
X150193333Y-66284819D02*
X149621905Y-66284819D01*
X149907619Y-66284819D02*
X149907619Y-65284819D01*
X149907619Y-65284819D02*
X149812381Y-65427676D01*
X149812381Y-65427676D02*
X149717143Y-65522914D01*
X149717143Y-65522914D02*
X149621905Y-65570533D01*
X151050476Y-65618152D02*
X151050476Y-66284819D01*
X150812381Y-65237200D02*
X150574286Y-65951485D01*
X150574286Y-65951485D02*
X151193333Y-65951485D01*
X132111905Y-75444819D02*
X132111905Y-76254342D01*
X132111905Y-76254342D02*
X132159524Y-76349580D01*
X132159524Y-76349580D02*
X132207143Y-76397200D01*
X132207143Y-76397200D02*
X132302381Y-76444819D01*
X132302381Y-76444819D02*
X132492857Y-76444819D01*
X132492857Y-76444819D02*
X132588095Y-76397200D01*
X132588095Y-76397200D02*
X132635714Y-76349580D01*
X132635714Y-76349580D02*
X132683333Y-76254342D01*
X132683333Y-76254342D02*
X132683333Y-75444819D01*
X133683333Y-76444819D02*
X133111905Y-76444819D01*
X133397619Y-76444819D02*
X133397619Y-75444819D01*
X133397619Y-75444819D02*
X133302381Y-75587676D01*
X133302381Y-75587676D02*
X133207143Y-75682914D01*
X133207143Y-75682914D02*
X133111905Y-75730533D01*
X134016667Y-75444819D02*
X134635714Y-75444819D01*
X134635714Y-75444819D02*
X134302381Y-75825771D01*
X134302381Y-75825771D02*
X134445238Y-75825771D01*
X134445238Y-75825771D02*
X134540476Y-75873390D01*
X134540476Y-75873390D02*
X134588095Y-75921009D01*
X134588095Y-75921009D02*
X134635714Y-76016247D01*
X134635714Y-76016247D02*
X134635714Y-76254342D01*
X134635714Y-76254342D02*
X134588095Y-76349580D01*
X134588095Y-76349580D02*
X134540476Y-76397200D01*
X134540476Y-76397200D02*
X134445238Y-76444819D01*
X134445238Y-76444819D02*
X134159524Y-76444819D01*
X134159524Y-76444819D02*
X134064286Y-76397200D01*
X134064286Y-76397200D02*
X134016667Y-76349580D01*
X90124819Y-83328094D02*
X89124819Y-83328094D01*
X90124819Y-82756666D02*
X89553390Y-83185237D01*
X89124819Y-82756666D02*
X89696247Y-83328094D01*
X90124819Y-81804285D02*
X90124819Y-82375713D01*
X90124819Y-82089999D02*
X89124819Y-82089999D01*
X89124819Y-82089999D02*
X89267676Y-82185237D01*
X89267676Y-82185237D02*
X89362914Y-82280475D01*
X89362914Y-82280475D02*
X89410533Y-82375713D01*
X100163333Y-76654819D02*
X99830000Y-76178628D01*
X99591905Y-76654819D02*
X99591905Y-75654819D01*
X99591905Y-75654819D02*
X99972857Y-75654819D01*
X99972857Y-75654819D02*
X100068095Y-75702438D01*
X100068095Y-75702438D02*
X100115714Y-75750057D01*
X100115714Y-75750057D02*
X100163333Y-75845295D01*
X100163333Y-75845295D02*
X100163333Y-75988152D01*
X100163333Y-75988152D02*
X100115714Y-76083390D01*
X100115714Y-76083390D02*
X100068095Y-76131009D01*
X100068095Y-76131009D02*
X99972857Y-76178628D01*
X99972857Y-76178628D02*
X99591905Y-76178628D01*
X100496667Y-75654819D02*
X101115714Y-75654819D01*
X101115714Y-75654819D02*
X100782381Y-76035771D01*
X100782381Y-76035771D02*
X100925238Y-76035771D01*
X100925238Y-76035771D02*
X101020476Y-76083390D01*
X101020476Y-76083390D02*
X101068095Y-76131009D01*
X101068095Y-76131009D02*
X101115714Y-76226247D01*
X101115714Y-76226247D02*
X101115714Y-76464342D01*
X101115714Y-76464342D02*
X101068095Y-76559580D01*
X101068095Y-76559580D02*
X101020476Y-76607200D01*
X101020476Y-76607200D02*
X100925238Y-76654819D01*
X100925238Y-76654819D02*
X100639524Y-76654819D01*
X100639524Y-76654819D02*
X100544286Y-76607200D01*
X100544286Y-76607200D02*
X100496667Y-76559580D01*
X148621905Y-88144819D02*
X148621905Y-88954342D01*
X148621905Y-88954342D02*
X148669524Y-89049580D01*
X148669524Y-89049580D02*
X148717143Y-89097200D01*
X148717143Y-89097200D02*
X148812381Y-89144819D01*
X148812381Y-89144819D02*
X149002857Y-89144819D01*
X149002857Y-89144819D02*
X149098095Y-89097200D01*
X149098095Y-89097200D02*
X149145714Y-89049580D01*
X149145714Y-89049580D02*
X149193333Y-88954342D01*
X149193333Y-88954342D02*
X149193333Y-88144819D01*
X150193333Y-89144819D02*
X149621905Y-89144819D01*
X149907619Y-89144819D02*
X149907619Y-88144819D01*
X149907619Y-88144819D02*
X149812381Y-88287676D01*
X149812381Y-88287676D02*
X149717143Y-88382914D01*
X149717143Y-88382914D02*
X149621905Y-88430533D01*
X151098095Y-88144819D02*
X150621905Y-88144819D01*
X150621905Y-88144819D02*
X150574286Y-88621009D01*
X150574286Y-88621009D02*
X150621905Y-88573390D01*
X150621905Y-88573390D02*
X150717143Y-88525771D01*
X150717143Y-88525771D02*
X150955238Y-88525771D01*
X150955238Y-88525771D02*
X151050476Y-88573390D01*
X151050476Y-88573390D02*
X151098095Y-88621009D01*
X151098095Y-88621009D02*
X151145714Y-88716247D01*
X151145714Y-88716247D02*
X151145714Y-88954342D01*
X151145714Y-88954342D02*
X151098095Y-89049580D01*
X151098095Y-89049580D02*
X151050476Y-89097200D01*
X151050476Y-89097200D02*
X150955238Y-89144819D01*
X150955238Y-89144819D02*
X150717143Y-89144819D01*
X150717143Y-89144819D02*
X150621905Y-89097200D01*
X150621905Y-89097200D02*
X150574286Y-89049580D01*
X189854819Y-83906666D02*
X189378628Y-84239999D01*
X189854819Y-84478094D02*
X188854819Y-84478094D01*
X188854819Y-84478094D02*
X188854819Y-84097142D01*
X188854819Y-84097142D02*
X188902438Y-84001904D01*
X188902438Y-84001904D02*
X188950057Y-83954285D01*
X188950057Y-83954285D02*
X189045295Y-83906666D01*
X189045295Y-83906666D02*
X189188152Y-83906666D01*
X189188152Y-83906666D02*
X189283390Y-83954285D01*
X189283390Y-83954285D02*
X189331009Y-84001904D01*
X189331009Y-84001904D02*
X189378628Y-84097142D01*
X189378628Y-84097142D02*
X189378628Y-84478094D01*
X189283390Y-83335237D02*
X189235771Y-83430475D01*
X189235771Y-83430475D02*
X189188152Y-83478094D01*
X189188152Y-83478094D02*
X189092914Y-83525713D01*
X189092914Y-83525713D02*
X189045295Y-83525713D01*
X189045295Y-83525713D02*
X188950057Y-83478094D01*
X188950057Y-83478094D02*
X188902438Y-83430475D01*
X188902438Y-83430475D02*
X188854819Y-83335237D01*
X188854819Y-83335237D02*
X188854819Y-83144761D01*
X188854819Y-83144761D02*
X188902438Y-83049523D01*
X188902438Y-83049523D02*
X188950057Y-83001904D01*
X188950057Y-83001904D02*
X189045295Y-82954285D01*
X189045295Y-82954285D02*
X189092914Y-82954285D01*
X189092914Y-82954285D02*
X189188152Y-83001904D01*
X189188152Y-83001904D02*
X189235771Y-83049523D01*
X189235771Y-83049523D02*
X189283390Y-83144761D01*
X189283390Y-83144761D02*
X189283390Y-83335237D01*
X189283390Y-83335237D02*
X189331009Y-83430475D01*
X189331009Y-83430475D02*
X189378628Y-83478094D01*
X189378628Y-83478094D02*
X189473866Y-83525713D01*
X189473866Y-83525713D02*
X189664342Y-83525713D01*
X189664342Y-83525713D02*
X189759580Y-83478094D01*
X189759580Y-83478094D02*
X189807200Y-83430475D01*
X189807200Y-83430475D02*
X189854819Y-83335237D01*
X189854819Y-83335237D02*
X189854819Y-83144761D01*
X189854819Y-83144761D02*
X189807200Y-83049523D01*
X189807200Y-83049523D02*
X189759580Y-83001904D01*
X189759580Y-83001904D02*
X189664342Y-82954285D01*
X189664342Y-82954285D02*
X189473866Y-82954285D01*
X189473866Y-82954285D02*
X189378628Y-83001904D01*
X189378628Y-83001904D02*
X189331009Y-83049523D01*
X189331009Y-83049523D02*
X189283390Y-83144761D01*
X90764819Y-70450238D02*
X90288628Y-70783571D01*
X90764819Y-71021666D02*
X89764819Y-71021666D01*
X89764819Y-71021666D02*
X89764819Y-70640714D01*
X89764819Y-70640714D02*
X89812438Y-70545476D01*
X89812438Y-70545476D02*
X89860057Y-70497857D01*
X89860057Y-70497857D02*
X89955295Y-70450238D01*
X89955295Y-70450238D02*
X90098152Y-70450238D01*
X90098152Y-70450238D02*
X90193390Y-70497857D01*
X90193390Y-70497857D02*
X90241009Y-70545476D01*
X90241009Y-70545476D02*
X90288628Y-70640714D01*
X90288628Y-70640714D02*
X90288628Y-71021666D01*
X89764819Y-70164523D02*
X90764819Y-69831190D01*
X90764819Y-69831190D02*
X89764819Y-69497857D01*
X90098152Y-68735952D02*
X90764819Y-68735952D01*
X89717200Y-68974047D02*
X90431485Y-69212142D01*
X90431485Y-69212142D02*
X90431485Y-68593095D01*
X194318095Y-90401819D02*
X194889523Y-90401819D01*
X194603809Y-91401819D02*
X194603809Y-90401819D01*
X195222857Y-91401819D02*
X195222857Y-90401819D01*
X195222857Y-90401819D02*
X195603809Y-90401819D01*
X195603809Y-90401819D02*
X195699047Y-90449438D01*
X195699047Y-90449438D02*
X195746666Y-90497057D01*
X195746666Y-90497057D02*
X195794285Y-90592295D01*
X195794285Y-90592295D02*
X195794285Y-90735152D01*
X195794285Y-90735152D02*
X195746666Y-90830390D01*
X195746666Y-90830390D02*
X195699047Y-90878009D01*
X195699047Y-90878009D02*
X195603809Y-90925628D01*
X195603809Y-90925628D02*
X195222857Y-90925628D01*
X196651428Y-90735152D02*
X196651428Y-91401819D01*
X196413333Y-90354200D02*
X196175238Y-91068485D01*
X196175238Y-91068485D02*
X196794285Y-91068485D01*
X142771905Y-95704819D02*
X142771905Y-94704819D01*
X142771905Y-94704819D02*
X143010000Y-94704819D01*
X143010000Y-94704819D02*
X143152857Y-94752438D01*
X143152857Y-94752438D02*
X143248095Y-94847676D01*
X143248095Y-94847676D02*
X143295714Y-94942914D01*
X143295714Y-94942914D02*
X143343333Y-95133390D01*
X143343333Y-95133390D02*
X143343333Y-95276247D01*
X143343333Y-95276247D02*
X143295714Y-95466723D01*
X143295714Y-95466723D02*
X143248095Y-95561961D01*
X143248095Y-95561961D02*
X143152857Y-95657200D01*
X143152857Y-95657200D02*
X143010000Y-95704819D01*
X143010000Y-95704819D02*
X142771905Y-95704819D01*
X143724286Y-94800057D02*
X143771905Y-94752438D01*
X143771905Y-94752438D02*
X143867143Y-94704819D01*
X143867143Y-94704819D02*
X144105238Y-94704819D01*
X144105238Y-94704819D02*
X144200476Y-94752438D01*
X144200476Y-94752438D02*
X144248095Y-94800057D01*
X144248095Y-94800057D02*
X144295714Y-94895295D01*
X144295714Y-94895295D02*
X144295714Y-94990533D01*
X144295714Y-94990533D02*
X144248095Y-95133390D01*
X144248095Y-95133390D02*
X143676667Y-95704819D01*
X143676667Y-95704819D02*
X144295714Y-95704819D01*
X53885180Y-104441666D02*
X53170895Y-104441666D01*
X53170895Y-104441666D02*
X53028038Y-104394047D01*
X53028038Y-104394047D02*
X52932800Y-104298809D01*
X52932800Y-104298809D02*
X52885180Y-104155952D01*
X52885180Y-104155952D02*
X52885180Y-104060714D01*
X53885180Y-104822619D02*
X53885180Y-105441666D01*
X53885180Y-105441666D02*
X53504228Y-105108333D01*
X53504228Y-105108333D02*
X53504228Y-105251190D01*
X53504228Y-105251190D02*
X53456609Y-105346428D01*
X53456609Y-105346428D02*
X53408990Y-105394047D01*
X53408990Y-105394047D02*
X53313752Y-105441666D01*
X53313752Y-105441666D02*
X53075657Y-105441666D01*
X53075657Y-105441666D02*
X52980419Y-105394047D01*
X52980419Y-105394047D02*
X52932800Y-105346428D01*
X52932800Y-105346428D02*
X52885180Y-105251190D01*
X52885180Y-105251190D02*
X52885180Y-104965476D01*
X52885180Y-104965476D02*
X52932800Y-104870238D01*
X52932800Y-104870238D02*
X52980419Y-104822619D01*
X126833333Y-54894819D02*
X126500000Y-54418628D01*
X126261905Y-54894819D02*
X126261905Y-53894819D01*
X126261905Y-53894819D02*
X126642857Y-53894819D01*
X126642857Y-53894819D02*
X126738095Y-53942438D01*
X126738095Y-53942438D02*
X126785714Y-53990057D01*
X126785714Y-53990057D02*
X126833333Y-54085295D01*
X126833333Y-54085295D02*
X126833333Y-54228152D01*
X126833333Y-54228152D02*
X126785714Y-54323390D01*
X126785714Y-54323390D02*
X126738095Y-54371009D01*
X126738095Y-54371009D02*
X126642857Y-54418628D01*
X126642857Y-54418628D02*
X126261905Y-54418628D01*
X127166667Y-53894819D02*
X127833333Y-53894819D01*
X127833333Y-53894819D02*
X127404762Y-54894819D01*
X170013333Y-105694819D02*
X169680000Y-105218628D01*
X169441905Y-105694819D02*
X169441905Y-104694819D01*
X169441905Y-104694819D02*
X169822857Y-104694819D01*
X169822857Y-104694819D02*
X169918095Y-104742438D01*
X169918095Y-104742438D02*
X169965714Y-104790057D01*
X169965714Y-104790057D02*
X170013333Y-104885295D01*
X170013333Y-104885295D02*
X170013333Y-105028152D01*
X170013333Y-105028152D02*
X169965714Y-105123390D01*
X169965714Y-105123390D02*
X169918095Y-105171009D01*
X169918095Y-105171009D02*
X169822857Y-105218628D01*
X169822857Y-105218628D02*
X169441905Y-105218628D01*
X170489524Y-105694819D02*
X170680000Y-105694819D01*
X170680000Y-105694819D02*
X170775238Y-105647200D01*
X170775238Y-105647200D02*
X170822857Y-105599580D01*
X170822857Y-105599580D02*
X170918095Y-105456723D01*
X170918095Y-105456723D02*
X170965714Y-105266247D01*
X170965714Y-105266247D02*
X170965714Y-104885295D01*
X170965714Y-104885295D02*
X170918095Y-104790057D01*
X170918095Y-104790057D02*
X170870476Y-104742438D01*
X170870476Y-104742438D02*
X170775238Y-104694819D01*
X170775238Y-104694819D02*
X170584762Y-104694819D01*
X170584762Y-104694819D02*
X170489524Y-104742438D01*
X170489524Y-104742438D02*
X170441905Y-104790057D01*
X170441905Y-104790057D02*
X170394286Y-104885295D01*
X170394286Y-104885295D02*
X170394286Y-105123390D01*
X170394286Y-105123390D02*
X170441905Y-105218628D01*
X170441905Y-105218628D02*
X170489524Y-105266247D01*
X170489524Y-105266247D02*
X170584762Y-105313866D01*
X170584762Y-105313866D02*
X170775238Y-105313866D01*
X170775238Y-105313866D02*
X170870476Y-105266247D01*
X170870476Y-105266247D02*
X170918095Y-105218628D01*
X170918095Y-105218628D02*
X170965714Y-105123390D01*
X99599761Y-80560057D02*
X99504523Y-80512438D01*
X99504523Y-80512438D02*
X99409285Y-80417200D01*
X99409285Y-80417200D02*
X99266428Y-80274342D01*
X99266428Y-80274342D02*
X99171190Y-80226723D01*
X99171190Y-80226723D02*
X99075952Y-80226723D01*
X99123571Y-80464819D02*
X99028333Y-80417200D01*
X99028333Y-80417200D02*
X98933095Y-80321961D01*
X98933095Y-80321961D02*
X98885476Y-80131485D01*
X98885476Y-80131485D02*
X98885476Y-79798152D01*
X98885476Y-79798152D02*
X98933095Y-79607676D01*
X98933095Y-79607676D02*
X99028333Y-79512438D01*
X99028333Y-79512438D02*
X99123571Y-79464819D01*
X99123571Y-79464819D02*
X99314047Y-79464819D01*
X99314047Y-79464819D02*
X99409285Y-79512438D01*
X99409285Y-79512438D02*
X99504523Y-79607676D01*
X99504523Y-79607676D02*
X99552142Y-79798152D01*
X99552142Y-79798152D02*
X99552142Y-80131485D01*
X99552142Y-80131485D02*
X99504523Y-80321961D01*
X99504523Y-80321961D02*
X99409285Y-80417200D01*
X99409285Y-80417200D02*
X99314047Y-80464819D01*
X99314047Y-80464819D02*
X99123571Y-80464819D01*
X100504523Y-80464819D02*
X99933095Y-80464819D01*
X100218809Y-80464819D02*
X100218809Y-79464819D01*
X100218809Y-79464819D02*
X100123571Y-79607676D01*
X100123571Y-79607676D02*
X100028333Y-79702914D01*
X100028333Y-79702914D02*
X99933095Y-79750533D01*
X182108095Y-63929819D02*
X182108095Y-64739342D01*
X182108095Y-64739342D02*
X182155714Y-64834580D01*
X182155714Y-64834580D02*
X182203333Y-64882200D01*
X182203333Y-64882200D02*
X182298571Y-64929819D01*
X182298571Y-64929819D02*
X182489047Y-64929819D01*
X182489047Y-64929819D02*
X182584285Y-64882200D01*
X182584285Y-64882200D02*
X182631904Y-64834580D01*
X182631904Y-64834580D02*
X182679523Y-64739342D01*
X182679523Y-64739342D02*
X182679523Y-63929819D01*
X183298571Y-64358390D02*
X183203333Y-64310771D01*
X183203333Y-64310771D02*
X183155714Y-64263152D01*
X183155714Y-64263152D02*
X183108095Y-64167914D01*
X183108095Y-64167914D02*
X183108095Y-64120295D01*
X183108095Y-64120295D02*
X183155714Y-64025057D01*
X183155714Y-64025057D02*
X183203333Y-63977438D01*
X183203333Y-63977438D02*
X183298571Y-63929819D01*
X183298571Y-63929819D02*
X183489047Y-63929819D01*
X183489047Y-63929819D02*
X183584285Y-63977438D01*
X183584285Y-63977438D02*
X183631904Y-64025057D01*
X183631904Y-64025057D02*
X183679523Y-64120295D01*
X183679523Y-64120295D02*
X183679523Y-64167914D01*
X183679523Y-64167914D02*
X183631904Y-64263152D01*
X183631904Y-64263152D02*
X183584285Y-64310771D01*
X183584285Y-64310771D02*
X183489047Y-64358390D01*
X183489047Y-64358390D02*
X183298571Y-64358390D01*
X183298571Y-64358390D02*
X183203333Y-64406009D01*
X183203333Y-64406009D02*
X183155714Y-64453628D01*
X183155714Y-64453628D02*
X183108095Y-64548866D01*
X183108095Y-64548866D02*
X183108095Y-64739342D01*
X183108095Y-64739342D02*
X183155714Y-64834580D01*
X183155714Y-64834580D02*
X183203333Y-64882200D01*
X183203333Y-64882200D02*
X183298571Y-64929819D01*
X183298571Y-64929819D02*
X183489047Y-64929819D01*
X183489047Y-64929819D02*
X183584285Y-64882200D01*
X183584285Y-64882200D02*
X183631904Y-64834580D01*
X183631904Y-64834580D02*
X183679523Y-64739342D01*
X183679523Y-64739342D02*
X183679523Y-64548866D01*
X183679523Y-64548866D02*
X183631904Y-64453628D01*
X183631904Y-64453628D02*
X183584285Y-64406009D01*
X183584285Y-64406009D02*
X183489047Y-64358390D01*
X53885180Y-76501666D02*
X53170895Y-76501666D01*
X53170895Y-76501666D02*
X53028038Y-76454047D01*
X53028038Y-76454047D02*
X52932800Y-76358809D01*
X52932800Y-76358809D02*
X52885180Y-76215952D01*
X52885180Y-76215952D02*
X52885180Y-76120714D01*
X53789942Y-76930238D02*
X53837561Y-76977857D01*
X53837561Y-76977857D02*
X53885180Y-77073095D01*
X53885180Y-77073095D02*
X53885180Y-77311190D01*
X53885180Y-77311190D02*
X53837561Y-77406428D01*
X53837561Y-77406428D02*
X53789942Y-77454047D01*
X53789942Y-77454047D02*
X53694704Y-77501666D01*
X53694704Y-77501666D02*
X53599466Y-77501666D01*
X53599466Y-77501666D02*
X53456609Y-77454047D01*
X53456609Y-77454047D02*
X52885180Y-76882619D01*
X52885180Y-76882619D02*
X52885180Y-77501666D01*
X114831905Y-95704819D02*
X114831905Y-94704819D01*
X114831905Y-94704819D02*
X115070000Y-94704819D01*
X115070000Y-94704819D02*
X115212857Y-94752438D01*
X115212857Y-94752438D02*
X115308095Y-94847676D01*
X115308095Y-94847676D02*
X115355714Y-94942914D01*
X115355714Y-94942914D02*
X115403333Y-95133390D01*
X115403333Y-95133390D02*
X115403333Y-95276247D01*
X115403333Y-95276247D02*
X115355714Y-95466723D01*
X115355714Y-95466723D02*
X115308095Y-95561961D01*
X115308095Y-95561961D02*
X115212857Y-95657200D01*
X115212857Y-95657200D02*
X115070000Y-95704819D01*
X115070000Y-95704819D02*
X114831905Y-95704819D01*
X115974762Y-95133390D02*
X115879524Y-95085771D01*
X115879524Y-95085771D02*
X115831905Y-95038152D01*
X115831905Y-95038152D02*
X115784286Y-94942914D01*
X115784286Y-94942914D02*
X115784286Y-94895295D01*
X115784286Y-94895295D02*
X115831905Y-94800057D01*
X115831905Y-94800057D02*
X115879524Y-94752438D01*
X115879524Y-94752438D02*
X115974762Y-94704819D01*
X115974762Y-94704819D02*
X116165238Y-94704819D01*
X116165238Y-94704819D02*
X116260476Y-94752438D01*
X116260476Y-94752438D02*
X116308095Y-94800057D01*
X116308095Y-94800057D02*
X116355714Y-94895295D01*
X116355714Y-94895295D02*
X116355714Y-94942914D01*
X116355714Y-94942914D02*
X116308095Y-95038152D01*
X116308095Y-95038152D02*
X116260476Y-95085771D01*
X116260476Y-95085771D02*
X116165238Y-95133390D01*
X116165238Y-95133390D02*
X115974762Y-95133390D01*
X115974762Y-95133390D02*
X115879524Y-95181009D01*
X115879524Y-95181009D02*
X115831905Y-95228628D01*
X115831905Y-95228628D02*
X115784286Y-95323866D01*
X115784286Y-95323866D02*
X115784286Y-95514342D01*
X115784286Y-95514342D02*
X115831905Y-95609580D01*
X115831905Y-95609580D02*
X115879524Y-95657200D01*
X115879524Y-95657200D02*
X115974762Y-95704819D01*
X115974762Y-95704819D02*
X116165238Y-95704819D01*
X116165238Y-95704819D02*
X116260476Y-95657200D01*
X116260476Y-95657200D02*
X116308095Y-95609580D01*
X116308095Y-95609580D02*
X116355714Y-95514342D01*
X116355714Y-95514342D02*
X116355714Y-95323866D01*
X116355714Y-95323866D02*
X116308095Y-95228628D01*
X116308095Y-95228628D02*
X116260476Y-95181009D01*
X116260476Y-95181009D02*
X116165238Y-95133390D01*
X104648095Y-54274819D02*
X104648095Y-55084342D01*
X104648095Y-55084342D02*
X104695714Y-55179580D01*
X104695714Y-55179580D02*
X104743333Y-55227200D01*
X104743333Y-55227200D02*
X104838571Y-55274819D01*
X104838571Y-55274819D02*
X105029047Y-55274819D01*
X105029047Y-55274819D02*
X105124285Y-55227200D01*
X105124285Y-55227200D02*
X105171904Y-55179580D01*
X105171904Y-55179580D02*
X105219523Y-55084342D01*
X105219523Y-55084342D02*
X105219523Y-54274819D01*
X105743333Y-55274819D02*
X105933809Y-55274819D01*
X105933809Y-55274819D02*
X106029047Y-55227200D01*
X106029047Y-55227200D02*
X106076666Y-55179580D01*
X106076666Y-55179580D02*
X106171904Y-55036723D01*
X106171904Y-55036723D02*
X106219523Y-54846247D01*
X106219523Y-54846247D02*
X106219523Y-54465295D01*
X106219523Y-54465295D02*
X106171904Y-54370057D01*
X106171904Y-54370057D02*
X106124285Y-54322438D01*
X106124285Y-54322438D02*
X106029047Y-54274819D01*
X106029047Y-54274819D02*
X105838571Y-54274819D01*
X105838571Y-54274819D02*
X105743333Y-54322438D01*
X105743333Y-54322438D02*
X105695714Y-54370057D01*
X105695714Y-54370057D02*
X105648095Y-54465295D01*
X105648095Y-54465295D02*
X105648095Y-54703390D01*
X105648095Y-54703390D02*
X105695714Y-54798628D01*
X105695714Y-54798628D02*
X105743333Y-54846247D01*
X105743333Y-54846247D02*
X105838571Y-54893866D01*
X105838571Y-54893866D02*
X106029047Y-54893866D01*
X106029047Y-54893866D02*
X106124285Y-54846247D01*
X106124285Y-54846247D02*
X106171904Y-54798628D01*
X106171904Y-54798628D02*
X106219523Y-54703390D01*
X123620833Y-54809580D02*
X123573214Y-54857200D01*
X123573214Y-54857200D02*
X123430357Y-54904819D01*
X123430357Y-54904819D02*
X123335119Y-54904819D01*
X123335119Y-54904819D02*
X123192262Y-54857200D01*
X123192262Y-54857200D02*
X123097024Y-54761961D01*
X123097024Y-54761961D02*
X123049405Y-54666723D01*
X123049405Y-54666723D02*
X123001786Y-54476247D01*
X123001786Y-54476247D02*
X123001786Y-54333390D01*
X123001786Y-54333390D02*
X123049405Y-54142914D01*
X123049405Y-54142914D02*
X123097024Y-54047676D01*
X123097024Y-54047676D02*
X123192262Y-53952438D01*
X123192262Y-53952438D02*
X123335119Y-53904819D01*
X123335119Y-53904819D02*
X123430357Y-53904819D01*
X123430357Y-53904819D02*
X123573214Y-53952438D01*
X123573214Y-53952438D02*
X123620833Y-54000057D01*
X124001786Y-54000057D02*
X124049405Y-53952438D01*
X124049405Y-53952438D02*
X124144643Y-53904819D01*
X124144643Y-53904819D02*
X124382738Y-53904819D01*
X124382738Y-53904819D02*
X124477976Y-53952438D01*
X124477976Y-53952438D02*
X124525595Y-54000057D01*
X124525595Y-54000057D02*
X124573214Y-54095295D01*
X124573214Y-54095295D02*
X124573214Y-54190533D01*
X124573214Y-54190533D02*
X124525595Y-54333390D01*
X124525595Y-54333390D02*
X123954167Y-54904819D01*
X123954167Y-54904819D02*
X124573214Y-54904819D01*
X165631905Y-95704819D02*
X165631905Y-94704819D01*
X165631905Y-94704819D02*
X165870000Y-94704819D01*
X165870000Y-94704819D02*
X166012857Y-94752438D01*
X166012857Y-94752438D02*
X166108095Y-94847676D01*
X166108095Y-94847676D02*
X166155714Y-94942914D01*
X166155714Y-94942914D02*
X166203333Y-95133390D01*
X166203333Y-95133390D02*
X166203333Y-95276247D01*
X166203333Y-95276247D02*
X166155714Y-95466723D01*
X166155714Y-95466723D02*
X166108095Y-95561961D01*
X166108095Y-95561961D02*
X166012857Y-95657200D01*
X166012857Y-95657200D02*
X165870000Y-95704819D01*
X165870000Y-95704819D02*
X165631905Y-95704819D01*
X167060476Y-94704819D02*
X166870000Y-94704819D01*
X166870000Y-94704819D02*
X166774762Y-94752438D01*
X166774762Y-94752438D02*
X166727143Y-94800057D01*
X166727143Y-94800057D02*
X166631905Y-94942914D01*
X166631905Y-94942914D02*
X166584286Y-95133390D01*
X166584286Y-95133390D02*
X166584286Y-95514342D01*
X166584286Y-95514342D02*
X166631905Y-95609580D01*
X166631905Y-95609580D02*
X166679524Y-95657200D01*
X166679524Y-95657200D02*
X166774762Y-95704819D01*
X166774762Y-95704819D02*
X166965238Y-95704819D01*
X166965238Y-95704819D02*
X167060476Y-95657200D01*
X167060476Y-95657200D02*
X167108095Y-95609580D01*
X167108095Y-95609580D02*
X167155714Y-95514342D01*
X167155714Y-95514342D02*
X167155714Y-95276247D01*
X167155714Y-95276247D02*
X167108095Y-95181009D01*
X167108095Y-95181009D02*
X167060476Y-95133390D01*
X167060476Y-95133390D02*
X166965238Y-95085771D01*
X166965238Y-95085771D02*
X166774762Y-95085771D01*
X166774762Y-95085771D02*
X166679524Y-95133390D01*
X166679524Y-95133390D02*
X166631905Y-95181009D01*
X166631905Y-95181009D02*
X166584286Y-95276247D01*
X123698095Y-42634819D02*
X123698095Y-43444342D01*
X123698095Y-43444342D02*
X123745714Y-43539580D01*
X123745714Y-43539580D02*
X123793333Y-43587200D01*
X123793333Y-43587200D02*
X123888571Y-43634819D01*
X123888571Y-43634819D02*
X124079047Y-43634819D01*
X124079047Y-43634819D02*
X124174285Y-43587200D01*
X124174285Y-43587200D02*
X124221904Y-43539580D01*
X124221904Y-43539580D02*
X124269523Y-43444342D01*
X124269523Y-43444342D02*
X124269523Y-42634819D01*
X125269523Y-43634819D02*
X124698095Y-43634819D01*
X124983809Y-43634819D02*
X124983809Y-42634819D01*
X124983809Y-42634819D02*
X124888571Y-42777676D01*
X124888571Y-42777676D02*
X124793333Y-42872914D01*
X124793333Y-42872914D02*
X124698095Y-42920533D01*
X124991905Y-46174819D02*
X124991905Y-45174819D01*
X124991905Y-45174819D02*
X125230000Y-45174819D01*
X125230000Y-45174819D02*
X125372857Y-45222438D01*
X125372857Y-45222438D02*
X125468095Y-45317676D01*
X125468095Y-45317676D02*
X125515714Y-45412914D01*
X125515714Y-45412914D02*
X125563333Y-45603390D01*
X125563333Y-45603390D02*
X125563333Y-45746247D01*
X125563333Y-45746247D02*
X125515714Y-45936723D01*
X125515714Y-45936723D02*
X125468095Y-46031961D01*
X125468095Y-46031961D02*
X125372857Y-46127200D01*
X125372857Y-46127200D02*
X125230000Y-46174819D01*
X125230000Y-46174819D02*
X124991905Y-46174819D01*
X125896667Y-45174819D02*
X126515714Y-45174819D01*
X126515714Y-45174819D02*
X126182381Y-45555771D01*
X126182381Y-45555771D02*
X126325238Y-45555771D01*
X126325238Y-45555771D02*
X126420476Y-45603390D01*
X126420476Y-45603390D02*
X126468095Y-45651009D01*
X126468095Y-45651009D02*
X126515714Y-45746247D01*
X126515714Y-45746247D02*
X126515714Y-45984342D01*
X126515714Y-45984342D02*
X126468095Y-46079580D01*
X126468095Y-46079580D02*
X126420476Y-46127200D01*
X126420476Y-46127200D02*
X126325238Y-46174819D01*
X126325238Y-46174819D02*
X126039524Y-46174819D01*
X126039524Y-46174819D02*
X125944286Y-46127200D01*
X125944286Y-46127200D02*
X125896667Y-46079580D01*
X116236905Y-40729819D02*
X116236905Y-41539342D01*
X116236905Y-41539342D02*
X116284524Y-41634580D01*
X116284524Y-41634580D02*
X116332143Y-41682200D01*
X116332143Y-41682200D02*
X116427381Y-41729819D01*
X116427381Y-41729819D02*
X116617857Y-41729819D01*
X116617857Y-41729819D02*
X116713095Y-41682200D01*
X116713095Y-41682200D02*
X116760714Y-41634580D01*
X116760714Y-41634580D02*
X116808333Y-41539342D01*
X116808333Y-41539342D02*
X116808333Y-40729819D01*
X117808333Y-41729819D02*
X117236905Y-41729819D01*
X117522619Y-41729819D02*
X117522619Y-40729819D01*
X117522619Y-40729819D02*
X117427381Y-40872676D01*
X117427381Y-40872676D02*
X117332143Y-40967914D01*
X117332143Y-40967914D02*
X117236905Y-41015533D01*
X118665476Y-40729819D02*
X118475000Y-40729819D01*
X118475000Y-40729819D02*
X118379762Y-40777438D01*
X118379762Y-40777438D02*
X118332143Y-40825057D01*
X118332143Y-40825057D02*
X118236905Y-40967914D01*
X118236905Y-40967914D02*
X118189286Y-41158390D01*
X118189286Y-41158390D02*
X118189286Y-41539342D01*
X118189286Y-41539342D02*
X118236905Y-41634580D01*
X118236905Y-41634580D02*
X118284524Y-41682200D01*
X118284524Y-41682200D02*
X118379762Y-41729819D01*
X118379762Y-41729819D02*
X118570238Y-41729819D01*
X118570238Y-41729819D02*
X118665476Y-41682200D01*
X118665476Y-41682200D02*
X118713095Y-41634580D01*
X118713095Y-41634580D02*
X118760714Y-41539342D01*
X118760714Y-41539342D02*
X118760714Y-41301247D01*
X118760714Y-41301247D02*
X118713095Y-41206009D01*
X118713095Y-41206009D02*
X118665476Y-41158390D01*
X118665476Y-41158390D02*
X118570238Y-41110771D01*
X118570238Y-41110771D02*
X118379762Y-41110771D01*
X118379762Y-41110771D02*
X118284524Y-41158390D01*
X118284524Y-41158390D02*
X118236905Y-41206009D01*
X118236905Y-41206009D02*
X118189286Y-41301247D01*
X53885180Y-48561666D02*
X53170895Y-48561666D01*
X53170895Y-48561666D02*
X53028038Y-48514047D01*
X53028038Y-48514047D02*
X52932800Y-48418809D01*
X52932800Y-48418809D02*
X52885180Y-48275952D01*
X52885180Y-48275952D02*
X52885180Y-48180714D01*
X52885180Y-49561666D02*
X52885180Y-48990238D01*
X52885180Y-49275952D02*
X53885180Y-49275952D01*
X53885180Y-49275952D02*
X53742323Y-49180714D01*
X53742323Y-49180714D02*
X53647085Y-49085476D01*
X53647085Y-49085476D02*
X53599466Y-48990238D01*
X189238095Y-90401819D02*
X189809523Y-90401819D01*
X189523809Y-91401819D02*
X189523809Y-90401819D01*
X190142857Y-91401819D02*
X190142857Y-90401819D01*
X190142857Y-90401819D02*
X190523809Y-90401819D01*
X190523809Y-90401819D02*
X190619047Y-90449438D01*
X190619047Y-90449438D02*
X190666666Y-90497057D01*
X190666666Y-90497057D02*
X190714285Y-90592295D01*
X190714285Y-90592295D02*
X190714285Y-90735152D01*
X190714285Y-90735152D02*
X190666666Y-90830390D01*
X190666666Y-90830390D02*
X190619047Y-90878009D01*
X190619047Y-90878009D02*
X190523809Y-90925628D01*
X190523809Y-90925628D02*
X190142857Y-90925628D01*
X191047619Y-90401819D02*
X191666666Y-90401819D01*
X191666666Y-90401819D02*
X191333333Y-90782771D01*
X191333333Y-90782771D02*
X191476190Y-90782771D01*
X191476190Y-90782771D02*
X191571428Y-90830390D01*
X191571428Y-90830390D02*
X191619047Y-90878009D01*
X191619047Y-90878009D02*
X191666666Y-90973247D01*
X191666666Y-90973247D02*
X191666666Y-91211342D01*
X191666666Y-91211342D02*
X191619047Y-91306580D01*
X191619047Y-91306580D02*
X191571428Y-91354200D01*
X191571428Y-91354200D02*
X191476190Y-91401819D01*
X191476190Y-91401819D02*
X191190476Y-91401819D01*
X191190476Y-91401819D02*
X191095238Y-91354200D01*
X191095238Y-91354200D02*
X191047619Y-91306580D01*
X81474819Y-71983333D02*
X82189104Y-71983333D01*
X82189104Y-71983333D02*
X82331961Y-72030952D01*
X82331961Y-72030952D02*
X82427200Y-72126190D01*
X82427200Y-72126190D02*
X82474819Y-72269047D01*
X82474819Y-72269047D02*
X82474819Y-72364285D01*
X82474819Y-71507142D02*
X81474819Y-71507142D01*
X81474819Y-71507142D02*
X81474819Y-71126190D01*
X81474819Y-71126190D02*
X81522438Y-71030952D01*
X81522438Y-71030952D02*
X81570057Y-70983333D01*
X81570057Y-70983333D02*
X81665295Y-70935714D01*
X81665295Y-70935714D02*
X81808152Y-70935714D01*
X81808152Y-70935714D02*
X81903390Y-70983333D01*
X81903390Y-70983333D02*
X81951009Y-71030952D01*
X81951009Y-71030952D02*
X81998628Y-71126190D01*
X81998628Y-71126190D02*
X81998628Y-71507142D01*
X81570057Y-70554761D02*
X81522438Y-70507142D01*
X81522438Y-70507142D02*
X81474819Y-70411904D01*
X81474819Y-70411904D02*
X81474819Y-70173809D01*
X81474819Y-70173809D02*
X81522438Y-70078571D01*
X81522438Y-70078571D02*
X81570057Y-70030952D01*
X81570057Y-70030952D02*
X81665295Y-69983333D01*
X81665295Y-69983333D02*
X81760533Y-69983333D01*
X81760533Y-69983333D02*
X81903390Y-70030952D01*
X81903390Y-70030952D02*
X82474819Y-70602380D01*
X82474819Y-70602380D02*
X82474819Y-69983333D01*
X99536666Y-54059819D02*
X99536666Y-54774104D01*
X99536666Y-54774104D02*
X99489047Y-54916961D01*
X99489047Y-54916961D02*
X99393809Y-55012200D01*
X99393809Y-55012200D02*
X99250952Y-55059819D01*
X99250952Y-55059819D02*
X99155714Y-55059819D01*
X100012857Y-55059819D02*
X100012857Y-54059819D01*
X100012857Y-54059819D02*
X100393809Y-54059819D01*
X100393809Y-54059819D02*
X100489047Y-54107438D01*
X100489047Y-54107438D02*
X100536666Y-54155057D01*
X100536666Y-54155057D02*
X100584285Y-54250295D01*
X100584285Y-54250295D02*
X100584285Y-54393152D01*
X100584285Y-54393152D02*
X100536666Y-54488390D01*
X100536666Y-54488390D02*
X100489047Y-54536009D01*
X100489047Y-54536009D02*
X100393809Y-54583628D01*
X100393809Y-54583628D02*
X100012857Y-54583628D01*
X101441428Y-54393152D02*
X101441428Y-55059819D01*
X101203333Y-54012200D02*
X100965238Y-54726485D01*
X100965238Y-54726485D02*
X101584285Y-54726485D01*
X78113095Y-51031819D02*
X78684523Y-51031819D01*
X78398809Y-52031819D02*
X78398809Y-51031819D01*
X79017857Y-52031819D02*
X79017857Y-51031819D01*
X79017857Y-51031819D02*
X79398809Y-51031819D01*
X79398809Y-51031819D02*
X79494047Y-51079438D01*
X79494047Y-51079438D02*
X79541666Y-51127057D01*
X79541666Y-51127057D02*
X79589285Y-51222295D01*
X79589285Y-51222295D02*
X79589285Y-51365152D01*
X79589285Y-51365152D02*
X79541666Y-51460390D01*
X79541666Y-51460390D02*
X79494047Y-51508009D01*
X79494047Y-51508009D02*
X79398809Y-51555628D01*
X79398809Y-51555628D02*
X79017857Y-51555628D01*
X79970238Y-51127057D02*
X80017857Y-51079438D01*
X80017857Y-51079438D02*
X80113095Y-51031819D01*
X80113095Y-51031819D02*
X80351190Y-51031819D01*
X80351190Y-51031819D02*
X80446428Y-51079438D01*
X80446428Y-51079438D02*
X80494047Y-51127057D01*
X80494047Y-51127057D02*
X80541666Y-51222295D01*
X80541666Y-51222295D02*
X80541666Y-51317533D01*
X80541666Y-51317533D02*
X80494047Y-51460390D01*
X80494047Y-51460390D02*
X79922619Y-52031819D01*
X79922619Y-52031819D02*
X80541666Y-52031819D01*
X126261905Y-44904819D02*
X126261905Y-43904819D01*
X126261905Y-43904819D02*
X126500000Y-43904819D01*
X126500000Y-43904819D02*
X126642857Y-43952438D01*
X126642857Y-43952438D02*
X126738095Y-44047676D01*
X126738095Y-44047676D02*
X126785714Y-44142914D01*
X126785714Y-44142914D02*
X126833333Y-44333390D01*
X126833333Y-44333390D02*
X126833333Y-44476247D01*
X126833333Y-44476247D02*
X126785714Y-44666723D01*
X126785714Y-44666723D02*
X126738095Y-44761961D01*
X126738095Y-44761961D02*
X126642857Y-44857200D01*
X126642857Y-44857200D02*
X126500000Y-44904819D01*
X126500000Y-44904819D02*
X126261905Y-44904819D01*
X127738095Y-43904819D02*
X127261905Y-43904819D01*
X127261905Y-43904819D02*
X127214286Y-44381009D01*
X127214286Y-44381009D02*
X127261905Y-44333390D01*
X127261905Y-44333390D02*
X127357143Y-44285771D01*
X127357143Y-44285771D02*
X127595238Y-44285771D01*
X127595238Y-44285771D02*
X127690476Y-44333390D01*
X127690476Y-44333390D02*
X127738095Y-44381009D01*
X127738095Y-44381009D02*
X127785714Y-44476247D01*
X127785714Y-44476247D02*
X127785714Y-44714342D01*
X127785714Y-44714342D02*
X127738095Y-44809580D01*
X127738095Y-44809580D02*
X127690476Y-44857200D01*
X127690476Y-44857200D02*
X127595238Y-44904819D01*
X127595238Y-44904819D02*
X127357143Y-44904819D01*
X127357143Y-44904819D02*
X127261905Y-44857200D01*
X127261905Y-44857200D02*
X127214286Y-44809580D01*
X157313333Y-105694819D02*
X156980000Y-105218628D01*
X156741905Y-105694819D02*
X156741905Y-104694819D01*
X156741905Y-104694819D02*
X157122857Y-104694819D01*
X157122857Y-104694819D02*
X157218095Y-104742438D01*
X157218095Y-104742438D02*
X157265714Y-104790057D01*
X157265714Y-104790057D02*
X157313333Y-104885295D01*
X157313333Y-104885295D02*
X157313333Y-105028152D01*
X157313333Y-105028152D02*
X157265714Y-105123390D01*
X157265714Y-105123390D02*
X157218095Y-105171009D01*
X157218095Y-105171009D02*
X157122857Y-105218628D01*
X157122857Y-105218628D02*
X156741905Y-105218628D01*
X158170476Y-104694819D02*
X157980000Y-104694819D01*
X157980000Y-104694819D02*
X157884762Y-104742438D01*
X157884762Y-104742438D02*
X157837143Y-104790057D01*
X157837143Y-104790057D02*
X157741905Y-104932914D01*
X157741905Y-104932914D02*
X157694286Y-105123390D01*
X157694286Y-105123390D02*
X157694286Y-105504342D01*
X157694286Y-105504342D02*
X157741905Y-105599580D01*
X157741905Y-105599580D02*
X157789524Y-105647200D01*
X157789524Y-105647200D02*
X157884762Y-105694819D01*
X157884762Y-105694819D02*
X158075238Y-105694819D01*
X158075238Y-105694819D02*
X158170476Y-105647200D01*
X158170476Y-105647200D02*
X158218095Y-105599580D01*
X158218095Y-105599580D02*
X158265714Y-105504342D01*
X158265714Y-105504342D02*
X158265714Y-105266247D01*
X158265714Y-105266247D02*
X158218095Y-105171009D01*
X158218095Y-105171009D02*
X158170476Y-105123390D01*
X158170476Y-105123390D02*
X158075238Y-105075771D01*
X158075238Y-105075771D02*
X157884762Y-105075771D01*
X157884762Y-105075771D02*
X157789524Y-105123390D01*
X157789524Y-105123390D02*
X157741905Y-105171009D01*
X157741905Y-105171009D02*
X157694286Y-105266247D01*
X120483333Y-54894819D02*
X120150000Y-54418628D01*
X119911905Y-54894819D02*
X119911905Y-53894819D01*
X119911905Y-53894819D02*
X120292857Y-53894819D01*
X120292857Y-53894819D02*
X120388095Y-53942438D01*
X120388095Y-53942438D02*
X120435714Y-53990057D01*
X120435714Y-53990057D02*
X120483333Y-54085295D01*
X120483333Y-54085295D02*
X120483333Y-54228152D01*
X120483333Y-54228152D02*
X120435714Y-54323390D01*
X120435714Y-54323390D02*
X120388095Y-54371009D01*
X120388095Y-54371009D02*
X120292857Y-54418628D01*
X120292857Y-54418628D02*
X119911905Y-54418628D01*
X121388095Y-53894819D02*
X120911905Y-53894819D01*
X120911905Y-53894819D02*
X120864286Y-54371009D01*
X120864286Y-54371009D02*
X120911905Y-54323390D01*
X120911905Y-54323390D02*
X121007143Y-54275771D01*
X121007143Y-54275771D02*
X121245238Y-54275771D01*
X121245238Y-54275771D02*
X121340476Y-54323390D01*
X121340476Y-54323390D02*
X121388095Y-54371009D01*
X121388095Y-54371009D02*
X121435714Y-54466247D01*
X121435714Y-54466247D02*
X121435714Y-54704342D01*
X121435714Y-54704342D02*
X121388095Y-54799580D01*
X121388095Y-54799580D02*
X121340476Y-54847200D01*
X121340476Y-54847200D02*
X121245238Y-54894819D01*
X121245238Y-54894819D02*
X121007143Y-54894819D01*
X121007143Y-54894819D02*
X120911905Y-54847200D01*
X120911905Y-54847200D02*
X120864286Y-54799580D01*
X181641905Y-88064819D02*
X181641905Y-88874342D01*
X181641905Y-88874342D02*
X181689524Y-88969580D01*
X181689524Y-88969580D02*
X181737143Y-89017200D01*
X181737143Y-89017200D02*
X181832381Y-89064819D01*
X181832381Y-89064819D02*
X182022857Y-89064819D01*
X182022857Y-89064819D02*
X182118095Y-89017200D01*
X182118095Y-89017200D02*
X182165714Y-88969580D01*
X182165714Y-88969580D02*
X182213333Y-88874342D01*
X182213333Y-88874342D02*
X182213333Y-88064819D01*
X183213333Y-89064819D02*
X182641905Y-89064819D01*
X182927619Y-89064819D02*
X182927619Y-88064819D01*
X182927619Y-88064819D02*
X182832381Y-88207676D01*
X182832381Y-88207676D02*
X182737143Y-88302914D01*
X182737143Y-88302914D02*
X182641905Y-88350533D01*
X183832381Y-88064819D02*
X183927619Y-88064819D01*
X183927619Y-88064819D02*
X184022857Y-88112438D01*
X184022857Y-88112438D02*
X184070476Y-88160057D01*
X184070476Y-88160057D02*
X184118095Y-88255295D01*
X184118095Y-88255295D02*
X184165714Y-88445771D01*
X184165714Y-88445771D02*
X184165714Y-88683866D01*
X184165714Y-88683866D02*
X184118095Y-88874342D01*
X184118095Y-88874342D02*
X184070476Y-88969580D01*
X184070476Y-88969580D02*
X184022857Y-89017200D01*
X184022857Y-89017200D02*
X183927619Y-89064819D01*
X183927619Y-89064819D02*
X183832381Y-89064819D01*
X183832381Y-89064819D02*
X183737143Y-89017200D01*
X183737143Y-89017200D02*
X183689524Y-88969580D01*
X183689524Y-88969580D02*
X183641905Y-88874342D01*
X183641905Y-88874342D02*
X183594286Y-88683866D01*
X183594286Y-88683866D02*
X183594286Y-88445771D01*
X183594286Y-88445771D02*
X183641905Y-88255295D01*
X183641905Y-88255295D02*
X183689524Y-88160057D01*
X183689524Y-88160057D02*
X183737143Y-88112438D01*
X183737143Y-88112438D02*
X183832381Y-88064819D01*
X126019819Y-60924523D02*
X127019819Y-60257857D01*
X126019819Y-60257857D02*
X127019819Y-60924523D01*
X127019819Y-59353095D02*
X127019819Y-59924523D01*
X127019819Y-59638809D02*
X126019819Y-59638809D01*
X126019819Y-59638809D02*
X126162676Y-59734047D01*
X126162676Y-59734047D02*
X126257914Y-59829285D01*
X126257914Y-59829285D02*
X126305533Y-59924523D01*
X182108095Y-43609819D02*
X182108095Y-44419342D01*
X182108095Y-44419342D02*
X182155714Y-44514580D01*
X182155714Y-44514580D02*
X182203333Y-44562200D01*
X182203333Y-44562200D02*
X182298571Y-44609819D01*
X182298571Y-44609819D02*
X182489047Y-44609819D01*
X182489047Y-44609819D02*
X182584285Y-44562200D01*
X182584285Y-44562200D02*
X182631904Y-44514580D01*
X182631904Y-44514580D02*
X182679523Y-44419342D01*
X182679523Y-44419342D02*
X182679523Y-43609819D01*
X183060476Y-43609819D02*
X183727142Y-43609819D01*
X183727142Y-43609819D02*
X183298571Y-44609819D01*
X104671905Y-101489819D02*
X104671905Y-100489819D01*
X104671905Y-100489819D02*
X104910000Y-100489819D01*
X104910000Y-100489819D02*
X105052857Y-100537438D01*
X105052857Y-100537438D02*
X105148095Y-100632676D01*
X105148095Y-100632676D02*
X105195714Y-100727914D01*
X105195714Y-100727914D02*
X105243333Y-100918390D01*
X105243333Y-100918390D02*
X105243333Y-101061247D01*
X105243333Y-101061247D02*
X105195714Y-101251723D01*
X105195714Y-101251723D02*
X105148095Y-101346961D01*
X105148095Y-101346961D02*
X105052857Y-101442200D01*
X105052857Y-101442200D02*
X104910000Y-101489819D01*
X104910000Y-101489819D02*
X104671905Y-101489819D01*
X106195714Y-101489819D02*
X105624286Y-101489819D01*
X105910000Y-101489819D02*
X105910000Y-100489819D01*
X105910000Y-100489819D02*
X105814762Y-100632676D01*
X105814762Y-100632676D02*
X105719524Y-100727914D01*
X105719524Y-100727914D02*
X105624286Y-100775533D01*
X100068095Y-101859819D02*
X100068095Y-100859819D01*
X100639523Y-101859819D02*
X100210952Y-101288390D01*
X100639523Y-100859819D02*
X100068095Y-101431247D01*
X85544819Y-55411666D02*
X85068628Y-55744999D01*
X85544819Y-55983094D02*
X84544819Y-55983094D01*
X84544819Y-55983094D02*
X84544819Y-55602142D01*
X84544819Y-55602142D02*
X84592438Y-55506904D01*
X84592438Y-55506904D02*
X84640057Y-55459285D01*
X84640057Y-55459285D02*
X84735295Y-55411666D01*
X84735295Y-55411666D02*
X84878152Y-55411666D01*
X84878152Y-55411666D02*
X84973390Y-55459285D01*
X84973390Y-55459285D02*
X85021009Y-55506904D01*
X85021009Y-55506904D02*
X85068628Y-55602142D01*
X85068628Y-55602142D02*
X85068628Y-55983094D01*
X85544819Y-54459285D02*
X85544819Y-55030713D01*
X85544819Y-54744999D02*
X84544819Y-54744999D01*
X84544819Y-54744999D02*
X84687676Y-54840237D01*
X84687676Y-54840237D02*
X84782914Y-54935475D01*
X84782914Y-54935475D02*
X84830533Y-55030713D01*
X109696666Y-54059819D02*
X109696666Y-54774104D01*
X109696666Y-54774104D02*
X109649047Y-54916961D01*
X109649047Y-54916961D02*
X109553809Y-55012200D01*
X109553809Y-55012200D02*
X109410952Y-55059819D01*
X109410952Y-55059819D02*
X109315714Y-55059819D01*
X110172857Y-55059819D02*
X110172857Y-54059819D01*
X110172857Y-54059819D02*
X110553809Y-54059819D01*
X110553809Y-54059819D02*
X110649047Y-54107438D01*
X110649047Y-54107438D02*
X110696666Y-54155057D01*
X110696666Y-54155057D02*
X110744285Y-54250295D01*
X110744285Y-54250295D02*
X110744285Y-54393152D01*
X110744285Y-54393152D02*
X110696666Y-54488390D01*
X110696666Y-54488390D02*
X110649047Y-54536009D01*
X110649047Y-54536009D02*
X110553809Y-54583628D01*
X110553809Y-54583628D02*
X110172857Y-54583628D01*
X111077619Y-54059819D02*
X111696666Y-54059819D01*
X111696666Y-54059819D02*
X111363333Y-54440771D01*
X111363333Y-54440771D02*
X111506190Y-54440771D01*
X111506190Y-54440771D02*
X111601428Y-54488390D01*
X111601428Y-54488390D02*
X111649047Y-54536009D01*
X111649047Y-54536009D02*
X111696666Y-54631247D01*
X111696666Y-54631247D02*
X111696666Y-54869342D01*
X111696666Y-54869342D02*
X111649047Y-54964580D01*
X111649047Y-54964580D02*
X111601428Y-55012200D01*
X111601428Y-55012200D02*
X111506190Y-55059819D01*
X111506190Y-55059819D02*
X111220476Y-55059819D01*
X111220476Y-55059819D02*
X111125238Y-55012200D01*
X111125238Y-55012200D02*
X111077619Y-54964580D01*
X78113095Y-45316819D02*
X78684523Y-45316819D01*
X78398809Y-46316819D02*
X78398809Y-45316819D01*
X79017857Y-46316819D02*
X79017857Y-45316819D01*
X79017857Y-45316819D02*
X79398809Y-45316819D01*
X79398809Y-45316819D02*
X79494047Y-45364438D01*
X79494047Y-45364438D02*
X79541666Y-45412057D01*
X79541666Y-45412057D02*
X79589285Y-45507295D01*
X79589285Y-45507295D02*
X79589285Y-45650152D01*
X79589285Y-45650152D02*
X79541666Y-45745390D01*
X79541666Y-45745390D02*
X79494047Y-45793009D01*
X79494047Y-45793009D02*
X79398809Y-45840628D01*
X79398809Y-45840628D02*
X79017857Y-45840628D01*
X80541666Y-46316819D02*
X79970238Y-46316819D01*
X80255952Y-46316819D02*
X80255952Y-45316819D01*
X80255952Y-45316819D02*
X80160714Y-45459676D01*
X80160714Y-45459676D02*
X80065476Y-45554914D01*
X80065476Y-45554914D02*
X79970238Y-45602533D01*
X165608095Y-47709819D02*
X165608095Y-48519342D01*
X165608095Y-48519342D02*
X165655714Y-48614580D01*
X165655714Y-48614580D02*
X165703333Y-48662200D01*
X165703333Y-48662200D02*
X165798571Y-48709819D01*
X165798571Y-48709819D02*
X165989047Y-48709819D01*
X165989047Y-48709819D02*
X166084285Y-48662200D01*
X166084285Y-48662200D02*
X166131904Y-48614580D01*
X166131904Y-48614580D02*
X166179523Y-48519342D01*
X166179523Y-48519342D02*
X166179523Y-47709819D01*
X167084285Y-48043152D02*
X167084285Y-48709819D01*
X166846190Y-47662200D02*
X166608095Y-48376485D01*
X166608095Y-48376485D02*
X167227142Y-48376485D01*
X106378333Y-38645180D02*
X106378333Y-37930895D01*
X106378333Y-37930895D02*
X106425952Y-37788038D01*
X106425952Y-37788038D02*
X106521190Y-37692800D01*
X106521190Y-37692800D02*
X106664047Y-37645180D01*
X106664047Y-37645180D02*
X106759285Y-37645180D01*
X105473571Y-38311847D02*
X105473571Y-37645180D01*
X105711666Y-38692800D02*
X105949761Y-37978514D01*
X105949761Y-37978514D02*
X105330714Y-37978514D01*
X197154819Y-74175238D02*
X196678628Y-74508571D01*
X197154819Y-74746666D02*
X196154819Y-74746666D01*
X196154819Y-74746666D02*
X196154819Y-74365714D01*
X196154819Y-74365714D02*
X196202438Y-74270476D01*
X196202438Y-74270476D02*
X196250057Y-74222857D01*
X196250057Y-74222857D02*
X196345295Y-74175238D01*
X196345295Y-74175238D02*
X196488152Y-74175238D01*
X196488152Y-74175238D02*
X196583390Y-74222857D01*
X196583390Y-74222857D02*
X196631009Y-74270476D01*
X196631009Y-74270476D02*
X196678628Y-74365714D01*
X196678628Y-74365714D02*
X196678628Y-74746666D01*
X196154819Y-73889523D02*
X197154819Y-73556190D01*
X197154819Y-73556190D02*
X196154819Y-73222857D01*
X196154819Y-72413333D02*
X196154819Y-72889523D01*
X196154819Y-72889523D02*
X196631009Y-72937142D01*
X196631009Y-72937142D02*
X196583390Y-72889523D01*
X196583390Y-72889523D02*
X196535771Y-72794285D01*
X196535771Y-72794285D02*
X196535771Y-72556190D01*
X196535771Y-72556190D02*
X196583390Y-72460952D01*
X196583390Y-72460952D02*
X196631009Y-72413333D01*
X196631009Y-72413333D02*
X196726247Y-72365714D01*
X196726247Y-72365714D02*
X196964342Y-72365714D01*
X196964342Y-72365714D02*
X197059580Y-72413333D01*
X197059580Y-72413333D02*
X197107200Y-72460952D01*
X197107200Y-72460952D02*
X197154819Y-72556190D01*
X197154819Y-72556190D02*
X197154819Y-72794285D01*
X197154819Y-72794285D02*
X197107200Y-72889523D01*
X197107200Y-72889523D02*
X197059580Y-72937142D01*
X147153333Y-105694819D02*
X146820000Y-105218628D01*
X146581905Y-105694819D02*
X146581905Y-104694819D01*
X146581905Y-104694819D02*
X146962857Y-104694819D01*
X146962857Y-104694819D02*
X147058095Y-104742438D01*
X147058095Y-104742438D02*
X147105714Y-104790057D01*
X147105714Y-104790057D02*
X147153333Y-104885295D01*
X147153333Y-104885295D02*
X147153333Y-105028152D01*
X147153333Y-105028152D02*
X147105714Y-105123390D01*
X147105714Y-105123390D02*
X147058095Y-105171009D01*
X147058095Y-105171009D02*
X146962857Y-105218628D01*
X146962857Y-105218628D02*
X146581905Y-105218628D01*
X148010476Y-105028152D02*
X148010476Y-105694819D01*
X147772381Y-104647200D02*
X147534286Y-105361485D01*
X147534286Y-105361485D02*
X148153333Y-105361485D01*
X87449819Y-55411666D02*
X86973628Y-55744999D01*
X87449819Y-55983094D02*
X86449819Y-55983094D01*
X86449819Y-55983094D02*
X86449819Y-55602142D01*
X86449819Y-55602142D02*
X86497438Y-55506904D01*
X86497438Y-55506904D02*
X86545057Y-55459285D01*
X86545057Y-55459285D02*
X86640295Y-55411666D01*
X86640295Y-55411666D02*
X86783152Y-55411666D01*
X86783152Y-55411666D02*
X86878390Y-55459285D01*
X86878390Y-55459285D02*
X86926009Y-55506904D01*
X86926009Y-55506904D02*
X86973628Y-55602142D01*
X86973628Y-55602142D02*
X86973628Y-55983094D01*
X86545057Y-55030713D02*
X86497438Y-54983094D01*
X86497438Y-54983094D02*
X86449819Y-54887856D01*
X86449819Y-54887856D02*
X86449819Y-54649761D01*
X86449819Y-54649761D02*
X86497438Y-54554523D01*
X86497438Y-54554523D02*
X86545057Y-54506904D01*
X86545057Y-54506904D02*
X86640295Y-54459285D01*
X86640295Y-54459285D02*
X86735533Y-54459285D01*
X86735533Y-54459285D02*
X86878390Y-54506904D01*
X86878390Y-54506904D02*
X87449819Y-55078332D01*
X87449819Y-55078332D02*
X87449819Y-54459285D01*
D14*
%TO.C,D7*%
X177780000Y-96245000D02*
X177780000Y-99335000D01*
X177780000Y-96245170D02*
G75*
G02*
X183330000Y-97790462I2560000J-1544830D01*
G01*
X183330000Y-97789538D02*
G75*
G02*
X177780000Y-99334830I-2990000J-462D01*
G01*
X182840000Y-97790000D02*
G75*
G02*
X177840000Y-97790000I-2500000J0D01*
G01*
X177840000Y-97790000D02*
G75*
G02*
X182840000Y-97790000I2500000J0D01*
G01*
%TO.C,R10*%
X177070000Y-101500000D02*
X177070000Y-101830000D01*
X177070000Y-104240000D02*
X177070000Y-103910000D01*
X183610000Y-101500000D02*
X177070000Y-101500000D01*
X183610000Y-101830000D02*
X183610000Y-101500000D01*
X183610000Y-103910000D02*
X183610000Y-104240000D01*
X183610000Y-104240000D02*
X177070000Y-104240000D01*
%TO.C,D4*%
X154920000Y-96245000D02*
X154920000Y-99335000D01*
X154920000Y-96245170D02*
G75*
G02*
X160470000Y-97790462I2560000J-1544830D01*
G01*
X160470000Y-97789538D02*
G75*
G02*
X154920000Y-99334830I-2990000J-462D01*
G01*
X159980000Y-97790000D02*
G75*
G02*
X154980000Y-97790000I-2500000J0D01*
G01*
X154980000Y-97790000D02*
G75*
G02*
X159980000Y-97790000I2500000J0D01*
G01*
%TO.C,JP1*%
X85995000Y-50930000D02*
X85995000Y-48130000D01*
X86695000Y-47480000D02*
X87295000Y-47480000D01*
X87295000Y-51580000D02*
X86695000Y-51580000D01*
X87995000Y-48130000D02*
X87995000Y-50930000D01*
X88195000Y-50730000D02*
X88495000Y-50430000D01*
X88195000Y-50730000D02*
X88495000Y-51030000D01*
X88495000Y-51030000D02*
X88495000Y-50430000D01*
X85995000Y-48180000D02*
G75*
G02*
X86695000Y-47480000I700000J0D01*
G01*
X86695000Y-51580000D02*
G75*
G02*
X85995000Y-50880000I-1J699999D01*
G01*
X87295000Y-47480000D02*
G75*
G02*
X87995000Y-48180000I0J-700000D01*
G01*
X87995000Y-50880000D02*
G75*
G02*
X87295000Y-51580000I-699999J-1D01*
G01*
%TO.C,U12*%
X129480000Y-78620000D02*
X129480000Y-104260000D01*
X129480000Y-104260000D02*
X139760000Y-104260000D01*
X131970000Y-78680000D02*
X131970000Y-104200000D01*
X131970000Y-104200000D02*
X133620000Y-104200000D01*
X135620000Y-104200000D02*
X137270000Y-104200000D01*
X137270000Y-78680000D02*
X131970000Y-78680000D01*
X137270000Y-104200000D02*
X137270000Y-78680000D01*
X139760000Y-78620000D02*
X129480000Y-78620000D01*
X139760000Y-104260000D02*
X139760000Y-78620000D01*
X133620000Y-104200000D02*
G75*
G02*
X135620000Y-104200000I1000000J0D01*
G01*
%TO.C,U3*%
X132020000Y-24010000D02*
X132020000Y-42030000D01*
X132020000Y-42030000D02*
X142300000Y-42030000D01*
X134510000Y-24070000D02*
X134510000Y-41970000D01*
X134510000Y-41970000D02*
X139810000Y-41970000D01*
X136160000Y-24070000D02*
X134510000Y-24070000D01*
X139810000Y-24070000D02*
X138160000Y-24070000D01*
X139810000Y-41970000D02*
X139810000Y-24070000D01*
X142300000Y-24010000D02*
X132020000Y-24010000D01*
X142300000Y-42030000D02*
X142300000Y-24010000D01*
X138160000Y-24070000D02*
G75*
G02*
X136160000Y-24070000I-1000000J0D01*
G01*
%TO.C,U5*%
X161230000Y-49410000D02*
X161230000Y-67430000D01*
X161230000Y-67430000D02*
X171510000Y-67430000D01*
X163720000Y-49470000D02*
X163720000Y-67370000D01*
X163720000Y-67370000D02*
X169020000Y-67370000D01*
X165370000Y-49470000D02*
X163720000Y-49470000D01*
X169020000Y-49470000D02*
X167370000Y-49470000D01*
X169020000Y-67370000D02*
X169020000Y-49470000D01*
X171510000Y-49410000D02*
X161230000Y-49410000D01*
X171510000Y-67430000D02*
X171510000Y-49410000D01*
X167370000Y-49470000D02*
G75*
G02*
X165370000Y-49470000I-1000000J0D01*
G01*
%TO.C,R11*%
X116110000Y-101500000D02*
X116110000Y-101830000D01*
X116110000Y-104240000D02*
X116110000Y-103910000D01*
X122650000Y-101500000D02*
X116110000Y-101500000D01*
X122650000Y-101830000D02*
X122650000Y-101500000D01*
X122650000Y-103910000D02*
X122650000Y-104240000D01*
X122650000Y-104240000D02*
X116110000Y-104240000D01*
%TO.C,RV2*%
X91440000Y-54810000D02*
X96510000Y-54810000D01*
X91440000Y-64580000D02*
X91440000Y-54810000D01*
X91440000Y-64580000D02*
X96510000Y-64580000D01*
X96510000Y-64580000D02*
X96510000Y-54810000D01*
%TO.C,RV3*%
X114290000Y-64970000D02*
X114290000Y-74740000D01*
X119360000Y-64970000D02*
X114290000Y-64970000D01*
X119360000Y-64970000D02*
X119360000Y-74740000D01*
X119360000Y-74740000D02*
X114290000Y-74740000D01*
%TO.C,C1*%
X195480000Y-81160000D02*
X195480000Y-86400000D01*
X195795000Y-81160000D02*
X195480000Y-81160000D01*
X195795000Y-86400000D02*
X195480000Y-86400000D01*
X198220000Y-81160000D02*
X197905000Y-81160000D01*
X198220000Y-81160000D02*
X198220000Y-86400000D01*
X198220000Y-86400000D02*
X197905000Y-86400000D01*
%TO.C,U11*%
X144720000Y-24010000D02*
X144720000Y-42030000D01*
X144720000Y-42030000D02*
X155000000Y-42030000D01*
X147210000Y-24070000D02*
X147210000Y-41970000D01*
X147210000Y-41970000D02*
X152510000Y-41970000D01*
X148860000Y-24070000D02*
X147210000Y-24070000D01*
X152510000Y-24070000D02*
X150860000Y-24070000D01*
X152510000Y-41970000D02*
X152510000Y-24070000D01*
X155000000Y-24010000D02*
X144720000Y-24010000D01*
X155000000Y-42030000D02*
X155000000Y-24010000D01*
X150860000Y-24070000D02*
G75*
G02*
X148860000Y-24070000I-1000000J0D01*
G01*
%TO.C,U2*%
X113460000Y-76080000D02*
X113460000Y-94100000D01*
X113460000Y-94100000D02*
X123740000Y-94100000D01*
X115950000Y-76140000D02*
X115950000Y-94040000D01*
X115950000Y-94040000D02*
X121250000Y-94040000D01*
X117600000Y-76140000D02*
X115950000Y-76140000D01*
X121250000Y-76140000D02*
X119600000Y-76140000D01*
X121250000Y-94040000D02*
X121250000Y-76140000D01*
X123740000Y-76080000D02*
X113460000Y-76080000D01*
X123740000Y-94100000D02*
X123740000Y-76080000D01*
X119600000Y-76140000D02*
G75*
G02*
X117600000Y-76140000I-1000000J0D01*
G01*
%TO.C,RV1*%
X114290000Y-54810000D02*
X114290000Y-64580000D01*
X119360000Y-54810000D02*
X114290000Y-54810000D01*
X119360000Y-54810000D02*
X119360000Y-64580000D01*
X119360000Y-64580000D02*
X114290000Y-64580000D01*
%TO.C,U6*%
X161230000Y-69730000D02*
X161230000Y-87750000D01*
X161230000Y-87750000D02*
X171510000Y-87750000D01*
X163720000Y-69790000D02*
X163720000Y-87690000D01*
X163720000Y-87690000D02*
X169020000Y-87690000D01*
X165370000Y-69790000D02*
X163720000Y-69790000D01*
X169020000Y-69790000D02*
X167370000Y-69790000D01*
X169020000Y-87690000D02*
X169020000Y-69790000D01*
X171510000Y-69730000D02*
X161230000Y-69730000D01*
X171510000Y-87750000D02*
X171510000Y-69730000D01*
X167370000Y-69790000D02*
G75*
G02*
X165370000Y-69790000I-1000000J0D01*
G01*
%TO.C,U14*%
X144720000Y-44330000D02*
X144720000Y-64890000D01*
X144720000Y-64890000D02*
X155000000Y-64890000D01*
X147210000Y-44390000D02*
X147210000Y-64830000D01*
X147210000Y-64830000D02*
X148860000Y-64830000D01*
X150860000Y-64830000D02*
X152510000Y-64830000D01*
X152510000Y-44390000D02*
X147210000Y-44390000D01*
X152510000Y-64830000D02*
X152510000Y-44390000D01*
X155000000Y-44330000D02*
X144720000Y-44330000D01*
X155000000Y-64890000D02*
X155000000Y-44330000D01*
X148860000Y-64830000D02*
G75*
G02*
X150860000Y-64830000I1000000J0D01*
G01*
%TO.C,U13*%
X128210000Y-54490000D02*
X128210000Y-75050000D01*
X128210000Y-75050000D02*
X138490000Y-75050000D01*
X130700000Y-54550000D02*
X130700000Y-74990000D01*
X130700000Y-74990000D02*
X132350000Y-74990000D01*
X134350000Y-74990000D02*
X136000000Y-74990000D01*
X136000000Y-54550000D02*
X130700000Y-54550000D01*
X136000000Y-74990000D02*
X136000000Y-54550000D01*
X138490000Y-54490000D02*
X128210000Y-54490000D01*
X138490000Y-75050000D02*
X138490000Y-54490000D01*
X132350000Y-74990000D02*
G75*
G02*
X134350000Y-74990000I1000000J0D01*
G01*
%TO.C,K1*%
X82170000Y-75590000D02*
X98170000Y-75590000D01*
X82170000Y-94590000D02*
X82170000Y-75590000D01*
X90170000Y-94590000D02*
X82170000Y-94590000D01*
X98170000Y-75590000D02*
X98170000Y-94590000D01*
X98170000Y-94590000D02*
X90170000Y-94590000D01*
%TO.C,R3*%
X102775000Y-75465000D02*
X102775000Y-75795000D01*
X102775000Y-78205000D02*
X102775000Y-77875000D01*
X109315000Y-75465000D02*
X102775000Y-75465000D01*
X109315000Y-75795000D02*
X109315000Y-75465000D01*
X109315000Y-77875000D02*
X109315000Y-78205000D01*
X109315000Y-78205000D02*
X102775000Y-78205000D01*
%TO.C,U15*%
X144720000Y-67190000D02*
X144720000Y-87750000D01*
X144720000Y-87750000D02*
X155000000Y-87750000D01*
X147210000Y-67250000D02*
X147210000Y-87690000D01*
X147210000Y-87690000D02*
X148860000Y-87690000D01*
X150860000Y-87690000D02*
X152510000Y-87690000D01*
X152510000Y-67250000D02*
X147210000Y-67250000D01*
X152510000Y-87690000D02*
X152510000Y-67250000D01*
X155000000Y-67190000D02*
X144720000Y-67190000D01*
X155000000Y-87750000D02*
X155000000Y-67190000D01*
X148860000Y-87690000D02*
G75*
G02*
X150860000Y-87690000I1000000J0D01*
G01*
%TO.C,R8*%
X190400000Y-80470000D02*
X190730000Y-80470000D01*
X190400000Y-87010000D02*
X190400000Y-80470000D01*
X190730000Y-87010000D02*
X190400000Y-87010000D01*
X192810000Y-87010000D02*
X193140000Y-87010000D01*
X193140000Y-80470000D02*
X192810000Y-80470000D01*
X193140000Y-87010000D02*
X193140000Y-80470000D01*
%TO.C,RV4*%
X91440000Y-64970000D02*
X96510000Y-64970000D01*
X91440000Y-74740000D02*
X91440000Y-64970000D01*
X91440000Y-74740000D02*
X96510000Y-74740000D01*
X96510000Y-74740000D02*
X96510000Y-64970000D01*
%TO.C,TP4*%
X197330000Y-93345000D02*
G75*
G02*
X193830000Y-93345000I-1750000J0D01*
G01*
X193830000Y-93345000D02*
G75*
G02*
X197330000Y-93345000I1750000J0D01*
G01*
%TO.C,D2*%
X144760000Y-96245000D02*
X144760000Y-99335000D01*
X144760000Y-96245170D02*
G75*
G02*
X150310000Y-97790462I2560000J-1544830D01*
G01*
X150310000Y-97789538D02*
G75*
G02*
X144760000Y-99334830I-2990000J-462D01*
G01*
X149820000Y-97790000D02*
G75*
G02*
X144820000Y-97790000I-2500000J0D01*
G01*
X144820000Y-97790000D02*
G75*
G02*
X149820000Y-97790000I2500000J0D01*
G01*
%TO.C,J3*%
X52050000Y-81910000D02*
X68700000Y-81910000D01*
X52050000Y-103510000D02*
X52050000Y-81910000D01*
X68750000Y-103510000D02*
X52050000Y-103510000D01*
X68950000Y-84610000D02*
X68950000Y-100810000D01*
X74550000Y-84610000D02*
X74550000Y-100810000D01*
X74950000Y-83010000D02*
G75*
G02*
X68550000Y-83010000I-3200000J0D01*
G01*
X68550000Y-83010000D02*
G75*
G02*
X74950000Y-83010000I3200000J0D01*
G01*
X74950000Y-102410000D02*
G75*
G02*
X68550000Y-102410000I-3200000J0D01*
G01*
X68550000Y-102410000D02*
G75*
G02*
X74950000Y-102410000I3200000J0D01*
G01*
%TO.C,R7*%
X127540000Y-50700000D02*
X127540000Y-51030000D01*
X127540000Y-53440000D02*
X127540000Y-53110000D01*
X134080000Y-50700000D02*
X127540000Y-50700000D01*
X134080000Y-51030000D02*
X134080000Y-50700000D01*
X134080000Y-53110000D02*
X134080000Y-53440000D01*
X134080000Y-53440000D02*
X127540000Y-53440000D01*
%TO.C,R9*%
X166910000Y-101500000D02*
X166910000Y-101830000D01*
X166910000Y-104240000D02*
X166910000Y-103910000D01*
X173450000Y-101500000D02*
X166910000Y-101500000D01*
X173450000Y-101830000D02*
X173450000Y-101500000D01*
X173450000Y-103910000D02*
X173450000Y-104240000D01*
X173450000Y-104240000D02*
X166910000Y-104240000D01*
%TO.C,Q1*%
X100925000Y-79185000D02*
X100925000Y-95075000D01*
X100925000Y-79185000D02*
X111165000Y-79185000D01*
X100925000Y-95075000D02*
X111165000Y-95075000D01*
X103505000Y-95075000D02*
X103505000Y-97615000D01*
X106045000Y-95075000D02*
X106045000Y-97615000D01*
X108585000Y-95075000D02*
X108585000Y-97615000D01*
X111165000Y-79185000D02*
X111165000Y-95075000D01*
%TO.C,U8*%
X177730000Y-45515000D02*
X177730000Y-63535000D01*
X177730000Y-63535000D02*
X188010000Y-63535000D01*
X180220000Y-45575000D02*
X180220000Y-63475000D01*
X180220000Y-63475000D02*
X181870000Y-63475000D01*
X183870000Y-63475000D02*
X185520000Y-63475000D01*
X185520000Y-45575000D02*
X180220000Y-45575000D01*
X185520000Y-63475000D02*
X185520000Y-45575000D01*
X188010000Y-45515000D02*
X177730000Y-45515000D01*
X188010000Y-63535000D02*
X188010000Y-45515000D01*
X181870000Y-63475000D02*
G75*
G02*
X183870000Y-63475000I1000000J0D01*
G01*
%TO.C,J2*%
X52050000Y-53970000D02*
X68700000Y-53970000D01*
X52050000Y-75570000D02*
X52050000Y-53970000D01*
X68750000Y-75570000D02*
X52050000Y-75570000D01*
X68950000Y-56670000D02*
X68950000Y-72870000D01*
X74550000Y-56670000D02*
X74550000Y-72870000D01*
X74950000Y-55070000D02*
G75*
G02*
X68550000Y-55070000I-3200000J0D01*
G01*
X68550000Y-55070000D02*
G75*
G02*
X74950000Y-55070000I3200000J0D01*
G01*
X74950000Y-74470000D02*
G75*
G02*
X68550000Y-74470000I-3200000J0D01*
G01*
X68550000Y-74470000D02*
G75*
G02*
X74950000Y-74470000I3200000J0D01*
G01*
%TO.C,D8*%
X116820000Y-96245000D02*
X116820000Y-99335000D01*
X116820000Y-96245170D02*
G75*
G02*
X122370000Y-97790462I2560000J-1544830D01*
G01*
X122370000Y-97789538D02*
G75*
G02*
X116820000Y-99334830I-2990000J-462D01*
G01*
X121880000Y-97790000D02*
G75*
G02*
X116880000Y-97790000I-2500000J0D01*
G01*
X116880000Y-97790000D02*
G75*
G02*
X121880000Y-97790000I2500000J0D01*
G01*
%TO.C,U9*%
X100270000Y-55760000D02*
X100270000Y-73780000D01*
X100270000Y-73780000D02*
X110550000Y-73780000D01*
X102760000Y-55820000D02*
X102760000Y-73720000D01*
X102760000Y-73720000D02*
X108060000Y-73720000D01*
X104410000Y-55820000D02*
X102760000Y-55820000D01*
X108060000Y-55820000D02*
X106410000Y-55820000D01*
X108060000Y-73720000D02*
X108060000Y-55820000D01*
X110550000Y-55760000D02*
X100270000Y-55760000D01*
X110550000Y-73780000D02*
X110550000Y-55760000D01*
X106410000Y-55820000D02*
G75*
G02*
X104410000Y-55820000I-1000000J0D01*
G01*
%TO.C,C2*%
X123641233Y-55370000D02*
X123933767Y-55370000D01*
X123641233Y-56390000D02*
X123933767Y-56390000D01*
%TO.C,D6*%
X167620000Y-96245000D02*
X167620000Y-99335000D01*
X167620000Y-96245170D02*
G75*
G02*
X173170000Y-97790462I2560000J-1544830D01*
G01*
X173170000Y-97789538D02*
G75*
G02*
X167620000Y-99334830I-2990000J-462D01*
G01*
X172680000Y-97790000D02*
G75*
G02*
X167680000Y-97790000I-2500000J0D01*
G01*
X167680000Y-97790000D02*
G75*
G02*
X172680000Y-97790000I2500000J0D01*
G01*
%TO.C,U1*%
X119320000Y-24010000D02*
X119320000Y-42030000D01*
X119320000Y-42030000D02*
X129600000Y-42030000D01*
X121810000Y-24070000D02*
X121810000Y-41970000D01*
X121810000Y-41970000D02*
X127110000Y-41970000D01*
X123460000Y-24070000D02*
X121810000Y-24070000D01*
X127110000Y-24070000D02*
X125460000Y-24070000D01*
X127110000Y-41970000D02*
X127110000Y-24070000D01*
X129600000Y-24010000D02*
X119320000Y-24010000D01*
X129600000Y-42030000D02*
X129600000Y-24010000D01*
X125460000Y-24070000D02*
G75*
G02*
X123460000Y-24070000I-1000000J0D01*
G01*
%TO.C,D3*%
X119360000Y-45445000D02*
X119360000Y-48535000D01*
X119360000Y-45445170D02*
G75*
G02*
X124910000Y-46990462I2560000J-1544830D01*
G01*
X124910000Y-46989538D02*
G75*
G02*
X119360000Y-48534830I-2990000J-462D01*
G01*
X124420000Y-46990000D02*
G75*
G02*
X119420000Y-46990000I-2500000J0D01*
G01*
X119420000Y-46990000D02*
G75*
G02*
X124420000Y-46990000I2500000J0D01*
G01*
%TO.C,U16*%
X107910000Y-23940000D02*
X107910000Y-39830000D01*
X107910000Y-23940000D02*
X118150000Y-23940000D01*
X107910000Y-39830000D02*
X118150000Y-39830000D01*
X110490000Y-39830000D02*
X110490000Y-42370000D01*
X113030000Y-39830000D02*
X113030000Y-42370000D01*
X115570000Y-39830000D02*
X115570000Y-42370000D01*
X118150000Y-23940000D02*
X118150000Y-39830000D01*
%TO.C,J1*%
X52050000Y-26030000D02*
X68700000Y-26030000D01*
X52050000Y-47630000D02*
X52050000Y-26030000D01*
X68750000Y-47630000D02*
X52050000Y-47630000D01*
X68950000Y-28730000D02*
X68950000Y-44930000D01*
X74550000Y-28730000D02*
X74550000Y-44930000D01*
X74950000Y-27130000D02*
G75*
G02*
X68550000Y-27130000I-3200000J0D01*
G01*
X68550000Y-27130000D02*
G75*
G02*
X74950000Y-27130000I3200000J0D01*
G01*
X74950000Y-46530000D02*
G75*
G02*
X68550000Y-46530000I-3200000J0D01*
G01*
X68550000Y-46530000D02*
G75*
G02*
X74950000Y-46530000I3200000J0D01*
G01*
%TO.C,TP3*%
X192250000Y-93345000D02*
G75*
G02*
X188750000Y-93345000I-1750000J0D01*
G01*
X188750000Y-93345000D02*
G75*
G02*
X192250000Y-93345000I1750000J0D01*
G01*
%TO.C,JP2*%
X82820000Y-72550000D02*
X82820000Y-69750000D01*
X83520000Y-69100000D02*
X84120000Y-69100000D01*
X84120000Y-73200000D02*
X83520000Y-73200000D01*
X84820000Y-69750000D02*
X84820000Y-72550000D01*
X85020000Y-72350000D02*
X85320000Y-72050000D01*
X85020000Y-72350000D02*
X85320000Y-72650000D01*
X85320000Y-72650000D02*
X85320000Y-72050000D01*
X82820000Y-69800000D02*
G75*
G02*
X83520000Y-69100000I700000J0D01*
G01*
X83520000Y-73200000D02*
G75*
G02*
X82820000Y-72500000I-1J699999D01*
G01*
X84120000Y-69100000D02*
G75*
G02*
X84820000Y-69800000I0J-700000D01*
G01*
X84820000Y-72500000D02*
G75*
G02*
X84120000Y-73200000I-699999J-1D01*
G01*
%TO.C,JP4*%
X98310000Y-52370000D02*
X98310000Y-51770000D01*
X98860000Y-53570000D02*
X99460000Y-53570000D01*
X98960000Y-51070000D02*
X101760000Y-51070000D01*
X99160000Y-53270000D02*
X98860000Y-53570000D01*
X99160000Y-53270000D02*
X99460000Y-53570000D01*
X101760000Y-53070000D02*
X98960000Y-53070000D01*
X102410000Y-51770000D02*
X102410000Y-52370000D01*
X98310000Y-51770000D02*
G75*
G02*
X99010000Y-51070000I699999J1D01*
G01*
X99010000Y-53070000D02*
G75*
G02*
X98310000Y-52370000I-1J699999D01*
G01*
X101710000Y-51070000D02*
G75*
G02*
X102410000Y-51770000I0J-700000D01*
G01*
X102410000Y-52370000D02*
G75*
G02*
X101710000Y-53070000I-700000J0D01*
G01*
%TO.C,TP2*%
X81125000Y-53975000D02*
G75*
G02*
X77625000Y-53975000I-1750000J0D01*
G01*
X77625000Y-53975000D02*
G75*
G02*
X81125000Y-53975000I1750000J0D01*
G01*
%TO.C,D5*%
X128250000Y-45445000D02*
X128250000Y-48535000D01*
X128250000Y-45445170D02*
G75*
G02*
X133800000Y-46990462I2560000J-1544830D01*
G01*
X133800000Y-46989538D02*
G75*
G02*
X128250000Y-48534830I-2990000J-462D01*
G01*
X133310000Y-46990000D02*
G75*
G02*
X128310000Y-46990000I-2500000J0D01*
G01*
X128310000Y-46990000D02*
G75*
G02*
X133310000Y-46990000I2500000J0D01*
G01*
%TO.C,R6*%
X154210000Y-101500000D02*
X154210000Y-101830000D01*
X154210000Y-104240000D02*
X154210000Y-103910000D01*
X160750000Y-101500000D02*
X154210000Y-101500000D01*
X160750000Y-101830000D02*
X160750000Y-101500000D01*
X160750000Y-103910000D02*
X160750000Y-104240000D01*
X160750000Y-104240000D02*
X154210000Y-104240000D01*
%TO.C,R5*%
X117380000Y-50700000D02*
X117380000Y-51030000D01*
X117380000Y-53440000D02*
X117380000Y-53110000D01*
X123920000Y-50700000D02*
X117380000Y-50700000D01*
X123920000Y-51030000D02*
X123920000Y-50700000D01*
X123920000Y-53110000D02*
X123920000Y-53440000D01*
X123920000Y-53440000D02*
X117380000Y-53440000D01*
%TO.C,U10*%
X177740000Y-69650000D02*
X177740000Y-87670000D01*
X177740000Y-87670000D02*
X188020000Y-87670000D01*
X180230000Y-69710000D02*
X180230000Y-87610000D01*
X180230000Y-87610000D02*
X181880000Y-87610000D01*
X183880000Y-87610000D02*
X185530000Y-87610000D01*
X185530000Y-69710000D02*
X180230000Y-69710000D01*
X185530000Y-87610000D02*
X185530000Y-69710000D01*
X188020000Y-69650000D02*
X177740000Y-69650000D01*
X188020000Y-87670000D02*
X188020000Y-69650000D01*
X181880000Y-87610000D02*
G75*
G02*
X183880000Y-87610000I1000000J0D01*
G01*
%TO.C,X1*%
X122250000Y-60955000D02*
X125400000Y-60955000D01*
X125400000Y-60955000D02*
X125400000Y-57155000D01*
%TO.C,U7*%
X177730000Y-25195000D02*
X177730000Y-43215000D01*
X177730000Y-43215000D02*
X188010000Y-43215000D01*
X180220000Y-25255000D02*
X180220000Y-43155000D01*
X180220000Y-43155000D02*
X181870000Y-43155000D01*
X183870000Y-43155000D02*
X185520000Y-43155000D01*
X185520000Y-25255000D02*
X180220000Y-25255000D01*
X185520000Y-43155000D02*
X185520000Y-25255000D01*
X188010000Y-25195000D02*
X177730000Y-25195000D01*
X188010000Y-43215000D02*
X188010000Y-25195000D01*
X181870000Y-43155000D02*
G75*
G02*
X183870000Y-43155000I1000000J0D01*
G01*
%TO.C,D1*%
X101670000Y-103505000D02*
X102690000Y-103505000D01*
X102690000Y-102035000D02*
X102690000Y-104975000D01*
X102690000Y-104975000D02*
X108130000Y-104975000D01*
X103470000Y-102035000D02*
X103470000Y-104975000D01*
X103590000Y-102035000D02*
X103590000Y-104975000D01*
X103710000Y-102035000D02*
X103710000Y-104975000D01*
X108130000Y-102035000D02*
X102690000Y-102035000D01*
X108130000Y-104975000D02*
X108130000Y-102035000D01*
X109150000Y-103505000D02*
X108130000Y-103505000D01*
%TO.C,R1*%
X83085000Y-57690000D02*
X83415000Y-57690000D01*
X83085000Y-64230000D02*
X83085000Y-57690000D01*
X83415000Y-64230000D02*
X83085000Y-64230000D01*
X85495000Y-64230000D02*
X85825000Y-64230000D01*
X85825000Y-57690000D02*
X85495000Y-57690000D01*
X85825000Y-64230000D02*
X85825000Y-57690000D01*
%TO.C,JP3*%
X108470000Y-52370000D02*
X108470000Y-51770000D01*
X109020000Y-53570000D02*
X109620000Y-53570000D01*
X109120000Y-51070000D02*
X111920000Y-51070000D01*
X109320000Y-53270000D02*
X109020000Y-53570000D01*
X109320000Y-53270000D02*
X109620000Y-53570000D01*
X111920000Y-53070000D02*
X109120000Y-53070000D01*
X112570000Y-51770000D02*
X112570000Y-52370000D01*
X108470000Y-51770000D02*
G75*
G02*
X109170000Y-51070000I699999J1D01*
G01*
X109170000Y-53070000D02*
G75*
G02*
X108470000Y-52370000I-1J699999D01*
G01*
X111870000Y-51070000D02*
G75*
G02*
X112570000Y-51770000I0J-700000D01*
G01*
X112570000Y-52370000D02*
G75*
G02*
X111870000Y-53070000I-700000J0D01*
G01*
%TO.C,TP1*%
X81125000Y-48260000D02*
G75*
G02*
X77625000Y-48260000I-1750000J0D01*
G01*
X77625000Y-48260000D02*
G75*
G02*
X81125000Y-48260000I1750000J0D01*
G01*
%TO.C,U4*%
X161230000Y-29085000D02*
X161230000Y-47105000D01*
X161230000Y-47105000D02*
X171510000Y-47105000D01*
X163720000Y-29145000D02*
X163720000Y-47045000D01*
X163720000Y-47045000D02*
X169020000Y-47045000D01*
X165370000Y-29145000D02*
X163720000Y-29145000D01*
X169020000Y-29145000D02*
X167370000Y-29145000D01*
X169020000Y-47045000D02*
X169020000Y-29145000D01*
X171510000Y-29085000D02*
X161230000Y-29085000D01*
X171510000Y-47105000D02*
X171510000Y-29085000D01*
X167370000Y-29145000D02*
G75*
G02*
X165370000Y-29145000I-1000000J0D01*
G01*
%TO.C,J4*%
X85500000Y-22110000D02*
X104680000Y-22110000D01*
X85500000Y-38820000D02*
X85500000Y-22110000D01*
X101940000Y-44610000D02*
X88240000Y-44610000D01*
X102292500Y-39010000D02*
X87887500Y-39010000D01*
X104680000Y-22110000D02*
X104680000Y-38820000D01*
X89700000Y-41910000D02*
G75*
G02*
X83300000Y-41910000I-3200000J0D01*
G01*
X83300000Y-41910000D02*
G75*
G02*
X89700000Y-41910000I3200000J0D01*
G01*
X106880000Y-41910000D02*
G75*
G02*
X100480000Y-41910000I-3200000J0D01*
G01*
X100480000Y-41910000D02*
G75*
G02*
X106880000Y-41910000I3200000J0D01*
G01*
%TO.C,RV5*%
X190500000Y-68695000D02*
X190500000Y-78465000D01*
X195570000Y-68695000D02*
X190500000Y-68695000D01*
X195570000Y-68695000D02*
X195570000Y-78465000D01*
X195570000Y-78465000D02*
X190500000Y-78465000D01*
%TO.C,R4*%
X144050000Y-101500000D02*
X144050000Y-101830000D01*
X144050000Y-104240000D02*
X144050000Y-103910000D01*
X150590000Y-101500000D02*
X144050000Y-101500000D01*
X150590000Y-101830000D02*
X150590000Y-101500000D01*
X150590000Y-103910000D02*
X150590000Y-104240000D01*
X150590000Y-104240000D02*
X144050000Y-104240000D01*
%TO.C,R2*%
X86260000Y-57690000D02*
X86590000Y-57690000D01*
X86260000Y-64230000D02*
X86260000Y-57690000D01*
X86590000Y-64230000D02*
X86260000Y-64230000D01*
X88670000Y-64230000D02*
X89000000Y-64230000D01*
X89000000Y-57690000D02*
X88670000Y-57690000D01*
X89000000Y-64230000D02*
X89000000Y-57690000D01*
%TD*%
%LPC*%
D15*
%TO.C,MNT4*%
X81280000Y-100330000D03*
%TD*%
D16*
%TO.C,D7*%
X179070000Y-97790000D03*
D17*
X181610000Y-97790000D03*
%TD*%
D18*
%TO.C,R10*%
X184150000Y-102870000D03*
D19*
X176530000Y-102870000D03*
%TD*%
D16*
%TO.C,D4*%
X156210000Y-97790000D03*
D17*
X158750000Y-97790000D03*
%TD*%
D20*
%TO.C,JP1*%
X86995000Y-50830000D03*
D21*
X86995000Y-49530000D03*
D22*
X86995000Y-48230000D03*
%TD*%
D23*
%TO.C,U12*%
X138430000Y-102870000D03*
D19*
X138430000Y-100330000D03*
X138430000Y-97790000D03*
X138430000Y-95250000D03*
X138430000Y-92710000D03*
X138430000Y-90170000D03*
X138430000Y-87630000D03*
X138430000Y-85090000D03*
X138430000Y-82550000D03*
X138430000Y-80010000D03*
X130810000Y-80010000D03*
X130810000Y-82550000D03*
X130810000Y-85090000D03*
X130810000Y-87630000D03*
X130810000Y-90170000D03*
X130810000Y-92710000D03*
X130810000Y-95250000D03*
X130810000Y-97790000D03*
X130810000Y-100330000D03*
X130810000Y-102870000D03*
%TD*%
D23*
%TO.C,U3*%
X133350000Y-25400000D03*
D19*
X133350000Y-27940000D03*
X133350000Y-30480000D03*
X133350000Y-33020000D03*
X133350000Y-35560000D03*
X133350000Y-38100000D03*
X133350000Y-40640000D03*
X140970000Y-40640000D03*
X140970000Y-38100000D03*
X140970000Y-35560000D03*
X140970000Y-33020000D03*
X140970000Y-30480000D03*
X140970000Y-27940000D03*
X140970000Y-25400000D03*
%TD*%
D23*
%TO.C,U5*%
X162560000Y-50800000D03*
D19*
X162560000Y-53340000D03*
X162560000Y-55880000D03*
X162560000Y-58420000D03*
X162560000Y-60960000D03*
X162560000Y-63500000D03*
X162560000Y-66040000D03*
X170180000Y-66040000D03*
X170180000Y-63500000D03*
X170180000Y-60960000D03*
X170180000Y-58420000D03*
X170180000Y-55880000D03*
X170180000Y-53340000D03*
X170180000Y-50800000D03*
%TD*%
D15*
%TO.C,MNT1*%
X194310000Y-29210000D03*
%TD*%
D18*
%TO.C,R11*%
X123190000Y-102870000D03*
D19*
X115570000Y-102870000D03*
%TD*%
D24*
%TO.C,RV2*%
X92700000Y-57155000D03*
X95240000Y-59695000D03*
X92700000Y-62235000D03*
%TD*%
%TO.C,RV3*%
X118100000Y-72395000D03*
X115560000Y-69855000D03*
X118100000Y-67315000D03*
%TD*%
D18*
%TO.C,C1*%
X196850000Y-81280000D03*
X196850000Y-86280000D03*
%TD*%
D23*
%TO.C,U11*%
X146050000Y-25400000D03*
D19*
X146050000Y-27940000D03*
X146050000Y-30480000D03*
X146050000Y-33020000D03*
X146050000Y-35560000D03*
X146050000Y-38100000D03*
X146050000Y-40640000D03*
X153670000Y-40640000D03*
X153670000Y-38100000D03*
X153670000Y-35560000D03*
X153670000Y-33020000D03*
X153670000Y-30480000D03*
X153670000Y-27940000D03*
X153670000Y-25400000D03*
%TD*%
D23*
%TO.C,U2*%
X114790000Y-77470000D03*
D19*
X114790000Y-80010000D03*
X114790000Y-82550000D03*
X114790000Y-85090000D03*
X114790000Y-87630000D03*
X114790000Y-90170000D03*
X114790000Y-92710000D03*
X122410000Y-92710000D03*
X122410000Y-90170000D03*
X122410000Y-87630000D03*
X122410000Y-85090000D03*
X122410000Y-82550000D03*
X122410000Y-80010000D03*
X122410000Y-77470000D03*
%TD*%
D24*
%TO.C,RV1*%
X118100000Y-62235000D03*
X115560000Y-59695000D03*
X118100000Y-57155000D03*
%TD*%
D23*
%TO.C,U6*%
X162560000Y-71120000D03*
D19*
X162560000Y-73660000D03*
X162560000Y-76200000D03*
X162560000Y-78740000D03*
X162560000Y-81280000D03*
X162560000Y-83820000D03*
X162560000Y-86360000D03*
X170180000Y-86360000D03*
X170180000Y-83820000D03*
X170180000Y-81280000D03*
X170180000Y-78740000D03*
X170180000Y-76200000D03*
X170180000Y-73660000D03*
X170180000Y-71120000D03*
%TD*%
D23*
%TO.C,U14*%
X153670000Y-63500000D03*
D19*
X153670000Y-60960000D03*
X153670000Y-58420000D03*
X153670000Y-55880000D03*
X153670000Y-53340000D03*
X153670000Y-50800000D03*
X153670000Y-48260000D03*
X153670000Y-45720000D03*
X146050000Y-45720000D03*
X146050000Y-48260000D03*
X146050000Y-50800000D03*
X146050000Y-53340000D03*
X146050000Y-55880000D03*
X146050000Y-58420000D03*
X146050000Y-60960000D03*
X146050000Y-63500000D03*
%TD*%
D23*
%TO.C,U13*%
X137160000Y-73660000D03*
D19*
X137160000Y-71120000D03*
X137160000Y-68580000D03*
X137160000Y-66040000D03*
X137160000Y-63500000D03*
X137160000Y-60960000D03*
X137160000Y-58420000D03*
X137160000Y-55880000D03*
X129540000Y-55880000D03*
X129540000Y-58420000D03*
X129540000Y-60960000D03*
X129540000Y-63500000D03*
X129540000Y-66040000D03*
X129540000Y-68580000D03*
X129540000Y-71120000D03*
X129540000Y-73660000D03*
%TD*%
D25*
%TO.C,K1*%
X95170000Y-89090000D03*
X85170000Y-89090000D03*
X95170000Y-78890000D03*
X90170000Y-91590000D03*
X85170000Y-78890000D03*
%TD*%
D18*
%TO.C,R3*%
X109855000Y-76835000D03*
D19*
X102235000Y-76835000D03*
%TD*%
D23*
%TO.C,U15*%
X153670000Y-86360000D03*
D19*
X153670000Y-83820000D03*
X153670000Y-81280000D03*
X153670000Y-78740000D03*
X153670000Y-76200000D03*
X153670000Y-73660000D03*
X153670000Y-71120000D03*
X153670000Y-68580000D03*
X146050000Y-68580000D03*
X146050000Y-71120000D03*
X146050000Y-73660000D03*
X146050000Y-76200000D03*
X146050000Y-78740000D03*
X146050000Y-81280000D03*
X146050000Y-83820000D03*
X146050000Y-86360000D03*
%TD*%
D18*
%TO.C,R8*%
X191770000Y-87550000D03*
D19*
X191770000Y-79930000D03*
%TD*%
D24*
%TO.C,RV4*%
X92700000Y-67315000D03*
X95240000Y-69855000D03*
X92700000Y-72395000D03*
%TD*%
D26*
%TO.C,TP4*%
X195580000Y-93345000D03*
%TD*%
D16*
%TO.C,D2*%
X146050000Y-97790000D03*
D17*
X148590000Y-97790000D03*
%TD*%
D27*
%TO.C,J3*%
X71750000Y-83010000D03*
X71750000Y-102410000D03*
D26*
X71750000Y-88410000D03*
X71750000Y-92710000D03*
X71750000Y-97010000D03*
%TD*%
D18*
%TO.C,R7*%
X134620000Y-52070000D03*
D19*
X127000000Y-52070000D03*
%TD*%
D18*
%TO.C,R9*%
X173990000Y-102870000D03*
D19*
X166370000Y-102870000D03*
%TD*%
D28*
%TO.C,Q1*%
X106045000Y-82105000D03*
D29*
X103505000Y-98765000D03*
D30*
X106045000Y-98765000D03*
X108585000Y-98765000D03*
%TD*%
D23*
%TO.C,U8*%
X186680000Y-62145000D03*
D19*
X186680000Y-59605000D03*
X186680000Y-57065000D03*
X186680000Y-54525000D03*
X186680000Y-51985000D03*
X186680000Y-49445000D03*
X186680000Y-46905000D03*
X179060000Y-46905000D03*
X179060000Y-49445000D03*
X179060000Y-51985000D03*
X179060000Y-54525000D03*
X179060000Y-57065000D03*
X179060000Y-59605000D03*
X179060000Y-62145000D03*
%TD*%
D27*
%TO.C,J2*%
X71750000Y-55070000D03*
X71750000Y-74470000D03*
D26*
X71750000Y-60470000D03*
X71750000Y-64770000D03*
X71750000Y-69070000D03*
%TD*%
D16*
%TO.C,D8*%
X118110000Y-97790000D03*
D17*
X120650000Y-97790000D03*
%TD*%
D23*
%TO.C,U9*%
X101600000Y-57150000D03*
D19*
X101600000Y-59690000D03*
X101600000Y-62230000D03*
X101600000Y-64770000D03*
X101600000Y-67310000D03*
X101600000Y-69850000D03*
X101600000Y-72390000D03*
X109220000Y-72390000D03*
X109220000Y-69850000D03*
X109220000Y-67310000D03*
X109220000Y-64770000D03*
X109220000Y-62230000D03*
X109220000Y-59690000D03*
X109220000Y-57150000D03*
%TD*%
D31*
%TO.C,C2*%
X122925000Y-55880000D03*
X124650000Y-55880000D03*
%TD*%
D16*
%TO.C,D6*%
X168910000Y-97790000D03*
D17*
X171450000Y-97790000D03*
%TD*%
D23*
%TO.C,U1*%
X120650000Y-25400000D03*
D19*
X120650000Y-27940000D03*
X120650000Y-30480000D03*
X120650000Y-33020000D03*
X120650000Y-35560000D03*
X120650000Y-38100000D03*
X120650000Y-40640000D03*
X128270000Y-40640000D03*
X128270000Y-38100000D03*
X128270000Y-35560000D03*
X128270000Y-33020000D03*
X128270000Y-30480000D03*
X128270000Y-27940000D03*
X128270000Y-25400000D03*
%TD*%
D16*
%TO.C,D3*%
X120650000Y-46990000D03*
D17*
X123190000Y-46990000D03*
%TD*%
D15*
%TO.C,MNT3*%
X81280000Y-29210000D03*
%TD*%
D28*
%TO.C,U16*%
X113030000Y-26860000D03*
D29*
X110490000Y-43520000D03*
D30*
X113030000Y-43520000D03*
X115570000Y-43520000D03*
%TD*%
D27*
%TO.C,J1*%
X71750000Y-27130000D03*
X71750000Y-46530000D03*
D26*
X71750000Y-32530000D03*
X71750000Y-36830000D03*
X71750000Y-41130000D03*
%TD*%
%TO.C,TP3*%
X190500000Y-93345000D03*
%TD*%
D20*
%TO.C,JP2*%
X83820000Y-72450000D03*
D21*
X83820000Y-71150000D03*
D22*
X83820000Y-69850000D03*
%TD*%
D32*
%TO.C,JP4*%
X99060000Y-52070000D03*
D33*
X100360000Y-52070000D03*
D34*
X101660000Y-52070000D03*
%TD*%
D26*
%TO.C,TP2*%
X79375000Y-53975000D03*
%TD*%
D16*
%TO.C,D5*%
X129540000Y-46990000D03*
D17*
X132080000Y-46990000D03*
%TD*%
D18*
%TO.C,R6*%
X161290000Y-102870000D03*
D19*
X153670000Y-102870000D03*
%TD*%
D18*
%TO.C,R5*%
X124460000Y-52070000D03*
D19*
X116840000Y-52070000D03*
%TD*%
D23*
%TO.C,U10*%
X186690000Y-86280000D03*
D19*
X186690000Y-83740000D03*
X186690000Y-81200000D03*
X186690000Y-78660000D03*
X186690000Y-76120000D03*
X186690000Y-73580000D03*
X186690000Y-71040000D03*
X179070000Y-71040000D03*
X179070000Y-73580000D03*
X179070000Y-76120000D03*
X179070000Y-78660000D03*
X179070000Y-81200000D03*
X179070000Y-83740000D03*
X179070000Y-86280000D03*
%TD*%
D35*
%TO.C,X1*%
X124650000Y-60105000D03*
X124650000Y-58005000D03*
X123000000Y-58005000D03*
X123000000Y-60105000D03*
%TD*%
D23*
%TO.C,U7*%
X186680000Y-41825000D03*
D19*
X186680000Y-39285000D03*
X186680000Y-36745000D03*
X186680000Y-34205000D03*
X186680000Y-31665000D03*
X186680000Y-29125000D03*
X186680000Y-26585000D03*
X179060000Y-26585000D03*
X179060000Y-29125000D03*
X179060000Y-31665000D03*
X179060000Y-34205000D03*
X179060000Y-36745000D03*
X179060000Y-39285000D03*
X179060000Y-41825000D03*
%TD*%
D36*
%TO.C,D1*%
X100330000Y-103505000D03*
D37*
X110490000Y-103505000D03*
%TD*%
D18*
%TO.C,R1*%
X84455000Y-64770000D03*
D19*
X84455000Y-57150000D03*
%TD*%
D15*
%TO.C,MNT2*%
X194310000Y-100330000D03*
%TD*%
D32*
%TO.C,JP3*%
X109220000Y-52070000D03*
D33*
X110520000Y-52070000D03*
D34*
X111820000Y-52070000D03*
%TD*%
D26*
%TO.C,TP1*%
X79375000Y-48260000D03*
%TD*%
D23*
%TO.C,U4*%
X162560000Y-30475000D03*
D19*
X162560000Y-33015000D03*
X162560000Y-35555000D03*
X162560000Y-38095000D03*
X162560000Y-40635000D03*
X162560000Y-43175000D03*
X162560000Y-45715000D03*
X170180000Y-45715000D03*
X170180000Y-43175000D03*
X170180000Y-40635000D03*
X170180000Y-38095000D03*
X170180000Y-35555000D03*
X170180000Y-33015000D03*
X170180000Y-30475000D03*
%TD*%
D27*
%TO.C,J4*%
X103680000Y-41910000D03*
X86500000Y-41910000D03*
D26*
X97790000Y-41910000D03*
X92390000Y-41910000D03*
%TD*%
D24*
%TO.C,RV5*%
X194310000Y-76120000D03*
X191770000Y-73580000D03*
X194310000Y-71040000D03*
%TD*%
D18*
%TO.C,R4*%
X151130000Y-102870000D03*
D19*
X143510000Y-102870000D03*
%TD*%
D18*
%TO.C,R2*%
X87630000Y-64770000D03*
D19*
X87630000Y-57150000D03*
%TD*%
%LPD*%
M02*
