%TF.GenerationSoftware,KiCad,Pcbnew,7.0.7*%
%TF.CreationDate,2023-09-20T10:34:10+01:00*%
%TF.ProjectId,telemetry board,74656c65-6d65-4747-9279-20626f617264,rev?*%
%TF.SameCoordinates,Original*%
%TF.FileFunction,Legend,Top*%
%TF.FilePolarity,Positive*%
%FSLAX46Y46*%
G04 Gerber Fmt 4.6, Leading zero omitted, Abs format (unit mm)*
G04 Created by KiCad (PCBNEW 7.0.7) date 2023-09-20 10:34:10*
%MOMM*%
%LPD*%
G01*
G04 APERTURE LIST*
G04 Aperture macros list*
%AMRoundRect*
0 Rectangle with rounded corners*
0 $1 Rounding radius*
0 $2 $3 $4 $5 $6 $7 $8 $9 X,Y pos of 4 corners*
0 Add a 4 corners polygon primitive as box body*
4,1,4,$2,$3,$4,$5,$6,$7,$8,$9,$2,$3,0*
0 Add four circle primitives for the rounded corners*
1,1,$1+$1,$2,$3*
1,1,$1+$1,$4,$5*
1,1,$1+$1,$6,$7*
1,1,$1+$1,$8,$9*
0 Add four rect primitives between the rounded corners*
20,1,$1+$1,$2,$3,$4,$5,0*
20,1,$1+$1,$4,$5,$6,$7,0*
20,1,$1+$1,$6,$7,$8,$9,0*
20,1,$1+$1,$8,$9,$2,$3,0*%
G04 Aperture macros list end*
%ADD10C,0.300000*%
%ADD11C,0.150000*%
%ADD12C,0.120000*%
%ADD13C,1.524000*%
%ADD14C,1.600000*%
%ADD15O,1.600000X1.600000*%
%ADD16RoundRect,0.250000X-0.600000X-0.725000X0.600000X-0.725000X0.600000X0.725000X-0.600000X0.725000X0*%
%ADD17O,1.700000X1.950000*%
%ADD18O,1.800000X1.800000*%
%ADD19O,1.500000X1.500000*%
%ADD20O,1.700000X1.700000*%
%ADD21R,3.500000X1.700000*%
%ADD22R,1.700000X1.700000*%
%ADD23R,1.600000X1.600000*%
%ADD24R,1.000000X1.500000*%
%ADD25C,1.000000*%
%ADD26C,2.540000*%
%ADD27R,2.200000X2.200000*%
%ADD28O,2.200000X2.200000*%
%ADD29O,3.500000X3.500000*%
%ADD30R,1.905000X2.000000*%
%ADD31O,1.905000X2.000000*%
%ADD32R,3.000000X3.000000*%
%ADD33C,3.000000*%
%ADD34C,3.200000*%
G04 APERTURE END LIST*
D10*
X150343082Y-107118209D02*
X151057368Y-107118209D01*
X150200225Y-107689638D02*
X150700225Y-105689638D01*
X150700225Y-105689638D02*
X151200225Y-107689638D01*
X151700224Y-107689638D02*
X151700224Y-105689638D01*
X151700224Y-105689638D02*
X152057367Y-105689638D01*
X152057367Y-105689638D02*
X152271653Y-105784876D01*
X152271653Y-105784876D02*
X152414510Y-105975352D01*
X152414510Y-105975352D02*
X152485939Y-106165828D01*
X152485939Y-106165828D02*
X152557367Y-106546780D01*
X152557367Y-106546780D02*
X152557367Y-106832495D01*
X152557367Y-106832495D02*
X152485939Y-107213447D01*
X152485939Y-107213447D02*
X152414510Y-107403923D01*
X152414510Y-107403923D02*
X152271653Y-107594400D01*
X152271653Y-107594400D02*
X152057367Y-107689638D01*
X152057367Y-107689638D02*
X151700224Y-107689638D01*
X154057367Y-107499161D02*
X153985939Y-107594400D01*
X153985939Y-107594400D02*
X153771653Y-107689638D01*
X153771653Y-107689638D02*
X153628796Y-107689638D01*
X153628796Y-107689638D02*
X153414510Y-107594400D01*
X153414510Y-107594400D02*
X153271653Y-107403923D01*
X153271653Y-107403923D02*
X153200224Y-107213447D01*
X153200224Y-107213447D02*
X153128796Y-106832495D01*
X153128796Y-106832495D02*
X153128796Y-106546780D01*
X153128796Y-106546780D02*
X153200224Y-106165828D01*
X153200224Y-106165828D02*
X153271653Y-105975352D01*
X153271653Y-105975352D02*
X153414510Y-105784876D01*
X153414510Y-105784876D02*
X153628796Y-105689638D01*
X153628796Y-105689638D02*
X153771653Y-105689638D01*
X153771653Y-105689638D02*
X153985939Y-105784876D01*
X153985939Y-105784876D02*
X154057367Y-105880114D01*
X169592733Y-60450224D02*
X169592733Y-59307367D01*
X170354638Y-59878795D02*
X168830828Y-59878795D01*
X170354638Y-57807366D02*
X170354638Y-58664509D01*
X170354638Y-58235938D02*
X168354638Y-58235938D01*
X168354638Y-58235938D02*
X168640352Y-58378795D01*
X168640352Y-58378795D02*
X168830828Y-58521652D01*
X168830828Y-58521652D02*
X168926066Y-58664509D01*
X168545114Y-57235938D02*
X168449876Y-57164510D01*
X168449876Y-57164510D02*
X168354638Y-57021653D01*
X168354638Y-57021653D02*
X168354638Y-56664510D01*
X168354638Y-56664510D02*
X168449876Y-56521653D01*
X168449876Y-56521653D02*
X168545114Y-56450224D01*
X168545114Y-56450224D02*
X168735590Y-56378795D01*
X168735590Y-56378795D02*
X168926066Y-56378795D01*
X168926066Y-56378795D02*
X169211780Y-56450224D01*
X169211780Y-56450224D02*
X170354638Y-57307367D01*
X170354638Y-57307367D02*
X170354638Y-56378795D01*
X168354638Y-55950224D02*
X170354638Y-55450224D01*
X170354638Y-55450224D02*
X168354638Y-54950224D01*
X154679876Y-58235939D02*
X154584638Y-58378797D01*
X154584638Y-58378797D02*
X154584638Y-58593082D01*
X154584638Y-58593082D02*
X154679876Y-58807368D01*
X154679876Y-58807368D02*
X154870352Y-58950225D01*
X154870352Y-58950225D02*
X155060828Y-59021654D01*
X155060828Y-59021654D02*
X155441780Y-59093082D01*
X155441780Y-59093082D02*
X155727495Y-59093082D01*
X155727495Y-59093082D02*
X156108447Y-59021654D01*
X156108447Y-59021654D02*
X156298923Y-58950225D01*
X156298923Y-58950225D02*
X156489400Y-58807368D01*
X156489400Y-58807368D02*
X156584638Y-58593082D01*
X156584638Y-58593082D02*
X156584638Y-58450225D01*
X156584638Y-58450225D02*
X156489400Y-58235939D01*
X156489400Y-58235939D02*
X156394161Y-58164511D01*
X156394161Y-58164511D02*
X155727495Y-58164511D01*
X155727495Y-58164511D02*
X155727495Y-58450225D01*
X156584638Y-57521654D02*
X154584638Y-57521654D01*
X154584638Y-57521654D02*
X156584638Y-56664511D01*
X156584638Y-56664511D02*
X154584638Y-56664511D01*
X156584638Y-55950225D02*
X154584638Y-55950225D01*
X154584638Y-55950225D02*
X154584638Y-55593082D01*
X154584638Y-55593082D02*
X154679876Y-55378796D01*
X154679876Y-55378796D02*
X154870352Y-55235939D01*
X154870352Y-55235939D02*
X155060828Y-55164510D01*
X155060828Y-55164510D02*
X155441780Y-55093082D01*
X155441780Y-55093082D02*
X155727495Y-55093082D01*
X155727495Y-55093082D02*
X156108447Y-55164510D01*
X156108447Y-55164510D02*
X156298923Y-55235939D01*
X156298923Y-55235939D02*
X156489400Y-55378796D01*
X156489400Y-55378796D02*
X156584638Y-55593082D01*
X156584638Y-55593082D02*
X156584638Y-55950225D01*
X167808346Y-116579638D02*
X167808346Y-114579638D01*
X168451204Y-114770114D02*
X168522632Y-114674876D01*
X168522632Y-114674876D02*
X168665490Y-114579638D01*
X168665490Y-114579638D02*
X169022632Y-114579638D01*
X169022632Y-114579638D02*
X169165490Y-114674876D01*
X169165490Y-114674876D02*
X169236918Y-114770114D01*
X169236918Y-114770114D02*
X169308347Y-114960590D01*
X169308347Y-114960590D02*
X169308347Y-115151066D01*
X169308347Y-115151066D02*
X169236918Y-115436780D01*
X169236918Y-115436780D02*
X168379775Y-116579638D01*
X168379775Y-116579638D02*
X169308347Y-116579638D01*
X170808346Y-116389161D02*
X170736918Y-116484400D01*
X170736918Y-116484400D02*
X170522632Y-116579638D01*
X170522632Y-116579638D02*
X170379775Y-116579638D01*
X170379775Y-116579638D02*
X170165489Y-116484400D01*
X170165489Y-116484400D02*
X170022632Y-116293923D01*
X170022632Y-116293923D02*
X169951203Y-116103447D01*
X169951203Y-116103447D02*
X169879775Y-115722495D01*
X169879775Y-115722495D02*
X169879775Y-115436780D01*
X169879775Y-115436780D02*
X169951203Y-115055828D01*
X169951203Y-115055828D02*
X170022632Y-114865352D01*
X170022632Y-114865352D02*
X170165489Y-114674876D01*
X170165489Y-114674876D02*
X170379775Y-114579638D01*
X170379775Y-114579638D02*
X170522632Y-114579638D01*
X170522632Y-114579638D02*
X170736918Y-114674876D01*
X170736918Y-114674876D02*
X170808346Y-114770114D01*
X172236918Y-116579638D02*
X171379775Y-116579638D01*
X171808346Y-116579638D02*
X171808346Y-114579638D01*
X171808346Y-114579638D02*
X171665489Y-114865352D01*
X171665489Y-114865352D02*
X171522632Y-115055828D01*
X171522632Y-115055828D02*
X171379775Y-115151066D01*
X110973082Y-107594400D02*
X111187368Y-107689638D01*
X111187368Y-107689638D02*
X111544510Y-107689638D01*
X111544510Y-107689638D02*
X111687368Y-107594400D01*
X111687368Y-107594400D02*
X111758796Y-107499161D01*
X111758796Y-107499161D02*
X111830225Y-107308685D01*
X111830225Y-107308685D02*
X111830225Y-107118209D01*
X111830225Y-107118209D02*
X111758796Y-106927733D01*
X111758796Y-106927733D02*
X111687368Y-106832495D01*
X111687368Y-106832495D02*
X111544510Y-106737257D01*
X111544510Y-106737257D02*
X111258796Y-106642019D01*
X111258796Y-106642019D02*
X111115939Y-106546780D01*
X111115939Y-106546780D02*
X111044510Y-106451542D01*
X111044510Y-106451542D02*
X110973082Y-106261066D01*
X110973082Y-106261066D02*
X110973082Y-106070590D01*
X110973082Y-106070590D02*
X111044510Y-105880114D01*
X111044510Y-105880114D02*
X111115939Y-105784876D01*
X111115939Y-105784876D02*
X111258796Y-105689638D01*
X111258796Y-105689638D02*
X111615939Y-105689638D01*
X111615939Y-105689638D02*
X111830225Y-105784876D01*
X112473081Y-107689638D02*
X112473081Y-105689638D01*
X112473081Y-105689638D02*
X113044510Y-105689638D01*
X113044510Y-105689638D02*
X113187367Y-105784876D01*
X113187367Y-105784876D02*
X113258796Y-105880114D01*
X113258796Y-105880114D02*
X113330224Y-106070590D01*
X113330224Y-106070590D02*
X113330224Y-106356304D01*
X113330224Y-106356304D02*
X113258796Y-106546780D01*
X113258796Y-106546780D02*
X113187367Y-106642019D01*
X113187367Y-106642019D02*
X113044510Y-106737257D01*
X113044510Y-106737257D02*
X112473081Y-106737257D01*
X113973081Y-107689638D02*
X113973081Y-105689638D01*
X94534510Y-116579638D02*
X94534510Y-114579638D01*
X95177368Y-114770114D02*
X95248796Y-114674876D01*
X95248796Y-114674876D02*
X95391654Y-114579638D01*
X95391654Y-114579638D02*
X95748796Y-114579638D01*
X95748796Y-114579638D02*
X95891654Y-114674876D01*
X95891654Y-114674876D02*
X95963082Y-114770114D01*
X95963082Y-114770114D02*
X96034511Y-114960590D01*
X96034511Y-114960590D02*
X96034511Y-115151066D01*
X96034511Y-115151066D02*
X95963082Y-115436780D01*
X95963082Y-115436780D02*
X95105939Y-116579638D01*
X95105939Y-116579638D02*
X96034511Y-116579638D01*
X97534510Y-116389161D02*
X97463082Y-116484400D01*
X97463082Y-116484400D02*
X97248796Y-116579638D01*
X97248796Y-116579638D02*
X97105939Y-116579638D01*
X97105939Y-116579638D02*
X96891653Y-116484400D01*
X96891653Y-116484400D02*
X96748796Y-116293923D01*
X96748796Y-116293923D02*
X96677367Y-116103447D01*
X96677367Y-116103447D02*
X96605939Y-115722495D01*
X96605939Y-115722495D02*
X96605939Y-115436780D01*
X96605939Y-115436780D02*
X96677367Y-115055828D01*
X96677367Y-115055828D02*
X96748796Y-114865352D01*
X96748796Y-114865352D02*
X96891653Y-114674876D01*
X96891653Y-114674876D02*
X97105939Y-114579638D01*
X97105939Y-114579638D02*
X97248796Y-114579638D01*
X97248796Y-114579638D02*
X97463082Y-114674876D01*
X97463082Y-114674876D02*
X97534510Y-114770114D01*
X98463082Y-114579638D02*
X98605939Y-114579638D01*
X98605939Y-114579638D02*
X98748796Y-114674876D01*
X98748796Y-114674876D02*
X98820225Y-114770114D01*
X98820225Y-114770114D02*
X98891653Y-114960590D01*
X98891653Y-114960590D02*
X98963082Y-115341542D01*
X98963082Y-115341542D02*
X98963082Y-115817733D01*
X98963082Y-115817733D02*
X98891653Y-116198685D01*
X98891653Y-116198685D02*
X98820225Y-116389161D01*
X98820225Y-116389161D02*
X98748796Y-116484400D01*
X98748796Y-116484400D02*
X98605939Y-116579638D01*
X98605939Y-116579638D02*
X98463082Y-116579638D01*
X98463082Y-116579638D02*
X98320225Y-116484400D01*
X98320225Y-116484400D02*
X98248796Y-116389161D01*
X98248796Y-116389161D02*
X98177367Y-116198685D01*
X98177367Y-116198685D02*
X98105939Y-115817733D01*
X98105939Y-115817733D02*
X98105939Y-115341542D01*
X98105939Y-115341542D02*
X98177367Y-114960590D01*
X98177367Y-114960590D02*
X98248796Y-114770114D01*
X98248796Y-114770114D02*
X98320225Y-114674876D01*
X98320225Y-114674876D02*
X98463082Y-114579638D01*
D11*
X97858990Y-87479285D02*
X97811371Y-87622142D01*
X97811371Y-87622142D02*
X97763752Y-87669761D01*
X97763752Y-87669761D02*
X97668514Y-87717380D01*
X97668514Y-87717380D02*
X97525657Y-87717380D01*
X97525657Y-87717380D02*
X97430419Y-87669761D01*
X97430419Y-87669761D02*
X97382800Y-87622142D01*
X97382800Y-87622142D02*
X97335180Y-87526904D01*
X97335180Y-87526904D02*
X97335180Y-87145952D01*
X97335180Y-87145952D02*
X98335180Y-87145952D01*
X98335180Y-87145952D02*
X98335180Y-87479285D01*
X98335180Y-87479285D02*
X98287561Y-87574523D01*
X98287561Y-87574523D02*
X98239942Y-87622142D01*
X98239942Y-87622142D02*
X98144704Y-87669761D01*
X98144704Y-87669761D02*
X98049466Y-87669761D01*
X98049466Y-87669761D02*
X97954228Y-87622142D01*
X97954228Y-87622142D02*
X97906609Y-87574523D01*
X97906609Y-87574523D02*
X97858990Y-87479285D01*
X97858990Y-87479285D02*
X97858990Y-87145952D01*
X98335180Y-88003095D02*
X98335180Y-88574523D01*
X97335180Y-88288809D02*
X98335180Y-88288809D01*
X97335180Y-89431666D02*
X97335180Y-88860238D01*
X97335180Y-89145952D02*
X98335180Y-89145952D01*
X98335180Y-89145952D02*
X98192323Y-89050714D01*
X98192323Y-89050714D02*
X98097085Y-88955476D01*
X98097085Y-88955476D02*
X98049466Y-88860238D01*
X115446133Y-99373779D02*
X115446133Y-100135684D01*
X115065180Y-99754731D02*
X115827085Y-99754731D01*
X170013333Y-92529819D02*
X169680000Y-92053628D01*
X169441905Y-92529819D02*
X169441905Y-91529819D01*
X169441905Y-91529819D02*
X169822857Y-91529819D01*
X169822857Y-91529819D02*
X169918095Y-91577438D01*
X169918095Y-91577438D02*
X169965714Y-91625057D01*
X169965714Y-91625057D02*
X170013333Y-91720295D01*
X170013333Y-91720295D02*
X170013333Y-91863152D01*
X170013333Y-91863152D02*
X169965714Y-91958390D01*
X169965714Y-91958390D02*
X169918095Y-92006009D01*
X169918095Y-92006009D02*
X169822857Y-92053628D01*
X169822857Y-92053628D02*
X169441905Y-92053628D01*
X170965714Y-92529819D02*
X170394286Y-92529819D01*
X170680000Y-92529819D02*
X170680000Y-91529819D01*
X170680000Y-91529819D02*
X170584762Y-91672676D01*
X170584762Y-91672676D02*
X170489524Y-91767914D01*
X170489524Y-91767914D02*
X170394286Y-91815533D01*
X163496666Y-114389819D02*
X163496666Y-115104104D01*
X163496666Y-115104104D02*
X163449047Y-115246961D01*
X163449047Y-115246961D02*
X163353809Y-115342200D01*
X163353809Y-115342200D02*
X163210952Y-115389819D01*
X163210952Y-115389819D02*
X163115714Y-115389819D01*
X164020476Y-115389819D02*
X164210952Y-115389819D01*
X164210952Y-115389819D02*
X164306190Y-115342200D01*
X164306190Y-115342200D02*
X164353809Y-115294580D01*
X164353809Y-115294580D02*
X164449047Y-115151723D01*
X164449047Y-115151723D02*
X164496666Y-114961247D01*
X164496666Y-114961247D02*
X164496666Y-114580295D01*
X164496666Y-114580295D02*
X164449047Y-114485057D01*
X164449047Y-114485057D02*
X164401428Y-114437438D01*
X164401428Y-114437438D02*
X164306190Y-114389819D01*
X164306190Y-114389819D02*
X164115714Y-114389819D01*
X164115714Y-114389819D02*
X164020476Y-114437438D01*
X164020476Y-114437438D02*
X163972857Y-114485057D01*
X163972857Y-114485057D02*
X163925238Y-114580295D01*
X163925238Y-114580295D02*
X163925238Y-114818390D01*
X163925238Y-114818390D02*
X163972857Y-114913628D01*
X163972857Y-114913628D02*
X164020476Y-114961247D01*
X164020476Y-114961247D02*
X164115714Y-115008866D01*
X164115714Y-115008866D02*
X164306190Y-115008866D01*
X164306190Y-115008866D02*
X164401428Y-114961247D01*
X164401428Y-114961247D02*
X164449047Y-114913628D01*
X164449047Y-114913628D02*
X164496666Y-114818390D01*
X170013333Y-96339819D02*
X169680000Y-95863628D01*
X169441905Y-96339819D02*
X169441905Y-95339819D01*
X169441905Y-95339819D02*
X169822857Y-95339819D01*
X169822857Y-95339819D02*
X169918095Y-95387438D01*
X169918095Y-95387438D02*
X169965714Y-95435057D01*
X169965714Y-95435057D02*
X170013333Y-95530295D01*
X170013333Y-95530295D02*
X170013333Y-95673152D01*
X170013333Y-95673152D02*
X169965714Y-95768390D01*
X169965714Y-95768390D02*
X169918095Y-95816009D01*
X169918095Y-95816009D02*
X169822857Y-95863628D01*
X169822857Y-95863628D02*
X169441905Y-95863628D01*
X170346667Y-95339819D02*
X170965714Y-95339819D01*
X170965714Y-95339819D02*
X170632381Y-95720771D01*
X170632381Y-95720771D02*
X170775238Y-95720771D01*
X170775238Y-95720771D02*
X170870476Y-95768390D01*
X170870476Y-95768390D02*
X170918095Y-95816009D01*
X170918095Y-95816009D02*
X170965714Y-95911247D01*
X170965714Y-95911247D02*
X170965714Y-96149342D01*
X170965714Y-96149342D02*
X170918095Y-96244580D01*
X170918095Y-96244580D02*
X170870476Y-96292200D01*
X170870476Y-96292200D02*
X170775238Y-96339819D01*
X170775238Y-96339819D02*
X170489524Y-96339819D01*
X170489524Y-96339819D02*
X170394286Y-96292200D01*
X170394286Y-96292200D02*
X170346667Y-96244580D01*
X136398095Y-79464819D02*
X136398095Y-80274342D01*
X136398095Y-80274342D02*
X136445714Y-80369580D01*
X136445714Y-80369580D02*
X136493333Y-80417200D01*
X136493333Y-80417200D02*
X136588571Y-80464819D01*
X136588571Y-80464819D02*
X136779047Y-80464819D01*
X136779047Y-80464819D02*
X136874285Y-80417200D01*
X136874285Y-80417200D02*
X136921904Y-80369580D01*
X136921904Y-80369580D02*
X136969523Y-80274342D01*
X136969523Y-80274342D02*
X136969523Y-79464819D01*
X137969523Y-80464819D02*
X137398095Y-80464819D01*
X137683809Y-80464819D02*
X137683809Y-79464819D01*
X137683809Y-79464819D02*
X137588571Y-79607676D01*
X137588571Y-79607676D02*
X137493333Y-79702914D01*
X137493333Y-79702914D02*
X137398095Y-79750533D01*
X123673372Y-66161494D02*
X123592560Y-66188431D01*
X123592560Y-66188431D02*
X123511748Y-66269243D01*
X123511748Y-66269243D02*
X123457873Y-66376993D01*
X123457873Y-66376993D02*
X123457873Y-66484742D01*
X123457873Y-66484742D02*
X123484810Y-66565555D01*
X123484810Y-66565555D02*
X123565623Y-66700242D01*
X123565623Y-66700242D02*
X123646435Y-66781054D01*
X123646435Y-66781054D02*
X123781122Y-66861866D01*
X123781122Y-66861866D02*
X123861934Y-66888803D01*
X123861934Y-66888803D02*
X123969684Y-66888803D01*
X123969684Y-66888803D02*
X124077433Y-66834929D01*
X124077433Y-66834929D02*
X124131308Y-66781054D01*
X124131308Y-66781054D02*
X124185183Y-66673304D01*
X124185183Y-66673304D02*
X124185183Y-66619429D01*
X124185183Y-66619429D02*
X123996621Y-66430868D01*
X123996621Y-66430868D02*
X123888871Y-66538617D01*
X124481494Y-66430868D02*
X123915809Y-65865182D01*
X123915809Y-65865182D02*
X124131308Y-65649683D01*
X124131308Y-65649683D02*
X124212120Y-65622746D01*
X124212120Y-65622746D02*
X124265995Y-65622746D01*
X124265995Y-65622746D02*
X124346807Y-65649683D01*
X124346807Y-65649683D02*
X124427619Y-65730495D01*
X124427619Y-65730495D02*
X124454557Y-65811307D01*
X124454557Y-65811307D02*
X124454557Y-65865182D01*
X124454557Y-65865182D02*
X124427619Y-65945994D01*
X124427619Y-65945994D02*
X124212120Y-66161494D01*
X124427619Y-65353372D02*
X124777806Y-65003185D01*
X124777806Y-65003185D02*
X124804743Y-65407246D01*
X124804743Y-65407246D02*
X124885555Y-65326434D01*
X124885555Y-65326434D02*
X124966367Y-65299497D01*
X124966367Y-65299497D02*
X125020242Y-65299497D01*
X125020242Y-65299497D02*
X125101054Y-65326434D01*
X125101054Y-65326434D02*
X125235741Y-65461121D01*
X125235741Y-65461121D02*
X125262679Y-65541933D01*
X125262679Y-65541933D02*
X125262679Y-65595808D01*
X125262679Y-65595808D02*
X125235741Y-65676620D01*
X125235741Y-65676620D02*
X125074117Y-65838245D01*
X125074117Y-65838245D02*
X124993305Y-65865182D01*
X124993305Y-65865182D02*
X124939430Y-65865182D01*
X123646435Y-86508431D02*
X123565623Y-86535368D01*
X123565623Y-86535368D02*
X123484811Y-86616180D01*
X123484811Y-86616180D02*
X123430936Y-86723930D01*
X123430936Y-86723930D02*
X123430936Y-86831680D01*
X123430936Y-86831680D02*
X123457873Y-86912492D01*
X123457873Y-86912492D02*
X123538685Y-87047179D01*
X123538685Y-87047179D02*
X123619498Y-87127991D01*
X123619498Y-87127991D02*
X123754185Y-87208803D01*
X123754185Y-87208803D02*
X123834997Y-87235741D01*
X123834997Y-87235741D02*
X123942746Y-87235741D01*
X123942746Y-87235741D02*
X124050496Y-87181866D01*
X124050496Y-87181866D02*
X124104371Y-87127991D01*
X124104371Y-87127991D02*
X124158246Y-87020241D01*
X124158246Y-87020241D02*
X124158246Y-86966367D01*
X124158246Y-86966367D02*
X123969684Y-86777805D01*
X123969684Y-86777805D02*
X123861934Y-86885554D01*
X124454557Y-86777805D02*
X123888872Y-86212119D01*
X123888872Y-86212119D02*
X124777806Y-86454556D01*
X124777806Y-86454556D02*
X124212120Y-85888871D01*
X125047180Y-86185182D02*
X124481494Y-85619497D01*
X124481494Y-85619497D02*
X124616181Y-85484810D01*
X124616181Y-85484810D02*
X124723931Y-85430935D01*
X124723931Y-85430935D02*
X124831680Y-85430935D01*
X124831680Y-85430935D02*
X124912493Y-85457872D01*
X124912493Y-85457872D02*
X125047180Y-85538685D01*
X125047180Y-85538685D02*
X125127992Y-85619497D01*
X125127992Y-85619497D02*
X125208804Y-85754184D01*
X125208804Y-85754184D02*
X125235741Y-85834996D01*
X125235741Y-85834996D02*
X125235741Y-85942746D01*
X125235741Y-85942746D02*
X125181867Y-86050495D01*
X125181867Y-86050495D02*
X125047180Y-86185182D01*
X149257998Y-89300868D02*
X149177185Y-89327805D01*
X149177185Y-89327805D02*
X149096373Y-89408618D01*
X149096373Y-89408618D02*
X149042498Y-89516367D01*
X149042498Y-89516367D02*
X149042498Y-89624117D01*
X149042498Y-89624117D02*
X149069436Y-89704929D01*
X149069436Y-89704929D02*
X149150248Y-89839616D01*
X149150248Y-89839616D02*
X149231060Y-89920428D01*
X149231060Y-89920428D02*
X149365747Y-90001241D01*
X149365747Y-90001241D02*
X149446560Y-90028178D01*
X149446560Y-90028178D02*
X149554309Y-90028178D01*
X149554309Y-90028178D02*
X149662059Y-89974303D01*
X149662059Y-89974303D02*
X149715934Y-89920428D01*
X149715934Y-89920428D02*
X149769808Y-89812679D01*
X149769808Y-89812679D02*
X149769808Y-89758804D01*
X149769808Y-89758804D02*
X149581247Y-89570242D01*
X149581247Y-89570242D02*
X149473497Y-89677992D01*
X150066120Y-89570242D02*
X149500434Y-89004557D01*
X149500434Y-89004557D02*
X149715934Y-88789057D01*
X149715934Y-88789057D02*
X149796746Y-88762120D01*
X149796746Y-88762120D02*
X149850621Y-88762120D01*
X149850621Y-88762120D02*
X149931433Y-88789057D01*
X149931433Y-88789057D02*
X150012245Y-88869870D01*
X150012245Y-88869870D02*
X150039182Y-88950682D01*
X150039182Y-88950682D02*
X150039182Y-89004557D01*
X150039182Y-89004557D02*
X150012245Y-89085369D01*
X150012245Y-89085369D02*
X149796746Y-89300868D01*
X150093057Y-88519683D02*
X150093057Y-88465809D01*
X150093057Y-88465809D02*
X150119995Y-88384996D01*
X150119995Y-88384996D02*
X150254682Y-88250309D01*
X150254682Y-88250309D02*
X150335494Y-88223372D01*
X150335494Y-88223372D02*
X150389369Y-88223372D01*
X150389369Y-88223372D02*
X150470181Y-88250309D01*
X150470181Y-88250309D02*
X150524056Y-88304184D01*
X150524056Y-88304184D02*
X150577930Y-88411934D01*
X150577930Y-88411934D02*
X150577930Y-89058431D01*
X150577930Y-89058431D02*
X150928117Y-88708245D01*
X151466865Y-88169497D02*
X151143616Y-88492746D01*
X151305240Y-88331121D02*
X150739555Y-87765436D01*
X150739555Y-87765436D02*
X150766492Y-87900123D01*
X150766492Y-87900123D02*
X150766492Y-88007873D01*
X150766492Y-88007873D02*
X150739555Y-88088685D01*
X149311873Y-74751240D02*
X149581247Y-74481866D01*
X149419623Y-74966739D02*
X149042499Y-74212492D01*
X149042499Y-74212492D02*
X149796746Y-74589615D01*
X149742871Y-73565994D02*
X149662059Y-73592932D01*
X149662059Y-73592932D02*
X149581247Y-73673744D01*
X149581247Y-73673744D02*
X149527372Y-73781494D01*
X149527372Y-73781494D02*
X149527372Y-73889243D01*
X149527372Y-73889243D02*
X149554310Y-73970055D01*
X149554310Y-73970055D02*
X149635122Y-74104742D01*
X149635122Y-74104742D02*
X149715934Y-74185555D01*
X149715934Y-74185555D02*
X149850621Y-74266367D01*
X149850621Y-74266367D02*
X149931433Y-74293304D01*
X149931433Y-74293304D02*
X150039183Y-74293304D01*
X150039183Y-74293304D02*
X150146932Y-74239429D01*
X150146932Y-74239429D02*
X150200807Y-74185555D01*
X150200807Y-74185555D02*
X150254682Y-74077805D01*
X150254682Y-74077805D02*
X150254682Y-74023930D01*
X150254682Y-74023930D02*
X150066120Y-73835368D01*
X150066120Y-73835368D02*
X149958371Y-73943118D01*
X150550993Y-73835368D02*
X149985308Y-73269683D01*
X149985308Y-73269683D02*
X150874242Y-73512120D01*
X150874242Y-73512120D02*
X150308557Y-72946434D01*
X151143616Y-73242746D02*
X150577931Y-72677060D01*
X150577931Y-72677060D02*
X150712618Y-72542373D01*
X150712618Y-72542373D02*
X150820367Y-72488498D01*
X150820367Y-72488498D02*
X150928117Y-72488498D01*
X150928117Y-72488498D02*
X151008929Y-72515436D01*
X151008929Y-72515436D02*
X151143616Y-72596248D01*
X151143616Y-72596248D02*
X151224428Y-72677060D01*
X151224428Y-72677060D02*
X151305241Y-72811747D01*
X151305241Y-72811747D02*
X151332178Y-72892560D01*
X151332178Y-72892560D02*
X151332178Y-73000309D01*
X151332178Y-73000309D02*
X151278303Y-73108059D01*
X151278303Y-73108059D02*
X151143616Y-73242746D01*
X149257998Y-91830868D02*
X149177185Y-91857805D01*
X149177185Y-91857805D02*
X149096373Y-91938618D01*
X149096373Y-91938618D02*
X149042498Y-92046367D01*
X149042498Y-92046367D02*
X149042498Y-92154117D01*
X149042498Y-92154117D02*
X149069436Y-92234929D01*
X149069436Y-92234929D02*
X149150248Y-92369616D01*
X149150248Y-92369616D02*
X149231060Y-92450428D01*
X149231060Y-92450428D02*
X149365747Y-92531241D01*
X149365747Y-92531241D02*
X149446560Y-92558178D01*
X149446560Y-92558178D02*
X149554309Y-92558178D01*
X149554309Y-92558178D02*
X149662059Y-92504303D01*
X149662059Y-92504303D02*
X149715934Y-92450428D01*
X149715934Y-92450428D02*
X149769808Y-92342679D01*
X149769808Y-92342679D02*
X149769808Y-92288804D01*
X149769808Y-92288804D02*
X149581247Y-92100242D01*
X149581247Y-92100242D02*
X149473497Y-92207992D01*
X150066120Y-92100242D02*
X149500434Y-91534557D01*
X149500434Y-91534557D02*
X149715934Y-91319057D01*
X149715934Y-91319057D02*
X149796746Y-91292120D01*
X149796746Y-91292120D02*
X149850621Y-91292120D01*
X149850621Y-91292120D02*
X149931433Y-91319057D01*
X149931433Y-91319057D02*
X150012245Y-91399870D01*
X150012245Y-91399870D02*
X150039182Y-91480682D01*
X150039182Y-91480682D02*
X150039182Y-91534557D01*
X150039182Y-91534557D02*
X150012245Y-91615369D01*
X150012245Y-91615369D02*
X149796746Y-91830868D01*
X150093057Y-91049683D02*
X150093057Y-90995809D01*
X150093057Y-90995809D02*
X150119995Y-90914996D01*
X150119995Y-90914996D02*
X150254682Y-90780309D01*
X150254682Y-90780309D02*
X150335494Y-90753372D01*
X150335494Y-90753372D02*
X150389369Y-90753372D01*
X150389369Y-90753372D02*
X150470181Y-90780309D01*
X150470181Y-90780309D02*
X150524056Y-90834184D01*
X150524056Y-90834184D02*
X150577930Y-90941934D01*
X150577930Y-90941934D02*
X150577930Y-91588431D01*
X150577930Y-91588431D02*
X150928117Y-91238245D01*
X150712618Y-90322373D02*
X150766492Y-90268499D01*
X150766492Y-90268499D02*
X150847305Y-90241561D01*
X150847305Y-90241561D02*
X150901179Y-90241561D01*
X150901179Y-90241561D02*
X150981992Y-90268499D01*
X150981992Y-90268499D02*
X151116679Y-90349311D01*
X151116679Y-90349311D02*
X151251366Y-90483998D01*
X151251366Y-90483998D02*
X151332178Y-90618685D01*
X151332178Y-90618685D02*
X151359115Y-90699497D01*
X151359115Y-90699497D02*
X151359115Y-90753372D01*
X151359115Y-90753372D02*
X151332178Y-90834184D01*
X151332178Y-90834184D02*
X151278303Y-90888059D01*
X151278303Y-90888059D02*
X151197491Y-90914996D01*
X151197491Y-90914996D02*
X151143616Y-90914996D01*
X151143616Y-90914996D02*
X151062804Y-90888059D01*
X151062804Y-90888059D02*
X150928117Y-90807247D01*
X150928117Y-90807247D02*
X150793430Y-90672560D01*
X150793430Y-90672560D02*
X150712618Y-90537873D01*
X150712618Y-90537873D02*
X150685680Y-90457060D01*
X150685680Y-90457060D02*
X150685680Y-90403186D01*
X150685680Y-90403186D02*
X150712618Y-90322373D01*
X149257998Y-79130868D02*
X149177185Y-79157805D01*
X149177185Y-79157805D02*
X149096373Y-79238618D01*
X149096373Y-79238618D02*
X149042498Y-79346367D01*
X149042498Y-79346367D02*
X149042498Y-79454117D01*
X149042498Y-79454117D02*
X149069436Y-79534929D01*
X149069436Y-79534929D02*
X149150248Y-79669616D01*
X149150248Y-79669616D02*
X149231060Y-79750428D01*
X149231060Y-79750428D02*
X149365747Y-79831241D01*
X149365747Y-79831241D02*
X149446560Y-79858178D01*
X149446560Y-79858178D02*
X149554309Y-79858178D01*
X149554309Y-79858178D02*
X149662059Y-79804303D01*
X149662059Y-79804303D02*
X149715934Y-79750428D01*
X149715934Y-79750428D02*
X149769808Y-79642679D01*
X149769808Y-79642679D02*
X149769808Y-79588804D01*
X149769808Y-79588804D02*
X149581247Y-79400242D01*
X149581247Y-79400242D02*
X149473497Y-79507992D01*
X150066120Y-79400242D02*
X149500434Y-78834557D01*
X149500434Y-78834557D02*
X149715934Y-78619057D01*
X149715934Y-78619057D02*
X149796746Y-78592120D01*
X149796746Y-78592120D02*
X149850621Y-78592120D01*
X149850621Y-78592120D02*
X149931433Y-78619057D01*
X149931433Y-78619057D02*
X150012245Y-78699870D01*
X150012245Y-78699870D02*
X150039182Y-78780682D01*
X150039182Y-78780682D02*
X150039182Y-78834557D01*
X150039182Y-78834557D02*
X150012245Y-78915369D01*
X150012245Y-78915369D02*
X149796746Y-79130868D01*
X150093057Y-78349683D02*
X150093057Y-78295809D01*
X150093057Y-78295809D02*
X150119995Y-78214996D01*
X150119995Y-78214996D02*
X150254682Y-78080309D01*
X150254682Y-78080309D02*
X150335494Y-78053372D01*
X150335494Y-78053372D02*
X150389369Y-78053372D01*
X150389369Y-78053372D02*
X150470181Y-78080309D01*
X150470181Y-78080309D02*
X150524056Y-78134184D01*
X150524056Y-78134184D02*
X150577930Y-78241934D01*
X150577930Y-78241934D02*
X150577930Y-78888431D01*
X150577930Y-78888431D02*
X150928117Y-78538245D01*
X150847305Y-77487686D02*
X150739555Y-77595436D01*
X150739555Y-77595436D02*
X150712618Y-77676248D01*
X150712618Y-77676248D02*
X150712618Y-77730123D01*
X150712618Y-77730123D02*
X150739555Y-77864810D01*
X150739555Y-77864810D02*
X150820367Y-77999497D01*
X150820367Y-77999497D02*
X151035866Y-78214996D01*
X151035866Y-78214996D02*
X151116679Y-78241934D01*
X151116679Y-78241934D02*
X151170553Y-78241934D01*
X151170553Y-78241934D02*
X151251366Y-78214996D01*
X151251366Y-78214996D02*
X151359115Y-78107247D01*
X151359115Y-78107247D02*
X151386053Y-78026434D01*
X151386053Y-78026434D02*
X151386053Y-77972560D01*
X151386053Y-77972560D02*
X151359115Y-77891747D01*
X151359115Y-77891747D02*
X151224428Y-77757060D01*
X151224428Y-77757060D02*
X151143616Y-77730123D01*
X151143616Y-77730123D02*
X151089741Y-77730123D01*
X151089741Y-77730123D02*
X151008929Y-77757060D01*
X151008929Y-77757060D02*
X150901179Y-77864810D01*
X150901179Y-77864810D02*
X150874242Y-77945622D01*
X150874242Y-77945622D02*
X150874242Y-77999497D01*
X150874242Y-77999497D02*
X150901179Y-78080309D01*
X123646435Y-99208431D02*
X123565623Y-99235368D01*
X123565623Y-99235368D02*
X123484811Y-99316180D01*
X123484811Y-99316180D02*
X123430936Y-99423930D01*
X123430936Y-99423930D02*
X123430936Y-99531680D01*
X123430936Y-99531680D02*
X123457873Y-99612492D01*
X123457873Y-99612492D02*
X123538685Y-99747179D01*
X123538685Y-99747179D02*
X123619498Y-99827991D01*
X123619498Y-99827991D02*
X123754185Y-99908803D01*
X123754185Y-99908803D02*
X123834997Y-99935741D01*
X123834997Y-99935741D02*
X123942746Y-99935741D01*
X123942746Y-99935741D02*
X124050496Y-99881866D01*
X124050496Y-99881866D02*
X124104371Y-99827991D01*
X124104371Y-99827991D02*
X124158246Y-99720241D01*
X124158246Y-99720241D02*
X124158246Y-99666367D01*
X124158246Y-99666367D02*
X123969684Y-99477805D01*
X123969684Y-99477805D02*
X123861934Y-99585554D01*
X124454557Y-99477805D02*
X123888872Y-98912119D01*
X123888872Y-98912119D02*
X124777806Y-99154556D01*
X124777806Y-99154556D02*
X124212120Y-98588871D01*
X125047180Y-98885182D02*
X124481494Y-98319497D01*
X124481494Y-98319497D02*
X124616181Y-98184810D01*
X124616181Y-98184810D02*
X124723931Y-98130935D01*
X124723931Y-98130935D02*
X124831680Y-98130935D01*
X124831680Y-98130935D02*
X124912493Y-98157872D01*
X124912493Y-98157872D02*
X125047180Y-98238685D01*
X125047180Y-98238685D02*
X125127992Y-98319497D01*
X125127992Y-98319497D02*
X125208804Y-98454184D01*
X125208804Y-98454184D02*
X125235741Y-98534996D01*
X125235741Y-98534996D02*
X125235741Y-98642746D01*
X125235741Y-98642746D02*
X125181867Y-98750495D01*
X125181867Y-98750495D02*
X125047180Y-98885182D01*
X149257998Y-101990868D02*
X149177185Y-102017805D01*
X149177185Y-102017805D02*
X149096373Y-102098618D01*
X149096373Y-102098618D02*
X149042498Y-102206367D01*
X149042498Y-102206367D02*
X149042498Y-102314117D01*
X149042498Y-102314117D02*
X149069436Y-102394929D01*
X149069436Y-102394929D02*
X149150248Y-102529616D01*
X149150248Y-102529616D02*
X149231060Y-102610428D01*
X149231060Y-102610428D02*
X149365747Y-102691241D01*
X149365747Y-102691241D02*
X149446560Y-102718178D01*
X149446560Y-102718178D02*
X149554309Y-102718178D01*
X149554309Y-102718178D02*
X149662059Y-102664303D01*
X149662059Y-102664303D02*
X149715934Y-102610428D01*
X149715934Y-102610428D02*
X149769808Y-102502679D01*
X149769808Y-102502679D02*
X149769808Y-102448804D01*
X149769808Y-102448804D02*
X149581247Y-102260242D01*
X149581247Y-102260242D02*
X149473497Y-102367992D01*
X150066120Y-102260242D02*
X149500434Y-101694557D01*
X149500434Y-101694557D02*
X149715934Y-101479057D01*
X149715934Y-101479057D02*
X149796746Y-101452120D01*
X149796746Y-101452120D02*
X149850621Y-101452120D01*
X149850621Y-101452120D02*
X149931433Y-101479057D01*
X149931433Y-101479057D02*
X150012245Y-101559870D01*
X150012245Y-101559870D02*
X150039182Y-101640682D01*
X150039182Y-101640682D02*
X150039182Y-101694557D01*
X150039182Y-101694557D02*
X150012245Y-101775369D01*
X150012245Y-101775369D02*
X149796746Y-101990868D01*
X150928117Y-101398245D02*
X150604868Y-101721494D01*
X150766492Y-101559870D02*
X150200807Y-100994184D01*
X150200807Y-100994184D02*
X150227744Y-101128871D01*
X150227744Y-101128871D02*
X150227744Y-101236621D01*
X150227744Y-101236621D02*
X150200807Y-101317433D01*
X150550993Y-100643998D02*
X150928117Y-100266874D01*
X150928117Y-100266874D02*
X151251366Y-101074996D01*
X123673372Y-68701494D02*
X123592560Y-68728431D01*
X123592560Y-68728431D02*
X123511748Y-68809243D01*
X123511748Y-68809243D02*
X123457873Y-68916993D01*
X123457873Y-68916993D02*
X123457873Y-69024742D01*
X123457873Y-69024742D02*
X123484810Y-69105555D01*
X123484810Y-69105555D02*
X123565623Y-69240242D01*
X123565623Y-69240242D02*
X123646435Y-69321054D01*
X123646435Y-69321054D02*
X123781122Y-69401866D01*
X123781122Y-69401866D02*
X123861934Y-69428803D01*
X123861934Y-69428803D02*
X123969684Y-69428803D01*
X123969684Y-69428803D02*
X124077433Y-69374929D01*
X124077433Y-69374929D02*
X124131308Y-69321054D01*
X124131308Y-69321054D02*
X124185183Y-69213304D01*
X124185183Y-69213304D02*
X124185183Y-69159429D01*
X124185183Y-69159429D02*
X123996621Y-68970868D01*
X123996621Y-68970868D02*
X123888871Y-69078617D01*
X124481494Y-68970868D02*
X123915809Y-68405182D01*
X123915809Y-68405182D02*
X124131308Y-68189683D01*
X124131308Y-68189683D02*
X124212120Y-68162746D01*
X124212120Y-68162746D02*
X124265995Y-68162746D01*
X124265995Y-68162746D02*
X124346807Y-68189683D01*
X124346807Y-68189683D02*
X124427619Y-68270495D01*
X124427619Y-68270495D02*
X124454557Y-68351307D01*
X124454557Y-68351307D02*
X124454557Y-68405182D01*
X124454557Y-68405182D02*
X124427619Y-68485994D01*
X124427619Y-68485994D02*
X124212120Y-68701494D01*
X124912493Y-67785622D02*
X125289616Y-68162746D01*
X124562306Y-67704810D02*
X124831680Y-68243558D01*
X124831680Y-68243558D02*
X125181867Y-67893372D01*
X123673372Y-76321494D02*
X123592560Y-76348431D01*
X123592560Y-76348431D02*
X123511748Y-76429243D01*
X123511748Y-76429243D02*
X123457873Y-76536993D01*
X123457873Y-76536993D02*
X123457873Y-76644742D01*
X123457873Y-76644742D02*
X123484810Y-76725555D01*
X123484810Y-76725555D02*
X123565623Y-76860242D01*
X123565623Y-76860242D02*
X123646435Y-76941054D01*
X123646435Y-76941054D02*
X123781122Y-77021866D01*
X123781122Y-77021866D02*
X123861934Y-77048803D01*
X123861934Y-77048803D02*
X123969684Y-77048803D01*
X123969684Y-77048803D02*
X124077433Y-76994929D01*
X124077433Y-76994929D02*
X124131308Y-76941054D01*
X124131308Y-76941054D02*
X124185183Y-76833304D01*
X124185183Y-76833304D02*
X124185183Y-76779429D01*
X124185183Y-76779429D02*
X123996621Y-76590868D01*
X123996621Y-76590868D02*
X123888871Y-76698617D01*
X124481494Y-76590868D02*
X123915809Y-76025182D01*
X123915809Y-76025182D02*
X124131308Y-75809683D01*
X124131308Y-75809683D02*
X124212120Y-75782746D01*
X124212120Y-75782746D02*
X124265995Y-75782746D01*
X124265995Y-75782746D02*
X124346807Y-75809683D01*
X124346807Y-75809683D02*
X124427619Y-75890495D01*
X124427619Y-75890495D02*
X124454557Y-75971307D01*
X124454557Y-75971307D02*
X124454557Y-76025182D01*
X124454557Y-76025182D02*
X124427619Y-76105994D01*
X124427619Y-76105994D02*
X124212120Y-76321494D01*
X124723931Y-75217060D02*
X124616181Y-75324810D01*
X124616181Y-75324810D02*
X124589244Y-75405622D01*
X124589244Y-75405622D02*
X124589244Y-75459497D01*
X124589244Y-75459497D02*
X124616181Y-75594184D01*
X124616181Y-75594184D02*
X124696993Y-75728871D01*
X124696993Y-75728871D02*
X124912493Y-75944370D01*
X124912493Y-75944370D02*
X124993305Y-75971307D01*
X124993305Y-75971307D02*
X125047180Y-75971307D01*
X125047180Y-75971307D02*
X125127992Y-75944370D01*
X125127992Y-75944370D02*
X125235741Y-75836620D01*
X125235741Y-75836620D02*
X125262679Y-75755808D01*
X125262679Y-75755808D02*
X125262679Y-75701933D01*
X125262679Y-75701933D02*
X125235741Y-75621121D01*
X125235741Y-75621121D02*
X125101054Y-75486434D01*
X125101054Y-75486434D02*
X125020242Y-75459497D01*
X125020242Y-75459497D02*
X124966367Y-75459497D01*
X124966367Y-75459497D02*
X124885555Y-75486434D01*
X124885555Y-75486434D02*
X124777806Y-75594184D01*
X124777806Y-75594184D02*
X124750868Y-75674996D01*
X124750868Y-75674996D02*
X124750868Y-75728871D01*
X124750868Y-75728871D02*
X124777806Y-75809683D01*
X149080749Y-59080242D02*
X149834996Y-59457366D01*
X149834996Y-59457366D02*
X149457873Y-58703118D01*
X150158245Y-59080242D02*
X150265995Y-59026367D01*
X150265995Y-59026367D02*
X150400682Y-58891680D01*
X150400682Y-58891680D02*
X150427619Y-58810868D01*
X150427619Y-58810868D02*
X150427619Y-58756993D01*
X150427619Y-58756993D02*
X150400682Y-58676181D01*
X150400682Y-58676181D02*
X150346807Y-58622306D01*
X150346807Y-58622306D02*
X150265995Y-58595369D01*
X150265995Y-58595369D02*
X150212120Y-58595369D01*
X150212120Y-58595369D02*
X150131308Y-58622306D01*
X150131308Y-58622306D02*
X149996621Y-58703118D01*
X149996621Y-58703118D02*
X149915808Y-58730056D01*
X149915808Y-58730056D02*
X149861934Y-58730056D01*
X149861934Y-58730056D02*
X149781121Y-58703118D01*
X149781121Y-58703118D02*
X149727247Y-58649244D01*
X149727247Y-58649244D02*
X149700309Y-58568431D01*
X149700309Y-58568431D02*
X149700309Y-58514557D01*
X149700309Y-58514557D02*
X149727247Y-58433744D01*
X149727247Y-58433744D02*
X149861934Y-58299057D01*
X149861934Y-58299057D02*
X149969683Y-58245183D01*
X150589244Y-58164370D02*
X150858618Y-58433744D01*
X150104370Y-58056621D02*
X150589244Y-58164370D01*
X150589244Y-58164370D02*
X150481494Y-57679497D01*
X151181866Y-58056621D02*
X151289616Y-58002746D01*
X151289616Y-58002746D02*
X151424303Y-57868059D01*
X151424303Y-57868059D02*
X151451240Y-57787247D01*
X151451240Y-57787247D02*
X151451240Y-57733372D01*
X151451240Y-57733372D02*
X151424303Y-57652560D01*
X151424303Y-57652560D02*
X151370428Y-57598685D01*
X151370428Y-57598685D02*
X151289616Y-57571748D01*
X151289616Y-57571748D02*
X151235741Y-57571748D01*
X151235741Y-57571748D02*
X151154929Y-57598685D01*
X151154929Y-57598685D02*
X151020242Y-57679497D01*
X151020242Y-57679497D02*
X150939430Y-57706435D01*
X150939430Y-57706435D02*
X150885555Y-57706435D01*
X150885555Y-57706435D02*
X150804743Y-57679497D01*
X150804743Y-57679497D02*
X150750868Y-57625622D01*
X150750868Y-57625622D02*
X150723930Y-57544810D01*
X150723930Y-57544810D02*
X150723930Y-57490935D01*
X150723930Y-57490935D02*
X150750868Y-57410123D01*
X150750868Y-57410123D02*
X150885555Y-57275436D01*
X150885555Y-57275436D02*
X150993304Y-57221561D01*
X123673372Y-56001494D02*
X123592560Y-56028431D01*
X123592560Y-56028431D02*
X123511748Y-56109243D01*
X123511748Y-56109243D02*
X123457873Y-56216993D01*
X123457873Y-56216993D02*
X123457873Y-56324742D01*
X123457873Y-56324742D02*
X123484810Y-56405555D01*
X123484810Y-56405555D02*
X123565623Y-56540242D01*
X123565623Y-56540242D02*
X123646435Y-56621054D01*
X123646435Y-56621054D02*
X123781122Y-56701866D01*
X123781122Y-56701866D02*
X123861934Y-56728803D01*
X123861934Y-56728803D02*
X123969684Y-56728803D01*
X123969684Y-56728803D02*
X124077433Y-56674929D01*
X124077433Y-56674929D02*
X124131308Y-56621054D01*
X124131308Y-56621054D02*
X124185183Y-56513304D01*
X124185183Y-56513304D02*
X124185183Y-56459429D01*
X124185183Y-56459429D02*
X123996621Y-56270868D01*
X123996621Y-56270868D02*
X123888871Y-56378617D01*
X124481494Y-56270868D02*
X123915809Y-55705182D01*
X123915809Y-55705182D02*
X124131308Y-55489683D01*
X124131308Y-55489683D02*
X124212120Y-55462746D01*
X124212120Y-55462746D02*
X124265995Y-55462746D01*
X124265995Y-55462746D02*
X124346807Y-55489683D01*
X124346807Y-55489683D02*
X124427619Y-55570495D01*
X124427619Y-55570495D02*
X124454557Y-55651307D01*
X124454557Y-55651307D02*
X124454557Y-55705182D01*
X124454557Y-55705182D02*
X124427619Y-55785994D01*
X124427619Y-55785994D02*
X124212120Y-56001494D01*
X124589244Y-55031747D02*
X124643119Y-54977872D01*
X124643119Y-54977872D02*
X124723931Y-54950935D01*
X124723931Y-54950935D02*
X124777806Y-54950935D01*
X124777806Y-54950935D02*
X124858618Y-54977872D01*
X124858618Y-54977872D02*
X124993305Y-55058685D01*
X124993305Y-55058685D02*
X125127992Y-55193372D01*
X125127992Y-55193372D02*
X125208804Y-55328059D01*
X125208804Y-55328059D02*
X125235741Y-55408871D01*
X125235741Y-55408871D02*
X125235741Y-55462746D01*
X125235741Y-55462746D02*
X125208804Y-55543558D01*
X125208804Y-55543558D02*
X125154929Y-55597433D01*
X125154929Y-55597433D02*
X125074117Y-55624370D01*
X125074117Y-55624370D02*
X125020242Y-55624370D01*
X125020242Y-55624370D02*
X124939430Y-55597433D01*
X124939430Y-55597433D02*
X124804743Y-55516620D01*
X124804743Y-55516620D02*
X124670056Y-55381933D01*
X124670056Y-55381933D02*
X124589244Y-55247246D01*
X124589244Y-55247246D02*
X124562306Y-55166434D01*
X124562306Y-55166434D02*
X124562306Y-55112559D01*
X124562306Y-55112559D02*
X124589244Y-55031747D01*
X149257998Y-96910868D02*
X149177185Y-96937805D01*
X149177185Y-96937805D02*
X149096373Y-97018618D01*
X149096373Y-97018618D02*
X149042498Y-97126367D01*
X149042498Y-97126367D02*
X149042498Y-97234117D01*
X149042498Y-97234117D02*
X149069436Y-97314929D01*
X149069436Y-97314929D02*
X149150248Y-97449616D01*
X149150248Y-97449616D02*
X149231060Y-97530428D01*
X149231060Y-97530428D02*
X149365747Y-97611241D01*
X149365747Y-97611241D02*
X149446560Y-97638178D01*
X149446560Y-97638178D02*
X149554309Y-97638178D01*
X149554309Y-97638178D02*
X149662059Y-97584303D01*
X149662059Y-97584303D02*
X149715934Y-97530428D01*
X149715934Y-97530428D02*
X149769808Y-97422679D01*
X149769808Y-97422679D02*
X149769808Y-97368804D01*
X149769808Y-97368804D02*
X149581247Y-97180242D01*
X149581247Y-97180242D02*
X149473497Y-97287992D01*
X150066120Y-97180242D02*
X149500434Y-96614557D01*
X149500434Y-96614557D02*
X149715934Y-96399057D01*
X149715934Y-96399057D02*
X149796746Y-96372120D01*
X149796746Y-96372120D02*
X149850621Y-96372120D01*
X149850621Y-96372120D02*
X149931433Y-96399057D01*
X149931433Y-96399057D02*
X150012245Y-96479870D01*
X150012245Y-96479870D02*
X150039182Y-96560682D01*
X150039182Y-96560682D02*
X150039182Y-96614557D01*
X150039182Y-96614557D02*
X150012245Y-96695369D01*
X150012245Y-96695369D02*
X149796746Y-96910868D01*
X150928117Y-96318245D02*
X150604868Y-96641494D01*
X150766492Y-96479870D02*
X150200807Y-95914184D01*
X150200807Y-95914184D02*
X150227744Y-96048871D01*
X150227744Y-96048871D02*
X150227744Y-96156621D01*
X150227744Y-96156621D02*
X150200807Y-96237433D01*
X150928117Y-95671747D02*
X150847305Y-95698685D01*
X150847305Y-95698685D02*
X150793430Y-95698685D01*
X150793430Y-95698685D02*
X150712618Y-95671747D01*
X150712618Y-95671747D02*
X150685680Y-95644810D01*
X150685680Y-95644810D02*
X150658743Y-95563998D01*
X150658743Y-95563998D02*
X150658743Y-95510123D01*
X150658743Y-95510123D02*
X150685680Y-95429311D01*
X150685680Y-95429311D02*
X150793430Y-95321561D01*
X150793430Y-95321561D02*
X150874242Y-95294624D01*
X150874242Y-95294624D02*
X150928117Y-95294624D01*
X150928117Y-95294624D02*
X151008929Y-95321561D01*
X151008929Y-95321561D02*
X151035866Y-95348499D01*
X151035866Y-95348499D02*
X151062804Y-95429311D01*
X151062804Y-95429311D02*
X151062804Y-95483186D01*
X151062804Y-95483186D02*
X151035866Y-95563998D01*
X151035866Y-95563998D02*
X150928117Y-95671747D01*
X150928117Y-95671747D02*
X150901179Y-95752560D01*
X150901179Y-95752560D02*
X150901179Y-95806434D01*
X150901179Y-95806434D02*
X150928117Y-95887247D01*
X150928117Y-95887247D02*
X151035866Y-95994996D01*
X151035866Y-95994996D02*
X151116679Y-96021934D01*
X151116679Y-96021934D02*
X151170553Y-96021934D01*
X151170553Y-96021934D02*
X151251366Y-95994996D01*
X151251366Y-95994996D02*
X151359115Y-95887247D01*
X151359115Y-95887247D02*
X151386053Y-95806434D01*
X151386053Y-95806434D02*
X151386053Y-95752560D01*
X151386053Y-95752560D02*
X151359115Y-95671747D01*
X151359115Y-95671747D02*
X151251366Y-95563998D01*
X151251366Y-95563998D02*
X151170553Y-95537060D01*
X151170553Y-95537060D02*
X151116679Y-95537060D01*
X151116679Y-95537060D02*
X151035866Y-95563998D01*
X151855064Y-69544049D02*
X152124438Y-69274675D01*
X151962813Y-69759549D02*
X151585690Y-69005301D01*
X151585690Y-69005301D02*
X152339937Y-69382425D01*
X152528499Y-69193863D02*
X151962813Y-68628178D01*
X151962813Y-68628178D02*
X152097500Y-68493491D01*
X152097500Y-68493491D02*
X152205250Y-68439616D01*
X152205250Y-68439616D02*
X152312999Y-68439616D01*
X152312999Y-68439616D02*
X152393812Y-68466553D01*
X152393812Y-68466553D02*
X152528499Y-68547366D01*
X152528499Y-68547366D02*
X152609311Y-68628178D01*
X152609311Y-68628178D02*
X152690123Y-68762865D01*
X152690123Y-68762865D02*
X152717060Y-68843677D01*
X152717060Y-68843677D02*
X152717060Y-68951427D01*
X152717060Y-68951427D02*
X152663186Y-69059176D01*
X152663186Y-69059176D02*
X152528499Y-69193863D01*
X153363558Y-68251054D02*
X153363558Y-68304929D01*
X153363558Y-68304929D02*
X153309683Y-68412679D01*
X153309683Y-68412679D02*
X153255808Y-68466553D01*
X153255808Y-68466553D02*
X153148059Y-68520428D01*
X153148059Y-68520428D02*
X153040309Y-68520428D01*
X153040309Y-68520428D02*
X152959497Y-68493491D01*
X152959497Y-68493491D02*
X152824810Y-68412679D01*
X152824810Y-68412679D02*
X152743998Y-68331866D01*
X152743998Y-68331866D02*
X152663186Y-68197179D01*
X152663186Y-68197179D02*
X152636248Y-68116367D01*
X152636248Y-68116367D02*
X152636248Y-68008618D01*
X152636248Y-68008618D02*
X152690123Y-67900868D01*
X152690123Y-67900868D02*
X152743998Y-67846993D01*
X152743998Y-67846993D02*
X152851747Y-67793118D01*
X152851747Y-67793118D02*
X152905622Y-67793118D01*
X153579057Y-68251054D02*
X154010056Y-67820056D01*
X153444370Y-67146621D02*
X154198618Y-67523744D01*
X154198618Y-67523744D02*
X153821494Y-66769497D01*
X154898990Y-66823372D02*
X154441054Y-66742560D01*
X154575741Y-67146621D02*
X154010056Y-66580935D01*
X154010056Y-66580935D02*
X154225555Y-66365436D01*
X154225555Y-66365436D02*
X154306367Y-66338499D01*
X154306367Y-66338499D02*
X154360242Y-66338499D01*
X154360242Y-66338499D02*
X154441054Y-66365436D01*
X154441054Y-66365436D02*
X154521866Y-66446248D01*
X154521866Y-66446248D02*
X154548804Y-66527061D01*
X154548804Y-66527061D02*
X154548804Y-66580935D01*
X154548804Y-66580935D02*
X154521866Y-66661748D01*
X154521866Y-66661748D02*
X154306367Y-66877247D01*
X154845115Y-66284624D02*
X155033677Y-66096062D01*
X155410800Y-66311561D02*
X155141426Y-66580935D01*
X155141426Y-66580935D02*
X154575741Y-66015250D01*
X154575741Y-66015250D02*
X154845115Y-65745876D01*
X155545488Y-65584251D02*
X155356926Y-65772813D01*
X155653237Y-66069125D02*
X155087552Y-65503439D01*
X155087552Y-65503439D02*
X155356926Y-65234065D01*
X149113406Y-56537585D02*
X149867653Y-56914709D01*
X149867653Y-56914709D02*
X149490529Y-56160462D01*
X150137027Y-56052712D02*
X150244776Y-55998838D01*
X150244776Y-55998838D02*
X150298651Y-55998838D01*
X150298651Y-55998838D02*
X150379463Y-56025775D01*
X150379463Y-56025775D02*
X150460276Y-56106587D01*
X150460276Y-56106587D02*
X150487213Y-56187399D01*
X150487213Y-56187399D02*
X150487213Y-56241274D01*
X150487213Y-56241274D02*
X150460276Y-56322086D01*
X150460276Y-56322086D02*
X150244776Y-56537586D01*
X150244776Y-56537586D02*
X149679091Y-55971900D01*
X149679091Y-55971900D02*
X149867653Y-55783338D01*
X149867653Y-55783338D02*
X149948465Y-55756401D01*
X149948465Y-55756401D02*
X150002340Y-55756401D01*
X150002340Y-55756401D02*
X150083152Y-55783338D01*
X150083152Y-55783338D02*
X150137027Y-55837213D01*
X150137027Y-55837213D02*
X150163964Y-55918025D01*
X150163964Y-55918025D02*
X150163964Y-55971900D01*
X150163964Y-55971900D02*
X150137027Y-56052712D01*
X150137027Y-56052712D02*
X149948465Y-56241274D01*
X150244776Y-55406215D02*
X150702712Y-55864151D01*
X150702712Y-55864151D02*
X150783524Y-55891088D01*
X150783524Y-55891088D02*
X150837399Y-55891088D01*
X150837399Y-55891088D02*
X150918211Y-55864151D01*
X150918211Y-55864151D02*
X151025961Y-55756401D01*
X151025961Y-55756401D02*
X151052898Y-55675589D01*
X151052898Y-55675589D02*
X151052898Y-55621714D01*
X151052898Y-55621714D02*
X151025961Y-55540902D01*
X151025961Y-55540902D02*
X150568025Y-55082966D01*
X151349210Y-55379277D02*
X151456959Y-55325403D01*
X151456959Y-55325403D02*
X151591646Y-55190716D01*
X151591646Y-55190716D02*
X151618584Y-55109903D01*
X151618584Y-55109903D02*
X151618584Y-55056029D01*
X151618584Y-55056029D02*
X151591646Y-54975216D01*
X151591646Y-54975216D02*
X151537771Y-54921342D01*
X151537771Y-54921342D02*
X151456959Y-54894404D01*
X151456959Y-54894404D02*
X151403084Y-54894404D01*
X151403084Y-54894404D02*
X151322272Y-54921342D01*
X151322272Y-54921342D02*
X151187585Y-55002154D01*
X151187585Y-55002154D02*
X151106773Y-55029091D01*
X151106773Y-55029091D02*
X151052898Y-55029091D01*
X151052898Y-55029091D02*
X150972086Y-55002154D01*
X150972086Y-55002154D02*
X150918211Y-54948279D01*
X150918211Y-54948279D02*
X150891274Y-54867467D01*
X150891274Y-54867467D02*
X150891274Y-54813592D01*
X150891274Y-54813592D02*
X150918211Y-54732780D01*
X150918211Y-54732780D02*
X151052898Y-54598093D01*
X151052898Y-54598093D02*
X151160648Y-54544218D01*
X123573372Y-63621494D02*
X123492560Y-63648431D01*
X123492560Y-63648431D02*
X123411748Y-63729243D01*
X123411748Y-63729243D02*
X123357873Y-63836993D01*
X123357873Y-63836993D02*
X123357873Y-63944742D01*
X123357873Y-63944742D02*
X123384810Y-64025555D01*
X123384810Y-64025555D02*
X123465623Y-64160242D01*
X123465623Y-64160242D02*
X123546435Y-64241054D01*
X123546435Y-64241054D02*
X123681122Y-64321866D01*
X123681122Y-64321866D02*
X123761934Y-64348803D01*
X123761934Y-64348803D02*
X123869684Y-64348803D01*
X123869684Y-64348803D02*
X123977433Y-64294929D01*
X123977433Y-64294929D02*
X124031308Y-64241054D01*
X124031308Y-64241054D02*
X124085183Y-64133304D01*
X124085183Y-64133304D02*
X124085183Y-64079429D01*
X124085183Y-64079429D02*
X123896621Y-63890868D01*
X123896621Y-63890868D02*
X123788871Y-63998617D01*
X124381494Y-63890868D02*
X123815809Y-63325182D01*
X123815809Y-63325182D02*
X124031308Y-63109683D01*
X124031308Y-63109683D02*
X124112120Y-63082746D01*
X124112120Y-63082746D02*
X124165995Y-63082746D01*
X124165995Y-63082746D02*
X124246807Y-63109683D01*
X124246807Y-63109683D02*
X124327619Y-63190495D01*
X124327619Y-63190495D02*
X124354557Y-63271307D01*
X124354557Y-63271307D02*
X124354557Y-63325182D01*
X124354557Y-63325182D02*
X124327619Y-63405994D01*
X124327619Y-63405994D02*
X124112120Y-63621494D01*
X124408432Y-62840309D02*
X124408432Y-62786434D01*
X124408432Y-62786434D02*
X124435369Y-62705622D01*
X124435369Y-62705622D02*
X124570056Y-62570935D01*
X124570056Y-62570935D02*
X124650868Y-62543998D01*
X124650868Y-62543998D02*
X124704743Y-62543998D01*
X124704743Y-62543998D02*
X124785555Y-62570935D01*
X124785555Y-62570935D02*
X124839430Y-62624810D01*
X124839430Y-62624810D02*
X124893305Y-62732559D01*
X124893305Y-62732559D02*
X124893305Y-63379057D01*
X124893305Y-63379057D02*
X125243491Y-63028871D01*
X149246435Y-99208431D02*
X149165623Y-99235368D01*
X149165623Y-99235368D02*
X149084811Y-99316180D01*
X149084811Y-99316180D02*
X149030936Y-99423930D01*
X149030936Y-99423930D02*
X149030936Y-99531680D01*
X149030936Y-99531680D02*
X149057873Y-99612492D01*
X149057873Y-99612492D02*
X149138685Y-99747179D01*
X149138685Y-99747179D02*
X149219498Y-99827991D01*
X149219498Y-99827991D02*
X149354185Y-99908803D01*
X149354185Y-99908803D02*
X149434997Y-99935741D01*
X149434997Y-99935741D02*
X149542746Y-99935741D01*
X149542746Y-99935741D02*
X149650496Y-99881866D01*
X149650496Y-99881866D02*
X149704371Y-99827991D01*
X149704371Y-99827991D02*
X149758246Y-99720241D01*
X149758246Y-99720241D02*
X149758246Y-99666367D01*
X149758246Y-99666367D02*
X149569684Y-99477805D01*
X149569684Y-99477805D02*
X149461934Y-99585554D01*
X150054557Y-99477805D02*
X149488872Y-98912119D01*
X149488872Y-98912119D02*
X150377806Y-99154556D01*
X150377806Y-99154556D02*
X149812120Y-98588871D01*
X150647180Y-98885182D02*
X150081494Y-98319497D01*
X150081494Y-98319497D02*
X150216181Y-98184810D01*
X150216181Y-98184810D02*
X150323931Y-98130935D01*
X150323931Y-98130935D02*
X150431680Y-98130935D01*
X150431680Y-98130935D02*
X150512493Y-98157872D01*
X150512493Y-98157872D02*
X150647180Y-98238685D01*
X150647180Y-98238685D02*
X150727992Y-98319497D01*
X150727992Y-98319497D02*
X150808804Y-98454184D01*
X150808804Y-98454184D02*
X150835741Y-98534996D01*
X150835741Y-98534996D02*
X150835741Y-98642746D01*
X150835741Y-98642746D02*
X150781867Y-98750495D01*
X150781867Y-98750495D02*
X150647180Y-98885182D01*
X123149998Y-104530868D02*
X123069185Y-104557805D01*
X123069185Y-104557805D02*
X122988373Y-104638618D01*
X122988373Y-104638618D02*
X122934498Y-104746367D01*
X122934498Y-104746367D02*
X122934498Y-104854117D01*
X122934498Y-104854117D02*
X122961436Y-104934929D01*
X122961436Y-104934929D02*
X123042248Y-105069616D01*
X123042248Y-105069616D02*
X123123060Y-105150428D01*
X123123060Y-105150428D02*
X123257747Y-105231241D01*
X123257747Y-105231241D02*
X123338560Y-105258178D01*
X123338560Y-105258178D02*
X123446309Y-105258178D01*
X123446309Y-105258178D02*
X123554059Y-105204303D01*
X123554059Y-105204303D02*
X123607934Y-105150428D01*
X123607934Y-105150428D02*
X123661808Y-105042679D01*
X123661808Y-105042679D02*
X123661808Y-104988804D01*
X123661808Y-104988804D02*
X123473247Y-104800242D01*
X123473247Y-104800242D02*
X123365497Y-104907992D01*
X123958120Y-104800242D02*
X123392434Y-104234557D01*
X123392434Y-104234557D02*
X123607934Y-104019057D01*
X123607934Y-104019057D02*
X123688746Y-103992120D01*
X123688746Y-103992120D02*
X123742621Y-103992120D01*
X123742621Y-103992120D02*
X123823433Y-104019057D01*
X123823433Y-104019057D02*
X123904245Y-104099870D01*
X123904245Y-104099870D02*
X123931182Y-104180682D01*
X123931182Y-104180682D02*
X123931182Y-104234557D01*
X123931182Y-104234557D02*
X123904245Y-104315369D01*
X123904245Y-104315369D02*
X123688746Y-104530868D01*
X124820117Y-103938245D02*
X124496868Y-104261494D01*
X124658492Y-104099870D02*
X124092807Y-103534184D01*
X124092807Y-103534184D02*
X124119744Y-103668871D01*
X124119744Y-103668871D02*
X124119744Y-103776621D01*
X124119744Y-103776621D02*
X124092807Y-103857433D01*
X124766242Y-102860749D02*
X124496868Y-103130123D01*
X124496868Y-103130123D02*
X124739305Y-103426434D01*
X124739305Y-103426434D02*
X124739305Y-103372560D01*
X124739305Y-103372560D02*
X124766242Y-103291747D01*
X124766242Y-103291747D02*
X124900929Y-103157060D01*
X124900929Y-103157060D02*
X124981741Y-103130123D01*
X124981741Y-103130123D02*
X125035616Y-103130123D01*
X125035616Y-103130123D02*
X125116428Y-103157060D01*
X125116428Y-103157060D02*
X125251115Y-103291747D01*
X125251115Y-103291747D02*
X125278053Y-103372560D01*
X125278053Y-103372560D02*
X125278053Y-103426434D01*
X125278053Y-103426434D02*
X125251115Y-103507247D01*
X125251115Y-103507247D02*
X125116428Y-103641934D01*
X125116428Y-103641934D02*
X125035616Y-103668871D01*
X125035616Y-103668871D02*
X124981741Y-103668871D01*
X123673372Y-71241494D02*
X123592560Y-71268431D01*
X123592560Y-71268431D02*
X123511748Y-71349243D01*
X123511748Y-71349243D02*
X123457873Y-71456993D01*
X123457873Y-71456993D02*
X123457873Y-71564742D01*
X123457873Y-71564742D02*
X123484810Y-71645555D01*
X123484810Y-71645555D02*
X123565623Y-71780242D01*
X123565623Y-71780242D02*
X123646435Y-71861054D01*
X123646435Y-71861054D02*
X123781122Y-71941866D01*
X123781122Y-71941866D02*
X123861934Y-71968803D01*
X123861934Y-71968803D02*
X123969684Y-71968803D01*
X123969684Y-71968803D02*
X124077433Y-71914929D01*
X124077433Y-71914929D02*
X124131308Y-71861054D01*
X124131308Y-71861054D02*
X124185183Y-71753304D01*
X124185183Y-71753304D02*
X124185183Y-71699429D01*
X124185183Y-71699429D02*
X123996621Y-71510868D01*
X123996621Y-71510868D02*
X123888871Y-71618617D01*
X124481494Y-71510868D02*
X123915809Y-70945182D01*
X123915809Y-70945182D02*
X124131308Y-70729683D01*
X124131308Y-70729683D02*
X124212120Y-70702746D01*
X124212120Y-70702746D02*
X124265995Y-70702746D01*
X124265995Y-70702746D02*
X124346807Y-70729683D01*
X124346807Y-70729683D02*
X124427619Y-70810495D01*
X124427619Y-70810495D02*
X124454557Y-70891307D01*
X124454557Y-70891307D02*
X124454557Y-70945182D01*
X124454557Y-70945182D02*
X124427619Y-71025994D01*
X124427619Y-71025994D02*
X124212120Y-71241494D01*
X124750868Y-70110123D02*
X124481494Y-70379497D01*
X124481494Y-70379497D02*
X124723931Y-70675808D01*
X124723931Y-70675808D02*
X124723931Y-70621933D01*
X124723931Y-70621933D02*
X124750868Y-70541121D01*
X124750868Y-70541121D02*
X124885555Y-70406434D01*
X124885555Y-70406434D02*
X124966367Y-70379497D01*
X124966367Y-70379497D02*
X125020242Y-70379497D01*
X125020242Y-70379497D02*
X125101054Y-70406434D01*
X125101054Y-70406434D02*
X125235741Y-70541121D01*
X125235741Y-70541121D02*
X125262679Y-70621933D01*
X125262679Y-70621933D02*
X125262679Y-70675808D01*
X125262679Y-70675808D02*
X125235741Y-70756620D01*
X125235741Y-70756620D02*
X125101054Y-70891307D01*
X125101054Y-70891307D02*
X125020242Y-70918245D01*
X125020242Y-70918245D02*
X124966367Y-70918245D01*
X123773372Y-78831494D02*
X123692560Y-78858431D01*
X123692560Y-78858431D02*
X123611748Y-78939243D01*
X123611748Y-78939243D02*
X123557873Y-79046993D01*
X123557873Y-79046993D02*
X123557873Y-79154742D01*
X123557873Y-79154742D02*
X123584810Y-79235555D01*
X123584810Y-79235555D02*
X123665623Y-79370242D01*
X123665623Y-79370242D02*
X123746435Y-79451054D01*
X123746435Y-79451054D02*
X123881122Y-79531866D01*
X123881122Y-79531866D02*
X123961934Y-79558803D01*
X123961934Y-79558803D02*
X124069684Y-79558803D01*
X124069684Y-79558803D02*
X124177433Y-79504929D01*
X124177433Y-79504929D02*
X124231308Y-79451054D01*
X124231308Y-79451054D02*
X124285183Y-79343304D01*
X124285183Y-79343304D02*
X124285183Y-79289429D01*
X124285183Y-79289429D02*
X124096621Y-79100868D01*
X124096621Y-79100868D02*
X123988871Y-79208617D01*
X124581494Y-79100868D02*
X124015809Y-78535182D01*
X124015809Y-78535182D02*
X124231308Y-78319683D01*
X124231308Y-78319683D02*
X124312120Y-78292746D01*
X124312120Y-78292746D02*
X124365995Y-78292746D01*
X124365995Y-78292746D02*
X124446807Y-78319683D01*
X124446807Y-78319683D02*
X124527619Y-78400495D01*
X124527619Y-78400495D02*
X124554557Y-78481307D01*
X124554557Y-78481307D02*
X124554557Y-78535182D01*
X124554557Y-78535182D02*
X124527619Y-78615994D01*
X124527619Y-78615994D02*
X124312120Y-78831494D01*
X124527619Y-78023372D02*
X124904743Y-77646248D01*
X124904743Y-77646248D02*
X125227992Y-78454370D01*
X149257998Y-84210868D02*
X149177185Y-84237805D01*
X149177185Y-84237805D02*
X149096373Y-84318618D01*
X149096373Y-84318618D02*
X149042498Y-84426367D01*
X149042498Y-84426367D02*
X149042498Y-84534117D01*
X149042498Y-84534117D02*
X149069436Y-84614929D01*
X149069436Y-84614929D02*
X149150248Y-84749616D01*
X149150248Y-84749616D02*
X149231060Y-84830428D01*
X149231060Y-84830428D02*
X149365747Y-84911241D01*
X149365747Y-84911241D02*
X149446560Y-84938178D01*
X149446560Y-84938178D02*
X149554309Y-84938178D01*
X149554309Y-84938178D02*
X149662059Y-84884303D01*
X149662059Y-84884303D02*
X149715934Y-84830428D01*
X149715934Y-84830428D02*
X149769808Y-84722679D01*
X149769808Y-84722679D02*
X149769808Y-84668804D01*
X149769808Y-84668804D02*
X149581247Y-84480242D01*
X149581247Y-84480242D02*
X149473497Y-84587992D01*
X150066120Y-84480242D02*
X149500434Y-83914557D01*
X149500434Y-83914557D02*
X149715934Y-83699057D01*
X149715934Y-83699057D02*
X149796746Y-83672120D01*
X149796746Y-83672120D02*
X149850621Y-83672120D01*
X149850621Y-83672120D02*
X149931433Y-83699057D01*
X149931433Y-83699057D02*
X150012245Y-83779870D01*
X150012245Y-83779870D02*
X150039182Y-83860682D01*
X150039182Y-83860682D02*
X150039182Y-83914557D01*
X150039182Y-83914557D02*
X150012245Y-83995369D01*
X150012245Y-83995369D02*
X149796746Y-84210868D01*
X150093057Y-83429683D02*
X150093057Y-83375809D01*
X150093057Y-83375809D02*
X150119995Y-83294996D01*
X150119995Y-83294996D02*
X150254682Y-83160309D01*
X150254682Y-83160309D02*
X150335494Y-83133372D01*
X150335494Y-83133372D02*
X150389369Y-83133372D01*
X150389369Y-83133372D02*
X150470181Y-83160309D01*
X150470181Y-83160309D02*
X150524056Y-83214184D01*
X150524056Y-83214184D02*
X150577930Y-83321934D01*
X150577930Y-83321934D02*
X150577930Y-83968431D01*
X150577930Y-83968431D02*
X150928117Y-83618245D01*
X150631805Y-82890935D02*
X150631805Y-82837060D01*
X150631805Y-82837060D02*
X150658743Y-82756248D01*
X150658743Y-82756248D02*
X150793430Y-82621561D01*
X150793430Y-82621561D02*
X150874242Y-82594624D01*
X150874242Y-82594624D02*
X150928117Y-82594624D01*
X150928117Y-82594624D02*
X151008929Y-82621561D01*
X151008929Y-82621561D02*
X151062804Y-82675436D01*
X151062804Y-82675436D02*
X151116679Y-82783186D01*
X151116679Y-82783186D02*
X151116679Y-83429683D01*
X151116679Y-83429683D02*
X151466865Y-83079497D01*
X123646435Y-73808431D02*
X123565623Y-73835368D01*
X123565623Y-73835368D02*
X123484811Y-73916180D01*
X123484811Y-73916180D02*
X123430936Y-74023930D01*
X123430936Y-74023930D02*
X123430936Y-74131680D01*
X123430936Y-74131680D02*
X123457873Y-74212492D01*
X123457873Y-74212492D02*
X123538685Y-74347179D01*
X123538685Y-74347179D02*
X123619498Y-74427991D01*
X123619498Y-74427991D02*
X123754185Y-74508803D01*
X123754185Y-74508803D02*
X123834997Y-74535741D01*
X123834997Y-74535741D02*
X123942746Y-74535741D01*
X123942746Y-74535741D02*
X124050496Y-74481866D01*
X124050496Y-74481866D02*
X124104371Y-74427991D01*
X124104371Y-74427991D02*
X124158246Y-74320241D01*
X124158246Y-74320241D02*
X124158246Y-74266367D01*
X124158246Y-74266367D02*
X123969684Y-74077805D01*
X123969684Y-74077805D02*
X123861934Y-74185554D01*
X124454557Y-74077805D02*
X123888872Y-73512119D01*
X123888872Y-73512119D02*
X124777806Y-73754556D01*
X124777806Y-73754556D02*
X124212120Y-73188871D01*
X125047180Y-73485182D02*
X124481494Y-72919497D01*
X124481494Y-72919497D02*
X124616181Y-72784810D01*
X124616181Y-72784810D02*
X124723931Y-72730935D01*
X124723931Y-72730935D02*
X124831680Y-72730935D01*
X124831680Y-72730935D02*
X124912493Y-72757872D01*
X124912493Y-72757872D02*
X125047180Y-72838685D01*
X125047180Y-72838685D02*
X125127992Y-72919497D01*
X125127992Y-72919497D02*
X125208804Y-73054184D01*
X125208804Y-73054184D02*
X125235741Y-73134996D01*
X125235741Y-73134996D02*
X125235741Y-73242746D01*
X125235741Y-73242746D02*
X125181867Y-73350495D01*
X125181867Y-73350495D02*
X125047180Y-73485182D01*
X123003998Y-94370868D02*
X122923185Y-94397805D01*
X122923185Y-94397805D02*
X122842373Y-94478618D01*
X122842373Y-94478618D02*
X122788498Y-94586367D01*
X122788498Y-94586367D02*
X122788498Y-94694117D01*
X122788498Y-94694117D02*
X122815436Y-94774929D01*
X122815436Y-94774929D02*
X122896248Y-94909616D01*
X122896248Y-94909616D02*
X122977060Y-94990428D01*
X122977060Y-94990428D02*
X123111747Y-95071241D01*
X123111747Y-95071241D02*
X123192560Y-95098178D01*
X123192560Y-95098178D02*
X123300309Y-95098178D01*
X123300309Y-95098178D02*
X123408059Y-95044303D01*
X123408059Y-95044303D02*
X123461934Y-94990428D01*
X123461934Y-94990428D02*
X123515808Y-94882679D01*
X123515808Y-94882679D02*
X123515808Y-94828804D01*
X123515808Y-94828804D02*
X123327247Y-94640242D01*
X123327247Y-94640242D02*
X123219497Y-94747992D01*
X123812120Y-94640242D02*
X123246434Y-94074557D01*
X123246434Y-94074557D02*
X123461934Y-93859057D01*
X123461934Y-93859057D02*
X123542746Y-93832120D01*
X123542746Y-93832120D02*
X123596621Y-93832120D01*
X123596621Y-93832120D02*
X123677433Y-93859057D01*
X123677433Y-93859057D02*
X123758245Y-93939870D01*
X123758245Y-93939870D02*
X123785182Y-94020682D01*
X123785182Y-94020682D02*
X123785182Y-94074557D01*
X123785182Y-94074557D02*
X123758245Y-94155369D01*
X123758245Y-94155369D02*
X123542746Y-94370868D01*
X124674117Y-93778245D02*
X124350868Y-94101494D01*
X124512492Y-93939870D02*
X123946807Y-93374184D01*
X123946807Y-93374184D02*
X123973744Y-93508871D01*
X123973744Y-93508871D02*
X123973744Y-93616621D01*
X123973744Y-93616621D02*
X123946807Y-93697433D01*
X124377805Y-93050935D02*
X124377805Y-92997060D01*
X124377805Y-92997060D02*
X124404743Y-92916248D01*
X124404743Y-92916248D02*
X124539430Y-92781561D01*
X124539430Y-92781561D02*
X124620242Y-92754624D01*
X124620242Y-92754624D02*
X124674117Y-92754624D01*
X124674117Y-92754624D02*
X124754929Y-92781561D01*
X124754929Y-92781561D02*
X124808804Y-92835436D01*
X124808804Y-92835436D02*
X124862679Y-92943186D01*
X124862679Y-92943186D02*
X124862679Y-93589683D01*
X124862679Y-93589683D02*
X125212865Y-93239497D01*
X123573372Y-58531494D02*
X123492560Y-58558431D01*
X123492560Y-58558431D02*
X123411748Y-58639243D01*
X123411748Y-58639243D02*
X123357873Y-58746993D01*
X123357873Y-58746993D02*
X123357873Y-58854742D01*
X123357873Y-58854742D02*
X123384810Y-58935555D01*
X123384810Y-58935555D02*
X123465623Y-59070242D01*
X123465623Y-59070242D02*
X123546435Y-59151054D01*
X123546435Y-59151054D02*
X123681122Y-59231866D01*
X123681122Y-59231866D02*
X123761934Y-59258803D01*
X123761934Y-59258803D02*
X123869684Y-59258803D01*
X123869684Y-59258803D02*
X123977433Y-59204929D01*
X123977433Y-59204929D02*
X124031308Y-59151054D01*
X124031308Y-59151054D02*
X124085183Y-59043304D01*
X124085183Y-59043304D02*
X124085183Y-58989429D01*
X124085183Y-58989429D02*
X123896621Y-58800868D01*
X123896621Y-58800868D02*
X123788871Y-58908617D01*
X124381494Y-58800868D02*
X123815809Y-58235182D01*
X123815809Y-58235182D02*
X124031308Y-58019683D01*
X124031308Y-58019683D02*
X124112120Y-57992746D01*
X124112120Y-57992746D02*
X124165995Y-57992746D01*
X124165995Y-57992746D02*
X124246807Y-58019683D01*
X124246807Y-58019683D02*
X124327619Y-58100495D01*
X124327619Y-58100495D02*
X124354557Y-58181307D01*
X124354557Y-58181307D02*
X124354557Y-58235182D01*
X124354557Y-58235182D02*
X124327619Y-58315994D01*
X124327619Y-58315994D02*
X124112120Y-58531494D01*
X125243491Y-57938871D02*
X124920242Y-58262120D01*
X125081867Y-58100495D02*
X124516181Y-57534810D01*
X124516181Y-57534810D02*
X124543119Y-57669497D01*
X124543119Y-57669497D02*
X124543119Y-57777246D01*
X124543119Y-57777246D02*
X124516181Y-57858059D01*
X123149998Y-96910868D02*
X123069185Y-96937805D01*
X123069185Y-96937805D02*
X122988373Y-97018618D01*
X122988373Y-97018618D02*
X122934498Y-97126367D01*
X122934498Y-97126367D02*
X122934498Y-97234117D01*
X122934498Y-97234117D02*
X122961436Y-97314929D01*
X122961436Y-97314929D02*
X123042248Y-97449616D01*
X123042248Y-97449616D02*
X123123060Y-97530428D01*
X123123060Y-97530428D02*
X123257747Y-97611241D01*
X123257747Y-97611241D02*
X123338560Y-97638178D01*
X123338560Y-97638178D02*
X123446309Y-97638178D01*
X123446309Y-97638178D02*
X123554059Y-97584303D01*
X123554059Y-97584303D02*
X123607934Y-97530428D01*
X123607934Y-97530428D02*
X123661808Y-97422679D01*
X123661808Y-97422679D02*
X123661808Y-97368804D01*
X123661808Y-97368804D02*
X123473247Y-97180242D01*
X123473247Y-97180242D02*
X123365497Y-97287992D01*
X123958120Y-97180242D02*
X123392434Y-96614557D01*
X123392434Y-96614557D02*
X123607934Y-96399057D01*
X123607934Y-96399057D02*
X123688746Y-96372120D01*
X123688746Y-96372120D02*
X123742621Y-96372120D01*
X123742621Y-96372120D02*
X123823433Y-96399057D01*
X123823433Y-96399057D02*
X123904245Y-96479870D01*
X123904245Y-96479870D02*
X123931182Y-96560682D01*
X123931182Y-96560682D02*
X123931182Y-96614557D01*
X123931182Y-96614557D02*
X123904245Y-96695369D01*
X123904245Y-96695369D02*
X123688746Y-96910868D01*
X124820117Y-96318245D02*
X124496868Y-96641494D01*
X124658492Y-96479870D02*
X124092807Y-95914184D01*
X124092807Y-95914184D02*
X124119744Y-96048871D01*
X124119744Y-96048871D02*
X124119744Y-96156621D01*
X124119744Y-96156621D02*
X124092807Y-96237433D01*
X124442993Y-95563998D02*
X124793179Y-95213812D01*
X124793179Y-95213812D02*
X124820117Y-95617873D01*
X124820117Y-95617873D02*
X124900929Y-95537060D01*
X124900929Y-95537060D02*
X124981741Y-95510123D01*
X124981741Y-95510123D02*
X125035616Y-95510123D01*
X125035616Y-95510123D02*
X125116428Y-95537060D01*
X125116428Y-95537060D02*
X125251115Y-95671747D01*
X125251115Y-95671747D02*
X125278053Y-95752560D01*
X125278053Y-95752560D02*
X125278053Y-95806434D01*
X125278053Y-95806434D02*
X125251115Y-95887247D01*
X125251115Y-95887247D02*
X125089491Y-96048871D01*
X125089491Y-96048871D02*
X125008679Y-96075808D01*
X125008679Y-96075808D02*
X124954804Y-96075808D01*
X123646435Y-61108431D02*
X123565623Y-61135368D01*
X123565623Y-61135368D02*
X123484811Y-61216180D01*
X123484811Y-61216180D02*
X123430936Y-61323930D01*
X123430936Y-61323930D02*
X123430936Y-61431680D01*
X123430936Y-61431680D02*
X123457873Y-61512492D01*
X123457873Y-61512492D02*
X123538685Y-61647179D01*
X123538685Y-61647179D02*
X123619498Y-61727991D01*
X123619498Y-61727991D02*
X123754185Y-61808803D01*
X123754185Y-61808803D02*
X123834997Y-61835741D01*
X123834997Y-61835741D02*
X123942746Y-61835741D01*
X123942746Y-61835741D02*
X124050496Y-61781866D01*
X124050496Y-61781866D02*
X124104371Y-61727991D01*
X124104371Y-61727991D02*
X124158246Y-61620241D01*
X124158246Y-61620241D02*
X124158246Y-61566367D01*
X124158246Y-61566367D02*
X123969684Y-61377805D01*
X123969684Y-61377805D02*
X123861934Y-61485554D01*
X124454557Y-61377805D02*
X123888872Y-60812119D01*
X123888872Y-60812119D02*
X124777806Y-61054556D01*
X124777806Y-61054556D02*
X124212120Y-60488871D01*
X125047180Y-60785182D02*
X124481494Y-60219497D01*
X124481494Y-60219497D02*
X124616181Y-60084810D01*
X124616181Y-60084810D02*
X124723931Y-60030935D01*
X124723931Y-60030935D02*
X124831680Y-60030935D01*
X124831680Y-60030935D02*
X124912493Y-60057872D01*
X124912493Y-60057872D02*
X125047180Y-60138685D01*
X125047180Y-60138685D02*
X125127992Y-60219497D01*
X125127992Y-60219497D02*
X125208804Y-60354184D01*
X125208804Y-60354184D02*
X125235741Y-60434996D01*
X125235741Y-60434996D02*
X125235741Y-60542746D01*
X125235741Y-60542746D02*
X125181867Y-60650495D01*
X125181867Y-60650495D02*
X125047180Y-60785182D01*
X123003998Y-91830868D02*
X122923185Y-91857805D01*
X122923185Y-91857805D02*
X122842373Y-91938618D01*
X122842373Y-91938618D02*
X122788498Y-92046367D01*
X122788498Y-92046367D02*
X122788498Y-92154117D01*
X122788498Y-92154117D02*
X122815436Y-92234929D01*
X122815436Y-92234929D02*
X122896248Y-92369616D01*
X122896248Y-92369616D02*
X122977060Y-92450428D01*
X122977060Y-92450428D02*
X123111747Y-92531241D01*
X123111747Y-92531241D02*
X123192560Y-92558178D01*
X123192560Y-92558178D02*
X123300309Y-92558178D01*
X123300309Y-92558178D02*
X123408059Y-92504303D01*
X123408059Y-92504303D02*
X123461934Y-92450428D01*
X123461934Y-92450428D02*
X123515808Y-92342679D01*
X123515808Y-92342679D02*
X123515808Y-92288804D01*
X123515808Y-92288804D02*
X123327247Y-92100242D01*
X123327247Y-92100242D02*
X123219497Y-92207992D01*
X123812120Y-92100242D02*
X123246434Y-91534557D01*
X123246434Y-91534557D02*
X123461934Y-91319057D01*
X123461934Y-91319057D02*
X123542746Y-91292120D01*
X123542746Y-91292120D02*
X123596621Y-91292120D01*
X123596621Y-91292120D02*
X123677433Y-91319057D01*
X123677433Y-91319057D02*
X123758245Y-91399870D01*
X123758245Y-91399870D02*
X123785182Y-91480682D01*
X123785182Y-91480682D02*
X123785182Y-91534557D01*
X123785182Y-91534557D02*
X123758245Y-91615369D01*
X123758245Y-91615369D02*
X123542746Y-91830868D01*
X124674117Y-91238245D02*
X124350868Y-91561494D01*
X124512492Y-91399870D02*
X123946807Y-90834184D01*
X123946807Y-90834184D02*
X123973744Y-90968871D01*
X123973744Y-90968871D02*
X123973744Y-91076621D01*
X123973744Y-91076621D02*
X123946807Y-91157433D01*
X125212865Y-90699497D02*
X124889616Y-91022746D01*
X125051240Y-90861121D02*
X124485555Y-90295436D01*
X124485555Y-90295436D02*
X124512492Y-90430123D01*
X124512492Y-90430123D02*
X124512492Y-90537873D01*
X124512492Y-90537873D02*
X124485555Y-90618685D01*
X149257998Y-104530868D02*
X149177185Y-104557805D01*
X149177185Y-104557805D02*
X149096373Y-104638618D01*
X149096373Y-104638618D02*
X149042498Y-104746367D01*
X149042498Y-104746367D02*
X149042498Y-104854117D01*
X149042498Y-104854117D02*
X149069436Y-104934929D01*
X149069436Y-104934929D02*
X149150248Y-105069616D01*
X149150248Y-105069616D02*
X149231060Y-105150428D01*
X149231060Y-105150428D02*
X149365747Y-105231241D01*
X149365747Y-105231241D02*
X149446560Y-105258178D01*
X149446560Y-105258178D02*
X149554309Y-105258178D01*
X149554309Y-105258178D02*
X149662059Y-105204303D01*
X149662059Y-105204303D02*
X149715934Y-105150428D01*
X149715934Y-105150428D02*
X149769808Y-105042679D01*
X149769808Y-105042679D02*
X149769808Y-104988804D01*
X149769808Y-104988804D02*
X149581247Y-104800242D01*
X149581247Y-104800242D02*
X149473497Y-104907992D01*
X150066120Y-104800242D02*
X149500434Y-104234557D01*
X149500434Y-104234557D02*
X149715934Y-104019057D01*
X149715934Y-104019057D02*
X149796746Y-103992120D01*
X149796746Y-103992120D02*
X149850621Y-103992120D01*
X149850621Y-103992120D02*
X149931433Y-104019057D01*
X149931433Y-104019057D02*
X150012245Y-104099870D01*
X150012245Y-104099870D02*
X150039182Y-104180682D01*
X150039182Y-104180682D02*
X150039182Y-104234557D01*
X150039182Y-104234557D02*
X150012245Y-104315369D01*
X150012245Y-104315369D02*
X149796746Y-104530868D01*
X150928117Y-103938245D02*
X150604868Y-104261494D01*
X150766492Y-104099870D02*
X150200807Y-103534184D01*
X150200807Y-103534184D02*
X150227744Y-103668871D01*
X150227744Y-103668871D02*
X150227744Y-103776621D01*
X150227744Y-103776621D02*
X150200807Y-103857433D01*
X150847305Y-102887686D02*
X150739555Y-102995436D01*
X150739555Y-102995436D02*
X150712618Y-103076248D01*
X150712618Y-103076248D02*
X150712618Y-103130123D01*
X150712618Y-103130123D02*
X150739555Y-103264810D01*
X150739555Y-103264810D02*
X150820367Y-103399497D01*
X150820367Y-103399497D02*
X151035866Y-103614996D01*
X151035866Y-103614996D02*
X151116679Y-103641934D01*
X151116679Y-103641934D02*
X151170553Y-103641934D01*
X151170553Y-103641934D02*
X151251366Y-103614996D01*
X151251366Y-103614996D02*
X151359115Y-103507247D01*
X151359115Y-103507247D02*
X151386053Y-103426434D01*
X151386053Y-103426434D02*
X151386053Y-103372560D01*
X151386053Y-103372560D02*
X151359115Y-103291747D01*
X151359115Y-103291747D02*
X151224428Y-103157060D01*
X151224428Y-103157060D02*
X151143616Y-103130123D01*
X151143616Y-103130123D02*
X151089741Y-103130123D01*
X151089741Y-103130123D02*
X151008929Y-103157060D01*
X151008929Y-103157060D02*
X150901179Y-103264810D01*
X150901179Y-103264810D02*
X150874242Y-103345622D01*
X150874242Y-103345622D02*
X150874242Y-103399497D01*
X150874242Y-103399497D02*
X150901179Y-103480309D01*
X123149998Y-89290868D02*
X123069185Y-89317805D01*
X123069185Y-89317805D02*
X122988373Y-89398618D01*
X122988373Y-89398618D02*
X122934498Y-89506367D01*
X122934498Y-89506367D02*
X122934498Y-89614117D01*
X122934498Y-89614117D02*
X122961436Y-89694929D01*
X122961436Y-89694929D02*
X123042248Y-89829616D01*
X123042248Y-89829616D02*
X123123060Y-89910428D01*
X123123060Y-89910428D02*
X123257747Y-89991241D01*
X123257747Y-89991241D02*
X123338560Y-90018178D01*
X123338560Y-90018178D02*
X123446309Y-90018178D01*
X123446309Y-90018178D02*
X123554059Y-89964303D01*
X123554059Y-89964303D02*
X123607934Y-89910428D01*
X123607934Y-89910428D02*
X123661808Y-89802679D01*
X123661808Y-89802679D02*
X123661808Y-89748804D01*
X123661808Y-89748804D02*
X123473247Y-89560242D01*
X123473247Y-89560242D02*
X123365497Y-89667992D01*
X123958120Y-89560242D02*
X123392434Y-88994557D01*
X123392434Y-88994557D02*
X123607934Y-88779057D01*
X123607934Y-88779057D02*
X123688746Y-88752120D01*
X123688746Y-88752120D02*
X123742621Y-88752120D01*
X123742621Y-88752120D02*
X123823433Y-88779057D01*
X123823433Y-88779057D02*
X123904245Y-88859870D01*
X123904245Y-88859870D02*
X123931182Y-88940682D01*
X123931182Y-88940682D02*
X123931182Y-88994557D01*
X123931182Y-88994557D02*
X123904245Y-89075369D01*
X123904245Y-89075369D02*
X123688746Y-89290868D01*
X124820117Y-88698245D02*
X124496868Y-89021494D01*
X124658492Y-88859870D02*
X124092807Y-88294184D01*
X124092807Y-88294184D02*
X124119744Y-88428871D01*
X124119744Y-88428871D02*
X124119744Y-88536621D01*
X124119744Y-88536621D02*
X124092807Y-88617433D01*
X124604618Y-87782373D02*
X124658492Y-87728499D01*
X124658492Y-87728499D02*
X124739305Y-87701561D01*
X124739305Y-87701561D02*
X124793179Y-87701561D01*
X124793179Y-87701561D02*
X124873992Y-87728499D01*
X124873992Y-87728499D02*
X125008679Y-87809311D01*
X125008679Y-87809311D02*
X125143366Y-87943998D01*
X125143366Y-87943998D02*
X125224178Y-88078685D01*
X125224178Y-88078685D02*
X125251115Y-88159497D01*
X125251115Y-88159497D02*
X125251115Y-88213372D01*
X125251115Y-88213372D02*
X125224178Y-88294184D01*
X125224178Y-88294184D02*
X125170303Y-88348059D01*
X125170303Y-88348059D02*
X125089491Y-88374996D01*
X125089491Y-88374996D02*
X125035616Y-88374996D01*
X125035616Y-88374996D02*
X124954804Y-88348059D01*
X124954804Y-88348059D02*
X124820117Y-88267247D01*
X124820117Y-88267247D02*
X124685430Y-88132560D01*
X124685430Y-88132560D02*
X124604618Y-87997873D01*
X124604618Y-87997873D02*
X124577680Y-87917060D01*
X124577680Y-87917060D02*
X124577680Y-87863186D01*
X124577680Y-87863186D02*
X124604618Y-87782373D01*
X149998651Y-81953710D02*
X149540716Y-81872898D01*
X149675403Y-82276959D02*
X149109717Y-81711274D01*
X149109717Y-81711274D02*
X149325216Y-81495775D01*
X149325216Y-81495775D02*
X149406029Y-81468837D01*
X149406029Y-81468837D02*
X149459903Y-81468837D01*
X149459903Y-81468837D02*
X149540716Y-81495775D01*
X149540716Y-81495775D02*
X149621528Y-81576587D01*
X149621528Y-81576587D02*
X149648465Y-81657399D01*
X149648465Y-81657399D02*
X149648465Y-81711274D01*
X149648465Y-81711274D02*
X149621528Y-81792086D01*
X149621528Y-81792086D02*
X149406029Y-82007585D01*
X149675403Y-81145588D02*
X150133338Y-81603524D01*
X150133338Y-81603524D02*
X150214151Y-81630462D01*
X150214151Y-81630462D02*
X150268025Y-81630462D01*
X150268025Y-81630462D02*
X150348838Y-81603524D01*
X150348838Y-81603524D02*
X150456587Y-81495775D01*
X150456587Y-81495775D02*
X150483525Y-81414962D01*
X150483525Y-81414962D02*
X150483525Y-81361088D01*
X150483525Y-81361088D02*
X150456587Y-81280275D01*
X150456587Y-81280275D02*
X149998651Y-80822340D01*
X150833711Y-81118651D02*
X150268025Y-80552966D01*
X150268025Y-80552966D02*
X151156959Y-80795402D01*
X151156959Y-80795402D02*
X150591274Y-80229717D01*
X123673372Y-83941494D02*
X123592560Y-83968431D01*
X123592560Y-83968431D02*
X123511748Y-84049243D01*
X123511748Y-84049243D02*
X123457873Y-84156993D01*
X123457873Y-84156993D02*
X123457873Y-84264742D01*
X123457873Y-84264742D02*
X123484810Y-84345555D01*
X123484810Y-84345555D02*
X123565623Y-84480242D01*
X123565623Y-84480242D02*
X123646435Y-84561054D01*
X123646435Y-84561054D02*
X123781122Y-84641866D01*
X123781122Y-84641866D02*
X123861934Y-84668803D01*
X123861934Y-84668803D02*
X123969684Y-84668803D01*
X123969684Y-84668803D02*
X124077433Y-84614929D01*
X124077433Y-84614929D02*
X124131308Y-84561054D01*
X124131308Y-84561054D02*
X124185183Y-84453304D01*
X124185183Y-84453304D02*
X124185183Y-84399429D01*
X124185183Y-84399429D02*
X123996621Y-84210868D01*
X123996621Y-84210868D02*
X123888871Y-84318617D01*
X124481494Y-84210868D02*
X123915809Y-83645182D01*
X123915809Y-83645182D02*
X124131308Y-83429683D01*
X124131308Y-83429683D02*
X124212120Y-83402746D01*
X124212120Y-83402746D02*
X124265995Y-83402746D01*
X124265995Y-83402746D02*
X124346807Y-83429683D01*
X124346807Y-83429683D02*
X124427619Y-83510495D01*
X124427619Y-83510495D02*
X124454557Y-83591307D01*
X124454557Y-83591307D02*
X124454557Y-83645182D01*
X124454557Y-83645182D02*
X124427619Y-83725994D01*
X124427619Y-83725994D02*
X124212120Y-83941494D01*
X125074117Y-83618245D02*
X125181867Y-83510495D01*
X125181867Y-83510495D02*
X125208804Y-83429683D01*
X125208804Y-83429683D02*
X125208804Y-83375808D01*
X125208804Y-83375808D02*
X125181867Y-83241121D01*
X125181867Y-83241121D02*
X125101054Y-83106434D01*
X125101054Y-83106434D02*
X124885555Y-82890935D01*
X124885555Y-82890935D02*
X124804743Y-82863998D01*
X124804743Y-82863998D02*
X124750868Y-82863998D01*
X124750868Y-82863998D02*
X124670056Y-82890935D01*
X124670056Y-82890935D02*
X124562306Y-82998685D01*
X124562306Y-82998685D02*
X124535369Y-83079497D01*
X124535369Y-83079497D02*
X124535369Y-83133372D01*
X124535369Y-83133372D02*
X124562306Y-83214184D01*
X124562306Y-83214184D02*
X124696993Y-83348871D01*
X124696993Y-83348871D02*
X124777806Y-83375808D01*
X124777806Y-83375808D02*
X124831680Y-83375808D01*
X124831680Y-83375808D02*
X124912493Y-83348871D01*
X124912493Y-83348871D02*
X125020242Y-83241121D01*
X125020242Y-83241121D02*
X125047180Y-83160309D01*
X125047180Y-83160309D02*
X125047180Y-83106434D01*
X125047180Y-83106434D02*
X125020242Y-83025622D01*
X149257998Y-71256868D02*
X149177185Y-71283805D01*
X149177185Y-71283805D02*
X149096373Y-71364618D01*
X149096373Y-71364618D02*
X149042498Y-71472367D01*
X149042498Y-71472367D02*
X149042498Y-71580117D01*
X149042498Y-71580117D02*
X149069436Y-71660929D01*
X149069436Y-71660929D02*
X149150248Y-71795616D01*
X149150248Y-71795616D02*
X149231060Y-71876428D01*
X149231060Y-71876428D02*
X149365747Y-71957241D01*
X149365747Y-71957241D02*
X149446560Y-71984178D01*
X149446560Y-71984178D02*
X149554309Y-71984178D01*
X149554309Y-71984178D02*
X149662059Y-71930303D01*
X149662059Y-71930303D02*
X149715934Y-71876428D01*
X149715934Y-71876428D02*
X149769808Y-71768679D01*
X149769808Y-71768679D02*
X149769808Y-71714804D01*
X149769808Y-71714804D02*
X149581247Y-71526242D01*
X149581247Y-71526242D02*
X149473497Y-71633992D01*
X150066120Y-71526242D02*
X149500434Y-70960557D01*
X149500434Y-70960557D02*
X149715934Y-70745057D01*
X149715934Y-70745057D02*
X149796746Y-70718120D01*
X149796746Y-70718120D02*
X149850621Y-70718120D01*
X149850621Y-70718120D02*
X149931433Y-70745057D01*
X149931433Y-70745057D02*
X150012245Y-70825870D01*
X150012245Y-70825870D02*
X150039182Y-70906682D01*
X150039182Y-70906682D02*
X150039182Y-70960557D01*
X150039182Y-70960557D02*
X150012245Y-71041369D01*
X150012245Y-71041369D02*
X149796746Y-71256868D01*
X150093057Y-70475683D02*
X150093057Y-70421809D01*
X150093057Y-70421809D02*
X150119995Y-70340996D01*
X150119995Y-70340996D02*
X150254682Y-70206309D01*
X150254682Y-70206309D02*
X150335494Y-70179372D01*
X150335494Y-70179372D02*
X150389369Y-70179372D01*
X150389369Y-70179372D02*
X150470181Y-70206309D01*
X150470181Y-70206309D02*
X150524056Y-70260184D01*
X150524056Y-70260184D02*
X150577930Y-70367934D01*
X150577930Y-70367934D02*
X150577930Y-71014431D01*
X150577930Y-71014431D02*
X150928117Y-70664245D01*
X150928117Y-70017747D02*
X150847305Y-70044685D01*
X150847305Y-70044685D02*
X150793430Y-70044685D01*
X150793430Y-70044685D02*
X150712618Y-70017747D01*
X150712618Y-70017747D02*
X150685680Y-69990810D01*
X150685680Y-69990810D02*
X150658743Y-69909998D01*
X150658743Y-69909998D02*
X150658743Y-69856123D01*
X150658743Y-69856123D02*
X150685680Y-69775311D01*
X150685680Y-69775311D02*
X150793430Y-69667561D01*
X150793430Y-69667561D02*
X150874242Y-69640624D01*
X150874242Y-69640624D02*
X150928117Y-69640624D01*
X150928117Y-69640624D02*
X151008929Y-69667561D01*
X151008929Y-69667561D02*
X151035866Y-69694499D01*
X151035866Y-69694499D02*
X151062804Y-69775311D01*
X151062804Y-69775311D02*
X151062804Y-69829186D01*
X151062804Y-69829186D02*
X151035866Y-69909998D01*
X151035866Y-69909998D02*
X150928117Y-70017747D01*
X150928117Y-70017747D02*
X150901179Y-70098560D01*
X150901179Y-70098560D02*
X150901179Y-70152434D01*
X150901179Y-70152434D02*
X150928117Y-70233247D01*
X150928117Y-70233247D02*
X151035866Y-70340996D01*
X151035866Y-70340996D02*
X151116679Y-70367934D01*
X151116679Y-70367934D02*
X151170553Y-70367934D01*
X151170553Y-70367934D02*
X151251366Y-70340996D01*
X151251366Y-70340996D02*
X151359115Y-70233247D01*
X151359115Y-70233247D02*
X151386053Y-70152434D01*
X151386053Y-70152434D02*
X151386053Y-70098560D01*
X151386053Y-70098560D02*
X151359115Y-70017747D01*
X151359115Y-70017747D02*
X151251366Y-69909998D01*
X151251366Y-69909998D02*
X151170553Y-69883060D01*
X151170553Y-69883060D02*
X151116679Y-69883060D01*
X151116679Y-69883060D02*
X151035866Y-69909998D01*
X123673372Y-81401494D02*
X123592560Y-81428431D01*
X123592560Y-81428431D02*
X123511748Y-81509243D01*
X123511748Y-81509243D02*
X123457873Y-81616993D01*
X123457873Y-81616993D02*
X123457873Y-81724742D01*
X123457873Y-81724742D02*
X123484810Y-81805555D01*
X123484810Y-81805555D02*
X123565623Y-81940242D01*
X123565623Y-81940242D02*
X123646435Y-82021054D01*
X123646435Y-82021054D02*
X123781122Y-82101866D01*
X123781122Y-82101866D02*
X123861934Y-82128803D01*
X123861934Y-82128803D02*
X123969684Y-82128803D01*
X123969684Y-82128803D02*
X124077433Y-82074929D01*
X124077433Y-82074929D02*
X124131308Y-82021054D01*
X124131308Y-82021054D02*
X124185183Y-81913304D01*
X124185183Y-81913304D02*
X124185183Y-81859429D01*
X124185183Y-81859429D02*
X123996621Y-81670868D01*
X123996621Y-81670868D02*
X123888871Y-81778617D01*
X124481494Y-81670868D02*
X123915809Y-81105182D01*
X123915809Y-81105182D02*
X124131308Y-80889683D01*
X124131308Y-80889683D02*
X124212120Y-80862746D01*
X124212120Y-80862746D02*
X124265995Y-80862746D01*
X124265995Y-80862746D02*
X124346807Y-80889683D01*
X124346807Y-80889683D02*
X124427619Y-80970495D01*
X124427619Y-80970495D02*
X124454557Y-81051307D01*
X124454557Y-81051307D02*
X124454557Y-81105182D01*
X124454557Y-81105182D02*
X124427619Y-81185994D01*
X124427619Y-81185994D02*
X124212120Y-81401494D01*
X124804743Y-80701121D02*
X124723931Y-80728059D01*
X124723931Y-80728059D02*
X124670056Y-80728059D01*
X124670056Y-80728059D02*
X124589244Y-80701121D01*
X124589244Y-80701121D02*
X124562306Y-80674184D01*
X124562306Y-80674184D02*
X124535369Y-80593372D01*
X124535369Y-80593372D02*
X124535369Y-80539497D01*
X124535369Y-80539497D02*
X124562306Y-80458685D01*
X124562306Y-80458685D02*
X124670056Y-80350935D01*
X124670056Y-80350935D02*
X124750868Y-80323998D01*
X124750868Y-80323998D02*
X124804743Y-80323998D01*
X124804743Y-80323998D02*
X124885555Y-80350935D01*
X124885555Y-80350935D02*
X124912493Y-80377872D01*
X124912493Y-80377872D02*
X124939430Y-80458685D01*
X124939430Y-80458685D02*
X124939430Y-80512559D01*
X124939430Y-80512559D02*
X124912493Y-80593372D01*
X124912493Y-80593372D02*
X124804743Y-80701121D01*
X124804743Y-80701121D02*
X124777806Y-80781933D01*
X124777806Y-80781933D02*
X124777806Y-80835808D01*
X124777806Y-80835808D02*
X124804743Y-80916620D01*
X124804743Y-80916620D02*
X124912493Y-81024370D01*
X124912493Y-81024370D02*
X124993305Y-81051307D01*
X124993305Y-81051307D02*
X125047180Y-81051307D01*
X125047180Y-81051307D02*
X125127992Y-81024370D01*
X125127992Y-81024370D02*
X125235741Y-80916620D01*
X125235741Y-80916620D02*
X125262679Y-80835808D01*
X125262679Y-80835808D02*
X125262679Y-80781933D01*
X125262679Y-80781933D02*
X125235741Y-80701121D01*
X125235741Y-80701121D02*
X125127992Y-80593372D01*
X125127992Y-80593372D02*
X125047180Y-80566434D01*
X125047180Y-80566434D02*
X124993305Y-80566434D01*
X124993305Y-80566434D02*
X124912493Y-80593372D01*
X149246435Y-86508431D02*
X149165623Y-86535368D01*
X149165623Y-86535368D02*
X149084811Y-86616180D01*
X149084811Y-86616180D02*
X149030936Y-86723930D01*
X149030936Y-86723930D02*
X149030936Y-86831680D01*
X149030936Y-86831680D02*
X149057873Y-86912492D01*
X149057873Y-86912492D02*
X149138685Y-87047179D01*
X149138685Y-87047179D02*
X149219498Y-87127991D01*
X149219498Y-87127991D02*
X149354185Y-87208803D01*
X149354185Y-87208803D02*
X149434997Y-87235741D01*
X149434997Y-87235741D02*
X149542746Y-87235741D01*
X149542746Y-87235741D02*
X149650496Y-87181866D01*
X149650496Y-87181866D02*
X149704371Y-87127991D01*
X149704371Y-87127991D02*
X149758246Y-87020241D01*
X149758246Y-87020241D02*
X149758246Y-86966367D01*
X149758246Y-86966367D02*
X149569684Y-86777805D01*
X149569684Y-86777805D02*
X149461934Y-86885554D01*
X150054557Y-86777805D02*
X149488872Y-86212119D01*
X149488872Y-86212119D02*
X150377806Y-86454556D01*
X150377806Y-86454556D02*
X149812120Y-85888871D01*
X150647180Y-86185182D02*
X150081494Y-85619497D01*
X150081494Y-85619497D02*
X150216181Y-85484810D01*
X150216181Y-85484810D02*
X150323931Y-85430935D01*
X150323931Y-85430935D02*
X150431680Y-85430935D01*
X150431680Y-85430935D02*
X150512493Y-85457872D01*
X150512493Y-85457872D02*
X150647180Y-85538685D01*
X150647180Y-85538685D02*
X150727992Y-85619497D01*
X150727992Y-85619497D02*
X150808804Y-85754184D01*
X150808804Y-85754184D02*
X150835741Y-85834996D01*
X150835741Y-85834996D02*
X150835741Y-85942746D01*
X150835741Y-85942746D02*
X150781867Y-86050495D01*
X150781867Y-86050495D02*
X150647180Y-86185182D01*
X123103998Y-101990868D02*
X123023185Y-102017805D01*
X123023185Y-102017805D02*
X122942373Y-102098618D01*
X122942373Y-102098618D02*
X122888498Y-102206367D01*
X122888498Y-102206367D02*
X122888498Y-102314117D01*
X122888498Y-102314117D02*
X122915436Y-102394929D01*
X122915436Y-102394929D02*
X122996248Y-102529616D01*
X122996248Y-102529616D02*
X123077060Y-102610428D01*
X123077060Y-102610428D02*
X123211747Y-102691241D01*
X123211747Y-102691241D02*
X123292560Y-102718178D01*
X123292560Y-102718178D02*
X123400309Y-102718178D01*
X123400309Y-102718178D02*
X123508059Y-102664303D01*
X123508059Y-102664303D02*
X123561934Y-102610428D01*
X123561934Y-102610428D02*
X123615808Y-102502679D01*
X123615808Y-102502679D02*
X123615808Y-102448804D01*
X123615808Y-102448804D02*
X123427247Y-102260242D01*
X123427247Y-102260242D02*
X123319497Y-102367992D01*
X123912120Y-102260242D02*
X123346434Y-101694557D01*
X123346434Y-101694557D02*
X123561934Y-101479057D01*
X123561934Y-101479057D02*
X123642746Y-101452120D01*
X123642746Y-101452120D02*
X123696621Y-101452120D01*
X123696621Y-101452120D02*
X123777433Y-101479057D01*
X123777433Y-101479057D02*
X123858245Y-101559870D01*
X123858245Y-101559870D02*
X123885182Y-101640682D01*
X123885182Y-101640682D02*
X123885182Y-101694557D01*
X123885182Y-101694557D02*
X123858245Y-101775369D01*
X123858245Y-101775369D02*
X123642746Y-101990868D01*
X124774117Y-101398245D02*
X124450868Y-101721494D01*
X124612492Y-101559870D02*
X124046807Y-100994184D01*
X124046807Y-100994184D02*
X124073744Y-101128871D01*
X124073744Y-101128871D02*
X124073744Y-101236621D01*
X124073744Y-101236621D02*
X124046807Y-101317433D01*
X124881866Y-100536248D02*
X125258990Y-100913372D01*
X124531680Y-100455436D02*
X124801054Y-100994184D01*
X124801054Y-100994184D02*
X125151240Y-100643998D01*
X149050123Y-66500868D02*
X149400309Y-66150682D01*
X149400309Y-66150682D02*
X149427247Y-66554743D01*
X149427247Y-66554743D02*
X149508059Y-66473931D01*
X149508059Y-66473931D02*
X149588871Y-66446993D01*
X149588871Y-66446993D02*
X149642746Y-66446993D01*
X149642746Y-66446993D02*
X149723558Y-66473931D01*
X149723558Y-66473931D02*
X149858245Y-66608618D01*
X149858245Y-66608618D02*
X149885182Y-66689430D01*
X149885182Y-66689430D02*
X149885182Y-66743305D01*
X149885182Y-66743305D02*
X149858245Y-66824117D01*
X149858245Y-66824117D02*
X149696621Y-66985741D01*
X149696621Y-66985741D02*
X149615808Y-67012679D01*
X149615808Y-67012679D02*
X149561934Y-67012679D01*
X149561934Y-65989057D02*
X150316181Y-66366181D01*
X150316181Y-66366181D02*
X149939057Y-65611934D01*
X150073744Y-65477247D02*
X150423930Y-65127061D01*
X150423930Y-65127061D02*
X150450868Y-65531122D01*
X150450868Y-65531122D02*
X150531680Y-65450309D01*
X150531680Y-65450309D02*
X150612492Y-65423372D01*
X150612492Y-65423372D02*
X150666367Y-65423372D01*
X150666367Y-65423372D02*
X150747179Y-65450309D01*
X150747179Y-65450309D02*
X150881866Y-65584996D01*
X150881866Y-65584996D02*
X150908804Y-65665809D01*
X150908804Y-65665809D02*
X150908804Y-65719683D01*
X150908804Y-65719683D02*
X150881866Y-65800496D01*
X150881866Y-65800496D02*
X150720242Y-65962120D01*
X150720242Y-65962120D02*
X150639430Y-65989057D01*
X150639430Y-65989057D02*
X150585555Y-65989057D01*
X149257998Y-94370868D02*
X149177185Y-94397805D01*
X149177185Y-94397805D02*
X149096373Y-94478618D01*
X149096373Y-94478618D02*
X149042498Y-94586367D01*
X149042498Y-94586367D02*
X149042498Y-94694117D01*
X149042498Y-94694117D02*
X149069436Y-94774929D01*
X149069436Y-94774929D02*
X149150248Y-94909616D01*
X149150248Y-94909616D02*
X149231060Y-94990428D01*
X149231060Y-94990428D02*
X149365747Y-95071241D01*
X149365747Y-95071241D02*
X149446560Y-95098178D01*
X149446560Y-95098178D02*
X149554309Y-95098178D01*
X149554309Y-95098178D02*
X149662059Y-95044303D01*
X149662059Y-95044303D02*
X149715934Y-94990428D01*
X149715934Y-94990428D02*
X149769808Y-94882679D01*
X149769808Y-94882679D02*
X149769808Y-94828804D01*
X149769808Y-94828804D02*
X149581247Y-94640242D01*
X149581247Y-94640242D02*
X149473497Y-94747992D01*
X150066120Y-94640242D02*
X149500434Y-94074557D01*
X149500434Y-94074557D02*
X149715934Y-93859057D01*
X149715934Y-93859057D02*
X149796746Y-93832120D01*
X149796746Y-93832120D02*
X149850621Y-93832120D01*
X149850621Y-93832120D02*
X149931433Y-93859057D01*
X149931433Y-93859057D02*
X150012245Y-93939870D01*
X150012245Y-93939870D02*
X150039182Y-94020682D01*
X150039182Y-94020682D02*
X150039182Y-94074557D01*
X150039182Y-94074557D02*
X150012245Y-94155369D01*
X150012245Y-94155369D02*
X149796746Y-94370868D01*
X150928117Y-93778245D02*
X150604868Y-94101494D01*
X150766492Y-93939870D02*
X150200807Y-93374184D01*
X150200807Y-93374184D02*
X150227744Y-93508871D01*
X150227744Y-93508871D02*
X150227744Y-93616621D01*
X150227744Y-93616621D02*
X150200807Y-93697433D01*
X151197491Y-93508871D02*
X151305240Y-93401121D01*
X151305240Y-93401121D02*
X151332178Y-93320309D01*
X151332178Y-93320309D02*
X151332178Y-93266434D01*
X151332178Y-93266434D02*
X151305240Y-93131747D01*
X151305240Y-93131747D02*
X151224428Y-92997060D01*
X151224428Y-92997060D02*
X151008929Y-92781561D01*
X151008929Y-92781561D02*
X150928117Y-92754624D01*
X150928117Y-92754624D02*
X150874242Y-92754624D01*
X150874242Y-92754624D02*
X150793430Y-92781561D01*
X150793430Y-92781561D02*
X150685680Y-92889311D01*
X150685680Y-92889311D02*
X150658743Y-92970123D01*
X150658743Y-92970123D02*
X150658743Y-93023998D01*
X150658743Y-93023998D02*
X150685680Y-93104810D01*
X150685680Y-93104810D02*
X150820367Y-93239497D01*
X150820367Y-93239497D02*
X150901179Y-93266434D01*
X150901179Y-93266434D02*
X150955054Y-93266434D01*
X150955054Y-93266434D02*
X151035866Y-93239497D01*
X151035866Y-93239497D02*
X151143616Y-93131747D01*
X151143616Y-93131747D02*
X151170553Y-93050935D01*
X151170553Y-93050935D02*
X151170553Y-92997060D01*
X151170553Y-92997060D02*
X151143616Y-92916248D01*
X149257998Y-76600868D02*
X149177185Y-76627805D01*
X149177185Y-76627805D02*
X149096373Y-76708618D01*
X149096373Y-76708618D02*
X149042498Y-76816367D01*
X149042498Y-76816367D02*
X149042498Y-76924117D01*
X149042498Y-76924117D02*
X149069436Y-77004929D01*
X149069436Y-77004929D02*
X149150248Y-77139616D01*
X149150248Y-77139616D02*
X149231060Y-77220428D01*
X149231060Y-77220428D02*
X149365747Y-77301241D01*
X149365747Y-77301241D02*
X149446560Y-77328178D01*
X149446560Y-77328178D02*
X149554309Y-77328178D01*
X149554309Y-77328178D02*
X149662059Y-77274303D01*
X149662059Y-77274303D02*
X149715934Y-77220428D01*
X149715934Y-77220428D02*
X149769808Y-77112679D01*
X149769808Y-77112679D02*
X149769808Y-77058804D01*
X149769808Y-77058804D02*
X149581247Y-76870242D01*
X149581247Y-76870242D02*
X149473497Y-76977992D01*
X150066120Y-76870242D02*
X149500434Y-76304557D01*
X149500434Y-76304557D02*
X149715934Y-76089057D01*
X149715934Y-76089057D02*
X149796746Y-76062120D01*
X149796746Y-76062120D02*
X149850621Y-76062120D01*
X149850621Y-76062120D02*
X149931433Y-76089057D01*
X149931433Y-76089057D02*
X150012245Y-76169870D01*
X150012245Y-76169870D02*
X150039182Y-76250682D01*
X150039182Y-76250682D02*
X150039182Y-76304557D01*
X150039182Y-76304557D02*
X150012245Y-76385369D01*
X150012245Y-76385369D02*
X149796746Y-76600868D01*
X150093057Y-75819683D02*
X150093057Y-75765809D01*
X150093057Y-75765809D02*
X150119995Y-75684996D01*
X150119995Y-75684996D02*
X150254682Y-75550309D01*
X150254682Y-75550309D02*
X150335494Y-75523372D01*
X150335494Y-75523372D02*
X150389369Y-75523372D01*
X150389369Y-75523372D02*
X150470181Y-75550309D01*
X150470181Y-75550309D02*
X150524056Y-75604184D01*
X150524056Y-75604184D02*
X150577930Y-75711934D01*
X150577930Y-75711934D02*
X150577930Y-76358431D01*
X150577930Y-76358431D02*
X150928117Y-76008245D01*
X150550993Y-75253998D02*
X150928117Y-74876874D01*
X150928117Y-74876874D02*
X151251366Y-75684996D01*
X151622407Y-63968584D02*
X151972593Y-63618398D01*
X151972593Y-63618398D02*
X151999531Y-64022459D01*
X151999531Y-64022459D02*
X152080343Y-63941646D01*
X152080343Y-63941646D02*
X152161155Y-63914709D01*
X152161155Y-63914709D02*
X152215030Y-63914709D01*
X152215030Y-63914709D02*
X152295842Y-63941646D01*
X152295842Y-63941646D02*
X152430529Y-64076333D01*
X152430529Y-64076333D02*
X152457467Y-64157146D01*
X152457467Y-64157146D02*
X152457467Y-64211020D01*
X152457467Y-64211020D02*
X152430529Y-64291833D01*
X152430529Y-64291833D02*
X152268905Y-64453457D01*
X152268905Y-64453457D02*
X152188093Y-64480394D01*
X152188093Y-64480394D02*
X152134218Y-64480394D01*
X152134218Y-63456773D02*
X152888465Y-63833897D01*
X152888465Y-63833897D02*
X152511342Y-63079649D01*
X152646028Y-62944963D02*
X152996215Y-62594776D01*
X152996215Y-62594776D02*
X153023152Y-62998837D01*
X153023152Y-62998837D02*
X153103964Y-62918025D01*
X153103964Y-62918025D02*
X153184776Y-62891088D01*
X153184776Y-62891088D02*
X153238651Y-62891088D01*
X153238651Y-62891088D02*
X153319464Y-62918025D01*
X153319464Y-62918025D02*
X153454151Y-63052712D01*
X153454151Y-63052712D02*
X153481088Y-63133524D01*
X153481088Y-63133524D02*
X153481088Y-63187399D01*
X153481088Y-63187399D02*
X153454151Y-63268211D01*
X153454151Y-63268211D02*
X153292526Y-63429836D01*
X153292526Y-63429836D02*
X153211714Y-63456773D01*
X153211714Y-63456773D02*
X153157839Y-63456773D01*
X153723525Y-63106587D02*
X154154523Y-62675588D01*
X153939024Y-62190715D02*
X154127586Y-62002153D01*
X154504709Y-62217652D02*
X154235335Y-62487026D01*
X154235335Y-62487026D02*
X153669650Y-61921341D01*
X153669650Y-61921341D02*
X153939024Y-61651967D01*
X154747146Y-61975215D02*
X154181461Y-61409530D01*
X154181461Y-61409530D02*
X155070395Y-61651967D01*
X155070395Y-61651967D02*
X154504710Y-61086281D01*
X149246435Y-61108431D02*
X149165623Y-61135368D01*
X149165623Y-61135368D02*
X149084811Y-61216180D01*
X149084811Y-61216180D02*
X149030936Y-61323930D01*
X149030936Y-61323930D02*
X149030936Y-61431680D01*
X149030936Y-61431680D02*
X149057873Y-61512492D01*
X149057873Y-61512492D02*
X149138685Y-61647179D01*
X149138685Y-61647179D02*
X149219498Y-61727991D01*
X149219498Y-61727991D02*
X149354185Y-61808803D01*
X149354185Y-61808803D02*
X149434997Y-61835741D01*
X149434997Y-61835741D02*
X149542746Y-61835741D01*
X149542746Y-61835741D02*
X149650496Y-61781866D01*
X149650496Y-61781866D02*
X149704371Y-61727991D01*
X149704371Y-61727991D02*
X149758246Y-61620241D01*
X149758246Y-61620241D02*
X149758246Y-61566367D01*
X149758246Y-61566367D02*
X149569684Y-61377805D01*
X149569684Y-61377805D02*
X149461934Y-61485554D01*
X150054557Y-61377805D02*
X149488872Y-60812119D01*
X149488872Y-60812119D02*
X150377806Y-61054556D01*
X150377806Y-61054556D02*
X149812120Y-60488871D01*
X150647180Y-60785182D02*
X150081494Y-60219497D01*
X150081494Y-60219497D02*
X150216181Y-60084810D01*
X150216181Y-60084810D02*
X150323931Y-60030935D01*
X150323931Y-60030935D02*
X150431680Y-60030935D01*
X150431680Y-60030935D02*
X150512493Y-60057872D01*
X150512493Y-60057872D02*
X150647180Y-60138685D01*
X150647180Y-60138685D02*
X150727992Y-60219497D01*
X150727992Y-60219497D02*
X150808804Y-60354184D01*
X150808804Y-60354184D02*
X150835741Y-60434996D01*
X150835741Y-60434996D02*
X150835741Y-60542746D01*
X150835741Y-60542746D02*
X150781867Y-60650495D01*
X150781867Y-60650495D02*
X150647180Y-60785182D01*
X103171666Y-114389819D02*
X103171666Y-115104104D01*
X103171666Y-115104104D02*
X103124047Y-115246961D01*
X103124047Y-115246961D02*
X103028809Y-115342200D01*
X103028809Y-115342200D02*
X102885952Y-115389819D01*
X102885952Y-115389819D02*
X102790714Y-115389819D01*
X103552619Y-114389819D02*
X104219285Y-114389819D01*
X104219285Y-114389819D02*
X103790714Y-115389819D01*
X125396666Y-106814819D02*
X125396666Y-107529104D01*
X125396666Y-107529104D02*
X125349047Y-107671961D01*
X125349047Y-107671961D02*
X125253809Y-107767200D01*
X125253809Y-107767200D02*
X125110952Y-107814819D01*
X125110952Y-107814819D02*
X125015714Y-107814819D01*
X126301428Y-107148152D02*
X126301428Y-107814819D01*
X126063333Y-106767200D02*
X125825238Y-107481485D01*
X125825238Y-107481485D02*
X126444285Y-107481485D01*
X99558095Y-107819819D02*
X99558095Y-108629342D01*
X99558095Y-108629342D02*
X99605714Y-108724580D01*
X99605714Y-108724580D02*
X99653333Y-108772200D01*
X99653333Y-108772200D02*
X99748571Y-108819819D01*
X99748571Y-108819819D02*
X99939047Y-108819819D01*
X99939047Y-108819819D02*
X100034285Y-108772200D01*
X100034285Y-108772200D02*
X100081904Y-108724580D01*
X100081904Y-108724580D02*
X100129523Y-108629342D01*
X100129523Y-108629342D02*
X100129523Y-107819819D01*
X100558095Y-107915057D02*
X100605714Y-107867438D01*
X100605714Y-107867438D02*
X100700952Y-107819819D01*
X100700952Y-107819819D02*
X100939047Y-107819819D01*
X100939047Y-107819819D02*
X101034285Y-107867438D01*
X101034285Y-107867438D02*
X101081904Y-107915057D01*
X101081904Y-107915057D02*
X101129523Y-108010295D01*
X101129523Y-108010295D02*
X101129523Y-108105533D01*
X101129523Y-108105533D02*
X101081904Y-108248390D01*
X101081904Y-108248390D02*
X100510476Y-108819819D01*
X100510476Y-108819819D02*
X101129523Y-108819819D01*
X166806666Y-104229819D02*
X166806666Y-104944104D01*
X166806666Y-104944104D02*
X166759047Y-105086961D01*
X166759047Y-105086961D02*
X166663809Y-105182200D01*
X166663809Y-105182200D02*
X166520952Y-105229819D01*
X166520952Y-105229819D02*
X166425714Y-105229819D01*
X167282857Y-105229819D02*
X167282857Y-104229819D01*
X167282857Y-104229819D02*
X167663809Y-104229819D01*
X167663809Y-104229819D02*
X167759047Y-104277438D01*
X167759047Y-104277438D02*
X167806666Y-104325057D01*
X167806666Y-104325057D02*
X167854285Y-104420295D01*
X167854285Y-104420295D02*
X167854285Y-104563152D01*
X167854285Y-104563152D02*
X167806666Y-104658390D01*
X167806666Y-104658390D02*
X167759047Y-104706009D01*
X167759047Y-104706009D02*
X167663809Y-104753628D01*
X167663809Y-104753628D02*
X167282857Y-104753628D01*
X168806666Y-105229819D02*
X168235238Y-105229819D01*
X168520952Y-105229819D02*
X168520952Y-104229819D01*
X168520952Y-104229819D02*
X168425714Y-104372676D01*
X168425714Y-104372676D02*
X168330476Y-104467914D01*
X168330476Y-104467914D02*
X168235238Y-104515533D01*
X121586666Y-106814819D02*
X121586666Y-107529104D01*
X121586666Y-107529104D02*
X121539047Y-107671961D01*
X121539047Y-107671961D02*
X121443809Y-107767200D01*
X121443809Y-107767200D02*
X121300952Y-107814819D01*
X121300952Y-107814819D02*
X121205714Y-107814819D01*
X121967619Y-106814819D02*
X122586666Y-106814819D01*
X122586666Y-106814819D02*
X122253333Y-107195771D01*
X122253333Y-107195771D02*
X122396190Y-107195771D01*
X122396190Y-107195771D02*
X122491428Y-107243390D01*
X122491428Y-107243390D02*
X122539047Y-107291009D01*
X122539047Y-107291009D02*
X122586666Y-107386247D01*
X122586666Y-107386247D02*
X122586666Y-107624342D01*
X122586666Y-107624342D02*
X122539047Y-107719580D01*
X122539047Y-107719580D02*
X122491428Y-107767200D01*
X122491428Y-107767200D02*
X122396190Y-107814819D01*
X122396190Y-107814819D02*
X122110476Y-107814819D01*
X122110476Y-107814819D02*
X122015238Y-107767200D01*
X122015238Y-107767200D02*
X121967619Y-107719580D01*
X162385476Y-115659819D02*
X162385476Y-116374104D01*
X162385476Y-116374104D02*
X162337857Y-116516961D01*
X162337857Y-116516961D02*
X162242619Y-116612200D01*
X162242619Y-116612200D02*
X162099762Y-116659819D01*
X162099762Y-116659819D02*
X162004524Y-116659819D01*
X163385476Y-116659819D02*
X162814048Y-116659819D01*
X163099762Y-116659819D02*
X163099762Y-115659819D01*
X163099762Y-115659819D02*
X163004524Y-115802676D01*
X163004524Y-115802676D02*
X162909286Y-115897914D01*
X162909286Y-115897914D02*
X162814048Y-115945533D01*
X164004524Y-115659819D02*
X164099762Y-115659819D01*
X164099762Y-115659819D02*
X164195000Y-115707438D01*
X164195000Y-115707438D02*
X164242619Y-115755057D01*
X164242619Y-115755057D02*
X164290238Y-115850295D01*
X164290238Y-115850295D02*
X164337857Y-116040771D01*
X164337857Y-116040771D02*
X164337857Y-116278866D01*
X164337857Y-116278866D02*
X164290238Y-116469342D01*
X164290238Y-116469342D02*
X164242619Y-116564580D01*
X164242619Y-116564580D02*
X164195000Y-116612200D01*
X164195000Y-116612200D02*
X164099762Y-116659819D01*
X164099762Y-116659819D02*
X164004524Y-116659819D01*
X164004524Y-116659819D02*
X163909286Y-116612200D01*
X163909286Y-116612200D02*
X163861667Y-116564580D01*
X163861667Y-116564580D02*
X163814048Y-116469342D01*
X163814048Y-116469342D02*
X163766429Y-116278866D01*
X163766429Y-116278866D02*
X163766429Y-116040771D01*
X163766429Y-116040771D02*
X163814048Y-115850295D01*
X163814048Y-115850295D02*
X163861667Y-115755057D01*
X163861667Y-115755057D02*
X163909286Y-115707438D01*
X163909286Y-115707438D02*
X164004524Y-115659819D01*
X103688628Y-104501190D02*
X104164819Y-104501190D01*
X103164819Y-104834523D02*
X103688628Y-104501190D01*
X103688628Y-104501190D02*
X103164819Y-104167857D01*
X104164819Y-103310714D02*
X104164819Y-103882142D01*
X104164819Y-103596428D02*
X103164819Y-103596428D01*
X103164819Y-103596428D02*
X103307676Y-103691666D01*
X103307676Y-103691666D02*
X103402914Y-103786904D01*
X103402914Y-103786904D02*
X103450533Y-103882142D01*
X97456666Y-55969819D02*
X97456666Y-56684104D01*
X97456666Y-56684104D02*
X97409047Y-56826961D01*
X97409047Y-56826961D02*
X97313809Y-56922200D01*
X97313809Y-56922200D02*
X97170952Y-56969819D01*
X97170952Y-56969819D02*
X97075714Y-56969819D01*
X97885238Y-56065057D02*
X97932857Y-56017438D01*
X97932857Y-56017438D02*
X98028095Y-55969819D01*
X98028095Y-55969819D02*
X98266190Y-55969819D01*
X98266190Y-55969819D02*
X98361428Y-56017438D01*
X98361428Y-56017438D02*
X98409047Y-56065057D01*
X98409047Y-56065057D02*
X98456666Y-56160295D01*
X98456666Y-56160295D02*
X98456666Y-56255533D01*
X98456666Y-56255533D02*
X98409047Y-56398390D01*
X98409047Y-56398390D02*
X97837619Y-56969819D01*
X97837619Y-56969819D02*
X98456666Y-56969819D01*
X160404819Y-71858094D02*
X159404819Y-71858094D01*
X159404819Y-71858094D02*
X159404819Y-71619999D01*
X159404819Y-71619999D02*
X159452438Y-71477142D01*
X159452438Y-71477142D02*
X159547676Y-71381904D01*
X159547676Y-71381904D02*
X159642914Y-71334285D01*
X159642914Y-71334285D02*
X159833390Y-71286666D01*
X159833390Y-71286666D02*
X159976247Y-71286666D01*
X159976247Y-71286666D02*
X160166723Y-71334285D01*
X160166723Y-71334285D02*
X160261961Y-71381904D01*
X160261961Y-71381904D02*
X160357200Y-71477142D01*
X160357200Y-71477142D02*
X160404819Y-71619999D01*
X160404819Y-71619999D02*
X160404819Y-71858094D01*
X160404819Y-70334285D02*
X160404819Y-70905713D01*
X160404819Y-70619999D02*
X159404819Y-70619999D01*
X159404819Y-70619999D02*
X159547676Y-70715237D01*
X159547676Y-70715237D02*
X159642914Y-70810475D01*
X159642914Y-70810475D02*
X159690533Y-70905713D01*
X160034819Y-66301904D02*
X159034819Y-66301904D01*
X160034819Y-65730476D02*
X159463390Y-66159047D01*
X159034819Y-65730476D02*
X159606247Y-66301904D01*
X170013333Y-88719819D02*
X169680000Y-88243628D01*
X169441905Y-88719819D02*
X169441905Y-87719819D01*
X169441905Y-87719819D02*
X169822857Y-87719819D01*
X169822857Y-87719819D02*
X169918095Y-87767438D01*
X169918095Y-87767438D02*
X169965714Y-87815057D01*
X169965714Y-87815057D02*
X170013333Y-87910295D01*
X170013333Y-87910295D02*
X170013333Y-88053152D01*
X170013333Y-88053152D02*
X169965714Y-88148390D01*
X169965714Y-88148390D02*
X169918095Y-88196009D01*
X169918095Y-88196009D02*
X169822857Y-88243628D01*
X169822857Y-88243628D02*
X169441905Y-88243628D01*
X170394286Y-87815057D02*
X170441905Y-87767438D01*
X170441905Y-87767438D02*
X170537143Y-87719819D01*
X170537143Y-87719819D02*
X170775238Y-87719819D01*
X170775238Y-87719819D02*
X170870476Y-87767438D01*
X170870476Y-87767438D02*
X170918095Y-87815057D01*
X170918095Y-87815057D02*
X170965714Y-87910295D01*
X170965714Y-87910295D02*
X170965714Y-88005533D01*
X170965714Y-88005533D02*
X170918095Y-88148390D01*
X170918095Y-88148390D02*
X170346667Y-88719819D01*
X170346667Y-88719819D02*
X170965714Y-88719819D01*
X165560476Y-114389819D02*
X165560476Y-115104104D01*
X165560476Y-115104104D02*
X165512857Y-115246961D01*
X165512857Y-115246961D02*
X165417619Y-115342200D01*
X165417619Y-115342200D02*
X165274762Y-115389819D01*
X165274762Y-115389819D02*
X165179524Y-115389819D01*
X166560476Y-115389819D02*
X165989048Y-115389819D01*
X166274762Y-115389819D02*
X166274762Y-114389819D01*
X166274762Y-114389819D02*
X166179524Y-114532676D01*
X166179524Y-114532676D02*
X166084286Y-114627914D01*
X166084286Y-114627914D02*
X165989048Y-114675533D01*
X167512857Y-115389819D02*
X166941429Y-115389819D01*
X167227143Y-115389819D02*
X167227143Y-114389819D01*
X167227143Y-114389819D02*
X167131905Y-114532676D01*
X167131905Y-114532676D02*
X167036667Y-114627914D01*
X167036667Y-114627914D02*
X166941429Y-114675533D01*
X165560476Y-115659819D02*
X165560476Y-116374104D01*
X165560476Y-116374104D02*
X165512857Y-116516961D01*
X165512857Y-116516961D02*
X165417619Y-116612200D01*
X165417619Y-116612200D02*
X165274762Y-116659819D01*
X165274762Y-116659819D02*
X165179524Y-116659819D01*
X166560476Y-116659819D02*
X165989048Y-116659819D01*
X166274762Y-116659819D02*
X166274762Y-115659819D01*
X166274762Y-115659819D02*
X166179524Y-115802676D01*
X166179524Y-115802676D02*
X166084286Y-115897914D01*
X166084286Y-115897914D02*
X165989048Y-115945533D01*
X166941429Y-115755057D02*
X166989048Y-115707438D01*
X166989048Y-115707438D02*
X167084286Y-115659819D01*
X167084286Y-115659819D02*
X167322381Y-115659819D01*
X167322381Y-115659819D02*
X167417619Y-115707438D01*
X167417619Y-115707438D02*
X167465238Y-115755057D01*
X167465238Y-115755057D02*
X167512857Y-115850295D01*
X167512857Y-115850295D02*
X167512857Y-115945533D01*
X167512857Y-115945533D02*
X167465238Y-116088390D01*
X167465238Y-116088390D02*
X166893810Y-116659819D01*
X166893810Y-116659819D02*
X167512857Y-116659819D01*
X103171666Y-115659819D02*
X103171666Y-116374104D01*
X103171666Y-116374104D02*
X103124047Y-116516961D01*
X103124047Y-116516961D02*
X103028809Y-116612200D01*
X103028809Y-116612200D02*
X102885952Y-116659819D01*
X102885952Y-116659819D02*
X102790714Y-116659819D01*
X103790714Y-116088390D02*
X103695476Y-116040771D01*
X103695476Y-116040771D02*
X103647857Y-115993152D01*
X103647857Y-115993152D02*
X103600238Y-115897914D01*
X103600238Y-115897914D02*
X103600238Y-115850295D01*
X103600238Y-115850295D02*
X103647857Y-115755057D01*
X103647857Y-115755057D02*
X103695476Y-115707438D01*
X103695476Y-115707438D02*
X103790714Y-115659819D01*
X103790714Y-115659819D02*
X103981190Y-115659819D01*
X103981190Y-115659819D02*
X104076428Y-115707438D01*
X104076428Y-115707438D02*
X104124047Y-115755057D01*
X104124047Y-115755057D02*
X104171666Y-115850295D01*
X104171666Y-115850295D02*
X104171666Y-115897914D01*
X104171666Y-115897914D02*
X104124047Y-115993152D01*
X104124047Y-115993152D02*
X104076428Y-116040771D01*
X104076428Y-116040771D02*
X103981190Y-116088390D01*
X103981190Y-116088390D02*
X103790714Y-116088390D01*
X103790714Y-116088390D02*
X103695476Y-116136009D01*
X103695476Y-116136009D02*
X103647857Y-116183628D01*
X103647857Y-116183628D02*
X103600238Y-116278866D01*
X103600238Y-116278866D02*
X103600238Y-116469342D01*
X103600238Y-116469342D02*
X103647857Y-116564580D01*
X103647857Y-116564580D02*
X103695476Y-116612200D01*
X103695476Y-116612200D02*
X103790714Y-116659819D01*
X103790714Y-116659819D02*
X103981190Y-116659819D01*
X103981190Y-116659819D02*
X104076428Y-116612200D01*
X104076428Y-116612200D02*
X104124047Y-116564580D01*
X104124047Y-116564580D02*
X104171666Y-116469342D01*
X104171666Y-116469342D02*
X104171666Y-116278866D01*
X104171666Y-116278866D02*
X104124047Y-116183628D01*
X104124047Y-116183628D02*
X104076428Y-116136009D01*
X104076428Y-116136009D02*
X103981190Y-116088390D01*
X159258095Y-84544819D02*
X159258095Y-85354342D01*
X159258095Y-85354342D02*
X159305714Y-85449580D01*
X159305714Y-85449580D02*
X159353333Y-85497200D01*
X159353333Y-85497200D02*
X159448571Y-85544819D01*
X159448571Y-85544819D02*
X159639047Y-85544819D01*
X159639047Y-85544819D02*
X159734285Y-85497200D01*
X159734285Y-85497200D02*
X159781904Y-85449580D01*
X159781904Y-85449580D02*
X159829523Y-85354342D01*
X159829523Y-85354342D02*
X159829523Y-84544819D01*
X160210476Y-84544819D02*
X160829523Y-84544819D01*
X160829523Y-84544819D02*
X160496190Y-84925771D01*
X160496190Y-84925771D02*
X160639047Y-84925771D01*
X160639047Y-84925771D02*
X160734285Y-84973390D01*
X160734285Y-84973390D02*
X160781904Y-85021009D01*
X160781904Y-85021009D02*
X160829523Y-85116247D01*
X160829523Y-85116247D02*
X160829523Y-85354342D01*
X160829523Y-85354342D02*
X160781904Y-85449580D01*
X160781904Y-85449580D02*
X160734285Y-85497200D01*
X160734285Y-85497200D02*
X160639047Y-85544819D01*
X160639047Y-85544819D02*
X160353333Y-85544819D01*
X160353333Y-85544819D02*
X160258095Y-85497200D01*
X160258095Y-85497200D02*
X160210476Y-85449580D01*
X160441666Y-104229819D02*
X160441666Y-104944104D01*
X160441666Y-104944104D02*
X160394047Y-105086961D01*
X160394047Y-105086961D02*
X160298809Y-105182200D01*
X160298809Y-105182200D02*
X160155952Y-105229819D01*
X160155952Y-105229819D02*
X160060714Y-105229819D01*
X160917857Y-105229819D02*
X160917857Y-104229819D01*
X160917857Y-104229819D02*
X161298809Y-104229819D01*
X161298809Y-104229819D02*
X161394047Y-104277438D01*
X161394047Y-104277438D02*
X161441666Y-104325057D01*
X161441666Y-104325057D02*
X161489285Y-104420295D01*
X161489285Y-104420295D02*
X161489285Y-104563152D01*
X161489285Y-104563152D02*
X161441666Y-104658390D01*
X161441666Y-104658390D02*
X161394047Y-104706009D01*
X161394047Y-104706009D02*
X161298809Y-104753628D01*
X161298809Y-104753628D02*
X160917857Y-104753628D01*
X161870238Y-104325057D02*
X161917857Y-104277438D01*
X161917857Y-104277438D02*
X162013095Y-104229819D01*
X162013095Y-104229819D02*
X162251190Y-104229819D01*
X162251190Y-104229819D02*
X162346428Y-104277438D01*
X162346428Y-104277438D02*
X162394047Y-104325057D01*
X162394047Y-104325057D02*
X162441666Y-104420295D01*
X162441666Y-104420295D02*
X162441666Y-104515533D01*
X162441666Y-104515533D02*
X162394047Y-104658390D01*
X162394047Y-104658390D02*
X161822619Y-105229819D01*
X161822619Y-105229819D02*
X162441666Y-105229819D01*
X170013333Y-100149819D02*
X169680000Y-99673628D01*
X169441905Y-100149819D02*
X169441905Y-99149819D01*
X169441905Y-99149819D02*
X169822857Y-99149819D01*
X169822857Y-99149819D02*
X169918095Y-99197438D01*
X169918095Y-99197438D02*
X169965714Y-99245057D01*
X169965714Y-99245057D02*
X170013333Y-99340295D01*
X170013333Y-99340295D02*
X170013333Y-99483152D01*
X170013333Y-99483152D02*
X169965714Y-99578390D01*
X169965714Y-99578390D02*
X169918095Y-99626009D01*
X169918095Y-99626009D02*
X169822857Y-99673628D01*
X169822857Y-99673628D02*
X169441905Y-99673628D01*
X170870476Y-99483152D02*
X170870476Y-100149819D01*
X170632381Y-99102200D02*
X170394286Y-99816485D01*
X170394286Y-99816485D02*
X171013333Y-99816485D01*
X100631666Y-115659819D02*
X100631666Y-116374104D01*
X100631666Y-116374104D02*
X100584047Y-116516961D01*
X100584047Y-116516961D02*
X100488809Y-116612200D01*
X100488809Y-116612200D02*
X100345952Y-116659819D01*
X100345952Y-116659819D02*
X100250714Y-116659819D01*
X101536428Y-115659819D02*
X101345952Y-115659819D01*
X101345952Y-115659819D02*
X101250714Y-115707438D01*
X101250714Y-115707438D02*
X101203095Y-115755057D01*
X101203095Y-115755057D02*
X101107857Y-115897914D01*
X101107857Y-115897914D02*
X101060238Y-116088390D01*
X101060238Y-116088390D02*
X101060238Y-116469342D01*
X101060238Y-116469342D02*
X101107857Y-116564580D01*
X101107857Y-116564580D02*
X101155476Y-116612200D01*
X101155476Y-116612200D02*
X101250714Y-116659819D01*
X101250714Y-116659819D02*
X101441190Y-116659819D01*
X101441190Y-116659819D02*
X101536428Y-116612200D01*
X101536428Y-116612200D02*
X101584047Y-116564580D01*
X101584047Y-116564580D02*
X101631666Y-116469342D01*
X101631666Y-116469342D02*
X101631666Y-116231247D01*
X101631666Y-116231247D02*
X101584047Y-116136009D01*
X101584047Y-116136009D02*
X101536428Y-116088390D01*
X101536428Y-116088390D02*
X101441190Y-116040771D01*
X101441190Y-116040771D02*
X101250714Y-116040771D01*
X101250714Y-116040771D02*
X101155476Y-116088390D01*
X101155476Y-116088390D02*
X101107857Y-116136009D01*
X101107857Y-116136009D02*
X101060238Y-116231247D01*
X161750476Y-62954819D02*
X161750476Y-63669104D01*
X161750476Y-63669104D02*
X161702857Y-63811961D01*
X161702857Y-63811961D02*
X161607619Y-63907200D01*
X161607619Y-63907200D02*
X161464762Y-63954819D01*
X161464762Y-63954819D02*
X161369524Y-63954819D01*
X162750476Y-63954819D02*
X162179048Y-63954819D01*
X162464762Y-63954819D02*
X162464762Y-62954819D01*
X162464762Y-62954819D02*
X162369524Y-63097676D01*
X162369524Y-63097676D02*
X162274286Y-63192914D01*
X162274286Y-63192914D02*
X162179048Y-63240533D01*
X163083810Y-62954819D02*
X163702857Y-62954819D01*
X163702857Y-62954819D02*
X163369524Y-63335771D01*
X163369524Y-63335771D02*
X163512381Y-63335771D01*
X163512381Y-63335771D02*
X163607619Y-63383390D01*
X163607619Y-63383390D02*
X163655238Y-63431009D01*
X163655238Y-63431009D02*
X163702857Y-63526247D01*
X163702857Y-63526247D02*
X163702857Y-63764342D01*
X163702857Y-63764342D02*
X163655238Y-63859580D01*
X163655238Y-63859580D02*
X163607619Y-63907200D01*
X163607619Y-63907200D02*
X163512381Y-63954819D01*
X163512381Y-63954819D02*
X163226667Y-63954819D01*
X163226667Y-63954819D02*
X163131429Y-63907200D01*
X163131429Y-63907200D02*
X163083810Y-63859580D01*
X155876666Y-106814819D02*
X155876666Y-107529104D01*
X155876666Y-107529104D02*
X155829047Y-107671961D01*
X155829047Y-107671961D02*
X155733809Y-107767200D01*
X155733809Y-107767200D02*
X155590952Y-107814819D01*
X155590952Y-107814819D02*
X155495714Y-107814819D01*
X156876666Y-107814819D02*
X156305238Y-107814819D01*
X156590952Y-107814819D02*
X156590952Y-106814819D01*
X156590952Y-106814819D02*
X156495714Y-106957676D01*
X156495714Y-106957676D02*
X156400476Y-107052914D01*
X156400476Y-107052914D02*
X156305238Y-107100533D01*
X100631666Y-114389819D02*
X100631666Y-115104104D01*
X100631666Y-115104104D02*
X100584047Y-115246961D01*
X100584047Y-115246961D02*
X100488809Y-115342200D01*
X100488809Y-115342200D02*
X100345952Y-115389819D01*
X100345952Y-115389819D02*
X100250714Y-115389819D01*
X101584047Y-114389819D02*
X101107857Y-114389819D01*
X101107857Y-114389819D02*
X101060238Y-114866009D01*
X101060238Y-114866009D02*
X101107857Y-114818390D01*
X101107857Y-114818390D02*
X101203095Y-114770771D01*
X101203095Y-114770771D02*
X101441190Y-114770771D01*
X101441190Y-114770771D02*
X101536428Y-114818390D01*
X101536428Y-114818390D02*
X101584047Y-114866009D01*
X101584047Y-114866009D02*
X101631666Y-114961247D01*
X101631666Y-114961247D02*
X101631666Y-115199342D01*
X101631666Y-115199342D02*
X101584047Y-115294580D01*
X101584047Y-115294580D02*
X101536428Y-115342200D01*
X101536428Y-115342200D02*
X101441190Y-115389819D01*
X101441190Y-115389819D02*
X101203095Y-115389819D01*
X101203095Y-115389819D02*
X101107857Y-115342200D01*
X101107857Y-115342200D02*
X101060238Y-115294580D01*
D12*
%TO.C,BT1*%
X106690000Y-102170000D02*
X106690000Y-99134000D01*
X106690000Y-78170000D02*
G75*
G03*
X106690000Y-99134000I3799811J-10482000D01*
G01*
X114290000Y-78170000D02*
X106690000Y-78170000D01*
X106690000Y-102170000D02*
X114290000Y-102170000D01*
X114290000Y-99134000D02*
X114290000Y-102170000D01*
X114290000Y-99134000D02*
G75*
G03*
X114290000Y-78170000I-3799811J10482000D01*
G01*
%TO.C,R1*%
X158520000Y-92075000D02*
X159290000Y-92075000D01*
X159290000Y-90705000D02*
X159290000Y-93445000D01*
X159290000Y-93445000D02*
X165830000Y-93445000D01*
X165830000Y-90705000D02*
X159290000Y-90705000D01*
X165830000Y-93445000D02*
X165830000Y-90705000D01*
X166600000Y-92075000D02*
X165830000Y-92075000D01*
%TO.C,J9*%
X134450000Y-117040000D02*
X134450000Y-118290000D01*
X134750000Y-117340000D02*
X134750000Y-123960000D01*
X134750000Y-120650000D02*
X135760000Y-120650000D01*
X134750000Y-123960000D02*
X152470000Y-123960000D01*
X135700000Y-117040000D02*
X134450000Y-117040000D01*
X135760000Y-118950000D02*
X135760000Y-123250000D01*
X135760000Y-123250000D02*
X151460000Y-123250000D01*
X137050000Y-117340000D02*
X134750000Y-117340000D01*
X137050000Y-118340000D02*
X137050000Y-117340000D01*
X138810000Y-117340000D02*
X138810000Y-118340000D01*
X138810000Y-118340000D02*
X137050000Y-118340000D01*
X140910000Y-117340000D02*
X138810000Y-117340000D01*
X140910000Y-118340000D02*
X140910000Y-117340000D01*
X142810000Y-117740000D02*
X142810000Y-118340000D01*
X142810000Y-118340000D02*
X140910000Y-118340000D01*
X144410000Y-117740000D02*
X142810000Y-117740000D01*
X144410000Y-118340000D02*
X144410000Y-117740000D01*
X146310000Y-117340000D02*
X146310000Y-118340000D01*
X146310000Y-118340000D02*
X144410000Y-118340000D01*
X148410000Y-117340000D02*
X146310000Y-117340000D01*
X148410000Y-118340000D02*
X148410000Y-117340000D01*
X150170000Y-117340000D02*
X150170000Y-118340000D01*
X150170000Y-118340000D02*
X148410000Y-118340000D01*
X151460000Y-118950000D02*
X135760000Y-118950000D01*
X151460000Y-123250000D02*
X151460000Y-118950000D01*
X152470000Y-117340000D02*
X150170000Y-117340000D01*
X152470000Y-120650000D02*
X151460000Y-120650000D01*
X152470000Y-123960000D02*
X152470000Y-117340000D01*
%TO.C,R3*%
X158520000Y-95885000D02*
X159290000Y-95885000D01*
X159290000Y-94515000D02*
X159290000Y-97255000D01*
X159290000Y-97255000D02*
X165830000Y-97255000D01*
X165830000Y-94515000D02*
X159290000Y-94515000D01*
X165830000Y-97255000D02*
X165830000Y-94515000D01*
X166600000Y-95885000D02*
X165830000Y-95885000D01*
%TO.C,U1*%
X126660000Y-54510000D02*
X126660000Y-54810000D01*
X126660000Y-54510000D02*
X147660000Y-54510000D01*
X126660000Y-56910000D02*
X126660000Y-57310000D01*
X126660000Y-57177000D02*
X129667000Y-57177000D01*
X126660000Y-59510000D02*
X126660000Y-59910000D01*
X126660000Y-62010000D02*
X126660000Y-62410000D01*
X126660000Y-64610000D02*
X126660000Y-65010000D01*
X126660000Y-67110000D02*
X126660000Y-67510000D01*
X126660000Y-69610000D02*
X126660000Y-70010000D01*
X126660000Y-72210000D02*
X126660000Y-72610000D01*
X126660000Y-74710000D02*
X126660000Y-75110000D01*
X126660000Y-77310000D02*
X126660000Y-77710000D01*
X126660000Y-79810000D02*
X126660000Y-80210000D01*
X126660000Y-82310000D02*
X126660000Y-82710000D01*
X126660000Y-84910000D02*
X126660000Y-85310000D01*
X126660000Y-87410000D02*
X126660000Y-87810000D01*
X126660000Y-90010000D02*
X126660000Y-90410000D01*
X126660000Y-92510000D02*
X126660000Y-92910000D01*
X126660000Y-95110000D02*
X126660000Y-95510000D01*
X126660000Y-97610000D02*
X126660000Y-98010000D01*
X126660000Y-100110000D02*
X126660000Y-100510000D01*
X126660000Y-102710000D02*
X126660000Y-103110000D01*
X129667000Y-57177000D02*
X129667000Y-54510000D01*
X147660000Y-54510000D02*
X147660000Y-54810000D01*
X147660000Y-56910000D02*
X147660000Y-57310000D01*
X147660000Y-59510000D02*
X147660000Y-59910000D01*
X147660000Y-62010000D02*
X147660000Y-62410000D01*
X147660000Y-64610000D02*
X147660000Y-65010000D01*
X147660000Y-67110000D02*
X147660000Y-67510000D01*
X147660000Y-69610000D02*
X147660000Y-70010000D01*
X147660000Y-72210000D02*
X147660000Y-72610000D01*
X147660000Y-74710000D02*
X147660000Y-75110000D01*
X147660000Y-77310000D02*
X147660000Y-77710000D01*
X147660000Y-79810000D02*
X147660000Y-80210000D01*
X147660000Y-82310000D02*
X147660000Y-82710000D01*
X147660000Y-84910000D02*
X147660000Y-85310000D01*
X147660000Y-87410000D02*
X147660000Y-87810000D01*
X147660000Y-90010000D02*
X147660000Y-90410000D01*
X147660000Y-92510000D02*
X147660000Y-92910000D01*
X147660000Y-95110000D02*
X147660000Y-95510000D01*
X147660000Y-97610000D02*
X147660000Y-98010000D01*
X147660000Y-100110000D02*
X147660000Y-100510000D01*
X147660000Y-102710000D02*
X147660000Y-103110000D01*
X147660000Y-105510000D02*
X126660000Y-105510000D01*
%TO.C,J7*%
X112860000Y-117040000D02*
X112860000Y-118290000D01*
X113160000Y-117340000D02*
X113160000Y-123960000D01*
X113160000Y-120650000D02*
X114170000Y-120650000D01*
X113160000Y-123960000D02*
X130880000Y-123960000D01*
X114110000Y-117040000D02*
X112860000Y-117040000D01*
X114170000Y-118950000D02*
X114170000Y-123250000D01*
X114170000Y-123250000D02*
X129870000Y-123250000D01*
X115460000Y-117340000D02*
X113160000Y-117340000D01*
X115460000Y-118340000D02*
X115460000Y-117340000D01*
X117220000Y-117340000D02*
X117220000Y-118340000D01*
X117220000Y-118340000D02*
X115460000Y-118340000D01*
X119320000Y-117340000D02*
X117220000Y-117340000D01*
X119320000Y-118340000D02*
X119320000Y-117340000D01*
X121220000Y-117740000D02*
X121220000Y-118340000D01*
X121220000Y-118340000D02*
X119320000Y-118340000D01*
X122820000Y-117740000D02*
X121220000Y-117740000D01*
X122820000Y-118340000D02*
X122820000Y-117740000D01*
X124720000Y-117340000D02*
X124720000Y-118340000D01*
X124720000Y-118340000D02*
X122820000Y-118340000D01*
X126820000Y-117340000D02*
X124720000Y-117340000D01*
X126820000Y-118340000D02*
X126820000Y-117340000D01*
X128580000Y-117340000D02*
X128580000Y-118340000D01*
X128580000Y-118340000D02*
X126820000Y-118340000D01*
X129870000Y-118950000D02*
X114170000Y-118950000D01*
X129870000Y-123250000D02*
X129870000Y-118950000D01*
X130880000Y-117340000D02*
X128580000Y-117340000D01*
X130880000Y-120650000D02*
X129870000Y-120650000D01*
X130880000Y-123960000D02*
X130880000Y-117340000D01*
%TO.C,J4*%
X124090000Y-108150000D02*
X124090000Y-109400000D01*
X124390000Y-108450000D02*
X124390000Y-115070000D01*
X124390000Y-111760000D02*
X125400000Y-111760000D01*
X124390000Y-115070000D02*
X142110000Y-115070000D01*
X125340000Y-108150000D02*
X124090000Y-108150000D01*
X125400000Y-110060000D02*
X125400000Y-114360000D01*
X125400000Y-114360000D02*
X141100000Y-114360000D01*
X126690000Y-108450000D02*
X124390000Y-108450000D01*
X126690000Y-109450000D02*
X126690000Y-108450000D01*
X128450000Y-108450000D02*
X128450000Y-109450000D01*
X128450000Y-109450000D02*
X126690000Y-109450000D01*
X130550000Y-108450000D02*
X128450000Y-108450000D01*
X130550000Y-109450000D02*
X130550000Y-108450000D01*
X132450000Y-108850000D02*
X132450000Y-109450000D01*
X132450000Y-109450000D02*
X130550000Y-109450000D01*
X134050000Y-108850000D02*
X132450000Y-108850000D01*
X134050000Y-109450000D02*
X134050000Y-108850000D01*
X135950000Y-108450000D02*
X135950000Y-109450000D01*
X135950000Y-109450000D02*
X134050000Y-109450000D01*
X138050000Y-108450000D02*
X135950000Y-108450000D01*
X138050000Y-109450000D02*
X138050000Y-108450000D01*
X139810000Y-108450000D02*
X139810000Y-109450000D01*
X139810000Y-109450000D02*
X138050000Y-109450000D01*
X141100000Y-110060000D02*
X125400000Y-110060000D01*
X141100000Y-114360000D02*
X141100000Y-110060000D01*
X142110000Y-108450000D02*
X139810000Y-108450000D01*
X142110000Y-111760000D02*
X141100000Y-111760000D01*
X142110000Y-115070000D02*
X142110000Y-108450000D01*
%TO.C,U2*%
X100430000Y-107365000D02*
X100430000Y-97085000D01*
X100430000Y-97085000D02*
X95130000Y-97085000D01*
X98780000Y-107365000D02*
X100430000Y-107365000D01*
X95130000Y-107365000D02*
X96780000Y-107365000D01*
X95130000Y-97085000D02*
X95130000Y-107365000D01*
X98780000Y-107365000D02*
G75*
G03*
X96780000Y-107365000I-1000000J0D01*
G01*
%TO.C,JP1*%
X165880000Y-105775000D02*
X163080000Y-105775000D01*
X165880000Y-103775000D02*
X165880000Y-105775000D01*
X163080000Y-105775000D02*
X163080000Y-103775000D01*
X163080000Y-103775000D02*
X165880000Y-103775000D01*
%TO.C,J3*%
X105200000Y-108150000D02*
X105200000Y-109400000D01*
X105500000Y-108450000D02*
X105500000Y-115070000D01*
X105500000Y-111760000D02*
X106510000Y-111760000D01*
X105500000Y-115070000D02*
X123220000Y-115070000D01*
X106450000Y-108150000D02*
X105200000Y-108150000D01*
X106510000Y-110060000D02*
X106510000Y-114360000D01*
X106510000Y-114360000D02*
X122210000Y-114360000D01*
X107800000Y-108450000D02*
X105500000Y-108450000D01*
X107800000Y-109450000D02*
X107800000Y-108450000D01*
X109560000Y-108450000D02*
X109560000Y-109450000D01*
X109560000Y-109450000D02*
X107800000Y-109450000D01*
X111660000Y-108450000D02*
X109560000Y-108450000D01*
X111660000Y-109450000D02*
X111660000Y-108450000D01*
X113560000Y-108850000D02*
X113560000Y-109450000D01*
X113560000Y-109450000D02*
X111660000Y-109450000D01*
X115160000Y-108850000D02*
X113560000Y-108850000D01*
X115160000Y-109450000D02*
X115160000Y-108850000D01*
X117060000Y-108450000D02*
X117060000Y-109450000D01*
X117060000Y-109450000D02*
X115160000Y-109450000D01*
X119160000Y-108450000D02*
X117060000Y-108450000D01*
X119160000Y-109450000D02*
X119160000Y-108450000D01*
X120920000Y-108450000D02*
X120920000Y-109450000D01*
X120920000Y-109450000D02*
X119160000Y-109450000D01*
X122210000Y-110060000D02*
X106510000Y-110060000D01*
X122210000Y-114360000D02*
X122210000Y-110060000D01*
X123220000Y-108450000D02*
X120920000Y-108450000D01*
X123220000Y-111760000D02*
X122210000Y-111760000D01*
X123220000Y-115070000D02*
X123220000Y-108450000D01*
%TO.C,J10*%
X134450000Y-124660000D02*
X134450000Y-125910000D01*
X134750000Y-124960000D02*
X134750000Y-131580000D01*
X134750000Y-128270000D02*
X135760000Y-128270000D01*
X134750000Y-131580000D02*
X152470000Y-131580000D01*
X135700000Y-124660000D02*
X134450000Y-124660000D01*
X135760000Y-126570000D02*
X135760000Y-130870000D01*
X135760000Y-130870000D02*
X151460000Y-130870000D01*
X137050000Y-124960000D02*
X134750000Y-124960000D01*
X137050000Y-125960000D02*
X137050000Y-124960000D01*
X138810000Y-124960000D02*
X138810000Y-125960000D01*
X138810000Y-125960000D02*
X137050000Y-125960000D01*
X140910000Y-124960000D02*
X138810000Y-124960000D01*
X140910000Y-125960000D02*
X140910000Y-124960000D01*
X142810000Y-125360000D02*
X142810000Y-125960000D01*
X142810000Y-125960000D02*
X140910000Y-125960000D01*
X144410000Y-125360000D02*
X142810000Y-125360000D01*
X144410000Y-125960000D02*
X144410000Y-125360000D01*
X146310000Y-124960000D02*
X146310000Y-125960000D01*
X146310000Y-125960000D02*
X144410000Y-125960000D01*
X148410000Y-124960000D02*
X146310000Y-124960000D01*
X148410000Y-125960000D02*
X148410000Y-124960000D01*
X150170000Y-124960000D02*
X150170000Y-125960000D01*
X150170000Y-125960000D02*
X148410000Y-125960000D01*
X151460000Y-126570000D02*
X135760000Y-126570000D01*
X151460000Y-130870000D02*
X151460000Y-126570000D01*
X152470000Y-124960000D02*
X150170000Y-124960000D01*
X152470000Y-128270000D02*
X151460000Y-128270000D01*
X152470000Y-131580000D02*
X152470000Y-124960000D01*
%TO.C,Y1*%
X104709347Y-103275610D02*
G75*
G03*
X104710000Y-104775000I700653J-749390D01*
G01*
X106110000Y-104775000D02*
G75*
G03*
X106110653Y-103275610I-700000J750000D01*
G01*
%TO.C,J2*%
X99060000Y-56832500D02*
X99060000Y-74612500D01*
X100270000Y-75942500D02*
X100270000Y-74612500D01*
X101600000Y-75942500D02*
X100270000Y-75942500D01*
X101600000Y-77152500D02*
X121920000Y-77152500D01*
X107315000Y-54292500D02*
X107315000Y-50482500D01*
X107950000Y-49847500D02*
X117680000Y-49847500D01*
X118315000Y-50482500D02*
X118315000Y-54292500D01*
X121920000Y-54292500D02*
X101600000Y-54292500D01*
X124460000Y-74612500D02*
X124460000Y-56832500D01*
X101600000Y-54292500D02*
G75*
G03*
X99060000Y-56832500I0J-2540000D01*
G01*
X99060000Y-74612500D02*
G75*
G03*
X101600000Y-77152500I2540000J0D01*
G01*
X107950000Y-49847500D02*
G75*
G03*
X107315000Y-50482500I0J-635000D01*
G01*
X118315000Y-50482500D02*
G75*
G03*
X117680000Y-49847500I-635000J0D01*
G01*
X124460000Y-56832500D02*
G75*
G03*
X121920000Y-54292500I-2540000J0D01*
G01*
X121920000Y-77152500D02*
G75*
G03*
X124460000Y-74612500I0J2540000D01*
G01*
%TO.C,D1*%
X157480000Y-67380000D02*
X157480000Y-68400000D01*
X158950000Y-68400000D02*
X156010000Y-68400000D01*
X156010000Y-68400000D02*
X156010000Y-73840000D01*
X158950000Y-69180000D02*
X156010000Y-69180000D01*
X158950000Y-69300000D02*
X156010000Y-69300000D01*
X158950000Y-69420000D02*
X156010000Y-69420000D01*
X158950000Y-73840000D02*
X158950000Y-68400000D01*
X156010000Y-73840000D02*
X158950000Y-73840000D01*
X157480000Y-74860000D02*
X157480000Y-73840000D01*
%TO.C,R2*%
X158520000Y-88265000D02*
X159290000Y-88265000D01*
X159290000Y-86895000D02*
X159290000Y-89635000D01*
X159290000Y-89635000D02*
X165830000Y-89635000D01*
X165830000Y-86895000D02*
X159290000Y-86895000D01*
X165830000Y-89635000D02*
X165830000Y-86895000D01*
X166600000Y-88265000D02*
X165830000Y-88265000D01*
%TO.C,J11*%
X153500000Y-117040000D02*
X153500000Y-118290000D01*
X153800000Y-117340000D02*
X153800000Y-123960000D01*
X153800000Y-120650000D02*
X154810000Y-120650000D01*
X153800000Y-123960000D02*
X171520000Y-123960000D01*
X154750000Y-117040000D02*
X153500000Y-117040000D01*
X154810000Y-118950000D02*
X154810000Y-123250000D01*
X154810000Y-123250000D02*
X170510000Y-123250000D01*
X156100000Y-117340000D02*
X153800000Y-117340000D01*
X156100000Y-118340000D02*
X156100000Y-117340000D01*
X157860000Y-117340000D02*
X157860000Y-118340000D01*
X157860000Y-118340000D02*
X156100000Y-118340000D01*
X159960000Y-117340000D02*
X157860000Y-117340000D01*
X159960000Y-118340000D02*
X159960000Y-117340000D01*
X161860000Y-117740000D02*
X161860000Y-118340000D01*
X161860000Y-118340000D02*
X159960000Y-118340000D01*
X163460000Y-117740000D02*
X161860000Y-117740000D01*
X163460000Y-118340000D02*
X163460000Y-117740000D01*
X165360000Y-117340000D02*
X165360000Y-118340000D01*
X165360000Y-118340000D02*
X163460000Y-118340000D01*
X167460000Y-117340000D02*
X165360000Y-117340000D01*
X167460000Y-118340000D02*
X167460000Y-117340000D01*
X169220000Y-117340000D02*
X169220000Y-118340000D01*
X169220000Y-118340000D02*
X167460000Y-118340000D01*
X170510000Y-118950000D02*
X154810000Y-118950000D01*
X170510000Y-123250000D02*
X170510000Y-118950000D01*
X171520000Y-117340000D02*
X169220000Y-117340000D01*
X171520000Y-120650000D02*
X170510000Y-120650000D01*
X171520000Y-123960000D02*
X171520000Y-117340000D01*
%TO.C,J12*%
X153500000Y-124660000D02*
X153500000Y-125910000D01*
X153800000Y-124960000D02*
X153800000Y-131580000D01*
X153800000Y-128270000D02*
X154810000Y-128270000D01*
X153800000Y-131580000D02*
X171520000Y-131580000D01*
X154750000Y-124660000D02*
X153500000Y-124660000D01*
X154810000Y-126570000D02*
X154810000Y-130870000D01*
X154810000Y-130870000D02*
X170510000Y-130870000D01*
X156100000Y-124960000D02*
X153800000Y-124960000D01*
X156100000Y-125960000D02*
X156100000Y-124960000D01*
X157860000Y-124960000D02*
X157860000Y-125960000D01*
X157860000Y-125960000D02*
X156100000Y-125960000D01*
X159960000Y-124960000D02*
X157860000Y-124960000D01*
X159960000Y-125960000D02*
X159960000Y-124960000D01*
X161860000Y-125360000D02*
X161860000Y-125960000D01*
X161860000Y-125960000D02*
X159960000Y-125960000D01*
X163460000Y-125360000D02*
X161860000Y-125360000D01*
X163460000Y-125960000D02*
X163460000Y-125360000D01*
X165360000Y-124960000D02*
X165360000Y-125960000D01*
X165360000Y-125960000D02*
X163460000Y-125960000D01*
X167460000Y-124960000D02*
X165360000Y-124960000D01*
X167460000Y-125960000D02*
X167460000Y-124960000D01*
X169220000Y-124960000D02*
X169220000Y-125960000D01*
X169220000Y-125960000D02*
X167460000Y-125960000D01*
X170510000Y-126570000D02*
X154810000Y-126570000D01*
X170510000Y-130870000D02*
X170510000Y-126570000D01*
X171520000Y-124960000D02*
X169220000Y-124960000D01*
X171520000Y-128270000D02*
X170510000Y-128270000D01*
X171520000Y-131580000D02*
X171520000Y-124960000D01*
%TO.C,J8*%
X112860000Y-124660000D02*
X112860000Y-125910000D01*
X113160000Y-124960000D02*
X113160000Y-131580000D01*
X113160000Y-128270000D02*
X114170000Y-128270000D01*
X113160000Y-131580000D02*
X130880000Y-131580000D01*
X114110000Y-124660000D02*
X112860000Y-124660000D01*
X114170000Y-126570000D02*
X114170000Y-130870000D01*
X114170000Y-130870000D02*
X129870000Y-130870000D01*
X115460000Y-124960000D02*
X113160000Y-124960000D01*
X115460000Y-125960000D02*
X115460000Y-124960000D01*
X117220000Y-124960000D02*
X117220000Y-125960000D01*
X117220000Y-125960000D02*
X115460000Y-125960000D01*
X119320000Y-124960000D02*
X117220000Y-124960000D01*
X119320000Y-125960000D02*
X119320000Y-124960000D01*
X121220000Y-125360000D02*
X121220000Y-125960000D01*
X121220000Y-125960000D02*
X119320000Y-125960000D01*
X122820000Y-125360000D02*
X121220000Y-125360000D01*
X122820000Y-125960000D02*
X122820000Y-125360000D01*
X124720000Y-124960000D02*
X124720000Y-125960000D01*
X124720000Y-125960000D02*
X122820000Y-125960000D01*
X126820000Y-124960000D02*
X124720000Y-124960000D01*
X126820000Y-125960000D02*
X126820000Y-124960000D01*
X128580000Y-124960000D02*
X128580000Y-125960000D01*
X128580000Y-125960000D02*
X126820000Y-125960000D01*
X129870000Y-126570000D02*
X114170000Y-126570000D01*
X129870000Y-130870000D02*
X129870000Y-126570000D01*
X130880000Y-124960000D02*
X128580000Y-124960000D01*
X130880000Y-128270000D02*
X129870000Y-128270000D01*
X130880000Y-131580000D02*
X130880000Y-124960000D01*
%TO.C,U3*%
X171490000Y-86550000D02*
X171490000Y-70660000D01*
X171490000Y-86550000D02*
X161250000Y-86550000D01*
X171490000Y-70660000D02*
X161250000Y-70660000D01*
X168910000Y-70660000D02*
X168910000Y-68120000D01*
X166370000Y-70660000D02*
X166370000Y-68120000D01*
X163830000Y-70660000D02*
X163830000Y-68120000D01*
X161250000Y-86550000D02*
X161250000Y-70660000D01*
%TO.C,JP2*%
X156715000Y-103775000D02*
X159515000Y-103775000D01*
X156715000Y-105775000D02*
X156715000Y-103775000D01*
X159515000Y-103775000D02*
X159515000Y-105775000D01*
X159515000Y-105775000D02*
X156715000Y-105775000D01*
%TO.C,R4*%
X158520000Y-99695000D02*
X159290000Y-99695000D01*
X159290000Y-98325000D02*
X159290000Y-101065000D01*
X159290000Y-101065000D02*
X165830000Y-101065000D01*
X165830000Y-98325000D02*
X159290000Y-98325000D01*
X165830000Y-101065000D02*
X165830000Y-98325000D01*
X166600000Y-99695000D02*
X165830000Y-99695000D01*
%TO.C,J6*%
X93810000Y-124660000D02*
X93810000Y-125910000D01*
X94110000Y-124960000D02*
X94110000Y-131580000D01*
X94110000Y-128270000D02*
X95120000Y-128270000D01*
X94110000Y-131580000D02*
X111830000Y-131580000D01*
X95060000Y-124660000D02*
X93810000Y-124660000D01*
X95120000Y-126570000D02*
X95120000Y-130870000D01*
X95120000Y-130870000D02*
X110820000Y-130870000D01*
X96410000Y-124960000D02*
X94110000Y-124960000D01*
X96410000Y-125960000D02*
X96410000Y-124960000D01*
X98170000Y-124960000D02*
X98170000Y-125960000D01*
X98170000Y-125960000D02*
X96410000Y-125960000D01*
X100270000Y-124960000D02*
X98170000Y-124960000D01*
X100270000Y-125960000D02*
X100270000Y-124960000D01*
X102170000Y-125360000D02*
X102170000Y-125960000D01*
X102170000Y-125960000D02*
X100270000Y-125960000D01*
X103770000Y-125360000D02*
X102170000Y-125360000D01*
X103770000Y-125960000D02*
X103770000Y-125360000D01*
X105670000Y-124960000D02*
X105670000Y-125960000D01*
X105670000Y-125960000D02*
X103770000Y-125960000D01*
X107770000Y-124960000D02*
X105670000Y-124960000D01*
X107770000Y-125960000D02*
X107770000Y-124960000D01*
X109530000Y-124960000D02*
X109530000Y-125960000D01*
X109530000Y-125960000D02*
X107770000Y-125960000D01*
X110820000Y-126570000D02*
X95120000Y-126570000D01*
X110820000Y-130870000D02*
X110820000Y-126570000D01*
X111830000Y-124960000D02*
X109530000Y-124960000D01*
X111830000Y-128270000D02*
X110820000Y-128270000D01*
X111830000Y-131580000D02*
X111830000Y-124960000D01*
%TO.C,J13*%
X167640000Y-62230000D02*
X167640000Y-54610000D01*
X167640000Y-54610000D02*
X157480000Y-54610000D01*
X157480000Y-62230000D02*
X167640000Y-62230000D01*
X157480000Y-55880000D02*
X167640000Y-55880000D01*
X157480000Y-54610000D02*
X157480000Y-62230000D01*
%TO.C,J1*%
X144530000Y-108150000D02*
X144530000Y-109400000D01*
X144830000Y-108450000D02*
X144830000Y-115070000D01*
X144830000Y-111760000D02*
X145840000Y-111760000D01*
X144830000Y-115070000D02*
X162550000Y-115070000D01*
X145780000Y-108150000D02*
X144530000Y-108150000D01*
X145840000Y-110060000D02*
X145840000Y-114360000D01*
X145840000Y-114360000D02*
X161540000Y-114360000D01*
X147130000Y-108450000D02*
X144830000Y-108450000D01*
X147130000Y-109450000D02*
X147130000Y-108450000D01*
X148890000Y-108450000D02*
X148890000Y-109450000D01*
X148890000Y-109450000D02*
X147130000Y-109450000D01*
X150990000Y-108450000D02*
X148890000Y-108450000D01*
X150990000Y-109450000D02*
X150990000Y-108450000D01*
X152890000Y-108850000D02*
X152890000Y-109450000D01*
X152890000Y-109450000D02*
X150990000Y-109450000D01*
X154490000Y-108850000D02*
X152890000Y-108850000D01*
X154490000Y-109450000D02*
X154490000Y-108850000D01*
X156390000Y-108450000D02*
X156390000Y-109450000D01*
X156390000Y-109450000D02*
X154490000Y-109450000D01*
X158490000Y-108450000D02*
X156390000Y-108450000D01*
X158490000Y-109450000D02*
X158490000Y-108450000D01*
X160250000Y-108450000D02*
X160250000Y-109450000D01*
X160250000Y-109450000D02*
X158490000Y-109450000D01*
X161540000Y-110060000D02*
X145840000Y-110060000D01*
X161540000Y-114360000D02*
X161540000Y-110060000D01*
X162550000Y-108450000D02*
X160250000Y-108450000D01*
X162550000Y-111760000D02*
X161540000Y-111760000D01*
X162550000Y-115070000D02*
X162550000Y-108450000D01*
%TO.C,J5*%
X93850000Y-117040000D02*
X93850000Y-118290000D01*
X94150000Y-117340000D02*
X94150000Y-123960000D01*
X94150000Y-120650000D02*
X95160000Y-120650000D01*
X94150000Y-123960000D02*
X111870000Y-123960000D01*
X95100000Y-117040000D02*
X93850000Y-117040000D01*
X95160000Y-118950000D02*
X95160000Y-123250000D01*
X95160000Y-123250000D02*
X110860000Y-123250000D01*
X96450000Y-117340000D02*
X94150000Y-117340000D01*
X96450000Y-118340000D02*
X96450000Y-117340000D01*
X98210000Y-117340000D02*
X98210000Y-118340000D01*
X98210000Y-118340000D02*
X96450000Y-118340000D01*
X100310000Y-117340000D02*
X98210000Y-117340000D01*
X100310000Y-118340000D02*
X100310000Y-117340000D01*
X102210000Y-117740000D02*
X102210000Y-118340000D01*
X102210000Y-118340000D02*
X100310000Y-118340000D01*
X103810000Y-117740000D02*
X102210000Y-117740000D01*
X103810000Y-118340000D02*
X103810000Y-117740000D01*
X105710000Y-117340000D02*
X105710000Y-118340000D01*
X105710000Y-118340000D02*
X103810000Y-118340000D01*
X107810000Y-117340000D02*
X105710000Y-117340000D01*
X107810000Y-118340000D02*
X107810000Y-117340000D01*
X109570000Y-117340000D02*
X109570000Y-118340000D01*
X109570000Y-118340000D02*
X107810000Y-118340000D01*
X110860000Y-118950000D02*
X95160000Y-118950000D01*
X110860000Y-123250000D02*
X110860000Y-118950000D01*
X111870000Y-117340000D02*
X109570000Y-117340000D01*
X111870000Y-120650000D02*
X110860000Y-120650000D01*
X111870000Y-123960000D02*
X111870000Y-117340000D01*
%TD*%
%LPC*%
D13*
%TO.C,BT1*%
X110490000Y-80942000D03*
X110490000Y-100942000D03*
%TD*%
D14*
%TO.C,R1*%
X157480000Y-92075000D03*
D15*
X167640000Y-92075000D03*
%TD*%
D16*
%TO.C,J9*%
X137360000Y-120650000D03*
D17*
X139860000Y-120650000D03*
X142360000Y-120650000D03*
X144860000Y-120650000D03*
X147360000Y-120650000D03*
X149860000Y-120650000D03*
%TD*%
D14*
%TO.C,R3*%
X157480000Y-95885000D03*
D15*
X167640000Y-95885000D03*
%TD*%
D18*
%TO.C,U1*%
X134435000Y-56010000D03*
D19*
X134735000Y-59040000D03*
X139585000Y-59040000D03*
D18*
X139885000Y-56010000D03*
D20*
X128270000Y-55880000D03*
D21*
X127370000Y-55880000D03*
D20*
X128270000Y-58420000D03*
D21*
X127370000Y-58420000D03*
D22*
X128270000Y-60960000D03*
D21*
X127370000Y-60960000D03*
D20*
X128270000Y-63500000D03*
D21*
X127370000Y-63500000D03*
D20*
X128270000Y-66040000D03*
D21*
X127370000Y-66040000D03*
D20*
X128270000Y-68580000D03*
D21*
X127370000Y-68580000D03*
D20*
X128270000Y-71120000D03*
D21*
X127370000Y-71120000D03*
D22*
X128270000Y-73660000D03*
D21*
X127370000Y-73660000D03*
D20*
X128270000Y-76200000D03*
D21*
X127370000Y-76200000D03*
D20*
X128270000Y-78740000D03*
D21*
X127370000Y-78740000D03*
D20*
X128270000Y-81280000D03*
D21*
X127370000Y-81280000D03*
D20*
X128270000Y-83820000D03*
D21*
X127370000Y-83820000D03*
D22*
X128270000Y-86360000D03*
D21*
X127370000Y-86360000D03*
D20*
X128270000Y-88900000D03*
D21*
X127370000Y-88900000D03*
D20*
X128270000Y-91440000D03*
D21*
X127370000Y-91440000D03*
D20*
X128270000Y-93980000D03*
D21*
X127370000Y-93980000D03*
D20*
X128270000Y-96520000D03*
D21*
X127370000Y-96520000D03*
D22*
X128270000Y-99060000D03*
D21*
X127370000Y-99060000D03*
D20*
X128270000Y-101600000D03*
D21*
X127370000Y-101600000D03*
D20*
X128270000Y-104140000D03*
D21*
X127370000Y-104140000D03*
D20*
X146050000Y-104140000D03*
D21*
X146950000Y-104140000D03*
D20*
X146050000Y-101600000D03*
D21*
X146950000Y-101600000D03*
D22*
X146050000Y-99060000D03*
D21*
X146950000Y-99060000D03*
D20*
X146050000Y-96520000D03*
D21*
X146950000Y-96520000D03*
D20*
X146050000Y-93980000D03*
D21*
X146950000Y-93980000D03*
D20*
X146050000Y-91440000D03*
D21*
X146950000Y-91440000D03*
D20*
X146050000Y-88900000D03*
D21*
X146950000Y-88900000D03*
D22*
X146050000Y-86360000D03*
D21*
X146950000Y-86360000D03*
D20*
X146050000Y-83820000D03*
D21*
X146950000Y-83820000D03*
D20*
X146050000Y-81280000D03*
D21*
X146950000Y-81280000D03*
D20*
X146050000Y-78740000D03*
D21*
X146950000Y-78740000D03*
D20*
X146050000Y-76200000D03*
D21*
X146950000Y-76200000D03*
D22*
X146050000Y-73660000D03*
D21*
X146950000Y-73660000D03*
D20*
X146050000Y-71120000D03*
D21*
X146950000Y-71120000D03*
D20*
X146050000Y-68580000D03*
D21*
X146950000Y-68580000D03*
D20*
X146050000Y-66040000D03*
D21*
X146950000Y-66040000D03*
D20*
X146050000Y-63500000D03*
D21*
X146950000Y-63500000D03*
D22*
X146050000Y-60960000D03*
D21*
X146950000Y-60960000D03*
D20*
X146050000Y-58420000D03*
D21*
X146950000Y-58420000D03*
D20*
X146050000Y-55880000D03*
D21*
X146950000Y-55880000D03*
%TD*%
D16*
%TO.C,J7*%
X115770000Y-120650000D03*
D17*
X118270000Y-120650000D03*
X120770000Y-120650000D03*
X123270000Y-120650000D03*
X125770000Y-120650000D03*
X128270000Y-120650000D03*
%TD*%
D16*
%TO.C,J4*%
X127000000Y-111760000D03*
D17*
X129500000Y-111760000D03*
X132000000Y-111760000D03*
X134500000Y-111760000D03*
X137000000Y-111760000D03*
X139500000Y-111760000D03*
%TD*%
D23*
%TO.C,U2*%
X101590000Y-106035000D03*
D15*
X101590000Y-103495000D03*
X101590000Y-100955000D03*
X101590000Y-98415000D03*
X93970000Y-98415000D03*
X93970000Y-100955000D03*
X93970000Y-103495000D03*
X93970000Y-106035000D03*
%TD*%
D24*
%TO.C,JP1*%
X165130000Y-104775000D03*
X163830000Y-104775000D03*
%TD*%
D16*
%TO.C,J3*%
X108110000Y-111760000D03*
D17*
X110610000Y-111760000D03*
X113110000Y-111760000D03*
X115610000Y-111760000D03*
X118110000Y-111760000D03*
X120610000Y-111760000D03*
%TD*%
D16*
%TO.C,J10*%
X137360000Y-128270000D03*
D17*
X139860000Y-128270000D03*
X142360000Y-128270000D03*
X144860000Y-128270000D03*
X147360000Y-128270000D03*
X149860000Y-128270000D03*
%TD*%
D25*
%TO.C,Y1*%
X105410000Y-104775000D03*
X105410000Y-103275000D03*
%TD*%
D26*
%TO.C,J2*%
X101600000Y-56832500D03*
X121920000Y-56832500D03*
D22*
X101600000Y-74612500D03*
D20*
X104140000Y-74612500D03*
X106680000Y-74612500D03*
X109220000Y-74612500D03*
X111760000Y-74612500D03*
X114300000Y-74612500D03*
X116840000Y-74612500D03*
X119380000Y-74612500D03*
X121920000Y-74612500D03*
%TD*%
D27*
%TO.C,D1*%
X157480000Y-66040000D03*
D28*
X157480000Y-76200000D03*
%TD*%
D14*
%TO.C,R2*%
X157480000Y-88265000D03*
D15*
X167640000Y-88265000D03*
%TD*%
D16*
%TO.C,J11*%
X156410000Y-120650000D03*
D17*
X158910000Y-120650000D03*
X161410000Y-120650000D03*
X163910000Y-120650000D03*
X166410000Y-120650000D03*
X168910000Y-120650000D03*
%TD*%
D16*
%TO.C,J12*%
X156410000Y-128270000D03*
D17*
X158910000Y-128270000D03*
X161410000Y-128270000D03*
X163910000Y-128270000D03*
X166410000Y-128270000D03*
X168910000Y-128270000D03*
%TD*%
D16*
%TO.C,J8*%
X115770000Y-128270000D03*
D17*
X118270000Y-128270000D03*
X120770000Y-128270000D03*
X123270000Y-128270000D03*
X125770000Y-128270000D03*
X128270000Y-128270000D03*
%TD*%
D29*
%TO.C,U3*%
X166370000Y-83630000D03*
D30*
X168910000Y-66970000D03*
D31*
X166370000Y-66970000D03*
X163830000Y-66970000D03*
%TD*%
D24*
%TO.C,JP2*%
X157465000Y-104775000D03*
X158765000Y-104775000D03*
%TD*%
D14*
%TO.C,R4*%
X157480000Y-99695000D03*
D15*
X167640000Y-99695000D03*
%TD*%
D16*
%TO.C,J6*%
X96720000Y-128270000D03*
D17*
X99220000Y-128270000D03*
X101720000Y-128270000D03*
X104220000Y-128270000D03*
X106720000Y-128270000D03*
X109220000Y-128270000D03*
%TD*%
D32*
%TO.C,J13*%
X165100000Y-58420000D03*
D33*
X160020000Y-58420000D03*
%TD*%
D34*
%TO.C,REF\u002A\u002A*%
X167640000Y-111760000D03*
%TD*%
%TO.C,REF\u002A\u002A*%
X99695000Y-112395000D03*
%TD*%
D16*
%TO.C,J1*%
X147440000Y-111760000D03*
D17*
X149940000Y-111760000D03*
X152440000Y-111760000D03*
X154940000Y-111760000D03*
X157440000Y-111760000D03*
X159940000Y-111760000D03*
%TD*%
D16*
%TO.C,J5*%
X96760000Y-120650000D03*
D17*
X99260000Y-120650000D03*
X101760000Y-120650000D03*
X104260000Y-120650000D03*
X106760000Y-120650000D03*
X109260000Y-120650000D03*
%TD*%
D34*
%TO.C,REF\u002A\u002A*%
X95250000Y-57150000D03*
%TD*%
%LPD*%
M02*
