%TF.GenerationSoftware,KiCad,Pcbnew,7.0.7*%
%TF.CreationDate,2023-09-20T10:34:12+01:00*%
%TF.ProjectId,telemetry board,74656c65-6d65-4747-9279-20626f617264,rev?*%
%TF.SameCoordinates,Original*%
%TF.FileFunction,Drillmap*%
%TF.FilePolarity,Positive*%
%FSLAX45Y45*%
G04 Gerber Fmt 4.5, Leading zero omitted, Abs format (unit mm)*
G04 Created by KiCad (PCBNEW 7.0.7) date 2023-09-20 10:34:12*
%MOMM*%
%LPD*%
G01*
G04 APERTURE LIST*
%ADD10C,0.100000*%
%ADD11C,0.200000*%
%ADD12C,0.150000*%
%ADD13C,0.180000*%
%ADD14C,0.254000*%
%ADD15C,0.320000*%
%ADD16C,0.350000*%
G04 APERTURE END LIST*
D10*
X9398000Y-5334000D02*
G75*
G03*
X9144000Y-5588000I0J-254000D01*
G01*
X17272000Y-5588000D02*
G75*
G03*
X17018000Y-5334000I-254000J0D01*
G01*
X9144000Y-5588000D02*
X9144000Y-13081000D01*
X17018000Y-5334000D02*
X9398000Y-5334000D01*
X9144000Y-13081000D02*
G75*
G03*
X9398000Y-13335000I254000J0D01*
G01*
X9398000Y-13335000D02*
X17018000Y-13335000D01*
X17272000Y-13081000D02*
X17272000Y-5588000D01*
X17018000Y-13335000D02*
G75*
G03*
X17272000Y-13081000I0J254000D01*
G01*
D11*
D12*
X13398500Y-5829000D02*
X13548500Y-5979000D01*
X13548500Y-5829000D02*
X13398500Y-5979000D01*
X13883500Y-5829000D02*
X14033500Y-5979000D01*
X14033500Y-5829000D02*
X13883500Y-5979000D01*
D13*
X13533500Y-5601000D02*
G75*
G03*
X13533500Y-5601000I-90000J0D01*
G01*
X14078500Y-5601000D02*
G75*
G03*
X14078500Y-5601000I-90000J0D01*
G01*
D14*
X10160000Y-5556250D02*
X10160000Y-5810250D01*
X10033000Y-5683250D02*
X10287000Y-5683250D01*
X12192000Y-5556250D02*
X12192000Y-5810250D01*
X12065000Y-5683250D02*
X12319000Y-5683250D01*
D15*
X9638138Y-5828138D02*
X9638138Y-5601862D01*
X9411862Y-5601862D01*
X9411862Y-5828138D01*
X9638138Y-5828138D01*
X10082638Y-11352638D02*
X10082638Y-11126362D01*
X9856362Y-11126362D01*
X9856362Y-11352638D01*
X10082638Y-11352638D01*
X16877138Y-11289138D02*
X16877138Y-11062862D01*
X16650862Y-11062862D01*
X16650862Y-11289138D01*
X16877138Y-11289138D01*
D16*
X16637000Y-8538000D02*
X16812000Y-8363000D01*
X16637000Y-8188000D01*
X16462000Y-8363000D01*
X16637000Y-8538000D01*
D11*
X9399777Y-13651484D02*
X9399777Y-13451484D01*
X9399777Y-13451484D02*
X9447396Y-13451484D01*
X9447396Y-13451484D02*
X9475967Y-13461008D01*
X9475967Y-13461008D02*
X9495015Y-13480055D01*
X9495015Y-13480055D02*
X9504539Y-13499103D01*
X9504539Y-13499103D02*
X9514063Y-13537198D01*
X9514063Y-13537198D02*
X9514063Y-13565769D01*
X9514063Y-13565769D02*
X9504539Y-13603865D01*
X9504539Y-13603865D02*
X9495015Y-13622912D01*
X9495015Y-13622912D02*
X9475967Y-13641960D01*
X9475967Y-13641960D02*
X9447396Y-13651484D01*
X9447396Y-13651484D02*
X9399777Y-13651484D01*
X9599777Y-13651484D02*
X9599777Y-13518150D01*
X9599777Y-13556246D02*
X9609301Y-13537198D01*
X9609301Y-13537198D02*
X9618824Y-13527674D01*
X9618824Y-13527674D02*
X9637872Y-13518150D01*
X9637872Y-13518150D02*
X9656920Y-13518150D01*
X9723586Y-13651484D02*
X9723586Y-13518150D01*
X9723586Y-13451484D02*
X9714063Y-13461008D01*
X9714063Y-13461008D02*
X9723586Y-13470531D01*
X9723586Y-13470531D02*
X9733110Y-13461008D01*
X9733110Y-13461008D02*
X9723586Y-13451484D01*
X9723586Y-13451484D02*
X9723586Y-13470531D01*
X9847396Y-13651484D02*
X9828348Y-13641960D01*
X9828348Y-13641960D02*
X9818824Y-13622912D01*
X9818824Y-13622912D02*
X9818824Y-13451484D01*
X9952158Y-13651484D02*
X9933110Y-13641960D01*
X9933110Y-13641960D02*
X9923586Y-13622912D01*
X9923586Y-13622912D02*
X9923586Y-13451484D01*
X10180729Y-13651484D02*
X10180729Y-13451484D01*
X10180729Y-13451484D02*
X10247396Y-13594341D01*
X10247396Y-13594341D02*
X10314063Y-13451484D01*
X10314063Y-13451484D02*
X10314063Y-13651484D01*
X10495015Y-13651484D02*
X10495015Y-13546722D01*
X10495015Y-13546722D02*
X10485491Y-13527674D01*
X10485491Y-13527674D02*
X10466444Y-13518150D01*
X10466444Y-13518150D02*
X10428348Y-13518150D01*
X10428348Y-13518150D02*
X10409301Y-13527674D01*
X10495015Y-13641960D02*
X10475967Y-13651484D01*
X10475967Y-13651484D02*
X10428348Y-13651484D01*
X10428348Y-13651484D02*
X10409301Y-13641960D01*
X10409301Y-13641960D02*
X10399777Y-13622912D01*
X10399777Y-13622912D02*
X10399777Y-13603865D01*
X10399777Y-13603865D02*
X10409301Y-13584817D01*
X10409301Y-13584817D02*
X10428348Y-13575293D01*
X10428348Y-13575293D02*
X10475967Y-13575293D01*
X10475967Y-13575293D02*
X10495015Y-13565769D01*
X10590253Y-13518150D02*
X10590253Y-13718150D01*
X10590253Y-13527674D02*
X10609301Y-13518150D01*
X10609301Y-13518150D02*
X10647396Y-13518150D01*
X10647396Y-13518150D02*
X10666444Y-13527674D01*
X10666444Y-13527674D02*
X10675967Y-13537198D01*
X10675967Y-13537198D02*
X10685491Y-13556246D01*
X10685491Y-13556246D02*
X10685491Y-13613388D01*
X10685491Y-13613388D02*
X10675967Y-13632436D01*
X10675967Y-13632436D02*
X10666444Y-13641960D01*
X10666444Y-13641960D02*
X10647396Y-13651484D01*
X10647396Y-13651484D02*
X10609301Y-13651484D01*
X10609301Y-13651484D02*
X10590253Y-13641960D01*
X10771205Y-13632436D02*
X10780729Y-13641960D01*
X10780729Y-13641960D02*
X10771205Y-13651484D01*
X10771205Y-13651484D02*
X10761682Y-13641960D01*
X10761682Y-13641960D02*
X10771205Y-13632436D01*
X10771205Y-13632436D02*
X10771205Y-13651484D01*
X10771205Y-13527674D02*
X10780729Y-13537198D01*
X10780729Y-13537198D02*
X10771205Y-13546722D01*
X10771205Y-13546722D02*
X10761682Y-13537198D01*
X10761682Y-13537198D02*
X10771205Y-13527674D01*
X10771205Y-13527674D02*
X10771205Y-13546722D01*
D12*
X8989000Y-13905000D02*
X9139000Y-14055000D01*
X9139000Y-13905000D02*
X8989000Y-14055000D01*
D11*
X9504539Y-14071484D02*
X9390253Y-14071484D01*
X9447396Y-14071484D02*
X9447396Y-13871484D01*
X9447396Y-13871484D02*
X9428348Y-13900055D01*
X9428348Y-13900055D02*
X9409301Y-13919103D01*
X9409301Y-13919103D02*
X9390253Y-13928627D01*
X9590253Y-14052436D02*
X9599777Y-14061960D01*
X9599777Y-14061960D02*
X9590253Y-14071484D01*
X9590253Y-14071484D02*
X9580729Y-14061960D01*
X9580729Y-14061960D02*
X9590253Y-14052436D01*
X9590253Y-14052436D02*
X9590253Y-14071484D01*
X9780729Y-13871484D02*
X9685491Y-13871484D01*
X9685491Y-13871484D02*
X9675967Y-13966722D01*
X9675967Y-13966722D02*
X9685491Y-13957198D01*
X9685491Y-13957198D02*
X9704539Y-13947674D01*
X9704539Y-13947674D02*
X9752158Y-13947674D01*
X9752158Y-13947674D02*
X9771205Y-13957198D01*
X9771205Y-13957198D02*
X9780729Y-13966722D01*
X9780729Y-13966722D02*
X9790253Y-13985769D01*
X9790253Y-13985769D02*
X9790253Y-14033388D01*
X9790253Y-14033388D02*
X9780729Y-14052436D01*
X9780729Y-14052436D02*
X9771205Y-14061960D01*
X9771205Y-14061960D02*
X9752158Y-14071484D01*
X9752158Y-14071484D02*
X9704539Y-14071484D01*
X9704539Y-14071484D02*
X9685491Y-14061960D01*
X9685491Y-14061960D02*
X9675967Y-14052436D01*
X9914063Y-13871484D02*
X9933110Y-13871484D01*
X9933110Y-13871484D02*
X9952158Y-13881008D01*
X9952158Y-13881008D02*
X9961682Y-13890531D01*
X9961682Y-13890531D02*
X9971205Y-13909579D01*
X9971205Y-13909579D02*
X9980729Y-13947674D01*
X9980729Y-13947674D02*
X9980729Y-13995293D01*
X9980729Y-13995293D02*
X9971205Y-14033388D01*
X9971205Y-14033388D02*
X9961682Y-14052436D01*
X9961682Y-14052436D02*
X9952158Y-14061960D01*
X9952158Y-14061960D02*
X9933110Y-14071484D01*
X9933110Y-14071484D02*
X9914063Y-14071484D01*
X9914063Y-14071484D02*
X9895015Y-14061960D01*
X9895015Y-14061960D02*
X9885491Y-14052436D01*
X9885491Y-14052436D02*
X9875967Y-14033388D01*
X9875967Y-14033388D02*
X9866444Y-13995293D01*
X9866444Y-13995293D02*
X9866444Y-13947674D01*
X9866444Y-13947674D02*
X9875967Y-13909579D01*
X9875967Y-13909579D02*
X9885491Y-13890531D01*
X9885491Y-13890531D02*
X9895015Y-13881008D01*
X9895015Y-13881008D02*
X9914063Y-13871484D01*
X10104539Y-13871484D02*
X10123586Y-13871484D01*
X10123586Y-13871484D02*
X10142634Y-13881008D01*
X10142634Y-13881008D02*
X10152158Y-13890531D01*
X10152158Y-13890531D02*
X10161682Y-13909579D01*
X10161682Y-13909579D02*
X10171205Y-13947674D01*
X10171205Y-13947674D02*
X10171205Y-13995293D01*
X10171205Y-13995293D02*
X10161682Y-14033388D01*
X10161682Y-14033388D02*
X10152158Y-14052436D01*
X10152158Y-14052436D02*
X10142634Y-14061960D01*
X10142634Y-14061960D02*
X10123586Y-14071484D01*
X10123586Y-14071484D02*
X10104539Y-14071484D01*
X10104539Y-14071484D02*
X10085491Y-14061960D01*
X10085491Y-14061960D02*
X10075967Y-14052436D01*
X10075967Y-14052436D02*
X10066444Y-14033388D01*
X10066444Y-14033388D02*
X10056920Y-13995293D01*
X10056920Y-13995293D02*
X10056920Y-13947674D01*
X10056920Y-13947674D02*
X10066444Y-13909579D01*
X10066444Y-13909579D02*
X10075967Y-13890531D01*
X10075967Y-13890531D02*
X10085491Y-13881008D01*
X10085491Y-13881008D02*
X10104539Y-13871484D01*
X10256920Y-14071484D02*
X10256920Y-13938150D01*
X10256920Y-13957198D02*
X10266444Y-13947674D01*
X10266444Y-13947674D02*
X10285491Y-13938150D01*
X10285491Y-13938150D02*
X10314063Y-13938150D01*
X10314063Y-13938150D02*
X10333110Y-13947674D01*
X10333110Y-13947674D02*
X10342634Y-13966722D01*
X10342634Y-13966722D02*
X10342634Y-14071484D01*
X10342634Y-13966722D02*
X10352158Y-13947674D01*
X10352158Y-13947674D02*
X10371205Y-13938150D01*
X10371205Y-13938150D02*
X10399777Y-13938150D01*
X10399777Y-13938150D02*
X10418825Y-13947674D01*
X10418825Y-13947674D02*
X10428348Y-13966722D01*
X10428348Y-13966722D02*
X10428348Y-14071484D01*
X10523586Y-14071484D02*
X10523586Y-13938150D01*
X10523586Y-13957198D02*
X10533110Y-13947674D01*
X10533110Y-13947674D02*
X10552158Y-13938150D01*
X10552158Y-13938150D02*
X10580729Y-13938150D01*
X10580729Y-13938150D02*
X10599777Y-13947674D01*
X10599777Y-13947674D02*
X10609301Y-13966722D01*
X10609301Y-13966722D02*
X10609301Y-14071484D01*
X10609301Y-13966722D02*
X10618825Y-13947674D01*
X10618825Y-13947674D02*
X10637872Y-13938150D01*
X10637872Y-13938150D02*
X10666444Y-13938150D01*
X10666444Y-13938150D02*
X10685491Y-13947674D01*
X10685491Y-13947674D02*
X10695015Y-13966722D01*
X10695015Y-13966722D02*
X10695015Y-14071484D01*
X11085491Y-13861960D02*
X10914063Y-14119103D01*
X11342634Y-13871484D02*
X11361682Y-13871484D01*
X11361682Y-13871484D02*
X11380729Y-13881008D01*
X11380729Y-13881008D02*
X11390253Y-13890531D01*
X11390253Y-13890531D02*
X11399777Y-13909579D01*
X11399777Y-13909579D02*
X11409301Y-13947674D01*
X11409301Y-13947674D02*
X11409301Y-13995293D01*
X11409301Y-13995293D02*
X11399777Y-14033388D01*
X11399777Y-14033388D02*
X11390253Y-14052436D01*
X11390253Y-14052436D02*
X11380729Y-14061960D01*
X11380729Y-14061960D02*
X11361682Y-14071484D01*
X11361682Y-14071484D02*
X11342634Y-14071484D01*
X11342634Y-14071484D02*
X11323586Y-14061960D01*
X11323586Y-14061960D02*
X11314063Y-14052436D01*
X11314063Y-14052436D02*
X11304539Y-14033388D01*
X11304539Y-14033388D02*
X11295015Y-13995293D01*
X11295015Y-13995293D02*
X11295015Y-13947674D01*
X11295015Y-13947674D02*
X11304539Y-13909579D01*
X11304539Y-13909579D02*
X11314063Y-13890531D01*
X11314063Y-13890531D02*
X11323586Y-13881008D01*
X11323586Y-13881008D02*
X11342634Y-13871484D01*
X11495015Y-14052436D02*
X11504539Y-14061960D01*
X11504539Y-14061960D02*
X11495015Y-14071484D01*
X11495015Y-14071484D02*
X11485491Y-14061960D01*
X11485491Y-14061960D02*
X11495015Y-14052436D01*
X11495015Y-14052436D02*
X11495015Y-14071484D01*
X11628348Y-13871484D02*
X11647396Y-13871484D01*
X11647396Y-13871484D02*
X11666444Y-13881008D01*
X11666444Y-13881008D02*
X11675967Y-13890531D01*
X11675967Y-13890531D02*
X11685491Y-13909579D01*
X11685491Y-13909579D02*
X11695015Y-13947674D01*
X11695015Y-13947674D02*
X11695015Y-13995293D01*
X11695015Y-13995293D02*
X11685491Y-14033388D01*
X11685491Y-14033388D02*
X11675967Y-14052436D01*
X11675967Y-14052436D02*
X11666444Y-14061960D01*
X11666444Y-14061960D02*
X11647396Y-14071484D01*
X11647396Y-14071484D02*
X11628348Y-14071484D01*
X11628348Y-14071484D02*
X11609301Y-14061960D01*
X11609301Y-14061960D02*
X11599777Y-14052436D01*
X11599777Y-14052436D02*
X11590253Y-14033388D01*
X11590253Y-14033388D02*
X11580729Y-13995293D01*
X11580729Y-13995293D02*
X11580729Y-13947674D01*
X11580729Y-13947674D02*
X11590253Y-13909579D01*
X11590253Y-13909579D02*
X11599777Y-13890531D01*
X11599777Y-13890531D02*
X11609301Y-13881008D01*
X11609301Y-13881008D02*
X11628348Y-13871484D01*
X11875967Y-13871484D02*
X11780729Y-13871484D01*
X11780729Y-13871484D02*
X11771206Y-13966722D01*
X11771206Y-13966722D02*
X11780729Y-13957198D01*
X11780729Y-13957198D02*
X11799777Y-13947674D01*
X11799777Y-13947674D02*
X11847396Y-13947674D01*
X11847396Y-13947674D02*
X11866444Y-13957198D01*
X11866444Y-13957198D02*
X11875967Y-13966722D01*
X11875967Y-13966722D02*
X11885491Y-13985769D01*
X11885491Y-13985769D02*
X11885491Y-14033388D01*
X11885491Y-14033388D02*
X11875967Y-14052436D01*
X11875967Y-14052436D02*
X11866444Y-14061960D01*
X11866444Y-14061960D02*
X11847396Y-14071484D01*
X11847396Y-14071484D02*
X11799777Y-14071484D01*
X11799777Y-14071484D02*
X11780729Y-14061960D01*
X11780729Y-14061960D02*
X11771206Y-14052436D01*
X11980729Y-14071484D02*
X12018825Y-14071484D01*
X12018825Y-14071484D02*
X12037872Y-14061960D01*
X12037872Y-14061960D02*
X12047396Y-14052436D01*
X12047396Y-14052436D02*
X12066444Y-14023865D01*
X12066444Y-14023865D02*
X12075967Y-13985769D01*
X12075967Y-13985769D02*
X12075967Y-13909579D01*
X12075967Y-13909579D02*
X12066444Y-13890531D01*
X12066444Y-13890531D02*
X12056920Y-13881008D01*
X12056920Y-13881008D02*
X12037872Y-13871484D01*
X12037872Y-13871484D02*
X11999777Y-13871484D01*
X11999777Y-13871484D02*
X11980729Y-13881008D01*
X11980729Y-13881008D02*
X11971206Y-13890531D01*
X11971206Y-13890531D02*
X11961682Y-13909579D01*
X11961682Y-13909579D02*
X11961682Y-13957198D01*
X11961682Y-13957198D02*
X11971206Y-13976246D01*
X11971206Y-13976246D02*
X11980729Y-13985769D01*
X11980729Y-13985769D02*
X11999777Y-13995293D01*
X11999777Y-13995293D02*
X12037872Y-13995293D01*
X12037872Y-13995293D02*
X12056920Y-13985769D01*
X12056920Y-13985769D02*
X12066444Y-13976246D01*
X12066444Y-13976246D02*
X12075967Y-13957198D01*
X12266444Y-14071484D02*
X12152158Y-14071484D01*
X12209301Y-14071484D02*
X12209301Y-13871484D01*
X12209301Y-13871484D02*
X12190253Y-13900055D01*
X12190253Y-13900055D02*
X12171206Y-13919103D01*
X12171206Y-13919103D02*
X12152158Y-13928627D01*
X12342634Y-13871484D02*
X12342634Y-13909579D01*
X12418825Y-13871484D02*
X12418825Y-13909579D01*
X12714063Y-14147674D02*
X12704539Y-14138150D01*
X12704539Y-14138150D02*
X12685491Y-14109579D01*
X12685491Y-14109579D02*
X12675968Y-14090531D01*
X12675968Y-14090531D02*
X12666444Y-14061960D01*
X12666444Y-14061960D02*
X12656920Y-14014341D01*
X12656920Y-14014341D02*
X12656920Y-13976246D01*
X12656920Y-13976246D02*
X12666444Y-13928627D01*
X12666444Y-13928627D02*
X12675968Y-13900055D01*
X12675968Y-13900055D02*
X12685491Y-13881008D01*
X12685491Y-13881008D02*
X12704539Y-13852436D01*
X12704539Y-13852436D02*
X12714063Y-13842912D01*
X12780729Y-13890531D02*
X12790253Y-13881008D01*
X12790253Y-13881008D02*
X12809301Y-13871484D01*
X12809301Y-13871484D02*
X12856920Y-13871484D01*
X12856920Y-13871484D02*
X12875968Y-13881008D01*
X12875968Y-13881008D02*
X12885491Y-13890531D01*
X12885491Y-13890531D02*
X12895015Y-13909579D01*
X12895015Y-13909579D02*
X12895015Y-13928627D01*
X12895015Y-13928627D02*
X12885491Y-13957198D01*
X12885491Y-13957198D02*
X12771206Y-14071484D01*
X12771206Y-14071484D02*
X12895015Y-14071484D01*
X13133110Y-14071484D02*
X13133110Y-13871484D01*
X13218825Y-14071484D02*
X13218825Y-13966722D01*
X13218825Y-13966722D02*
X13209301Y-13947674D01*
X13209301Y-13947674D02*
X13190253Y-13938150D01*
X13190253Y-13938150D02*
X13161682Y-13938150D01*
X13161682Y-13938150D02*
X13142634Y-13947674D01*
X13142634Y-13947674D02*
X13133110Y-13957198D01*
X13342634Y-14071484D02*
X13323587Y-14061960D01*
X13323587Y-14061960D02*
X13314063Y-14052436D01*
X13314063Y-14052436D02*
X13304539Y-14033388D01*
X13304539Y-14033388D02*
X13304539Y-13976246D01*
X13304539Y-13976246D02*
X13314063Y-13957198D01*
X13314063Y-13957198D02*
X13323587Y-13947674D01*
X13323587Y-13947674D02*
X13342634Y-13938150D01*
X13342634Y-13938150D02*
X13371206Y-13938150D01*
X13371206Y-13938150D02*
X13390253Y-13947674D01*
X13390253Y-13947674D02*
X13399777Y-13957198D01*
X13399777Y-13957198D02*
X13409301Y-13976246D01*
X13409301Y-13976246D02*
X13409301Y-14033388D01*
X13409301Y-14033388D02*
X13399777Y-14052436D01*
X13399777Y-14052436D02*
X13390253Y-14061960D01*
X13390253Y-14061960D02*
X13371206Y-14071484D01*
X13371206Y-14071484D02*
X13342634Y-14071484D01*
X13523587Y-14071484D02*
X13504539Y-14061960D01*
X13504539Y-14061960D02*
X13495015Y-14042912D01*
X13495015Y-14042912D02*
X13495015Y-13871484D01*
X13675968Y-14061960D02*
X13656920Y-14071484D01*
X13656920Y-14071484D02*
X13618825Y-14071484D01*
X13618825Y-14071484D02*
X13599777Y-14061960D01*
X13599777Y-14061960D02*
X13590253Y-14042912D01*
X13590253Y-14042912D02*
X13590253Y-13966722D01*
X13590253Y-13966722D02*
X13599777Y-13947674D01*
X13599777Y-13947674D02*
X13618825Y-13938150D01*
X13618825Y-13938150D02*
X13656920Y-13938150D01*
X13656920Y-13938150D02*
X13675968Y-13947674D01*
X13675968Y-13947674D02*
X13685491Y-13966722D01*
X13685491Y-13966722D02*
X13685491Y-13985769D01*
X13685491Y-13985769D02*
X13590253Y-14004817D01*
X13761682Y-14061960D02*
X13780730Y-14071484D01*
X13780730Y-14071484D02*
X13818825Y-14071484D01*
X13818825Y-14071484D02*
X13837872Y-14061960D01*
X13837872Y-14061960D02*
X13847396Y-14042912D01*
X13847396Y-14042912D02*
X13847396Y-14033388D01*
X13847396Y-14033388D02*
X13837872Y-14014341D01*
X13837872Y-14014341D02*
X13818825Y-14004817D01*
X13818825Y-14004817D02*
X13790253Y-14004817D01*
X13790253Y-14004817D02*
X13771206Y-13995293D01*
X13771206Y-13995293D02*
X13761682Y-13976246D01*
X13761682Y-13976246D02*
X13761682Y-13966722D01*
X13761682Y-13966722D02*
X13771206Y-13947674D01*
X13771206Y-13947674D02*
X13790253Y-13938150D01*
X13790253Y-13938150D02*
X13818825Y-13938150D01*
X13818825Y-13938150D02*
X13837872Y-13947674D01*
X13914063Y-14147674D02*
X13923587Y-14138150D01*
X13923587Y-14138150D02*
X13942634Y-14109579D01*
X13942634Y-14109579D02*
X13952158Y-14090531D01*
X13952158Y-14090531D02*
X13961682Y-14061960D01*
X13961682Y-14061960D02*
X13971206Y-14014341D01*
X13971206Y-14014341D02*
X13971206Y-13976246D01*
X13971206Y-13976246D02*
X13961682Y-13928627D01*
X13961682Y-13928627D02*
X13952158Y-13900055D01*
X13952158Y-13900055D02*
X13942634Y-13881008D01*
X13942634Y-13881008D02*
X13923587Y-13852436D01*
X13923587Y-13852436D02*
X13914063Y-13842912D01*
X14275968Y-14147674D02*
X14266444Y-14138150D01*
X14266444Y-14138150D02*
X14247396Y-14109579D01*
X14247396Y-14109579D02*
X14237872Y-14090531D01*
X14237872Y-14090531D02*
X14228349Y-14061960D01*
X14228349Y-14061960D02*
X14218825Y-14014341D01*
X14218825Y-14014341D02*
X14218825Y-13976246D01*
X14218825Y-13976246D02*
X14228349Y-13928627D01*
X14228349Y-13928627D02*
X14237872Y-13900055D01*
X14237872Y-13900055D02*
X14247396Y-13881008D01*
X14247396Y-13881008D02*
X14266444Y-13852436D01*
X14266444Y-13852436D02*
X14275968Y-13842912D01*
X14352158Y-13938150D02*
X14352158Y-14071484D01*
X14352158Y-13957198D02*
X14361682Y-13947674D01*
X14361682Y-13947674D02*
X14380730Y-13938150D01*
X14380730Y-13938150D02*
X14409301Y-13938150D01*
X14409301Y-13938150D02*
X14428349Y-13947674D01*
X14428349Y-13947674D02*
X14437872Y-13966722D01*
X14437872Y-13966722D02*
X14437872Y-14071484D01*
X14561682Y-14071484D02*
X14542634Y-14061960D01*
X14542634Y-14061960D02*
X14533111Y-14052436D01*
X14533111Y-14052436D02*
X14523587Y-14033388D01*
X14523587Y-14033388D02*
X14523587Y-13976246D01*
X14523587Y-13976246D02*
X14533111Y-13957198D01*
X14533111Y-13957198D02*
X14542634Y-13947674D01*
X14542634Y-13947674D02*
X14561682Y-13938150D01*
X14561682Y-13938150D02*
X14590253Y-13938150D01*
X14590253Y-13938150D02*
X14609301Y-13947674D01*
X14609301Y-13947674D02*
X14618825Y-13957198D01*
X14618825Y-13957198D02*
X14628349Y-13976246D01*
X14628349Y-13976246D02*
X14628349Y-14033388D01*
X14628349Y-14033388D02*
X14618825Y-14052436D01*
X14618825Y-14052436D02*
X14609301Y-14061960D01*
X14609301Y-14061960D02*
X14590253Y-14071484D01*
X14590253Y-14071484D02*
X14561682Y-14071484D01*
X14685492Y-13938150D02*
X14761682Y-13938150D01*
X14714063Y-13871484D02*
X14714063Y-14042912D01*
X14714063Y-14042912D02*
X14723587Y-14061960D01*
X14723587Y-14061960D02*
X14742634Y-14071484D01*
X14742634Y-14071484D02*
X14761682Y-14071484D01*
X14980730Y-13938150D02*
X14980730Y-14138150D01*
X14980730Y-13947674D02*
X14999777Y-13938150D01*
X14999777Y-13938150D02*
X15037873Y-13938150D01*
X15037873Y-13938150D02*
X15056920Y-13947674D01*
X15056920Y-13947674D02*
X15066444Y-13957198D01*
X15066444Y-13957198D02*
X15075968Y-13976246D01*
X15075968Y-13976246D02*
X15075968Y-14033388D01*
X15075968Y-14033388D02*
X15066444Y-14052436D01*
X15066444Y-14052436D02*
X15056920Y-14061960D01*
X15056920Y-14061960D02*
X15037873Y-14071484D01*
X15037873Y-14071484D02*
X14999777Y-14071484D01*
X14999777Y-14071484D02*
X14980730Y-14061960D01*
X15190253Y-14071484D02*
X15171206Y-14061960D01*
X15171206Y-14061960D02*
X15161682Y-14042912D01*
X15161682Y-14042912D02*
X15161682Y-13871484D01*
X15352158Y-14071484D02*
X15352158Y-13966722D01*
X15352158Y-13966722D02*
X15342634Y-13947674D01*
X15342634Y-13947674D02*
X15323587Y-13938150D01*
X15323587Y-13938150D02*
X15285492Y-13938150D01*
X15285492Y-13938150D02*
X15266444Y-13947674D01*
X15352158Y-14061960D02*
X15333111Y-14071484D01*
X15333111Y-14071484D02*
X15285492Y-14071484D01*
X15285492Y-14071484D02*
X15266444Y-14061960D01*
X15266444Y-14061960D02*
X15256920Y-14042912D01*
X15256920Y-14042912D02*
X15256920Y-14023865D01*
X15256920Y-14023865D02*
X15266444Y-14004817D01*
X15266444Y-14004817D02*
X15285492Y-13995293D01*
X15285492Y-13995293D02*
X15333111Y-13995293D01*
X15333111Y-13995293D02*
X15352158Y-13985769D01*
X15418825Y-13938150D02*
X15495015Y-13938150D01*
X15447396Y-13871484D02*
X15447396Y-14042912D01*
X15447396Y-14042912D02*
X15456920Y-14061960D01*
X15456920Y-14061960D02*
X15475968Y-14071484D01*
X15475968Y-14071484D02*
X15495015Y-14071484D01*
X15637873Y-14061960D02*
X15618825Y-14071484D01*
X15618825Y-14071484D02*
X15580730Y-14071484D01*
X15580730Y-14071484D02*
X15561682Y-14061960D01*
X15561682Y-14061960D02*
X15552158Y-14042912D01*
X15552158Y-14042912D02*
X15552158Y-13966722D01*
X15552158Y-13966722D02*
X15561682Y-13947674D01*
X15561682Y-13947674D02*
X15580730Y-13938150D01*
X15580730Y-13938150D02*
X15618825Y-13938150D01*
X15618825Y-13938150D02*
X15637873Y-13947674D01*
X15637873Y-13947674D02*
X15647396Y-13966722D01*
X15647396Y-13966722D02*
X15647396Y-13985769D01*
X15647396Y-13985769D02*
X15552158Y-14004817D01*
X15818825Y-14071484D02*
X15818825Y-13871484D01*
X15818825Y-14061960D02*
X15799777Y-14071484D01*
X15799777Y-14071484D02*
X15761682Y-14071484D01*
X15761682Y-14071484D02*
X15742634Y-14061960D01*
X15742634Y-14061960D02*
X15733111Y-14052436D01*
X15733111Y-14052436D02*
X15723587Y-14033388D01*
X15723587Y-14033388D02*
X15723587Y-13976246D01*
X15723587Y-13976246D02*
X15733111Y-13957198D01*
X15733111Y-13957198D02*
X15742634Y-13947674D01*
X15742634Y-13947674D02*
X15761682Y-13938150D01*
X15761682Y-13938150D02*
X15799777Y-13938150D01*
X15799777Y-13938150D02*
X15818825Y-13947674D01*
X15895015Y-14147674D02*
X15904539Y-14138150D01*
X15904539Y-14138150D02*
X15923587Y-14109579D01*
X15923587Y-14109579D02*
X15933111Y-14090531D01*
X15933111Y-14090531D02*
X15942634Y-14061960D01*
X15942634Y-14061960D02*
X15952158Y-14014341D01*
X15952158Y-14014341D02*
X15952158Y-13976246D01*
X15952158Y-13976246D02*
X15942634Y-13928627D01*
X15942634Y-13928627D02*
X15933111Y-13900055D01*
X15933111Y-13900055D02*
X15923587Y-13881008D01*
X15923587Y-13881008D02*
X15904539Y-13852436D01*
X15904539Y-13852436D02*
X15895015Y-13842912D01*
D13*
X9139000Y-14250000D02*
G75*
G03*
X9139000Y-14250000I-90000J0D01*
G01*
D11*
X9504539Y-14341484D02*
X9390253Y-14341484D01*
X9447396Y-14341484D02*
X9447396Y-14141484D01*
X9447396Y-14141484D02*
X9428348Y-14170055D01*
X9428348Y-14170055D02*
X9409301Y-14189103D01*
X9409301Y-14189103D02*
X9390253Y-14198627D01*
X9590253Y-14322436D02*
X9599777Y-14331960D01*
X9599777Y-14331960D02*
X9590253Y-14341484D01*
X9590253Y-14341484D02*
X9580729Y-14331960D01*
X9580729Y-14331960D02*
X9590253Y-14322436D01*
X9590253Y-14322436D02*
X9590253Y-14341484D01*
X9714063Y-14227198D02*
X9695015Y-14217674D01*
X9695015Y-14217674D02*
X9685491Y-14208150D01*
X9685491Y-14208150D02*
X9675967Y-14189103D01*
X9675967Y-14189103D02*
X9675967Y-14179579D01*
X9675967Y-14179579D02*
X9685491Y-14160531D01*
X9685491Y-14160531D02*
X9695015Y-14151008D01*
X9695015Y-14151008D02*
X9714063Y-14141484D01*
X9714063Y-14141484D02*
X9752158Y-14141484D01*
X9752158Y-14141484D02*
X9771205Y-14151008D01*
X9771205Y-14151008D02*
X9780729Y-14160531D01*
X9780729Y-14160531D02*
X9790253Y-14179579D01*
X9790253Y-14179579D02*
X9790253Y-14189103D01*
X9790253Y-14189103D02*
X9780729Y-14208150D01*
X9780729Y-14208150D02*
X9771205Y-14217674D01*
X9771205Y-14217674D02*
X9752158Y-14227198D01*
X9752158Y-14227198D02*
X9714063Y-14227198D01*
X9714063Y-14227198D02*
X9695015Y-14236722D01*
X9695015Y-14236722D02*
X9685491Y-14246246D01*
X9685491Y-14246246D02*
X9675967Y-14265293D01*
X9675967Y-14265293D02*
X9675967Y-14303388D01*
X9675967Y-14303388D02*
X9685491Y-14322436D01*
X9685491Y-14322436D02*
X9695015Y-14331960D01*
X9695015Y-14331960D02*
X9714063Y-14341484D01*
X9714063Y-14341484D02*
X9752158Y-14341484D01*
X9752158Y-14341484D02*
X9771205Y-14331960D01*
X9771205Y-14331960D02*
X9780729Y-14322436D01*
X9780729Y-14322436D02*
X9790253Y-14303388D01*
X9790253Y-14303388D02*
X9790253Y-14265293D01*
X9790253Y-14265293D02*
X9780729Y-14246246D01*
X9780729Y-14246246D02*
X9771205Y-14236722D01*
X9771205Y-14236722D02*
X9752158Y-14227198D01*
X9914063Y-14141484D02*
X9933110Y-14141484D01*
X9933110Y-14141484D02*
X9952158Y-14151008D01*
X9952158Y-14151008D02*
X9961682Y-14160531D01*
X9961682Y-14160531D02*
X9971205Y-14179579D01*
X9971205Y-14179579D02*
X9980729Y-14217674D01*
X9980729Y-14217674D02*
X9980729Y-14265293D01*
X9980729Y-14265293D02*
X9971205Y-14303388D01*
X9971205Y-14303388D02*
X9961682Y-14322436D01*
X9961682Y-14322436D02*
X9952158Y-14331960D01*
X9952158Y-14331960D02*
X9933110Y-14341484D01*
X9933110Y-14341484D02*
X9914063Y-14341484D01*
X9914063Y-14341484D02*
X9895015Y-14331960D01*
X9895015Y-14331960D02*
X9885491Y-14322436D01*
X9885491Y-14322436D02*
X9875967Y-14303388D01*
X9875967Y-14303388D02*
X9866444Y-14265293D01*
X9866444Y-14265293D02*
X9866444Y-14217674D01*
X9866444Y-14217674D02*
X9875967Y-14179579D01*
X9875967Y-14179579D02*
X9885491Y-14160531D01*
X9885491Y-14160531D02*
X9895015Y-14151008D01*
X9895015Y-14151008D02*
X9914063Y-14141484D01*
X10104539Y-14141484D02*
X10123586Y-14141484D01*
X10123586Y-14141484D02*
X10142634Y-14151008D01*
X10142634Y-14151008D02*
X10152158Y-14160531D01*
X10152158Y-14160531D02*
X10161682Y-14179579D01*
X10161682Y-14179579D02*
X10171205Y-14217674D01*
X10171205Y-14217674D02*
X10171205Y-14265293D01*
X10171205Y-14265293D02*
X10161682Y-14303388D01*
X10161682Y-14303388D02*
X10152158Y-14322436D01*
X10152158Y-14322436D02*
X10142634Y-14331960D01*
X10142634Y-14331960D02*
X10123586Y-14341484D01*
X10123586Y-14341484D02*
X10104539Y-14341484D01*
X10104539Y-14341484D02*
X10085491Y-14331960D01*
X10085491Y-14331960D02*
X10075967Y-14322436D01*
X10075967Y-14322436D02*
X10066444Y-14303388D01*
X10066444Y-14303388D02*
X10056920Y-14265293D01*
X10056920Y-14265293D02*
X10056920Y-14217674D01*
X10056920Y-14217674D02*
X10066444Y-14179579D01*
X10066444Y-14179579D02*
X10075967Y-14160531D01*
X10075967Y-14160531D02*
X10085491Y-14151008D01*
X10085491Y-14151008D02*
X10104539Y-14141484D01*
X10256920Y-14341484D02*
X10256920Y-14208150D01*
X10256920Y-14227198D02*
X10266444Y-14217674D01*
X10266444Y-14217674D02*
X10285491Y-14208150D01*
X10285491Y-14208150D02*
X10314063Y-14208150D01*
X10314063Y-14208150D02*
X10333110Y-14217674D01*
X10333110Y-14217674D02*
X10342634Y-14236722D01*
X10342634Y-14236722D02*
X10342634Y-14341484D01*
X10342634Y-14236722D02*
X10352158Y-14217674D01*
X10352158Y-14217674D02*
X10371205Y-14208150D01*
X10371205Y-14208150D02*
X10399777Y-14208150D01*
X10399777Y-14208150D02*
X10418825Y-14217674D01*
X10418825Y-14217674D02*
X10428348Y-14236722D01*
X10428348Y-14236722D02*
X10428348Y-14341484D01*
X10523586Y-14341484D02*
X10523586Y-14208150D01*
X10523586Y-14227198D02*
X10533110Y-14217674D01*
X10533110Y-14217674D02*
X10552158Y-14208150D01*
X10552158Y-14208150D02*
X10580729Y-14208150D01*
X10580729Y-14208150D02*
X10599777Y-14217674D01*
X10599777Y-14217674D02*
X10609301Y-14236722D01*
X10609301Y-14236722D02*
X10609301Y-14341484D01*
X10609301Y-14236722D02*
X10618825Y-14217674D01*
X10618825Y-14217674D02*
X10637872Y-14208150D01*
X10637872Y-14208150D02*
X10666444Y-14208150D01*
X10666444Y-14208150D02*
X10685491Y-14217674D01*
X10685491Y-14217674D02*
X10695015Y-14236722D01*
X10695015Y-14236722D02*
X10695015Y-14341484D01*
X11085491Y-14131960D02*
X10914063Y-14389103D01*
X11342634Y-14141484D02*
X11361682Y-14141484D01*
X11361682Y-14141484D02*
X11380729Y-14151008D01*
X11380729Y-14151008D02*
X11390253Y-14160531D01*
X11390253Y-14160531D02*
X11399777Y-14179579D01*
X11399777Y-14179579D02*
X11409301Y-14217674D01*
X11409301Y-14217674D02*
X11409301Y-14265293D01*
X11409301Y-14265293D02*
X11399777Y-14303388D01*
X11399777Y-14303388D02*
X11390253Y-14322436D01*
X11390253Y-14322436D02*
X11380729Y-14331960D01*
X11380729Y-14331960D02*
X11361682Y-14341484D01*
X11361682Y-14341484D02*
X11342634Y-14341484D01*
X11342634Y-14341484D02*
X11323586Y-14331960D01*
X11323586Y-14331960D02*
X11314063Y-14322436D01*
X11314063Y-14322436D02*
X11304539Y-14303388D01*
X11304539Y-14303388D02*
X11295015Y-14265293D01*
X11295015Y-14265293D02*
X11295015Y-14217674D01*
X11295015Y-14217674D02*
X11304539Y-14179579D01*
X11304539Y-14179579D02*
X11314063Y-14160531D01*
X11314063Y-14160531D02*
X11323586Y-14151008D01*
X11323586Y-14151008D02*
X11342634Y-14141484D01*
X11495015Y-14322436D02*
X11504539Y-14331960D01*
X11504539Y-14331960D02*
X11495015Y-14341484D01*
X11495015Y-14341484D02*
X11485491Y-14331960D01*
X11485491Y-14331960D02*
X11495015Y-14322436D01*
X11495015Y-14322436D02*
X11495015Y-14341484D01*
X11628348Y-14141484D02*
X11647396Y-14141484D01*
X11647396Y-14141484D02*
X11666444Y-14151008D01*
X11666444Y-14151008D02*
X11675967Y-14160531D01*
X11675967Y-14160531D02*
X11685491Y-14179579D01*
X11685491Y-14179579D02*
X11695015Y-14217674D01*
X11695015Y-14217674D02*
X11695015Y-14265293D01*
X11695015Y-14265293D02*
X11685491Y-14303388D01*
X11685491Y-14303388D02*
X11675967Y-14322436D01*
X11675967Y-14322436D02*
X11666444Y-14331960D01*
X11666444Y-14331960D02*
X11647396Y-14341484D01*
X11647396Y-14341484D02*
X11628348Y-14341484D01*
X11628348Y-14341484D02*
X11609301Y-14331960D01*
X11609301Y-14331960D02*
X11599777Y-14322436D01*
X11599777Y-14322436D02*
X11590253Y-14303388D01*
X11590253Y-14303388D02*
X11580729Y-14265293D01*
X11580729Y-14265293D02*
X11580729Y-14217674D01*
X11580729Y-14217674D02*
X11590253Y-14179579D01*
X11590253Y-14179579D02*
X11599777Y-14160531D01*
X11599777Y-14160531D02*
X11609301Y-14151008D01*
X11609301Y-14151008D02*
X11628348Y-14141484D01*
X11761682Y-14141484D02*
X11895015Y-14141484D01*
X11895015Y-14141484D02*
X11809301Y-14341484D01*
X12009301Y-14141484D02*
X12028348Y-14141484D01*
X12028348Y-14141484D02*
X12047396Y-14151008D01*
X12047396Y-14151008D02*
X12056920Y-14160531D01*
X12056920Y-14160531D02*
X12066444Y-14179579D01*
X12066444Y-14179579D02*
X12075967Y-14217674D01*
X12075967Y-14217674D02*
X12075967Y-14265293D01*
X12075967Y-14265293D02*
X12066444Y-14303388D01*
X12066444Y-14303388D02*
X12056920Y-14322436D01*
X12056920Y-14322436D02*
X12047396Y-14331960D01*
X12047396Y-14331960D02*
X12028348Y-14341484D01*
X12028348Y-14341484D02*
X12009301Y-14341484D01*
X12009301Y-14341484D02*
X11990253Y-14331960D01*
X11990253Y-14331960D02*
X11980729Y-14322436D01*
X11980729Y-14322436D02*
X11971206Y-14303388D01*
X11971206Y-14303388D02*
X11961682Y-14265293D01*
X11961682Y-14265293D02*
X11961682Y-14217674D01*
X11961682Y-14217674D02*
X11971206Y-14179579D01*
X11971206Y-14179579D02*
X11980729Y-14160531D01*
X11980729Y-14160531D02*
X11990253Y-14151008D01*
X11990253Y-14151008D02*
X12009301Y-14141484D01*
X12171206Y-14341484D02*
X12209301Y-14341484D01*
X12209301Y-14341484D02*
X12228348Y-14331960D01*
X12228348Y-14331960D02*
X12237872Y-14322436D01*
X12237872Y-14322436D02*
X12256920Y-14293865D01*
X12256920Y-14293865D02*
X12266444Y-14255769D01*
X12266444Y-14255769D02*
X12266444Y-14179579D01*
X12266444Y-14179579D02*
X12256920Y-14160531D01*
X12256920Y-14160531D02*
X12247396Y-14151008D01*
X12247396Y-14151008D02*
X12228348Y-14141484D01*
X12228348Y-14141484D02*
X12190253Y-14141484D01*
X12190253Y-14141484D02*
X12171206Y-14151008D01*
X12171206Y-14151008D02*
X12161682Y-14160531D01*
X12161682Y-14160531D02*
X12152158Y-14179579D01*
X12152158Y-14179579D02*
X12152158Y-14227198D01*
X12152158Y-14227198D02*
X12161682Y-14246246D01*
X12161682Y-14246246D02*
X12171206Y-14255769D01*
X12171206Y-14255769D02*
X12190253Y-14265293D01*
X12190253Y-14265293D02*
X12228348Y-14265293D01*
X12228348Y-14265293D02*
X12247396Y-14255769D01*
X12247396Y-14255769D02*
X12256920Y-14246246D01*
X12256920Y-14246246D02*
X12266444Y-14227198D01*
X12342634Y-14141484D02*
X12342634Y-14179579D01*
X12418825Y-14141484D02*
X12418825Y-14179579D01*
X12714063Y-14417674D02*
X12704539Y-14408150D01*
X12704539Y-14408150D02*
X12685491Y-14379579D01*
X12685491Y-14379579D02*
X12675968Y-14360531D01*
X12675968Y-14360531D02*
X12666444Y-14331960D01*
X12666444Y-14331960D02*
X12656920Y-14284341D01*
X12656920Y-14284341D02*
X12656920Y-14246246D01*
X12656920Y-14246246D02*
X12666444Y-14198627D01*
X12666444Y-14198627D02*
X12675968Y-14170055D01*
X12675968Y-14170055D02*
X12685491Y-14151008D01*
X12685491Y-14151008D02*
X12704539Y-14122436D01*
X12704539Y-14122436D02*
X12714063Y-14112912D01*
X12780729Y-14160531D02*
X12790253Y-14151008D01*
X12790253Y-14151008D02*
X12809301Y-14141484D01*
X12809301Y-14141484D02*
X12856920Y-14141484D01*
X12856920Y-14141484D02*
X12875968Y-14151008D01*
X12875968Y-14151008D02*
X12885491Y-14160531D01*
X12885491Y-14160531D02*
X12895015Y-14179579D01*
X12895015Y-14179579D02*
X12895015Y-14198627D01*
X12895015Y-14198627D02*
X12885491Y-14227198D01*
X12885491Y-14227198D02*
X12771206Y-14341484D01*
X12771206Y-14341484D02*
X12895015Y-14341484D01*
X13133110Y-14341484D02*
X13133110Y-14141484D01*
X13218825Y-14341484D02*
X13218825Y-14236722D01*
X13218825Y-14236722D02*
X13209301Y-14217674D01*
X13209301Y-14217674D02*
X13190253Y-14208150D01*
X13190253Y-14208150D02*
X13161682Y-14208150D01*
X13161682Y-14208150D02*
X13142634Y-14217674D01*
X13142634Y-14217674D02*
X13133110Y-14227198D01*
X13342634Y-14341484D02*
X13323587Y-14331960D01*
X13323587Y-14331960D02*
X13314063Y-14322436D01*
X13314063Y-14322436D02*
X13304539Y-14303388D01*
X13304539Y-14303388D02*
X13304539Y-14246246D01*
X13304539Y-14246246D02*
X13314063Y-14227198D01*
X13314063Y-14227198D02*
X13323587Y-14217674D01*
X13323587Y-14217674D02*
X13342634Y-14208150D01*
X13342634Y-14208150D02*
X13371206Y-14208150D01*
X13371206Y-14208150D02*
X13390253Y-14217674D01*
X13390253Y-14217674D02*
X13399777Y-14227198D01*
X13399777Y-14227198D02*
X13409301Y-14246246D01*
X13409301Y-14246246D02*
X13409301Y-14303388D01*
X13409301Y-14303388D02*
X13399777Y-14322436D01*
X13399777Y-14322436D02*
X13390253Y-14331960D01*
X13390253Y-14331960D02*
X13371206Y-14341484D01*
X13371206Y-14341484D02*
X13342634Y-14341484D01*
X13523587Y-14341484D02*
X13504539Y-14331960D01*
X13504539Y-14331960D02*
X13495015Y-14312912D01*
X13495015Y-14312912D02*
X13495015Y-14141484D01*
X13675968Y-14331960D02*
X13656920Y-14341484D01*
X13656920Y-14341484D02*
X13618825Y-14341484D01*
X13618825Y-14341484D02*
X13599777Y-14331960D01*
X13599777Y-14331960D02*
X13590253Y-14312912D01*
X13590253Y-14312912D02*
X13590253Y-14236722D01*
X13590253Y-14236722D02*
X13599777Y-14217674D01*
X13599777Y-14217674D02*
X13618825Y-14208150D01*
X13618825Y-14208150D02*
X13656920Y-14208150D01*
X13656920Y-14208150D02*
X13675968Y-14217674D01*
X13675968Y-14217674D02*
X13685491Y-14236722D01*
X13685491Y-14236722D02*
X13685491Y-14255769D01*
X13685491Y-14255769D02*
X13590253Y-14274817D01*
X13761682Y-14331960D02*
X13780730Y-14341484D01*
X13780730Y-14341484D02*
X13818825Y-14341484D01*
X13818825Y-14341484D02*
X13837872Y-14331960D01*
X13837872Y-14331960D02*
X13847396Y-14312912D01*
X13847396Y-14312912D02*
X13847396Y-14303388D01*
X13847396Y-14303388D02*
X13837872Y-14284341D01*
X13837872Y-14284341D02*
X13818825Y-14274817D01*
X13818825Y-14274817D02*
X13790253Y-14274817D01*
X13790253Y-14274817D02*
X13771206Y-14265293D01*
X13771206Y-14265293D02*
X13761682Y-14246246D01*
X13761682Y-14246246D02*
X13761682Y-14236722D01*
X13761682Y-14236722D02*
X13771206Y-14217674D01*
X13771206Y-14217674D02*
X13790253Y-14208150D01*
X13790253Y-14208150D02*
X13818825Y-14208150D01*
X13818825Y-14208150D02*
X13837872Y-14217674D01*
X13914063Y-14417674D02*
X13923587Y-14408150D01*
X13923587Y-14408150D02*
X13942634Y-14379579D01*
X13942634Y-14379579D02*
X13952158Y-14360531D01*
X13952158Y-14360531D02*
X13961682Y-14331960D01*
X13961682Y-14331960D02*
X13971206Y-14284341D01*
X13971206Y-14284341D02*
X13971206Y-14246246D01*
X13971206Y-14246246D02*
X13961682Y-14198627D01*
X13961682Y-14198627D02*
X13952158Y-14170055D01*
X13952158Y-14170055D02*
X13942634Y-14151008D01*
X13942634Y-14151008D02*
X13923587Y-14122436D01*
X13923587Y-14122436D02*
X13914063Y-14112912D01*
X14275968Y-14417674D02*
X14266444Y-14408150D01*
X14266444Y-14408150D02*
X14247396Y-14379579D01*
X14247396Y-14379579D02*
X14237872Y-14360531D01*
X14237872Y-14360531D02*
X14228349Y-14331960D01*
X14228349Y-14331960D02*
X14218825Y-14284341D01*
X14218825Y-14284341D02*
X14218825Y-14246246D01*
X14218825Y-14246246D02*
X14228349Y-14198627D01*
X14228349Y-14198627D02*
X14237872Y-14170055D01*
X14237872Y-14170055D02*
X14247396Y-14151008D01*
X14247396Y-14151008D02*
X14266444Y-14122436D01*
X14266444Y-14122436D02*
X14275968Y-14112912D01*
X14352158Y-14208150D02*
X14352158Y-14341484D01*
X14352158Y-14227198D02*
X14361682Y-14217674D01*
X14361682Y-14217674D02*
X14380730Y-14208150D01*
X14380730Y-14208150D02*
X14409301Y-14208150D01*
X14409301Y-14208150D02*
X14428349Y-14217674D01*
X14428349Y-14217674D02*
X14437872Y-14236722D01*
X14437872Y-14236722D02*
X14437872Y-14341484D01*
X14561682Y-14341484D02*
X14542634Y-14331960D01*
X14542634Y-14331960D02*
X14533111Y-14322436D01*
X14533111Y-14322436D02*
X14523587Y-14303388D01*
X14523587Y-14303388D02*
X14523587Y-14246246D01*
X14523587Y-14246246D02*
X14533111Y-14227198D01*
X14533111Y-14227198D02*
X14542634Y-14217674D01*
X14542634Y-14217674D02*
X14561682Y-14208150D01*
X14561682Y-14208150D02*
X14590253Y-14208150D01*
X14590253Y-14208150D02*
X14609301Y-14217674D01*
X14609301Y-14217674D02*
X14618825Y-14227198D01*
X14618825Y-14227198D02*
X14628349Y-14246246D01*
X14628349Y-14246246D02*
X14628349Y-14303388D01*
X14628349Y-14303388D02*
X14618825Y-14322436D01*
X14618825Y-14322436D02*
X14609301Y-14331960D01*
X14609301Y-14331960D02*
X14590253Y-14341484D01*
X14590253Y-14341484D02*
X14561682Y-14341484D01*
X14685492Y-14208150D02*
X14761682Y-14208150D01*
X14714063Y-14141484D02*
X14714063Y-14312912D01*
X14714063Y-14312912D02*
X14723587Y-14331960D01*
X14723587Y-14331960D02*
X14742634Y-14341484D01*
X14742634Y-14341484D02*
X14761682Y-14341484D01*
X14980730Y-14208150D02*
X14980730Y-14408150D01*
X14980730Y-14217674D02*
X14999777Y-14208150D01*
X14999777Y-14208150D02*
X15037873Y-14208150D01*
X15037873Y-14208150D02*
X15056920Y-14217674D01*
X15056920Y-14217674D02*
X15066444Y-14227198D01*
X15066444Y-14227198D02*
X15075968Y-14246246D01*
X15075968Y-14246246D02*
X15075968Y-14303388D01*
X15075968Y-14303388D02*
X15066444Y-14322436D01*
X15066444Y-14322436D02*
X15056920Y-14331960D01*
X15056920Y-14331960D02*
X15037873Y-14341484D01*
X15037873Y-14341484D02*
X14999777Y-14341484D01*
X14999777Y-14341484D02*
X14980730Y-14331960D01*
X15190253Y-14341484D02*
X15171206Y-14331960D01*
X15171206Y-14331960D02*
X15161682Y-14312912D01*
X15161682Y-14312912D02*
X15161682Y-14141484D01*
X15352158Y-14341484D02*
X15352158Y-14236722D01*
X15352158Y-14236722D02*
X15342634Y-14217674D01*
X15342634Y-14217674D02*
X15323587Y-14208150D01*
X15323587Y-14208150D02*
X15285492Y-14208150D01*
X15285492Y-14208150D02*
X15266444Y-14217674D01*
X15352158Y-14331960D02*
X15333111Y-14341484D01*
X15333111Y-14341484D02*
X15285492Y-14341484D01*
X15285492Y-14341484D02*
X15266444Y-14331960D01*
X15266444Y-14331960D02*
X15256920Y-14312912D01*
X15256920Y-14312912D02*
X15256920Y-14293865D01*
X15256920Y-14293865D02*
X15266444Y-14274817D01*
X15266444Y-14274817D02*
X15285492Y-14265293D01*
X15285492Y-14265293D02*
X15333111Y-14265293D01*
X15333111Y-14265293D02*
X15352158Y-14255769D01*
X15418825Y-14208150D02*
X15495015Y-14208150D01*
X15447396Y-14141484D02*
X15447396Y-14312912D01*
X15447396Y-14312912D02*
X15456920Y-14331960D01*
X15456920Y-14331960D02*
X15475968Y-14341484D01*
X15475968Y-14341484D02*
X15495015Y-14341484D01*
X15637873Y-14331960D02*
X15618825Y-14341484D01*
X15618825Y-14341484D02*
X15580730Y-14341484D01*
X15580730Y-14341484D02*
X15561682Y-14331960D01*
X15561682Y-14331960D02*
X15552158Y-14312912D01*
X15552158Y-14312912D02*
X15552158Y-14236722D01*
X15552158Y-14236722D02*
X15561682Y-14217674D01*
X15561682Y-14217674D02*
X15580730Y-14208150D01*
X15580730Y-14208150D02*
X15618825Y-14208150D01*
X15618825Y-14208150D02*
X15637873Y-14217674D01*
X15637873Y-14217674D02*
X15647396Y-14236722D01*
X15647396Y-14236722D02*
X15647396Y-14255769D01*
X15647396Y-14255769D02*
X15552158Y-14274817D01*
X15818825Y-14341484D02*
X15818825Y-14141484D01*
X15818825Y-14331960D02*
X15799777Y-14341484D01*
X15799777Y-14341484D02*
X15761682Y-14341484D01*
X15761682Y-14341484D02*
X15742634Y-14331960D01*
X15742634Y-14331960D02*
X15733111Y-14322436D01*
X15733111Y-14322436D02*
X15723587Y-14303388D01*
X15723587Y-14303388D02*
X15723587Y-14246246D01*
X15723587Y-14246246D02*
X15733111Y-14227198D01*
X15733111Y-14227198D02*
X15742634Y-14217674D01*
X15742634Y-14217674D02*
X15761682Y-14208150D01*
X15761682Y-14208150D02*
X15799777Y-14208150D01*
X15799777Y-14208150D02*
X15818825Y-14217674D01*
X15895015Y-14417674D02*
X15904539Y-14408150D01*
X15904539Y-14408150D02*
X15923587Y-14379579D01*
X15923587Y-14379579D02*
X15933111Y-14360531D01*
X15933111Y-14360531D02*
X15942634Y-14331960D01*
X15942634Y-14331960D02*
X15952158Y-14284341D01*
X15952158Y-14284341D02*
X15952158Y-14246246D01*
X15952158Y-14246246D02*
X15942634Y-14198627D01*
X15942634Y-14198627D02*
X15933111Y-14170055D01*
X15933111Y-14170055D02*
X15923587Y-14151008D01*
X15923587Y-14151008D02*
X15904539Y-14122436D01*
X15904539Y-14122436D02*
X15895015Y-14112912D01*
X9039000Y-14450000D02*
X9039000Y-14650000D01*
X8939000Y-14550000D02*
X9139000Y-14550000D01*
X9390253Y-14460531D02*
X9399777Y-14451008D01*
X9399777Y-14451008D02*
X9418824Y-14441484D01*
X9418824Y-14441484D02*
X9466444Y-14441484D01*
X9466444Y-14441484D02*
X9485491Y-14451008D01*
X9485491Y-14451008D02*
X9495015Y-14460531D01*
X9495015Y-14460531D02*
X9504539Y-14479579D01*
X9504539Y-14479579D02*
X9504539Y-14498627D01*
X9504539Y-14498627D02*
X9495015Y-14527198D01*
X9495015Y-14527198D02*
X9380729Y-14641484D01*
X9380729Y-14641484D02*
X9504539Y-14641484D01*
X9590253Y-14622436D02*
X9599777Y-14631960D01*
X9599777Y-14631960D02*
X9590253Y-14641484D01*
X9590253Y-14641484D02*
X9580729Y-14631960D01*
X9580729Y-14631960D02*
X9590253Y-14622436D01*
X9590253Y-14622436D02*
X9590253Y-14641484D01*
X9780729Y-14441484D02*
X9685491Y-14441484D01*
X9685491Y-14441484D02*
X9675967Y-14536722D01*
X9675967Y-14536722D02*
X9685491Y-14527198D01*
X9685491Y-14527198D02*
X9704539Y-14517674D01*
X9704539Y-14517674D02*
X9752158Y-14517674D01*
X9752158Y-14517674D02*
X9771205Y-14527198D01*
X9771205Y-14527198D02*
X9780729Y-14536722D01*
X9780729Y-14536722D02*
X9790253Y-14555769D01*
X9790253Y-14555769D02*
X9790253Y-14603388D01*
X9790253Y-14603388D02*
X9780729Y-14622436D01*
X9780729Y-14622436D02*
X9771205Y-14631960D01*
X9771205Y-14631960D02*
X9752158Y-14641484D01*
X9752158Y-14641484D02*
X9704539Y-14641484D01*
X9704539Y-14641484D02*
X9685491Y-14631960D01*
X9685491Y-14631960D02*
X9675967Y-14622436D01*
X9961682Y-14508150D02*
X9961682Y-14641484D01*
X9914063Y-14431960D02*
X9866444Y-14574817D01*
X9866444Y-14574817D02*
X9990253Y-14574817D01*
X10104539Y-14441484D02*
X10123586Y-14441484D01*
X10123586Y-14441484D02*
X10142634Y-14451008D01*
X10142634Y-14451008D02*
X10152158Y-14460531D01*
X10152158Y-14460531D02*
X10161682Y-14479579D01*
X10161682Y-14479579D02*
X10171205Y-14517674D01*
X10171205Y-14517674D02*
X10171205Y-14565293D01*
X10171205Y-14565293D02*
X10161682Y-14603388D01*
X10161682Y-14603388D02*
X10152158Y-14622436D01*
X10152158Y-14622436D02*
X10142634Y-14631960D01*
X10142634Y-14631960D02*
X10123586Y-14641484D01*
X10123586Y-14641484D02*
X10104539Y-14641484D01*
X10104539Y-14641484D02*
X10085491Y-14631960D01*
X10085491Y-14631960D02*
X10075967Y-14622436D01*
X10075967Y-14622436D02*
X10066444Y-14603388D01*
X10066444Y-14603388D02*
X10056920Y-14565293D01*
X10056920Y-14565293D02*
X10056920Y-14517674D01*
X10056920Y-14517674D02*
X10066444Y-14479579D01*
X10066444Y-14479579D02*
X10075967Y-14460531D01*
X10075967Y-14460531D02*
X10085491Y-14451008D01*
X10085491Y-14451008D02*
X10104539Y-14441484D01*
X10256920Y-14641484D02*
X10256920Y-14508150D01*
X10256920Y-14527198D02*
X10266444Y-14517674D01*
X10266444Y-14517674D02*
X10285491Y-14508150D01*
X10285491Y-14508150D02*
X10314063Y-14508150D01*
X10314063Y-14508150D02*
X10333110Y-14517674D01*
X10333110Y-14517674D02*
X10342634Y-14536722D01*
X10342634Y-14536722D02*
X10342634Y-14641484D01*
X10342634Y-14536722D02*
X10352158Y-14517674D01*
X10352158Y-14517674D02*
X10371205Y-14508150D01*
X10371205Y-14508150D02*
X10399777Y-14508150D01*
X10399777Y-14508150D02*
X10418825Y-14517674D01*
X10418825Y-14517674D02*
X10428348Y-14536722D01*
X10428348Y-14536722D02*
X10428348Y-14641484D01*
X10523586Y-14641484D02*
X10523586Y-14508150D01*
X10523586Y-14527198D02*
X10533110Y-14517674D01*
X10533110Y-14517674D02*
X10552158Y-14508150D01*
X10552158Y-14508150D02*
X10580729Y-14508150D01*
X10580729Y-14508150D02*
X10599777Y-14517674D01*
X10599777Y-14517674D02*
X10609301Y-14536722D01*
X10609301Y-14536722D02*
X10609301Y-14641484D01*
X10609301Y-14536722D02*
X10618825Y-14517674D01*
X10618825Y-14517674D02*
X10637872Y-14508150D01*
X10637872Y-14508150D02*
X10666444Y-14508150D01*
X10666444Y-14508150D02*
X10685491Y-14517674D01*
X10685491Y-14517674D02*
X10695015Y-14536722D01*
X10695015Y-14536722D02*
X10695015Y-14641484D01*
X11085491Y-14431960D02*
X10914063Y-14689103D01*
X11342634Y-14441484D02*
X11361682Y-14441484D01*
X11361682Y-14441484D02*
X11380729Y-14451008D01*
X11380729Y-14451008D02*
X11390253Y-14460531D01*
X11390253Y-14460531D02*
X11399777Y-14479579D01*
X11399777Y-14479579D02*
X11409301Y-14517674D01*
X11409301Y-14517674D02*
X11409301Y-14565293D01*
X11409301Y-14565293D02*
X11399777Y-14603388D01*
X11399777Y-14603388D02*
X11390253Y-14622436D01*
X11390253Y-14622436D02*
X11380729Y-14631960D01*
X11380729Y-14631960D02*
X11361682Y-14641484D01*
X11361682Y-14641484D02*
X11342634Y-14641484D01*
X11342634Y-14641484D02*
X11323586Y-14631960D01*
X11323586Y-14631960D02*
X11314063Y-14622436D01*
X11314063Y-14622436D02*
X11304539Y-14603388D01*
X11304539Y-14603388D02*
X11295015Y-14565293D01*
X11295015Y-14565293D02*
X11295015Y-14517674D01*
X11295015Y-14517674D02*
X11304539Y-14479579D01*
X11304539Y-14479579D02*
X11314063Y-14460531D01*
X11314063Y-14460531D02*
X11323586Y-14451008D01*
X11323586Y-14451008D02*
X11342634Y-14441484D01*
X11495015Y-14622436D02*
X11504539Y-14631960D01*
X11504539Y-14631960D02*
X11495015Y-14641484D01*
X11495015Y-14641484D02*
X11485491Y-14631960D01*
X11485491Y-14631960D02*
X11495015Y-14622436D01*
X11495015Y-14622436D02*
X11495015Y-14641484D01*
X11695015Y-14641484D02*
X11580729Y-14641484D01*
X11637872Y-14641484D02*
X11637872Y-14441484D01*
X11637872Y-14441484D02*
X11618825Y-14470055D01*
X11618825Y-14470055D02*
X11599777Y-14489103D01*
X11599777Y-14489103D02*
X11580729Y-14498627D01*
X11818825Y-14441484D02*
X11837872Y-14441484D01*
X11837872Y-14441484D02*
X11856920Y-14451008D01*
X11856920Y-14451008D02*
X11866444Y-14460531D01*
X11866444Y-14460531D02*
X11875967Y-14479579D01*
X11875967Y-14479579D02*
X11885491Y-14517674D01*
X11885491Y-14517674D02*
X11885491Y-14565293D01*
X11885491Y-14565293D02*
X11875967Y-14603388D01*
X11875967Y-14603388D02*
X11866444Y-14622436D01*
X11866444Y-14622436D02*
X11856920Y-14631960D01*
X11856920Y-14631960D02*
X11837872Y-14641484D01*
X11837872Y-14641484D02*
X11818825Y-14641484D01*
X11818825Y-14641484D02*
X11799777Y-14631960D01*
X11799777Y-14631960D02*
X11790253Y-14622436D01*
X11790253Y-14622436D02*
X11780729Y-14603388D01*
X11780729Y-14603388D02*
X11771206Y-14565293D01*
X11771206Y-14565293D02*
X11771206Y-14517674D01*
X11771206Y-14517674D02*
X11780729Y-14479579D01*
X11780729Y-14479579D02*
X11790253Y-14460531D01*
X11790253Y-14460531D02*
X11799777Y-14451008D01*
X11799777Y-14451008D02*
X11818825Y-14441484D01*
X12009301Y-14441484D02*
X12028348Y-14441484D01*
X12028348Y-14441484D02*
X12047396Y-14451008D01*
X12047396Y-14451008D02*
X12056920Y-14460531D01*
X12056920Y-14460531D02*
X12066444Y-14479579D01*
X12066444Y-14479579D02*
X12075967Y-14517674D01*
X12075967Y-14517674D02*
X12075967Y-14565293D01*
X12075967Y-14565293D02*
X12066444Y-14603388D01*
X12066444Y-14603388D02*
X12056920Y-14622436D01*
X12056920Y-14622436D02*
X12047396Y-14631960D01*
X12047396Y-14631960D02*
X12028348Y-14641484D01*
X12028348Y-14641484D02*
X12009301Y-14641484D01*
X12009301Y-14641484D02*
X11990253Y-14631960D01*
X11990253Y-14631960D02*
X11980729Y-14622436D01*
X11980729Y-14622436D02*
X11971206Y-14603388D01*
X11971206Y-14603388D02*
X11961682Y-14565293D01*
X11961682Y-14565293D02*
X11961682Y-14517674D01*
X11961682Y-14517674D02*
X11971206Y-14479579D01*
X11971206Y-14479579D02*
X11980729Y-14460531D01*
X11980729Y-14460531D02*
X11990253Y-14451008D01*
X11990253Y-14451008D02*
X12009301Y-14441484D01*
X12199777Y-14441484D02*
X12218825Y-14441484D01*
X12218825Y-14441484D02*
X12237872Y-14451008D01*
X12237872Y-14451008D02*
X12247396Y-14460531D01*
X12247396Y-14460531D02*
X12256920Y-14479579D01*
X12256920Y-14479579D02*
X12266444Y-14517674D01*
X12266444Y-14517674D02*
X12266444Y-14565293D01*
X12266444Y-14565293D02*
X12256920Y-14603388D01*
X12256920Y-14603388D02*
X12247396Y-14622436D01*
X12247396Y-14622436D02*
X12237872Y-14631960D01*
X12237872Y-14631960D02*
X12218825Y-14641484D01*
X12218825Y-14641484D02*
X12199777Y-14641484D01*
X12199777Y-14641484D02*
X12180729Y-14631960D01*
X12180729Y-14631960D02*
X12171206Y-14622436D01*
X12171206Y-14622436D02*
X12161682Y-14603388D01*
X12161682Y-14603388D02*
X12152158Y-14565293D01*
X12152158Y-14565293D02*
X12152158Y-14517674D01*
X12152158Y-14517674D02*
X12161682Y-14479579D01*
X12161682Y-14479579D02*
X12171206Y-14460531D01*
X12171206Y-14460531D02*
X12180729Y-14451008D01*
X12180729Y-14451008D02*
X12199777Y-14441484D01*
X12342634Y-14441484D02*
X12342634Y-14479579D01*
X12418825Y-14441484D02*
X12418825Y-14479579D01*
X12714063Y-14717674D02*
X12704539Y-14708150D01*
X12704539Y-14708150D02*
X12685491Y-14679579D01*
X12685491Y-14679579D02*
X12675968Y-14660531D01*
X12675968Y-14660531D02*
X12666444Y-14631960D01*
X12666444Y-14631960D02*
X12656920Y-14584341D01*
X12656920Y-14584341D02*
X12656920Y-14546246D01*
X12656920Y-14546246D02*
X12666444Y-14498627D01*
X12666444Y-14498627D02*
X12675968Y-14470055D01*
X12675968Y-14470055D02*
X12685491Y-14451008D01*
X12685491Y-14451008D02*
X12704539Y-14422436D01*
X12704539Y-14422436D02*
X12714063Y-14412912D01*
X12780729Y-14460531D02*
X12790253Y-14451008D01*
X12790253Y-14451008D02*
X12809301Y-14441484D01*
X12809301Y-14441484D02*
X12856920Y-14441484D01*
X12856920Y-14441484D02*
X12875968Y-14451008D01*
X12875968Y-14451008D02*
X12885491Y-14460531D01*
X12885491Y-14460531D02*
X12895015Y-14479579D01*
X12895015Y-14479579D02*
X12895015Y-14498627D01*
X12895015Y-14498627D02*
X12885491Y-14527198D01*
X12885491Y-14527198D02*
X12771206Y-14641484D01*
X12771206Y-14641484D02*
X12895015Y-14641484D01*
X13133110Y-14641484D02*
X13133110Y-14441484D01*
X13218825Y-14641484D02*
X13218825Y-14536722D01*
X13218825Y-14536722D02*
X13209301Y-14517674D01*
X13209301Y-14517674D02*
X13190253Y-14508150D01*
X13190253Y-14508150D02*
X13161682Y-14508150D01*
X13161682Y-14508150D02*
X13142634Y-14517674D01*
X13142634Y-14517674D02*
X13133110Y-14527198D01*
X13342634Y-14641484D02*
X13323587Y-14631960D01*
X13323587Y-14631960D02*
X13314063Y-14622436D01*
X13314063Y-14622436D02*
X13304539Y-14603388D01*
X13304539Y-14603388D02*
X13304539Y-14546246D01*
X13304539Y-14546246D02*
X13314063Y-14527198D01*
X13314063Y-14527198D02*
X13323587Y-14517674D01*
X13323587Y-14517674D02*
X13342634Y-14508150D01*
X13342634Y-14508150D02*
X13371206Y-14508150D01*
X13371206Y-14508150D02*
X13390253Y-14517674D01*
X13390253Y-14517674D02*
X13399777Y-14527198D01*
X13399777Y-14527198D02*
X13409301Y-14546246D01*
X13409301Y-14546246D02*
X13409301Y-14603388D01*
X13409301Y-14603388D02*
X13399777Y-14622436D01*
X13399777Y-14622436D02*
X13390253Y-14631960D01*
X13390253Y-14631960D02*
X13371206Y-14641484D01*
X13371206Y-14641484D02*
X13342634Y-14641484D01*
X13523587Y-14641484D02*
X13504539Y-14631960D01*
X13504539Y-14631960D02*
X13495015Y-14612912D01*
X13495015Y-14612912D02*
X13495015Y-14441484D01*
X13675968Y-14631960D02*
X13656920Y-14641484D01*
X13656920Y-14641484D02*
X13618825Y-14641484D01*
X13618825Y-14641484D02*
X13599777Y-14631960D01*
X13599777Y-14631960D02*
X13590253Y-14612912D01*
X13590253Y-14612912D02*
X13590253Y-14536722D01*
X13590253Y-14536722D02*
X13599777Y-14517674D01*
X13599777Y-14517674D02*
X13618825Y-14508150D01*
X13618825Y-14508150D02*
X13656920Y-14508150D01*
X13656920Y-14508150D02*
X13675968Y-14517674D01*
X13675968Y-14517674D02*
X13685491Y-14536722D01*
X13685491Y-14536722D02*
X13685491Y-14555769D01*
X13685491Y-14555769D02*
X13590253Y-14574817D01*
X13761682Y-14631960D02*
X13780730Y-14641484D01*
X13780730Y-14641484D02*
X13818825Y-14641484D01*
X13818825Y-14641484D02*
X13837872Y-14631960D01*
X13837872Y-14631960D02*
X13847396Y-14612912D01*
X13847396Y-14612912D02*
X13847396Y-14603388D01*
X13847396Y-14603388D02*
X13837872Y-14584341D01*
X13837872Y-14584341D02*
X13818825Y-14574817D01*
X13818825Y-14574817D02*
X13790253Y-14574817D01*
X13790253Y-14574817D02*
X13771206Y-14565293D01*
X13771206Y-14565293D02*
X13761682Y-14546246D01*
X13761682Y-14546246D02*
X13761682Y-14536722D01*
X13761682Y-14536722D02*
X13771206Y-14517674D01*
X13771206Y-14517674D02*
X13790253Y-14508150D01*
X13790253Y-14508150D02*
X13818825Y-14508150D01*
X13818825Y-14508150D02*
X13837872Y-14517674D01*
X13914063Y-14717674D02*
X13923587Y-14708150D01*
X13923587Y-14708150D02*
X13942634Y-14679579D01*
X13942634Y-14679579D02*
X13952158Y-14660531D01*
X13952158Y-14660531D02*
X13961682Y-14631960D01*
X13961682Y-14631960D02*
X13971206Y-14584341D01*
X13971206Y-14584341D02*
X13971206Y-14546246D01*
X13971206Y-14546246D02*
X13961682Y-14498627D01*
X13961682Y-14498627D02*
X13952158Y-14470055D01*
X13952158Y-14470055D02*
X13942634Y-14451008D01*
X13942634Y-14451008D02*
X13923587Y-14422436D01*
X13923587Y-14422436D02*
X13914063Y-14412912D01*
X14275968Y-14717674D02*
X14266444Y-14708150D01*
X14266444Y-14708150D02*
X14247396Y-14679579D01*
X14247396Y-14679579D02*
X14237872Y-14660531D01*
X14237872Y-14660531D02*
X14228349Y-14631960D01*
X14228349Y-14631960D02*
X14218825Y-14584341D01*
X14218825Y-14584341D02*
X14218825Y-14546246D01*
X14218825Y-14546246D02*
X14228349Y-14498627D01*
X14228349Y-14498627D02*
X14237872Y-14470055D01*
X14237872Y-14470055D02*
X14247396Y-14451008D01*
X14247396Y-14451008D02*
X14266444Y-14422436D01*
X14266444Y-14422436D02*
X14275968Y-14412912D01*
X14352158Y-14508150D02*
X14352158Y-14641484D01*
X14352158Y-14527198D02*
X14361682Y-14517674D01*
X14361682Y-14517674D02*
X14380730Y-14508150D01*
X14380730Y-14508150D02*
X14409301Y-14508150D01*
X14409301Y-14508150D02*
X14428349Y-14517674D01*
X14428349Y-14517674D02*
X14437872Y-14536722D01*
X14437872Y-14536722D02*
X14437872Y-14641484D01*
X14561682Y-14641484D02*
X14542634Y-14631960D01*
X14542634Y-14631960D02*
X14533111Y-14622436D01*
X14533111Y-14622436D02*
X14523587Y-14603388D01*
X14523587Y-14603388D02*
X14523587Y-14546246D01*
X14523587Y-14546246D02*
X14533111Y-14527198D01*
X14533111Y-14527198D02*
X14542634Y-14517674D01*
X14542634Y-14517674D02*
X14561682Y-14508150D01*
X14561682Y-14508150D02*
X14590253Y-14508150D01*
X14590253Y-14508150D02*
X14609301Y-14517674D01*
X14609301Y-14517674D02*
X14618825Y-14527198D01*
X14618825Y-14527198D02*
X14628349Y-14546246D01*
X14628349Y-14546246D02*
X14628349Y-14603388D01*
X14628349Y-14603388D02*
X14618825Y-14622436D01*
X14618825Y-14622436D02*
X14609301Y-14631960D01*
X14609301Y-14631960D02*
X14590253Y-14641484D01*
X14590253Y-14641484D02*
X14561682Y-14641484D01*
X14685492Y-14508150D02*
X14761682Y-14508150D01*
X14714063Y-14441484D02*
X14714063Y-14612912D01*
X14714063Y-14612912D02*
X14723587Y-14631960D01*
X14723587Y-14631960D02*
X14742634Y-14641484D01*
X14742634Y-14641484D02*
X14761682Y-14641484D01*
X14980730Y-14508150D02*
X14980730Y-14708150D01*
X14980730Y-14517674D02*
X14999777Y-14508150D01*
X14999777Y-14508150D02*
X15037873Y-14508150D01*
X15037873Y-14508150D02*
X15056920Y-14517674D01*
X15056920Y-14517674D02*
X15066444Y-14527198D01*
X15066444Y-14527198D02*
X15075968Y-14546246D01*
X15075968Y-14546246D02*
X15075968Y-14603388D01*
X15075968Y-14603388D02*
X15066444Y-14622436D01*
X15066444Y-14622436D02*
X15056920Y-14631960D01*
X15056920Y-14631960D02*
X15037873Y-14641484D01*
X15037873Y-14641484D02*
X14999777Y-14641484D01*
X14999777Y-14641484D02*
X14980730Y-14631960D01*
X15190253Y-14641484D02*
X15171206Y-14631960D01*
X15171206Y-14631960D02*
X15161682Y-14612912D01*
X15161682Y-14612912D02*
X15161682Y-14441484D01*
X15352158Y-14641484D02*
X15352158Y-14536722D01*
X15352158Y-14536722D02*
X15342634Y-14517674D01*
X15342634Y-14517674D02*
X15323587Y-14508150D01*
X15323587Y-14508150D02*
X15285492Y-14508150D01*
X15285492Y-14508150D02*
X15266444Y-14517674D01*
X15352158Y-14631960D02*
X15333111Y-14641484D01*
X15333111Y-14641484D02*
X15285492Y-14641484D01*
X15285492Y-14641484D02*
X15266444Y-14631960D01*
X15266444Y-14631960D02*
X15256920Y-14612912D01*
X15256920Y-14612912D02*
X15256920Y-14593865D01*
X15256920Y-14593865D02*
X15266444Y-14574817D01*
X15266444Y-14574817D02*
X15285492Y-14565293D01*
X15285492Y-14565293D02*
X15333111Y-14565293D01*
X15333111Y-14565293D02*
X15352158Y-14555769D01*
X15418825Y-14508150D02*
X15495015Y-14508150D01*
X15447396Y-14441484D02*
X15447396Y-14612912D01*
X15447396Y-14612912D02*
X15456920Y-14631960D01*
X15456920Y-14631960D02*
X15475968Y-14641484D01*
X15475968Y-14641484D02*
X15495015Y-14641484D01*
X15637873Y-14631960D02*
X15618825Y-14641484D01*
X15618825Y-14641484D02*
X15580730Y-14641484D01*
X15580730Y-14641484D02*
X15561682Y-14631960D01*
X15561682Y-14631960D02*
X15552158Y-14612912D01*
X15552158Y-14612912D02*
X15552158Y-14536722D01*
X15552158Y-14536722D02*
X15561682Y-14517674D01*
X15561682Y-14517674D02*
X15580730Y-14508150D01*
X15580730Y-14508150D02*
X15618825Y-14508150D01*
X15618825Y-14508150D02*
X15637873Y-14517674D01*
X15637873Y-14517674D02*
X15647396Y-14536722D01*
X15647396Y-14536722D02*
X15647396Y-14555769D01*
X15647396Y-14555769D02*
X15552158Y-14574817D01*
X15818825Y-14641484D02*
X15818825Y-14441484D01*
X15818825Y-14631960D02*
X15799777Y-14641484D01*
X15799777Y-14641484D02*
X15761682Y-14641484D01*
X15761682Y-14641484D02*
X15742634Y-14631960D01*
X15742634Y-14631960D02*
X15733111Y-14622436D01*
X15733111Y-14622436D02*
X15723587Y-14603388D01*
X15723587Y-14603388D02*
X15723587Y-14546246D01*
X15723587Y-14546246D02*
X15733111Y-14527198D01*
X15733111Y-14527198D02*
X15742634Y-14517674D01*
X15742634Y-14517674D02*
X15761682Y-14508150D01*
X15761682Y-14508150D02*
X15799777Y-14508150D01*
X15799777Y-14508150D02*
X15818825Y-14517674D01*
X15895015Y-14717674D02*
X15904539Y-14708150D01*
X15904539Y-14708150D02*
X15923587Y-14679579D01*
X15923587Y-14679579D02*
X15933111Y-14660531D01*
X15933111Y-14660531D02*
X15942634Y-14631960D01*
X15942634Y-14631960D02*
X15952158Y-14584341D01*
X15952158Y-14584341D02*
X15952158Y-14546246D01*
X15952158Y-14546246D02*
X15942634Y-14498627D01*
X15942634Y-14498627D02*
X15933111Y-14470055D01*
X15933111Y-14470055D02*
X15923587Y-14451008D01*
X15923587Y-14451008D02*
X15904539Y-14422436D01*
X15904539Y-14422436D02*
X15895015Y-14412912D01*
X9109711Y-14940711D02*
X9109711Y-14799289D01*
X8968289Y-14799289D01*
X8968289Y-14940711D01*
X9109711Y-14940711D01*
X9380729Y-14761484D02*
X9504539Y-14761484D01*
X9504539Y-14761484D02*
X9437872Y-14837674D01*
X9437872Y-14837674D02*
X9466444Y-14837674D01*
X9466444Y-14837674D02*
X9485491Y-14847198D01*
X9485491Y-14847198D02*
X9495015Y-14856722D01*
X9495015Y-14856722D02*
X9504539Y-14875769D01*
X9504539Y-14875769D02*
X9504539Y-14923388D01*
X9504539Y-14923388D02*
X9495015Y-14942436D01*
X9495015Y-14942436D02*
X9485491Y-14951960D01*
X9485491Y-14951960D02*
X9466444Y-14961484D01*
X9466444Y-14961484D02*
X9409301Y-14961484D01*
X9409301Y-14961484D02*
X9390253Y-14951960D01*
X9390253Y-14951960D02*
X9380729Y-14942436D01*
X9590253Y-14942436D02*
X9599777Y-14951960D01*
X9599777Y-14951960D02*
X9590253Y-14961484D01*
X9590253Y-14961484D02*
X9580729Y-14951960D01*
X9580729Y-14951960D02*
X9590253Y-14942436D01*
X9590253Y-14942436D02*
X9590253Y-14961484D01*
X9675967Y-14780531D02*
X9685491Y-14771008D01*
X9685491Y-14771008D02*
X9704539Y-14761484D01*
X9704539Y-14761484D02*
X9752158Y-14761484D01*
X9752158Y-14761484D02*
X9771205Y-14771008D01*
X9771205Y-14771008D02*
X9780729Y-14780531D01*
X9780729Y-14780531D02*
X9790253Y-14799579D01*
X9790253Y-14799579D02*
X9790253Y-14818627D01*
X9790253Y-14818627D02*
X9780729Y-14847198D01*
X9780729Y-14847198D02*
X9666444Y-14961484D01*
X9666444Y-14961484D02*
X9790253Y-14961484D01*
X9914063Y-14761484D02*
X9933110Y-14761484D01*
X9933110Y-14761484D02*
X9952158Y-14771008D01*
X9952158Y-14771008D02*
X9961682Y-14780531D01*
X9961682Y-14780531D02*
X9971205Y-14799579D01*
X9971205Y-14799579D02*
X9980729Y-14837674D01*
X9980729Y-14837674D02*
X9980729Y-14885293D01*
X9980729Y-14885293D02*
X9971205Y-14923388D01*
X9971205Y-14923388D02*
X9961682Y-14942436D01*
X9961682Y-14942436D02*
X9952158Y-14951960D01*
X9952158Y-14951960D02*
X9933110Y-14961484D01*
X9933110Y-14961484D02*
X9914063Y-14961484D01*
X9914063Y-14961484D02*
X9895015Y-14951960D01*
X9895015Y-14951960D02*
X9885491Y-14942436D01*
X9885491Y-14942436D02*
X9875967Y-14923388D01*
X9875967Y-14923388D02*
X9866444Y-14885293D01*
X9866444Y-14885293D02*
X9866444Y-14837674D01*
X9866444Y-14837674D02*
X9875967Y-14799579D01*
X9875967Y-14799579D02*
X9885491Y-14780531D01*
X9885491Y-14780531D02*
X9895015Y-14771008D01*
X9895015Y-14771008D02*
X9914063Y-14761484D01*
X10104539Y-14761484D02*
X10123586Y-14761484D01*
X10123586Y-14761484D02*
X10142634Y-14771008D01*
X10142634Y-14771008D02*
X10152158Y-14780531D01*
X10152158Y-14780531D02*
X10161682Y-14799579D01*
X10161682Y-14799579D02*
X10171205Y-14837674D01*
X10171205Y-14837674D02*
X10171205Y-14885293D01*
X10171205Y-14885293D02*
X10161682Y-14923388D01*
X10161682Y-14923388D02*
X10152158Y-14942436D01*
X10152158Y-14942436D02*
X10142634Y-14951960D01*
X10142634Y-14951960D02*
X10123586Y-14961484D01*
X10123586Y-14961484D02*
X10104539Y-14961484D01*
X10104539Y-14961484D02*
X10085491Y-14951960D01*
X10085491Y-14951960D02*
X10075967Y-14942436D01*
X10075967Y-14942436D02*
X10066444Y-14923388D01*
X10066444Y-14923388D02*
X10056920Y-14885293D01*
X10056920Y-14885293D02*
X10056920Y-14837674D01*
X10056920Y-14837674D02*
X10066444Y-14799579D01*
X10066444Y-14799579D02*
X10075967Y-14780531D01*
X10075967Y-14780531D02*
X10085491Y-14771008D01*
X10085491Y-14771008D02*
X10104539Y-14761484D01*
X10256920Y-14961484D02*
X10256920Y-14828150D01*
X10256920Y-14847198D02*
X10266444Y-14837674D01*
X10266444Y-14837674D02*
X10285491Y-14828150D01*
X10285491Y-14828150D02*
X10314063Y-14828150D01*
X10314063Y-14828150D02*
X10333110Y-14837674D01*
X10333110Y-14837674D02*
X10342634Y-14856722D01*
X10342634Y-14856722D02*
X10342634Y-14961484D01*
X10342634Y-14856722D02*
X10352158Y-14837674D01*
X10352158Y-14837674D02*
X10371205Y-14828150D01*
X10371205Y-14828150D02*
X10399777Y-14828150D01*
X10399777Y-14828150D02*
X10418825Y-14837674D01*
X10418825Y-14837674D02*
X10428348Y-14856722D01*
X10428348Y-14856722D02*
X10428348Y-14961484D01*
X10523586Y-14961484D02*
X10523586Y-14828150D01*
X10523586Y-14847198D02*
X10533110Y-14837674D01*
X10533110Y-14837674D02*
X10552158Y-14828150D01*
X10552158Y-14828150D02*
X10580729Y-14828150D01*
X10580729Y-14828150D02*
X10599777Y-14837674D01*
X10599777Y-14837674D02*
X10609301Y-14856722D01*
X10609301Y-14856722D02*
X10609301Y-14961484D01*
X10609301Y-14856722D02*
X10618825Y-14837674D01*
X10618825Y-14837674D02*
X10637872Y-14828150D01*
X10637872Y-14828150D02*
X10666444Y-14828150D01*
X10666444Y-14828150D02*
X10685491Y-14837674D01*
X10685491Y-14837674D02*
X10695015Y-14856722D01*
X10695015Y-14856722D02*
X10695015Y-14961484D01*
X11085491Y-14751960D02*
X10914063Y-15009103D01*
X11342634Y-14761484D02*
X11361682Y-14761484D01*
X11361682Y-14761484D02*
X11380729Y-14771008D01*
X11380729Y-14771008D02*
X11390253Y-14780531D01*
X11390253Y-14780531D02*
X11399777Y-14799579D01*
X11399777Y-14799579D02*
X11409301Y-14837674D01*
X11409301Y-14837674D02*
X11409301Y-14885293D01*
X11409301Y-14885293D02*
X11399777Y-14923388D01*
X11399777Y-14923388D02*
X11390253Y-14942436D01*
X11390253Y-14942436D02*
X11380729Y-14951960D01*
X11380729Y-14951960D02*
X11361682Y-14961484D01*
X11361682Y-14961484D02*
X11342634Y-14961484D01*
X11342634Y-14961484D02*
X11323586Y-14951960D01*
X11323586Y-14951960D02*
X11314063Y-14942436D01*
X11314063Y-14942436D02*
X11304539Y-14923388D01*
X11304539Y-14923388D02*
X11295015Y-14885293D01*
X11295015Y-14885293D02*
X11295015Y-14837674D01*
X11295015Y-14837674D02*
X11304539Y-14799579D01*
X11304539Y-14799579D02*
X11314063Y-14780531D01*
X11314063Y-14780531D02*
X11323586Y-14771008D01*
X11323586Y-14771008D02*
X11342634Y-14761484D01*
X11495015Y-14942436D02*
X11504539Y-14951960D01*
X11504539Y-14951960D02*
X11495015Y-14961484D01*
X11495015Y-14961484D02*
X11485491Y-14951960D01*
X11485491Y-14951960D02*
X11495015Y-14942436D01*
X11495015Y-14942436D02*
X11495015Y-14961484D01*
X11695015Y-14961484D02*
X11580729Y-14961484D01*
X11637872Y-14961484D02*
X11637872Y-14761484D01*
X11637872Y-14761484D02*
X11618825Y-14790055D01*
X11618825Y-14790055D02*
X11599777Y-14809103D01*
X11599777Y-14809103D02*
X11580729Y-14818627D01*
X11771206Y-14780531D02*
X11780729Y-14771008D01*
X11780729Y-14771008D02*
X11799777Y-14761484D01*
X11799777Y-14761484D02*
X11847396Y-14761484D01*
X11847396Y-14761484D02*
X11866444Y-14771008D01*
X11866444Y-14771008D02*
X11875967Y-14780531D01*
X11875967Y-14780531D02*
X11885491Y-14799579D01*
X11885491Y-14799579D02*
X11885491Y-14818627D01*
X11885491Y-14818627D02*
X11875967Y-14847198D01*
X11875967Y-14847198D02*
X11761682Y-14961484D01*
X11761682Y-14961484D02*
X11885491Y-14961484D01*
X12056920Y-14761484D02*
X12018825Y-14761484D01*
X12018825Y-14761484D02*
X11999777Y-14771008D01*
X11999777Y-14771008D02*
X11990253Y-14780531D01*
X11990253Y-14780531D02*
X11971206Y-14809103D01*
X11971206Y-14809103D02*
X11961682Y-14847198D01*
X11961682Y-14847198D02*
X11961682Y-14923388D01*
X11961682Y-14923388D02*
X11971206Y-14942436D01*
X11971206Y-14942436D02*
X11980729Y-14951960D01*
X11980729Y-14951960D02*
X11999777Y-14961484D01*
X11999777Y-14961484D02*
X12037872Y-14961484D01*
X12037872Y-14961484D02*
X12056920Y-14951960D01*
X12056920Y-14951960D02*
X12066444Y-14942436D01*
X12066444Y-14942436D02*
X12075967Y-14923388D01*
X12075967Y-14923388D02*
X12075967Y-14875769D01*
X12075967Y-14875769D02*
X12066444Y-14856722D01*
X12066444Y-14856722D02*
X12056920Y-14847198D01*
X12056920Y-14847198D02*
X12037872Y-14837674D01*
X12037872Y-14837674D02*
X11999777Y-14837674D01*
X11999777Y-14837674D02*
X11980729Y-14847198D01*
X11980729Y-14847198D02*
X11971206Y-14856722D01*
X11971206Y-14856722D02*
X11961682Y-14875769D01*
X12199777Y-14761484D02*
X12218825Y-14761484D01*
X12218825Y-14761484D02*
X12237872Y-14771008D01*
X12237872Y-14771008D02*
X12247396Y-14780531D01*
X12247396Y-14780531D02*
X12256920Y-14799579D01*
X12256920Y-14799579D02*
X12266444Y-14837674D01*
X12266444Y-14837674D02*
X12266444Y-14885293D01*
X12266444Y-14885293D02*
X12256920Y-14923388D01*
X12256920Y-14923388D02*
X12247396Y-14942436D01*
X12247396Y-14942436D02*
X12237872Y-14951960D01*
X12237872Y-14951960D02*
X12218825Y-14961484D01*
X12218825Y-14961484D02*
X12199777Y-14961484D01*
X12199777Y-14961484D02*
X12180729Y-14951960D01*
X12180729Y-14951960D02*
X12171206Y-14942436D01*
X12171206Y-14942436D02*
X12161682Y-14923388D01*
X12161682Y-14923388D02*
X12152158Y-14885293D01*
X12152158Y-14885293D02*
X12152158Y-14837674D01*
X12152158Y-14837674D02*
X12161682Y-14799579D01*
X12161682Y-14799579D02*
X12171206Y-14780531D01*
X12171206Y-14780531D02*
X12180729Y-14771008D01*
X12180729Y-14771008D02*
X12199777Y-14761484D01*
X12342634Y-14761484D02*
X12342634Y-14799579D01*
X12418825Y-14761484D02*
X12418825Y-14799579D01*
X12714063Y-15037674D02*
X12704539Y-15028150D01*
X12704539Y-15028150D02*
X12685491Y-14999579D01*
X12685491Y-14999579D02*
X12675968Y-14980531D01*
X12675968Y-14980531D02*
X12666444Y-14951960D01*
X12666444Y-14951960D02*
X12656920Y-14904341D01*
X12656920Y-14904341D02*
X12656920Y-14866246D01*
X12656920Y-14866246D02*
X12666444Y-14818627D01*
X12666444Y-14818627D02*
X12675968Y-14790055D01*
X12675968Y-14790055D02*
X12685491Y-14771008D01*
X12685491Y-14771008D02*
X12704539Y-14742436D01*
X12704539Y-14742436D02*
X12714063Y-14732912D01*
X12771206Y-14761484D02*
X12895015Y-14761484D01*
X12895015Y-14761484D02*
X12828348Y-14837674D01*
X12828348Y-14837674D02*
X12856920Y-14837674D01*
X12856920Y-14837674D02*
X12875968Y-14847198D01*
X12875968Y-14847198D02*
X12885491Y-14856722D01*
X12885491Y-14856722D02*
X12895015Y-14875769D01*
X12895015Y-14875769D02*
X12895015Y-14923388D01*
X12895015Y-14923388D02*
X12885491Y-14942436D01*
X12885491Y-14942436D02*
X12875968Y-14951960D01*
X12875968Y-14951960D02*
X12856920Y-14961484D01*
X12856920Y-14961484D02*
X12799777Y-14961484D01*
X12799777Y-14961484D02*
X12780729Y-14951960D01*
X12780729Y-14951960D02*
X12771206Y-14942436D01*
X13133110Y-14961484D02*
X13133110Y-14761484D01*
X13218825Y-14961484D02*
X13218825Y-14856722D01*
X13218825Y-14856722D02*
X13209301Y-14837674D01*
X13209301Y-14837674D02*
X13190253Y-14828150D01*
X13190253Y-14828150D02*
X13161682Y-14828150D01*
X13161682Y-14828150D02*
X13142634Y-14837674D01*
X13142634Y-14837674D02*
X13133110Y-14847198D01*
X13342634Y-14961484D02*
X13323587Y-14951960D01*
X13323587Y-14951960D02*
X13314063Y-14942436D01*
X13314063Y-14942436D02*
X13304539Y-14923388D01*
X13304539Y-14923388D02*
X13304539Y-14866246D01*
X13304539Y-14866246D02*
X13314063Y-14847198D01*
X13314063Y-14847198D02*
X13323587Y-14837674D01*
X13323587Y-14837674D02*
X13342634Y-14828150D01*
X13342634Y-14828150D02*
X13371206Y-14828150D01*
X13371206Y-14828150D02*
X13390253Y-14837674D01*
X13390253Y-14837674D02*
X13399777Y-14847198D01*
X13399777Y-14847198D02*
X13409301Y-14866246D01*
X13409301Y-14866246D02*
X13409301Y-14923388D01*
X13409301Y-14923388D02*
X13399777Y-14942436D01*
X13399777Y-14942436D02*
X13390253Y-14951960D01*
X13390253Y-14951960D02*
X13371206Y-14961484D01*
X13371206Y-14961484D02*
X13342634Y-14961484D01*
X13523587Y-14961484D02*
X13504539Y-14951960D01*
X13504539Y-14951960D02*
X13495015Y-14932912D01*
X13495015Y-14932912D02*
X13495015Y-14761484D01*
X13675968Y-14951960D02*
X13656920Y-14961484D01*
X13656920Y-14961484D02*
X13618825Y-14961484D01*
X13618825Y-14961484D02*
X13599777Y-14951960D01*
X13599777Y-14951960D02*
X13590253Y-14932912D01*
X13590253Y-14932912D02*
X13590253Y-14856722D01*
X13590253Y-14856722D02*
X13599777Y-14837674D01*
X13599777Y-14837674D02*
X13618825Y-14828150D01*
X13618825Y-14828150D02*
X13656920Y-14828150D01*
X13656920Y-14828150D02*
X13675968Y-14837674D01*
X13675968Y-14837674D02*
X13685491Y-14856722D01*
X13685491Y-14856722D02*
X13685491Y-14875769D01*
X13685491Y-14875769D02*
X13590253Y-14894817D01*
X13761682Y-14951960D02*
X13780730Y-14961484D01*
X13780730Y-14961484D02*
X13818825Y-14961484D01*
X13818825Y-14961484D02*
X13837872Y-14951960D01*
X13837872Y-14951960D02*
X13847396Y-14932912D01*
X13847396Y-14932912D02*
X13847396Y-14923388D01*
X13847396Y-14923388D02*
X13837872Y-14904341D01*
X13837872Y-14904341D02*
X13818825Y-14894817D01*
X13818825Y-14894817D02*
X13790253Y-14894817D01*
X13790253Y-14894817D02*
X13771206Y-14885293D01*
X13771206Y-14885293D02*
X13761682Y-14866246D01*
X13761682Y-14866246D02*
X13761682Y-14856722D01*
X13761682Y-14856722D02*
X13771206Y-14837674D01*
X13771206Y-14837674D02*
X13790253Y-14828150D01*
X13790253Y-14828150D02*
X13818825Y-14828150D01*
X13818825Y-14828150D02*
X13837872Y-14837674D01*
X13914063Y-15037674D02*
X13923587Y-15028150D01*
X13923587Y-15028150D02*
X13942634Y-14999579D01*
X13942634Y-14999579D02*
X13952158Y-14980531D01*
X13952158Y-14980531D02*
X13961682Y-14951960D01*
X13961682Y-14951960D02*
X13971206Y-14904341D01*
X13971206Y-14904341D02*
X13971206Y-14866246D01*
X13971206Y-14866246D02*
X13961682Y-14818627D01*
X13961682Y-14818627D02*
X13952158Y-14790055D01*
X13952158Y-14790055D02*
X13942634Y-14771008D01*
X13942634Y-14771008D02*
X13923587Y-14742436D01*
X13923587Y-14742436D02*
X13914063Y-14732912D01*
X14275968Y-15037674D02*
X14266444Y-15028150D01*
X14266444Y-15028150D02*
X14247396Y-14999579D01*
X14247396Y-14999579D02*
X14237872Y-14980531D01*
X14237872Y-14980531D02*
X14228349Y-14951960D01*
X14228349Y-14951960D02*
X14218825Y-14904341D01*
X14218825Y-14904341D02*
X14218825Y-14866246D01*
X14218825Y-14866246D02*
X14228349Y-14818627D01*
X14228349Y-14818627D02*
X14237872Y-14790055D01*
X14237872Y-14790055D02*
X14247396Y-14771008D01*
X14247396Y-14771008D02*
X14266444Y-14742436D01*
X14266444Y-14742436D02*
X14275968Y-14732912D01*
X14352158Y-14828150D02*
X14352158Y-14961484D01*
X14352158Y-14847198D02*
X14361682Y-14837674D01*
X14361682Y-14837674D02*
X14380730Y-14828150D01*
X14380730Y-14828150D02*
X14409301Y-14828150D01*
X14409301Y-14828150D02*
X14428349Y-14837674D01*
X14428349Y-14837674D02*
X14437872Y-14856722D01*
X14437872Y-14856722D02*
X14437872Y-14961484D01*
X14561682Y-14961484D02*
X14542634Y-14951960D01*
X14542634Y-14951960D02*
X14533111Y-14942436D01*
X14533111Y-14942436D02*
X14523587Y-14923388D01*
X14523587Y-14923388D02*
X14523587Y-14866246D01*
X14523587Y-14866246D02*
X14533111Y-14847198D01*
X14533111Y-14847198D02*
X14542634Y-14837674D01*
X14542634Y-14837674D02*
X14561682Y-14828150D01*
X14561682Y-14828150D02*
X14590253Y-14828150D01*
X14590253Y-14828150D02*
X14609301Y-14837674D01*
X14609301Y-14837674D02*
X14618825Y-14847198D01*
X14618825Y-14847198D02*
X14628349Y-14866246D01*
X14628349Y-14866246D02*
X14628349Y-14923388D01*
X14628349Y-14923388D02*
X14618825Y-14942436D01*
X14618825Y-14942436D02*
X14609301Y-14951960D01*
X14609301Y-14951960D02*
X14590253Y-14961484D01*
X14590253Y-14961484D02*
X14561682Y-14961484D01*
X14685492Y-14828150D02*
X14761682Y-14828150D01*
X14714063Y-14761484D02*
X14714063Y-14932912D01*
X14714063Y-14932912D02*
X14723587Y-14951960D01*
X14723587Y-14951960D02*
X14742634Y-14961484D01*
X14742634Y-14961484D02*
X14761682Y-14961484D01*
X14980730Y-14828150D02*
X14980730Y-15028150D01*
X14980730Y-14837674D02*
X14999777Y-14828150D01*
X14999777Y-14828150D02*
X15037873Y-14828150D01*
X15037873Y-14828150D02*
X15056920Y-14837674D01*
X15056920Y-14837674D02*
X15066444Y-14847198D01*
X15066444Y-14847198D02*
X15075968Y-14866246D01*
X15075968Y-14866246D02*
X15075968Y-14923388D01*
X15075968Y-14923388D02*
X15066444Y-14942436D01*
X15066444Y-14942436D02*
X15056920Y-14951960D01*
X15056920Y-14951960D02*
X15037873Y-14961484D01*
X15037873Y-14961484D02*
X14999777Y-14961484D01*
X14999777Y-14961484D02*
X14980730Y-14951960D01*
X15190253Y-14961484D02*
X15171206Y-14951960D01*
X15171206Y-14951960D02*
X15161682Y-14932912D01*
X15161682Y-14932912D02*
X15161682Y-14761484D01*
X15352158Y-14961484D02*
X15352158Y-14856722D01*
X15352158Y-14856722D02*
X15342634Y-14837674D01*
X15342634Y-14837674D02*
X15323587Y-14828150D01*
X15323587Y-14828150D02*
X15285492Y-14828150D01*
X15285492Y-14828150D02*
X15266444Y-14837674D01*
X15352158Y-14951960D02*
X15333111Y-14961484D01*
X15333111Y-14961484D02*
X15285492Y-14961484D01*
X15285492Y-14961484D02*
X15266444Y-14951960D01*
X15266444Y-14951960D02*
X15256920Y-14932912D01*
X15256920Y-14932912D02*
X15256920Y-14913865D01*
X15256920Y-14913865D02*
X15266444Y-14894817D01*
X15266444Y-14894817D02*
X15285492Y-14885293D01*
X15285492Y-14885293D02*
X15333111Y-14885293D01*
X15333111Y-14885293D02*
X15352158Y-14875769D01*
X15418825Y-14828150D02*
X15495015Y-14828150D01*
X15447396Y-14761484D02*
X15447396Y-14932912D01*
X15447396Y-14932912D02*
X15456920Y-14951960D01*
X15456920Y-14951960D02*
X15475968Y-14961484D01*
X15475968Y-14961484D02*
X15495015Y-14961484D01*
X15637873Y-14951960D02*
X15618825Y-14961484D01*
X15618825Y-14961484D02*
X15580730Y-14961484D01*
X15580730Y-14961484D02*
X15561682Y-14951960D01*
X15561682Y-14951960D02*
X15552158Y-14932912D01*
X15552158Y-14932912D02*
X15552158Y-14856722D01*
X15552158Y-14856722D02*
X15561682Y-14837674D01*
X15561682Y-14837674D02*
X15580730Y-14828150D01*
X15580730Y-14828150D02*
X15618825Y-14828150D01*
X15618825Y-14828150D02*
X15637873Y-14837674D01*
X15637873Y-14837674D02*
X15647396Y-14856722D01*
X15647396Y-14856722D02*
X15647396Y-14875769D01*
X15647396Y-14875769D02*
X15552158Y-14894817D01*
X15818825Y-14961484D02*
X15818825Y-14761484D01*
X15818825Y-14951960D02*
X15799777Y-14961484D01*
X15799777Y-14961484D02*
X15761682Y-14961484D01*
X15761682Y-14961484D02*
X15742634Y-14951960D01*
X15742634Y-14951960D02*
X15733111Y-14942436D01*
X15733111Y-14942436D02*
X15723587Y-14923388D01*
X15723587Y-14923388D02*
X15723587Y-14866246D01*
X15723587Y-14866246D02*
X15733111Y-14847198D01*
X15733111Y-14847198D02*
X15742634Y-14837674D01*
X15742634Y-14837674D02*
X15761682Y-14828150D01*
X15761682Y-14828150D02*
X15799777Y-14828150D01*
X15799777Y-14828150D02*
X15818825Y-14837674D01*
X15895015Y-15037674D02*
X15904539Y-15028150D01*
X15904539Y-15028150D02*
X15923587Y-14999579D01*
X15923587Y-14999579D02*
X15933111Y-14980531D01*
X15933111Y-14980531D02*
X15942634Y-14951960D01*
X15942634Y-14951960D02*
X15952158Y-14904341D01*
X15952158Y-14904341D02*
X15952158Y-14866246D01*
X15952158Y-14866246D02*
X15942634Y-14818627D01*
X15942634Y-14818627D02*
X15933111Y-14790055D01*
X15933111Y-14790055D02*
X15923587Y-14771008D01*
X15923587Y-14771008D02*
X15904539Y-14742436D01*
X15904539Y-14742436D02*
X15895015Y-14732912D01*
X9039000Y-15290000D02*
X9139000Y-15190000D01*
X9039000Y-15090000D01*
X8939000Y-15190000D01*
X9039000Y-15290000D01*
X9380729Y-15081484D02*
X9504539Y-15081484D01*
X9504539Y-15081484D02*
X9437872Y-15157674D01*
X9437872Y-15157674D02*
X9466444Y-15157674D01*
X9466444Y-15157674D02*
X9485491Y-15167198D01*
X9485491Y-15167198D02*
X9495015Y-15176722D01*
X9495015Y-15176722D02*
X9504539Y-15195769D01*
X9504539Y-15195769D02*
X9504539Y-15243388D01*
X9504539Y-15243388D02*
X9495015Y-15262436D01*
X9495015Y-15262436D02*
X9485491Y-15271960D01*
X9485491Y-15271960D02*
X9466444Y-15281484D01*
X9466444Y-15281484D02*
X9409301Y-15281484D01*
X9409301Y-15281484D02*
X9390253Y-15271960D01*
X9390253Y-15271960D02*
X9380729Y-15262436D01*
X9590253Y-15262436D02*
X9599777Y-15271960D01*
X9599777Y-15271960D02*
X9590253Y-15281484D01*
X9590253Y-15281484D02*
X9580729Y-15271960D01*
X9580729Y-15271960D02*
X9590253Y-15262436D01*
X9590253Y-15262436D02*
X9590253Y-15281484D01*
X9780729Y-15081484D02*
X9685491Y-15081484D01*
X9685491Y-15081484D02*
X9675967Y-15176722D01*
X9675967Y-15176722D02*
X9685491Y-15167198D01*
X9685491Y-15167198D02*
X9704539Y-15157674D01*
X9704539Y-15157674D02*
X9752158Y-15157674D01*
X9752158Y-15157674D02*
X9771205Y-15167198D01*
X9771205Y-15167198D02*
X9780729Y-15176722D01*
X9780729Y-15176722D02*
X9790253Y-15195769D01*
X9790253Y-15195769D02*
X9790253Y-15243388D01*
X9790253Y-15243388D02*
X9780729Y-15262436D01*
X9780729Y-15262436D02*
X9771205Y-15271960D01*
X9771205Y-15271960D02*
X9752158Y-15281484D01*
X9752158Y-15281484D02*
X9704539Y-15281484D01*
X9704539Y-15281484D02*
X9685491Y-15271960D01*
X9685491Y-15271960D02*
X9675967Y-15262436D01*
X9914063Y-15081484D02*
X9933110Y-15081484D01*
X9933110Y-15081484D02*
X9952158Y-15091008D01*
X9952158Y-15091008D02*
X9961682Y-15100531D01*
X9961682Y-15100531D02*
X9971205Y-15119579D01*
X9971205Y-15119579D02*
X9980729Y-15157674D01*
X9980729Y-15157674D02*
X9980729Y-15205293D01*
X9980729Y-15205293D02*
X9971205Y-15243388D01*
X9971205Y-15243388D02*
X9961682Y-15262436D01*
X9961682Y-15262436D02*
X9952158Y-15271960D01*
X9952158Y-15271960D02*
X9933110Y-15281484D01*
X9933110Y-15281484D02*
X9914063Y-15281484D01*
X9914063Y-15281484D02*
X9895015Y-15271960D01*
X9895015Y-15271960D02*
X9885491Y-15262436D01*
X9885491Y-15262436D02*
X9875967Y-15243388D01*
X9875967Y-15243388D02*
X9866444Y-15205293D01*
X9866444Y-15205293D02*
X9866444Y-15157674D01*
X9866444Y-15157674D02*
X9875967Y-15119579D01*
X9875967Y-15119579D02*
X9885491Y-15100531D01*
X9885491Y-15100531D02*
X9895015Y-15091008D01*
X9895015Y-15091008D02*
X9914063Y-15081484D01*
X10104539Y-15081484D02*
X10123586Y-15081484D01*
X10123586Y-15081484D02*
X10142634Y-15091008D01*
X10142634Y-15091008D02*
X10152158Y-15100531D01*
X10152158Y-15100531D02*
X10161682Y-15119579D01*
X10161682Y-15119579D02*
X10171205Y-15157674D01*
X10171205Y-15157674D02*
X10171205Y-15205293D01*
X10171205Y-15205293D02*
X10161682Y-15243388D01*
X10161682Y-15243388D02*
X10152158Y-15262436D01*
X10152158Y-15262436D02*
X10142634Y-15271960D01*
X10142634Y-15271960D02*
X10123586Y-15281484D01*
X10123586Y-15281484D02*
X10104539Y-15281484D01*
X10104539Y-15281484D02*
X10085491Y-15271960D01*
X10085491Y-15271960D02*
X10075967Y-15262436D01*
X10075967Y-15262436D02*
X10066444Y-15243388D01*
X10066444Y-15243388D02*
X10056920Y-15205293D01*
X10056920Y-15205293D02*
X10056920Y-15157674D01*
X10056920Y-15157674D02*
X10066444Y-15119579D01*
X10066444Y-15119579D02*
X10075967Y-15100531D01*
X10075967Y-15100531D02*
X10085491Y-15091008D01*
X10085491Y-15091008D02*
X10104539Y-15081484D01*
X10256920Y-15281484D02*
X10256920Y-15148150D01*
X10256920Y-15167198D02*
X10266444Y-15157674D01*
X10266444Y-15157674D02*
X10285491Y-15148150D01*
X10285491Y-15148150D02*
X10314063Y-15148150D01*
X10314063Y-15148150D02*
X10333110Y-15157674D01*
X10333110Y-15157674D02*
X10342634Y-15176722D01*
X10342634Y-15176722D02*
X10342634Y-15281484D01*
X10342634Y-15176722D02*
X10352158Y-15157674D01*
X10352158Y-15157674D02*
X10371205Y-15148150D01*
X10371205Y-15148150D02*
X10399777Y-15148150D01*
X10399777Y-15148150D02*
X10418825Y-15157674D01*
X10418825Y-15157674D02*
X10428348Y-15176722D01*
X10428348Y-15176722D02*
X10428348Y-15281484D01*
X10523586Y-15281484D02*
X10523586Y-15148150D01*
X10523586Y-15167198D02*
X10533110Y-15157674D01*
X10533110Y-15157674D02*
X10552158Y-15148150D01*
X10552158Y-15148150D02*
X10580729Y-15148150D01*
X10580729Y-15148150D02*
X10599777Y-15157674D01*
X10599777Y-15157674D02*
X10609301Y-15176722D01*
X10609301Y-15176722D02*
X10609301Y-15281484D01*
X10609301Y-15176722D02*
X10618825Y-15157674D01*
X10618825Y-15157674D02*
X10637872Y-15148150D01*
X10637872Y-15148150D02*
X10666444Y-15148150D01*
X10666444Y-15148150D02*
X10685491Y-15157674D01*
X10685491Y-15157674D02*
X10695015Y-15176722D01*
X10695015Y-15176722D02*
X10695015Y-15281484D01*
X11085491Y-15071960D02*
X10914063Y-15329103D01*
X11342634Y-15081484D02*
X11361682Y-15081484D01*
X11361682Y-15081484D02*
X11380729Y-15091008D01*
X11380729Y-15091008D02*
X11390253Y-15100531D01*
X11390253Y-15100531D02*
X11399777Y-15119579D01*
X11399777Y-15119579D02*
X11409301Y-15157674D01*
X11409301Y-15157674D02*
X11409301Y-15205293D01*
X11409301Y-15205293D02*
X11399777Y-15243388D01*
X11399777Y-15243388D02*
X11390253Y-15262436D01*
X11390253Y-15262436D02*
X11380729Y-15271960D01*
X11380729Y-15271960D02*
X11361682Y-15281484D01*
X11361682Y-15281484D02*
X11342634Y-15281484D01*
X11342634Y-15281484D02*
X11323586Y-15271960D01*
X11323586Y-15271960D02*
X11314063Y-15262436D01*
X11314063Y-15262436D02*
X11304539Y-15243388D01*
X11304539Y-15243388D02*
X11295015Y-15205293D01*
X11295015Y-15205293D02*
X11295015Y-15157674D01*
X11295015Y-15157674D02*
X11304539Y-15119579D01*
X11304539Y-15119579D02*
X11314063Y-15100531D01*
X11314063Y-15100531D02*
X11323586Y-15091008D01*
X11323586Y-15091008D02*
X11342634Y-15081484D01*
X11495015Y-15262436D02*
X11504539Y-15271960D01*
X11504539Y-15271960D02*
X11495015Y-15281484D01*
X11495015Y-15281484D02*
X11485491Y-15271960D01*
X11485491Y-15271960D02*
X11495015Y-15262436D01*
X11495015Y-15262436D02*
X11495015Y-15281484D01*
X11695015Y-15281484D02*
X11580729Y-15281484D01*
X11637872Y-15281484D02*
X11637872Y-15081484D01*
X11637872Y-15081484D02*
X11618825Y-15110055D01*
X11618825Y-15110055D02*
X11599777Y-15129103D01*
X11599777Y-15129103D02*
X11580729Y-15138627D01*
X11761682Y-15081484D02*
X11885491Y-15081484D01*
X11885491Y-15081484D02*
X11818825Y-15157674D01*
X11818825Y-15157674D02*
X11847396Y-15157674D01*
X11847396Y-15157674D02*
X11866444Y-15167198D01*
X11866444Y-15167198D02*
X11875967Y-15176722D01*
X11875967Y-15176722D02*
X11885491Y-15195769D01*
X11885491Y-15195769D02*
X11885491Y-15243388D01*
X11885491Y-15243388D02*
X11875967Y-15262436D01*
X11875967Y-15262436D02*
X11866444Y-15271960D01*
X11866444Y-15271960D02*
X11847396Y-15281484D01*
X11847396Y-15281484D02*
X11790253Y-15281484D01*
X11790253Y-15281484D02*
X11771206Y-15271960D01*
X11771206Y-15271960D02*
X11761682Y-15262436D01*
X11952158Y-15081484D02*
X12085491Y-15081484D01*
X12085491Y-15081484D02*
X11999777Y-15281484D01*
X12190253Y-15167198D02*
X12171206Y-15157674D01*
X12171206Y-15157674D02*
X12161682Y-15148150D01*
X12161682Y-15148150D02*
X12152158Y-15129103D01*
X12152158Y-15129103D02*
X12152158Y-15119579D01*
X12152158Y-15119579D02*
X12161682Y-15100531D01*
X12161682Y-15100531D02*
X12171206Y-15091008D01*
X12171206Y-15091008D02*
X12190253Y-15081484D01*
X12190253Y-15081484D02*
X12228348Y-15081484D01*
X12228348Y-15081484D02*
X12247396Y-15091008D01*
X12247396Y-15091008D02*
X12256920Y-15100531D01*
X12256920Y-15100531D02*
X12266444Y-15119579D01*
X12266444Y-15119579D02*
X12266444Y-15129103D01*
X12266444Y-15129103D02*
X12256920Y-15148150D01*
X12256920Y-15148150D02*
X12247396Y-15157674D01*
X12247396Y-15157674D02*
X12228348Y-15167198D01*
X12228348Y-15167198D02*
X12190253Y-15167198D01*
X12190253Y-15167198D02*
X12171206Y-15176722D01*
X12171206Y-15176722D02*
X12161682Y-15186246D01*
X12161682Y-15186246D02*
X12152158Y-15205293D01*
X12152158Y-15205293D02*
X12152158Y-15243388D01*
X12152158Y-15243388D02*
X12161682Y-15262436D01*
X12161682Y-15262436D02*
X12171206Y-15271960D01*
X12171206Y-15271960D02*
X12190253Y-15281484D01*
X12190253Y-15281484D02*
X12228348Y-15281484D01*
X12228348Y-15281484D02*
X12247396Y-15271960D01*
X12247396Y-15271960D02*
X12256920Y-15262436D01*
X12256920Y-15262436D02*
X12266444Y-15243388D01*
X12266444Y-15243388D02*
X12266444Y-15205293D01*
X12266444Y-15205293D02*
X12256920Y-15186246D01*
X12256920Y-15186246D02*
X12247396Y-15176722D01*
X12247396Y-15176722D02*
X12228348Y-15167198D01*
X12342634Y-15081484D02*
X12342634Y-15119579D01*
X12418825Y-15081484D02*
X12418825Y-15119579D01*
X12714063Y-15357674D02*
X12704539Y-15348150D01*
X12704539Y-15348150D02*
X12685491Y-15319579D01*
X12685491Y-15319579D02*
X12675968Y-15300531D01*
X12675968Y-15300531D02*
X12666444Y-15271960D01*
X12666444Y-15271960D02*
X12656920Y-15224341D01*
X12656920Y-15224341D02*
X12656920Y-15186246D01*
X12656920Y-15186246D02*
X12666444Y-15138627D01*
X12666444Y-15138627D02*
X12675968Y-15110055D01*
X12675968Y-15110055D02*
X12685491Y-15091008D01*
X12685491Y-15091008D02*
X12704539Y-15062436D01*
X12704539Y-15062436D02*
X12714063Y-15052912D01*
X12895015Y-15281484D02*
X12780729Y-15281484D01*
X12837872Y-15281484D02*
X12837872Y-15081484D01*
X12837872Y-15081484D02*
X12818825Y-15110055D01*
X12818825Y-15110055D02*
X12799777Y-15129103D01*
X12799777Y-15129103D02*
X12780729Y-15138627D01*
X13133110Y-15281484D02*
X13133110Y-15081484D01*
X13218825Y-15281484D02*
X13218825Y-15176722D01*
X13218825Y-15176722D02*
X13209301Y-15157674D01*
X13209301Y-15157674D02*
X13190253Y-15148150D01*
X13190253Y-15148150D02*
X13161682Y-15148150D01*
X13161682Y-15148150D02*
X13142634Y-15157674D01*
X13142634Y-15157674D02*
X13133110Y-15167198D01*
X13342634Y-15281484D02*
X13323587Y-15271960D01*
X13323587Y-15271960D02*
X13314063Y-15262436D01*
X13314063Y-15262436D02*
X13304539Y-15243388D01*
X13304539Y-15243388D02*
X13304539Y-15186246D01*
X13304539Y-15186246D02*
X13314063Y-15167198D01*
X13314063Y-15167198D02*
X13323587Y-15157674D01*
X13323587Y-15157674D02*
X13342634Y-15148150D01*
X13342634Y-15148150D02*
X13371206Y-15148150D01*
X13371206Y-15148150D02*
X13390253Y-15157674D01*
X13390253Y-15157674D02*
X13399777Y-15167198D01*
X13399777Y-15167198D02*
X13409301Y-15186246D01*
X13409301Y-15186246D02*
X13409301Y-15243388D01*
X13409301Y-15243388D02*
X13399777Y-15262436D01*
X13399777Y-15262436D02*
X13390253Y-15271960D01*
X13390253Y-15271960D02*
X13371206Y-15281484D01*
X13371206Y-15281484D02*
X13342634Y-15281484D01*
X13523587Y-15281484D02*
X13504539Y-15271960D01*
X13504539Y-15271960D02*
X13495015Y-15252912D01*
X13495015Y-15252912D02*
X13495015Y-15081484D01*
X13675968Y-15271960D02*
X13656920Y-15281484D01*
X13656920Y-15281484D02*
X13618825Y-15281484D01*
X13618825Y-15281484D02*
X13599777Y-15271960D01*
X13599777Y-15271960D02*
X13590253Y-15252912D01*
X13590253Y-15252912D02*
X13590253Y-15176722D01*
X13590253Y-15176722D02*
X13599777Y-15157674D01*
X13599777Y-15157674D02*
X13618825Y-15148150D01*
X13618825Y-15148150D02*
X13656920Y-15148150D01*
X13656920Y-15148150D02*
X13675968Y-15157674D01*
X13675968Y-15157674D02*
X13685491Y-15176722D01*
X13685491Y-15176722D02*
X13685491Y-15195769D01*
X13685491Y-15195769D02*
X13590253Y-15214817D01*
X13752158Y-15357674D02*
X13761682Y-15348150D01*
X13761682Y-15348150D02*
X13780730Y-15319579D01*
X13780730Y-15319579D02*
X13790253Y-15300531D01*
X13790253Y-15300531D02*
X13799777Y-15271960D01*
X13799777Y-15271960D02*
X13809301Y-15224341D01*
X13809301Y-15224341D02*
X13809301Y-15186246D01*
X13809301Y-15186246D02*
X13799777Y-15138627D01*
X13799777Y-15138627D02*
X13790253Y-15110055D01*
X13790253Y-15110055D02*
X13780730Y-15091008D01*
X13780730Y-15091008D02*
X13761682Y-15062436D01*
X13761682Y-15062436D02*
X13752158Y-15052912D01*
X14114063Y-15357674D02*
X14104539Y-15348150D01*
X14104539Y-15348150D02*
X14085491Y-15319579D01*
X14085491Y-15319579D02*
X14075968Y-15300531D01*
X14075968Y-15300531D02*
X14066444Y-15271960D01*
X14066444Y-15271960D02*
X14056920Y-15224341D01*
X14056920Y-15224341D02*
X14056920Y-15186246D01*
X14056920Y-15186246D02*
X14066444Y-15138627D01*
X14066444Y-15138627D02*
X14075968Y-15110055D01*
X14075968Y-15110055D02*
X14085491Y-15091008D01*
X14085491Y-15091008D02*
X14104539Y-15062436D01*
X14104539Y-15062436D02*
X14114063Y-15052912D01*
X14190253Y-15148150D02*
X14190253Y-15281484D01*
X14190253Y-15167198D02*
X14199777Y-15157674D01*
X14199777Y-15157674D02*
X14218825Y-15148150D01*
X14218825Y-15148150D02*
X14247396Y-15148150D01*
X14247396Y-15148150D02*
X14266444Y-15157674D01*
X14266444Y-15157674D02*
X14275968Y-15176722D01*
X14275968Y-15176722D02*
X14275968Y-15281484D01*
X14399777Y-15281484D02*
X14380730Y-15271960D01*
X14380730Y-15271960D02*
X14371206Y-15262436D01*
X14371206Y-15262436D02*
X14361682Y-15243388D01*
X14361682Y-15243388D02*
X14361682Y-15186246D01*
X14361682Y-15186246D02*
X14371206Y-15167198D01*
X14371206Y-15167198D02*
X14380730Y-15157674D01*
X14380730Y-15157674D02*
X14399777Y-15148150D01*
X14399777Y-15148150D02*
X14428349Y-15148150D01*
X14428349Y-15148150D02*
X14447396Y-15157674D01*
X14447396Y-15157674D02*
X14456920Y-15167198D01*
X14456920Y-15167198D02*
X14466444Y-15186246D01*
X14466444Y-15186246D02*
X14466444Y-15243388D01*
X14466444Y-15243388D02*
X14456920Y-15262436D01*
X14456920Y-15262436D02*
X14447396Y-15271960D01*
X14447396Y-15271960D02*
X14428349Y-15281484D01*
X14428349Y-15281484D02*
X14399777Y-15281484D01*
X14523587Y-15148150D02*
X14599777Y-15148150D01*
X14552158Y-15081484D02*
X14552158Y-15252912D01*
X14552158Y-15252912D02*
X14561682Y-15271960D01*
X14561682Y-15271960D02*
X14580730Y-15281484D01*
X14580730Y-15281484D02*
X14599777Y-15281484D01*
X14818825Y-15148150D02*
X14818825Y-15348150D01*
X14818825Y-15157674D02*
X14837872Y-15148150D01*
X14837872Y-15148150D02*
X14875968Y-15148150D01*
X14875968Y-15148150D02*
X14895015Y-15157674D01*
X14895015Y-15157674D02*
X14904539Y-15167198D01*
X14904539Y-15167198D02*
X14914063Y-15186246D01*
X14914063Y-15186246D02*
X14914063Y-15243388D01*
X14914063Y-15243388D02*
X14904539Y-15262436D01*
X14904539Y-15262436D02*
X14895015Y-15271960D01*
X14895015Y-15271960D02*
X14875968Y-15281484D01*
X14875968Y-15281484D02*
X14837872Y-15281484D01*
X14837872Y-15281484D02*
X14818825Y-15271960D01*
X15028349Y-15281484D02*
X15009301Y-15271960D01*
X15009301Y-15271960D02*
X14999777Y-15252912D01*
X14999777Y-15252912D02*
X14999777Y-15081484D01*
X15190253Y-15281484D02*
X15190253Y-15176722D01*
X15190253Y-15176722D02*
X15180730Y-15157674D01*
X15180730Y-15157674D02*
X15161682Y-15148150D01*
X15161682Y-15148150D02*
X15123587Y-15148150D01*
X15123587Y-15148150D02*
X15104539Y-15157674D01*
X15190253Y-15271960D02*
X15171206Y-15281484D01*
X15171206Y-15281484D02*
X15123587Y-15281484D01*
X15123587Y-15281484D02*
X15104539Y-15271960D01*
X15104539Y-15271960D02*
X15095015Y-15252912D01*
X15095015Y-15252912D02*
X15095015Y-15233865D01*
X15095015Y-15233865D02*
X15104539Y-15214817D01*
X15104539Y-15214817D02*
X15123587Y-15205293D01*
X15123587Y-15205293D02*
X15171206Y-15205293D01*
X15171206Y-15205293D02*
X15190253Y-15195769D01*
X15256920Y-15148150D02*
X15333111Y-15148150D01*
X15285492Y-15081484D02*
X15285492Y-15252912D01*
X15285492Y-15252912D02*
X15295015Y-15271960D01*
X15295015Y-15271960D02*
X15314063Y-15281484D01*
X15314063Y-15281484D02*
X15333111Y-15281484D01*
X15475968Y-15271960D02*
X15456920Y-15281484D01*
X15456920Y-15281484D02*
X15418825Y-15281484D01*
X15418825Y-15281484D02*
X15399777Y-15271960D01*
X15399777Y-15271960D02*
X15390253Y-15252912D01*
X15390253Y-15252912D02*
X15390253Y-15176722D01*
X15390253Y-15176722D02*
X15399777Y-15157674D01*
X15399777Y-15157674D02*
X15418825Y-15148150D01*
X15418825Y-15148150D02*
X15456920Y-15148150D01*
X15456920Y-15148150D02*
X15475968Y-15157674D01*
X15475968Y-15157674D02*
X15485492Y-15176722D01*
X15485492Y-15176722D02*
X15485492Y-15195769D01*
X15485492Y-15195769D02*
X15390253Y-15214817D01*
X15656920Y-15281484D02*
X15656920Y-15081484D01*
X15656920Y-15271960D02*
X15637873Y-15281484D01*
X15637873Y-15281484D02*
X15599777Y-15281484D01*
X15599777Y-15281484D02*
X15580730Y-15271960D01*
X15580730Y-15271960D02*
X15571206Y-15262436D01*
X15571206Y-15262436D02*
X15561682Y-15243388D01*
X15561682Y-15243388D02*
X15561682Y-15186246D01*
X15561682Y-15186246D02*
X15571206Y-15167198D01*
X15571206Y-15167198D02*
X15580730Y-15157674D01*
X15580730Y-15157674D02*
X15599777Y-15148150D01*
X15599777Y-15148150D02*
X15637873Y-15148150D01*
X15637873Y-15148150D02*
X15656920Y-15157674D01*
X15733111Y-15357674D02*
X15742634Y-15348150D01*
X15742634Y-15348150D02*
X15761682Y-15319579D01*
X15761682Y-15319579D02*
X15771206Y-15300531D01*
X15771206Y-15300531D02*
X15780730Y-15271960D01*
X15780730Y-15271960D02*
X15790253Y-15224341D01*
X15790253Y-15224341D02*
X15790253Y-15186246D01*
X15790253Y-15186246D02*
X15780730Y-15138627D01*
X15780730Y-15138627D02*
X15771206Y-15110055D01*
X15771206Y-15110055D02*
X15761682Y-15091008D01*
X15761682Y-15091008D02*
X15742634Y-15062436D01*
X15742634Y-15062436D02*
X15733111Y-15052912D01*
M02*
