M48
; DRILL file {KiCad 7.0.7} date Wed 20 Sep 2023 10:34:11 BST
; FORMAT={-:-/ absolute / metric / decimal}
; #@! TF.CreationDate,2023-09-20T10:34:11+01:00
; #@! TF.GenerationSoftware,Kicad,Pcbnew,7.0.7
; #@! TF.FileFunction,Plated,1,2,PTH
FMAT,2
METRIC
; #@! TA.AperFunction,Plated,PTH,ViaDrill
T1C0.400
; #@! TA.AperFunction,Plated,PTH,ComponentDrill
T2C0.500
; #@! TA.AperFunction,Plated,PTH,ComponentDrill
T3C0.762
; #@! TA.AperFunction,Plated,PTH,ComponentDrill
T4C0.800
; #@! TA.AperFunction,Plated,PTH,ComponentDrill
T5C0.950
; #@! TA.AperFunction,Plated,PTH,ComponentDrill
T6C1.000
; #@! TA.AperFunction,Plated,PTH,ComponentDrill
T7C1.020
; #@! TA.AperFunction,Plated,PTH,ComponentDrill
T8C1.100
; #@! TA.AperFunction,Plated,PTH,ComponentDrill
T9C1.520
%
G90
G05
T1
X146.685Y-107.315
T2
X105.41Y-103.275
X105.41Y-104.775
T3
X110.49Y-80.942
X110.49Y-100.942
T4
X93.97Y-98.415
X93.97Y-100.955
X93.97Y-103.495
X93.97Y-106.035
X101.59Y-98.415
X101.59Y-100.955
X101.59Y-103.495
X101.59Y-106.035
X157.48Y-88.265
X157.48Y-92.075
X157.48Y-95.885
X157.48Y-99.695
X167.64Y-88.265
X167.64Y-92.075
X167.64Y-95.885
X167.64Y-99.695
T5
X96.72Y-128.27
X96.76Y-120.65
X99.22Y-128.27
X99.26Y-120.65
X101.72Y-128.27
X101.76Y-120.65
X104.22Y-128.27
X104.26Y-120.65
X106.72Y-128.27
X106.76Y-120.65
X108.11Y-111.76
X109.22Y-128.27
X109.26Y-120.65
X110.61Y-111.76
X113.11Y-111.76
X115.61Y-111.76
X115.77Y-120.65
X115.77Y-128.27
X118.11Y-111.76
X118.27Y-120.65
X118.27Y-128.27
X120.61Y-111.76
X120.77Y-120.65
X120.77Y-128.27
X123.27Y-120.65
X123.27Y-128.27
X125.77Y-120.65
X125.77Y-128.27
X127.0Y-111.76
X128.27Y-120.65
X128.27Y-128.27
X129.5Y-111.76
X132.0Y-111.76
X134.5Y-111.76
X137.0Y-111.76
X137.36Y-120.65
X137.36Y-128.27
X139.5Y-111.76
X139.86Y-120.65
X139.86Y-128.27
X142.36Y-120.65
X142.36Y-128.27
X144.86Y-120.65
X144.86Y-128.27
X147.36Y-120.65
X147.36Y-128.27
X147.44Y-111.76
X149.86Y-120.65
X149.86Y-128.27
X149.94Y-111.76
X152.44Y-111.76
X154.94Y-111.76
X156.41Y-120.65
X156.41Y-128.27
X157.44Y-111.76
X158.91Y-120.65
X158.91Y-128.27
X159.94Y-111.76
X161.41Y-120.65
X161.41Y-128.27
X163.91Y-120.65
X163.91Y-128.27
X166.41Y-120.65
X166.41Y-128.27
X168.91Y-120.65
X168.91Y-128.27
T6
X101.6Y-74.612
X104.14Y-74.612
X106.68Y-74.612
X109.22Y-74.612
X111.76Y-74.612
X114.3Y-74.612
X116.84Y-74.612
X119.38Y-74.612
X121.92Y-74.612
T7
X128.27Y-55.88
X128.27Y-58.42
X128.27Y-60.96
X128.27Y-63.5
X128.27Y-66.04
X128.27Y-68.58
X128.27Y-71.12
X128.27Y-73.66
X128.27Y-76.2
X128.27Y-78.74
X128.27Y-81.28
X128.27Y-83.82
X128.27Y-86.36
X128.27Y-88.9
X128.27Y-91.44
X128.27Y-93.98
X128.27Y-96.52
X128.27Y-99.06
X128.27Y-101.6
X128.27Y-104.14
X146.05Y-55.88
X146.05Y-58.42
X146.05Y-60.96
X146.05Y-63.5
X146.05Y-66.04
X146.05Y-68.58
X146.05Y-71.12
X146.05Y-73.66
X146.05Y-76.2
X146.05Y-78.74
X146.05Y-81.28
X146.05Y-83.82
X146.05Y-86.36
X146.05Y-88.9
X146.05Y-91.44
X146.05Y-93.98
X146.05Y-96.52
X146.05Y-99.06
X146.05Y-101.6
X146.05Y-104.14
T8
X157.48Y-66.04
X157.48Y-76.2
X163.83Y-66.97
X166.37Y-66.97
X168.91Y-66.97
T9
X160.02Y-58.42
X165.1Y-58.42
T0
M30
